<?xml version="1.0" encoding="iso-8859-1"?>
<!-- Generator: Adobe Illustrator 16.0.0, SVG Export Plug-In . SVG Version: 6.00 Build 0)  -->
<!DOCTYPE svg PUBLIC "-//W3C//DTD SVG 1.1//EN" "http://www.w3.org/Graphics/SVG/1.1/DTD/svg11.dtd">
<svg version="1.1" xmlns="http://www.w3.org/2000/svg" xmlns:xlink="http://www.w3.org/1999/xlink" x="0px" y="0px"
	 width="193.439px" height="190.8px" viewBox="0 0 193.439 190.8" style="enable-background:new 0 0 193.439 190.8;"
	 xml:space="preserve">
<g id="Tombstone" style="display:none;">
	<g style="display:inline;">
		<g>
			<path style="fill-rule:evenodd;clip-rule:evenodd;" d="M165.36,189.36c-45.04,0-90.081,0-135.12,0c0-41.12,0-82.24,0-123.36
				c0.056-0.392,0.142-0.782,0.164-1.176c0.232-4.173,0.921-8.272,1.925-12.327c1.313-5.305,3.265-10.37,5.842-15.176
				c4.128-7.7,9.554-14.364,16.246-19.999c6.898-5.809,14.625-10.138,23.249-12.735c3.621-1.09,7.386-1.725,11.108-2.448
				c1.902-0.369,3.856-0.475,5.787-0.7c2.08,0,4.16,0,6.24,0c0.273,0.051,0.544,0.135,0.819,0.149
				c5.49,0.288,10.909,1.117,16.087,2.951c4.175,1.479,8.354,3.087,12.264,5.146c8.126,4.279,14.964,10.204,20.712,17.387
				c6.34,7.924,10.596,16.877,12.951,26.697c1.206,5.029,1.686,10.187,1.681,15.392c-0.031,39.508-0.017,79.017-0.014,118.524
				C165.3,188.244,165.339,188.803,165.36,189.36z M155.823,179.759c0-0.679,0-1.233,0-1.788c0-31.157,0.015-62.315-0.014-93.473
				c-0.005-5.226-0.188-10.451-0.301-15.677c-0.089-4.072-0.873-8.037-1.86-11.971c-1.768-7.042-4.591-13.645-8.614-19.672
				c-2.096-3.138-4.359-6.24-6.986-8.929c-3.486-3.568-7.713-6.287-12.077-8.724c-4.524-2.526-9.252-4.651-14.279-5.878
				c-4.224-1.03-8.538-1.844-12.86-2.273c-4.461-0.443-8.84,0.705-13.163,1.782c-7.04,1.754-13.66,4.548-19.663,8.606
				c-3.321,2.245-6.645,4.643-9.417,7.505c-4.54,4.687-7.877,10.292-10.625,16.228c-3.997,8.634-6.118,17.738-6.146,27.209
				c-0.103,35.237-0.041,70.475-0.041,105.712c0,0.427,0,0.854,0,1.343C78.499,179.759,117.076,179.759,155.823,179.759z"/>
			<path style="fill-rule:evenodd;clip-rule:evenodd;fill:none;" d="M165.36,189.36c-0.021-0.558-0.061-1.116-0.061-1.674
				c-0.003-39.508-0.018-79.017,0.014-118.524c0.005-5.205-0.475-10.362-1.681-15.392c-2.355-9.82-6.611-18.773-12.951-26.697
				c-5.748-7.184-12.586-13.108-20.712-17.387c-3.91-2.059-8.089-3.667-12.264-5.146c-5.178-1.834-10.597-2.663-16.087-2.951
				c-0.275-0.014-0.546-0.098-0.819-0.149c21.601,0,43.2,0,64.8,0c0,62.28,0.001,124.56-0.01,186.84
				C165.59,188.64,165.439,189,165.36,189.36z"/>
			<path style="fill-rule:evenodd;clip-rule:evenodd;fill:none;" d="M94.56,1.44c-1.931,0.225-3.885,0.331-5.787,0.7
				c-3.723,0.723-7.487,1.357-11.108,2.448c-8.624,2.597-16.351,6.926-23.249,12.735c-6.691,5.635-12.118,12.298-16.246,19.999
				c-2.577,4.806-4.528,9.871-5.842,15.176c-1.004,4.054-1.692,8.153-1.925,12.327c-0.022,0.394-0.108,0.784-0.164,1.176
				c0-21.5,0-43,0-64.56C51.68,1.44,73.12,1.44,94.56,1.44z"/>
			<path style="fill-rule:evenodd;clip-rule:evenodd;fill:none;" d="M155.823,179.759c-38.747,0-77.325,0-116.046,0
				c0-0.489,0-0.916,0-1.343c0-35.237-0.062-70.476,0.041-105.712c0.028-9.472,2.149-18.575,6.146-27.209
				c2.748-5.936,6.085-11.541,10.625-16.228c2.772-2.862,6.096-5.26,9.417-7.505c6.003-4.058,12.624-6.852,19.663-8.606
				c4.323-1.077,8.702-2.225,13.163-1.782c4.322,0.429,8.637,1.243,12.86,2.273c5.027,1.227,9.755,3.352,14.279,5.878
				c4.364,2.437,8.591,5.156,12.077,8.724c2.627,2.689,4.891,5.791,6.986,8.929c4.023,6.027,6.847,12.63,8.614,19.672
				c0.987,3.935,1.771,7.899,1.86,11.971c0.113,5.226,0.296,10.451,0.301,15.677c0.028,31.158,0.014,62.316,0.014,93.473
				C155.823,178.525,155.823,179.08,155.823,179.759z M105.646,77.084c0-9.559,0-18.93,0-28.27c-4.902,0-9.719,0-14.674,0
				c0,9.465,0,18.837,0,28.349c-9.512,0-18.884,0-28.257,0c0,4.885,0,9.629,0,14.535c9.44,0,18.811,0,28.31,0
				c0,20.458,0,40.751,0,61.105c4.903,0,9.676,0,14.579,0c0-0.582,0-1.093,0-1.603c0-19.355,0.01-38.711-0.024-58.067
				c-0.002-1.157,0.317-1.481,1.474-1.475c7.998,0.048,15.996,0.025,23.994,0.025c0.698,0,1.396,0,2.044,0c0-4.877,0-9.691,0-14.6
				C123.922,77.084,114.856,77.084,105.646,77.084z"/>
			<path style="fill-rule:evenodd;clip-rule:evenodd;" d="M105.646,77.084c9.21,0,18.275,0,27.445,0c0,4.909,0,9.723,0,14.6
				c-0.648,0-1.346,0-2.044,0c-7.998,0-15.996,0.023-23.994-0.025c-1.156-0.007-1.476,0.317-1.474,1.475
				c0.034,19.356,0.024,38.711,0.024,58.067c0,0.51,0,1.021,0,1.603c-4.903,0-9.676,0-14.579,0c0-20.354,0-40.647,0-61.105
				c-9.5,0-18.87,0-28.31,0c0-4.906,0-9.65,0-14.535c9.374,0,18.746,0,28.257,0c0-9.511,0-18.883,0-28.349c4.955,0,9.771,0,14.674,0
				C105.646,58.154,105.646,67.525,105.646,77.084z"/>
		</g>
	</g>
</g>
<g id="Shrine" style="display:none;">
	<g style="display:inline;">
		<g>
			<path style="fill-rule:evenodd;clip-rule:evenodd;fill:none;" d="M10.08,112.56c0-37.28,0-74.56,0-111.84
				c43.12,0,86.24,0,129.359,0c-0.08,1.02-0.221,2.039-0.229,3.059c-0.029,3.528-0.012,7.056-0.012,10.584
				c0.001,1.531,0.002,3.062,0.003,4.593c0,0.604,0,1.207,0,1.804c-5.285-0.976-10.262-1.895-15.3-2.825c0,2.612,0,5.034,0,7.481
				c3.017,0.575,5.978,1.133,8.936,1.706c1.916,0.371,3.833,0.743,5.737,1.17c0.298,0.067,0.74,0.421,0.753,0.663
				c0.066,1.209,0.019,2.425,0,3.639c-0.039,2.616-0.12,5.233-0.116,7.849c0.004,2.671,0.12,5.343,0.112,8.014
				c-0.002,0.502-0.021,1.124-0.909,1.252c-2.362,0.339-4.71,0.789-7.052,1.253c-3.766,0.747-7.518,1.56-11.283,2.309
				c-4.065,0.809-8.141,1.568-12.208,2.363c-2.034,0.398-4.057,0.854-6.094,1.238c-4.445,0.837-8.902,1.619-13.345,2.474
				c-5.145,0.99-10.279,2.038-15.419,3.054c-4.374,0.865-8.748,1.725-13.123,2.576c-1.534,0.298-3.075,0.563-4.651,0.851
				c0-7.254,0-14.282,0-21.526c5.274,0.996,10.462,1.976,15.662,2.958c-0.039-0.527-0.105-0.953-0.096-1.377
				c0.039-1.708,0.147-3.417,0.122-5.125c-0.007-0.462,0.107-1.224-0.867-1.201c-0.648,0.016-1.303-0.218-1.955-0.343
				c-3.919-0.75-7.829-1.564-11.766-2.206c-0.967-0.158-1.173-0.445-1.168-1.323c0.03-5.239,0.015-10.478,0.015-15.717
				c0-1.034,0-2.068,0-3.169c-2.374-0.45-4.656-0.881-7.025-1.33c-0.058,0.783-0.152,1.483-0.155,2.184
				c-0.015,3.768-0.011,7.536-0.005,11.304c0.002,1.65,0.035,3.3,0.028,4.95c-0.002,0.522-0.087,1.043-0.126,1.478
				c-5.218-0.965-10.168-1.881-15.204-2.813c0,2.577,0,5,0,7.48c2.981,0.573,5.938,1.134,8.891,1.71
				c1.953,0.381,3.908,0.759,5.847,1.207c0.266,0.062,0.619,0.516,0.625,0.795c0.033,1.492-0.056,2.986-0.056,4.479
				c0,2.605,0.049,5.211,0.05,7.816c0,2.959-0.064,5.918-0.034,8.876c0.02,1.862,0.3,3.575-1.3,5.223
				c-2.978,3.068-5.606,6.475-8.408,9.717c-1.414,1.635-2.91,3.199-4.327,4.833c-2.359,2.721-4.667,5.487-7.03,8.205
				c-1.964,2.257-3.995,4.456-5.963,6.708c-2.521,2.884-5.024,5.784-7.504,8.703C12.317,109.703,11.214,111.145,10.08,112.56z"/>
			<path style="fill-rule:evenodd;clip-rule:evenodd;" d="M10.08,112.56c1.134-1.415,2.237-2.856,3.411-4.238
				c2.48-2.919,4.983-5.818,7.504-8.703c1.969-2.252,4-4.451,5.963-6.708c2.363-2.717,4.671-5.484,7.03-8.205
				c1.417-1.633,2.913-3.197,4.327-4.833c2.801-3.242,5.43-6.648,8.408-9.717c1.6-1.648,1.319-3.361,1.3-5.223
				c-0.031-2.958,0.034-5.917,0.034-8.876c-0.001-2.605-0.05-5.21-0.05-7.816c0-1.493,0.089-2.987,0.056-4.479
				c-0.006-0.279-0.36-0.733-0.625-0.795c-1.938-0.448-3.894-0.825-5.847-1.207c-2.953-0.576-5.909-1.138-8.891-1.71
				c0-2.479,0-4.903,0-7.48c5.036,0.932,9.986,1.847,15.204,2.813c0.039-0.435,0.125-0.956,0.126-1.478
				c0.007-1.65-0.026-3.3-0.028-4.95c-0.005-3.768-0.009-7.536,0.005-11.304c0.003-0.7,0.097-1.4,0.155-2.184
				c2.37,0.449,4.652,0.88,7.025,1.33c0,1.102,0,2.135,0,3.169c0,5.239,0.015,10.478-0.015,15.717
				c-0.005,0.878,0.201,1.166,1.168,1.323c3.937,0.642,7.846,1.456,11.766,2.206c0.651,0.125,1.306,0.358,1.955,0.343
				c0.975-0.023,0.86,0.739,0.867,1.201c0.025,1.708-0.083,3.417-0.122,5.125c-0.009,0.424,0.057,0.851,0.096,1.377
				c-5.199-0.982-10.387-1.962-15.662-2.958c0,7.244,0,14.272,0,21.526c1.577-0.288,3.117-0.552,4.651-0.851
				c4.375-0.851,8.75-1.711,13.123-2.576c5.14-1.016,10.274-2.064,15.419-3.054c4.442-0.855,8.899-1.636,13.345-2.474
				c2.037-0.384,4.06-0.84,6.094-1.238c4.067-0.795,8.143-1.555,12.208-2.363c3.766-0.749,7.518-1.563,11.283-2.309
				c2.342-0.464,4.689-0.915,7.052-1.253c0.888-0.128,0.907-0.75,0.909-1.252c0.008-2.671-0.108-5.343-0.112-8.014
				c-0.004-2.616,0.077-5.232,0.116-7.849c0.019-1.214,0.066-2.43,0-3.639c-0.013-0.242-0.455-0.596-0.753-0.663
				c-1.904-0.427-3.821-0.799-5.737-1.17c-2.958-0.573-5.919-1.131-8.936-1.706c0-2.447,0-4.869,0-7.481
				c5.038,0.93,10.015,1.849,15.3,2.825c0-0.597,0-1.2,0-1.804c-0.001-1.531-0.002-3.062-0.003-4.593
				c0-3.528-0.018-7.057,0.012-10.584c0.008-1.02,0.148-2.04,0.229-3.059c0.08,0,0.16,0,0.24,0c0.121,0.078,0.232,0.201,0.363,0.227
				c2.099,0.412,4.2,0.813,6.345,1.224c0,2.689,0,5.246,0,7.802c0,3.72-0.001,7.44,0,11.16c0,0.559-0.075,1.059,0.765,1.206
				c4.934,0.861,9.854,1.786,14.927,2.716c0,2.521,0,5.023,0,7.564c-5.209-0.986-10.375-1.964-15.691-2.971c0,0.635,0,1.067,0,1.499
				c0,5.72,0.057,11.441-0.033,17.16c-0.028,1.821,0.18,3.443,1.495,4.789c0.277,0.284,0.561,0.568,0.799,0.885
				c3.623,4.816,7.267,9.618,10.849,14.465c3.419,4.627,6.747,9.322,10.162,13.952c2.218,3.006,4.527,5.944,6.781,8.923
				c3.008,3.976,5.958,7.997,9.022,11.93c1.294,1.661,1.806,3.41,1.408,5.452c-0.019,0.098,0.017,0.204,0.017,0.307
				c0.004,2.524,0.006,5.048,0.01,7.571c0.005,2.62,0.011,5.239,0.019,7.858c0.009,2.843,0.048,5.686,0.022,8.528
				c-0.019,2.025-0.181,4.051-0.172,6.076c0.013,2.873,0.161,5.745,0.185,8.618c0.034,4.173,0.004,8.346,0.01,12.519
				c0.002,1.685-0.153,1.926-2.02,2.532c-2.707,0.879-5.433,1.7-8.139,2.581c-3.189,1.039-6.354,2.154-9.552,3.165
				c-4.054,1.28-8.142,2.451-12.192,3.741c-2.635,0.84-5.213,1.854-7.844,2.708c-5.569,1.805-11.154,3.557-16.734,5.328
				c-4.055,1.288-8.111,2.568-12.165,3.86c-1.709,0.545-3.41,1.114-5.117,1.666c-3.789,1.227-7.577,2.457-11.371,3.669
				c-1.723,0.55-3.383,1.284-5.312,0.685c-1.769-0.551-3.619-0.845-5.438-1.227c-5.839-1.226-11.683-2.431-17.521-3.662
				c-4.024-0.849-8.044-1.72-12.063-2.598c-6.527-1.426-13.047-2.88-19.576-4.297c-6.725-1.459-13.455-2.898-20.187-4.327
				c-3.159-0.67-6.338-1.249-9.484-1.972c-0.77-0.177-1.447-0.758-2.166-1.153C10.08,151.439,10.08,131.999,10.08,112.56z
				 M101.152,127.795c25.703-6.976,51.567-13.994,77.616-21.063c-0.481-0.542-0.82-0.869-1.097-1.243
				c-3.6-4.854-7.168-9.732-10.79-14.569c-4.451-5.942-8.966-11.837-13.415-17.78c-3.976-5.312-7.896-10.664-11.86-15.985
				c-0.177-0.237-0.562-0.508-0.809-0.473c-1.393,0.197-2.775,0.468-4.156,0.741c-2.647,0.525-5.29,1.079-7.938,1.603
				c-4.378,0.867-8.759,1.722-13.139,2.58c-3.381,0.663-6.761,1.337-10.146,1.978c-3.964,0.75-7.938,1.448-11.899,2.212
				c-2.611,0.504-5.202,1.104-7.809,1.628c-4.375,0.879-8.753,1.74-13.133,2.593c-2.23,0.435-4.47,0.821-6.702,1.253
				c-2.963,0.574-5.922,1.171-8.88,1.757C71.715,91.285,86.373,109.465,101.152,127.795z M18.241,114.149
				c24.71,4.651,49.279,9.275,74.066,13.941c-13.931-17.277-27.674-34.32-41.43-51.38C39.956,89.239,29.155,101.629,18.241,114.149z
				 M101.027,181.724c0.824-0.243,1.529-0.436,2.224-0.661c3.455-1.121,6.901-2.268,10.361-3.375
				c5.022-1.608,10.058-3.177,15.08-4.787c3.758-1.205,7.495-2.471,11.256-3.669c4.205-1.339,8.435-2.602,12.636-3.952
				c4.684-1.506,9.338-3.099,14.021-4.604c4.016-1.29,8.055-2.505,12.081-3.763c0.789-0.246,1.116-0.713,1.113-1.638
				c-0.039-13.354-0.026-26.71-0.026-40.064c0-0.382,0-0.763,0-1.218c-5.265,1.451-10.372,2.872-15.487,4.267
				c-4.255,1.159-8.521,2.282-12.779,3.431c-3.825,1.03-7.649,2.064-11.47,3.111c-2.86,0.784-5.708,1.614-8.572,2.381
				c-4.331,1.159-8.677,2.262-13.006,3.426c-3.089,0.831-6.156,1.744-9.242,2.584c-2.481,0.676-4.986,1.271-7.458,1.979
				c-0.309,0.089-0.682,0.647-0.687,0.993c-0.054,3.233-0.033,6.468-0.033,9.702c0,4.306,0.003,8.612,0.001,12.918
				c-0.002,4.191-0.009,8.383-0.011,12.574C101.026,174.751,101.027,178.144,101.027,181.724z M93.426,135.859
				c-1.131-0.244-2.27-0.517-3.418-0.733c-4.191-0.788-8.388-1.545-12.578-2.339c-3.381-0.642-6.75-1.354-10.136-1.974
				c-4.199-0.766-8.417-1.426-12.612-2.209c-3.466-0.647-6.903-1.458-10.37-2.104c-4.618-0.861-9.258-1.599-13.877-2.454
				c-4.369-0.811-8.721-1.705-13.12-2.57c0,14.756,0,29.384,0,44.031c25.329,5.443,50.615,10.878,76.11,16.357
				C93.426,166.364,93.426,151.176,93.426,135.859z"/>
			<path style="fill-rule:evenodd;clip-rule:evenodd;fill:none;" d="M10.08,170.879c0.719,0.396,1.396,0.977,2.166,1.153
				c3.146,0.723,6.325,1.302,9.484,1.972c6.732,1.429,13.462,2.868,20.187,4.327c6.529,1.417,13.049,2.871,19.576,4.297
				c4.019,0.878,8.038,1.749,12.063,2.598c5.838,1.231,11.682,2.437,17.521,3.662c1.819,0.382,3.669,0.676,5.438,1.227
				c1.929,0.6,3.589-0.135,5.312-0.685c3.794-1.212,7.582-2.442,11.371-3.669c1.707-0.552,3.408-1.121,5.117-1.666
				c4.054-1.292,8.11-2.572,12.165-3.86c5.58-1.771,11.165-3.523,16.734-5.328c2.631-0.854,5.209-1.868,7.844-2.708
				c4.051-1.29,8.139-2.461,12.192-3.741c3.197-1.011,6.362-2.126,9.552-3.165c2.706-0.881,5.432-1.702,8.139-2.581
				c1.866-0.606,2.021-0.848,2.02-2.532c-0.006-4.173,0.024-8.346-0.01-12.519c-0.023-2.873-0.172-5.745-0.185-8.618
				c-0.009-2.025,0.153-4.051,0.172-6.076c0.025-2.843-0.014-5.686-0.022-8.528c-0.008-2.619-0.014-5.238-0.019-7.858
				c-0.004-2.523-0.006-5.047-0.01-7.571c0-0.103-0.035-0.209-0.017-0.307c0.397-2.042-0.114-3.791-1.408-5.452
				c-3.064-3.933-6.015-7.954-9.022-11.93c-2.254-2.979-4.563-5.917-6.781-8.923c-3.415-4.63-6.743-9.325-10.162-13.952
				c-3.582-4.847-7.226-9.648-10.849-14.465c-0.238-0.316-0.521-0.601-0.799-0.885c-1.315-1.345-1.523-2.968-1.495-4.789
				c0.09-5.719,0.033-11.44,0.033-17.16c0-0.432,0-0.864,0-1.499c5.316,1.007,10.482,1.985,15.691,2.971c0-2.541,0-5.044,0-7.564
				c-5.072-0.931-9.993-1.855-14.927-2.716c-0.84-0.147-0.765-0.647-0.765-1.206c-0.001-3.72,0-7.44,0-11.16
				c0-2.556,0-5.113,0-7.802c-2.145-0.411-4.246-0.812-6.345-1.224c-0.131-0.026-0.242-0.149-0.363-0.227c15.84,0,31.68,0,47.52,0
				c0,63.36,0,126.72,0,190.08c-59.039,0-118.08,0-177.119,0C10.08,184.159,10.08,177.52,10.08,170.879z"/>
			<path style="fill-rule:evenodd;clip-rule:evenodd;fill:none;" d="M101.152,127.795c-14.779-18.33-29.438-36.51-44.158-54.767
				c2.958-0.586,5.917-1.184,8.88-1.757c2.231-0.432,4.471-0.819,6.702-1.253c4.38-0.853,8.759-1.714,13.133-2.593
				c2.607-0.524,5.198-1.124,7.809-1.628c3.961-0.765,7.935-1.462,11.899-2.212c3.386-0.641,6.766-1.315,10.146-1.978
				c4.38-0.858,8.761-1.713,13.139-2.58c2.648-0.524,5.291-1.078,7.938-1.603c1.381-0.273,2.764-0.544,4.156-0.741
				c0.247-0.035,0.632,0.235,0.809,0.473c3.964,5.321,7.885,10.673,11.86,15.985c4.449,5.943,8.964,11.838,13.415,17.78
				c3.622,4.837,7.19,9.715,10.79,14.569c0.276,0.374,0.615,0.701,1.097,1.243C152.72,113.801,126.855,120.819,101.152,127.795z"/>
			<path style="fill-rule:evenodd;clip-rule:evenodd;fill:none;" d="M18.241,114.149c10.914-12.52,21.715-24.91,32.636-37.439
				c13.756,17.06,27.499,34.103,41.43,51.38C67.52,123.425,42.951,118.801,18.241,114.149z"/>
			<path style="fill-rule:evenodd;clip-rule:evenodd;fill:none;" d="M101.027,181.724c0-3.58-0.001-6.973,0.001-10.365
				c0.002-4.191,0.009-8.383,0.011-12.574c0.002-4.306-0.001-8.612-0.001-12.918c0-3.234-0.021-6.469,0.033-9.702
				c0.005-0.346,0.378-0.904,0.687-0.993c2.472-0.708,4.977-1.303,7.458-1.979c3.086-0.84,6.153-1.753,9.242-2.584
				c4.329-1.164,8.675-2.267,13.006-3.426c2.864-0.767,5.712-1.597,8.572-2.381c3.82-1.047,7.645-2.081,11.47-3.111
				c4.259-1.148,8.524-2.271,12.779-3.431c5.115-1.395,10.223-2.815,15.487-4.267c0,0.455,0,0.836,0,1.218
				c0,13.354-0.013,26.71,0.026,40.064c0.003,0.925-0.324,1.392-1.113,1.638c-4.026,1.258-8.065,2.473-12.081,3.763
				c-4.683,1.505-9.337,3.098-14.021,4.604c-4.201,1.351-8.431,2.613-12.636,3.952c-3.761,1.198-7.498,2.464-11.256,3.669
				c-5.022,1.61-10.058,3.179-15.08,4.787c-3.46,1.107-6.906,2.254-10.361,3.375C102.557,181.288,101.852,181.48,101.027,181.724z
				 M174.337,120.818c-11.225,3.084-22.421,6.19-33.634,9.232c-11.227,3.046-22.472,6.028-33.834,9.072
				c0,1.181-0.004,2.701,0.001,4.222c0.004,1.313,0.036,2.627,0.024,3.94c-0.013,1.452-0.099,2.904-0.086,4.356
				c0.023,2.723,0.144,5.444,0.137,8.166c-0.013,4.585-0.106,9.17-0.138,13.755c-0.009,1.389,0.36,1.602,1.709,1.149
				c4.311-1.445,8.619-2.897,12.936-4.324c6.04-1.996,12.083-3.98,18.131-5.952c3.043-0.992,6.099-1.941,9.147-2.915
				c2.482-0.793,4.962-1.594,7.444-2.388c2.526-0.808,5.06-1.597,7.581-2.419c3.354-1.093,6.705-2.197,10.043-3.34
				c0.282-0.097,0.633-0.505,0.648-0.786c0.07-1.24,0.05-2.488,0.022-3.732c-0.042-1.905-0.17-3.81-0.167-5.714
				c0.004-4.173,0.075-8.347,0.102-12.52c0.008-1.207-0.058-2.414-0.064-3.621C174.329,124.917,174.337,122.834,174.337,120.818z"/>
			<path style="fill-rule:evenodd;clip-rule:evenodd;fill:none;" d="M93.426,135.859c0,15.316,0,30.505,0,46.006
				c-25.495-5.479-50.781-10.914-76.11-16.357c0-14.647,0-29.275,0-44.031c4.398,0.865,8.751,1.76,13.12,2.57
				c4.619,0.855,9.259,1.593,13.877,2.454c3.467,0.646,6.903,1.456,10.37,2.104c4.195,0.783,8.413,1.443,12.612,2.209
				c3.386,0.619,6.754,1.332,10.136,1.974c4.19,0.794,8.387,1.551,12.578,2.339C91.157,135.343,92.295,135.615,93.426,135.859z
				 M87.759,175.879c0-11.785,0-23.473,0-35.162c-21.816-4.046-43.586-8.083-65.235-12.099c0,3.227,0.026,6.169-0.008,9.109
				c-0.032,2.737-0.183,5.473-0.181,8.209c0.002,2.54,0.163,5.079,0.205,7.62c0.04,2.379,0.086,4.762-0.012,7.138
				c-0.045,1.087,0.499,1.367,1.337,1.537c3.984,0.811,7.977,1.582,11.95,2.442c5.689,1.23,11.359,2.556,17.048,3.788
				c7.902,1.711,15.814,3.377,23.723,5.058C80.29,174.307,83.997,175.085,87.759,175.879z"/>
			<path style="fill-rule:evenodd;clip-rule:evenodd;" d="M174.337,120.818c0,2.016-0.008,4.099,0.003,6.183
				c0.007,1.207,0.072,2.414,0.064,3.621c-0.026,4.173-0.098,8.347-0.102,12.52c-0.003,1.904,0.125,3.809,0.167,5.714
				c0.027,1.244,0.048,2.492-0.022,3.732c-0.016,0.281-0.366,0.689-0.648,0.786c-3.338,1.143-6.688,2.247-10.043,3.34
				c-2.521,0.822-5.055,1.611-7.581,2.419c-2.482,0.794-4.962,1.595-7.444,2.388c-3.049,0.974-6.104,1.923-9.147,2.915
				c-6.048,1.972-12.091,3.956-18.131,5.952c-4.316,1.427-8.625,2.879-12.936,4.324c-1.349,0.452-1.718,0.239-1.709-1.149
				c0.031-4.585,0.125-9.17,0.138-13.755c0.007-2.722-0.113-5.443-0.137-8.166c-0.013-1.452,0.073-2.904,0.086-4.356
				c0.012-1.313-0.021-2.627-0.024-3.94c-0.005-1.521-0.001-3.041-0.001-4.222c11.362-3.044,22.607-6.026,33.834-9.072
				C151.916,127.009,163.112,123.902,174.337,120.818z M167.268,130.376c-4.855,1.324-9.654,2.641-14.457,3.941
				c-5.744,1.555-11.49,3.102-17.238,4.641c-3.729,0.999-7.467,1.973-11.198,2.969c-2.558,0.684-5.098,1.437-7.669,2.066
				c-1.851,0.453-2.245,0.711-2.308,2.155c-0.053,1.235-0.063,2.473-0.056,3.71c0.02,3.21,0.065,6.419,0.09,9.629
				c0.014,1.709,0.003,3.419,0.003,5.199c17.773-5.71,35.306-11.342,52.833-16.973C167.268,141.933,167.268,136.22,167.268,130.376z
				"/>
			<path style="fill-rule:evenodd;clip-rule:evenodd;" d="M87.759,175.879c-3.762-0.794-7.469-1.572-11.174-2.359
				c-7.909-1.681-15.82-3.347-23.723-5.058c-5.689-1.232-11.358-2.558-17.048-3.788c-3.973-0.86-7.966-1.632-11.95-2.442
				c-0.838-0.17-1.382-0.45-1.337-1.537c0.099-2.376,0.052-4.759,0.012-7.138c-0.042-2.541-0.203-5.08-0.205-7.62
				c-0.002-2.736,0.149-5.472,0.181-8.209c0.034-2.94,0.008-5.883,0.008-9.109c21.648,4.016,43.419,8.053,65.235,12.099
				C87.759,152.406,87.759,164.094,87.759,175.879z M80.27,147.073c-0.244-0.11-0.577-0.345-0.941-0.413
				c-1.462-0.274-2.937-0.479-4.401-0.741c-5.393-0.96-10.789-1.905-16.173-2.91c-4.479-0.836-8.942-1.759-13.417-2.623
				c-4.17-0.806-8.344-1.588-12.518-2.373c-1.058-0.199-2.12-0.371-3.31-0.578c0,6.076-0.009,11.945,0.03,17.813
				c0.002,0.256,0.403,0.672,0.683,0.737c2.59,0.604,5.19,1.162,7.795,1.702c3.983,0.826,7.978,1.6,11.957,2.447
				c2.71,0.578,5.394,1.28,8.103,1.868c5.847,1.269,11.701,2.501,17.552,3.746c1.539,0.328,3.079,0.647,4.641,0.976
				C80.27,160.105,80.27,153.664,80.27,147.073z"/>
			<path style="fill-rule:evenodd;clip-rule:evenodd;fill:none;" d="M167.268,130.376c0,5.844,0,11.557,0,17.338
				c-17.527,5.631-35.06,11.263-52.833,16.973c0-1.78,0.011-3.49-0.003-5.199c-0.024-3.21-0.07-6.419-0.09-9.629
				c-0.008-1.237,0.003-2.475,0.056-3.71c0.063-1.444,0.457-1.702,2.308-2.155c2.571-0.63,5.111-1.383,7.669-2.066
				c3.731-0.996,7.469-1.97,11.198-2.969c5.748-1.539,11.494-3.086,17.238-4.641C157.613,133.017,162.412,131.7,167.268,130.376z"/>
			<path style="fill-rule:evenodd;clip-rule:evenodd;fill:none;" d="M80.27,147.073c0,6.591,0,13.032,0,19.651
				c-1.562-0.328-3.102-0.647-4.641-0.976c-5.852-1.245-11.706-2.478-17.552-3.746c-2.708-0.588-5.392-1.29-8.103-1.868
				c-3.979-0.848-7.973-1.621-11.957-2.447c-2.604-0.54-5.205-1.099-7.795-1.702c-0.28-0.065-0.681-0.481-0.683-0.737
				c-0.039-5.868-0.03-11.737-0.03-17.813c1.19,0.207,2.252,0.379,3.31,0.578c4.174,0.785,8.348,1.567,12.518,2.373
				c4.474,0.864,8.937,1.787,13.417,2.623c5.384,1.005,10.78,1.95,16.173,2.91c1.464,0.262,2.939,0.467,4.401,0.741
				C79.692,146.729,80.026,146.963,80.27,147.073z"/>
		</g>
	</g>
</g>
<g id="Veil">
	<g>
		<g>
			<path style="fill-rule:evenodd;clip-rule:evenodd;fill:none;" d="M6.72,103.56c0-33.593,0-67.185,0-100.789
				c58.62,0,117.239,0,175.889,0c0,61.909,0,123.829,0,185.749c-24.7,0-49.414,0-74.129,0c1.186-0.16,2.372-0.307,3.555-0.48
				c6.906-1.014,12.522-4.598,17.607-9.086c4.313-3.807,6.964-8.756,8.986-14.123c2.164,1.785,4.649,2.967,7.343,3.48
				c5.084,0.975,10.087,0.771,14.956-1.355c2.989-1.305,5.681-3,8.02-5.215c3.677-3.48,6.864-7.334,9.199-11.904
				c1.412-2.762,2.678-5.545,3.26-8.572c0.419-2.184,0.397-4.449,0.792-6.639c0.669-3.705-0.594-6.758-2.666-9.486
				c0.568-1.301,1.097-2.621,1.712-3.898c1.161-2.41,1.271-4.967,0.885-7.512c-0.538-3.545-2.109-6.594-5.003-8.85
				c-3.9-3.044-7.896-5.989-11.162-9.746c-2.143-2.464-4.287-4.949-6.171-7.608c-4.671-6.591-8.017-13.905-11.167-21.304
				c-0.715-1.678-1.362-3.366-1.329-5.32c0.035-2.071-0.241-4.192-0.706-6.218c-0.827-3.608-1.706-7.228-2.94-10.71
				c-0.743-2.097-2.199-3.94-3.327-5.902c-0.187-0.325-0.456-0.667-0.474-1.012c-0.095-1.829-0.026-3.671-0.193-5.491
				c-0.197-2.15-0.786-4.194-1.842-6.134c-0.711-1.308-1.657-1.292-2.728-0.903c-1.487,0.54-2.923,1.221-4.28,1.8
				c-0.076-1.178-0.006-2.511-0.281-3.768c-0.453-2.063-0.975-4.175-2.914-5.453c-0.313-0.206-0.948-0.312-1.216-0.134
				c-1.631,1.087-3.199,2.27-4.682,3.342c-0.148-1.154-0.277-2.579-0.523-3.983c-0.664-3.801-2.04-7.337-4.568-10.272
				c-0.998-1.159-2.428-1.973-3.743-2.815c-0.34-0.218-1.101-0.118-1.485,0.125c-3.722,2.346-5.793,5.913-6.959,10.01
				c-0.666,2.34-0.981,4.779-1.398,6.893c-1.232-0.941-2.619-2-4.006-3.059c-0.883-0.673-1.605-0.473-2.338,0.312
				c-2.38,2.55-2.493,5.726-2.596,8.81c-1.378-0.587-2.806-1.302-4.308-1.786c-0.66-0.213-1.748-0.244-2.152,0.147
				c-0.694,0.673-1.104,1.704-1.454,2.651c-0.937,2.534-1.199,5.174-1.072,7.869c0.02,0.417-0.165,0.955-0.449,1.252
				c-0.479,0.501-1.11,0.86-1.683,1.27c-4.209,3.009-8.346,6.126-12.651,8.99c-3.797,2.525-7.745,4.833-11.699,7.109
				c-2.841,1.636-5.724,3.242-8.725,4.546c-5.686,2.472-11.506,4.6-17.553,6.069c-2.759,0.67-5.442,1.543-7.704,3.426
				c-3.463,2.882-5.433,6.713-6.508,10.905c-0.545,2.126-0.972,3.857-2.806,5.392c-2.43,2.033-4.034,4.874-5.49,7.724
				c-1.44,2.82-2.179,5.836-2.646,8.94C7.06,101.753,6.88,102.655,6.72,103.56z"/>
			<path style="fill-rule:evenodd;clip-rule:evenodd;" d="M6.72,103.56c0.16-0.905,0.34-1.807,0.477-2.715
				c0.467-3.104,1.206-6.12,2.646-8.94c1.456-2.851,3.06-5.691,5.49-7.724c1.834-1.535,2.261-3.266,2.806-5.392
				c1.075-4.192,3.044-8.022,6.508-10.905c2.262-1.883,4.945-2.756,7.704-3.426c6.046-1.469,11.867-3.597,17.553-6.069
				c3.001-1.304,5.884-2.91,8.725-4.546c3.954-2.277,7.902-4.584,11.699-7.109c4.305-2.864,8.442-5.981,12.651-8.99
				c0.573-0.41,1.204-0.769,1.683-1.27c0.284-0.297,0.468-0.834,0.449-1.252c-0.127-2.694,0.135-5.335,1.072-7.869
				c0.35-0.947,0.76-1.979,1.454-2.651c0.404-0.392,1.492-0.361,2.152-0.147c1.501,0.484,2.929,1.199,4.308,1.786
				c0.104-3.084,0.216-6.26,2.596-8.81c0.732-0.785,1.455-0.985,2.338-0.312c1.387,1.058,2.773,2.118,4.006,3.059
				c0.417-2.113,0.732-4.553,1.398-6.893c1.166-4.097,3.237-7.664,6.959-10.01c0.385-0.243,1.146-0.343,1.485-0.125
				c1.315,0.842,2.745,1.656,3.743,2.815c2.528,2.935,3.904,6.471,4.568,10.272c0.246,1.404,0.375,2.829,0.523,3.983
				c1.482-1.072,3.051-2.254,4.682-3.342c0.268-0.178,0.902-0.072,1.216,0.134c1.939,1.278,2.461,3.39,2.914,5.453
				c0.275,1.257,0.205,2.589,0.281,3.768c1.357-0.579,2.793-1.26,4.28-1.8c1.07-0.389,2.017-0.404,2.728,0.903
				c1.056,1.939,1.645,3.983,1.842,6.134c0.167,1.82,0.099,3.662,0.193,5.491c0.018,0.345,0.287,0.688,0.474,1.012
				c1.128,1.962,2.584,3.805,3.327,5.902c1.234,3.482,2.113,7.102,2.94,10.71c0.465,2.025,0.741,4.146,0.706,6.218
				c-0.033,1.954,0.614,3.642,1.329,5.32c3.15,7.399,6.496,14.713,11.167,21.304c1.884,2.659,4.028,5.145,6.171,7.608
				c3.266,3.756,7.262,6.701,11.162,9.746c2.894,2.256,4.465,5.305,5.003,8.85c0.386,2.545,0.276,5.102-0.885,7.512
				c-0.615,1.277-1.144,2.598-1.712,3.898c2.072,2.729,3.335,5.781,2.666,9.486c-0.395,2.189-0.373,4.455-0.792,6.639
				c-0.582,3.027-1.848,5.811-3.26,8.572c-2.335,4.57-5.522,8.424-9.199,11.904c-2.339,2.215-5.03,3.91-8.02,5.215
				c-4.869,2.127-9.872,2.33-14.956,1.355c-2.693-0.514-5.179-1.695-7.343-3.48c-2.022,5.367-4.674,10.316-8.986,14.123
				c-5.085,4.488-10.701,8.072-17.607,9.086c-1.183,0.174-2.369,0.32-3.555,0.48c-0.319,0-0.64,0-0.96,0
				c-0.201-0.08-0.403-0.23-0.605-0.229c-5.246,0.023-9.845-1.965-14.194-4.643c-1.38-0.85-2.708-1.836-3.891-2.941
				c-1.594-1.492-3.19-3.035-4.477-4.783c-1.204-1.637-2.004-3.568-3.01-5.422c-0.401,0.209-0.807,0.428-1.22,0.635
				c-1.607,0.809-3.176,1.711-4.833,2.398c-2.721,1.125-5.52,1.967-8.521,2.041c-4.074,0.102-8.105-0.096-11.975-1.486
				c-1.714-0.615-3.388-1.371-5.021-2.182c-2.636-1.307-4.865-3.17-6.958-5.229c-2.821-2.777-5.175-5.846-6.6-9.578
				c-1.802-4.719-1.84-9.602-1.409-14.533c0.11-1.262,0.058-2.551,0.315-3.779c0.166-0.793,0.084-0.951-0.699-1.191
				c-2.493-0.768-5.002-1.541-7.388-2.58c-4.865-2.123-9.21-5.059-12.815-8.994c-2.912-3.178-5.067-6.822-6.277-10.969
				c-0.524-1.797-0.821-3.662-1.221-5.496C6.72,107.56,6.72,105.56,6.72,103.56z M147.377,76.556
				c-0.11,0.674-0.214,1.118-0.252,1.568c-0.105,1.265-0.023,2.569-0.304,3.791c-0.876,3.811-1.656,7.668-2.892,11.368
				c-2.103,6.298-5.378,11.956-10.074,16.755c-1.786,1.824-3.689,3.391-5.893,4.707c-4.121,2.465-8.629,3.49-13.29,3.615
				c-2.976,0.08-6.033-0.336-8.946-1c-4.713-1.074-8.831-3.527-12.236-6.92c-2.191-2.182-4.091-4.699-5.881-7.235
				c-3.259-4.618-5.256-9.793-6.557-15.303c-1.251-5.299-1.917-10.642-1.819-16.061c0.066-3.675,0.341-7.355,0.716-11.014
				c0.321-3.127,0.86-6.236,1.414-9.333c0.355-1.982,0.913-3.928,1.399-5.971c-0.435,0.215-0.838,0.362-1.186,0.594
				c-2.704,1.803-5.364,3.674-8.102,5.423c-4.188,2.675-8.347,5.411-12.668,7.857c-3.993,2.259-8.176,4.184-12.287,6.231
				c-5.521,2.75-11.435,4.448-17.311,6.18c-3.788,1.116-5.625,4.857-5.666,8.563c1.373-0.604,2.686-1.195,4.009-1.761
				c4.663-1.995,9.358-3.918,13.982-5.999c2.021-0.909,3.933-2.078,5.838-3.222c3.389-2.036,6.719-4.169,10.106-6.209
				c2.06-1.241,4.156-2.43,6.292-3.534c0.466-0.241,1.171-0.021,1.766-0.014c-0.219,0.496-0.438,0.993-0.659,1.488
				c-0.015,0.033-0.057,0.056-0.088,0.081c-3.379,2.636-6.761,5.27-10.138,7.91c-4.79,3.745-10.237,6.414-15.483,9.403
				c-3.216,1.833-6.55,3.461-9.845,5.156c-2.784,1.432-5.568,2.864-8.384,4.23c-3.528,1.71-6.209,4.172-7.558,7.956
				c-1.055,2.96-1.772,5.982-1.807,9.129c-0.021,1.889-0.183,3.842,0.224,5.654c1.063,4.727,3.619,8.725,6.888,12.236
				c1.116,1.197,2.488,2.18,3.833,3.137c2.614,1.861,5.215,3.84,8.651,3.814c1.975-0.016,3.921-0.309,5.275-1.971
				c2.972-3.646,5.871-7.354,8.857-10.988c3.581-4.361,7.156-8.73,10.855-12.991c3.676-4.234,7.525-8.316,11.249-12.509
				c1.315-1.481,2.511-3.073,3.705-4.657c0.547-0.726,1.303-0.881,1.916-0.499c0.659,0.411,0.62,1.153-0.013,1.753
				c-0.223,0.211-0.353,0.516-0.546,0.762c-2.083,2.662-4.211,5.291-6.247,7.99c-2.147,2.846-4.197,5.765-6.307,8.64
				c-2.876,3.918-5.791,7.811-8.648,11.742c-2.234,3.076-4.444,6.17-6.594,9.305c-1.149,1.678-2.487,3.336-3.153,5.211
				c-2.014,5.672-3.017,11.529-2.253,17.594c0.35,2.775,1.04,5.412,2.308,7.93c2.355,4.674,6.108,7.672,10.979,9.289
				c2.234,0.74,4.554,1.311,6.88,1.658c2,0.299,4.131,0.52,6.083,0.145c2.81-0.539,5.561-1.518,8.239-2.561
				c2.039-0.795,3.835-2.137,4.619-4.316c1.847-5.141,3.579-10.322,5.402-15.471c1.966-5.553,3.959-11.096,5.988-16.627
				c1.119-3.049,2.296-6.078,3.544-9.076c0.245-0.588,0.934-0.99,1.418-1.479c0.156,0.744,0.313,1.488,0.466,2.234
				c0.008,0.037,0.002,0.08-0.007,0.119c-1.568,6.512-3.129,13.023-4.707,19.533c-1.019,4.201-2.076,8.395-3.089,12.598
				c-0.844,3.504-1.666,7.012-2.457,10.527c-0.161,0.713-0.378,1.545-0.167,2.191c1.073,3.275,2.76,6.24,5.124,8.76
				c2.094,2.232,4.61,3.941,7.457,5.043c1.835,0.709,3.774,1.385,5.71,1.541c2.78,0.223,5.572,0.084,8.372-0.576
				c3.237-0.762,6.214-2.049,8.902-3.848c3.663-2.449,6.509-5.773,8.748-9.588c0.928-1.58,1.598-3.217,1.411-5.115
				c-0.115-1.172-0.122-2.354-0.189-3.529c-0.26-4.543-0.482-9.09-0.803-13.629c-0.249-3.527-0.649-7.043-0.929-10.57
				c-0.167-2.104-0.214-4.217-0.344-6.324c-0.196-3.168-0.438-6.332-0.602-9.502c-0.019-0.363,0.332-0.744,0.512-1.117
				c0.163-0.004,0.327-0.008,0.49-0.01c0.539,1.248,1.228,2.455,1.588,3.754c1.04,3.742,1.985,7.512,2.89,11.289
				c0.488,2.035,0.847,4.104,1.211,6.166c0.483,2.727,0.935,5.457,1.363,8.191c0.45,2.869,0.835,5.746,1.296,8.611
				c0.145,0.902,0.166,2.064,0.728,2.611c1.588,1.547,3.593,2.516,5.76,3.1c2.848,0.766,5.675,0.854,8.604,0.283
				c3.251-0.635,6.166-2.006,8.953-3.643c2.592-1.521,4.633-3.719,6.59-6.01c3.109-3.645,4.554-8.059,6.041-12.455
				c0.408-1.207,0.437-2.543,0.613-3.824c0.354-2.563-0.003-4.74-2.267-6.559c-2.558-2.055-5.047-4.307-7.111-6.84
				c-5.128-6.299-8.97-13.391-11.952-20.941c-0.596-1.505-1.216-3.005-1.707-4.545c-0.145-0.454,0.114-1.037,0.188-1.561
				c0.479,0.166,1.068,0.208,1.411,0.521c0.698,0.638,1.354,1.363,1.869,2.155c1.96,3.021,3.866,6.076,5.775,9.13
				c1.876,2.998,3.681,6.053,6.241,8.543c1.9,1.85,3.86,3.641,5.842,5.502c0.377-0.568,0.739-1.033,1.014-1.543
				c1.541-2.871,1.668-5.854,0.031-8.637c-0.694-1.182-2.129-1.943-3.262-2.854c-2.958-2.378-6.101-4.558-8.854-7.153
				c-2.227-2.098-4.158-4.568-5.922-7.083c-2.198-3.136-4.133-6.461-6.099-9.754C150.081,81.589,148.84,79.199,147.377,76.556z
				 M114.117,52.197c-2.774,2.443-5.463,4.786-8.125,7.16c-2.796,2.495-5.692,4.867-9.089,6.49c-1.93,0.923-3.97,1.64-6.005,2.311
				c-1.543,0.508-3.143,0.895-4.748,1.143c-0.856,0.132-1.174,0.479-1.148,1.234c0.028,0.843,0.189,1.683,0.188,2.524
				c-0.007,4.559,0.666,9.038,1.989,13.369c0.933,3.055,2.099,6.094,3.605,8.902c1.385,2.585,3.263,4.933,5.103,7.242
				c3.028,3.798,6.97,6.339,11.596,7.802c3.526,1.115,7.108,1.207,10.715,0.43c3.935-0.848,7.272-2.85,10.226-5.494
				c2.723-2.438,4.979-5.25,6.855-8.432c2.068-3.51,3.737-7.156,4.604-11.111c0.67-3.056,1.087-6.176,1.45-9.287
				c0.267-2.284,0.266-4.6,0.384-6.901C129.518,67.784,121.094,60.48,114.117,52.197z M142.404,63.491
				c-0.364-2.838-0.449-5.587-1.109-8.191c-1.286-5.077-2.838-10.105-5.503-14.67c-1.594-2.731-3.65-5.083-6.163-7.074
				c-2.522-1.998-5.242-3.633-8.29-4.525c-2.573-0.753-5.294-1.473-7.935-1.421c-4.355,0.086-8.628,1.177-12.385,3.51
				c-2.14,1.329-4.171,2.925-5.957,4.697c-1.447,1.436-2.47,3.303-3.652,5c-1.535,2.204-2.61,4.645-3.312,7.215
				c-0.893,3.273-1.663,6.583-2.377,9.901c-0.385,1.788-0.542,3.625-0.869,5.899c3.104-1.232,6.017-2.087,8.625-3.504
				c2.875-1.563,5.659-3.42,8.14-5.547c3.518-3.014,6.538-6.545,9.142-10.417c0.797-1.185,1.899-2.165,2.946-3.333
				c1.411,1.846,2.803,3.586,4.107,5.39c3.346,4.626,7.371,8.544,12.053,11.802C133.606,60.825,137.71,62.561,142.404,63.491z"/>
			<path style="fill-rule:evenodd;clip-rule:evenodd;fill:none;" d="M6.72,109.56c0.4,1.834,0.696,3.699,1.221,5.496
				c1.21,4.146,3.366,7.791,6.277,10.969c3.605,3.936,7.95,6.871,12.815,8.994c2.385,1.039,4.895,1.813,7.388,2.58
				c0.784,0.24,0.865,0.398,0.699,1.191c-0.257,1.229-0.205,2.518-0.315,3.779c-0.431,4.932-0.393,9.814,1.409,14.533
				c1.425,3.732,3.779,6.801,6.6,9.578c2.093,2.059,4.322,3.922,6.958,5.229c1.634,0.811,3.307,1.566,5.021,2.182
				c3.87,1.391,7.9,1.588,11.975,1.486c3.001-0.074,5.8-0.916,8.521-2.041c1.658-0.688,3.226-1.59,4.833-2.398
				c0.413-0.207,0.819-0.426,1.22-0.635c1.006,1.854,1.807,3.785,3.01,5.422c1.286,1.748,2.882,3.291,4.477,4.783
				c1.182,1.105,2.51,2.092,3.891,2.941c4.35,2.678,8.948,4.666,14.194,4.643c0.202-0.002,0.404,0.148,0.605,0.229
				c-33.577,0-67.155,0-100.8,0C6.72,162.2,6.72,135.88,6.72,109.56z"/>
			<path style="fill-rule:evenodd;clip-rule:evenodd;fill:none;" d="M147.377,76.556c1.463,2.643,2.704,5.033,4.083,7.341
				c1.966,3.293,3.9,6.619,6.099,9.754c1.764,2.515,3.695,4.985,5.922,7.083c2.753,2.595,5.896,4.775,8.854,7.153
				c1.133,0.91,2.567,1.672,3.262,2.854c1.637,2.783,1.51,5.766-0.031,8.637c-0.274,0.51-0.637,0.975-1.014,1.543
				c-1.981-1.861-3.941-3.652-5.842-5.502c-2.561-2.49-4.365-5.545-6.241-8.543c-1.909-3.054-3.815-6.11-5.775-9.13
				c-0.515-0.792-1.171-1.517-1.869-2.155c-0.343-0.313-0.933-0.355-1.411-0.521c-0.073,0.524-0.332,1.106-0.188,1.561
				c0.491,1.54,1.111,3.04,1.707,4.545c2.982,7.551,6.824,14.643,11.952,20.941c2.064,2.533,4.554,4.785,7.111,6.84
				c2.264,1.818,2.62,3.996,2.267,6.559c-0.177,1.281-0.205,2.617-0.613,3.824c-1.487,4.396-2.932,8.811-6.041,12.455
				c-1.957,2.291-3.998,4.488-6.59,6.01c-2.787,1.637-5.702,3.008-8.953,3.643c-2.929,0.57-5.756,0.482-8.604-0.283
				c-2.167-0.584-4.172-1.553-5.76-3.1c-0.562-0.547-0.583-1.709-0.728-2.611c-0.461-2.865-0.846-5.742-1.296-8.611
				c-0.429-2.734-0.88-5.465-1.363-8.191c-0.364-2.063-0.723-4.131-1.211-6.166c-0.904-3.777-1.85-7.547-2.89-11.289
				c-0.36-1.299-1.049-2.506-1.588-3.754c-0.163,0.002-0.327,0.006-0.49,0.01c-0.18,0.373-0.53,0.754-0.512,1.117
				c0.164,3.17,0.405,6.334,0.602,9.502c0.13,2.107,0.177,4.221,0.344,6.324c0.279,3.527,0.68,7.043,0.929,10.57
				c0.32,4.539,0.543,9.086,0.803,13.629c0.067,1.176,0.074,2.357,0.189,3.529c0.187,1.898-0.483,3.535-1.411,5.115
				c-2.239,3.814-5.085,7.139-8.748,9.588c-2.688,1.799-5.665,3.086-8.902,3.848c-2.8,0.66-5.592,0.799-8.372,0.576
				c-1.936-0.156-3.875-0.832-5.71-1.541c-2.847-1.102-5.363-2.811-7.457-5.043c-2.364-2.52-4.051-5.484-5.124-8.76
				c-0.212-0.646,0.006-1.479,0.167-2.191c0.792-3.516,1.613-7.023,2.457-10.527c1.013-4.203,2.071-8.396,3.089-12.598
				c1.578-6.51,3.139-13.021,4.707-19.533c0.009-0.039,0.015-0.082,0.007-0.119c-0.154-0.746-0.311-1.49-0.466-2.234
				c-0.484,0.488-1.174,0.891-1.418,1.479c-1.248,2.998-2.425,6.027-3.544,9.076c-2.029,5.531-4.021,11.074-5.988,16.627
				c-1.823,5.148-3.555,10.33-5.402,15.471c-0.783,2.18-2.58,3.521-4.619,4.316c-2.678,1.043-5.43,2.021-8.239,2.561
				c-1.952,0.375-4.083,0.154-6.083-0.145c-2.326-0.348-4.646-0.918-6.88-1.658c-4.87-1.617-8.624-4.615-10.979-9.289
				c-1.269-2.518-1.958-5.154-2.308-7.93c-0.764-6.064,0.239-11.922,2.253-17.594c0.666-1.875,2.003-3.533,3.153-5.211
				c2.15-3.135,4.359-6.229,6.594-9.305c2.858-3.932,5.772-7.824,8.648-11.742c2.11-2.875,4.16-5.794,6.307-8.64
				c2.036-2.699,4.164-5.328,6.247-7.99c0.193-0.246,0.323-0.551,0.546-0.762c0.633-0.601,0.672-1.342,0.013-1.753
				c-0.613-0.383-1.369-0.228-1.916,0.499c-1.194,1.584-2.39,3.175-3.705,4.657c-3.724,4.193-7.573,8.275-11.249,12.509
				c-3.699,4.26-7.274,8.629-10.855,12.991c-2.986,3.635-5.885,7.342-8.857,10.988c-1.354,1.662-3.3,1.955-5.275,1.971
				c-3.436,0.025-6.038-1.953-8.651-3.814c-1.344-0.957-2.717-1.939-3.833-3.137c-3.269-3.512-5.826-7.51-6.888-12.236
				c-0.407-1.813-0.245-3.766-0.224-5.654c0.034-3.146,0.751-6.169,1.807-9.129c1.349-3.783,4.03-6.245,7.558-7.956
				c2.816-1.366,5.601-2.798,8.384-4.23c3.294-1.695,6.628-3.322,9.845-5.156c5.246-2.99,10.693-5.659,15.483-9.403
				c3.376-2.64,6.758-5.273,10.138-7.91c0.031-0.025,0.073-0.047,0.088-0.081c0.222-0.495,0.44-0.992,0.659-1.488
				c-0.595-0.007-1.299-0.227-1.766,0.014c-2.136,1.104-4.232,2.292-6.292,3.534c-3.387,2.04-6.717,4.174-10.106,6.209
				c-1.905,1.145-3.817,2.313-5.838,3.222c-4.625,2.08-9.319,4.004-13.982,5.999c-1.323,0.566-2.636,1.157-4.009,1.761
				c0.041-3.706,1.878-7.447,5.666-8.563c5.876-1.732,11.79-3.43,17.311-6.18c4.111-2.048,8.294-3.972,12.287-6.231
				c4.321-2.446,8.48-5.182,12.668-7.857c2.738-1.749,5.397-3.621,8.102-5.423c0.347-0.231,0.75-0.379,1.186-0.594
				c-0.486,2.043-1.044,3.989-1.399,5.971c-0.554,3.097-1.093,6.207-1.414,9.333c-0.375,3.658-0.65,7.338-0.716,11.014
				c-0.098,5.419,0.568,10.762,1.819,16.061c1.3,5.51,3.298,10.685,6.557,15.303c1.79,2.536,3.69,5.054,5.881,7.235
				c3.406,3.393,7.523,5.846,12.236,6.92c2.913,0.664,5.971,1.08,8.946,1c4.661-0.125,9.169-1.15,13.29-3.615
				c2.203-1.316,4.106-2.883,5.893-4.707c4.696-4.799,7.972-10.457,10.074-16.755c1.235-3.7,2.016-7.557,2.892-11.368
				c0.28-1.222,0.198-2.526,0.304-3.791C147.163,77.674,147.267,77.23,147.377,76.556z"/>
			<path style="fill-rule:evenodd;clip-rule:evenodd;fill:none;" d="M114.117,52.197c6.977,8.283,15.4,15.587,27.6,17.382
				c-0.118,2.301-0.117,4.617-0.384,6.901c-0.363,3.111-0.78,6.231-1.45,9.287c-0.867,3.955-2.536,7.601-4.604,11.111
				c-1.876,3.182-4.133,5.994-6.855,8.432c-2.953,2.645-6.291,4.646-10.226,5.494c-3.606,0.777-7.188,0.686-10.715-0.43
				c-4.626-1.463-8.568-4.004-11.596-7.802c-1.84-2.309-3.718-4.657-5.103-7.242c-1.506-2.808-2.672-5.847-3.605-8.902
				c-1.323-4.331-1.996-8.811-1.989-13.369c0.001-0.841-0.16-1.682-0.188-2.524c-0.025-0.755,0.292-1.102,1.148-1.234
				c1.604-0.248,3.205-0.635,4.748-1.143c2.036-0.671,4.075-1.388,6.005-2.311c3.397-1.623,6.293-3.996,9.089-6.49
				C108.654,56.983,111.343,54.64,114.117,52.197z"/>
			<path style="fill-rule:evenodd;clip-rule:evenodd;fill:none;" d="M142.404,63.491c-4.694-0.93-8.798-2.666-12.539-5.27
				c-4.682-3.257-8.707-7.176-12.053-11.802c-1.305-1.804-2.696-3.544-4.107-5.39c-1.047,1.168-2.149,2.147-2.946,3.333
				c-2.604,3.872-5.624,7.403-9.142,10.417c-2.481,2.127-5.265,3.985-8.14,5.547c-2.607,1.417-5.521,2.272-8.625,3.504
				c0.326-2.274,0.484-4.111,0.869-5.899c0.714-3.317,1.484-6.627,2.377-9.901c0.701-2.57,1.776-5.011,3.312-7.215
				c1.182-1.696,2.206-3.563,3.652-5c1.786-1.772,3.817-3.369,5.957-4.697c3.757-2.333,8.029-3.423,12.385-3.51
				c2.641-0.052,5.361,0.668,7.935,1.421c3.048,0.893,5.768,2.527,8.29,4.525c2.513,1.99,4.569,4.342,6.163,7.074
				c2.665,4.565,4.217,9.593,5.503,14.67C141.955,57.903,142.04,60.653,142.404,63.491z"/>
		</g>
	</g>
</g>
<g id="Maximilian" style="display:none;">
	<g style="display:inline;">
		<g>
			<path style="fill-rule:evenodd;clip-rule:evenodd;" d="M21.6,3.6c3.6,0,7.2,0,10.8,0c0.921,0.083,1.846,0.144,2.764,0.253
				c3.912,0.468,7.831,0.884,11.729,1.445c3.824,0.55,7.625,1.261,11.44,1.883c1.676,0.273,3.37,0.764,5.037,0.698
				c3.916-0.155,7.818-0.796,11.731-0.855c5.79-0.087,11.58-0.226,17.377,0.362c6.135,0.623,12.055,1.953,17.915,3.839
				c7.804,2.511,15.271,5.758,22.463,9.642c3.399,1.835,6.884,3.592,9.772,6.228c0.923,0.842,1.941,1.796,2.383,2.91
				c1.402,3.545,2.64,7.163,3.777,10.803c0.964,3.085,1.907,6.206,2.468,9.379c0.382,2.163,1.442,3.648,2.949,5.044
				c1.421,1.316,2.811,2.678,4.098,4.122c2.496,2.798,4.958,5.63,7.341,8.525c1.394,1.693,2.625,3.521,3.896,5.313
				c0.569,0.802,0.544,1.442-0.471,2.011c-2.114,1.185-4.148,2.514-6.232,3.756c-4.457,2.657-8.87,5.412-14.036,6.658
				c0.023,0.151,0.013,0.321,0.075,0.457c2.58,5.566,5.102,11.16,7.782,16.678c1.302,2.679,2.803,5.277,4.391,7.8
				c2.511,3.99,5.141,7.908,7.792,11.807c0.561,0.825,0.823,1.413-0.102,2.065c-0.287,0.203-0.547,0.446-0.843,0.635
				c-2.164,1.389-4.335,2.769-6.529,4.167c0.813,0.388,1.562,0.711,2.278,1.094c6.331,3.385,11.987,7.674,17.08,12.725
				c2.876,2.851,5.464,5.934,7.728,9.29c0.451,0.67,0.924,1.325,1.387,1.986c0,0.16,0,0.32,0,0.48
				c-1.844,1.404-3.643,2.873-5.539,4.201c-3.745,2.622-7.507,5.223-11.329,7.729c-5.289,3.469-10.773,6.593-16.633,9.019
				c-3.387,1.401-6.7,3.005-10.149,4.225c-7.279,2.574-14.779,4.272-22.437,5.345c-4.863,0.68-9.733,1.094-14.633,1.144
				c-2.637,0.026-5.274-0.128-7.911-0.229c-0.986-0.038-1.978-0.101-2.951-0.253c-2.833-0.446-5.687-0.821-8.48-1.453
				c-3.075-0.696-6.144-1.499-9.122-2.528c-2.788-0.964-5.525-2.142-8.15-3.488c-2.847-1.46-5.521-3.246-7.862-5.777
				c1.357-2.284,2.65-4.604,4.081-6.836c2.084-3.254,4.29-6.431,6.383-9.68c0.313-0.485,0.593-1.318,0.389-1.759
				c-1.117-2.406-2.379-4.745-3.626-7.089c-0.141-0.265-0.522-0.604-0.761-0.581c-2.299,0.216-4.56,0.111-6.831-0.366
				c-2.194-0.461-4.385-0.966-6.162-2.354c-0.778-0.607-1.493-0.729-2.253-0.501c-2.702,0.808-5.467,0.873-8.198,0.523
				c-2.157-0.275-4.275-0.923-5.901-2.597c-3.244-3.339-4.118-7.619-4.788-11.971c-0.303-1.966-0.473-3.854-2.019-5.447
				c-1.578-1.627-2.968-3.499-4.109-5.456c-0.46-0.79-0.314-2.195,0.041-3.138c0.5-1.322,1.451-2.475,2.258-3.779
				c-1.825-1.388-2.445-3.278-2.202-5.535c0.094-0.87,0.016-1.759,0.016-2.638c0-1.059,0-2.119,0-3.021
				c-1.129-0.255-2.035-0.536-2.961-0.653c-3.202-0.405-5.881-1.899-8.27-3.958c-0.918-0.791-1.338-1.871-0.831-3.095
				c0.747-1.803,1.612-3.561,2.287-5.39c1.544-4.18,2.956-8.409,4.516-12.583c0.774-2.072,1.47-4.264,2.707-6.052
				c2.215-3.203,4.813-6.141,7.297-9.25c-1.135-0.97-2.36-1.883-3.42-2.959c-1.158-1.175-2.387-2.375-3.181-3.79
				c-1.181-2.105-0.589-4.284,0.61-6.252c0.334-0.548,0.319-0.723-0.199-1.095c-0.799-0.574-1.555-1.238-2.224-1.961
				c-2.315-2.502-4.661-4.981-6.847-7.594c-1.683-2.011-3.293-4.115-4.663-6.346c-1.733-2.822-3.169-5.826-4.77-8.731
				C8.771,16.728,7.377,12.362,6.5,7.822c-0.374-1.934-0.053-2.485,1.664-2.75c4.013-0.622,8.013-1.406,12.11-1.245
				C20.712,3.844,21.158,3.68,21.6,3.6z M41.423,56.35c-0.018,0.15-0.036,0.299-0.054,0.449c2.566,1.384,2.976,3.298,1.166,5.443
				c-2.065,2.447-4.043,4.976-6.221,7.317c-2.187,2.35-3.385,5.117-4.208,8.146c-1.169,4.3-2.357,8.597-4.309,12.636
				c-0.809,1.674-0.677,2.074,1.083,2.535c1.966,0.515,3.979,0.862,5.985,1.205c2.388,0.408,2.566,0.564,2.563,2.89
				c-0.003,2.08-0.09,4.163,0.015,6.237c0.062,1.23,0.211,2.544,0.713,3.64c0.441,0.963,1.362,1.751,2.189,2.484
				c1.527,1.355,1.38,2.753,0.176,4.334c-0.577,0.758-1.208,1.477-1.754,2.256c-0.455,0.649-0.673,1.32,0.04,2.02
				c0.734,0.721,1.426,1.493,2.06,2.303c0.734,0.938,1.681,1.851,2.016,2.935c1.104,3.581,1.202,7.413,2.678,10.926
				c0.843,2.005,2.737,3.456,4.921,3.168c2.479-0.328,4.936-0.873,7.375-1.439c0.777-0.181,1.279-0.075,1.933,0.364
				c1.384,0.928,2.802,1.868,4.332,2.5c2.56,1.058,5.309,1.165,8.048,1.001c1.926-0.116,3.287,0.729,4.195,2.337
				c1.772,3.137,3.559,6.268,5.225,9.461c1.638,3.143,1.319,6.267-0.554,9.22c-1.891,2.983-3.86,5.916-5.773,8.886
				c-0.71,1.103-0.6,1.61,0.566,2.131c2.758,1.229,5.488,2.563,8.34,3.527c3.33,1.126,6.742,2.076,10.185,2.78
				c2.883,0.59,5.854,0.837,8.8,1.015c3.416,0.207,6.856,0.351,10.271,0.189c3.134-0.148,6.259-0.666,9.367-1.154
				c3.355-0.527,6.688-1.204,10.026-1.843c0.153-0.029,0.303-0.304,0.378-0.494c1.485-3.778,2.973-7.556,4.433-11.343
				c1.403-3.642,2.872-7.263,4.14-10.952c1.559-4.531,2.932-9.127,4.4-13.689c0.385-1.198,0.826-2.378,1.331-3.825
				c-1.47,0.514-2.612,1.025-3.808,1.309c-3.97,0.939-7.935,1.924-11.945,2.648c-3.619,0.653-7.292,1.015-10.947,1.447
				c-1.445,0.17-2.908,0.221-4.365,0.261c-2.861,0.079-5.734,0.282-8.584,0.12c-3.121-0.178-6.229-0.662-9.329-1.102
				c-2.714-0.385-5.421-0.843-8.112-1.365c-2.219-0.431-4.429-0.937-6.604-1.545c-0.916-0.256-2.112-0.287-2.438-1.544
				c-0.481-1.855-1.024-3.698-1.407-5.574c-0.86-4.214-1.749-8.427-2.42-12.673c-0.763-4.833-1.487-9.686-1.888-14.558
				c-0.454-5.521-0.606-11.07-0.742-16.61c-0.079-3.226,0.094-6.46,0.223-9.688c0.099-2.482,0.3-4.959,0.468-7.438
				c0.056-0.82-0.03-1.512-0.743-2.121c-3.275-2.802-6.85-5.155-10.936-6.506c-3.827-1.266-7.744-2.329-11.69-3.148
				C48.677,57.119,45.029,56.834,41.423,56.35z M34.704,50.16c3.094,0,5.997-0.063,8.895,0.021c2.048,0.06,4.122,0.153,6.128,0.528
				c3.083,0.577,6.188,1.199,9.157,2.183c4.589,1.521,9.197,3.097,13.554,5.163c2.795,1.326,5.173,3.547,7.689,5.432
				c0.519,0.389,1.006,1.015,1.179,1.625c0.253,0.894,0.291,1.872,0.28,2.813c-0.048,4.183-0.167,8.366-0.212,12.549
				c-0.013,1.169,0.307,2.358,0.184,3.507c-0.373,3.485-0.084,6.934,0.272,10.394c0.436,4.239,0.745,8.492,1.228,12.726
				c0.434,3.801,0.903,7.605,1.587,11.366c0.773,4.253,1.794,8.46,2.749,12.678c0.056,0.246,0.463,0.522,0.751,0.588
				c4.021,0.912,8.03,1.9,12.083,2.646c4.517,0.832,9.108,0.996,13.685,0.71c3.947-0.247,7.889-0.683,11.813-1.188
				c4.603-0.594,9.171-1.237,13.69-2.516c7.372-2.085,14.249-5.144,20.843-8.956c0.664-0.384,0.555-0.66,0.226-1.203
				c-2.876-4.734-5.956-9.364-8.511-14.269c-2.901-5.569-5.41-11.35-7.926-17.111c-1.837-4.209-3.414-8.533-5.096-12.811
				c-0.409-1.04-0.883-1.927-2.044-2.396c-1.512-0.611-2.923-1.464-4.407-2.147c-3.633-1.669-7.227-3.443-10.938-4.916
				c-5.78-2.292-11.609-4.472-17.484-6.508c-4.824-1.672-9.74-3.083-14.625-4.578c-2.313-0.708-4.625-1.45-6.983-1.975
				c-3.739-0.834-7.505-1.554-11.278-2.222c-4.767-0.843-9.541-1.658-14.332-2.346c-3.172-0.455-6.375-0.743-9.574-0.964
				c-3.625-0.25-7.263-0.324-10.893-0.516C35.42,48.416,35.072,48.959,34.704,50.16z M160.083,72.018
				c-1.762-2.094-3.172-4.071-4.888-5.734c-2.351-2.279-3.997-5.158-6.735-7.143c-2.553-1.85-4.6-4.383-7.047-6.399
				c-3.488-2.873-7.084-5.623-10.737-8.283c-2.656-1.935-5.451-3.685-8.237-5.435c-2.584-1.623-5.197-3.206-7.87-4.676
				c-2.873-1.58-5.803-3.067-8.761-4.484c-2.897-1.388-5.814-2.758-8.807-3.919c-4.811-1.865-9.627-3.76-14.558-5.259
				c-6.39-1.942-12.875-3.584-19.356-5.207c-3.944-0.987-7.94-1.794-11.945-2.499c-3.558-0.626-7.154-1.046-10.744-1.472
				c-3.21-0.38-6.43-0.854-9.653-0.914c-5.563-0.103-11.131,0.085-17.012,0.154c0.94,2.308,1.649,4.242,2.506,6.107
				c1.908,4.155,4.3,7.982,7.14,11.61c3.08,3.933,6.086,7.897,9.775,11.283c0.964,0.886,1.903,1.813,3.434,1.824
				c1.745,0.011,3.486,0.336,5.233,0.428c3.768,0.197,7.539,0.308,11.307,0.502c2.171,0.112,4.353,0.209,6.503,0.503
				c4.081,0.557,8.162,1.156,12.209,1.915c3.842,0.72,7.659,1.597,11.456,2.533c2.916,0.719,5.794,1.6,8.667,2.479
				c3.247,0.993,6.503,1.972,9.696,3.124c5.298,1.912,10.553,3.943,15.816,5.95c3.35,1.277,6.733,2.486,10.011,3.932
				c4.257,1.879,8.462,3.885,12.611,5.989c2.396,1.216,4.543,2.758,5.146,5.736c0.283,1.397,0.994,2.708,1.607,4.31
				C151.282,76.642,155.627,74.359,160.083,72.018z M141.063,174.782c14.626-5.224,28.216-11.922,40.491-21.205
				c-7.315-8.635-15.857-15.872-26.191-20.498C150.6,146.968,145.868,160.766,141.063,174.782z M80.045,12.253
				c0,0.111,0.001,0.223,0.001,0.334c22.662,6.877,43.608,17.091,62.21,32.188c0-0.71,0.11-1.241-0.019-1.706
				c-0.824-2.965-1.646-5.934-2.583-8.864c-0.447-1.397-0.996-2.827-2.399-3.615c-4.704-2.643-9.363-5.371-14.141-7.874
				c-4.461-2.336-9.106-4.294-13.962-5.69c-4.116-1.184-8.189-2.639-12.386-3.396c-4.506-0.812-9.133-0.964-13.711-1.366
				C82.06,12.178,81.049,12.253,80.045,12.253z"/>
			<path style="fill-rule:evenodd;clip-rule:evenodd;fill:none;" d="M21.6,3.6c-0.442,0.08-0.888,0.245-1.326,0.227
				c-4.098-0.162-8.097,0.623-12.11,1.245C6.448,5.337,6.127,5.888,6.5,7.822c0.876,4.54,2.27,8.906,4.513,12.979
				c1.6,2.905,3.036,5.909,4.77,8.731c1.369,2.23,2.98,4.335,4.663,6.346c2.186,2.612,4.532,5.092,6.847,7.594
				c0.669,0.723,1.424,1.387,2.224,1.961c0.519,0.373,0.533,0.547,0.199,1.095c-1.199,1.968-1.791,4.146-0.61,6.252
				c0.794,1.415,2.023,2.615,3.181,3.79c1.06,1.076,2.285,1.989,3.42,2.959c-2.485,3.108-5.083,6.047-7.297,9.25
				c-1.237,1.788-1.933,3.98-2.707,6.052c-1.56,4.174-2.972,8.403-4.516,12.583c-0.675,1.829-1.54,3.587-2.287,5.39
				c-0.507,1.224-0.087,2.304,0.831,3.095c2.388,2.058,5.067,3.552,8.27,3.958c0.926,0.117,1.832,0.398,2.961,0.653
				c0,0.902,0,1.962,0,3.021c0,0.879,0.079,1.768-0.016,2.638c-0.243,2.257,0.377,4.147,2.202,5.535
				c-0.807,1.305-1.759,2.457-2.258,3.779c-0.355,0.942-0.501,2.348-0.041,3.138c1.141,1.957,2.531,3.829,4.109,5.456
				c1.546,1.594,1.716,3.481,2.019,5.447c0.67,4.352,1.544,8.632,4.788,11.971c1.626,1.674,3.745,2.321,5.901,2.597
				c2.731,0.35,5.496,0.284,8.198-0.523c0.76-0.228,1.475-0.106,2.253,0.501c1.776,1.388,3.967,1.893,6.162,2.354
				c2.271,0.478,4.532,0.582,6.831,0.366c0.239-0.022,0.621,0.316,0.761,0.581c1.248,2.344,2.509,4.683,3.626,7.089
				c0.204,0.44-0.075,1.273-0.389,1.759c-2.094,3.249-4.299,6.426-6.383,9.68c-1.43,2.232-2.724,4.552-4.081,6.836
				c2.341,2.531,5.016,4.317,7.862,5.777c2.625,1.347,5.363,2.524,8.15,3.488c2.978,1.029,6.046,1.832,9.122,2.528
				c2.793,0.632,5.646,1.007,8.48,1.453c0.974,0.152,1.965,0.215,2.951,0.253c2.637,0.102,5.274,0.256,7.911,0.229
				c4.899-0.05,9.77-0.464,14.633-1.144c7.657-1.072,15.157-2.771,22.437-5.345c3.449-1.22,6.763-2.823,10.149-4.225
				c5.859-2.426,11.344-5.55,16.633-9.019c3.822-2.506,7.584-5.106,11.329-7.729c1.896-1.328,3.695-2.797,5.539-4.201
				c0,10.64,0,21.279,0,31.92c-61.2,0-122.4,0-183.6,0c0-61.04,0-122.08,0-183.12C11.36,3.6,16.48,3.6,21.6,3.6z"/>
			<path style="fill-rule:evenodd;clip-rule:evenodd;fill:none;" d="M189.84,154.319c-0.463-0.661-0.936-1.316-1.387-1.986
				c-2.264-3.356-4.852-6.439-7.728-9.29c-5.093-5.051-10.749-9.34-17.08-12.725c-0.717-0.383-1.466-0.706-2.278-1.094
				c2.194-1.398,4.365-2.778,6.529-4.167c0.296-0.188,0.556-0.432,0.843-0.635c0.925-0.652,0.662-1.24,0.102-2.065
				c-2.651-3.898-5.281-7.816-7.792-11.807c-1.588-2.523-3.089-5.121-4.391-7.8c-2.681-5.518-5.202-11.112-7.782-16.678
				c-0.063-0.135-0.052-0.305-0.075-0.457c5.166-1.246,9.579-4.001,14.036-6.658c2.084-1.242,4.118-2.571,6.232-3.756
				c1.015-0.569,1.04-1.209,0.471-2.011c-1.271-1.792-2.502-3.62-3.896-5.313c-2.383-2.895-4.845-5.727-7.341-8.525
				c-1.287-1.444-2.677-2.806-4.098-4.122c-1.507-1.396-2.567-2.881-2.949-5.044c-0.561-3.174-1.504-6.294-2.468-9.379
				c-1.138-3.64-2.375-7.258-3.777-10.803c-0.441-1.114-1.46-2.068-2.383-2.91c-2.889-2.635-6.373-4.393-9.772-6.228
				c-7.192-3.884-14.659-7.131-22.463-9.642c-5.86-1.886-11.78-3.216-17.915-3.839c-5.797-0.588-11.587-0.449-17.377-0.362
				c-3.913,0.059-7.815,0.7-11.731,0.855c-1.667,0.066-3.361-0.424-5.037-0.698c-3.814-0.622-7.616-1.333-11.44-1.883
				c-3.898-0.561-7.818-0.977-11.729-1.445C34.246,3.743,33.321,3.683,32.4,3.6c52.48,0,104.959,0,157.44,0
				C189.84,53.84,189.84,104.08,189.84,154.319z"/>
			<path style="fill-rule:evenodd;clip-rule:evenodd;fill:none;" d="M41.423,56.35c3.606,0.484,7.254,0.77,10.808,1.506
				c3.946,0.819,7.863,1.882,11.69,3.148c4.085,1.351,7.66,3.704,10.936,6.506c0.713,0.609,0.799,1.301,0.743,2.121
				c-0.167,2.479-0.369,4.956-0.468,7.438c-0.129,3.228-0.302,6.462-0.223,9.688c0.136,5.541,0.288,11.09,0.742,16.61
				c0.401,4.872,1.125,9.725,1.888,14.558c0.671,4.246,1.56,8.459,2.42,12.673c0.383,1.876,0.925,3.719,1.407,5.574
				c0.327,1.257,1.523,1.288,2.438,1.544c2.176,0.608,4.386,1.114,6.604,1.545c2.691,0.522,5.397,0.98,8.112,1.365
				c3.101,0.439,6.208,0.924,9.329,1.102c2.85,0.162,5.723-0.041,8.584-0.12c1.457-0.04,2.92-0.091,4.365-0.261
				c3.655-0.433,7.328-0.794,10.947-1.447c4.011-0.725,7.976-1.709,11.945-2.648c1.195-0.283,2.338-0.795,3.808-1.309
				c-0.505,1.447-0.946,2.627-1.331,3.825c-1.469,4.563-2.842,9.158-4.4,13.689c-1.268,3.689-2.736,7.311-4.14,10.952
				c-1.46,3.787-2.947,7.564-4.433,11.343c-0.075,0.19-0.225,0.465-0.378,0.494c-3.338,0.639-6.671,1.315-10.026,1.843
				c-3.108,0.488-6.233,1.006-9.367,1.154c-3.414,0.161-6.854,0.018-10.271-0.189c-2.946-0.178-5.917-0.425-8.8-1.015
				c-3.443-0.704-6.855-1.654-10.185-2.78c-2.852-0.964-5.582-2.299-8.34-3.527c-1.167-0.521-1.277-1.028-0.566-2.131
				c1.913-2.97,3.882-5.902,5.773-8.886c1.873-2.953,2.192-6.077,0.554-9.22c-1.666-3.193-3.452-6.324-5.225-9.461
				c-0.908-1.607-2.269-2.453-4.195-2.337c-2.74,0.164-5.489,0.057-8.048-1.001c-1.53-0.632-2.948-1.572-4.332-2.5
				c-0.654-0.439-1.156-0.545-1.933-0.364c-2.44,0.566-4.896,1.111-7.375,1.439c-2.184,0.288-4.078-1.163-4.921-3.168
				c-1.476-3.513-1.574-7.345-2.678-10.926c-0.334-1.084-1.282-1.996-2.016-2.935c-0.633-0.81-1.326-1.582-2.06-2.303
				c-0.712-0.699-0.494-1.37-0.04-2.02c0.545-0.779,1.177-1.498,1.754-2.256c1.205-1.581,1.351-2.979-0.176-4.334
				c-0.827-0.733-1.748-1.521-2.189-2.484c-0.502-1.096-0.651-2.409-0.713-3.64c-0.105-2.074-0.019-4.158-0.015-6.237
				c0.003-2.325-0.175-2.481-2.563-2.89c-2.006-0.343-4.019-0.69-5.985-1.205c-1.76-0.461-1.893-0.861-1.083-2.535
				c1.951-4.039,3.139-8.336,4.309-12.636c0.824-3.029,2.022-5.795,4.208-8.146c2.178-2.341,4.156-4.87,6.221-7.317
				c1.81-2.145,1.4-4.059-1.166-5.443C41.387,56.649,41.405,56.5,41.423,56.35z"/>
			<path style="fill-rule:evenodd;clip-rule:evenodd;fill:none;" d="M34.704,50.16c0.368-1.201,0.716-1.744,1.688-1.692
				c3.63,0.192,7.267,0.266,10.893,0.516c3.199,0.221,6.401,0.509,9.574,0.964c4.791,0.688,9.565,1.502,14.332,2.346
				c3.773,0.667,7.54,1.388,11.278,2.222c2.358,0.525,4.67,1.268,6.983,1.975c4.885,1.494,9.801,2.905,14.625,4.578
				c5.875,2.037,11.704,4.216,17.484,6.508c3.712,1.473,7.306,3.246,10.938,4.916c1.484,0.683,2.896,1.536,4.407,2.147
				c1.161,0.469,1.635,1.356,2.044,2.396c1.682,4.278,3.259,8.601,5.096,12.811c2.516,5.761,5.024,11.542,7.926,17.111
				c2.555,4.904,5.635,9.534,8.511,14.269c0.329,0.543,0.438,0.819-0.226,1.203c-6.594,3.813-13.471,6.871-20.843,8.956
				c-4.52,1.278-9.088,1.922-13.69,2.516c-3.924,0.506-7.865,0.941-11.813,1.188c-4.576,0.286-9.168,0.122-13.685-0.71
				c-4.053-0.746-8.062-1.734-12.083-2.646c-0.288-0.065-0.695-0.342-0.751-0.588c-0.955-4.218-1.976-8.425-2.749-12.678
				c-0.684-3.761-1.153-7.565-1.587-11.366c-0.483-4.233-0.792-8.487-1.228-12.726c-0.356-3.46-0.645-6.908-0.272-10.394
				c0.123-1.149-0.196-2.338-0.184-3.507c0.045-4.184,0.165-8.366,0.212-12.549c0.011-0.941-0.027-1.919-0.28-2.813
				c-0.173-0.61-0.66-1.235-1.179-1.625c-2.516-1.885-4.894-4.106-7.689-5.432c-4.356-2.066-8.965-3.643-13.554-5.163
				c-2.969-0.984-6.074-1.605-9.157-2.183c-2.006-0.375-4.08-0.469-6.128-0.528C40.7,50.097,37.798,50.16,34.704,50.16z"/>
			<path style="fill-rule:evenodd;clip-rule:evenodd;fill:none;" d="M160.083,72.018c-4.456,2.341-8.801,4.624-13.232,6.953
				c-0.613-1.602-1.324-2.912-1.607-4.31c-0.603-2.978-2.749-4.52-5.146-5.736c-4.149-2.104-8.354-4.11-12.611-5.989
				c-3.277-1.446-6.661-2.655-10.011-3.932c-5.264-2.006-10.519-4.038-15.816-5.95c-3.192-1.152-6.449-2.13-9.696-3.124
				c-2.873-0.879-5.751-1.759-8.667-2.479c-3.796-0.937-7.613-1.813-11.456-2.533c-4.047-0.758-8.128-1.357-12.209-1.915
				c-2.151-0.293-4.332-0.391-6.503-0.503c-3.768-0.194-7.539-0.305-11.307-0.502c-1.748-0.092-3.488-0.417-5.233-0.428
				c-1.531-0.01-2.47-0.938-3.434-1.824c-3.688-3.386-6.695-7.35-9.775-11.283c-2.84-3.627-5.232-7.455-7.14-11.61
				c-0.857-1.865-1.565-3.799-2.506-6.107c5.881-0.069,11.449-0.257,17.012-0.154c3.223,0.059,6.443,0.533,9.653,0.914
				c3.589,0.426,7.186,0.846,10.744,1.472c4.005,0.705,8.001,1.512,11.945,2.499c6.481,1.623,12.966,3.265,19.356,5.207
				c4.931,1.499,9.747,3.395,14.558,5.259c2.993,1.161,5.91,2.531,8.807,3.919c2.958,1.417,5.888,2.904,8.761,4.484
				c2.673,1.47,5.286,3.053,7.87,4.676c2.786,1.75,5.581,3.5,8.237,5.435c3.653,2.661,7.249,5.411,10.737,8.283
				c2.447,2.016,4.494,4.549,7.047,6.399c2.738,1.985,4.385,4.863,6.735,7.143C156.911,67.946,158.321,69.924,160.083,72.018z"/>
			<path style="fill-rule:evenodd;clip-rule:evenodd;fill:none;" d="M141.063,174.782c4.806-14.017,9.537-27.814,14.3-41.703
				c10.334,4.626,18.876,11.863,26.191,20.498C169.278,162.86,155.688,169.559,141.063,174.782z"/>
			<path style="fill-rule:evenodd;clip-rule:evenodd;fill:none;" d="M80.045,12.253c1.004,0,2.015-0.075,3.012,0.013
				c4.578,0.402,9.205,0.555,13.711,1.366c4.196,0.756,8.27,2.211,12.386,3.396c4.855,1.396,9.501,3.354,13.962,5.69
				c4.777,2.502,9.437,5.23,14.141,7.874c1.403,0.789,1.952,2.218,2.399,3.615c0.938,2.93,1.759,5.898,2.583,8.864
				c0.129,0.465,0.019,0.996,0.019,1.706c-18.603-15.097-39.549-25.312-62.21-32.188C80.046,12.476,80.045,12.364,80.045,12.253z"/>
		</g>
	</g>
</g>
<g id="DocumentAndSword" style="display:none;">
	<g style="display:inline;">
		<g>
			<path style="fill-rule:evenodd;clip-rule:evenodd;fill:none;" d="M191.76,153.359c0,11.677,0,23.354,0,35.035
				c-63.818,0-127.636,0-191.52,0c0-0.572,0-1.15,0-1.729c0-61.063-0.001-122.125,0.034-183.187c0-0.309-0.593-1.11,0.446-1.079
				c0.084,1.107-0.018,2.268,0.286,3.311c0.949,3.256,1.923,6.518,3.135,9.682c1.024,2.673,2.277,5.276,3.638,7.797
				c1.976,3.663,4.083,7.259,6.249,10.814c1.001,1.645,2.151,3.235,3.449,4.654c1.661,1.817,3.531,3.445,5.325,5.139
				c1.557,1.471,3.133,2.921,4.614,4.3c3.082-3.928,6.161-7.85,9.262-11.802c-5.952-6.054-12.465-11.644-17.845-18.694
				c8.124,3.776,14.45,9.645,21.298,14.842c3.441-3.79,6.856-7.551,10.346-11.393c-1.678-1.267-3.4-2.432-4.968-3.778
				c-3.486-2.992-7.61-4.909-11.661-6.894c-4.774-2.339-9.827-4.022-15.033-5.148C15.15,4.44,11.452,3.803,7.764,3.126
				C6.223,2.844,4.668,2.64,3.12,2.4c62.88,0,125.76,0,188.64,0c0,49.28,0,98.56,0,147.84c-0.686-1.603-1.054-3.472-2.126-4.749
				c-1.978-2.355-3.994-4.888-7.415-5.356c-0.236-0.032-0.456-0.284-0.658-0.463c-1.488-1.319-2.94-2.681-4.459-3.964
				c-4.231-3.577-8.486-7.126-12.738-10.678c-1.033-0.863-2.093-1.697-3.025-2.452c1.191-1.903,2.368-3.648,3.401-5.474
				c0.925-1.633,1.854-3.295,2.489-5.05c1.005-2.776,1.904-5.608,2.582-8.479c0.557-2.356,0.868-4.795,1.02-7.214
				c0.101-1.609-0.239-3.251-0.437-4.871c-0.353-2.885-1.135-5.608-3.113-7.856c-0.982-1.117-1.73-1.034-2.661,0.167
				c-1.951,2.519-3.943,5.005-5.949,7.48c-1.874,2.313-3.776,4.603-5.689,6.884c-1.174,1.4-2.393,2.764-3.609,4.164
				c-6.225-5.11-12.338-10.129-18.654-15.314c-2.678,3.736-5.369,7.489-8.053,11.233c2.2,1.973,4.312,3.875,6.433,5.765
				c2.097,1.87,4.197,3.734,6.306,5.589c1.126,0.99,2.293,1.937,3.396,2.952c0.24,0.222,0.499,0.805,0.386,0.969
				c-1.042,1.497-2.164,2.938-3.453,4.649c-5.494-5-10.841-9.866-16.449-14.97c-2.291,4.538-4.471,8.972-6.775,13.341
				c-0.666,1.265-0.153,1.822,0.77,2.511c1.763,1.316,3.477,2.699,5.181,4.092c1.587,1.298,3.13,2.65,4.7,3.971
				c1.046,0.88,2.104,1.744,3.201,2.652c-1.125,1.405-2.136,2.707-3.189,3.974c-2.145,2.58-4.287,5.163-6.479,7.702
				c-2.326,2.697-4.706,5.35-7.069,8.015c-1.179,1.33-1.982,3.856,0.292,4.428c2.118,0.532,4.35,0.863,6.526,0.842
				c2.281-0.022,4.551-0.642,6.838-0.87c3.931-0.393,7.482-1.938,10.923-3.671c4.792-2.413,8.713-5.982,12.326-9.918
				c0.324-0.353,0.652-1.598,1.684-0.817c2.271,1.719,4.563,3.409,6.793,5.18c1.887,1.497,3.673,3.12,5.546,4.635
				c2.445,1.979,4.935,3.905,7.396,5.866c0.139,0.11,0.226,0.314,0.286,0.492c1.239,3.646,3.619,6.217,7.189,7.682
				c4.894,2.007,10.406,0.693,13.334-3.986C189.929,157.443,190.768,155.354,191.76,153.359z M5.255,131.318
				c0,1.114-0.036,2.229,0.009,3.341c0.057,1.385,0.037,2.795,0.306,4.144c0.503,2.519,1.144,5.013,1.813,7.495
				c1.374,5.091,4.354,9.11,8.588,12.149c3.281,2.355,6.685,4.548,10.097,6.712c4.822,3.06,9.98,5.5,15.334,7.43
				c6.505,2.345,13.118,4.394,19.694,6.539c3.941,1.285,7.882,2.578,11.861,3.737c2.888,0.842,5.824,1.53,8.763,2.174
				c2.601,0.57,5.239,0.969,7.854,1.474c1.923,0.371,3.823,1.014,5.758,1.142c3.649,0.241,7.32,0.389,10.967-0.186
				c4.15-0.652,8.049-1.997,11.561-4.334c2.944-1.96,5.492-4.367,7.716-7.116c2.11-2.608,4.491-5.006,5.838-8.183
				c0.831-1.958,1.002-1.702-1.039-2.237c-0.076-0.02-0.16-0.007-0.239-0.021c-4.462-0.823-8.944-1.551-13.379-2.503
				c-3.245-0.697-6.465-1.568-9.626-2.581c-3.801-1.218-7.523-2.677-11.288-4.007c-0.624-0.22-0.834-0.564-0.791-1.221
				c0.186-2.768,0.191-5.554,0.516-8.304c0.611-5.175,1.902-10.198,3.523-15.16c1.639-5.019,3.586-9.9,5.946-14.605
				c2.283-4.552,4.721-9.029,7.195-13.481c2.152-3.875,4.351-7.732,6.713-11.481c2.282-3.622,4.756-7.125,7.225-10.625
				c2.508-3.555,5.074-7.069,7.682-10.552c2.83-3.78,5.675-7.553,8.63-11.236c2.636-3.288,5.412-6.463,8.164-9.657
				c1.167-1.354,2.506-2.565,3.626-3.955c1.277-1.583,1.392-1.794,3.203-1.259c5.123,1.514,10.3,2.898,15.304,4.744
				c3.808,1.404,7.388,3.427,11.058,5.197c0.73,0.352,1.244,0.365,1.487-0.539c0.103-0.378,0.234-0.751,0.382-1.115
				c1.618-4.009,2.861-8.046,2.533-12.501c-0.241-3.274-1.258-6.086-3.569-8.35c-3.664-3.589-8.132-5.962-12.808-7.917
				c-3.604-1.507-7.302-2.793-10.962-4.167c-4.008-1.504-7.985-3.099-12.04-4.465c-4.041-1.361-8.148-2.531-12.249-3.705
				c-3.724-1.065-7.454-2.121-11.223-3.006c-4.762-1.119-9.551-2.136-14.355-3.055c-3.68-0.705-7.386-1.368-11.111-1.718
				c-2.958-0.278-5.97-0.173-8.947-0.023c-3.219,0.163-6.287,1.19-9.313,2.224c-4.743,1.62-8.724,4.627-12.738,7.482
				c-3.495,2.487-6.773,5.292-10.042,8.079c-2.796,2.383-5.541,4.842-8.126,7.45c-2.138,2.156-4.058,4.537-5.985,6.891
				c-3.141,3.835-6.292,7.667-9.28,11.622c-2.214,2.93-4.344,5.951-6.211,9.108c-3.255,5.505-6.491,11.042-9.335,16.763
				c-2.421,4.87-4.354,9.99-6.359,15.056c-1.034,2.612-1.743,5.351-2.617,8.027c-0.689,2.11-1.513,4.184-2.08,6.325
				c-0.664,2.504-1.09,5.071-1.664,7.601c-1.085,4.783-1.872,9.604-1.963,14.519C5.225,127.423,5.255,129.371,5.255,131.318z"/>
			<path style="fill-rule:evenodd;clip-rule:evenodd;" d="M191.76,153.359c-0.992,1.994-1.831,4.084-3.007,5.963
				c-2.928,4.68-8.44,5.993-13.334,3.986c-3.57-1.465-5.95-4.036-7.189-7.682c-0.061-0.178-0.147-0.382-0.286-0.492
				c-2.461-1.961-4.95-3.887-7.396-5.866c-1.873-1.515-3.659-3.138-5.546-4.635c-2.229-1.771-4.522-3.461-6.793-5.18
				c-1.031-0.78-1.359,0.465-1.684,0.817c-3.613,3.936-7.534,7.505-12.326,9.918c-3.44,1.733-6.992,3.278-10.923,3.671
				c-2.287,0.229-4.557,0.848-6.838,0.87c-2.177,0.021-4.408-0.31-6.526-0.842c-2.274-0.571-1.471-3.098-0.292-4.428
				c2.363-2.665,4.743-5.317,7.069-8.015c2.191-2.539,4.334-5.122,6.479-7.702c1.054-1.267,2.064-2.568,3.189-3.974
				c-1.097-0.908-2.155-1.772-3.201-2.652c-1.57-1.32-3.113-2.673-4.7-3.971c-1.704-1.393-3.418-2.775-5.181-4.092
				c-0.923-0.688-1.436-1.246-0.77-2.511c2.305-4.369,4.484-8.803,6.775-13.341c5.608,5.104,10.955,9.97,16.449,14.97
				c1.289-1.711,2.411-3.152,3.453-4.649c0.113-0.164-0.146-0.747-0.386-0.969c-1.103-1.016-2.27-1.962-3.396-2.952
				c-2.108-1.855-4.209-3.72-6.306-5.589c-2.121-1.891-4.232-3.792-6.433-5.765c2.684-3.744,5.375-7.498,8.053-11.233
				c6.316,5.185,12.43,10.204,18.654,15.314c1.217-1.4,2.436-2.764,3.609-4.164c1.913-2.281,3.815-4.571,5.689-6.884
				c2.006-2.475,3.998-4.962,5.949-7.48c0.931-1.202,1.679-1.285,2.661-0.167c1.979,2.249,2.761,4.972,3.113,7.856
				c0.197,1.62,0.537,3.262,0.437,4.871c-0.151,2.419-0.463,4.858-1.02,7.214c-0.678,2.871-1.577,5.703-2.582,8.479
				c-0.635,1.755-1.564,3.417-2.489,5.05c-1.033,1.825-2.21,3.57-3.401,5.474c0.933,0.755,1.992,1.589,3.025,2.452
				c4.252,3.552,8.507,7.101,12.738,10.678c1.519,1.283,2.971,2.645,4.459,3.964c0.202,0.179,0.422,0.431,0.658,0.463
				c3.421,0.469,5.438,3.001,7.415,5.356c1.072,1.277,1.44,3.146,2.126,4.749C191.76,151.279,191.76,152.32,191.76,153.359z
				 M118.806,148.581c0.048,0.123,0.097,0.246,0.146,0.369c1.088-0.262,2.202-0.444,3.26-0.798c3.87-1.293,7.539-3.037,10.78-5.524
				c3.224-2.473,6.641-4.813,9.391-7.756c4.25-4.547,8.159-9.439,11.929-14.4c4.266-5.614,7.723-11.719,9.236-18.721
				c0.457-2.116,0.697-4.28,1.036-6.421c-0.171-0.068-0.343-0.135-0.514-0.203c-2.086,2.616-4.2,5.21-6.253,7.852
				c-3.713,4.777-7.333,9.626-11.098,14.361c-2.847,3.58-5.747,7.13-8.819,10.515c-6.215,6.849-12.563,13.576-18.853,20.356
				C118.948,148.316,118.885,148.456,118.806,148.581z M179.955,146.88c-2.074-0.008-4.586,2.924-4.805,5.187
				c-0.187,1.932,2.248,4.874,4.269,4.844c2.549-0.038,5.532-2.646,5.539-5.282C184.964,149.391,182.288,146.889,179.955,146.88z"/>
			<path style="fill-rule:evenodd;clip-rule:evenodd;" d="M3.12,2.4c1.548,0.24,3.103,0.444,4.644,0.726
				c3.688,0.676,7.386,1.313,11.05,2.105c5.206,1.126,10.259,2.809,15.033,5.148c4.051,1.985,8.175,3.902,11.661,6.894
				c1.568,1.346,3.29,2.511,4.968,3.778c-3.489,3.842-6.905,7.604-10.346,11.393c-6.849-5.197-13.175-11.066-21.298-14.842
				c5.38,7.05,11.893,12.64,17.845,18.694c-3.102,3.952-6.18,7.874-9.262,11.802c-1.481-1.378-3.057-2.829-4.614-4.3
				c-1.794-1.694-3.664-3.322-5.325-5.139c-1.297-1.419-2.447-3.01-3.449-4.654c-2.165-3.556-4.272-7.151-6.249-10.814
				c-1.36-2.521-2.614-5.124-3.638-7.797c-1.212-3.165-2.186-6.426-3.135-9.682C0.703,4.668,0.804,3.507,0.72,2.4
				C1.52,2.4,2.32,2.4,3.12,2.4z"/>
			<path style="fill-rule:evenodd;clip-rule:evenodd;" d="M5.255,131.318c0-1.947-0.03-3.896,0.006-5.843
				c0.091-4.914,0.878-9.735,1.963-14.519c0.574-2.529,1-5.097,1.664-7.601c0.567-2.142,1.391-4.215,2.08-6.325
				c0.874-2.676,1.583-5.415,2.617-8.027c2.005-5.066,3.938-10.187,6.359-15.056c2.845-5.722,6.08-11.258,9.335-16.763
				c1.867-3.158,3.998-6.179,6.211-9.108c2.988-3.954,6.139-7.786,9.28-11.622c1.927-2.354,3.848-4.734,5.985-6.891
				c2.585-2.607,5.33-5.067,8.126-7.45c3.27-2.787,6.547-5.592,10.042-8.079c4.014-2.855,7.995-5.862,12.738-7.482
				c3.027-1.034,6.094-2.062,9.313-2.224c2.977-0.15,5.989-0.255,8.947,0.023c3.726,0.351,7.432,1.013,11.111,1.718
				c4.805,0.919,9.594,1.936,14.355,3.055c3.769,0.885,7.499,1.94,11.223,3.006c4.101,1.174,8.208,2.344,12.249,3.705
				c4.055,1.366,8.032,2.96,12.04,4.465c3.66,1.374,7.357,2.66,10.962,4.167c4.676,1.955,9.144,4.329,12.808,7.917
				c2.312,2.264,3.328,5.076,3.569,8.35c0.328,4.455-0.915,8.492-2.533,12.501c-0.147,0.364-0.279,0.737-0.382,1.115
				c-0.243,0.904-0.757,0.891-1.487,0.539c-3.67-1.771-7.25-3.793-11.058-5.197c-5.004-1.846-10.181-3.23-15.304-4.744
				c-1.812-0.535-1.926-0.325-3.203,1.259c-1.12,1.39-2.459,2.6-3.626,3.955c-2.752,3.193-5.528,6.369-8.164,9.657
				c-2.955,3.683-5.8,7.456-8.63,11.236c-2.607,3.483-5.174,6.997-7.682,10.552c-2.469,3.5-4.942,7.003-7.225,10.625
				c-2.362,3.749-4.561,7.607-6.713,11.481c-2.475,4.452-4.912,8.93-7.195,13.481c-2.36,4.705-4.308,9.587-5.946,14.605
				c-1.621,4.962-2.912,9.985-3.523,15.16c-0.325,2.75-0.33,5.536-0.516,8.304c-0.044,0.656,0.167,1.001,0.791,1.221
				c3.765,1.33,7.487,2.789,11.288,4.007c3.161,1.013,6.381,1.884,9.626,2.581c4.435,0.952,8.917,1.68,13.379,2.503
				c0.079,0.015,0.163,0.002,0.239,0.021c2.041,0.535,1.87,0.279,1.039,2.237c-1.347,3.177-3.728,5.574-5.838,8.183
				c-2.224,2.749-4.771,5.156-7.716,7.116c-3.512,2.337-7.41,3.682-11.561,4.334c-3.646,0.574-7.317,0.427-10.967,0.186
				c-1.936-0.128-3.835-0.771-5.758-1.142c-2.616-0.505-5.253-0.903-7.854-1.474c-2.939-0.644-5.875-1.332-8.763-2.174
				c-3.979-1.159-7.92-2.452-11.861-3.737c-6.576-2.146-13.188-4.194-19.694-6.539c-5.354-1.93-10.512-4.37-15.334-7.43
				c-3.413-2.164-6.816-4.356-10.097-6.712c-4.235-3.039-7.215-7.059-8.588-12.149c-0.669-2.482-1.31-4.977-1.813-7.495
				c-0.27-1.349-0.25-2.759-0.306-4.144C5.219,133.548,5.255,132.433,5.255,131.318z M164.314,29.25
				c-3.443-1.439-6.468-2.821-9.575-3.978c-5.936-2.209-11.872-4.422-18.045-5.931c-5.016-1.225-9.99-2.616-14.999-3.869
				c-2.696-0.674-5.407-1.332-8.146-1.79c-5.494-0.918-10.88-2.375-16.491-2.759c-4.458-0.305-8.792-0.189-12.87,1.603
				c-2.672,1.175-5.144,2.83-7.634,4.384c-2.089,1.303-4.122,2.709-6.092,4.186c-2.112,1.581-4.182,3.23-6.16,4.974
				c-1.97,1.736-3.9,3.539-5.674,5.472c-1.949,2.125-3.686,4.443-5.541,6.656c-3.496,4.17-7.166,8.205-10.482,12.513
				c-6.03,7.831-11.087,16.326-15.84,24.962c-4.988,9.062-8.437,18.785-10.951,28.825c-0.643,2.566-1.373,5.121-1.836,7.722
				c-0.911,5.104-1.96,10.213-2.4,15.366c-0.461,5.402-0.131,10.862,1.409,16.127c0.573,1.958,0.891,4.109,2.583,5.59
				c1.789,1.565,3.44,3.322,5.371,4.685c3.389,2.391,6.713,5.094,10.479,6.686c8.269,3.495,16.769,6.453,25.229,9.479
				c4.423,1.582,8.944,2.896,13.451,4.232c3.376,1.001,6.785,1.907,10.208,2.737c4.188,1.015,8.405,1.909,12.613,2.842
				c0.498,0.11,1.015,0.132,1.351,0.173c-1.226-3.137-2.475-6.111-3.553-9.147c-1.531-4.306-2.217-8.773-2.128-13.347
				c0.051-2.626,0.064-5.257,0.262-7.872c0.175-2.31,0.498-4.617,0.915-6.896c0.362-1.977,1-3.9,1.425-5.867
				c1.663-7.694,4.352-15.041,7.707-22.131c2.164-4.573,4.538-9.06,7.039-13.459c2.937-5.167,5.994-10.273,9.22-15.264
				c2.704-4.185,5.681-8.198,8.617-12.228c2.454-3.369,5.005-6.668,7.55-9.97c2.787-3.616,5.585-7.224,8.438-10.787
				c1.776-2.22,3.647-4.366,5.51-6.515c1.015-1.17,2.131-2.251,3.149-3.418c3.615-4.141,7.604-7.888,11.923-11.279
				C161.503,31.047,162.78,30.289,164.314,29.25z M96.34,164.563c0.781,4.977,5.007,11.774,8.109,15.093
				c0.304,0.324,0.861,0.486,1.327,0.568c2.197,0.387,4.007-0.646,5.814-1.668c3.545-2.003,6.659-4.496,9.084-7.95
				C112.378,169.096,104.192,167.447,96.34,164.563z M180.911,46.095c0.114-0.822,0.177-1.544,0.319-2.25
				c1.244-6.155-3.207-9.817-8.39-10.453c-2.484-0.305-4.482,1.147-6.444,2.43c-1.395,0.911-2.545,2.092-3.444,3.554
				C168.966,41.539,175.266,42.572,180.911,46.095z"/>
			<path style="fill-rule:evenodd;clip-rule:evenodd;fill:none;" d="M118.806,148.581c0.079-0.125,0.143-0.265,0.241-0.371
				c6.29-6.78,12.638-13.508,18.853-20.356c3.072-3.385,5.973-6.935,8.819-10.515c3.765-4.734,7.385-9.584,11.098-14.361
				c2.053-2.642,4.167-5.236,6.253-7.852c0.171,0.068,0.343,0.135,0.514,0.203c-0.339,2.142-0.579,4.305-1.036,6.421
				c-1.514,7.002-4.971,13.106-9.236,18.721c-3.77,4.961-7.679,9.854-11.929,14.4c-2.75,2.942-6.167,5.283-9.391,7.756
				c-3.241,2.487-6.91,4.231-10.78,5.524c-1.058,0.354-2.172,0.536-3.26,0.798C118.902,148.827,118.854,148.704,118.806,148.581z"/>
			<path style="fill-rule:evenodd;clip-rule:evenodd;fill:none;" d="M179.955,146.88c2.333,0.009,5.009,2.511,5.003,4.748
				c-0.007,2.637-2.99,5.244-5.539,5.282c-2.021,0.03-4.455-2.912-4.269-4.844C175.369,149.804,177.881,146.872,179.955,146.88z"/>
			<path style="fill-rule:evenodd;clip-rule:evenodd;fill:none;" d="M164.314,29.25c-1.534,1.039-2.812,1.797-3.97,2.707
				c-4.319,3.391-8.308,7.139-11.923,11.279c-1.019,1.167-2.135,2.249-3.149,3.418c-1.862,2.149-3.733,4.295-5.51,6.515
				c-2.854,3.563-5.651,7.171-8.438,10.787c-2.545,3.302-5.096,6.601-7.55,9.97c-2.937,4.03-5.913,8.043-8.617,12.228
				c-3.226,4.991-6.283,10.097-9.22,15.264c-2.501,4.399-4.875,8.886-7.039,13.459c-3.355,7.09-6.044,14.437-7.707,22.131
				c-0.425,1.967-1.063,3.891-1.425,5.867c-0.417,2.279-0.74,4.587-0.915,6.896c-0.198,2.615-0.211,5.246-0.262,7.872
				c-0.089,4.573,0.598,9.041,2.128,13.347c1.079,3.036,2.328,6.011,3.553,9.147c-0.336-0.041-0.853-0.063-1.351-0.173
				c-4.208-0.933-8.425-1.827-12.613-2.842c-3.423-0.83-6.831-1.736-10.208-2.737c-4.507-1.336-9.028-2.65-13.451-4.232
				c-8.46-3.026-16.96-5.984-25.229-9.479c-3.766-1.592-7.09-4.295-10.479-6.686c-1.931-1.362-3.582-3.119-5.371-4.685
				c-1.692-1.48-2.01-3.632-2.583-5.59c-1.54-5.265-1.87-10.725-1.409-16.127c0.44-5.153,1.489-10.262,2.4-15.366
				c0.464-2.601,1.193-5.155,1.836-7.722c2.514-10.04,5.963-19.763,10.951-28.825c4.753-8.636,9.811-17.131,15.84-24.962
				c3.316-4.308,6.986-8.342,10.482-12.513c1.855-2.213,3.591-4.532,5.541-6.656c1.773-1.934,3.704-3.736,5.674-5.472
				c1.979-1.744,4.048-3.393,6.16-4.974c1.971-1.477,4.003-2.882,6.092-4.186c2.49-1.554,4.962-3.209,7.634-4.384
				c4.078-1.792,8.413-1.908,12.87-1.603c5.611,0.384,10.997,1.84,16.491,2.759c2.738,0.458,5.449,1.115,8.146,1.79
				c5.009,1.253,9.983,2.644,14.999,3.869c6.173,1.508,12.109,3.721,18.045,5.931C157.847,26.429,160.871,27.811,164.314,29.25z
				 M82.397,68.132c6.39,2.757,13.069,4.543,18.939,8.136c2.636-3.089,5.277-6.185,8.047-9.429
				c-0.342-0.263-0.604-0.514-0.908-0.691c-2.05-1.192-4.06-2.465-6.175-3.529c-3.681-1.852-7.417-3.596-11.157-5.327
				c-0.94-0.436-1.086-0.891-0.462-1.682c2.678-3.393,5.317-6.817,8.029-10.183c2.005-2.488,4.102-4.903,6.222-7.428
				c-3.421-1.565-6.928-2.447-10.471-3.258c-1.392-0.318-2.313-0.01-3.216,1.059c-1.574,1.86-3.36,3.544-4.887,5.439
				c-2.707,3.36-5.287,6.822-7.918,10.243c-0.373,0.484-0.754,0.791-1.389,0.366c-0.249-0.167-0.591-0.201-0.896-0.278
				c-4.558-1.161-9.106-2.365-13.682-3.452c-1.608-0.382-3.19-0.343-4.419,1.191c-1.555,1.941-3.285,3.742-4.872,5.659
				c-0.806,0.974-1.462,2.071-2.2,3.133c6.469,1.879,12.782,3.712,19.11,5.55c-1.562,2.698-2.993,5.108-4.365,7.552
				c-2.237,3.984-4.555,7.931-6.616,12.006c-1.841,3.641-3.477,7.395-5.032,11.169c-2.184,5.297-4.46,10.578-6.224,16.018
				c-1.428,4.405-2.16,9.036-3.196,13.567c-0.195,0.853,0.178,1.282,1.007,1.547c3.192,1.021,6.38,2.06,9.536,3.185
				c0.865,0.309,1.235,0.178,1.442-0.687c0.544-2.273,1.02-4.568,1.696-6.804c1.235-4.082,2.453-8.181,3.941-12.175
				c1.623-4.354,3.396-8.666,5.372-12.869c2.801-5.958,5.776-11.839,8.817-17.681C78.275,75.012,80.35,71.685,82.397,68.132z"/>
			<path style="fill-rule:evenodd;clip-rule:evenodd;fill:none;" d="M96.34,164.563c7.852,2.885,16.038,4.533,24.334,6.043
				c-2.425,3.454-5.539,5.947-9.084,7.95c-1.808,1.021-3.617,2.055-5.814,1.668c-0.466-0.082-1.023-0.244-1.327-0.568
				C101.348,176.337,97.121,169.539,96.34,164.563z"/>
			<path style="fill-rule:evenodd;clip-rule:evenodd;fill:none;" d="M180.911,46.095c-5.646-3.523-11.945-4.557-17.959-6.719
				c0.899-1.462,2.05-2.643,3.444-3.554c1.962-1.282,3.96-2.734,6.444-2.43c5.183,0.636,9.634,4.298,8.39,10.453
				C181.088,44.551,181.025,45.273,180.911,46.095z"/>
			<path style="fill-rule:evenodd;clip-rule:evenodd;" d="M82.397,68.132c-2.047,3.553-4.122,6.88-5.927,10.347
				c-3.041,5.841-6.016,11.722-8.817,17.681c-1.976,4.204-3.749,8.516-5.372,12.869c-1.488,3.994-2.706,8.093-3.941,12.175
				c-0.676,2.235-1.152,4.53-1.696,6.804c-0.207,0.864-0.577,0.995-1.442,0.687c-3.156-1.125-6.344-2.164-9.536-3.185
				c-0.83-0.265-1.202-0.694-1.007-1.547c1.036-4.531,1.768-9.162,3.196-13.567c1.764-5.44,4.041-10.721,6.224-16.018
				c1.556-3.774,3.191-7.529,5.032-11.169c2.061-4.075,4.378-8.021,6.616-12.006c1.372-2.443,2.803-4.854,4.365-7.552
				c-6.328-1.837-12.641-3.671-19.11-5.55c0.738-1.062,1.395-2.159,2.2-3.133c1.586-1.917,3.316-3.718,4.872-5.659
				c1.229-1.534,2.811-1.573,4.419-1.191c4.576,1.087,9.124,2.291,13.682,3.452c0.304,0.077,0.646,0.111,0.896,0.278
				c0.635,0.425,1.017,0.118,1.389-0.366c2.631-3.421,5.211-6.883,7.918-10.243c1.527-1.896,3.313-3.58,4.887-5.439
				c0.904-1.068,1.825-1.377,3.216-1.059c3.543,0.812,7.05,1.693,10.471,3.258c-2.12,2.525-4.217,4.94-6.222,7.428
				c-2.712,3.365-5.352,6.79-8.029,10.183c-0.624,0.791-0.478,1.247,0.462,1.682c3.74,1.731,7.476,3.476,11.157,5.327
				c2.115,1.063,4.125,2.337,6.175,3.529c0.305,0.177,0.566,0.428,0.908,0.691c-2.77,3.245-5.411,6.34-8.047,9.429
				C95.467,72.675,88.787,70.89,82.397,68.132z"/>
		</g>
	</g>
</g>
<g id="Trumpet" style="display:none;">
	<g style="display:inline;">
		<g>
			<path style="fill-rule:evenodd;clip-rule:evenodd;fill:none;" d="M145.439,0.24c16.08,0,32.16,0,48.24,0
				c0,62.56,0,125.119,0,187.68c-63.84,0-127.68,0-191.52,0c0-62.561,0-125.12,0-187.68c46.959,0,93.919,0,140.879,0
				c-1.855,0.557-3.033,1.926-4.044,3.457c-0.789,1.194-1.486,2.448-2.243,3.664c-1.197,1.925-2.468,3.808-3.605,5.768
				c-1.786,3.077-3.453,6.223-5.237,9.301c-1.329,2.294-2.772,4.522-4.15,6.789c-3.656,6.013-7.304,12.031-10.956,18.046
				c-1.534,2.527-3.004,5.098-4.63,7.565c-1.176,1.783-2.491,3.486-3.869,5.12c-1.941,2.301-3.9,4.604-6.032,6.724
				c-2.443,2.429-5.089,4.651-7.636,6.976c-1.439,1.313-2.807,2.709-4.294,3.965c-2.99,2.527-6.021,5.009-9.072,7.463
				c-2.51,2.018-5.096,3.943-7.61,5.956c-3.11,2.489-6.149,5.067-9.277,7.533c-2.884,2.272-5.869,4.415-8.764,6.673
				c-2.222,1.732-4.352,3.583-6.563,5.33c-1.94,1.531-3.965,2.956-5.901,4.491c-3.022,2.396-5.978,4.878-9.006,7.266
				c-2.619,2.066-5.302,4.049-7.951,6.076c-0.675,0.518-1.298,0.992-2.179,0.305c-0.375-0.294-0.911-0.397-1.386-0.545
				c-3.367-1.041-6.778-1.015-10.165-0.204c-1.753,0.419-3.432,1.094-4.704,2.521c-1.32,1.481-1.652,3.377-0.73,4.671
				c2.364,3.316,4.713,6.645,7.079,9.961c2.866,4.017,5.721,8.041,8.621,12.033c1.442,1.985,4.302,2.414,6.082,0.763
				c3.818-3.544,5.792-8.077,5.805-13.216c0.004-1.747,0.718-2.589,1.781-3.34c3.093-2.186,6.27-4.255,9.439-6.331
				c1.812-1.186,3.673-2.295,5.515-3.439c0.348,0.647,0.628,1.284,1.009,1.855c0.977,1.466,1.983,2.913,3.005,4.348
				c2.038,2.86,4.414,5.423,7.218,7.527c4.613,3.462,9.528,6.458,14.698,9.024c3.701,1.837,7.525,3.461,11.084,5.54
				c4.25,2.482,8.378,5.207,12.364,8.096c3.093,2.242,5.655,5.138,7.973,8.181c1.871,2.456,3.554,5.057,5.28,7.621
				c0.853,1.267,1.615,2.596,2.437,3.925c0.643-0.212,1.261-0.349,1.819-0.612c3.267-1.541,6.552-3.047,9.766-4.692
				c2.844-1.456,5.666-2.975,8.381-4.654c3.007-1.859,5.875-3.941,8.813-5.911c3.186-2.137,6.463-4.146,9.55-6.416
				c2.793-2.052,5.479-4.275,8.033-6.619c1.98-1.818,3.697-3.926,5.501-5.931c0.603-0.67,1.248-1.358,1.631-2.154
				c0.51-1.06,0.996-2.144,0.065-3.381c-1.361-1.811-2.458-3.818-3.805-5.642c-1.926-2.609-3.818-5.272-6.018-7.641
				c-2.107-2.27-4.513-4.283-6.92-6.246c-3.61-2.944-7.571-5.391-11.701-7.536c-3.177-1.651-6.451-3.115-9.646-4.733
				c-5.659-2.863-11.128-6.024-16.086-10.036c-3.282-2.656-5.816-5.844-7.757-9.591c1.611-0.787,3.196-1.531,4.753-2.329
				c3.565-1.828,7.055-3.82,10.691-5.489c3.854-1.768,7.908-3.038,12.069-3.93c4.646-0.997,9.289-2.017,13.933-3.029
				c6.483-1.413,12.954-2.892,19.455-4.219c4.789-0.977,9.63-1.707,14.429-2.64c2.959-0.576,5.906-1.242,8.813-2.033
				c1.764-0.479,3.496-1.128,4.276-3.125c1.398-3.579,1.096-7.185,0.313-10.798c-0.525-2.425-1.122-4.838-1.792-7.228
				c-0.637-2.27-1.235-4.577-2.161-6.733c-1.449-3.374-2.995-6.728-4.805-9.918c-1.969-3.471-4.103-6.881-6.503-10.063
				c-2.282-3.026-4.959-5.763-7.547-8.55c-1.38-1.487-2.837-2.938-4.438-4.176c-2.681-2.074-5.484-3.991-8.271-5.923
				c-2.702-1.874-5.458-3.669-8.661-4.608C147.554,0.804,146.494,0.53,145.439,0.24z"/>
			<path style="fill-rule:evenodd;clip-rule:evenodd;" d="M145.439,0.24c1.055,0.29,2.114,0.563,3.164,0.872
				c3.203,0.939,5.959,2.734,8.661,4.608c2.786,1.932,5.59,3.849,8.271,5.923c1.601,1.238,3.058,2.689,4.438,4.176
				c2.588,2.787,5.265,5.523,7.547,8.55c2.4,3.182,4.534,6.593,6.503,10.063c1.81,3.19,3.355,6.544,4.805,9.918
				c0.926,2.157,1.524,4.463,2.161,6.733c0.67,2.389,1.267,4.803,1.792,7.228c0.783,3.614,1.086,7.22-0.313,10.798
				c-0.78,1.997-2.513,2.646-4.276,3.125c-2.907,0.791-5.854,1.457-8.813,2.033c-4.799,0.934-9.64,1.663-14.429,2.64
				c-6.501,1.327-12.972,2.806-19.455,4.219c-4.644,1.012-9.286,2.032-13.933,3.029c-4.161,0.892-8.215,2.162-12.069,3.93
				c-3.637,1.669-7.126,3.661-10.691,5.489c-1.557,0.798-3.142,1.542-4.753,2.329c1.94,3.747,4.475,6.935,7.757,9.591
				c4.958,4.012,10.427,7.173,16.086,10.036c3.195,1.618,6.47,3.082,9.646,4.733c4.13,2.146,8.091,4.592,11.701,7.536
				c2.407,1.963,4.813,3.977,6.92,6.246c2.199,2.368,4.092,5.031,6.018,7.641c1.347,1.823,2.443,3.831,3.805,5.642
				c0.931,1.237,0.444,2.321-0.065,3.381c-0.383,0.796-1.028,1.484-1.631,2.154c-1.804,2.005-3.521,4.112-5.501,5.931
				c-2.554,2.344-5.24,4.567-8.033,6.619c-3.087,2.27-6.364,4.279-9.55,6.416c-2.938,1.97-5.806,4.052-8.813,5.911
				c-2.715,1.68-5.537,3.198-8.381,4.654c-3.214,1.646-6.499,3.151-9.766,4.692c-0.559,0.264-1.177,0.4-1.819,0.612
				c-0.821-1.329-1.584-2.658-2.437-3.925c-1.727-2.564-3.409-5.165-5.28-7.621c-2.317-3.043-4.88-5.938-7.973-8.181
				c-3.986-2.889-8.114-5.613-12.364-8.096c-3.559-2.079-7.383-3.703-11.084-5.54c-5.17-2.566-10.085-5.563-14.698-9.024
				c-2.804-2.104-5.18-4.667-7.218-7.527c-1.022-1.435-2.028-2.882-3.005-4.348c-0.38-0.571-0.661-1.208-1.009-1.855
				c-1.842,1.145-3.703,2.254-5.515,3.439c-3.169,2.076-6.346,4.146-9.439,6.331c-1.063,0.751-1.776,1.593-1.781,3.34
				c-0.013,5.139-1.986,9.672-5.805,13.216c-1.78,1.651-4.64,1.223-6.082-0.763c-2.9-3.992-5.755-8.017-8.621-12.033
				c-2.365-3.316-4.714-6.645-7.079-9.961c-0.922-1.294-0.59-3.189,0.73-4.671c1.272-1.428,2.951-2.103,4.704-2.521
				c3.387-0.811,6.798-0.837,10.165,0.204c0.476,0.147,1.011,0.251,1.386,0.545c0.88,0.688,1.503,0.213,2.179-0.305
				c2.649-2.027,5.333-4.01,7.951-6.076c3.029-2.388,5.984-4.869,9.006-7.266c1.937-1.535,3.961-2.96,5.901-4.491
				c2.211-1.747,4.34-3.598,6.563-5.33c2.895-2.258,5.88-4.4,8.764-6.673c3.128-2.465,6.167-5.043,9.277-7.533
				c2.514-2.013,5.1-3.938,7.61-5.956c3.052-2.454,6.082-4.936,9.072-7.463c1.487-1.256,2.854-2.652,4.294-3.965
				c2.547-2.324,5.193-4.547,7.636-6.976c2.132-2.12,4.091-4.423,6.032-6.724c1.378-1.634,2.693-3.337,3.869-5.12
				c1.626-2.467,3.096-5.038,4.63-7.565c3.652-6.016,7.3-12.034,10.956-18.046c1.378-2.267,2.821-4.495,4.15-6.789
				c1.784-3.078,3.451-6.224,5.237-9.301c1.138-1.959,2.408-3.842,3.605-5.768c0.757-1.215,1.454-2.469,2.243-3.664
				c1.011-1.531,2.188-2.9,4.044-3.457C143.84,0.24,144.64,0.24,145.439,0.24z M59.016,135.008c0.582,0.492,1.224,0.944,1.757,1.501
				c2.931,3.064,6.473,5.351,10.081,7.44c4.656,2.696,9.548,4.981,14.318,7.483c2.93,1.536,5.874,3.06,8.712,4.755
				c2.145,1.281,4.207,2.732,6.171,4.278c2.174,1.711,4.336,3.481,6.254,5.467c3.395,3.514,6.343,7.406,8.968,11.539
				c0.147,0.231,0.774,0.42,1.001,0.299c3.101-1.664,6.19-3.348,9.237-5.106c1.991-1.148,3.918-2.41,5.857-3.647
				c4.165-2.656,8.37-5.257,12.463-8.023c2.616-1.77,5.159-3.682,7.553-5.74c2.32-1.994,4.432-4.236,6.569-6.434
				c0.256-0.264,0.31-1.054,0.105-1.378c-0.855-1.355-1.813-2.651-2.793-3.922c-1.256-1.625-2.465-3.305-3.881-4.783
				c-2.986-3.118-6.241-5.941-9.94-8.21c-2.9-1.779-5.734-3.681-8.716-5.309c-2.831-1.546-5.835-2.771-8.73-4.203
				c-4.957-2.451-9.765-5.164-14.212-8.471c-2.541-1.889-5.072-3.796-7.021-6.413c-0.254,0.186-0.554,0.374-0.818,0.603
				c-1.713,1.479-3.433,2.949-5.123,4.453c-4.621,4.11-9.605,7.703-15.042,10.664c-0.757,0.412-1.458,0.927-2.199,1.372
				c-3.294,1.981-6.563,4.008-9.899,5.918C66.251,131.11,62.747,132.964,59.016,135.008z M174.059,67.949
				c-5.051-21.405-16.004-38.448-35.416-49.599c-1.163,2.105-2.19,4.088-3.33,6.003c-1.746,2.933-3.598,5.802-5.354,8.729
				c-2.84,4.733-5.62,9.501-8.461,14.233c-1.878,3.127-3.751,6.261-5.754,9.308c-1.572,2.392-3.273,4.708-5.042,6.959
				c-1.319,1.68-2.791,3.249-4.282,4.783c-1.763,1.814-3.645,3.512-5.428,5.306c-1.593,1.603-3.122,3.27-4.742,4.974
				c3.014,2.58,5.402,5.706,6.538,9.554c1.671-0.769,3.27-1.443,4.813-2.227c2.827-1.435,5.594-2.992,8.44-4.385
				c1.711-0.837,3.479-1.624,5.305-2.147c3.818-1.096,7.677-2.063,11.544-2.974c4.996-1.177,10.009-2.282,15.029-3.352
				c3.503-0.746,7.032-1.373,10.547-2.067c2.847-0.562,5.688-1.148,8.534-1.715C169.291,68.878,171.584,68.435,174.059,67.949z
				 M142.628,11.945c0.091,0.083,0.171,0.174,0.268,0.241c3.042,2.087,6.169,4.062,9.099,6.294c2.174,1.656,4.101,3.637,6.124,5.488
				c3.361,3.077,6.291,6.538,8.972,10.212c3.234,4.434,5.974,9.158,8.205,14.172c0.863,1.94,1.87,3.839,2.508,5.853
				c1.073,3.386,1.906,6.849,2.837,10.28c0.493,1.815,0.491,1.817,2.326,1.505c0.472-0.08,0.947-0.149,1.41-0.264
				c1.645-0.406,2.215-1.13,1.857-2.775c-0.846-3.897-1.519-7.865-2.773-11.634c-2.001-6.015-4.585-11.812-8.185-17.089
				c-1.915-2.807-3.634-5.787-5.835-8.352c-2.659-3.098-5.549-6.062-8.683-8.671c-3.054-2.543-6.503-4.626-9.855-6.792
				c-1.466-0.947-3.105-1.639-4.71-2.346c-0.376-0.166-1.184-0.095-1.363,0.164C144.013,9.409,143.351,10.692,142.628,11.945z
				 M53.103,119.097c1.017-0.647,2.119-1.356,3.23-2.053c6.143-3.846,12.285-7.693,18.433-11.531
				c2.395-1.495,4.806-2.963,7.206-4.45c4.265-2.642,8.524-5.291,12.79-7.931c0.771-0.478,1.027-1.12,0.568-1.916
				c-0.961-1.667-1.874-3.375-2.989-4.936c-0.587-0.822-1.529-1.412-2.376-2.017c-0.231-0.165-0.808-0.146-1.037,0.032
				c-1.85,1.44-3.667,2.922-5.469,4.422c-2.323,1.933-4.607,3.913-6.938,5.838c-2.265,1.871-4.57,3.691-6.849,5.543
				c-3.766,3.062-7.511,6.148-11.292,9.191c-2.62,2.109-5.283,4.163-7.715,6.075C51.499,116.641,52.273,117.827,53.103,119.097z
				 M98.454,100.466c-0.32-0.801-0.563-1.248-1.466-0.636c-1.833,1.244-3.758,2.352-5.63,3.541
				c-4.417,2.803-8.826,5.618-13.234,8.434c-3.58,2.288-7.151,4.59-10.731,6.878c-2.482,1.587-4.973,3.161-7.458,4.743
				c-2.133,1.356-4.263,2.717-6.488,4.136c0.443,0.52,0.795,0.932,1.221,1.431c5.387-3.16,10.713-6.288,16.043-9.411
				c3.242-1.899,6.566-3.67,9.712-5.717c3.512-2.283,6.904-4.758,10.271-7.254C93.339,104.648,95.864,102.526,98.454,100.466z
				 M23.895,144.703c-0.359-2.66-0.964-4.652-2.372-6.506c-2.142-2.821-4.942-3.835-8.289-3.796
				c-0.366,0.004-0.806,0.284-1.057,0.571c-0.111,0.127,0.095,0.642,0.275,0.896c1.7,2.39,3.427,4.76,5.143,7.138
				c1.208,1.674,2.401,3.358,3.625,5.021c0.315,0.428,0.856,0.92,1.22,0.21C23.075,147,23.511,145.661,23.895,144.703z
				 M43.903,120.5c-5.893,4.371-11.705,8.683-17.445,12.94c0.571,0.866,1.064,1.615,1.612,2.447
				c1.633-1.157,3.254-2.338,4.908-3.472c3.97-2.72,7.941-5.439,11.946-8.108c0.946-0.631,0.886-1.31,0.371-2.081
				C44.881,121.609,44.361,121.063,43.903,120.5z"/>
			<path style="fill-rule:evenodd;clip-rule:evenodd;fill:none;" d="M59.016,135.008c3.731-2.044,7.236-3.897,10.674-5.867
				c3.335-1.91,6.604-3.937,9.899-5.918c0.74-0.445,1.441-0.96,2.199-1.372c5.437-2.961,10.421-6.554,15.042-10.664
				c1.69-1.504,3.41-2.975,5.123-4.453c0.265-0.229,0.564-0.417,0.818-0.603c1.948,2.617,4.479,4.524,7.021,6.413
				c4.447,3.307,9.255,6.02,14.212,8.471c2.896,1.432,5.899,2.657,8.73,4.203c2.981,1.628,5.815,3.529,8.716,5.309
				c3.699,2.269,6.954,5.092,9.94,8.21c1.416,1.479,2.625,3.158,3.881,4.783c0.98,1.271,1.938,2.566,2.793,3.922
				c0.204,0.324,0.15,1.114-0.105,1.378c-2.138,2.197-4.249,4.439-6.569,6.434c-2.394,2.059-4.937,3.971-7.553,5.74
				c-4.093,2.767-8.298,5.367-12.463,8.023c-1.939,1.237-3.866,2.499-5.857,3.647c-3.047,1.759-6.137,3.442-9.237,5.106
				c-0.227,0.121-0.854-0.067-1.001-0.299c-2.625-4.133-5.573-8.025-8.968-11.539c-1.918-1.985-4.08-3.756-6.254-5.467
				c-1.965-1.546-4.026-2.997-6.171-4.278c-2.838-1.695-5.782-3.219-8.712-4.755c-4.77-2.502-9.662-4.787-14.318-7.483
				c-3.608-2.09-7.15-4.376-10.081-7.44C60.24,135.952,59.598,135.5,59.016,135.008z"/>
			<path style="fill-rule:evenodd;clip-rule:evenodd;fill:none;" d="M174.059,67.949c-2.475,0.485-4.768,0.929-7.058,1.385
				c-2.846,0.567-5.688,1.153-8.534,1.715c-3.515,0.694-7.044,1.321-10.547,2.067c-5.021,1.069-10.033,2.175-15.029,3.352
				c-3.867,0.911-7.726,1.877-11.544,2.974c-1.825,0.523-3.594,1.31-5.305,2.147c-2.847,1.393-5.613,2.95-8.44,4.385
				c-1.544,0.783-3.143,1.458-4.813,2.227c-1.136-3.848-3.524-6.975-6.538-9.554c1.62-1.704,3.149-3.371,4.742-4.974
				c1.783-1.794,3.665-3.492,5.428-5.306c1.491-1.534,2.963-3.103,4.282-4.783c1.769-2.251,3.47-4.567,5.042-6.959
				c2.003-3.047,3.876-6.181,5.754-9.308c2.841-4.732,5.621-9.5,8.461-14.233c1.756-2.927,3.607-5.796,5.354-8.729
				c1.14-1.916,2.167-3.898,3.33-6.003C158.055,29.501,169.008,46.544,174.059,67.949z"/>
			<path style="fill-rule:evenodd;clip-rule:evenodd;fill:none;" d="M142.628,11.945c0.723-1.253,1.385-2.537,2.201-3.713
				c0.18-0.259,0.987-0.33,1.363-0.164c1.604,0.707,3.244,1.399,4.71,2.346c3.353,2.165,6.802,4.248,9.855,6.792
				c3.134,2.61,6.023,5.573,8.683,8.671c2.201,2.565,3.92,5.545,5.835,8.352c3.6,5.277,6.184,11.074,8.185,17.089
				c1.255,3.769,1.928,7.737,2.773,11.634c0.357,1.645-0.213,2.369-1.857,2.775c-0.463,0.115-0.938,0.184-1.41,0.264
				c-1.835,0.312-1.833,0.31-2.326-1.505c-0.931-3.431-1.764-6.894-2.837-10.28c-0.638-2.014-1.645-3.912-2.508-5.853
				c-2.231-5.015-4.971-9.738-8.205-14.172c-2.681-3.675-5.61-7.135-8.972-10.212c-2.023-1.852-3.95-3.832-6.124-5.488
				c-2.93-2.232-6.057-4.207-9.099-6.294C142.799,12.119,142.719,12.028,142.628,11.945z"/>
			<path style="fill-rule:evenodd;clip-rule:evenodd;fill:none;" d="M53.103,119.097c-0.829-1.27-1.604-2.456-2.438-3.731
				c2.432-1.912,5.095-3.966,7.715-6.075c3.78-3.043,7.526-6.13,11.292-9.191c2.279-1.853,4.584-3.673,6.849-5.543
				c2.33-1.925,4.614-3.905,6.938-5.838c1.802-1.5,3.62-2.982,5.469-4.422c0.229-0.178,0.806-0.197,1.037-0.032
				c0.847,0.604,1.789,1.194,2.376,2.017c1.115,1.561,2.028,3.269,2.989,4.936c0.459,0.796,0.203,1.438-0.568,1.916
				c-4.265,2.64-8.525,5.289-12.79,7.931c-2.399,1.487-4.811,2.955-7.206,4.45c-6.148,3.838-12.29,7.686-18.433,11.531
				C55.222,117.74,54.12,118.449,53.103,119.097z"/>
			<path style="fill-rule:evenodd;clip-rule:evenodd;fill:none;" d="M98.454,100.466c-2.59,2.06-5.115,4.183-7.76,6.145
				c-3.366,2.496-6.759,4.971-10.271,7.254c-3.146,2.047-6.471,3.817-9.712,5.717c-5.33,3.123-10.656,6.251-16.043,9.411
				c-0.426-0.499-0.778-0.911-1.221-1.431c2.225-1.419,4.355-2.779,6.488-4.136c2.485-1.582,4.976-3.156,7.458-4.743
				c3.58-2.288,7.151-4.59,10.731-6.878c4.408-2.816,8.817-5.631,13.234-8.434c1.872-1.188,3.796-2.296,5.63-3.541
				C97.891,99.218,98.134,99.665,98.454,100.466z"/>
			<path style="fill-rule:evenodd;clip-rule:evenodd;fill:none;" d="M23.895,144.703c-0.384,0.958-0.819,2.297-1.454,3.533
				c-0.364,0.71-0.905,0.218-1.22-0.21c-1.224-1.662-2.417-3.347-3.625-5.021c-1.716-2.378-3.443-4.748-5.143-7.138
				c-0.181-0.254-0.386-0.769-0.275-0.896c0.25-0.287,0.69-0.567,1.057-0.571c3.347-0.039,6.147,0.975,8.289,3.796
				C22.931,140.051,23.536,142.043,23.895,144.703z"/>
			<path style="fill-rule:evenodd;clip-rule:evenodd;fill:none;" d="M43.903,120.5c0.458,0.563,0.978,1.109,1.392,1.727
				c0.516,0.771,0.576,1.45-0.371,2.081c-4.005,2.669-7.976,5.389-11.946,8.108c-1.654,1.134-3.275,2.314-4.908,3.472
				c-0.548-0.832-1.041-1.581-1.612-2.447C32.198,129.183,38.01,124.871,43.903,120.5z"/>
		</g>
	</g>
</g>
<g id="nyt_x5F_exporter_x5F_info" style="display:none;">
	<text transform="matrix(1 0 0 1 -382.9199 384.04)" style="display:inline;"><tspan x="0" y="0" style="font-family:'MyriadPro-Regular'; font-size:12;">&lt;nyt_prefs&gt;</tspan><tspan x="0" y="14.4" style="font-family:'MyriadPro-Regular'; font-size:12;">  &lt;nyt_prefix&gt;&lt;/nyt_prefix&gt;</tspan><tspan x="0" y="28.8" style="font-family:'MyriadPro-Regular'; font-size:12;">  &lt;nyt_suffix&gt;&lt;/nyt_suffix&gt;</tspan><tspan x="0" y="43.2" style="font-family:'MyriadPro-Regular'; font-size:12;">  &lt;nyt_base_path&gt;~/Desktop&lt;/nyt_base_path&gt;</tspan><tspan x="0" y="57.6" style="font-family:'MyriadPro-Regular'; font-size:12;">  &lt;nyt_scaling&gt;100&lt;/nyt_scaling&gt;</tspan><tspan x="0" y="72" style="font-family:'MyriadPro-Regular'; font-size:12;">  &lt;nyt_transparency&gt;true&lt;/nyt_transparency&gt;</tspan><tspan x="0" y="86.4" style="font-family:'MyriadPro-Regular'; font-size:12;">  &lt;nyt_embedImage&gt;true&lt;/nyt_embedImage&gt;</tspan><tspan x="0" y="100.8" style="font-family:'MyriadPro-Regular'; font-size:12;">  &lt;nyt_embedFont&gt;true&lt;/nyt_embedFont&gt;</tspan><tspan x="0" y="115.2" style="font-family:'MyriadPro-Regular'; font-size:12;">  &lt;nyt_trimEdges&gt;false&lt;/nyt_trimEdges&gt;</tspan><tspan x="0" y="129.6" style="font-family:'MyriadPro-Regular'; font-size:12;">  &lt;nyt_innerPadding&gt;false&lt;/nyt_innerPadding&gt;</tspan><tspan x="0" y="144" style="font-family:'MyriadPro-Regular'; font-size:12;">  &lt;nyt_format&gt;SVG&lt;/nyt_format&gt;</tspan><tspan x="0" y="158.4" style="font-family:'MyriadPro-Regular'; font-size:12;">  &lt;nyt_artboards&gt;all&lt;/nyt_artboards&gt;</tspan><tspan x="0" y="172.8" style="font-family:'MyriadPro-Regular'; font-size:12;">  &lt;nyt_layers&gt;all&lt;/nyt_layers&gt;</tspan><tspan x="0" y="187.2" style="font-family:'MyriadPro-Regular'; font-size:12;">  &lt;nyt_exportArtboards&gt;false&lt;/nyt_exportArtboards&gt;</tspan><tspan x="0" y="201.6" style="font-family:'MyriadPro-Regular'; font-size:12;">  &lt;nyt_ignoreWarnings&gt;false&lt;/nyt_ignoreWarnings&gt;</tspan><tspan x="0" y="216" style="font-family:'MyriadPro-Regular'; font-size:12;">&lt;/nyt_prefs&gt;</tspan></text>
</g>
</svg>
