<?xml version="1.0" encoding="UTF-8" standalone="no"?>
<!-- Created with Inkscape (http://www.inkscape.org/) -->

<svg
   xmlns:dc="http://purl.org/dc/elements/1.1/"
   xmlns:cc="http://creativecommons.org/ns#"
   xmlns:rdf="http://www.w3.org/1999/02/22-rdf-syntax-ns#"
   xmlns:svg="http://www.w3.org/2000/svg"
   xmlns="http://www.w3.org/2000/svg"
   xmlns:sodipodi="http://sodipodi.sourceforge.net/DTD/sodipodi-0.dtd"
   xmlns:inkscape="http://www.inkscape.org/namespaces/inkscape"
   width="116.73953mm"
   height="117.0573mm"
   viewBox="0 0 116.73953 117.0573"
   version="1.1"
   id="svg8"
   inkscape:version="0.92.3 (2405546, 2018-03-11)"
   sodipodi:docname="Emblem1.svg">
  <defs
     id="defs2" />
  <sodipodi:namedview
     id="base"
     pagecolor="#ffffff"
     bordercolor="#666666"
     borderopacity="1.0"
     inkscape:pageopacity="0.0"
     inkscape:pageshadow="2"
     inkscape:zoom="1.4"
     inkscape:cx="193.70398"
     inkscape:cy="221.8375"
     inkscape:document-units="mm"
     inkscape:current-layer="layer1"
     showgrid="false"
     fit-margin-top="5"
     fit-margin-left="5"
     fit-margin-right="5"
     fit-margin-bottom="5"
     inkscape:window-width="1920"
     inkscape:window-height="1017"
     inkscape:window-x="1912"
     inkscape:window-y="-8"
     inkscape:window-maximized="1" />
  <metadata
     id="metadata5">
    <rdf:RDF>
      <cc:Work
         rdf:about="">
        <dc:format>image/svg+xml</dc:format>
        <dc:type
           rdf:resource="http://purl.org/dc/dcmitype/StillImage" />
        <dc:title />
      </cc:Work>
    </rdf:RDF>
  </metadata>
  <g
     inkscape:label="Layer 1"
     inkscape:groupmode="layer"
     id="layer1"
     transform="translate(437.85865,32.867341)">
    <g
       id="g6630"
       transform="matrix(0.26458333,0,0,0.26458333,-423.4262,-18.950082)"
       style="stroke:none;stroke-opacity:1">
      <g
         id="Dragon"
         style="stroke:none;stroke-opacity:1">
        <g
           id="g6608"
           style="stroke:none;stroke-opacity:1">
          <g
             id="g6606"
             style="stroke:none;stroke-opacity:1">
            <path
               id="path6594"
               d="m 162,341.04 c -0.24,0 -0.48,0 -0.72,0 -0.028,-0.345 -0.207,-0.776 -0.064,-1.02 2.082,-3.557 4.222,-7.078 6.312,-10.629 0.914,-1.554 1.548,-3.197 1.067,-5.143 -0.248,0 -0.522,-0.035 -0.785,0.005 -4.125,0.634 -8.237,1.367 -12.375,1.891 -3.533,0.447 -7.092,0.81 -10.649,0.93 -3.503,0.118 -7.022,-0.041 -10.527,-0.22 -2.482,-0.128 -4.988,-0.309 -7.418,-0.79 -3.994,-0.792 -7.988,-1.67 -11.887,-2.83 -7.176,-2.135 -13.732,-5.394 -18.666,-11.3 -2.524,-3.021 -3.218,-6.596 -2.575,-10.27 0.712,-4.065 3.108,-7.417 6.2,-10.047 2.123,-1.806 4.626,-3.216 7.099,-4.543 3.089,-1.657 6.336,-3.018 9.486,-4.563 1.982,-0.973 3.83,-2.222 4.661,-4.352 0.386,-0.986 0.24,-2.192 0.28,-3.3 0.151,-4.171 -2.106,-7.041 -5.269,-9.29 -3.122,-2.221 -6.863,-2.923 -10.508,-3.692 -3.627,-0.766 -7.325,-1.191 -10.988,-1.794 -4.132,-0.68 -8.27,-1.333 -12.385,-2.104 -3.604,-0.676 -7.194,-1.439 -10.764,-2.275 -2.463,-0.577 -4.882,-1.346 -7.323,-2.028 -0.127,1.616 -0.329,3.08 -0.314,4.543 0.006,0.57 0.348,1.434 0.792,1.657 3.498,1.76 7.042,2.511 10.726,0.332 3.95,-2.336 8.719,-1.147 11.325,2.65 0.205,0.298 0.736,0.541 1.105,0.528 2.01,-0.075 4.971,2.046 5.234,3.96 0.266,1.933 0,3.801 -1.138,5.48 -0.524,0.773 -0.93,0.744 -1.542,0.075 -0.889,-0.971 -1.873,-1.855 -2.846,-2.807 -1.931,2.837 -5.53,4.401 -9.149,2.37 -0.543,-0.306 -1.155,-0.59 -1.761,-0.658 -0.962,-0.109 -1.945,-0.029 -2.919,-0.029 -0.034,0.16 -0.069,0.32 -0.103,0.48 0.905,0.681 1.799,1.376 2.716,2.039 3.017,2.183 3.832,6.106 1.932,9.245 -0.135,0.224 -0.144,0.573 -0.103,0.847 0.245,1.622 0.011,3.161 -0.684,4.646 -1.154,2.469 -3.438,3.816 -5.426,5.443 -0.607,0.496 -1.55,-0.132 -1.583,-1.012 -0.019,-0.506 0.058,-1.043 0.216,-1.525 0.892,-2.72 0.309,-3.833 -2.402,-4.685 -4.081,-1.282 -6.063,-3.494 -5.213,-8.823 0.437,-2.735 -0.519,-4.429 -3.546,-4.238 0,1.628 -0.086,3.268 0.019,4.895 0.199,3.086 -1.337,4.997 -3.947,6.299 -0.282,0.141 -0.553,0.529 -0.618,0.846 -0.731,3.588 -4.158,6.856 -7.775,7.313 -0.366,0.046 -0.945,-0.066 -1.101,-0.311 -0.155,-0.245 -0.005,-0.813 0.19,-1.128 0.755,-1.217 1.59,-2.384 2.38,-3.58 0.724,-1.097 0.473,-2.403 -0.617,-3.147 -0.485,-0.331 -1.007,-0.612 -1.526,-0.893 -2.492,-1.349 -3.829,-3.86 -3.1,-6.553 0.443,-1.635 1.259,-3.23 2.189,-4.66 2.256,-3.472 1.673,-6.15 -0.341,-9.519 -0.863,-1.442 -1.315,-1.424 -2.578,-0.43 -0.345,0.271 -0.649,0.597 -1.005,0.851 -0.942,0.671 -1.82,1.571 -2.875,1.914 -1.618,0.526 -2.689,-0.74 -3.78,-1.73 -1.029,-0.934 -2.184,-1.421 -3.575,-0.767 -1.42,0.668 -2.641,1.456 -2.69,3.284 -0.011,0.41 -0.408,0.811 -0.628,1.215 -0.346,-0.324 -0.946,-0.614 -0.994,-0.979 -0.219,-1.646 -0.528,-3.339 -0.347,-4.964 0.313,-2.808 2.144,-4.48 4.919,-5.101 0.354,-0.079 0.763,-0.486 0.903,-0.838 0.54,-1.361 1.139,-2.736 2.601,-3.229 1.633,-0.55 3.34,-0.954 5.048,-1.188 1.42,-0.194 1.971,-0.358 2.174,-1.805 0.133,-0.947 -0.181,-1.949 -0.188,-2.927 -0.011,-1.474 -1.023,-1.948 -2.132,-2.515 -3.591,-1.836 -7.134,-3.768 -10.703,-5.648 -0.21,-0.11 -0.539,-0.224 -0.715,-0.137 -2.542,1.26 -4.671,2.984 -5.877,5.624 -0.481,1.054 -0.943,1.257 -1.787,0.457 -0.424,-0.402 -0.81,-0.896 -1.058,-1.422 -1.502,-3.18 -1.51,-6.6 -0.899,-9.898 0.323,-1.745 0.118,-2.71 -1.038,-4.049 -4.869,-5.636 -8.049,-12.113 -8.973,-19.599 -0.04,-0.318 -0.528,-0.763 -0.871,-0.832 -2.273,-0.46 -4.427,0.066 -6.363,1.229 C 0.99,210.79 0.513,210.783 0,210 c 0,-1.2 0,-2.4 0,-3.6 0.075,-0.137 0.198,-0.268 0.218,-0.411 0.673,-4.845 3.63,-7.715 8.021,-9.396 0.371,-0.143 0.763,-0.627 0.859,-1.022 1.302,-5.315 2.993,-10.463 6.43,-14.84 2.156,-2.744 4.404,-5.416 6.669,-8.192 -0.695,-1.522 -1.85,-2.865 -3.648,-3.569 -1.029,-0.403 -2.039,-0.87 -3.093,-1.192 -0.847,-0.26 -1.051,-0.762 -0.626,-1.414 0.447,-0.686 0.957,-1.471 1.64,-1.84 3.244,-1.752 6.765,-2.145 10.232,-1.041 1.599,0.509 2.915,1.905 4.348,2.892 3.228,-1.323 6.658,-2.891 10.199,-4.144 5.226,-1.848 10.63,-3.02 16.114,-3.885 3.058,-0.482 2.617,0.162 1.862,-2.896 -0.391,-1.583 -1.079,-3.05 -2.606,-3.957 -0.686,-0.407 -1.274,-0.976 -1.908,-1.472 0.036,-0.161 0.071,-0.322 0.106,-0.483 2.068,-0.087 4.185,-0.497 6.193,-0.192 4.157,0.631 7.11,3.104 8.849,6.948 0.263,0.581 0.61,0.694 1.182,0.678 3.676,-0.105 7.352,-0.197 11.029,-0.259 2.109,-0.036 4.219,-0.007 6.544,-0.007 -4.292,-6.547 -8.738,-13.034 -15.151,-17.818 -6.286,-4.689 -13.07,-8.571 -20.617,-11.8 1.684,-0.665 3.081,-1.318 4.54,-1.776 5.953,-1.869 9.992,-5.485 11.057,-11.879 0.194,-1.164 0.429,-2.338 0.447,-3.511 0.041,-2.533 0.327,-5.142 -0.156,-7.588 -1.152,-5.83 -4.086,-10.965 -7.234,-15.919 -1.35,-2.124 -3.203,-3.928 -4.833,-5.872 -1.247,-1.488 -2.376,-3.109 -3.804,-4.399 -0.876,-0.791 -0.826,-1.317 -0.284,-2.08 1.42,-1.999 2.853,-3.987 4.294,-5.971 2.023,-2.785 2.986,-5.907 2.869,-9.331 -0.055,-1.616 -0.175,-3.25 -0.494,-4.83 -0.44,-2.177 -0.842,-4.42 -1.709,-6.442 C 55.418,42.543 52.195,38.251 48.556,34.344 44.493,29.982 40.193,25.84 35.16,22.548 30.683,19.62 26.343,16.463 21.179,14.759 c -0.421,-0.139 -1.044,-0.757 -0.985,-1.02 0.1,-0.443 0.62,-1.031 1.053,-1.119 1.82,-0.37 3.675,-0.81 5.513,-0.79 2.843,0.03 5.699,0.291 8.519,0.68 4.014,0.553 8.043,1.115 11.987,2.02 7.877,1.808 15.322,4.9 22.615,8.316 4.704,2.203 9.324,4.601 13.894,7.073 6.059,3.279 12.012,6.754 18.059,10.054 1.31,0.715 2.828,1.049 4.264,1.564 0.284,-0.572 0.508,-0.99 0.703,-1.421 1.566,-3.456 1.887,-6.905 -0.096,-10.326 -1.9,-3.277 -3.717,-6.607 -5.744,-9.803 -2.042,-3.22 -4.308,-6.297 -6.442,-9.459 -0.206,-0.306 -0.175,-0.771 -0.254,-1.162 0.401,0.001 0.862,-0.127 1.192,0.026 1.143,0.53 2.292,1.078 3.345,1.762 6.601,4.289 12.783,9.144 18.798,14.203 4.032,3.391 7.942,6.929 11.843,10.471 5.413,4.913 10.868,9.787 16.114,14.873 4.559,4.419 8.966,9.008 13.229,13.713 3.501,3.864 6.85,7.891 9.981,12.06 4.175,5.559 8.06,11.335 12.098,16.999 1.961,2.75 3.987,5.453 5.984,8.176 2.387,3.633 5.075,7.112 7.051,10.957 1.261,2.453 1.456,5.475 0.034,8.175 -0.846,1.606 -1.712,3.265 -2.894,4.617 -1.37,1.567 -2.976,3.002 -4.698,4.17 -2.124,1.441 -4.486,0.662 -6.8,0.206 -1.692,-0.334 -3.532,-0.662 -4.855,0.976 -0.568,0.705 -1.035,1.503 -1.475,2.3 -1.873,3.396 -2.503,7.046 -2.374,10.906 0.142,4.236 1.666,7.865 4.676,10.751 4.042,3.875 8.489,7.2 13.898,9.027 1.923,0.65 1.907,0.734 3.166,-0.747 1.018,-1.198 1.461,-2.526 0.857,-4.081 -0.245,-0.629 -0.433,-1.282 -0.658,-1.964 3.411,-0.203 6.966,3.166 7.938,7.334 2.399,-0.901 4.732,-2.158 7.213,-2.606 2.728,-0.493 3.924,-1.915 4.322,-4.41 0.204,-1.276 0.756,-2.604 0.562,-3.815 -0.544,-3.387 -4.779,-6.137 -8.239,-5.638 -0.64,0.092 -1.305,0.013 -2.171,0.013 0.701,-1.316 1.391,-2.385 1.86,-3.543 0.936,-2.304 2.772,-3.43 5.024,-3.945 1.377,-0.314 1.731,-1.152 1.662,-2.351 -0.03,-0.539 -0.104,-1.11 -0.319,-1.596 -0.699,-1.587 -1.525,-3.12 -2.203,-4.716 -0.641,-1.51 -1.668,-2.689 -2.884,-3.725 -1.926,-1.64 -5.576,-2.633 -8.01,-0.651 -0.199,0.162 -0.463,0.243 -0.695,0.362 -1.114,-2.217 -0.652,-5.146 0.953,-7.492 1.541,-2.251 1.763,-4.438 0.695,-6.893 -1.881,-4.322 -3.688,-8.675 -5.568,-12.998 -0.162,-0.372 -0.616,-0.827 -0.976,-0.865 -1.676,-0.18 -3.254,0.046 -4.328,1.598 -0.186,0.268 -0.508,0.44 -0.767,0.657 -0.142,-0.673 -0.359,-1.34 -0.41,-2.021 -0.18,-2.378 0.332,-4.585 1.857,-6.476 1.051,-1.302 1.546,-2.746 1.302,-4.417 -0.073,-0.505 -0.154,-1.01 -0.238,-1.514 -0.399,-2.374 -0.704,-4.769 -1.231,-7.113 -0.465,-2.065 -2.573,-3.675 -4.646,-3.509 -1.271,0.102 -2.506,0.666 -3.977,1.085 0,-0.494 -0.146,-1.221 0.023,-1.866 1.015,-3.881 3.956,-6.115 7.411,-7.292 3.357,-1.145 4.666,-3.58 5.754,-6.493 -3.392,-1.482 -6.934,-2.121 -10.604,-1.799 -1.882,0.165 -3.743,0.586 -5.605,0.935 -0.997,0.187 -1.651,-0.075 -1.758,-1.151 -0.112,-1.147 -0.069,-2.318 -0.274,-3.446 -0.216,-1.181 -0.385,-2.5 -1.032,-3.445 -1.617,-2.358 -4.004,-3.903 -6.561,-5.1 -3.579,-1.674 -7.468,-2.03 -11.333,-2.47 -0.489,-0.055 -1.289,-0.344 -1.338,-0.629 -0.083,-0.482 0.171,-1.21 0.543,-1.548 0.846,-0.767 1.788,-1.481 2.803,-1.995 1.574,-0.797 3.241,-1.409 4.93,-2.125 -0.149,-0.08 -0.237,-0.134 -0.33,-0.175 -0.178,-0.077 -0.355,-0.156 -0.539,-0.218 -5.328,-1.797 -9.854,-4.849 -13.72,-8.886 -3.122,-3.261 -4.691,-7.31 -5.806,-11.611 -1.103,-4.255 -2.269,-8.512 -5.189,-11.997 -0.099,-0.119 -0.046,-0.365 -0.077,-0.683 0.906,0 1.76,-0.112 2.569,0.03 0.91,0.159 1.963,0.323 2.639,0.873 4.565,3.718 9.002,7.595 13.572,11.308 3.268,2.655 6.81,4.939 10.92,6.065 2.851,0.781 5.759,1.38 8.67,1.902 1.849,0.331 3.749,0.371 5.886,0.565 -0.289,-0.333 -0.382,-0.448 -0.482,-0.555 -1.015,-1.075 -2.088,-2.102 -3.015,-3.248 -0.319,-0.395 -0.512,-1.191 -0.322,-1.601 0.142,-0.307 0.992,-0.409 1.521,-0.392 1.719,0.055 3.435,0.206 5.151,0.321 -2.872,-2.418 -5.456,-4.921 -7.202,-8.058 -2.346,-4.214 -4.382,-8.599 -6.552,-12.91 0.4,0 0.801,0 1.2,0 3.522,1.602 7.095,3.104 10.55,4.84 2.39,1.2 4.72,2.58 6.893,4.136 2.629,1.882 5.047,4.057 7.589,6.064 4.954,3.913 9.119,8.477 11.915,14.202 0.19,0.389 0.541,0.803 0.922,0.98 1.785,0.83 3.606,1.581 5.475,2.385 3.146,-3.159 7.273,-4.651 11.775,-6.282 -2.252,-1.797 -4.271,-3.391 -6.264,-5.019 -0.274,-0.224 -0.412,-0.616 -0.613,-0.93 0.322,-0.152 0.64,-0.426 0.967,-0.438 2.811,-0.1 5.623,-0.229 8.434,-0.199 3.395,0.037 6.667,0.719 9.751,2.218 0.402,0.195 0.974,0.205 1.426,0.11 3.519,-0.74 7.006,-1.646 10.544,-2.262 3.066,-0.534 5.265,-0.007 6.353,3.6 0.045,0.151 0.16,0.286 0.184,0.438 0.159,1.052 0.739,1.354 1.809,1.389 3.457,0.114 6.81,-0.553 10.14,-1.277 3.549,-0.771 7.049,-1.769 10.563,-2.696 0.505,-0.133 1.047,-0.237 1.054,-1.049 0.022,-2.561 -0.534,-4.926 -2.024,-7.043 -0.563,-0.799 -1.08,-1.63 -1.619,-2.446 0.045,-0.144 0.088,-0.287 0.132,-0.429 1.472,0.091 2.99,-0.018 4.407,0.31 5.333,1.234 8.891,4.87 8.893,10.561 10e-4,0.957 0.243,1.51 1.134,1.899 1.155,0.504 2.23,1.191 3.378,1.717 2.813,1.288 4.051,3.538 4.155,6.538 0.176,4.988 -0.794,9.629 -4.194,13.489 -1.277,1.448 -2.639,2.852 -4.909,2.98 -0.172,-1.215 -0.387,-2.342 -0.476,-3.478 -0.078,-0.995 -0.492,-1.424 -1.511,-1.361 -0.992,0.061 -1.991,0.013 -2.959,0.013 -0.687,2.214 -0.906,2.518 -2.996,4.188 -1.563,1.25 -2.595,0.898 -3.108,-0.999 -0.293,-1.085 -0.7,-2.139 -1.059,-3.216 -1.267,0.095 -2.381,0.291 -3.483,0.236 -1.809,-0.09 -3.441,0.326 -5.007,1.203 -1.099,0.615 -2.254,1.128 -3.374,1.707 -2.044,1.055 -4.08,2.124 -6.232,3.246 1.009,-0.047 1.84,-0.156 2.663,-0.112 4.134,0.219 8.275,0.376 12.396,0.756 3.034,0.28 6.042,0.847 9.057,1.324 5.497,0.872 10.971,1.833 16.595,1.304 3.565,-0.335 6.957,-1.185 10.052,-2.932 4.351,-2.457 6.054,-5.202 5.497,-9.404 -0.538,-4.064 -2.543,-7.627 -5.664,-10.428 -1.078,-0.967 -2.22,-1.863 -3.332,-2.792 0.496,-0.309 0.938,-0.448 1.303,-0.336 1.092,0.335 2.228,0.638 3.214,1.19 2.237,1.255 4.401,2.643 6.585,3.995 3.898,2.415 9.126,0.583 10.438,-3.853 0.553,-1.869 0.776,-3.925 0.681,-5.873 -0.108,-2.217 -0.742,-4.408 -1.144,-6.61 -0.098,-0.542 -0.177,-1.086 -0.265,-1.629 0.114,-0.016 0.228,-0.032 0.342,-0.048 2.907,4.396 4.035,9.203 2.883,14.41 -0.789,3.562 -2.669,6.664 -4.572,9.741 -0.494,0.799 -0.775,1.781 -0.938,2.716 -0.124,0.712 0.098,1.483 0.161,2.229 0.233,2.747 1.351,5.077 3.419,6.891 1.694,1.486 3.678,2.69 5.176,4.343 4.487,4.948 3.679,12.892 -1.377,17.17 -0.396,0.335 -0.927,0.51 -1.395,0.76 -0.068,-0.102 -0.137,-0.204 -0.204,-0.305 0.452,-1.033 0.929,-2.055 1.352,-3.099 1.085,-2.676 -0.278,-6.189 -2.844,-7.546 -2.935,-1.552 -5.999,-1.465 -9.122,-0.846 -3.153,0.625 -4.599,3.102 -5.73,5.672 -0.835,1.896 1.002,4.383 3.296,5.048 1.925,0.558 3.686,-0.057 5.476,-0.599 0.52,-0.158 1.068,-0.221 1.603,-0.327 0.062,0.118 0.123,0.237 0.185,0.355 -0.227,0.344 -0.423,0.715 -0.686,1.029 -2.847,3.399 -6.766,4.681 -10.933,4.963 -3.188,0.216 -6.421,-0.226 -9.633,-0.406 -3.478,-0.195 -6.761,-1.166 -9.81,-2.805 -3.532,-1.899 -6.986,-3.942 -10.477,-5.92 -3.729,-2.113 -7.469,-4.21 -11.19,-6.338 -5.147,-2.943 -10.64,-4.536 -16.586,-3.841 -2.199,0.257 -4.4,0.92 -6.468,1.735 -1.234,0.487 -2.834,1.055 -3.112,2.663 -0.432,2.496 -0.683,5.025 -0.938,7.547 -0.121,1.195 0.572,2.015 1.542,2.638 1.91,1.227 4.039,0.923 6.005,0.519 1.74,-0.357 3.348,-1.363 5.206,-2.166 0.182,1.104 0.395,2.402 0.655,3.989 1.506,-1.562 2.819,-2.93 4.14,-4.291 0.585,-0.603 1.285,-0.692 1.709,0.055 0.791,1.39 1.494,2.837 2.12,4.309 0.477,1.123 0.972,1.338 1.981,0.591 1.549,-1.145 2.835,-2.499 3.598,-4.319 0.255,-0.608 0.742,-1.118 1.123,-1.673 0.484,0.588 1.146,1.103 1.426,1.776 1.736,4.16 1.824,8.569 1.744,12.98 -0.027,1.488 -0.723,2.468 -2.222,3.156 -2.048,0.939 -2.765,2.875 -1.014,4.711 0.621,0.651 1.356,1.193 2.275,1.991 -0.657,0.208 -1.098,0.441 -1.553,0.473 -1.866,0.129 -3.456,-0.704 -5.01,-1.583 -1.321,-0.748 -2.608,-1.558 -4.008,-2.399 -0.268,0.979 -0.56,1.723 -0.662,2.492 -0.156,1.174 -0.106,2.377 -0.298,3.542 -0.087,0.529 -0.458,1.102 -0.874,1.442 -0.164,0.134 -0.869,-0.229 -1.211,-0.508 -0.896,-0.731 -1.839,-1.449 -2.561,-2.336 -1.874,-2.308 -3.61,-4.721 -4.636,-7.563 -0.1,-0.277 -0.266,-0.638 -0.499,-0.743 -1.182,-0.533 -2.355,-1.191 -3.605,-1.44 -2.713,-0.541 -5.461,-0.937 -8.211,-1.249 -3.461,-0.393 -6.935,-0.74 -10.412,-0.923 -2.669,-0.141 -5.354,0 -8.027,0.017 0,0.577 -0.025,0.818 0.007,1.053 0.031,0.232 0.128,0.455 0.183,0.685 0.698,2.921 2.435,5.25 4.365,7.43 3.329,3.759 7.272,6.779 11.53,9.425 8.002,4.975 15.363,10.691 21.31,18.117 7.377,9.214 10.909,19.758 11.353,31.457 0.029,0.772 0.355,1.619 0.783,2.275 1.697,2.604 3.264,5.29 3.959,8.325 0.758,3.311 1.229,6.688 1.821,10.018 0.554,-0.126 1.416,-0.263 2.24,-0.523 2.328,-0.735 4.831,-1.183 6.921,-2.356 5.092,-2.858 7.224,-10.233 5.552,-15.255 -1.463,-4.394 -1.638,-8.679 -0.501,-13.103 0.089,-0.346 -0.035,-0.973 -0.284,-1.143 -1.563,-1.072 -3.116,-2.202 -4.813,-3.021 -1.675,-0.809 -3.39,-1.441 -4.804,-2.749 -2.482,-2.295 -4.073,-6.847 -2.987,-9.998 0.568,-1.649 0.573,-2.949 -0.008,-4.58 -1.017,-2.85 0.532,-5.075 2.909,-6.405 0.335,-0.188 0.884,0.006 1.333,0.023 -0.074,0.396 -0.061,0.837 -0.238,1.18 -0.688,1.33 -0.113,3.777 1.181,4.572 0.875,0.538 1.78,1.05 2.727,1.443 2.569,1.065 3.616,2.531 3.618,5.246 10e-4,0.977 0,1.954 0,2.918 1.118,0.125 1.984,0.012 2.381,-0.965 0.402,-0.993 0.47,-1.963 -0.355,-2.872 -0.554,-0.61 -1.05,-1.314 -1.402,-2.057 -0.744,-1.569 -1.374,-3.192 -2.057,-4.791 -0.81,-1.895 -1.302,-3.812 -0.781,-5.9 0.791,-3.177 2.479,-5.547 5.69,-6.616 0.598,-0.199 0.759,-0.553 0.887,-1.188 0.423,-2.096 1.155,-4.115 3.317,-5.037 1.292,-0.55 2.677,-0.999 4.061,-1.185 1.1,-0.148 2.278,0.091 3.39,0.316 0.646,0.13 1.223,0.723 0.879,1.418 -0.2,0.406 -0.879,0.732 -1.382,0.802 -1.773,0.246 -3.75,2.282 -3.735,3.586 1.271,0.992 2.396,1.768 3.401,2.676 2.551,2.306 3.001,5.358 2.229,8.421 -0.549,2.172 -1.711,4.254 -2.91,6.182 -1.624,2.609 -1.282,4.991 0.135,7.464 0.511,0.891 1.198,1.461 2.219,1.174 0.962,-0.271 1.126,-1.174 1.336,-2.061 0.532,-2.253 1.026,-4.533 1.813,-6.7 0.473,-1.299 1.6,-2.294 3.023,-2.678 1.062,-0.286 2.166,-0.411 3.246,-0.607 0.755,-3.536 4.622,-3.647 6.629,-2.302 0.537,0.36 1.034,0.894 1.334,1.461 0.39,0.736 -0.114,1.359 -0.896,1.091 -1.134,-0.39 -1.711,-0.002 -2.089,1.019 -0.146,0.395 -0.374,0.759 -0.507,1.023 1.95,2.908 2.218,5.762 0.706,8.851 -1.437,2.935 -3.78,4.91 -6.539,6.396 -3.32,1.788 -4.678,4.948 -5.708,8.171 -0.884,2.763 -1.235,5.719 -1.595,8.618 -0.303,2.442 -0.361,4.925 -0.339,7.388 0.006,0.62 0.603,1.469 1.169,1.793 0.852,0.488 1.45,-0.231 1.873,-0.982 0.328,-0.585 0.679,-1.158 1.032,-1.729 0.819,-1.326 1.883,-2.361 3.456,-2.711 1.247,-0.278 2.396,0.016 3.34,0.788 1.718,-1.47 1.252,-3.089 0.525,-4.729 -0.097,-0.218 -0.288,-0.418 -0.313,-0.641 -0.047,-0.41 -0.154,-0.946 0.049,-1.211 0.195,-0.256 0.779,-0.385 1.144,-0.315 1.988,0.384 3.496,1.72 4.286,3.368 2.049,4.278 1.81,8.461 -2.926,11.298 -0.217,0.131 -0.434,0.415 -0.479,0.659 -0.438,2.377 -1.243,4.574 -2.895,6.403 -1.938,2.145 -4.572,2.964 -7.236,3.159 -1.865,0.136 -3.824,-0.552 -5.692,-1.053 -2.131,-0.571 -2.57,-0.51 -3.837,1.316 -0.271,0.391 -0.484,0.822 -0.726,1.234 -1.079,1.849 -2.006,3.81 -3.271,5.521 -2.557,3.456 -5.254,6.812 -7.992,10.128 -0.717,0.867 -0.446,1.662 -0.438,2.549 0.021,2.141 0.269,4.342 -0.136,6.407 -0.555,2.831 -1.563,5.581 -2.499,8.324 -0.77,2.256 -1.688,4.468 -3.459,6.182 -0.389,0.377 -0.771,0.761 -1.382,1.365 -0.04,-4.729 -1.324,-8.736 -2.921,-12.675 -0.663,-1.635 -1.705,-2.883 -3.11,-3.688 -1.057,2.78 -2.038,5.527 -3.14,8.225 -1.365,3.345 -3.4,6.173 -6.647,7.965 -0.222,0.121 -0.467,0.199 -0.832,0.354 0.304,-1.587 0.672,-3.005 0.829,-4.445 0.23,-2.106 1.215,-4.125 0.66,-6.33 -0.338,-1.345 -0.444,-2.773 -1.634,-3.716 -0.754,-0.597 -1.424,-0.906 -2.355,-0.006 -1.212,1.171 -2.545,2.368 -4.054,3.048 -2.831,1.274 -5.826,2.184 -8.751,3.251 -0.207,0.075 -0.449,0.155 -0.582,0.312 -1.49,1.757 -2.991,3.507 -4.43,5.307 -0.965,1.209 -1.964,2.466 -1.717,4.166 0.272,1.877 0.605,3.747 0.956,5.612 0.797,4.229 1.381,8.557 3.832,12.236 2.178,3.269 4.504,6.442 6.87,9.579 2.431,3.223 4.597,6.55 5.728,10.487 0.182,0.632 0.92,1.36 1.554,1.559 2.506,0.785 5.087,0.813 7.644,0.161 0.48,-0.123 0.937,-0.415 1.354,-0.701 1.374,-0.941 2.719,-1.926 4.088,-2.873 1.444,-0.999 3.149,-1.647 4.797,-1.345 1.636,0.301 3.144,1.305 4.909,2.091 -0.094,0.059 0.094,-0.101 0.31,-0.188 3.934,-1.587 6.647,-1.265 8.823,2.689 1.144,2.077 1.007,4.177 0.468,6.329 -0.104,0.418 -0.426,0.782 -0.646,1.172 -0.291,-0.283 -0.598,-0.55 -0.868,-0.851 -1.266,-1.405 -2.358,-3.047 -4.668,-2.719 -1.501,0.213 -1.669,0.271 -1.602,1.742 0.115,2.495 -0.889,4.547 -2.667,6.133 -0.761,0.678 -2.011,1.267 -2.966,1.171 -1.958,-0.195 -3.88,-0.833 -5.793,-1.377 -1.941,-0.552 -3.864,-0.022 -4.946,1.593 -0.194,0.289 -0.172,0.973 0.042,1.239 0.647,0.806 1.361,1.601 2.189,2.21 2.244,1.648 3.703,3.631 4.031,6.538 0.352,3.11 -0.155,5.882 -1.926,8.46 -0.323,0.471 -0.605,1.181 -0.5,1.697 0.407,1.994 0.196,3.845 -0.777,5.632 -1.51,2.774 -3.542,4.862 -6.86,5.23 -0.424,0.047 -0.882,-0.221 -1.072,-0.272 0.678,-1.648 1.364,-3.047 1.827,-4.515 0.501,-1.591 -0.229,-3.446 -1.147,-4.091 -1.744,-1.226 -3.486,-2.485 -5.057,-3.92 -1.366,-1.247 -1.983,-2.942 -1.86,-4.85 0.096,-1.471 0.218,-2.943 0.231,-4.416 0.022,-2.613 -1.823,-4.635 -4.524,-4.946 -0.086,0.36 -0.229,0.73 -0.253,1.107 -0.077,1.195 -0.122,2.393 -0.154,3.589 -0.116,4.293 -2.144,6.759 -6.271,7.635 -0.584,1.951 -1.683,3.529 -3.664,4.081 -2.502,0.696 -5.067,0.842 -7.727,-0.127 3.313,-2.469 3.418,-5.859 2.32,-8.344 -1.434,-3.247 -1.169,-6.124 0.858,-8.956 0.4,-0.56 0.828,-1.226 0.892,-1.877 0.19,-1.978 0.547,-4.032 0.209,-5.945 -0.442,-2.504 -1.846,-4.051 -4.359,-2.327 -0.88,0.604 -1.816,1.135 -2.762,1.633 -2.298,1.21 -5.106,0.844 -6.399,-0.971 -0.576,-0.808 -0.989,-0.548 -1.538,-0.188 -1.322,0.863 -1.68,2.221 -1.883,3.673 -0.185,1.312 -0.718,1.535 -1.779,0.724 -0.363,-0.276 -0.737,-0.685 -0.859,-1.104 -0.385,-1.328 -0.857,-2.68 -0.921,-4.041 -0.117,-2.52 1.501,-4.232 3.194,-5.845 0.234,-0.223 0.546,-0.509 0.567,-0.786 0.245,-3.089 2.027,-4.938 4.862,-5.703 1.595,-0.431 3.311,-0.411 4.993,-0.598 -0.036,-0.066 -0.142,-0.361 -0.324,-0.595 -2.136,-2.722 -4.104,-5.603 -6.473,-8.106 -2.755,-2.913 -5.557,-5.89 -9.785,-6.824 -1.944,-0.43 -2.753,-0.327 -4.033,1.299 -1.505,1.912 -2.298,4.094 -2.425,6.524 -0.016,0.309 -0.093,0.631 -0.217,0.913 -0.4,0.912 -1.138,1.035 -1.72,0.253 -0.517,-0.694 -0.994,-1.43 -1.394,-2.197 -2.079,-3.99 -3.332,-8.23 -3.702,-12.694 -12.56,-1.93 -25.163,-3.206 -37.59,-5.774 0.765,2.44 0.804,4.898 -0.024,7.19 -1.218,3.369 -2.807,6.603 -4.142,9.932 -0.315,0.785 -0.611,1.909 -0.281,2.55 0.652,1.266 1.534,2.646 2.698,3.375 5.101,3.195 10.285,6.268 15.544,9.195 2.976,1.656 5.513,3.656 7,6.746 0.565,1.175 1.142,2.202 2.297,2.902 2.446,1.48 4.928,2.244 7.667,0.813 1.268,-0.663 2.527,-1.344 3.816,-1.962 2.492,-1.196 5.046,-1.558 7.7,-0.498 0.246,0.099 0.662,0.012 0.898,-0.144 1.412,-0.922 2.97,-0.852 4.345,-0.243 1.606,0.711 2.729,2.04 2.849,3.946 0.065,1.048 -0.376,1.418 -1.448,1.263 -0.586,-0.086 -1.171,-0.235 -1.758,-0.244 -0.863,-0.012 -1.427,0.313 -1.354,1.353 0.034,0.489 -0.109,1.032 -0.311,1.49 -0.979,2.236 -2.639,3.36 -5.157,3.16 -1.216,-0.096 -2.405,0.122 -3.427,0.963 1.521,1.135 1.651,1.134 3.323,1.197 1.021,0.039 2.055,0.163 3.051,0.39 2.488,0.563 4,3.234 4.213,5.836 0.105,1.292 0.159,2.449 1.017,3.645 3.05,4.251 0.938,10.347 -4.114,10.633 0.07,-0.477 0.163,-0.937 0.197,-1.4 0.038,-0.518 0.053,-1.041 0.024,-1.559 -0.07,-1.312 -0.729,-2.297 -1.753,-2.368 -0.587,-0.041 -1.211,0.246 -1.799,0.443 -3.143,1.057 -5.661,0.168 -7.331,-2.687 -0.736,-1.26 -1.306,-2.618 -2.025,-3.889 -0.832,-1.467 -2.835,-3.326 -4.632,-2.651 0.112,0.366 0.241,0.733 0.337,1.108 0.422,1.641 1.087,3.312 0.354,4.977 -0.405,0.919 -0.365,1.777 -0.416,2.711 -0.05,0.933 -0.278,2.07 -0.869,2.712 -1.15,1.248 -2.576,2.257 -3.95,3.28 -0.986,0.734 -1.921,0.237 -1.886,-1.012 0.019,-0.686 0.325,-1.371 0.547,-2.041 0.24,-0.724 0.347,-1.519 -0.472,-1.798 -3.086,-1.054 -4.662,-3.237 -5.162,-6.371 -0.308,-1.925 -0.261,-3.849 -1.352,-5.702 -2.074,-3.522 -6.785,-4.609 -9.831,-1.896 -0.628,0.56 -1.141,1.348 -1.464,2.131 -0.911,2.209 -3.827,3.387 -5.985,2.179 -0.823,-0.461 -1.929,-0.771 -2.839,-0.648 -1.841,0.248 -2.43,1.686 -2.525,3.405 -0.02,0.358 -0.334,0.699 -0.512,1.049 -0.357,-0.194 -0.725,-0.373 -1.065,-0.592 -0.122,-0.079 -0.205,-0.249 -0.261,-0.395 -1.254,-3.233 -1.388,-7.482 3.3,-9.176 0,-0.416 0.008,-0.854 -0.001,-1.29 -0.054,-2.604 0.978,-4.512 3.46,-5.549 1.199,-0.5 2.376,-1.062 3.532,-1.655 0.291,-0.148 0.648,-0.535 0.64,-0.803 -0.01,-0.306 -0.33,-0.7 -0.623,-0.883 -3.939,-2.459 -7.905,-4.875 -11.848,-7.328 -4.008,-2.494 -7.972,-5.061 -12.004,-7.514 -3.385,-2.059 -6.842,-3.999 -10.269,-5.989 -0.975,-0.566 -1.837,-1.345 -1.822,-2.484 0.014,-1.076 0.367,-2.172 0.704,-3.217 1.159,-3.588 1.01,-7.228 -0.288,-10.634 -2.039,-5.355 -4.464,-10.563 -6.772,-15.814 -0.593,-1.351 -1.356,-2.627 -2.147,-4.139 -1.295,2.692 -3.073,4.66 -5.146,6.371 -1.444,1.192 -2.908,2.362 -4.385,3.513 -4.954,3.856 -9.697,8.03 -15.466,10.695 -3.119,1.44 -6.238,2.925 -9.477,4.04 -2.071,0.713 -4.361,0.785 -6.529,1.142 3.581,1.234 7.142,2.518 10.738,3.689 6.46,2.104 12.958,4.09 19.41,6.219 6.389,2.109 12.654,4.48 18.547,7.838 5.76,3.28 10.818,7.206 14.595,12.733 3.997,5.848 5.1,12.232 4.125,19.141 -0.398,2.825 -1.655,5.22 -3.629,7.076 -2.569,2.416 -5.445,4.496 -8.65,6.084 -3.87,1.917 -7.708,3.899 -11.522,5.924 -2.658,1.41 -2.322,3.911 -0.063,5.124 2.034,1.093 4.153,2.062 6.312,2.882 5.596,2.128 11.513,2.568 17.404,2.848 4.908,0.234 9.837,0.053 14.757,0.042 0.396,-10e-4 0.793,-0.104 1.486,-0.201 -4.121,-4.542 -7.04,-9.423 -8.518,-14.917 2.878,1.276 5.701,2.851 8.72,3.797 5.526,1.732 11.146,3.193 16.771,4.582 6.063,1.498 12.207,2.72 18.002,5.104 3.983,1.639 7.848,3.571 11.753,5.398 0.379,0.177 0.674,0.534 1.007,0.808 -0.281,0.291 -0.511,0.681 -0.851,0.856 -3.895,2.02 -7.77,4.08 -11.722,5.979 -4.5,2.163 -9.025,4.286 -13.627,6.221 -5.699,2.396 -11.472,4.621 -17.246,6.834 -2.6,0.993 -5.278,1.781 -7.92,2.663 z M 69.388,196.547 c -0.673,-0.224 -1.034,-0.354 -1.401,-0.463 -3.028,-0.903 -6.154,-1.003 -9.275,-1.298 -4.75,-0.448 -9.124,0.572 -13.087,2.995 -4.915,3.005 -6.001,6.21 -5.172,10.606 1.583,8.389 6.996,14.01 14.416,17.962 0.137,-0.393 0.251,-0.684 0.34,-0.982 1.739,-5.838 4.233,-11.325 7.369,-16.556 2.384,-3.979 4.516,-8.111 6.81,-12.264 z"
               style="clip-rule:evenodd;fill-rule:evenodd;stroke:#121212;stroke-opacity:1;fill:none;stroke-width:5.66929141;stroke-miterlimit:4;stroke-dasharray:none;stroke-linejoin:round"
               inkscape:connector-curvature="0" />
            <path
               id="path6596"
               d="m 162,341.04 c 2.642,-0.882 5.32,-1.67 7.919,-2.666 5.774,-2.213 11.546,-4.438 17.246,-6.834 4.602,-1.935 9.127,-4.058 13.627,-6.221 3.952,-1.899 7.827,-3.96 11.722,-5.979 0.34,-0.176 0.569,-0.565 0.851,-0.856 -0.333,-0.273 -0.628,-0.631 -1.007,-0.808 -3.905,-1.827 -7.77,-3.76 -11.753,-5.398 -5.795,-2.384 -11.939,-3.605 -18.002,-5.104 -5.626,-1.389 -11.245,-2.85 -16.771,-4.582 -3.019,-0.946 -5.841,-2.521 -8.72,-3.797 1.479,5.494 4.397,10.375 8.518,14.917 -0.693,0.098 -1.089,0.2 -1.486,0.201 -4.92,0.011 -9.849,0.192 -14.757,-0.042 -5.892,-0.279 -11.809,-0.72 -17.404,-2.848 -2.159,-0.82 -4.277,-1.789 -6.312,-2.882 -2.259,-1.213 -2.595,-3.714 0.063,-5.124 3.814,-2.024 7.652,-4.007 11.522,-5.924 3.205,-1.588 6.081,-3.668 8.65,-6.084 1.974,-1.856 3.23,-4.251 3.629,-7.076 0.975,-6.908 -0.129,-13.293 -4.125,-19.141 -3.777,-5.527 -8.835,-9.453 -14.595,-12.733 -5.893,-3.357 -12.158,-5.729 -18.547,-7.838 -6.452,-2.129 -12.95,-4.115 -19.41,-6.219 -3.596,-1.172 -7.157,-2.455 -10.738,-3.689 2.167,-0.356 4.458,-0.429 6.529,-1.142 3.239,-1.115 6.358,-2.6 9.477,-4.04 5.769,-2.665 10.512,-6.839 15.466,-10.695 1.478,-1.15 2.941,-2.32 4.385,-3.513 2.073,-1.711 3.851,-3.679 5.146,-6.371 0.791,1.512 1.554,2.788 2.147,4.139 2.308,5.251 4.733,10.459 6.772,15.814 1.297,3.406 1.446,7.046 0.288,10.634 -0.337,1.045 -0.689,2.141 -0.704,3.217 -0.015,1.14 0.847,1.918 1.822,2.484 3.426,1.99 6.883,3.931 10.269,5.989 4.033,2.453 7.996,5.02 12.004,7.514 3.943,2.453 7.909,4.869 11.848,7.328 0.293,0.183 0.613,0.577 0.623,0.883 0.008,0.268 -0.35,0.654 -0.64,0.803 -1.156,0.594 -2.333,1.155 -3.532,1.655 -2.482,1.037 -3.514,2.945 -3.46,5.549 0.009,0.437 0.001,0.874 0.001,1.29 -4.688,1.693 -4.554,5.942 -3.3,9.176 0.056,0.146 0.139,0.315 0.261,0.395 0.341,0.219 0.708,0.397 1.065,0.592 0.178,-0.35 0.493,-0.69 0.512,-1.049 0.095,-1.72 0.684,-3.157 2.525,-3.405 0.91,-0.122 2.016,0.188 2.839,0.648 2.158,1.208 5.075,0.03 5.985,-2.179 0.323,-0.783 0.836,-1.571 1.464,-2.131 3.046,-2.714 7.757,-1.627 9.831,1.896 1.091,1.854 1.044,3.777 1.352,5.702 0.5,3.134 2.076,5.317 5.162,6.371 0.818,0.279 0.712,1.074 0.472,1.798 -0.222,0.67 -0.528,1.355 -0.547,2.041 -0.035,1.249 0.899,1.746 1.886,1.012 1.374,-1.023 2.8,-2.032 3.95,-3.28 0.591,-0.642 0.819,-1.779 0.869,-2.712 0.051,-0.934 0.011,-1.792 0.416,-2.711 0.733,-1.665 0.068,-3.336 -0.354,-4.977 -0.096,-0.375 -0.225,-0.742 -0.337,-1.108 1.797,-0.675 3.8,1.185 4.632,2.651 0.72,1.271 1.289,2.629 2.025,3.889 1.67,2.854 4.188,3.743 7.331,2.687 0.588,-0.197 1.212,-0.484 1.799,-0.443 1.024,0.071 1.683,1.057 1.753,2.368 0.028,0.518 0.014,1.041 -0.024,1.559 -0.034,0.464 -0.127,0.924 -0.197,1.4 5.053,-0.286 7.164,-6.382 4.114,-10.633 -0.857,-1.195 -0.911,-2.353 -1.017,-3.645 -0.213,-2.602 -1.725,-5.272 -4.213,-5.836 -0.996,-0.227 -2.029,-0.351 -3.051,-0.39 -1.672,-0.063 -1.802,-0.063 -3.323,-1.197 1.021,-0.841 2.211,-1.059 3.427,-0.963 2.519,0.2 4.179,-0.924 5.157,-3.16 0.201,-0.458 0.345,-1.001 0.311,-1.49 -0.072,-1.04 0.491,-1.364 1.354,-1.353 0.587,0.009 1.172,0.158 1.758,0.244 1.072,0.155 1.514,-0.215 1.448,-1.263 -0.119,-1.906 -1.242,-3.235 -2.849,-3.946 -1.375,-0.608 -2.933,-0.679 -4.345,0.243 -0.236,0.155 -0.652,0.242 -0.898,0.144 -2.654,-1.06 -5.208,-0.698 -7.7,0.498 -1.289,0.618 -2.549,1.299 -3.816,1.962 -2.739,1.432 -5.221,0.668 -7.667,-0.813 -1.155,-0.7 -1.731,-1.728 -2.297,-2.902 -1.487,-3.09 -4.024,-5.09 -7,-6.746 -5.26,-2.928 -10.443,-6 -15.544,-9.195 -1.165,-0.729 -2.046,-2.109 -2.698,-3.375 -0.33,-0.641 -0.034,-1.765 0.281,-2.55 1.335,-3.329 2.924,-6.563 4.142,-9.932 0.828,-2.292 0.789,-4.75 0.024,-7.19 12.427,2.568 25.031,3.845 37.59,5.774 0.37,4.464 1.623,8.704 3.702,12.694 0.399,0.768 0.877,1.503 1.394,2.197 0.582,0.782 1.319,0.659 1.72,-0.253 0.124,-0.282 0.201,-0.604 0.217,-0.913 0.127,-2.431 0.92,-4.612 2.425,-6.524 1.28,-1.626 2.089,-1.729 4.033,-1.299 4.229,0.935 7.03,3.911 9.785,6.824 2.368,2.504 4.337,5.385 6.473,8.106 0.183,0.233 0.288,0.528 0.324,0.595 -1.683,0.187 -3.398,0.167 -4.993,0.598 -2.835,0.765 -4.617,2.614 -4.862,5.703 -0.021,0.277 -0.333,0.563 -0.567,0.786 -1.693,1.612 -3.312,3.325 -3.194,5.845 0.063,1.361 0.536,2.713 0.921,4.041 0.122,0.42 0.496,0.828 0.859,1.104 1.062,0.812 1.595,0.588 1.779,-0.724 0.203,-1.452 0.561,-2.81 1.883,-3.673 0.549,-0.359 0.962,-0.619 1.538,0.188 1.293,1.814 4.102,2.181 6.399,0.971 0.945,-0.498 1.882,-1.029 2.762,-1.633 2.514,-1.724 3.917,-0.177 4.359,2.327 0.338,1.913 -0.019,3.968 -0.209,5.945 -0.063,0.651 -0.491,1.317 -0.892,1.877 -2.027,2.832 -2.292,5.709 -0.858,8.956 1.098,2.484 0.992,5.875 -2.32,8.344 2.659,0.969 5.225,0.823 7.727,0.127 1.981,-0.552 3.08,-2.13 3.664,-4.081 4.127,-0.876 6.154,-3.342 6.271,-7.635 0.032,-1.196 0.077,-2.394 0.154,-3.589 0.023,-0.377 0.167,-0.747 0.253,-1.107 2.701,0.312 4.547,2.333 4.524,4.946 -0.014,1.473 -0.136,2.945 -0.231,4.416 -0.123,1.907 0.494,3.603 1.86,4.85 1.57,1.435 3.313,2.694 5.057,3.92 0.919,0.645 1.648,2.5 1.147,4.091 -0.463,1.468 -1.149,2.866 -1.827,4.515 0.19,0.052 0.648,0.319 1.072,0.272 3.318,-0.368 5.351,-2.456 6.86,-5.23 0.974,-1.787 1.185,-3.638 0.777,-5.632 -0.105,-0.517 0.177,-1.227 0.5,-1.697 1.771,-2.578 2.277,-5.35 1.926,-8.46 -0.328,-2.907 -1.787,-4.89 -4.031,-6.538 -0.828,-0.609 -1.542,-1.404 -2.189,-2.21 -0.214,-0.267 -0.236,-0.95 -0.042,-1.239 1.082,-1.615 3.005,-2.145 4.946,-1.593 1.913,0.544 3.835,1.182 5.793,1.377 0.955,0.096 2.205,-0.493 2.966,-1.171 1.778,-1.586 2.782,-3.638 2.667,-6.133 -0.067,-1.471 0.101,-1.529 1.602,-1.742 2.31,-0.328 3.402,1.313 4.668,2.719 0.271,0.301 0.577,0.567 0.868,0.851 0.221,-0.39 0.542,-0.754 0.646,-1.172 0.539,-2.152 0.676,-4.252 -0.468,-6.329 -2.176,-3.954 -4.89,-4.276 -8.823,-2.689 -0.216,0.087 -0.403,0.246 -0.31,0.188 -1.766,-0.786 -3.273,-1.79 -4.909,-2.091 -1.647,-0.303 -3.353,0.346 -4.797,1.345 -1.369,0.947 -2.714,1.932 -4.088,2.873 -0.418,0.286 -0.874,0.578 -1.354,0.701 -2.557,0.651 -5.138,0.624 -7.644,-0.161 -0.634,-0.198 -1.372,-0.927 -1.554,-1.559 -1.131,-3.938 -3.297,-7.265 -5.728,-10.487 -2.366,-3.137 -4.692,-6.311 -6.87,-9.579 -2.451,-3.68 -3.035,-8.007 -3.832,-12.236 -0.351,-1.865 -0.684,-3.735 -0.956,-5.612 -0.247,-1.7 0.752,-2.957 1.717,-4.166 1.438,-1.8 2.939,-3.55 4.43,-5.307 0.133,-0.156 0.375,-0.236 0.582,-0.312 2.925,-1.067 5.92,-1.977 8.751,-3.251 1.509,-0.68 2.842,-1.877 4.054,-3.048 0.932,-0.9 1.602,-0.591 2.355,0.006 1.189,0.942 1.296,2.371 1.634,3.716 0.555,2.205 -0.43,4.224 -0.66,6.33 -0.157,1.44 -0.525,2.858 -0.829,4.445 0.365,-0.154 0.61,-0.232 0.832,-0.354 3.247,-1.792 5.282,-4.62 6.647,-7.965 1.102,-2.697 2.083,-5.444 3.14,-8.225 1.405,0.805 2.447,2.053 3.11,3.688 1.597,3.938 2.881,7.945 2.921,12.675 0.611,-0.604 0.993,-0.988 1.382,-1.365 1.771,-1.714 2.689,-3.926 3.459,-6.182 0.937,-2.743 1.944,-5.493 2.499,-8.324 0.404,-2.065 0.156,-4.267 0.136,-6.407 -0.009,-0.887 -0.279,-1.682 0.438,-2.549 2.738,-3.316 5.436,-6.672 7.992,-10.128 1.265,-1.711 2.191,-3.672 3.271,-5.521 0.241,-0.412 0.455,-0.844 0.726,-1.234 1.267,-1.826 1.706,-1.888 3.837,-1.316 1.868,0.501 3.827,1.188 5.692,1.053 2.664,-0.194 5.298,-1.014 7.236,-3.159 1.651,-1.829 2.457,-4.026 2.895,-6.403 0.045,-0.244 0.262,-0.528 0.479,-0.659 4.735,-2.837 4.975,-7.02 2.926,-11.298 -0.79,-1.648 -2.298,-2.984 -4.286,-3.368 -0.364,-0.07 -0.948,0.059 -1.144,0.315 -0.203,0.266 -0.096,0.802 -0.049,1.211 0.024,0.222 0.216,0.422 0.313,0.641 0.727,1.641 1.192,3.26 -0.525,4.729 -0.943,-0.772 -2.093,-1.065 -3.34,-0.788 -1.573,0.35 -2.637,1.386 -3.456,2.711 -0.354,0.571 -0.704,1.144 -1.032,1.729 -0.423,0.75 -1.021,1.47 -1.873,0.982 -0.566,-0.324 -1.163,-1.173 -1.169,-1.793 -0.022,-2.463 0.036,-4.946 0.339,-7.388 0.359,-2.899 0.711,-5.855 1.595,-8.618 1.03,-3.223 2.388,-6.383 5.708,-8.171 2.759,-1.485 5.103,-3.46 6.539,-6.396 1.512,-3.089 1.244,-5.943 -0.706,-8.851 0.133,-0.264 0.36,-0.628 0.507,-1.023 0.378,-1.021 0.955,-1.409 2.089,-1.019 0.782,0.269 1.286,-0.355 0.896,-1.091 -0.3,-0.568 -0.797,-1.102 -1.334,-1.461 -2.007,-1.345 -5.874,-1.233 -6.629,2.302 -1.08,0.196 -2.185,0.321 -3.246,0.607 -1.424,0.384 -2.551,1.378 -3.023,2.678 -0.787,2.167 -1.281,4.447 -1.813,6.7 -0.21,0.887 -0.374,1.79 -1.336,2.061 -1.021,0.287 -1.708,-0.284 -2.219,-1.174 -1.417,-2.473 -1.759,-4.855 -0.135,-7.464 1.199,-1.928 2.361,-4.009 2.91,-6.182 0.772,-3.063 0.322,-6.115 -2.229,-8.421 -1.005,-0.909 -2.131,-1.684 -3.401,-2.676 -0.015,-1.304 1.962,-3.34 3.735,-3.586 0.503,-0.07 1.182,-0.396 1.382,-0.802 0.344,-0.695 -0.232,-1.288 -0.879,-1.418 -1.111,-0.225 -2.29,-0.464 -3.39,-0.316 -1.384,0.186 -2.769,0.634 -4.061,1.185 -2.162,0.921 -2.895,2.94 -3.317,5.037 -0.128,0.634 -0.289,0.988 -0.887,1.188 -3.212,1.069 -4.899,3.439 -5.69,6.616 -0.521,2.088 -0.028,4.006 0.781,5.9 0.683,1.599 1.313,3.222 2.057,4.791 0.353,0.742 0.849,1.446 1.402,2.057 0.825,0.909 0.758,1.879 0.355,2.872 -0.396,0.977 -1.263,1.089 -2.381,0.965 0,-0.964 10e-4,-1.941 0,-2.918 -0.002,-2.714 -1.049,-4.18 -3.618,-5.246 -0.946,-0.393 -1.852,-0.905 -2.727,-1.443 -1.294,-0.795 -1.868,-3.243 -1.181,-4.572 0.178,-0.343 0.164,-0.784 0.238,-1.18 -0.449,-0.018 -0.998,-0.211 -1.333,-0.023 -2.377,1.331 -3.926,3.556 -2.909,6.405 0.581,1.63 0.576,2.93 0.008,4.58 -1.086,3.151 0.505,7.703 2.987,9.998 1.414,1.308 3.129,1.94 4.804,2.749 1.696,0.82 3.25,1.949 4.813,3.021 0.249,0.17 0.373,0.797 0.284,1.143 -1.137,4.424 -0.962,8.709 0.501,13.103 1.672,5.022 -0.46,12.397 -5.552,15.255 -2.09,1.173 -4.593,1.621 -6.921,2.356 -0.824,0.261 -1.687,0.397 -2.24,0.523 -0.593,-3.33 -1.063,-6.707 -1.821,-10.018 -0.695,-3.035 -2.262,-5.722 -3.959,-8.325 -0.428,-0.656 -0.754,-1.503 -0.783,-2.275 -0.443,-11.699 -3.976,-22.243 -11.353,-31.457 -5.946,-7.426 -13.308,-13.142 -21.31,-18.117 -4.258,-2.646 -8.201,-5.667 -11.53,-9.425 -1.931,-2.179 -3.667,-4.509 -4.365,-7.43 -0.055,-0.23 -0.151,-0.453 -0.183,-0.685 -0.032,-0.234 -0.007,-0.476 -0.007,-1.053 2.674,-0.016 5.358,-0.158 8.027,-0.017 3.478,0.184 6.951,0.53 10.412,0.923 2.75,0.312 5.498,0.708 8.211,1.249 1.25,0.25 2.424,0.908 3.605,1.44 0.233,0.105 0.399,0.465 0.499,0.743 1.025,2.841 2.762,5.254 4.636,7.563 0.722,0.888 1.665,1.605 2.561,2.336 0.342,0.279 1.047,0.643 1.211,0.508 0.416,-0.34 0.787,-0.913 0.874,-1.442 0.191,-1.166 0.142,-2.369 0.298,-3.542 0.103,-0.77 0.395,-1.514 0.662,-2.492 1.399,0.842 2.687,1.651 4.008,2.399 1.554,0.879 3.144,1.713 5.01,1.583 0.455,-0.032 0.896,-0.266 1.553,-0.473 -0.919,-0.797 -1.654,-1.34 -2.275,-1.991 -1.751,-1.837 -1.034,-3.772 1.014,-4.711 1.499,-0.688 2.194,-1.667 2.222,-3.156 0.08,-4.411 -0.008,-8.82 -1.744,-12.98 -0.28,-0.673 -0.941,-1.188 -1.426,-1.776 -0.381,0.555 -0.868,1.065 -1.123,1.673 -0.763,1.82 -2.049,3.174 -3.598,4.319 -1.01,0.747 -1.505,0.531 -1.981,-0.591 -0.626,-1.472 -1.329,-2.919 -2.12,-4.309 -0.424,-0.747 -1.124,-0.657 -1.709,-0.055 -1.32,1.361 -2.634,2.729 -4.14,4.291 -0.261,-1.586 -0.474,-2.885 -0.655,-3.989 -1.858,0.802 -3.466,1.808 -5.206,2.166 -1.966,0.404 -4.095,0.708 -6.005,-0.519 -0.97,-0.624 -1.663,-1.443 -1.542,-2.638 0.256,-2.522 0.507,-5.052 0.938,-7.547 0.278,-1.608 1.878,-2.176 3.112,-2.663 2.067,-0.815 4.269,-1.478 6.468,-1.735 5.946,-0.694 11.438,0.898 16.586,3.841 3.722,2.127 7.461,4.225 11.19,6.338 3.49,1.978 6.944,4.021 10.477,5.92 3.049,1.64 6.332,2.61 9.81,2.805 3.212,0.18 6.445,0.622 9.633,0.406 4.167,-0.282 8.086,-1.564 10.933,-4.963 0.263,-0.314 0.459,-0.685 0.686,-1.029 -0.062,-0.119 -0.123,-0.237 -0.185,-0.355 -0.534,0.106 -1.083,0.169 -1.603,0.327 -1.79,0.542 -3.551,1.157 -5.476,0.599 -2.294,-0.665 -4.131,-3.153 -3.296,-5.048 1.132,-2.57 2.577,-5.046 5.73,-5.672 3.123,-0.619 6.188,-0.706 9.122,0.846 2.565,1.357 3.929,4.87 2.844,7.546 -0.423,1.044 -0.899,2.066 -1.352,3.099 0.067,0.101 0.136,0.203 0.204,0.305 0.468,-0.25 0.999,-0.425 1.395,-0.76 5.056,-4.279 5.864,-12.222 1.377,-17.17 -1.498,-1.652 -3.481,-2.856 -5.176,-4.343 -2.068,-1.814 -3.186,-4.144 -3.419,-6.891 -0.063,-0.745 -0.285,-1.517 -0.161,-2.229 0.162,-0.936 0.443,-1.917 0.938,-2.716 1.903,-3.077 3.783,-6.179 4.572,-9.741 1.152,-5.207 0.024,-10.014 -2.883,-14.41 -0.114,0.016 -0.228,0.032 -0.342,0.048 0.088,0.543 0.167,1.087 0.265,1.629 0.401,2.203 1.035,4.394 1.144,6.61 0.096,1.948 -0.128,4.004 -0.681,5.873 -1.312,4.436 -6.539,6.267 -10.438,3.853 -2.184,-1.353 -4.348,-2.74 -6.585,-3.995 -0.986,-0.553 -2.122,-0.855 -3.214,-1.19 -0.365,-0.112 -0.807,0.027 -1.303,0.336 1.112,0.928 2.254,1.824 3.332,2.792 3.121,2.801 5.126,6.363 5.664,10.428 0.557,4.202 -1.146,6.948 -5.497,9.404 -3.095,1.747 -6.486,2.596 -10.052,2.932 -5.624,0.529 -11.098,-0.433 -16.595,-1.304 -3.015,-0.478 -6.022,-1.044 -9.057,-1.324 -4.12,-0.38 -8.262,-0.537 -12.396,-0.756 -0.823,-0.043 -1.654,0.065 -2.663,0.112 2.152,-1.123 4.188,-2.191 6.232,-3.246 1.12,-0.578 2.275,-1.091 3.374,-1.707 1.565,-0.876 3.198,-1.292 5.007,-1.203 1.103,0.055 2.217,-0.141 3.483,-0.236 0.358,1.077 0.766,2.131 1.059,3.216 0.514,1.897 1.545,2.249 3.108,0.999 2.09,-1.67 2.31,-1.974 2.996,-4.188 0.968,0 1.967,0.048 2.959,-0.013 1.019,-0.063 1.433,0.366 1.511,1.361 0.089,1.136 0.304,2.263 0.476,3.478 2.271,-0.128 3.632,-1.532 4.909,-2.98 3.4,-3.86 4.37,-8.5 4.194,-13.489 -0.104,-3 -1.343,-5.25 -4.155,-6.538 -1.147,-0.525 -2.223,-1.213 -3.378,-1.717 -0.891,-0.389 -1.133,-0.942 -1.134,-1.899 -0.002,-5.691 -3.56,-9.327 -8.893,-10.561 -1.417,-0.328 -2.936,-0.219 -4.407,-0.31 -0.044,0.143 -0.087,0.286 -0.132,0.429 0.539,0.816 1.057,1.647 1.619,2.446 1.49,2.118 2.047,4.482 2.024,7.043 -0.007,0.812 -0.549,0.916 -1.054,1.049 -3.514,0.927 -7.014,1.925 -10.563,2.696 -3.33,0.724 -6.683,1.391 -10.14,1.277 -1.069,-0.035 -1.649,-0.337 -1.809,-1.389 -0.023,-0.151 -0.139,-0.287 -0.184,-0.438 -1.088,-3.607 -3.286,-4.134 -6.353,-3.6 -3.538,0.615 -7.025,1.522 -10.544,2.262 -0.452,0.095 -1.023,0.085 -1.426,-0.11 -3.084,-1.499 -6.356,-2.182 -9.751,-2.218 -2.811,-0.03 -5.623,0.099 -8.434,0.199 -0.327,0.012 -0.645,0.285 -0.967,0.438 0.201,0.314 0.339,0.706 0.613,0.93 1.992,1.628 4.012,3.222 6.264,5.019 -4.502,1.631 -8.63,3.123 -11.775,6.282 -1.868,-0.805 -3.689,-1.555 -5.475,-2.385 -0.381,-0.177 -0.731,-0.591 -0.922,-0.98 -2.796,-5.725 -6.961,-10.289 -11.915,-14.202 -2.542,-2.007 -4.96,-4.183 -7.589,-6.064 C 186.625,7.42 184.295,6.04 181.905,4.84 178.45,3.105 174.878,1.602 171.355,0 c 55.431,0 110.86,0 166.306,0 0,113.65 0,227.3 0,341.04 -58.542,0 -117.101,0 -175.661,0 z"
               style="clip-rule:evenodd;fill:none;fill-rule:evenodd;stroke:none;stroke-opacity:1"
               inkscape:connector-curvature="0" />
            <path
               id="path6598"
               d="m 170.159,0 c 2.17,4.312 4.206,8.696 6.552,12.91 1.746,3.136 4.33,5.64 7.202,8.058 -1.717,-0.115 -3.433,-0.266 -5.151,-0.321 -0.528,-0.017 -1.379,0.085 -1.521,0.392 -0.189,0.41 0.003,1.207 0.322,1.601 0.927,1.146 2,2.173 3.015,3.248 0.101,0.107 0.193,0.222 0.482,0.555 -2.137,-0.194 -4.037,-0.234 -5.886,-0.565 -2.911,-0.521 -5.819,-1.121 -8.67,-1.902 -4.111,-1.126 -7.653,-3.411 -10.92,-6.065 -4.57,-3.713 -9.006,-7.59 -13.572,-11.308 -0.675,-0.55 -1.729,-0.714 -2.639,-0.873 -0.81,-0.142 -1.664,-0.03 -2.569,-0.03 0.031,0.318 -0.022,0.564 0.077,0.683 2.92,3.485 4.086,7.742 5.189,11.997 1.115,4.301 2.684,8.35 5.806,11.611 3.866,4.037 8.392,7.089 13.72,8.886 0.183,0.062 0.361,0.141 0.539,0.218 0.093,0.041 0.181,0.095 0.33,0.175 -1.688,0.716 -3.356,1.329 -4.93,2.125 -1.015,0.514 -1.957,1.228 -2.803,1.995 -0.372,0.338 -0.627,1.065 -0.543,1.548 0.049,0.286 0.849,0.574 1.338,0.629 3.864,0.439 7.754,0.795 11.333,2.47 2.557,1.197 4.943,2.741 6.561,5.1 0.647,0.944 0.816,2.264 1.032,3.445 0.205,1.127 0.162,2.298 0.274,3.446 0.106,1.076 0.761,1.337 1.758,1.151 1.862,-0.349 3.724,-0.77 5.605,-0.935 3.67,-0.322 7.212,0.316 10.604,1.799 -1.088,2.913 -2.396,5.349 -5.754,6.493 -3.455,1.177 -6.396,3.411 -7.411,7.292 -0.169,0.645 -0.023,1.372 -0.023,1.866 1.471,-0.419 2.705,-0.983 3.977,-1.085 2.072,-0.166 4.181,1.444 4.646,3.509 0.527,2.345 0.832,4.74 1.231,7.113 0.084,0.504 0.165,1.008 0.238,1.514 0.244,1.671 -0.251,3.116 -1.302,4.417 -1.525,1.891 -2.037,4.098 -1.857,6.476 0.051,0.68 0.269,1.347 0.41,2.021 v -0.011 c -1.996,-2.724 -4.022,-5.428 -5.983,-8.177 -4.038,-5.663 -7.923,-11.44 -12.098,-16.999 -3.131,-4.169 -6.48,-8.195 -9.981,-12.06 -4.263,-4.705 -8.671,-9.294 -13.229,-13.713 -5.247,-5.086 -10.702,-9.96 -16.114,-14.873 -3.901,-3.542 -7.812,-7.081 -11.843,-10.471 C 111.585,20.296 105.403,15.441 98.803,11.152 97.749,10.467 96.6,9.92 95.458,9.39 95.127,9.237 94.666,9.365 94.266,9.364 c 0.079,0.391 0.048,0.856 0.254,1.162 2.134,3.162 4.4,6.24 6.442,9.459 2.027,3.196 3.844,6.526 5.744,9.803 1.983,3.421 1.662,6.87 0.096,10.326 -0.195,0.431 -0.418,0.849 -0.703,1.421 -1.436,-0.515 -2.954,-0.849 -4.264,-1.564 -6.047,-3.3 -12,-6.775 -18.059,-10.054 -4.57,-2.472 -9.189,-4.87 -13.894,-7.073 -7.293,-3.416 -14.738,-6.508 -22.615,-8.316 -3.943,-0.905 -7.973,-1.467 -11.987,-2.02 -2.82,-0.389 -5.676,-0.649 -8.519,-0.68 -1.838,-0.02 -3.693,0.42 -5.513,0.79 -0.433,0.088 -0.954,0.676 -1.053,1.119 -0.059,0.263 0.564,0.881 0.985,1.02 5.164,1.704 9.504,4.861 13.981,7.789 5.033,3.292 9.334,7.435 13.396,11.796 3.639,3.907 6.862,8.199 8.983,13.146 0.867,2.022 1.269,4.265 1.709,6.442 0.319,1.58 0.439,3.214 0.494,4.83 0.117,3.424 -0.846,6.546 -2.869,9.331 -1.441,1.983 -2.874,3.972 -4.294,5.971 -0.542,0.762 -0.592,1.289 0.284,2.08 1.427,1.29 2.557,2.912 3.804,4.399 1.63,1.944 3.484,3.748 4.833,5.872 3.148,4.954 6.082,10.089 7.234,15.919 0.483,2.446 0.197,5.055 0.156,7.588 -0.019,1.173 -0.253,2.347 -0.447,3.511 -1.065,6.394 -5.104,10.01 -11.057,11.879 -1.458,0.458 -2.856,1.111 -4.54,1.776 7.547,3.229 14.332,7.11 20.617,11.8 6.413,4.784 10.859,11.271 15.151,17.818 -2.325,0 -4.435,-0.029 -6.544,0.007 -3.677,0.062 -7.354,0.154 -11.029,0.259 -0.572,0.016 -0.919,-0.097 -1.182,-0.678 -1.739,-3.844 -4.691,-6.316 -8.849,-6.948 -2.008,-0.305 -4.125,0.105 -6.193,0.192 -0.035,0.161 -0.07,0.322 -0.106,0.483 0.633,0.496 1.222,1.065 1.908,1.472 1.527,0.907 2.215,2.373 2.606,3.957 0.754,3.058 1.195,2.414 -1.862,2.896 -5.484,0.865 -10.889,2.037 -16.114,3.885 -3.541,1.253 -6.971,2.82 -10.199,4.144 -1.434,-0.986 -2.75,-2.383 -4.348,-2.892 -3.468,-1.104 -6.989,-0.711 -10.232,1.041 -0.684,0.369 -1.193,1.154 -1.64,1.84 -0.425,0.652 -0.221,1.154 0.626,1.414 1.054,0.323 2.064,0.789 3.093,1.192 1.798,0.704 2.953,2.047 3.648,3.569 -2.265,2.776 -4.513,5.448 -6.669,8.192 -3.437,4.377 -5.128,9.524 -6.43,14.84 -0.097,0.396 -0.489,0.88 -0.859,1.022 -4.391,1.682 -7.348,4.552 -8.021,9.396 -0.02,0.144 -0.143,0.274 -0.218,0.411 C 0,137.6 0,68.8 0,0 56.72,0 113.439,0 170.159,0 Z"
               style="clip-rule:evenodd;fill:none;fill-rule:evenodd;stroke:none;stroke-opacity:1"
               inkscape:connector-curvature="0" />
            <path
               id="path6600"
               d="m 0,210 c 0.513,0.783 0.99,0.79 1.841,0.278 1.937,-1.163 4.09,-1.689 6.363,-1.229 0.343,0.069 0.831,0.514 0.871,0.832 0.924,7.485 4.104,13.963 8.973,19.599 1.156,1.339 1.361,2.304 1.038,4.049 -0.611,3.299 -0.604,6.719 0.899,9.898 0.248,0.526 0.634,1.02 1.058,1.422 0.844,0.8 1.305,0.597 1.787,-0.457 1.207,-2.64 3.336,-4.364 5.877,-5.624 0.176,-0.087 0.505,0.026 0.715,0.137 3.569,1.881 7.112,3.813 10.703,5.648 1.108,0.566 2.121,1.041 2.132,2.515 0.007,0.978 0.321,1.979 0.188,2.927 -0.203,1.446 -0.754,1.61 -2.174,1.805 -1.708,0.233 -3.415,0.638 -5.048,1.188 -1.462,0.492 -2.061,1.867 -2.601,3.229 -0.14,0.352 -0.549,0.759 -0.903,0.838 -2.775,0.62 -4.606,2.293 -4.919,5.101 -0.182,1.625 0.128,3.318 0.347,4.964 0.048,0.364 0.648,0.654 0.994,0.979 0.22,-0.404 0.617,-0.805 0.628,-1.215 0.049,-1.828 1.27,-2.616 2.69,-3.284 1.391,-0.654 2.546,-0.167 3.575,0.767 1.091,0.99 2.163,2.257 3.78,1.73 1.055,-0.343 1.933,-1.243 2.875,-1.914 0.356,-0.254 0.661,-0.579 1.005,-0.851 1.263,-0.994 1.715,-1.013 2.578,0.43 2.015,3.368 2.598,6.047 0.341,9.519 -0.93,1.43 -1.746,3.025 -2.189,4.66 -0.729,2.692 0.607,5.204 3.1,6.553 0.519,0.28 1.041,0.562 1.526,0.893 1.09,0.744 1.341,2.051 0.617,3.147 -0.79,1.196 -1.625,2.363 -2.38,3.58 -0.195,0.315 -0.345,0.883 -0.19,1.128 0.155,0.244 0.734,0.356 1.101,0.311 3.617,-0.457 7.043,-3.726 7.775,-7.313 0.065,-0.316 0.336,-0.705 0.618,-0.846 2.609,-1.302 4.146,-3.213 3.947,-6.299 -0.104,-1.627 -0.019,-3.267 -0.019,-4.895 3.027,-0.19 3.982,1.503 3.546,4.238 -0.85,5.329 1.132,7.541 5.213,8.823 2.71,0.852 3.293,1.965 2.402,4.685 -0.158,0.482 -0.234,1.02 -0.216,1.525 0.033,0.88 0.976,1.508 1.583,1.012 1.988,-1.627 4.272,-2.975 5.426,-5.443 0.694,-1.484 0.928,-3.023 0.684,-4.646 -0.041,-0.273 -0.033,-0.623 0.103,-0.847 1.899,-3.139 1.084,-7.063 -1.932,-9.245 -0.917,-0.663 -1.812,-1.358 -2.716,-2.039 0.034,-0.16 0.069,-0.32 0.103,-0.48 0.974,0 1.957,-0.08 2.919,0.029 0.606,0.068 1.218,0.353 1.761,0.658 3.619,2.031 7.219,0.467 9.149,-2.37 0.974,0.951 1.957,1.836 2.846,2.807 0.613,0.669 1.018,0.698 1.542,-0.075 1.139,-1.68 1.404,-3.548 1.138,-5.48 -0.263,-1.914 -3.225,-4.035 -5.234,-3.96 -0.369,0.013 -0.901,-0.23 -1.105,-0.528 -2.606,-3.798 -7.375,-4.986 -11.325,-2.65 -3.684,2.179 -7.229,1.428 -10.726,-0.332 -0.444,-0.224 -0.786,-1.087 -0.792,-1.657 -0.015,-1.463 0.187,-2.927 0.314,-4.543 2.441,0.683 4.86,1.451 7.323,2.028 3.57,0.836 7.16,1.6 10.764,2.275 4.116,0.771 8.253,1.425 12.385,2.104 3.663,0.603 7.361,1.028 10.988,1.794 3.645,0.77 7.386,1.472 10.508,3.692 3.163,2.249 5.42,5.119 5.269,9.29 -0.04,1.107 0.106,2.313 -0.28,3.3 -0.831,2.13 -2.679,3.379 -4.661,4.352 -3.15,1.545 -6.397,2.905 -9.486,4.563 -2.473,1.327 -4.977,2.737 -7.099,4.543 -3.092,2.63 -5.488,5.981 -6.2,10.047 -0.643,3.674 0.051,7.249 2.575,10.27 4.934,5.906 11.49,9.165 18.666,11.3 3.899,1.16 7.893,2.038 11.887,2.83 2.431,0.481 4.937,0.662 7.418,0.79 3.505,0.179 7.023,0.338 10.527,0.22 3.557,-0.12 7.116,-0.482 10.649,-0.93 4.139,-0.523 8.25,-1.257 12.375,-1.891 0.263,-0.04 0.537,-0.005 0.785,-0.005 0.48,1.945 -0.153,3.589 -1.067,5.143 -2.09,3.551 -4.23,7.072 -6.312,10.629 -0.143,0.243 0.036,0.675 0.064,1.02 -53.76,0 -107.52,0 -161.279,0 C 0,297.359 0,253.68 0,210 Z"
               style="clip-rule:evenodd;fill:none;fill-rule:evenodd;stroke:none;stroke-opacity:1"
               inkscape:connector-curvature="0" />
            <path
               id="path6602"
               d="m 186.849,101.659 c 0.259,-0.216 0.581,-0.389 0.767,-0.657 1.074,-1.552 2.652,-1.778 4.328,-1.598 0.359,0.039 0.813,0.494 0.976,0.865 1.88,4.322 3.688,8.676 5.568,12.998 1.067,2.455 0.846,4.642 -0.695,6.893 -1.605,2.347 -2.067,5.275 -0.953,7.492 0.232,-0.119 0.496,-0.2 0.695,-0.362 2.434,-1.981 6.084,-0.989 8.01,0.651 1.216,1.036 2.243,2.215 2.884,3.725 0.678,1.596 1.504,3.129 2.203,4.716 0.215,0.486 0.289,1.058 0.319,1.596 0.069,1.199 -0.285,2.037 -1.662,2.351 -2.252,0.515 -4.089,1.641 -5.024,3.945 -0.47,1.158 -1.159,2.227 -1.86,3.543 0.866,0 1.531,0.079 2.171,-0.013 3.46,-0.499 7.695,2.251 8.239,5.638 0.194,1.21 -0.357,2.539 -0.562,3.815 -0.398,2.495 -1.595,3.917 -4.322,4.41 -2.48,0.448 -4.813,1.706 -7.213,2.606 -0.973,-4.169 -4.527,-7.537 -7.938,-7.334 0.226,0.682 0.413,1.334 0.658,1.964 0.604,1.554 0.16,2.883 -0.857,4.081 -1.259,1.481 -1.243,1.397 -3.166,0.747 -5.409,-1.827 -9.856,-5.152 -13.898,-9.027 -3.01,-2.886 -4.534,-6.515 -4.676,-10.751 -0.129,-3.86 0.501,-7.51 2.374,-10.906 0.439,-0.797 0.906,-1.596 1.475,-2.3 1.323,-1.638 3.163,-1.31 4.855,-0.976 2.313,0.456 4.676,1.235 6.8,-0.206 1.723,-1.168 3.328,-2.603 4.698,-4.17 1.182,-1.352 2.048,-3.01 2.894,-4.617 1.422,-2.7 1.227,-5.722 -0.034,-8.175 -1.976,-3.845 -4.664,-7.324 -7.051,-10.957 -0.003,0.002 -0.003,0.013 -0.003,0.013 z"
               style="clip-rule:evenodd;fill:none;fill-rule:evenodd;stroke:none;stroke-opacity:1"
               inkscape:connector-curvature="0" />
            <path
               id="path6604"
               d="m 69.388,196.547 c -2.294,4.153 -4.426,8.285 -6.812,12.265 -3.136,5.23 -5.629,10.718 -7.369,16.556 -0.089,0.299 -0.203,0.59 -0.34,0.982 -7.419,-3.952 -12.833,-9.573 -14.416,-17.962 -0.83,-4.396 0.257,-7.602 5.172,-10.606 3.963,-2.423 8.337,-3.443 13.087,-2.995 3.121,0.295 6.248,0.395 9.275,1.298 0.369,0.108 0.73,0.238 1.403,0.462 z"
               style="clip-rule:evenodd;fill:none;fill-rule:evenodd;stroke:none;stroke-opacity:1"
               inkscape:connector-curvature="0" />
          </g>
        </g>
      </g>
      <g
         id="Ebene_1"
         style="stroke:none;stroke-opacity:1" />
    </g>
  </g>
</svg>
