<?xml version="1.0" encoding="UTF-8" standalone="no"?>
<!-- Created with Inkscape (http://www.inkscape.org/) -->

<svg
   xmlns:dc="http://purl.org/dc/elements/1.1/"
   xmlns:cc="http://creativecommons.org/ns#"
   xmlns:rdf="http://www.w3.org/1999/02/22-rdf-syntax-ns#"
   xmlns:svg="http://www.w3.org/2000/svg"
   xmlns="http://www.w3.org/2000/svg"
   xmlns:sodipodi="http://sodipodi.sourceforge.net/DTD/sodipodi-0.dtd"
   xmlns:inkscape="http://www.inkscape.org/namespaces/inkscape"
   width="116.73953mm"
   height="117.0573mm"
   viewBox="0 0 116.73953 117.0573"
   version="1.1"
   id="svg8"
   inkscape:version="0.92.3 (2405546, 2018-03-11)"
   sodipodi:docname="borderEmblem6.svg">
  <defs
     id="defs2" />
  <sodipodi:namedview
     id="base"
     pagecolor="#ffffff"
     bordercolor="#666666"
     borderopacity="1.0"
     inkscape:pageopacity="0.0"
     inkscape:pageshadow="2"
     inkscape:zoom="1.979899"
     inkscape:cx="63.072593"
     inkscape:cy="245.29549"
     inkscape:document-units="mm"
     inkscape:current-layer="layer1"
     showgrid="false"
     fit-margin-top="5"
     fit-margin-left="5"
     fit-margin-right="5"
     fit-margin-bottom="5"
     inkscape:window-width="1920"
     inkscape:window-height="1017"
     inkscape:window-x="1912"
     inkscape:window-y="-8"
     inkscape:window-maximized="1" />
  <metadata
     id="metadata5">
    <rdf:RDF>
      <cc:Work
         rdf:about="">
        <dc:format>image/svg+xml</dc:format>
        <dc:type
           rdf:resource="http://purl.org/dc/dcmitype/StillImage" />
        <dc:title />
      </cc:Work>
    </rdf:RDF>
  </metadata>
  <g
     inkscape:label="Layer 1"
     inkscape:groupmode="layer"
     id="layer1"
     transform="translate(437.85865,32.867341)">
    <g
       id="g6797"
       transform="matrix(0.22576835,0,0,0.22576835,-416.67045,-25.774799)">
      <g
         id="Horse">
        <g
           id="g6777">
          <g
             id="g6775">
            <path
               id="path6767"
               d="m 146.4,0 c 0.4,0 0.8,0 1.2,0 1.185,0.486 2.096,1.278 2.599,2.464 0.524,1.237 1.023,2.486 1.473,3.752 0.555,1.56 1.046,3.143 1.522,4.587 0.951,-0.639 1.823,-1.32 2.778,-1.85 3.553,-1.973 7.221,-3.623 11.395,-3.694 1.777,-0.031 3.138,1.652 2.688,3.388 -0.371,1.431 -0.813,2.844 -1.245,4.344 1.967,-0.169 3.902,-0.41 5.844,-0.48 1.849,-0.068 2.849,0.973 2.944,2.83 0.015,0.279 0.044,0.567 -0.005,0.838 -0.131,0.732 0.153,1.217 0.805,1.527 1.816,0.864 3.584,1.857 5.458,2.571 3.368,1.284 5.493,3.494 6.011,7.14 0.039,0.274 0.375,0.54 0.626,0.744 1.942,1.573 4.316,2.253 6.573,3.189 4.485,1.861 9.061,3.406 13.87,4.173 2.141,0.342 4.3,0.575 6.425,0.99 2.634,0.514 4.4,2.401 5.932,4.37 2.977,3.826 4.599,8.351 6.101,12.899 0.412,1.249 0.239,2.546 -0.546,3.625 -1.441,1.979 -2.921,3.933 -4.481,5.818 -0.421,0.508 -1.157,0.939 -1.806,1.041 -1.798,0.281 -3.627,0.362 -5.442,0.54 -0.474,0.046 -0.942,0.154 -1.564,0.26 0.245,0.317 0.337,0.439 0.433,0.559 2.279,2.834 3.203,5.301 0.959,8.87 -0.356,0.568 -0.671,1.164 -1.024,1.735 -2.271,3.673 -5.293,5.912 -9.88,5.905 -3.819,-0.006 -6.762,-1.039 -8.608,-4.643 -1.136,-2.218 -1.955,-2.318 -4.256,-1.254 -3.782,1.749 -7.102,4.619 -11.608,4.696 2.037,1.082 4.039,2.016 6.057,2.917 5.093,2.277 10.159,4.618 15.3,6.782 3.973,1.672 8.035,3.137 12.072,4.656 5.174,1.946 10.397,3.771 15.522,5.838 1.227,0.495 2.078,0.405 3.149,-0.128 4.306,-2.14 7.8,-5.271 10.951,-8.828 2.085,-2.354 4.212,-4.68 6.161,-7.144 1.348,-1.703 2.605,-3.528 3.57,-5.465 0.956,-1.917 1.499,-4.041 2.214,-6.078 1.29,-3.674 2.477,-7.39 3.899,-11.012 0.816,-2.082 2.056,-4.016 4.369,-4.773 2.29,-0.75 4.598,-1.459 7.072,-1.361 2.499,0.1 5.001,-0.053 7.33,1.226 2.322,1.274 4.766,2.327 7.104,3.573 3.426,1.824 6.787,3.767 10.214,5.586 1.25,0.664 2.613,1.115 3.92,1.674 1.189,0.508 2.461,0.891 3.541,1.575 2.772,1.757 5.45,3.666 8.184,5.487 3.72,2.479 7.977,3.969 11.704,6.488 2.237,1.512 3.557,3.452 4.388,5.82 1.098,3.131 1.59,6.37 1.254,9.715 -0.053,0.513 0.264,1.11 0.531,1.602 1.571,2.884 3.281,5.697 4.742,8.636 1.253,2.521 0.891,4.854 -1.473,6.697 -0.354,0.276 -0.633,0.821 -0.691,1.274 -0.527,4.091 -1.044,8.184 -1.465,12.287 -0.221,2.144 -1.295,3.89 -2.454,5.555 -0.417,0.599 -1.445,0.946 -2.245,1.068 -1.854,0.283 -3.485,-0.593 -5.089,-1.372 -3.883,-1.885 -6.816,-4.745 -8.805,-8.6 -1.519,-2.946 -3.376,-5.73 -4.196,-9 -0.97,-3.863 -1.162,-7.81 -0.91,-11.747 0.16,-2.491 -0.083,-4.564 -2.584,-5.752 -0.104,-0.048 -0.168,-0.17 -0.261,-0.246 -2.243,-1.816 -4.472,-3.651 -6.736,-5.44 -2.321,-1.836 -4.689,-3.614 -7.017,-5.442 -2.288,-1.797 -4.551,-3.626 -6.832,-5.447 -0.365,0.391 -0.634,0.634 -0.852,0.917 -3.185,4.158 -4.864,8.862 -5.041,14.092 -0.108,3.191 -0.185,6.383 -0.239,9.575 -0.035,2.039 0.16,4.097 -0.045,6.116 -0.329,3.228 -0.534,6.544 -1.481,9.61 -0.956,3.096 -2.751,5.933 -4.24,9.011 2.425,5.015 5.007,10.293 2.54,16.485 4.419,-1.547 6.104,-1.574 8.061,-0.888 1.943,0.682 3.932,1.666 5.46,3.016 3.249,2.87 6.242,6.035 9.282,9.135 1.618,1.649 3.128,3.406 4.664,5.134 1.927,2.167 3.805,4.379 5.749,6.53 1.871,2.07 3.772,4.115 5.711,6.121 2.107,2.18 4.259,4.319 6.418,6.447 2.897,2.855 5.872,5.634 8.713,8.543 1.438,1.473 2.807,3.087 2.914,5.324 0.092,1.911 0.152,3.824 0.205,5.736 0.108,3.942 0.832,7.714 2.863,11.174 1.311,2.23 2.387,4.518 2.457,7.235 0.067,2.609 -0.247,5.03 -1.548,7.337 -3.235,5.736 -7.937,10.115 -12.988,14.17 -1.688,1.356 -3.327,1.375 -4.746,-0.001 -1.192,-1.157 -2.339,-2.42 -3.24,-3.808 -2.147,-3.306 -3.138,-7.051 -3.789,-10.905 -0.837,-4.956 -0.835,-9.9 0.041,-14.847 0.231,-1.31 0.443,-2.624 0.662,-3.921 -0.561,-0.143 -0.961,-0.195 -1.322,-0.344 -2.566,-1.059 -5.019,-2.329 -6.41,-4.878 -1,-1.833 -1.847,-3.756 -2.675,-5.677 -1.58,-3.669 -2.682,-7.566 -5.228,-10.766 -1.155,-1.451 -2.058,-3.238 -3.496,-4.303 -3.657,-2.708 -8.138,-3.201 -12.492,-3.576 -3.24,-0.28 -6.538,0.201 -9.806,0.117 -1.61,-0.042 -2.448,0.629 -3.006,1.946 -1.57,3.704 -3.243,7.371 -4.662,11.133 -2.416,6.405 -4.57,12.913 -7.751,19.003 -1.159,2.22 -2.176,4.555 -3.628,6.571 -2.617,3.635 -5.381,7.185 -8.329,10.556 -2.886,3.301 -6.085,6.329 -9.133,9.489 -1.814,1.881 -3.603,3.788 -5.379,5.658 1.084,0.076 2.298,0.376 3.438,0.199 3.23,-0.498 6.454,-1.09 9.636,-1.836 3.063,-0.719 6.105,-1.566 9.088,-2.563 2.578,-0.86 4.855,-0.664 7.055,0.965 3.103,2.299 5.584,5.164 7.993,8.156 3.288,4.083 5.732,8.618 7.263,13.559 2.288,7.39 3.677,14.97 3.239,22.769 -0.111,1.978 -0.181,4.004 -0.674,5.902 -1.11,4.276 -2.361,8.524 -3.771,12.711 -1.071,3.183 -2.471,6.255 -3.732,9.373 -2.192,5.419 -4.907,10.547 -8.638,15.284 1.417,-0.441 2.664,-0.906 3.947,-1.216 4.823,-1.165 9.632,-2.412 14.496,-3.374 4.499,-0.89 9.052,-1.523 13.6,-2.133 2.402,-0.321 4.848,-0.314 7.268,-0.517 3.924,-0.328 7.651,-0.512 11.368,1.698 5.437,3.23 11.229,5.858 16.854,8.774 1.815,0.941 3.623,2.028 4.432,3.996 1.238,3.011 2.068,6.153 2.227,9.438 0.09,1.87 0.263,3.738 0.28,5.608 0.03,2.984 0.006,5.972 -0.108,8.953 -0.019,0.488 -0.518,1.225 -0.959,1.379 -1.286,0.449 -2.646,0.864 -3.995,0.931 -4.222,0.207 -8.41,-0.155 -12.585,-0.889 -6.599,-1.158 -12.668,-3.449 -17.897,-7.737 -0.571,-0.469 -1.199,-0.87 -1.854,-1.34 -0.483,0.614 -0.868,1.172 -1.321,1.666 -1.63,1.776 -3.403,3.224 -5.882,3.832 -3.446,0.847 -6.829,0.352 -10.195,-0.135 -3.121,-0.452 -6.17,-1.385 -9.278,-1.953 -3.744,-0.686 -7.506,-1.291 -11.279,-1.781 -3.937,-0.512 -7.893,-0.885 -11.848,-1.243 -3.208,-0.29 -6.424,-0.519 -9.642,-0.679 -1.995,-0.1 -4.003,0.062 -5.997,-0.04 -3.215,-0.165 -6.428,-0.408 -9.633,-0.704 -1.37,-0.127 -2.712,-0.568 -4.082,-0.686 -0.987,-0.085 -1.7,-0.447 -2.138,-1.276 -0.96,-1.815 -1.958,-3.619 -2.774,-5.501 -1.273,-2.935 -2.299,-5.981 -3.645,-8.881 -0.836,-1.802 -0.509,-3.845 1.107,-4.979 0.939,-0.659 1.916,-1.281 2.932,-1.814 3.892,-2.043 7.54,-4.345 10.632,-7.583 1.845,-1.933 1.796,-3.944 1.161,-6.022 -0.967,-3.165 -2.916,-5.75 -5.407,-7.978 -4.069,-3.639 -8.375,-6.811 -13.758,-8.254 -2.497,-0.67 -4.958,-1.48 -7.365,-2.207 -0.353,2.603 -0.662,4.986 -1,7.366 -0.328,2.313 -0.669,4.625 -1.032,6.934 -0.431,2.742 -0.752,5.511 -1.367,8.212 -1.284,5.637 -2.864,11.147 -5.956,16.172 -2.823,4.588 -6.509,7.903 -11.561,9.801 -5.988,2.248 -12.266,3.112 -18.528,4.032 -4.196,0.616 -8.444,0.739 -12.656,1.379 -3.908,0.594 -7.058,2.144 -9.76,4.938 -0.988,1.021 -1.639,2.089 -1.816,3.479 -0.089,0.705 -0.259,1.399 -0.361,2.104 -0.445,3.096 -0.918,6.188 -1.302,9.293 -0.301,2.438 -0.563,4.886 -0.696,7.337 -0.083,1.524 -0.195,3.054 0.481,4.568 2.207,4.944 4.267,9.954 6.456,14.906 2.144,4.851 4.43,9.639 6.54,14.503 0.713,1.644 1.49,3.437 1.494,5.163 0.003,1.896 -0.851,3.794 -1.355,5.787 0.575,0.87 1.334,1.89 1.958,2.986 2.173,3.816 4.373,7.621 6.415,11.508 1.137,2.164 2.295,4.404 2.871,6.751 0.569,2.315 0.456,4.807 0.56,7.225 0.033,0.776 -0.061,1.614 -0.328,2.339 -1.109,3.005 -5.313,5.391 -8.581,4.943 -1.722,-0.235 -3.451,-0.439 -5.159,-0.751 -4.627,-0.845 -9.062,-2.192 -13.066,-4.796 -2.972,-1.932 -5.905,-3.928 -8.223,-6.609 -3.79,-4.386 -4.75,-9.823 -5.195,-15.375 -0.099,-1.238 -0.479,-2.146 -1.563,-2.805 -1.992,-1.21 -4.196,-2.232 -4.778,-4.848 -0.197,-0.884 -0.51,-1.748 -0.634,-2.64 -0.446,-3.224 -0.864,-6.451 -1.236,-9.684 -0.499,-4.342 -0.929,-8.691 -1.418,-13.035 -0.337,-2.997 -0.67,-5.996 -1.104,-8.979 -0.353,-2.427 -0.912,-4.823 -1.274,-7.249 -0.686,-4.589 -1.265,-9.193 -1.947,-13.782 -0.564,-3.789 -1.742,-7.371 -3.584,-10.759 -1.647,-3.027 -3.128,-6.147 -4.637,-9.248 -0.721,-1.48 -0.91,-3.101 -0.463,-4.668 1.06,-3.724 2.786,-7.128 5.027,-10.303 1.755,-2.485 3.778,-2.711 6.591,-1.563 0.618,0.253 1.259,0.57 1.904,0.607 1.503,0.089 3.031,0.166 4.519,-0.008 2.487,-0.289 4.684,-1.327 6.001,-3.556 2.429,-4.109 2.958,-8.727 3.075,-13.361 0.077,-3.055 -0.308,-6.118 -0.406,-9.18 -0.127,-3.946 -0.163,-7.895 -0.268,-11.841 -0.018,-0.661 -0.184,-1.318 -0.289,-1.976 -0.458,-2.881 -0.978,-5.753 -1.352,-8.644 -0.162,-1.247 -0.027,-2.531 -0.027,-3.898 -0.287,0.104 -0.477,0.147 -0.642,0.236 -4.211,2.262 -8.383,4.601 -12.641,6.771 -3.514,1.791 -7.387,2.384 -11.262,2.739 -3.439,0.316 -6.833,-0.111 -10.01,-1.563 -2.141,-0.979 -4.368,-1.875 -6.295,-3.191 -3.309,-2.259 -5.33,-5.531 -6.457,-9.392 -0.811,-2.776 -1.555,-5.536 -1.424,-8.471 0.076,-1.717 -0.048,-3.442 0.029,-5.158 0.098,-2.178 0.286,-4.352 0.48,-6.522 0.208,-2.324 0.582,-4.639 0.678,-6.965 0.119,-2.875 0.068,-5.76 0.007,-8.638 -0.03,-1.422 -0.144,-2.857 -0.402,-4.253 -0.514,-2.778 -1.163,-5.532 -1.738,-8.299 -0.555,-2.67 -1.034,-5.37 -2.437,-7.762 -0.833,-1.42 -1.87,-2.404 -3.798,-2.296 -2.462,0.138 -4.609,0.977 -6.623,2.254 -0.817,0.518 -1.739,1.119 -2.186,1.919 -0.832,1.492 -1.544,3.11 -1.958,4.764 -0.865,3.455 -1.663,6.943 -2.193,10.461 -0.642,4.257 -1.124,8.55 -1.41,12.844 -0.325,4.883 -0.313,9.787 -0.532,14.679 -0.165,3.687 -0.474,7.366 -0.703,11.05 -0.255,4.105 -1.499,7.992 -2.952,11.768 -1.152,2.994 -2.822,5.79 -4.305,8.652 -0.234,0.452 -0.815,1.169 -1.033,1.103 -0.584,-0.18 -1.211,-0.616 -1.553,-1.129 -2.408,-3.61 -4.651,-7.332 -7.133,-10.889 -3.138,-4.495 -6.426,-8.888 -9.706,-13.282 -1.026,-1.374 -2.234,-2.612 -3.567,-4.153 0,3.379 0.048,6.409 -0.034,9.436 -0.021,0.742 -0.339,1.557 -0.754,2.183 -0.381,0.575 -1.102,0.872 -1.686,0.098 -1.358,-1.798 -2.997,-3.464 -3.977,-5.452 -2.412,-4.893 -4.62,-9.893 -6.72,-14.93 -2.576,-6.175 -2.883,-12.794 -3.365,-19.354 -0.196,-2.661 -0.174,-5.338 -0.27,-8.006 -0.009,-0.257 -0.15,-0.51 -0.229,-0.765 0,-5.12 0,-10.24 0,-15.36 0.08,-0.28 0.193,-0.555 0.235,-0.84 0.472,-3.198 0.758,-6.436 1.443,-9.587 0.837,-3.856 1.869,-7.685 3.079,-11.442 0.849,-2.635 1.943,-5.235 3.278,-7.659 1.459,-2.651 3.238,-5.142 5.032,-7.59 1.657,-2.26 3.415,-4.468 5.327,-6.513 1.218,-1.304 2.798,-2.27 4.226,-3.394 -3.53,-3.502 -3.359,-7.066 -1.33,-11.125 1.565,-3.129 4.355,-5.1 6.923,-7.259 0.457,-0.384 1.384,-0.208 2.262,-0.311 -0.471,1.039 -0.923,1.695 -1.067,2.412 -0.714,3.546 -0.552,5.642 3.046,6.121 2.666,0.355 5.398,0.232 8.101,0.28 0.461,0.008 0.938,-0.164 1.388,-0.311 5.25,-1.707 10.383,-3.73 15.92,-4.553 4.076,-0.605 8.132,-0.61 12.104,-0.018 5.856,0.874 11.406,2.977 16.55,5.953 2.551,1.476 5.195,2.973 7.307,4.977 2.713,2.574 5.245,5.396 7.177,8.696 2.067,3.53 3.514,7.296 4.572,11.208 0.768,2.84 1.315,5.745 1.854,8.641 0.809,4.353 1.786,8.689 1.542,13.171 -0.129,2.385 -0.161,4.774 -0.257,7.161 -0.066,1.628 -0.114,3.261 -0.267,4.882 -0.27,2.875 -0.668,5.738 -0.909,8.615 -0.235,2.809 -0.322,5.629 -0.512,8.441 -0.082,1.223 -0.255,2.438 -0.39,3.657 -0.345,3.104 -0.833,6.2 -0.998,9.313 -0.174,3.271 -0.161,6.563 -0.002,9.836 0.145,2.973 0.737,5.916 2.717,8.288 1.378,1.651 3.101,3.107 5.424,2.642 1.375,-0.276 2.747,-1.038 3.896,-1.885 2.545,-1.876 4.994,-3.882 6.193,-7.007 0.521,-1.356 1.235,-2.646 1.938,-3.925 3.533,-6.431 7.195,-12.792 10.609,-19.284 3.042,-5.785 5.838,-11.7 8.701,-17.577 1.36,-2.792 2.701,-5.599 3.914,-8.457 1.923,-4.533 3.721,-9.119 5.588,-13.676 1.818,-4.438 1.766,-8.928 0.42,-13.461 -0.053,-0.179 -0.148,-0.387 -0.29,-0.491 -2.835,-2.069 -5.715,-4.076 -8.512,-6.194 -3.69,-2.795 -7.535,-5.442 -10.889,-8.603 -2.146,-2.022 -3.586,-4.817 -5.226,-7.341 -1.116,-1.718 -2.03,-3.567 -2.913,-5.141 0,2.306 -0.024,4.775 0.022,7.244 0.008,0.448 0.199,0.975 0.481,1.323 1.045,1.292 2.164,2.523 3.255,3.777 0.512,0.588 1.28,1.105 0.733,2.047 -0.526,0.905 -1.323,1.383 -2.396,1.212 -0.581,-0.092 -1.142,-0.303 -1.72,-0.414 -3.916,-0.753 -7.445,-2.213 -10.003,-5.448 -2.652,-3.352 -5.29,-6.715 -7.934,-10.074 -4.345,-5.521 -8.927,-10.838 -13.897,-15.808 -2.611,-2.611 -3.656,-5.608 -2.937,-9.301 0.669,-3.436 -0.288,-6.557 -2.454,-9.293 -2.639,-3.334 -4.621,-7.067 -6.523,-10.837 -1.021,-2.025 -1.523,-4.23 -1.541,-6.52 -0.016,-2.218 -0.178,-4.451 0.027,-6.649 0.159,-1.701 0.917,-3.338 1.167,-5.039 0.253,-1.723 0.976,-3.135 1.993,-4.498 1.681,-2.254 3.064,-4.643 2.603,-7.644 -0.264,-1.715 -0.342,-3.482 -0.811,-5.139 -0.895,-3.171 -0.007,-5.951 1.612,-8.564 2.141,-3.458 3.394,-7.24 4.521,-11.106 0.489,-1.678 1.167,-3.365 2.096,-4.836 1.738,-2.754 4.631,-4.31 7.195,-6.148 3.376,-2.42 6.508,-5.102 9.336,-8.119 0.853,-0.909 1.705,-2.163 1.837,-3.339 0.435,-3.864 2.696,-5.817 6.146,-6.962 2.608,-0.866 5.171,-1.895 7.688,-3.002 2.16,-0.951 4.149,-2.131 4.633,-4.822 0.168,-0.937 0.669,-1.888 1.246,-2.662 2.184,-2.93 4.388,-5.852 6.729,-8.657 C 142.004,2.949 143.819,0.982 146.4,0 Z m 19.755,42.699 c 0.019,-0.062 0.038,-0.124 0.057,-0.186 0.476,-0.025 0.955,-0.025 1.427,-0.081 1.173,-0.14 1.842,-0.75 1.571,-1.989 -0.274,-1.246 -0.526,-2.523 -1.025,-3.686 -0.509,-1.187 -1.271,-1.405 -2.276,-0.634 -1.53,1.172 -2.96,2.488 -4.343,3.833 -0.605,0.589 -0.573,1.341 0.403,1.63 1.384,0.411 2.79,0.746 4.186,1.113 z"
               style="clip-rule:evenodd;fill-rule:evenodd;stroke:#000000;stroke-opacity:1;fill:none;stroke-width:6.64397822;stroke-miterlimit:4;stroke-dasharray:none;stroke-linejoin:round"
               inkscape:connector-curvature="0" />
            <path
               id="path6769"
               d="m 0,228.96 c 0.08,0.255 0.22,0.507 0.229,0.765 0.096,2.668 0.074,5.345 0.27,8.006 0.482,6.56 0.79,13.179 3.365,19.354 2.1,5.037 4.308,10.037 6.72,14.93 0.98,1.988 2.619,3.654 3.977,5.452 0.584,0.774 1.305,0.478 1.686,-0.098 0.415,-0.626 0.734,-1.44 0.754,-2.183 0.082,-3.026 0.034,-6.057 0.034,-9.436 1.333,1.541 2.542,2.779 3.567,4.153 3.28,4.395 6.568,8.787 9.706,13.282 2.482,3.557 4.725,7.278 7.133,10.889 0.342,0.513 0.969,0.949 1.553,1.129 0.218,0.066 0.798,-0.65 1.033,-1.103 1.483,-2.862 3.153,-5.658 4.305,-8.652 1.453,-3.775 2.696,-7.662 2.952,-11.768 0.229,-3.684 0.538,-7.363 0.703,-11.05 0.22,-4.892 0.207,-9.796 0.532,-14.679 0.286,-4.294 0.768,-8.587 1.41,-12.844 0.531,-3.519 1.329,-7.006 2.193,-10.461 0.414,-1.653 1.127,-3.271 1.958,-4.764 0.446,-0.801 1.369,-1.401 2.186,-1.919 2.014,-1.277 4.161,-2.117 6.623,-2.254 1.928,-0.108 2.965,0.875 3.798,2.296 1.403,2.393 1.882,5.092 2.437,7.762 0.575,2.767 1.225,5.521 1.738,8.299 0.258,1.396 0.372,2.831 0.402,4.253 0.061,2.878 0.112,5.763 -0.007,8.638 -0.096,2.326 -0.47,4.641 -0.678,6.965 -0.194,2.171 -0.382,4.345 -0.48,6.522 -0.078,1.716 0.047,3.441 -0.029,5.158 -0.131,2.935 0.613,5.694 1.424,8.471 1.127,3.86 3.148,7.133 6.457,9.392 1.927,1.316 4.154,2.213 6.295,3.191 3.177,1.452 6.571,1.88 10.01,1.563 3.875,-0.355 7.748,-0.948 11.262,-2.739 4.258,-2.171 8.43,-4.51 12.641,-6.771 0.165,-0.089 0.355,-0.132 0.642,-0.236 0,1.367 -0.134,2.651 0.027,3.898 0.375,2.891 0.894,5.763 1.352,8.644 0.104,0.657 0.271,1.314 0.289,1.976 0.105,3.946 0.141,7.895 0.268,11.841 0.098,3.062 0.483,6.125 0.406,9.18 -0.117,4.635 -0.646,9.252 -3.075,13.361 -1.317,2.229 -3.514,3.267 -6.001,3.556 -1.488,0.174 -3.016,0.097 -4.519,0.008 -0.645,-0.037 -1.286,-0.354 -1.904,-0.607 -2.813,-1.148 -4.835,-0.923 -6.591,1.563 -2.241,3.175 -3.968,6.579 -5.027,10.303 -0.446,1.567 -0.257,3.188 0.463,4.668 1.509,3.101 2.99,6.221 4.637,9.248 1.842,3.388 3.02,6.97 3.584,10.759 0.683,4.589 1.262,9.193 1.947,13.782 0.362,2.426 0.921,4.822 1.274,7.249 0.434,2.983 0.766,5.982 1.104,8.979 0.489,4.344 0.919,8.693 1.418,13.035 0.372,3.232 0.79,6.46 1.236,9.684 0.124,0.892 0.437,1.756 0.634,2.64 0.582,2.615 2.786,3.638 4.778,4.848 1.083,0.658 1.464,1.566 1.563,2.805 0.446,5.552 1.405,10.989 5.195,15.375 2.317,2.682 5.25,4.678 8.223,6.609 4.004,2.604 8.438,3.951 13.066,4.796 1.708,0.312 3.437,0.516 5.159,0.751 3.268,0.447 7.471,-1.938 8.581,-4.943 0.267,-0.725 0.361,-1.563 0.328,-2.339 -0.104,-2.418 0.009,-4.909 -0.56,-7.225 -0.576,-2.347 -1.734,-4.587 -2.871,-6.751 -2.042,-3.887 -4.242,-7.691 -6.415,-11.508 -0.625,-1.097 -1.384,-2.116 -1.958,-2.986 0.505,-1.993 1.359,-3.891 1.355,-5.787 -0.003,-1.727 -0.781,-3.52 -1.494,-5.163 -2.11,-4.864 -4.396,-9.652 -6.54,-14.503 -2.189,-4.952 -4.249,-9.962 -6.456,-14.906 -0.676,-1.515 -0.564,-3.044 -0.481,-4.568 0.133,-2.451 0.395,-4.899 0.696,-7.337 0.384,-3.104 0.857,-6.197 1.302,-9.293 0.102,-0.704 0.271,-1.398 0.361,-2.104 0.177,-1.391 0.829,-2.459 1.816,-3.479 2.702,-2.794 5.853,-4.344 9.76,-4.938 4.212,-0.64 8.46,-0.763 12.656,-1.379 6.262,-0.92 12.54,-1.784 18.528,-4.032 5.052,-1.897 8.737,-5.213 11.561,-9.801 3.092,-5.024 4.672,-10.535 5.956,-16.172 0.615,-2.701 0.937,-5.47 1.367,-8.212 0.363,-2.309 0.704,-4.62 1.032,-6.934 0.338,-2.38 0.647,-4.764 1,-7.366 2.407,0.727 4.868,1.537 7.365,2.207 5.383,1.443 9.688,4.615 13.758,8.254 2.491,2.228 4.44,4.813 5.407,7.978 0.635,2.078 0.684,4.09 -1.161,6.022 -3.092,3.238 -6.74,5.54 -10.632,7.583 -1.016,0.533 -1.992,1.155 -2.932,1.814 -1.616,1.135 -1.943,3.178 -1.107,4.979 1.346,2.899 2.371,5.946 3.645,8.881 0.816,1.882 1.814,3.686 2.774,5.501 0.438,0.829 1.15,1.191 2.138,1.276 1.37,0.117 2.712,0.559 4.082,0.686 3.205,0.296 6.418,0.539 9.633,0.704 1.994,0.102 4.002,-0.06 5.997,0.04 3.218,0.16 6.434,0.389 9.642,0.679 3.955,0.358 7.911,0.731 11.848,1.243 3.773,0.49 7.535,1.096 11.279,1.781 3.108,0.568 6.157,1.501 9.278,1.953 3.366,0.486 6.749,0.981 10.195,0.135 2.479,-0.608 4.252,-2.056 5.882,-3.832 0.453,-0.494 0.838,-1.052 1.321,-1.666 0.654,0.47 1.282,0.871 1.854,1.34 5.229,4.288 11.299,6.579 17.897,7.737 4.175,0.733 8.363,1.096 12.585,0.889 1.349,-0.066 2.709,-0.481 3.995,-0.931 0.441,-0.154 0.94,-0.891 0.959,-1.379 0.114,-2.981 0.139,-5.969 0.108,-8.953 -0.018,-1.87 -0.19,-3.738 -0.28,-5.608 -0.158,-3.284 -0.988,-6.427 -2.227,-9.438 -0.809,-1.968 -2.616,-3.055 -4.432,-3.996 -5.625,-2.916 -11.418,-5.544 -16.854,-8.774 -3.717,-2.21 -7.444,-2.026 -11.368,-1.698 -2.42,0.202 -4.865,0.195 -7.268,0.517 -4.548,0.609 -9.101,1.243 -13.6,2.133 -4.864,0.962 -9.673,2.209 -14.496,3.374 -1.283,0.31 -2.53,0.774 -3.947,1.216 3.73,-4.737 6.445,-9.865 8.638,-15.284 1.262,-3.118 2.661,-6.19 3.732,-9.373 1.409,-4.187 2.66,-8.435 3.771,-12.711 0.493,-1.898 0.563,-3.925 0.674,-5.902 0.438,-7.799 -0.951,-15.379 -3.239,-22.769 -1.53,-4.94 -3.975,-9.476 -7.263,-13.559 -2.409,-2.992 -4.891,-5.857 -7.993,-8.156 -2.199,-1.629 -4.477,-1.825 -7.055,-0.965 -2.982,0.996 -6.025,1.844 -9.088,2.563 -3.182,0.746 -6.405,1.338 -9.636,1.836 -1.141,0.177 -2.354,-0.123 -3.438,-0.199 1.776,-1.87 3.564,-3.777 5.379,-5.658 3.048,-3.16 6.247,-6.188 9.133,-9.489 2.948,-3.371 5.712,-6.92 8.329,-10.556 1.452,-2.016 2.469,-4.351 3.628,-6.571 3.181,-6.09 5.335,-12.599 7.751,-19.003 1.419,-3.762 3.092,-7.429 4.662,-11.133 0.558,-1.317 1.396,-1.987 3.006,-1.946 3.268,0.083 6.565,-0.397 9.806,-0.117 4.354,0.375 8.835,0.868 12.492,3.576 1.438,1.065 2.341,2.852 3.496,4.303 2.546,3.2 3.647,7.097 5.228,10.766 0.828,1.921 1.675,3.844 2.675,5.677 1.392,2.549 3.844,3.819 6.41,4.878 0.361,0.149 0.762,0.202 1.322,0.344 -0.219,1.297 -0.431,2.611 -0.662,3.921 -0.876,4.947 -0.878,9.891 -0.041,14.847 0.651,3.854 1.642,7.599 3.789,10.905 0.901,1.388 2.048,2.65 3.24,3.808 1.419,1.376 3.058,1.357 4.746,0.001 5.052,-4.055 9.753,-8.434 12.988,-14.17 1.301,-2.307 1.615,-4.728 1.548,-7.337 -0.07,-2.717 -1.146,-5.004 -2.457,-7.235 -2.031,-3.46 -2.755,-7.231 -2.863,-11.174 -0.053,-1.913 -0.113,-3.825 -0.205,-5.736 -0.107,-2.236 -1.476,-3.851 -2.914,-5.324 -2.841,-2.909 -5.815,-5.688 -8.713,-8.543 -2.159,-2.128 -4.311,-4.267 -6.418,-6.447 -1.938,-2.006 -3.84,-4.051 -5.711,-6.121 -1.944,-2.151 -3.822,-4.363 -5.749,-6.53 -1.536,-1.729 -3.046,-3.485 -4.664,-5.134 -3.04,-3.101 -6.033,-6.266 -9.282,-9.135 -1.528,-1.35 -3.517,-2.334 -5.46,-3.016 -1.956,-0.686 -3.642,-0.659 -8.061,0.888 2.467,-6.192 -0.115,-11.471 -2.54,-16.485 1.489,-3.078 3.284,-5.915 4.24,-9.011 0.947,-3.066 1.152,-6.383 1.481,-9.61 0.205,-2.019 0.01,-4.077 0.045,-6.116 0.055,-3.192 0.131,-6.384 0.239,-9.575 0.177,-5.23 1.856,-9.935 5.041,-14.092 0.218,-0.283 0.486,-0.526 0.852,-0.917 2.281,1.821 4.544,3.649 6.832,5.447 2.327,1.828 4.695,3.606 7.017,5.442 2.265,1.79 4.493,3.624 6.736,5.44 0.093,0.075 0.157,0.197 0.261,0.246 2.501,1.188 2.744,3.262 2.584,5.752 -0.252,3.937 -0.06,7.884 0.91,11.747 0.82,3.27 2.678,6.054 4.196,9 1.988,3.855 4.922,6.715 8.805,8.6 1.604,0.778 3.235,1.654 5.089,1.372 0.8,-0.123 1.828,-0.47 2.245,-1.068 1.159,-1.666 2.233,-3.411 2.454,-5.555 0.421,-4.103 0.938,-8.196 1.465,-12.287 0.059,-0.453 0.338,-0.999 0.691,-1.274 2.363,-1.843 2.726,-4.177 1.473,-6.697 -1.461,-2.938 -3.171,-5.751 -4.742,-8.636 -0.268,-0.492 -0.584,-1.088 -0.531,-1.602 0.336,-3.345 -0.156,-6.584 -1.254,-9.715 -0.831,-2.369 -2.15,-4.308 -4.388,-5.82 -3.728,-2.52 -7.984,-4.01 -11.704,-6.488 -2.733,-1.821 -5.411,-3.73 -8.184,-5.487 -1.08,-0.684 -2.352,-1.066 -3.541,-1.575 -1.307,-0.559 -2.67,-1.01 -3.92,-1.674 -3.427,-1.819 -6.788,-3.762 -10.214,-5.586 -2.339,-1.246 -4.782,-2.298 -7.104,-3.573 -2.329,-1.279 -4.831,-1.125 -7.33,-1.226 -2.475,-0.099 -4.782,0.611 -7.072,1.361 -2.313,0.757 -3.553,2.692 -4.369,4.773 -1.423,3.623 -2.609,7.338 -3.899,11.012 -0.715,2.037 -1.258,4.16 -2.214,6.078 -0.965,1.937 -2.223,3.763 -3.57,5.465 -1.949,2.464 -4.076,4.789 -6.161,7.144 -3.151,3.557 -6.646,6.688 -10.951,8.828 -1.071,0.533 -1.923,0.623 -3.149,0.128 -5.125,-2.067 -10.349,-3.892 -15.522,-5.838 -4.037,-1.519 -8.1,-2.983 -12.072,-4.656 -5.141,-2.164 -10.207,-4.504 -15.3,-6.782 -2.018,-0.902 -4.02,-1.836 -6.057,-2.917 4.507,-0.078 7.826,-2.948 11.608,-4.696 2.301,-1.064 3.12,-0.964 4.256,1.254 1.847,3.604 4.789,4.637 8.608,4.643 4.587,0.007 7.608,-2.232 9.88,-5.905 0.354,-0.571 0.668,-1.167 1.024,-1.735 2.244,-3.569 1.32,-6.036 -0.959,-8.87 -0.096,-0.119 -0.188,-0.241 -0.433,-0.559 0.622,-0.105 1.091,-0.214 1.564,-0.26 1.815,-0.178 3.645,-0.259 5.442,-0.54 0.648,-0.102 1.385,-0.532 1.806,-1.041 1.561,-1.885 3.04,-3.839 4.481,-5.818 0.785,-1.079 0.958,-2.375 0.546,-3.625 -1.502,-4.548 -3.124,-9.073 -6.101,-12.899 -1.531,-1.969 -3.298,-3.856 -5.932,-4.37 -2.125,-0.415 -4.284,-0.648 -6.425,-0.99 -4.81,-0.768 -9.385,-2.312 -13.87,-4.173 -2.257,-0.937 -4.631,-1.617 -6.573,-3.189 -0.251,-0.204 -0.587,-0.47 -0.626,-0.744 -0.518,-3.646 -2.643,-5.856 -6.011,-7.14 -1.874,-0.714 -3.642,-1.707 -5.458,-2.571 -0.651,-0.31 -0.936,-0.795 -0.805,-1.527 0.049,-0.271 0.02,-0.559 0.005,-0.838 -0.096,-1.857 -1.096,-2.898 -2.944,-2.83 -1.941,0.07 -3.877,0.311 -5.844,0.48 0.433,-1.5 0.874,-2.913 1.245,-4.344 0.449,-1.736 -0.912,-3.419 -2.688,-3.388 -4.174,0.072 -7.842,1.721 -11.395,3.694 -0.955,0.53 -1.827,1.211 -2.778,1.85 C 152.715,9.363 152.224,7.78 151.669,6.22 151.22,4.954 150.72,3.705 150.196,2.468 149.695,1.278 148.785,0.486 147.6,0 c 63.28,0 126.561,0 189.84,0 0,152.561 0,305.12 0,457.681 -112.479,0 -224.959,0 -337.439,0 C 0,381.44 0,305.2 0,228.96 Z"
               style="clip-rule:evenodd;fill:none;fill-rule:evenodd"
               inkscape:connector-curvature="0" />
            <path
               id="path6771"
               d="m 146.4,0 c -2.581,0.982 -4.396,2.949 -6.088,4.977 -2.341,2.805 -4.545,5.727 -6.729,8.657 -0.577,0.774 -1.078,1.725 -1.246,2.662 -0.484,2.69 -2.473,3.871 -4.633,4.822 -2.517,1.108 -5.08,2.137 -7.688,3.002 -3.45,1.146 -5.711,3.099 -6.146,6.962 -0.132,1.176 -0.984,2.43 -1.837,3.339 -2.829,3.017 -5.96,5.698 -9.336,8.119 -2.564,1.838 -5.457,3.394 -7.195,6.148 -0.929,1.471 -1.607,3.158 -2.096,4.836 -1.127,3.866 -2.38,7.647 -4.521,11.106 -1.619,2.614 -2.507,5.393 -1.612,8.564 0.468,1.657 0.547,3.423 0.811,5.139 0.461,3.001 -0.922,5.39 -2.603,7.644 -1.017,1.363 -1.739,2.775 -1.993,4.498 -0.25,1.701 -1.008,3.338 -1.167,5.039 -0.205,2.198 -0.043,4.431 -0.027,6.649 0.017,2.289 0.519,4.495 1.541,6.52 1.902,3.77 3.884,7.503 6.523,10.837 2.166,2.736 3.123,5.858 2.454,9.293 -0.719,3.693 0.325,6.69 2.937,9.301 4.97,4.97 9.552,10.286 13.897,15.808 2.644,3.358 5.282,6.722 7.934,10.074 2.558,3.235 6.088,4.695 10.003,5.448 0.579,0.111 1.14,0.322 1.72,0.414 1.072,0.171 1.869,-0.307 2.396,-1.212 0.547,-0.942 -0.221,-1.459 -0.733,-2.047 -1.091,-1.254 -2.21,-2.486 -3.255,-3.777 -0.282,-0.348 -0.473,-0.875 -0.481,-1.323 -0.046,-2.468 -0.022,-4.938 -0.022,-7.244 0.883,1.574 1.796,3.423 2.913,5.141 1.64,2.524 3.081,5.319 5.226,7.341 3.354,3.161 7.199,5.808 10.889,8.603 2.796,2.119 5.677,4.125 8.512,6.194 0.142,0.104 0.236,0.313 0.29,0.491 1.345,4.533 1.398,9.023 -0.42,13.461 -1.867,4.557 -3.666,9.143 -5.588,13.676 -1.212,2.858 -2.553,5.665 -3.914,8.457 -2.863,5.877 -5.66,11.792 -8.701,17.577 -3.414,6.492 -7.076,12.854 -10.609,19.284 -0.702,1.278 -1.417,2.568 -1.938,3.925 -1.199,3.125 -3.647,5.131 -6.193,7.007 -1.149,0.847 -2.52,1.608 -3.896,1.885 -2.324,0.466 -4.046,-0.99 -5.424,-2.642 -1.98,-2.372 -2.573,-5.315 -2.717,-8.288 -0.159,-3.272 -0.172,-6.565 0.002,-9.836 0.165,-3.112 0.653,-6.209 0.998,-9.313 0.135,-1.219 0.308,-2.435 0.39,-3.657 0.189,-2.813 0.276,-5.633 0.512,-8.441 0.241,-2.877 0.639,-5.74 0.909,-8.615 0.152,-1.622 0.201,-3.254 0.267,-4.882 0.097,-2.386 0.128,-4.776 0.257,-7.161 0.243,-4.482 -0.734,-8.819 -1.542,-13.171 -0.538,-2.896 -1.086,-5.801 -1.854,-8.641 -1.058,-3.912 -2.504,-7.678 -4.572,-11.208 -1.932,-3.3 -4.464,-6.122 -7.177,-8.696 -2.112,-2.003 -4.756,-3.501 -7.307,-4.977 -5.144,-2.976 -10.694,-5.079 -16.55,-5.953 -3.971,-0.593 -8.028,-0.588 -12.104,0.018 -5.537,0.822 -10.669,2.846 -15.92,4.553 -0.45,0.146 -0.926,0.319 -1.388,0.311 -2.703,-0.047 -5.435,0.076 -8.101,-0.28 -3.598,-0.479 -3.76,-2.575 -3.046,-6.121 0.145,-0.717 0.596,-1.373 1.067,-2.412 -0.878,0.102 -1.806,-0.074 -2.262,0.311 -2.568,2.159 -5.358,4.13 -6.923,7.259 -2.029,4.059 -2.201,7.623 1.33,11.125 -1.427,1.124 -3.007,2.09 -4.226,3.394 -1.912,2.045 -3.669,4.252 -5.327,6.513 -1.794,2.448 -3.573,4.938 -5.032,7.59 -1.334,2.423 -2.429,5.023 -3.278,7.659 -1.209,3.757 -2.241,7.585 -3.079,11.442 -0.685,3.151 -0.971,6.39 -1.443,9.587 -0.042,0.285 -0.155,0.56 -0.235,0.84 C 0,142.4 0,71.2 0,0 48.8,0 97.6,0 146.4,0 Z"
               style="clip-rule:evenodd;fill:none;fill-rule:evenodd"
               inkscape:connector-curvature="0" />
            <path
               id="path6773"
               d="m 166.155,42.699 c -1.396,-0.367 -2.802,-0.702 -4.186,-1.112 -0.976,-0.29 -1.009,-1.041 -0.403,-1.63 1.383,-1.346 2.813,-2.661 4.343,-3.833 1.005,-0.771 1.767,-0.552 2.276,0.634 0.499,1.163 0.751,2.44 1.025,3.686 0.271,1.239 -0.397,1.85 -1.571,1.989 -0.472,0.056 -0.952,0.056 -1.427,0.081 -0.019,0.061 -0.038,0.123 -0.057,0.185 z"
               style="clip-rule:evenodd;fill:none;fill-rule:evenodd"
               inkscape:connector-curvature="0" />
          </g>
        </g>
      </g>
      <g
         id="Ebene_1-5" />
    </g>
  </g>
</svg>
