<?xml version="1.0" encoding="UTF-8" standalone="no"?>
<!-- Created with Inkscape (http://www.inkscape.org/) -->

<svg
   xmlns:dc="http://purl.org/dc/elements/1.1/"
   xmlns:cc="http://creativecommons.org/ns#"
   xmlns:rdf="http://www.w3.org/1999/02/22-rdf-syntax-ns#"
   xmlns:svg="http://www.w3.org/2000/svg"
   xmlns="http://www.w3.org/2000/svg"
   xmlns:sodipodi="http://sodipodi.sourceforge.net/DTD/sodipodi-0.dtd"
   xmlns:inkscape="http://www.inkscape.org/namespaces/inkscape"
   width="116.73953mm"
   height="117.0573mm"
   viewBox="0 0 116.73953 117.0573"
   version="1.1"
   id="svg8"
   inkscape:version="0.92.3 (2405546, 2018-03-11)"
   sodipodi:docname="borderEmblem5.svg">
  <defs
     id="defs2" />
  <sodipodi:namedview
     id="base"
     pagecolor="#ffffff"
     bordercolor="#666666"
     borderopacity="1.0"
     inkscape:pageopacity="0.0"
     inkscape:pageshadow="2"
     inkscape:zoom="1.979899"
     inkscape:cx="61.189708"
     inkscape:cy="219.24012"
     inkscape:document-units="mm"
     inkscape:current-layer="layer1"
     showgrid="false"
     fit-margin-top="5"
     fit-margin-left="5"
     fit-margin-right="5"
     fit-margin-bottom="5"
     inkscape:window-width="1920"
     inkscape:window-height="1017"
     inkscape:window-x="1912"
     inkscape:window-y="-8"
     inkscape:window-maximized="1" />
  <metadata
     id="metadata5">
    <rdf:RDF>
      <cc:Work
         rdf:about="">
        <dc:format>image/svg+xml</dc:format>
        <dc:type
           rdf:resource="http://purl.org/dc/dcmitype/StillImage" />
        <dc:title />
      </cc:Work>
    </rdf:RDF>
  </metadata>
  <g
     inkscape:label="Layer 1"
     inkscape:groupmode="layer"
     id="layer1"
     transform="translate(437.85865,32.867341)">
    <g
       id="g6851"
       transform="matrix(0.26458333,0,0,0.26458333,-419.70933,-21.224439)">
      <g
         id="Lion">
        <g
           id="g6831">
          <g
             id="g6829">
            <path
               id="path6821"
               d="M 0,170.15 C 0,113.437 0,56.724 0,0 c 103.181,0 206.362,0 309.571,0 0,122.07 0,244.15 0,366.23 -57.105,0 -114.219,0 -171.332,0 -0.076,-0.476 -0.114,-0.961 -0.244,-1.421 -0.07,-0.25 -0.384,-0.437 -0.437,-0.685 -0.374,-1.761 0.406,-4.613 2.085,-5.695 2.008,-1.294 2.313,-3.583 0.812,-5.465 -1.436,-1.8 -1.765,-4.814 -0.48,-6.408 0.605,-0.75 1.61,-1.207 2.486,-1.704 0.856,-0.486 1.514,-0.08 1.428,0.872 -0.121,1.343 -0.282,2.688 -0.525,4.013 -0.406,2.216 0.393,3.879 2.19,4.373 1.149,0.316 1.435,0.821 1.189,2.039 -0.133,0.661 -0.287,1.327 -0.328,1.997 -0.056,0.924 0.493,1.122 1.246,0.801 2.489,-1.063 3.978,-3.971 3.561,-6.738 -0.121,-0.797 -0.006,-1.628 -0.036,-2.442 -0.023,-0.647 0.097,-1.406 -0.195,-1.916 -0.635,-1.105 -0.072,-1.742 0.661,-2.337 1.444,-1.172 2.955,-2.263 4.395,-3.44 3.649,-2.984 7.287,-5.984 10.898,-9.015 0.534,-0.448 0.83,-0.519 1.387,-0.02 2.745,2.463 5.95,3.719 9.678,3.422 1.703,-0.136 3.229,-0.637 4.206,-2.423 -3.821,-1.563 -4.652,-5.364 -6.674,-8.122 1.741,0.081 3.404,0.281 5.051,0.188 0.973,-0.056 2.011,-0.425 2.857,-0.926 1.517,-0.896 1.384,-2 -0.193,-2.803 -1.411,-0.717 -2.812,-1.454 -4.218,-2.182 -1.322,-0.684 -1.776,-1.799 -1.388,-3.174 0.367,-1.298 0.028,-2.445 -0.762,-3.351 -1.56,-1.789 -3.237,-3.479 -4.929,-5.146 -1.91,-1.884 -3.628,-3.834 -4.27,-6.566 -0.603,-2.571 -1.359,-5.107 -2.113,-7.64 -0.222,-0.745 -0.661,-1.426 -1.104,-2.35 1.225,0.372 2.18,0.773 3.174,0.919 0.539,0.08 1.258,-0.139 1.667,-0.489 0.209,-0.18 0.058,-1.037 -0.186,-1.431 -0.495,-0.801 -1.136,-1.519 -1.767,-2.227 -0.608,-0.683 -1.442,-1.212 -1.896,-1.976 -2.062,-3.466 -2.964,-7.307 -3.203,-11.289 -0.146,-2.426 0.159,-2.614 2.325,-1.582 2.812,1.342 5.574,2.789 8.34,4.227 2.481,1.29 5.003,2.522 7.394,3.967 5.528,3.341 11.008,6.744 17.016,9.205 6.338,2.597 12.815,3.065 19.393,1.313 2.463,-0.655 4.817,-1.764 7.153,-2.815 0.798,-0.358 1.391,-1.175 2.076,-1.782 -0.065,-0.181 -0.13,-0.361 -0.195,-0.541 -2.115,-0.063 -4.235,-0.055 -6.345,-0.206 -1.949,-0.141 -4.859,-0.421 -5.839,-1.254 2.057,-0.207 4.263,-0.537 6.479,-0.63 4.711,-0.198 8.713,-2.327 12.711,-4.484 0.452,-0.243 0.741,-0.791 1.105,-1.197 -0.067,-0.11 -0.135,-0.221 -0.202,-0.332 -5.139,0.908 -10.295,1.205 -15.423,0.847 1.993,-1.091 3.982,-2.047 5.832,-3.222 3.056,-1.94 6.132,-3.891 8.204,-7.002 3.632,-5.455 6.579,-11.205 7.427,-17.806 0.236,-1.847 0.396,-3.759 0.194,-5.598 -0.571,-5.21 -2.615,-10.147 -2.918,-15.437 -0.097,-1.69 0.038,-3.131 0.909,-4.618 1.35,-2.299 3.539,-3.602 5.598,-5.029 2.813,-1.952 6.146,-2.57 9.452,-3.083 2.956,-0.458 5.901,-0.818 8.74,-1.9 3.923,-1.496 6.779,-4.037 8.776,-7.719 1.646,-3.036 1.167,-6.201 0.96,-9.438 -0.452,0.304 -0.823,0.642 -1.024,1.062 -2.211,4.589 -6.488,6.169 -10.933,7.38 -2.497,0.681 -5.106,0.936 -7.642,1.49 -4.485,0.981 -8.72,2.358 -12.447,5.363 -3.786,3.053 -5.912,6.834 -6.974,11.304 -2.073,-2.359 -4.182,-4.84 -6.382,-7.235 -2.13,-2.319 -4.342,-4.564 -6.542,-6.817 -3.633,-3.722 -6.971,-7.674 -9.37,-12.319 -0.898,-1.741 -1.729,-3.552 -2.291,-5.42 -0.473,-1.568 -0.548,-3.264 -0.734,-4.91 -0.304,-2.672 -0.069,-5.321 0.885,-7.83 1.673,-4.402 5.051,-7.511 8.436,-10.552 7.928,-7.125 17.688,-9.805 27.913,-11.269 3.086,-0.442 6.04,-1.141 8.464,-3.304 -0.407,-0.099 -0.788,-0.277 -1.166,-0.269 -1.922,0.042 -3.844,0.198 -5.765,0.188 -2.591,-0.015 -5.186,-0.075 -7.77,-0.247 -2.368,-0.158 -4.752,-0.34 -7.078,-0.781 -3.75,-0.712 -7.499,-1.148 -11.325,-1.202 -4.429,-0.062 -8.388,1.179 -11.916,3.755 -1.992,1.455 -3.823,3.128 -5.546,4.554 0.678,-2.219 4.479,-7.94 6.788,-10.214 5.239,-5.159 11.9,-6.911 18.929,-7.588 5.045,-0.486 9.944,0.904 14.91,1.459 4.101,0.459 8.211,0.84 12.326,1.138 3.894,0.283 6.857,-1.385 8.826,-4.728 0.44,-0.748 0.575,-1.675 0.851,-2.52 -0.122,-0.054 -0.245,-0.107 -0.367,-0.161 -0.472,0.277 -0.964,0.526 -1.413,0.836 -2.149,1.487 -4.609,2.203 -7.122,1.938 -2.96,-0.312 -5.948,-0.872 -8.778,-1.777 -6.221,-1.989 -12.562,-3.388 -19.046,-3.804 -4.146,-0.266 -8.363,0.021 -12.508,0.456 -4.321,0.453 -8.311,2.094 -11.773,4.796 -1.745,1.361 -3.394,2.846 -5.01,4.211 -0.008,0.021 0.016,-0.091 0.072,-0.181 4.081,-6.432 9.456,-11.583 15.696,-15.882 7.921,-5.457 16.827,-8.137 26.293,-8.769 5.944,-0.397 11.913,-0.049 17.715,1.81 5.022,1.609 10.188,2.775 15.202,4.411 4.232,1.381 8.383,3.01 12.833,3.556 4.013,0.493 7.839,-0.131 11.351,-2.229 0.661,-0.395 1.254,-0.903 1.878,-1.359 -0.048,-0.09 -0.095,-0.179 -0.143,-0.269 -3.023,1.061 -6.01,0.308 -8.994,0.04 3.521,-1.207 6.823,-2.735 9.888,-4.816 -0.52,-0.138 -0.973,-0.096 -1.416,-0.005 -1.079,0.223 -2.149,0.639 -3.232,0.676 -4.309,0.147 -8.34,-1.073 -12.044,-3.134 -3.327,-1.851 -6.567,-3.828 -10.541,-4.894 0.482,-0.182 0.688,-0.299 0.908,-0.336 3.567,-0.604 6.93,-1.557 10.123,-3.495 3.936,-2.389 6.694,-5.636 8.476,-9.7 1.241,-2.831 2.093,-5.854 2.889,-8.853 0.899,-3.39 1.753,-6.817 2.241,-10.283 0.559,-3.97 0.625,-8.006 1.039,-12 0.269,-2.591 0.961,-5.103 2.309,-7.376 2.091,-3.528 4.25,-7.017 6.279,-10.58 0.661,-1.162 1.007,-2.504 1.54,-3.875 -2.149,2.228 -4.129,4.348 -6.185,6.391 -2.063,2.05 -4.201,4.023 -6.623,6.331 0.098,-2.062 -0.108,-3.896 0.318,-5.568 1.226,-4.806 3.042,-9.336 7.322,-12.387 0.802,-0.572 1.472,-1.329 2.203,-2.001 -4.031,0.69 -7.74,1.938 -10.739,4.671 -2.564,2.338 -4.594,5.056 -5.426,8.495 -1.98,-1.787 -3.858,-3.63 -6.384,-4.555 -3.139,-1.149 -6.401,-0.847 -9.572,-0.421 -5.233,0.703 -9.985,2.802 -14.17,6.028 -4.063,3.132 -8.023,6.398 -12.022,9.613 -2.885,2.32 -6.05,3.968 -9.826,4.215 -1.482,0.097 -2.961,0.252 -4.691,0.402 0.45,0.465 0.727,0.996 1.135,1.131 1.529,0.507 3.088,1.183 4.66,1.25 3.372,0.146 6.535,-0.933 9.563,-2.369 1.119,-0.531 2.215,-1.111 3.321,-1.668 -0.016,0.608 -0.136,1.149 -0.472,1.435 -3.848,3.266 -8.333,5.271 -13.18,6.529 -0.913,0.237 -1.843,0.409 -2.765,0.611 0.027,0.119 0.055,0.238 0.082,0.356 5.772,1.314 10.856,-0.825 15.917,-3.383 0.039,0.181 0.078,0.322 0.102,0.466 0.46,2.808 1.388,5.389 3.726,7.208 1.309,1.018 2.793,1.823 4.025,2.919 1.672,1.486 3.567,1.518 5.896,1.319 -0.294,-0.468 -0.424,-0.867 -0.698,-1.071 -0.734,-0.544 -1.593,-0.932 -2.29,-1.515 -1.238,-1.035 -2.395,-2.168 -3.702,-3.368 0.39,-0.144 0.435,-0.178 0.459,-0.167 0.32,0.147 0.631,0.314 0.956,0.449 2.585,1.078 5.124,2.418 8.005,2.378 3.371,-0.046 6.548,-0.985 9.42,-2.768 0.634,-0.394 1.078,-1.131 1.521,-1.772 0.161,-0.233 0.063,-0.645 0.083,-0.975 -0.324,0.042 -0.678,0.014 -0.969,0.135 -2.997,1.256 -6.039,2.29 -9.36,2.04 -0.498,-0.038 -0.989,-0.165 -1.565,-0.264 1.768,-0.46 3.403,-0.866 5.028,-1.314 2.572,-0.709 4.333,-2.451 5.664,-4.655 0.314,-0.521 0.319,-1.23 0.528,-2.118 -0.554,0.256 -0.801,0.354 -1.031,0.48 -1.008,0.551 -1.992,1.149 -3.02,1.659 -2.43,1.207 -5.005,1.268 -7.641,0.944 -2.744,-0.338 -3.581,-1.43 -3.076,-4.16 0.028,-0.156 0.02,-0.318 0.039,-0.477 0.35,-2.895 1.924,-5.196 4.317,-6.517 4.151,-2.291 8.38,-2.392 12.497,0.556 3.258,2.332 4.996,5.438 5.502,9.285 0.523,3.979 0.844,7.982 0.387,11.998 -0.201,1.77 -0.229,3.612 -0.775,5.278 -0.806,2.462 -1.859,4.872 -3.073,7.163 -1.191,2.248 -2.696,4.399 -4.847,5.826 -5.196,3.448 -11.013,5.509 -17.015,7.019 -3.669,0.923 -7.39,1.66 -11.112,2.341 -2.035,0.373 -4.124,0.458 -6.188,0.672 -0.097,-0.092 -0.194,-0.185 -0.292,-0.277 2.901,-3.912 2.717,-8.238 2.143,-12.691 -0.575,-4.467 -2.541,-8.247 -5.085,-11.815 0.173,1.985 0.663,3.923 0.686,5.867 0.022,1.926 -0.279,3.892 -0.711,5.777 -0.42,1.838 -1.186,3.598 -1.8,5.392 -0.106,-0.03 -0.213,-0.06 -0.319,-0.09 0.111,-2.74 -0.162,-5.403 -1.47,-8.099 -1.033,3.196 -2.833,5.667 -4.92,7.865 -3.084,3.249 -6.794,5.76 -10.648,8 -2.426,1.41 -5.021,2.524 -7.538,3.778 -5.37,2.676 -10.268,5.977 -14.737,10.046 -5.65,5.144 -10.032,10.989 -12.711,18.203 -1.861,5.013 -2.646,10.129 -2.548,15.396 0.076,4.109 0.61,8.2 1.951,12.114 0.877,2.56 1.822,5.116 2.986,7.555 1.764,3.691 3.533,7.41 5.681,10.881 3.596,5.813 7.554,11.39 11.964,16.64 3.723,4.432 7.257,9.02 10.942,13.482 4.226,5.119 8.409,10.265 11.67,16.079 0.648,1.155 1.509,2.36 1.638,3.607 0.363,3.532 0.961,7.073 0.233,10.659 -0.693,3.415 -1.302,6.797 -3.51,9.688 -3.261,4.27 -7.28,7.474 -12.262,9.515 -3.388,1.388 -6.915,1.203 -10.444,1.214 -1.317,0.003 -2.604,-0.202 -3.56,-1.072 -0.945,-0.86 -1.947,-1.872 -2.371,-3.021 -0.316,-0.858 0.127,-2.081 0.445,-3.073 0.905,-2.821 2.042,-5.573 1.294,-8.654 -0.609,-2.509 -1.293,-4.951 -3.568,-6.699 2.5,4.319 2.128,8.462 -0.608,12.592 -0.268,-0.96 -0.471,-1.825 -0.748,-2.665 -1.674,-5.071 -4.072,-9.727 -7.26,-14.06 -2.443,-3.321 -4.695,-6.922 -4.654,-11.319 0.017,-1.875 0.321,-3.746 0.468,-5.621 0.032,-0.411 -0.052,-0.831 -0.083,-1.247 -0.396,0.19 -0.888,0.287 -1.171,0.584 -2.69,2.816 -2.657,6.364 -2.148,9.794 0.772,5.207 2.96,10.01 5.049,14.803 1.475,3.383 2.57,6.816 2.235,10.563 -0.041,0.46 -0.073,1.028 -0.345,1.343 -1.432,1.658 -3.396,2.831 -5.731,1.28 -3.46,-2.298 -5.93,-5.489 -7.544,-9.206 -1.838,-4.233 -3.37,-8.613 -4.814,-13.002 -1.122,-3.411 -1.986,-6.896 -3.773,-10.063 -0.327,-0.579 -0.422,-1.431 -0.301,-2.097 0.892,-4.902 1.465,-9.822 1.41,-14.816 -0.075,-6.863 0.184,-13.732 -0.709,-20.571 -0.376,-2.879 -0.48,-5.792 -0.835,-8.675 -0.368,-2.987 -0.885,-5.958 -1.347,-8.933 -0.497,-3.208 -0.891,-6.438 -1.541,-9.614 -0.799,-3.902 -1.853,-7.752 -2.729,-11.639 -0.785,-3.491 -1.521,-7.007 -0.753,-10.604 0.327,-1.536 0.432,-3.331 1.317,-4.488 1.319,-1.724 3.24,-2.986 4.661,-4.232 0.237,1.704 0.551,3.961 0.9,6.47 0.542,-0.292 1.118,-0.461 1.501,-0.832 1.829,-1.771 3.678,-3.53 5.377,-5.422 1.268,-1.413 2.512,-2.915 3.414,-4.57 1.136,-2.081 0.775,-4.467 0.418,-6.689 -0.465,-2.885 -0.943,-5.82 -2.997,-8.443 4.633,1.348 8.963,2.005 13.365,-0.125 -1.425,-2.623 -2.858,-5.029 -3.936,-7.959 1.662,0.65 2.955,1.121 4.22,1.659 2.389,1.017 4.81,1.976 7.121,3.148 1.39,0.706 2.118,0.627 2.692,-0.842 0.158,-0.404 0.254,-0.832 0.4,-1.241 1.361,-3.784 1.487,-7.617 0.253,-11.435 -0.55,-1.7 -1.387,-3.307 -2.113,-5.003 0.876,0 1.79,-0.006 2.704,0.001 3.061,0.023 6.12,0.099 9.117,-0.729 2.836,-0.784 5.726,-1.418 7.807,-3.776 0.792,-0.897 0.738,-1.423 -0.352,-1.967 -0.308,-0.154 -0.646,-0.246 -1.081,-0.407 0.6,-0.122 1.099,-0.194 1.581,-0.327 3.362,-0.924 6.753,-1.767 10.064,-2.849 1.105,-0.361 2.402,-0.806 3.12,-2.204 -2.904,-1.147 -4.732,-3.406 -6.74,-5.798 0.371,0.086 0.53,0.097 0.667,0.159 2.625,1.176 5.394,1.494 8.226,1.31 0.499,-0.032 0.974,-0.414 1.46,-0.634 -0.188,-0.366 -0.35,-0.749 -0.57,-1.094 -0.19,-0.299 -0.427,-0.576 -0.676,-0.831 -4.146,-4.247 -5.1,-9.343 -3.901,-14.962 0.912,-4.278 2.111,-8.427 1.66,-12.971 -0.534,-5.376 -2.161,-9.981 -6.325,-13.54 -0.331,-0.283 -0.625,-0.61 -0.941,-0.923 2.77,-0.309 5.388,-0.518 7.979,-0.91 2.935,-0.445 5.706,-1.427 8.037,-3.328 0.743,-0.605 1.251,-1.5 1.866,-2.262 -0.092,-0.12 -0.185,-0.239 -0.276,-0.359 -0.426,0 -0.852,-0.014 -1.276,0.002 -4.626,0.179 -8.863,-1.217 -12.829,-3.409 -4.219,-2.332 -8.76,-3.733 -13.363,-4.956 -1.489,-0.395 -3.113,-0.28 -4.823,-0.41 0.33,-0.271 0.567,-0.457 0.795,-0.654 2.538,-2.188 4.492,-4.736 4.963,-8.173 0.054,-0.395 0.038,-1.113 -0.113,-1.162 -0.429,-0.139 -0.958,-0.067 -1.423,0.036 -0.334,0.074 -0.637,0.317 -0.938,0.507 -5.326,3.344 -11.119,5.008 -17.422,5.06 -3.302,0.027 -6.652,0.024 -9.891,0.572 -4.744,0.801 -8.843,3.13 -12.327,6.497 -0.254,0.246 -0.805,0.364 -1.165,0.29 -1.548,-0.318 -3.065,-0.778 -4.611,-1.1 -4.03,-0.836 -8.015,-1.927 -12.178,-2.004 -1.976,-0.037 -3.226,0.655 -3.996,2.512 -1.566,3.777 -1.802,7.772 -1.919,11.785 -0.064,2.211 1.078,3.786 3.169,4.467 0.628,0.205 1.224,0.508 1.854,0.775 -0.066,0.658 -0.306,1.307 -0.143,1.829 0.244,0.78 0.652,1.608 1.244,2.128 0.208,0.183 1.188,-0.441 1.766,-0.783 0.33,-0.195 0.516,-0.636 0.846,-0.833 0.308,-0.183 0.82,-0.375 1.073,-0.242 2.62,1.379 5.23,2.782 7.791,4.27 1.127,0.655 1.107,1.43 0.288,2.409 -1.279,1.531 -2.889,1.122 -4.395,0.707 -3.158,-0.871 -6.275,-1.891 -9.408,-2.854 -3.077,-0.946 -4.207,-0.26 -4.79,2.916 -0.015,0.078 -0.013,0.16 -0.017,0.239 -0.082,1.909 -0.105,3.823 -0.26,5.726 -0.202,2.5 0.864,4.372 2.804,5.756 0.671,0.479 1.723,1.021 2.381,0.819 3.039,-0.931 6.133,-0.837 9.217,-0.756 1.123,0.029 2.384,0.351 3.307,0.956 0.96,0.63 1.631,1.733 2.353,2.686 1.528,2.013 1.799,4.042 0.28,5.481 -1.21,1.146 -2.845,2.066 -4.451,2.526 -3.047,0.873 -6.194,1.438 -9.328,1.957 -3.151,0.521 -6.336,0.836 -9.507,1.232 -1.294,0.162 -2.588,0.339 -3.888,0.443 -1.772,0.142 -3.55,0.219 -5.196,0.316 -0.921,-3.333 -2.16,-6.284 -4.134,-8.904 -0.617,-0.819 -1.233,-1.646 -1.76,-2.523 -1.116,-1.855 -2.229,-3.717 -3.24,-5.63 -1.365,-2.581 -3.416,-4.791 -4.133,-7.734 -0.093,-0.381 -0.815,-0.869 -1.213,-0.841 -0.375,0.026 -0.99,0.654 -1.009,1.042 -0.123,2.421 -0.118,4.849 -0.137,7.275 -0.015,1.803 -0.003,3.605 -0.003,5.767 -0.76,-0.994 -1.415,-1.654 -1.838,-2.439 -2.34,-4.338 -4.657,-8.689 -6.9,-13.078 -0.442,-0.866 -0.867,-1.571 -1.893,-1.49 -1.093,0.087 -1.557,0.964 -1.73,1.882 -0.467,2.478 -0.839,4.973 -1.241,7.463 -0.186,1.152 -0.352,2.308 -0.554,3.64 -1.425,-1.891 -2.208,-1.824 -3.265,-0.018 -1.11,1.897 -2.769,3.215 -4.718,4.318 C 94.597,63.075 93.942,62.17 93.078,61.56 89.024,58.697 84.934,55.88 80.813,53.115 77.967,51.205 75.023,49.443 72.168,47.547 68.845,45.341 65.531,43.118 62.294,40.789 60.94,39.815 59.448,38.75 58.646,37.364 57.622,35.595 57.682,33.361 58.426,31.445 59.318,29.147 60.415,26.883 61.74,24.807 64.526,20.441 64.366,14.366 60.486,10.889 60.229,10.659 60,10.222 60.012,9.891 60.124,6.958 58.878,4.657 56.759,2.768 54.894,1.105 52.591,0.485 50.179,0.267 c -0.381,-0.034 -0.965,0.38 -1.164,0.745 -0.136,0.25 0.145,0.847 0.396,1.163 0.695,0.874 1.54,1.633 2.203,2.528 0.851,1.151 1.837,2.287 1.653,3.941 -0.465,0.078 -0.892,0.15 -1.32,0.22 -2.411,0.392 -4.047,2.031 -3.888,4.444 0.13,1.974 0.645,3.96 1.25,5.857 0.868,2.72 1.993,5.36 1.473,8.307 -1.26,0.616 -1.798,-0.328 -2.303,-1.142 -1.306,-2.106 -2.39,-4.369 -3.858,-6.35 -2.142,-2.891 -5.169,-4.203 -8.496,-3.69 -0.432,0.067 -1.009,0.002 -1.345,-0.242 -1.87,-1.361 -3.884,-1.825 -6.215,-1.717 -3.145,0.145 -4.954,1.862 -6.229,4.45 -0.133,0.271 -0.044,0.651 -0.058,0.981 0.404,-0.012 0.825,0.041 1.209,-0.053 0.447,-0.108 0.884,-0.539 1.288,-0.493 2.112,0.239 4.106,0.873 5.732,2.313 0.249,0.221 0.35,0.742 0.327,1.112 -0.074,1.225 -0.332,2.442 -0.344,3.665 -0.023,2.358 1.635,4.355 3.563,4.813 2.693,0.638 5.069,1.935 7.393,3.354 0.612,0.374 1.136,0.894 1.791,1.418 -0.232,0.059 -0.274,0.083 -0.31,0.076 -3.407,-0.686 -6.81,-1.368 -9.948,0.923 -0.161,0.117 -0.464,0.038 -0.702,0.053 -1.282,0.084 -2.592,0.032 -3.84,0.285 -2.676,0.542 -5.613,4.631 -5.348,7.34 0.042,0.425 0.385,0.82 0.588,1.229 0.293,-0.215 0.584,-0.431 0.878,-0.645 0.224,-0.163 0.431,-0.361 0.677,-0.477 1.644,-0.771 3.369,-1.119 5.198,-0.996 0.112,0.254 0.217,0.468 0.304,0.688 1.329,3.362 3.818,5.073 7.453,5.042 1.387,-0.012 2.786,-0.307 4.157,-0.194 2.315,0.19 4.606,0.641 6.917,0.906 1.285,0.147 1.593,0.902 1.356,1.966 -0.167,0.746 -0.417,1.53 -0.841,2.152 -1.351,1.983 -2.801,3.899 -4.363,6.048 4.058,1.563 8.099,0.953 12.418,-0.674 -0.263,1.085 -0.257,1.957 -0.657,2.559 -1.662,2.501 -3.449,4.918 -5.18,7.374 -0.234,0.332 -0.406,0.708 -0.607,1.063 0.427,0.137 0.847,0.304 1.283,0.399 0.267,0.059 0.558,0.02 0.837,0.003 2.682,-0.156 5.374,-0.552 8.042,-0.425 4.58,0.219 8.6,1.856 11.475,5.667 0.857,1.136 0.526,2.863 -0.65,3.694 -2.971,2.098 -6.338,1.835 -9.635,1.462 -1.795,-0.203 -3.524,-0.997 -5.571,-1.61 0.11,0.604 0.053,1.237 0.331,1.638 0.904,1.307 1.786,2.687 2.943,3.749 1.912,1.756 3.957,3.392 6.083,4.883 2.463,1.729 5.176,2.979 8.242,3.287 1.282,0.129 2.555,0.346 3.832,0.523 0.032,0.148 0.063,0.296 0.094,0.445 -3.938,1.625 -7.877,3.249 -12.095,4.988 0.831,0.442 1.529,0.958 2.312,1.204 2.732,0.857 5.546,1.478 8.23,2.459 2.922,1.069 5.229,2.903 6.021,6.172 0.362,1.494 0.021,2.088 -1.466,1.932 -1.205,-0.127 -2.432,-0.316 -3.575,-0.698 -2.087,-0.696 -4.119,-1.555 -6.175,-2.345 -0.837,-0.322 -1.884,-0.715 -2.375,0.186 -0.368,0.675 -0.361,1.802 -0.062,2.542 0.688,1.709 1.623,3.325 2.519,4.944 1.133,2.049 2.333,4.041 4.337,5.419 1.379,0.949 2.673,2.02 4.224,3.203 -5.064,0.949 -9.852,1.91 -14.142,5.746 0.615,0.379 1.176,0.752 1.762,1.083 2.496,1.411 5.035,2.75 7.486,4.234 1.387,0.839 2.634,1.909 3.944,2.875 -0.031,0.176 -0.062,0.352 -0.093,0.528 -1.188,0.448 -2.369,0.92 -3.569,1.336 -0.92,0.319 -1.939,0.426 -2.786,0.871 -2.486,1.308 -4.826,2.92 -7.374,4.081 -5.169,2.355 -10.357,4.685 -16.012,5.761 -3.751,0.714 -7.402,0.584 -11.049,-0.476 -0.706,-0.205 -1.443,-0.303 -2.222,-0.462 0.275,1.556 2.012,2.89 8.898,7.236 -3.866,0.136 -7.731,0.271 -12.067,0.423 1.822,2.038 3.436,3.844 5.222,5.842 -2.238,0.9 -4.51,1.999 -6.895,2.73 -3.4,1.042 -5.79,0.186 -7.678,-2.15 -0.746,-0.923 -1.396,-1.992 -2.32,-2.689 -3.361,-2.535 -5.577,-3.261 -8.821,-1.183 -0.278,0.178 -0.795,0.188 -1.117,0.062 -2.521,-0.991 -4.978,-0.839 -7.029,0.895 -1.358,1.149 -2.593,2.614 -3.412,4.183 -0.762,1.468 -0.901,3.253 -1.314,4.894 z"
               style="clip-rule:evenodd;fill:none;fill-rule:evenodd"
               inkscape:connector-curvature="0" />
            <path
               id="path6823"
               d="m 0,170.15 c 0.413,-1.642 0.552,-3.427 1.314,-4.886 0.819,-1.569 2.053,-3.034 3.412,-4.183 2.051,-1.734 4.508,-1.886 7.029,-0.895 0.322,0.126 0.839,0.116 1.117,-0.062 3.244,-2.078 5.46,-1.352 8.821,1.183 0.924,0.697 1.574,1.767 2.32,2.689 1.888,2.336 4.278,3.192 7.678,2.15 2.384,-0.731 4.656,-1.83 6.895,-2.73 -1.787,-1.998 -3.4,-3.804 -5.222,-5.842 4.336,-0.152 8.201,-0.288 12.067,-0.423 -6.886,-4.346 -8.624,-5.68 -8.898,-7.236 0.779,0.159 1.516,0.257 2.222,0.462 3.647,1.06 7.298,1.19 11.049,0.476 5.655,-1.076 10.842,-3.405 16.012,-5.761 2.548,-1.161 4.888,-2.773 7.374,-4.081 0.847,-0.445 1.866,-0.552 2.786,-0.871 1.2,-0.416 2.38,-0.888 3.569,-1.336 0.031,-0.176 0.062,-0.352 0.093,-0.528 -1.31,-0.966 -2.558,-2.035 -3.944,-2.875 -2.451,-1.484 -4.99,-2.823 -7.486,-4.234 -0.585,-0.331 -1.147,-0.703 -1.762,-1.083 4.29,-3.835 9.078,-4.797 14.142,-5.746 -1.55,-1.183 -2.845,-2.254 -4.224,-3.203 -2.004,-1.378 -3.204,-3.37 -4.337,-5.419 -0.896,-1.619 -1.83,-3.235 -2.519,-4.944 -0.299,-0.741 -0.306,-1.867 0.062,-2.542 0.491,-0.901 1.538,-0.508 2.375,-0.186 2.056,0.79 4.088,1.649 6.175,2.345 1.144,0.382 2.37,0.571 3.575,0.698 1.487,0.157 1.828,-0.438 1.466,-1.932 -0.792,-3.269 -3.099,-5.103 -6.021,-6.172 -2.684,-0.981 -5.499,-1.602 -8.23,-2.459 -0.783,-0.246 -1.48,-0.762 -2.312,-1.204 4.217,-1.739 8.156,-3.364 12.095,-4.988 -0.031,-0.148 -0.063,-0.296 -0.094,-0.445 -1.277,-0.177 -2.55,-0.394 -3.832,-0.523 -3.066,-0.308 -5.779,-1.557 -8.242,-3.287 -2.125,-1.492 -4.17,-3.127 -6.083,-4.883 -1.157,-1.062 -2.039,-2.441 -2.943,-3.749 -0.278,-0.401 -0.22,-1.034 -0.331,-1.638 2.047,0.614 3.776,1.407 5.571,1.61 3.297,0.373 6.665,0.636 9.635,-1.462 1.177,-0.831 1.507,-2.558 0.65,-3.694 -2.875,-3.811 -6.895,-5.447 -11.475,-5.667 -2.667,-0.127 -5.36,0.269 -8.042,0.425 -0.279,0.017 -0.571,0.055 -0.837,-0.003 -0.436,-0.095 -0.856,-0.262 -1.283,-0.399 0.201,-0.355 0.373,-0.731 0.607,-1.063 1.73,-2.456 3.518,-4.873 5.18,-7.374 0.4,-0.602 0.395,-1.474 0.657,-2.559 -4.319,1.627 -8.36,2.237 -12.418,0.674 1.563,-2.149 3.013,-4.065 4.363,-6.048 0.424,-0.623 0.675,-1.406 0.841,-2.152 0.237,-1.063 -0.071,-1.818 -1.356,-1.966 -2.31,-0.265 -4.602,-0.715 -6.917,-0.906 -1.371,-0.113 -2.77,0.182 -4.157,0.194 -3.634,0.031 -6.124,-1.68 -7.453,-5.042 -0.087,-0.221 -0.191,-0.435 -0.304,-0.688 -1.829,-0.123 -3.554,0.224 -5.198,0.996 -0.246,0.116 -0.454,0.314 -0.677,0.477 -0.293,0.214 -0.585,0.43 -0.878,0.645 -0.203,-0.409 -0.546,-0.805 -0.588,-1.229 -0.265,-2.708 2.672,-6.797 5.348,-7.34 1.248,-0.253 2.558,-0.2 3.84,-0.285 0.237,-0.016 0.541,0.064 0.702,-0.053 3.138,-2.292 6.541,-1.609 9.948,-0.923 0.036,0.007 0.078,-0.018 0.31,-0.076 -0.654,-0.525 -1.178,-1.045 -1.791,-1.418 -2.324,-1.419 -4.7,-2.716 -7.393,-3.354 -1.928,-0.457 -3.586,-2.454 -3.563,-4.813 0.012,-1.223 0.27,-2.44 0.344,-3.665 0.022,-0.371 -0.078,-0.892 -0.327,-1.112 -1.626,-1.441 -3.62,-2.075 -5.732,-2.313 -0.404,-0.046 -0.841,0.384 -1.288,0.493 -0.385,0.094 -0.805,0.041 -1.209,0.053 0.014,-0.33 -0.076,-0.71 0.058,-0.981 1.275,-2.588 3.084,-4.305 6.229,-4.45 2.332,-0.108 4.346,0.356 6.215,1.717 0.335,0.244 0.913,0.309 1.345,0.242 3.327,-0.512 6.354,0.799 8.496,3.69 1.468,1.981 2.552,4.244 3.858,6.35 0.505,0.813 1.043,1.758 2.303,1.142 0.52,-2.947 -0.604,-5.587 -1.473,-8.307 -0.606,-1.897 -1.121,-3.883 -1.25,-5.857 -0.159,-2.414 1.477,-4.052 3.888,-4.444 0.428,-0.07 0.854,-0.143 1.32,-0.22 C 53.451,6.997 52.465,5.861 51.614,4.711 50.951,3.816 50.107,3.057 49.411,2.183 49.16,1.867 48.879,1.269 49.015,1.02 c 0.199,-0.365 0.783,-0.779 1.164,-0.745 2.412,0.219 4.714,0.839 6.58,2.501 2.12,1.889 3.366,4.19 3.253,7.123 -0.013,0.331 0.216,0.767 0.474,0.998 3.881,3.477 4.04,9.552 1.254,13.918 -1.325,2.077 -2.422,4.34 -3.314,6.638 -0.744,1.916 -0.804,4.15 0.22,5.919 0.802,1.386 2.295,2.451 3.648,3.425 3.236,2.329 6.551,4.552 9.874,6.758 2.855,1.896 5.799,3.658 8.645,5.568 4.122,2.766 8.211,5.582 12.265,8.445 0.864,0.61 1.519,1.515 2.305,2.319 1.949,-1.103 3.607,-2.421 4.718,-4.318 1.057,-1.807 1.84,-1.874 3.265,0.018 0.202,-1.332 0.368,-2.487 0.554,-3.64 0.402,-2.49 0.774,-4.986 1.241,-7.463 0.173,-0.918 0.637,-1.795 1.73,-1.882 1.026,-0.081 1.451,0.625 1.893,1.49 2.244,4.388 4.56,8.74 6.9,13.078 0.423,0.785 1.078,1.445 1.838,2.439 0,-2.161 -0.012,-3.964 0.003,-5.767 0.02,-2.426 0.014,-4.854 0.137,-7.275 0.02,-0.388 0.635,-1.017 1.009,-1.042 0.398,-0.028 1.12,0.459 1.213,0.841 0.717,2.943 2.768,5.153 4.133,7.734 1.012,1.913 2.125,3.774 3.24,5.63 0.527,0.877 1.143,1.704 1.76,2.523 1.974,2.62 3.213,5.571 4.134,8.904 1.646,-0.097 3.424,-0.175 5.196,-0.316 1.3,-0.104 2.594,-0.281 3.888,-0.443 3.171,-0.396 6.356,-0.711 9.507,-1.232 3.134,-0.519 6.281,-1.084 9.328,-1.957 1.606,-0.46 3.241,-1.379 4.451,-2.526 1.519,-1.439 1.248,-3.468 -0.28,-5.481 -0.722,-0.953 -1.393,-2.056 -2.353,-2.686 -0.923,-0.605 -2.184,-0.927 -3.307,-0.956 -3.084,-0.081 -6.178,-0.175 -9.217,0.756 -0.659,0.202 -1.71,-0.34 -2.381,-0.819 -1.94,-1.385 -3.006,-3.257 -2.804,-5.756 0.154,-1.903 0.178,-3.817 0.26,-5.726 0.003,-0.08 0.002,-0.161 0.017,-0.239 0.583,-3.176 1.713,-3.862 4.79,-2.916 3.132,0.963 6.25,1.984 9.408,2.854 1.506,0.415 3.115,0.824 4.395,-0.707 0.819,-0.979 0.839,-1.754 -0.288,-2.409 -2.561,-1.487 -5.171,-2.89 -7.791,-4.27 -0.253,-0.133 -0.766,0.06 -1.073,0.242 -0.33,0.196 -0.516,0.637 -0.846,0.833 -0.577,0.342 -1.558,0.965 -1.766,0.783 -0.592,-0.52 -1,-1.348 -1.244,-2.128 -0.164,-0.522 0.077,-1.171 0.143,-1.829 -0.63,-0.267 -1.226,-0.57 -1.854,-0.775 -2.091,-0.681 -3.233,-2.256 -3.169,-4.467 0.117,-4.013 0.353,-8.008 1.919,-11.785 0.77,-1.856 2.021,-2.548 3.996,-2.512 4.163,0.077 8.147,1.167 12.178,2.004 1.546,0.321 3.063,0.781 4.611,1.1 0.36,0.074 0.911,-0.044 1.165,-0.29 3.484,-3.367 7.583,-5.695 12.327,-6.497 3.238,-0.547 6.589,-0.545 9.891,-0.572 6.303,-0.052 12.096,-1.716 17.422,-5.06 0.302,-0.19 0.604,-0.434 0.938,-0.507 0.465,-0.103 0.994,-0.175 1.423,-0.036 0.151,0.049 0.167,0.768 0.113,1.162 -0.471,3.437 -2.425,5.985 -4.963,8.173 -0.228,0.197 -0.465,0.383 -0.795,0.654 1.71,0.13 3.334,0.015 4.823,0.41 4.604,1.222 9.145,2.624 13.363,4.956 3.966,2.191 8.203,3.588 12.829,3.409 0.425,-0.017 0.851,-0.002 1.276,-0.002 0.092,0.12 0.185,0.239 0.276,0.359 -0.615,0.763 -1.123,1.657 -1.866,2.262 -2.331,1.9 -5.103,2.883 -8.037,3.328 -2.591,0.393 -5.209,0.602 -7.979,0.91 0.316,0.313 0.61,0.64 0.941,0.923 4.164,3.559 5.791,8.164 6.325,13.54 0.451,4.544 -0.748,8.693 -1.66,12.971 -1.198,5.619 -0.245,10.715 3.901,14.962 0.249,0.254 0.485,0.531 0.676,0.831 0.221,0.345 0.383,0.728 0.57,1.094 -0.486,0.22 -0.961,0.602 -1.46,0.634 -2.832,0.184 -5.601,-0.134 -8.226,-1.31 -0.137,-0.062 -0.296,-0.073 -0.667,-0.159 2.008,2.392 3.836,4.651 6.74,5.798 -0.718,1.397 -2.015,1.843 -3.12,2.204 -3.312,1.083 -6.702,1.925 -10.064,2.849 -0.482,0.133 -0.981,0.205 -1.581,0.327 0.435,0.161 0.773,0.253 1.081,0.407 1.09,0.543 1.144,1.07 0.352,1.967 -2.081,2.358 -4.971,2.992 -7.807,3.776 -2.997,0.828 -6.057,0.753 -9.117,0.729 -0.914,-0.007 -1.828,-10e-4 -2.704,-10e-4 0.727,1.696 1.563,3.303 2.113,5.003 1.234,3.818 1.108,7.651 -0.253,11.435 -0.146,0.409 -0.242,0.836 -0.4,1.241 -0.574,1.469 -1.303,1.547 -2.692,0.842 -2.312,-1.173 -4.732,-2.132 -7.121,-3.148 -1.265,-0.539 -2.558,-1.009 -4.22,-1.659 1.077,2.93 2.511,5.336 3.936,7.959 -4.402,2.131 -8.732,1.474 -13.365,0.125 2.054,2.623 2.532,5.558 2.997,8.443 0.357,2.223 0.718,4.609 -0.418,6.689 -0.902,1.655 -2.146,3.157 -3.414,4.57 -1.699,1.892 -3.548,3.652 -5.377,5.422 -0.383,0.37 -0.959,0.54 -1.501,0.832 -0.35,-2.509 -0.663,-4.766 -0.9,-6.47 -1.421,1.246 -3.342,2.508 -4.661,4.232 -0.886,1.157 -0.99,2.952 -1.317,4.488 -0.769,3.596 -0.032,7.113 0.753,10.604 0.876,3.887 1.93,7.737 2.729,11.639 0.65,3.177 1.044,6.406 1.541,9.614 0.462,2.976 0.979,5.946 1.347,8.933 0.354,2.883 0.459,5.796 0.835,8.675 0.893,6.839 0.634,13.708 0.709,20.571 0.055,4.994 -0.519,9.914 -1.41,14.816 -0.121,0.666 -0.026,1.518 0.301,2.097 1.787,3.166 2.651,6.651 3.773,10.063 1.444,4.389 2.977,8.769 4.814,13.002 1.614,3.717 4.084,6.908 7.544,9.206 2.336,1.551 4.3,0.378 5.731,-1.28 0.271,-0.314 0.304,-0.883 0.345,-1.343 0.335,-3.747 -0.761,-7.181 -2.235,-10.563 -2.089,-4.793 -4.276,-9.596 -5.049,-14.803 -0.509,-3.43 -0.542,-6.978 2.148,-9.794 0.283,-0.297 0.775,-0.394 1.171,-0.584 0.031,0.416 0.115,0.836 0.083,1.247 -0.146,1.875 -0.451,3.746 -0.468,5.621 -0.041,4.397 2.211,7.998 4.654,11.319 3.188,4.333 5.586,8.988 7.26,14.06 0.277,0.84 0.48,1.705 0.748,2.665 2.736,-4.13 3.108,-8.272 0.608,-12.592 2.275,1.748 2.959,4.19 3.568,6.699 0.748,3.081 -0.389,5.833 -1.294,8.654 -0.318,0.992 -0.762,2.215 -0.445,3.073 0.424,1.148 1.426,2.16 2.371,3.021 0.955,0.87 2.242,1.075 3.56,1.072 3.529,-0.011 7.057,0.174 10.444,-1.214 4.981,-2.041 9.001,-5.245 12.262,-9.515 2.208,-2.891 2.816,-6.272 3.51,-9.688 0.728,-3.586 0.13,-7.127 -0.233,-10.659 -0.129,-1.247 -0.989,-2.452 -1.638,-3.607 -3.261,-5.814 -7.444,-10.96 -11.67,-16.079 -3.686,-4.463 -7.22,-9.051 -10.942,-13.482 -4.41,-5.25 -8.368,-10.826 -11.964,-16.64 -2.147,-3.472 -3.917,-7.19 -5.681,-10.881 -1.164,-2.438 -2.109,-4.995 -2.986,-7.555 -1.341,-3.914 -1.875,-8.004 -1.951,-12.114 -0.099,-5.267 0.687,-10.383 2.548,-15.396 2.679,-7.214 7.061,-13.059 12.711,-18.203 4.47,-4.069 9.367,-7.37 14.737,-10.046 2.517,-1.254 5.112,-2.368 7.538,-3.778 3.854,-2.24 7.564,-4.752 10.648,-8 2.087,-2.198 3.887,-4.669 4.92,-7.865 1.308,2.696 1.581,5.359 1.47,8.099 0.106,0.03 0.213,0.06 0.319,0.09 0.614,-1.794 1.38,-3.553 1.8,-5.392 0.432,-1.886 0.733,-3.851 0.711,-5.777 -0.022,-1.944 -0.513,-3.882 -0.686,-5.867 2.544,3.568 4.51,7.349 5.085,11.815 0.574,4.454 0.759,8.78 -2.143,12.691 0.098,0.092 0.195,0.185 0.292,0.277 2.064,-0.214 4.153,-0.299 6.188,-0.672 3.723,-0.682 7.443,-1.418 11.112,-2.341 6.002,-1.509 11.818,-3.571 17.015,-7.019 2.15,-1.426 3.655,-3.578 4.847,-5.826 1.214,-2.291 2.268,-4.701 3.073,-7.163 0.546,-1.666 0.574,-3.508 0.775,-5.278 0.457,-4.016 0.137,-8.019 -0.387,-11.998 -0.506,-3.846 -2.244,-6.953 -5.502,-9.285 -4.117,-2.948 -8.346,-2.846 -12.497,-0.556 -2.394,1.321 -3.968,3.622 -4.317,6.517 -0.02,0.158 -0.011,0.321 -0.039,0.477 -0.505,2.73 0.332,3.821 3.076,4.16 2.636,0.324 5.211,0.263 7.641,-0.944 1.027,-0.51 2.012,-1.108 3.02,-1.659 0.23,-0.126 0.478,-0.224 1.031,-0.48 -0.209,0.888 -0.214,1.596 -0.528,2.118 -1.331,2.204 -3.092,3.946 -5.664,4.655 -1.625,0.448 -3.261,0.854 -5.028,1.314 0.576,0.1 1.067,0.227 1.565,0.264 3.321,0.25 6.363,-0.784 9.36,-2.04 0.291,-0.122 0.645,-0.094 0.969,-0.135 -0.021,0.33 0.078,0.742 -0.083,0.975 -0.443,0.641 -0.888,1.378 -1.521,1.772 -2.872,1.783 -6.049,2.722 -9.42,2.768 -2.881,0.04 -5.42,-1.301 -8.005,-2.378 -0.325,-0.135 -0.636,-0.302 -0.956,-0.449 -0.024,-0.011 -0.069,0.023 -0.459,0.167 1.308,1.2 2.464,2.333 3.702,3.368 0.697,0.583 1.556,0.97 2.29,1.515 0.274,0.204 0.404,0.603 0.698,1.071 -2.328,0.199 -4.224,0.167 -5.896,-1.319 -1.232,-1.096 -2.717,-1.901 -4.025,-2.919 -2.338,-1.819 -3.266,-4.4 -3.726,-7.208 -0.023,-0.144 -0.063,-0.285 -0.102,-0.466 -5.061,2.558 -10.145,4.697 -15.917,3.383 -0.027,-0.119 -0.055,-0.238 -0.082,-0.356 0.922,-0.202 1.852,-0.375 2.765,-0.611 4.847,-1.258 9.332,-3.263 13.18,-6.529 0.336,-0.286 0.456,-0.827 0.472,-1.435 -1.106,0.558 -2.202,1.137 -3.321,1.668 -3.027,1.436 -6.19,2.516 -9.563,2.369 -1.572,-0.068 -3.131,-0.743 -4.66,-1.25 -0.408,-0.135 -0.685,-0.666 -1.135,-1.131 1.73,-0.15 3.209,-0.305 4.691,-0.402 3.776,-0.248 6.941,-1.896 9.826,-4.215 3.999,-3.215 7.959,-6.481 12.022,-9.613 4.185,-3.226 8.937,-5.325 14.17,-6.028 3.171,-0.426 6.434,-0.728 9.572,0.421 2.525,0.924 4.403,2.768 6.384,4.555 0.832,-3.439 2.861,-6.157 5.426,-8.495 2.999,-2.733 6.708,-3.981 10.739,-4.671 -0.731,0.672 -1.401,1.429 -2.203,2.001 -4.28,3.05 -6.097,7.581 -7.322,12.387 -0.427,1.672 -0.221,3.506 -0.318,5.568 2.422,-2.308 4.561,-4.281 6.623,-6.331 2.056,-2.043 4.035,-4.163 6.185,-6.391 -0.533,1.371 -0.879,2.713 -1.54,3.875 -2.029,3.563 -4.188,7.051 -6.279,10.58 -1.348,2.273 -2.04,4.785 -2.309,7.376 -0.414,3.994 -0.48,8.03 -1.039,12 -0.488,3.465 -1.342,6.893 -2.241,10.283 -0.796,2.999 -1.647,6.022 -2.889,8.853 -1.781,4.064 -4.54,7.311 -8.476,9.7 -3.193,1.938 -6.556,2.89 -10.123,3.495 -0.22,0.037 -0.426,0.154 -0.908,0.336 3.974,1.066 7.214,3.043 10.541,4.894 3.704,2.062 7.735,3.281 12.044,3.134 1.083,-0.037 2.153,-0.453 3.232,-0.676 0.443,-0.091 0.896,-0.133 1.416,0.005 -3.064,2.081 -6.367,3.609 -9.888,4.816 2.984,0.268 5.971,1.021 8.994,-0.04 0.048,0.089 0.095,0.179 0.143,0.269 -0.624,0.456 -1.217,0.965 -1.878,1.359 -3.512,2.097 -7.338,2.721 -11.351,2.229 -4.45,-0.546 -8.601,-2.175 -12.833,-3.556 -5.014,-1.636 -10.18,-2.802 -15.202,-4.411 -5.802,-1.859 -11.771,-2.207 -17.715,-1.81 -9.466,0.632 -18.372,3.312 -26.293,8.769 -6.24,4.3 -11.615,9.451 -15.696,15.882 -0.057,0.09 -0.08,0.203 -0.072,0.181 1.616,-1.365 3.265,-2.85 5.01,-4.211 3.463,-2.702 7.452,-4.343 11.773,-4.796 4.145,-0.435 8.362,-0.722 12.508,-0.456 6.484,0.417 12.825,1.815 19.046,3.804 2.83,0.905 5.818,1.465 8.778,1.777 2.513,0.265 4.973,-0.451 7.122,-1.938 0.449,-0.311 0.941,-0.559 1.413,-0.836 0.122,0.054 0.245,0.107 0.367,0.161 -0.275,0.845 -0.41,1.772 -0.851,2.52 -1.969,3.343 -4.933,5.011 -8.826,4.728 -4.115,-0.298 -8.226,-0.679 -12.326,-1.138 -4.966,-0.556 -9.865,-1.946 -14.91,-1.459 -7.028,0.678 -13.689,2.43 -18.929,7.588 -2.309,2.274 -6.11,7.996 -6.788,10.214 1.723,-1.426 3.554,-3.1 5.546,-4.554 3.528,-2.576 7.487,-3.817 11.916,-3.755 3.826,0.054 7.575,0.489 11.325,1.202 2.326,0.441 4.71,0.623 7.078,0.781 2.584,0.172 5.179,0.232 7.77,0.247 1.921,0.011 3.843,-0.146 5.765,-0.188 0.378,-0.008 0.759,0.17 1.166,0.269 -2.424,2.163 -5.378,2.862 -8.464,3.304 -10.225,1.464 -19.985,4.145 -27.913,11.269 -3.385,3.041 -6.763,6.149 -8.436,10.552 -0.954,2.509 -1.188,5.158 -0.885,7.83 0.187,1.646 0.262,3.342 0.734,4.91 0.563,1.868 1.393,3.679 2.291,5.42 2.399,4.646 5.737,8.598 9.37,12.319 2.2,2.253 4.412,4.498 6.542,6.817 2.2,2.396 4.309,4.876 6.382,7.235 1.062,-4.47 3.188,-8.251 6.974,-11.304 3.728,-3.005 7.962,-4.382 12.447,-5.363 2.535,-0.555 5.145,-0.81 7.642,-1.49 4.444,-1.211 8.722,-2.791 10.933,-7.38 0.201,-0.42 0.572,-0.758 1.024,-1.062 0.207,3.237 0.687,6.402 -0.96,9.438 -1.997,3.682 -4.854,6.223 -8.776,7.719 -2.839,1.082 -5.784,1.442 -8.74,1.9 -3.306,0.513 -6.64,1.131 -9.452,3.083 -2.059,1.428 -4.248,2.73 -5.598,5.029 -0.871,1.487 -1.006,2.928 -0.909,4.618 0.303,5.289 2.347,10.227 2.918,15.437 0.201,1.839 0.042,3.751 -0.194,5.598 -0.848,6.601 -3.795,12.351 -7.427,17.806 -2.072,3.111 -5.148,5.062 -8.204,7.002 -1.85,1.175 -3.839,2.131 -5.832,3.222 5.128,0.358 10.284,0.062 15.423,-0.847 0.067,0.111 0.135,0.222 0.202,0.332 -0.364,0.406 -0.653,0.954 -1.105,1.197 -3.998,2.157 -8,4.286 -12.711,4.484 -2.217,0.093 -4.423,0.423 -6.479,0.63 0.979,0.833 3.89,1.113 5.839,1.254 2.109,0.151 4.229,0.144 6.345,0.206 0.065,0.18 0.13,0.36 0.195,0.541 -0.686,0.607 -1.278,1.424 -2.076,1.782 -2.336,1.052 -4.69,2.16 -7.153,2.815 -6.577,1.753 -13.055,1.284 -19.393,-1.313 -6.008,-2.461 -11.487,-5.864 -17.016,-9.205 -2.391,-1.444 -4.912,-2.677 -7.394,-3.967 -2.766,-1.438 -5.528,-2.885 -8.34,-4.227 -2.166,-1.032 -2.472,-0.844 -2.325,1.582 0.239,3.982 1.142,7.823 3.203,11.289 0.454,0.764 1.288,1.293 1.896,1.976 0.631,0.708 1.271,1.426 1.767,2.227 0.243,0.394 0.395,1.251 0.186,1.431 -0.409,0.351 -1.128,0.569 -1.667,0.489 -0.994,-0.146 -1.949,-0.547 -3.174,-0.919 0.442,0.924 0.882,1.604 1.104,2.35 0.754,2.532 1.511,5.068 2.113,7.64 0.642,2.732 2.359,4.683 4.27,6.566 1.691,1.668 3.369,3.357 4.929,5.146 0.79,0.905 1.129,2.053 0.762,3.351 -0.389,1.375 0.065,2.49 1.388,3.174 1.406,0.728 2.807,1.465 4.218,2.182 1.577,0.803 1.71,1.906 0.193,2.803 -0.847,0.501 -1.885,0.87 -2.857,0.926 -1.646,0.094 -3.31,-0.106 -5.051,-0.188 2.021,2.758 2.853,6.559 6.674,8.122 -0.977,1.786 -2.503,2.287 -4.206,2.423 -3.728,0.297 -6.933,-0.959 -9.678,-3.422 -0.557,-0.499 -0.853,-0.429 -1.387,0.02 -3.611,3.03 -7.249,6.03 -10.898,9.015 -1.44,1.178 -2.95,2.269 -4.395,3.44 -0.732,0.595 -1.295,1.231 -0.661,2.337 0.292,0.51 0.172,1.269 0.195,1.916 0.029,0.814 -0.085,1.646 0.036,2.442 0.417,2.768 -1.072,5.675 -3.561,6.738 -0.753,0.321 -1.302,0.123 -1.246,-0.801 0.041,-0.67 0.195,-1.336 0.328,-1.997 0.246,-1.218 -0.041,-1.723 -1.189,-2.039 -1.797,-0.494 -2.597,-2.157 -2.19,-4.373 0.243,-1.325 0.405,-2.67 0.525,-4.013 0.086,-0.952 -0.572,-1.358 -1.428,-0.872 -0.876,0.497 -1.88,0.954 -2.486,1.704 -1.285,1.594 -0.956,4.608 0.48,6.408 1.5,1.882 1.196,4.171 -0.812,5.465 -1.679,1.082 -2.458,3.935 -2.085,5.695 0.052,0.248 0.367,0.435 0.437,0.685 0.13,0.46 0.168,0.945 0.244,1.421 -0.16,0 -0.32,0 -0.48,0 -0.479,-0.173 -0.967,-0.322 -1.434,-0.522 -0.86,-0.369 -1.799,-0.642 -2.543,-1.179 -1.517,-1.096 -2.021,-2.677 -1.808,-4.531 0.05,-0.433 -10e-4,-1.139 -0.266,-1.306 -2.464,-1.552 -1.849,-3.765 -1.186,-5.837 0.59,-1.842 1.542,-3.568 2.479,-5.675 -2.527,1.108 -4.82,2.099 -7.092,3.135 -0.198,0.091 -0.354,0.483 -0.364,0.742 -0.049,1.249 0.086,2.518 -0.077,3.748 -0.478,3.605 -3.656,5.916 -7.294,5.442 -0.417,-0.055 -1.081,-0.1 -1.247,0.129 -1.177,1.62 -3.328,2.77 -2.721,5.313 0.037,0.154 -0.135,0.359 -0.209,0.541 -0.24,0 -0.48,0 -0.72,0 -0.793,-1.037 -1.803,-1.973 -2.335,-3.129 -1.364,-2.962 -1.563,-6.029 -0.173,-9.096 0.205,-0.452 0.321,-0.979 0.339,-1.478 0.092,-2.621 1.2,-4.157 3.675,-4.947 3.096,-0.989 5.937,-2.482 8.651,-4.473 -2.505,-0.562 -5.027,-0.94 -7.542,-1.367 -1.108,-0.188 -1.797,0.351 -2.418,1.146 -0.439,0.563 -0.886,1.135 -1.409,1.616 -2.806,2.584 -6.081,2.584 -8.202,-1.085 -0.127,-0.22 -0.481,-0.498 -0.67,-0.46 -1.288,0.265 -2.543,0.584 -3.185,1.972 -0.205,0.441 -0.698,0.751 -1.06,1.12 -0.334,-0.41 -0.859,-0.773 -0.972,-1.238 -0.637,-2.625 -0.247,-5.146 1.132,-7.469 1.032,-1.737 2.439,-2.92 4.644,-2.822 0.342,0.016 0.751,-0.33 1.046,-0.6 1.022,-0.938 2.101,-1.74 3.587,-1.522 2.379,0.351 4.801,0.554 7.116,1.16 4.696,1.231 9.406,2.181 14.288,1.943 0.406,-0.02 1.009,-0.075 1.173,-0.334 1.552,-2.443 3.771,-4.281 5.641,-6.424 2.542,-2.912 5.7,-4.882 8.86,-6.908 2.429,-1.557 5.017,-2.892 6.527,-5.541 0.598,-1.049 0.636,-2.03 -0.129,-2.946 -0.739,-0.886 -1.544,-1.721 -2.367,-2.531 -4.045,-3.983 -9.193,-6.353 -13.721,-9.439 0,1.72 -0.069,3.425 0.032,5.12 0.044,0.738 -0.322,1.023 -0.826,1.027 -0.512,0.005 -1.148,-0.157 -1.52,-0.485 -1.575,-1.391 -3.127,-2.815 -4.584,-4.328 -2.393,-2.483 -4.224,-5.299 -4.614,-8.946 -2.174,2.232 -3.532,4.772 -4.25,7.656 -0.331,1.329 -0.986,1.633 -1.873,0.578 -1.108,-1.318 -2.191,-2.748 -2.881,-4.309 -1.42,-3.214 -1.146,-6.657 -0.844,-10.066 -2.419,1.052 -3.561,3.152 -4.469,5.452 -0.552,1.4 -0.955,1.495 -2.015,0.461 -0.269,-0.263 -0.51,-0.611 -0.623,-0.966 -1.145,-3.607 -0.568,-7.069 1.451,-10.141 1.473,-2.242 3.429,-4.167 5.152,-6.247 0.235,-0.283 0.576,-0.699 0.514,-0.972 -0.33,-1.433 -2.094,-2.287 -3.604,-1.973 -3.653,0.76 -7.04,2.2 -10.292,3.966 -3.679,1.997 -6.771,4.775 -9.389,7.976 -2.518,3.078 -4.688,6.441 -6.993,9.692 -1.52,2.145 -2.991,2.726 -5.545,1.995 -2.226,-0.636 -4.431,-1.348 -6.633,-2.063 -1.93,-0.626 -3.83,-1.18 -5.927,-0.843 -2.551,0.409 -4.922,1.065 -6.775,3.023 -0.316,0.334 -1.046,0.66 -1.365,0.513 -0.446,-0.206 -0.855,-0.819 -0.975,-1.33 -0.215,-0.919 -0.168,-1.895 -0.296,-2.838 -0.112,-0.831 -0.312,-1.65 -0.494,-2.58 -2.761,1.489 -4.437,3.718 -6.193,6.374 -0.405,-0.351 -0.818,-0.767 -0.896,-1.238 -0.695,-4.187 -1.961,-8.377 -0.084,-12.756 -0.499,0.113 -0.923,0.152 -1.301,0.307 -1.546,0.63 -3.064,1.33 -4.623,1.927 -0.523,0.2 -1.136,0.166 -1.932,0.269 0.826,-1.911 1.506,-3.503 2.201,-5.088 1.013,-2.309 0.892,-4.402 -1.112,-6.169 -0.202,-0.179 -0.332,-0.438 -0.498,-0.656 -1.003,-1.326 -2.007,-2.652 -2.81,-3.714 -1.281,0.185 -2.239,0.31 -3.192,0.468 -0.297,0.05 -0.608,0.142 -0.866,0.293 -3.421,2.002 -6.249,1.517 -8.828,-1.561 -0.236,-0.282 -0.335,-0.681 -0.498,-1.024 0.393,-0.135 0.779,-0.338 1.182,-0.381 0.341,-0.036 0.706,0.185 1.054,0.168 1.141,-0.054 2.278,-0.164 3.487,-0.258 -0.913,-2.819 -0.957,-4.216 1.999,-6.317 -0.754,-0.325 -1.417,-0.641 -2.101,-0.9 -1.634,-0.619 -2.942,-0.825 -4.451,0.806 -3.028,3.274 -6.961,1.603 -8.38,-1.152 -0.76,-1.476 -1.338,-1.775 -2.914,-1.305 -0.303,0.091 -0.576,0.285 -0.881,0.36 -0.357,0.088 -0.88,0.267 -1.067,0.104 -0.27,-0.236 -0.487,-0.788 -0.407,-1.129 0.667,-2.809 2.014,-5.091 4.964,-6.054 0.397,-0.13 0.837,-0.339 1.097,-0.646 1.873,-2.22 4.272,-2.202 6.822,-1.042 2.1,0.955 4.103,2.122 6.148,3.195 0.083,-0.071 0.167,-0.144 0.25,-0.215 -0.924,-1.404 -1.814,-2.833 -2.786,-4.203 -0.587,-0.826 -1.43,-1.136 -2.497,-1.104 -1.425,0.041 -2.869,-0.026 -4.281,-0.221 -3.1,-0.425 -4.481,-2.233 -4.28,-5.402 0.012,-0.188 -0.005,-0.421 -0.104,-0.568 -1.036,-1.529 -2.3,-2.708 -4.272,-2.9 -0.535,-0.053 -1.044,-0.365 -1.565,-0.559 0.28,-0.526 0.43,-1.229 0.862,-1.55 2.3,-1.71 4.938,-1.979 7.641,-1.343 2.111,0.495 4.14,1.262 6.386,1.09 2.25,-0.172 3.946,0.998 5.03,2.854 1.254,2.146 2.294,4.419 3.417,6.642 0.397,0.787 0.763,1.59 1.249,2.607 0.485,-3.511 0.441,-3.49 -0.827,-6.292 -0.467,-1.032 -0.816,-2.164 -0.966,-3.284 -0.281,-2.095 0.893,-3.69 2.035,-5.307 0.345,-0.488 0.438,-1.331 0.31,-1.941 -0.325,-1.547 -1.534,-2.337 -2.93,-2.854 -0.864,-0.32 -0.994,-0.801 -0.242,-1.333 0.434,-0.307 1.011,-0.623 1.504,-0.594 1.377,0.08 2.782,0.197 4.107,0.555 2.488,0.671 4.195,2.185 4.556,4.905 0.029,0.22 0.273,0.443 0.468,0.604 2.524,2.09 2.928,4.576 1.17,7.389 -1.234,1.974 -2.557,3.896 -3.707,5.917 -0.866,1.52 -0.396,3.094 1.056,4.147 2.29,1.661 4.978,2.912 5.955,5.901 0.044,0.137 0.219,0.229 0.324,0.349 1.151,1.323 2.269,2.679 3.458,3.967 3.106,3.364 6.201,6.741 9.394,10.022 1.085,1.115 2.325,2.215 4.074,2.195 2.747,-0.032 5.083,-1.333 7.456,-2.493 0.252,-0.123 0.424,-0.465 0.571,-0.738 0.987,-1.835 2.09,-3.622 2.905,-5.532 1.521,-3.568 2.873,-7.21 4.209,-10.603 -2.702,-0.346 -5.365,-0.701 -8.032,-1.022 -1.109,-0.134 -1.802,-0.712 -2.2,-1.781 3.714,-1.741 6.699,-4.403 10.003,-7 -1.022,-0.183 -1.75,-0.224 -2.417,-0.448 -3.25,-1.094 -6.496,-2.207 -9.712,-3.396 -0.462,-0.17 -0.758,-0.789 -1.296,-1.383 0.618,-0.197 0.935,-0.324 1.263,-0.399 1.93,-0.442 3.629,-1.307 5.142,-2.599 2.068,-1.767 4.19,-3.471 6.205,-5.132 -5.022,-3.126 -7.274,-5.513 -7.254,-7.833 0.432,0.063 0.86,0.178 1.29,0.181 3.18,0.021 6.361,0.072 9.539,-0.001 1.338,-0.031 2.392,-0.593 3.136,-1.924 1.152,-2.059 2.372,-4.15 3.933,-5.896 3.45,-3.859 8.101,-4.431 12.898,-3.836 4.444,0.552 8.875,1.163 13.359,1.213 1.76,0.02 2.332,-0.409 2.831,-2.123 0.504,-1.729 0.954,-3.474 1.417,-5.214 0.693,-2.611 0.852,-5.317 0.458,-7.931 -0.615,-4.077 -2.617,-7.605 -4.984,-10.98 -1.884,-2.684 -5.067,-3.512 -8.095,-2.462 -1.21,0.419 -1.487,0.222 -1.71,-1.061 -0.332,-1.909 -0.688,-3.814 -1.065,-5.897 -0.27,0.421 -0.46,0.67 -0.599,0.945 -0.425,0.846 -0.774,1.737 -1.257,2.548 -0.853,1.433 -1.968,1.46 -2.825,0.053 -1.776,-2.921 -3.126,-6.019 -2.855,-9.523 0.179,-2.302 0.646,-4.581 0.977,-6.819 -1.853,0.635 -2.744,2.735 -4.477,4.113 -1.019,-1.406 -1.985,-2.739 -3.057,-4.218 -1.051,3.112 -2.14,6.14 -3.092,9.211 -0.98,3.165 -2.842,5.759 -4.993,8.291 1.3,-5.638 -0.101,-10.438 -4.128,-14.712 -0.9,3.887 -2.122,7.442 -4.361,10.587 -2.299,3.226 -6.889,7.87 -8.069,7.994 1.465,-3.251 2.659,-6.465 2.179,-10.191 -0.479,-3.717 -2.943,-5.793 -6.312,-4.37 -2.33,0.985 -4.407,2.586 -6.557,3.974 -1.313,0.847 -1.76,2.088 -1.622,3.681 0.138,1.597 -0.66,2.962 -1.528,4.266 -0.223,0.334 -0.394,0.808 -0.354,1.193 0.198,1.908 -0.264,3.563 -1.679,4.894 -0.871,0.819 -1.724,1.669 -2.675,2.387 -1.144,0.861 -2.479,1.241 -3.934,1.111 -0.645,-0.058 -0.868,-0.35 -0.553,-0.947 0.571,-1.085 1.137,-2.173 1.734,-3.244 0.743,-1.331 0.357,-2.316 -1.118,-2.771 -1.96,-0.605 -3.258,-1.773 -3.328,-4.11 -1.734,1.252 -3.241,2.458 -3.104,4.805 0.075,1.288 0.062,2.587 0.004,3.877 -0.119,2.644 -1.921,4.408 -4.518,4.589 -0.38,0.026 -0.944,0.33 -1.069,0.646 -0.913,2.299 -1.078,4.609 0.218,6.854 -2.225,0.272 -3.838,-0.689 -4.927,-2.543 -1.092,-1.858 -1.716,-3.821 -1.068,-6.028 0.095,-0.321 -0.162,-0.917 -0.447,-1.151 -1.336,-1.096 -2.035,-2.483 -1.824,-4.171 0.278,-2.212 0.966,-4.242 2.673,-5.892 1.146,-1.107 1.992,-2.524 3.154,-4.04 -0.689,0 -0.959,-0.077 -1.153,0.012 -2.005,0.92 -4.002,1.86 -5.994,2.809 -1.048,0.5 -1.463,1.261 -1.138,2.46 0.158,0.583 0.122,1.263 0.005,1.867 -0.85,4.381 -4.073,6.604 -8.07,5.58 -1.608,-0.412 -2.801,-0.241 -4.079,0.472 -1.546,0.862 -3.031,1.818 -3.158,3.854 -0.037,0.598 -0.017,1.199 -0.043,1.798 -0.047,1.066 -0.51,1.355 -1.325,0.714 -1.292,-1.019 -2.318,-2.358 -2.216,-4.041 0.117,-1.921 0.525,-3.838 0.957,-5.722 0.415,-1.81 1.325,-3.359 2.869,-4.515 0.425,-0.317 0.869,-0.928 0.886,-1.417 0.085,-2.551 1.513,-4.294 3.341,-5.774 1.195,-0.967 2.585,-0.984 4.139,-0.829 3.233,0.323 6.003,-1.234 8.73,-2.873 -1.816,-0.083 -3.619,-0.05 -5.396,0.178 -2.101,0.27 -4.18,1.008 -6.267,1.001 -3.117,-0.01 -4.496,-0.515 -5.38,-4.161 -0.155,-0.637 -0.114,-1.322 -0.178,-2.172 -3.02,0.714 -6.132,0.925 -7.399,4.585 -0.25,-0.473 -0.341,-0.644 -0.431,-0.815 C 0,170.791 0,170.47 0,170.15 Z"
               style="clip-rule:evenodd;fill-rule:evenodd;stroke:#000000;stroke-opacity:1;fill:none;stroke-width:5.66929141;stroke-miterlimit:4;stroke-dasharray:none;stroke-linejoin:round"
               inkscape:connector-curvature="0" />
            <path
               id="path6825"
               d="m 0,171.11 c 0.09,0.171 0.181,0.343 0.431,0.815 1.267,-3.66 4.379,-3.871 7.399,-4.585 0.064,0.85 0.023,1.535 0.178,2.172 0.884,3.646 2.264,4.151 5.38,4.161 2.087,0.007 4.167,-0.731 6.267,-1.001 1.777,-0.228 3.58,-0.26 5.396,-0.178 -2.727,1.639 -5.497,3.196 -8.73,2.873 -1.554,-0.155 -2.944,-0.138 -4.139,0.829 -1.828,1.479 -3.256,3.223 -3.341,5.774 -0.017,0.49 -0.461,1.1 -0.886,1.417 -1.544,1.155 -2.454,2.705 -2.869,4.515 -0.432,1.884 -0.84,3.801 -0.957,5.722 -0.102,1.683 0.924,3.022 2.216,4.041 0.814,0.642 1.277,0.353 1.325,-0.714 0.026,-0.599 0.006,-1.2 0.043,-1.798 0.127,-2.036 1.612,-2.992 3.158,-3.854 1.278,-0.713 2.47,-0.884 4.079,-0.472 3.998,1.023 7.221,-1.199 8.07,-5.58 0.117,-0.604 0.153,-1.284 -0.005,-1.867 -0.325,-1.199 0.09,-1.96 1.138,-2.46 1.992,-0.949 3.989,-1.889 5.994,-2.809 0.194,-0.089 0.464,-0.012 1.153,-0.012 -1.162,1.516 -2.008,2.933 -3.154,4.04 -1.707,1.65 -2.395,3.68 -2.673,5.892 -0.211,1.688 0.487,3.075 1.824,4.171 0.286,0.234 0.542,0.83 0.447,1.151 -0.648,2.207 -0.023,4.17 1.068,6.028 1.088,1.854 2.702,2.815 4.927,2.543 -1.295,-2.244 -1.131,-4.555 -0.218,-6.854 0.125,-0.315 0.689,-0.619 1.069,-0.646 2.597,-0.181 4.399,-1.945 4.518,-4.589 0.058,-1.29 0.071,-2.589 -0.004,-3.877 -0.136,-2.346 1.371,-3.553 3.104,-4.805 0.069,2.337 1.367,3.505 3.328,4.11 1.475,0.455 1.861,1.44 1.118,2.771 -0.597,1.071 -1.163,2.159 -1.734,3.244 -0.315,0.598 -0.092,0.89 0.553,0.947 1.455,0.13 2.791,-0.25 3.934,-1.111 0.951,-0.718 1.804,-1.567 2.675,-2.387 1.415,-1.331 1.877,-2.986 1.679,-4.894 -0.04,-0.385 0.131,-0.859 0.354,-1.193 0.868,-1.304 1.667,-2.669 1.528,-4.266 -0.138,-1.593 0.31,-2.834 1.622,-3.681 2.15,-1.388 4.227,-2.989 6.557,-3.974 3.369,-1.423 5.833,0.653 6.312,4.37 0.48,3.726 -0.714,6.94 -2.179,10.191 1.18,-0.124 5.77,-4.768 8.069,-7.994 2.24,-3.145 3.461,-6.7 4.361,-10.587 4.028,4.273 5.428,9.074 4.128,14.712 2.15,-2.532 4.012,-5.126 4.993,-8.291 0.952,-3.071 2.041,-6.099 3.092,-9.211 1.072,1.479 2.038,2.812 3.057,4.218 1.732,-1.378 2.624,-3.478 4.477,-4.113 -0.331,2.238 -0.798,4.518 -0.977,6.819 -0.271,3.504 1.079,6.602 2.855,9.523 0.856,1.407 1.972,1.38 2.825,-0.053 0.483,-0.812 0.832,-1.702 1.257,-2.548 0.139,-0.275 0.33,-0.524 0.599,-0.945 0.377,2.083 0.734,3.988 1.065,5.897 0.223,1.283 0.5,1.48 1.71,1.061 3.027,-1.05 6.21,-0.222 8.095,2.462 2.368,3.375 4.369,6.903 4.984,10.98 0.395,2.613 0.236,5.319 -0.458,7.931 -0.462,1.74 -0.913,3.485 -1.417,5.214 -0.5,1.714 -1.071,2.143 -2.831,2.123 -4.485,-0.05 -8.915,-0.661 -13.359,-1.213 -4.797,-0.595 -9.448,-0.023 -12.898,3.836 -1.561,1.746 -2.781,3.838 -3.933,5.896 -0.745,1.331 -1.798,1.893 -3.136,1.924 -3.178,0.073 -6.359,0.021 -9.539,0.001 -0.43,-0.003 -0.858,-0.118 -1.29,-0.181 -0.021,2.32 2.231,4.707 7.254,7.833 -2.015,1.661 -4.137,3.365 -6.205,5.132 -1.513,1.292 -3.212,2.156 -5.142,2.599 -0.328,0.075 -0.645,0.202 -1.263,0.399 0.538,0.594 0.834,1.213 1.296,1.383 3.216,1.189 6.461,2.303 9.712,3.396 0.667,0.225 1.395,0.266 2.417,0.448 -3.304,2.597 -6.29,5.259 -10.003,7 0.398,1.069 1.091,1.647 2.2,1.781 2.667,0.321 5.331,0.677 8.032,1.022 -1.336,3.393 -2.688,7.034 -4.209,10.603 -0.815,1.91 -1.918,3.697 -2.905,5.532 -0.147,0.273 -0.319,0.615 -0.571,0.738 -2.373,1.16 -4.708,2.461 -7.456,2.493 -1.75,0.02 -2.989,-1.08 -4.074,-2.195 -3.193,-3.281 -6.287,-6.658 -9.394,-10.022 -1.189,-1.288 -2.306,-2.644 -3.458,-3.967 -0.105,-0.12 -0.279,-0.212 -0.324,-0.349 -0.977,-2.989 -3.665,-4.24 -5.955,-5.901 -1.452,-1.054 -1.921,-2.628 -1.056,-4.147 1.15,-2.021 2.473,-3.943 3.707,-5.917 1.758,-2.813 1.354,-5.299 -1.17,-7.389 -0.194,-0.16 -0.438,-0.384 -0.468,-0.604 -0.361,-2.721 -2.068,-4.234 -4.556,-4.905 -1.325,-0.357 -2.729,-0.475 -4.107,-0.555 -0.493,-0.029 -1.07,0.287 -1.504,0.594 -0.752,0.532 -0.622,1.013 0.242,1.333 1.396,0.517 2.605,1.307 2.93,2.854 0.128,0.61 0.035,1.453 -0.31,1.941 -1.142,1.616 -2.315,3.212 -2.035,5.307 0.15,1.12 0.499,2.252 0.966,3.284 1.268,2.802 1.313,2.781 0.827,6.292 -0.486,-1.018 -0.852,-1.82 -1.249,-2.607 -1.122,-2.223 -2.163,-4.495 -3.417,-6.642 -1.084,-1.856 -2.78,-3.026 -5.03,-2.854 -2.246,0.172 -4.274,-0.595 -6.386,-1.09 -2.703,-0.636 -5.34,-0.367 -7.641,1.343 -0.433,0.321 -0.582,1.023 -0.862,1.55 0.521,0.193 1.03,0.506 1.565,0.559 1.972,0.192 3.236,1.371 4.272,2.9 0.1,0.147 0.116,0.38 0.104,0.568 -0.202,3.169 1.18,4.978 4.28,5.402 1.412,0.194 2.856,0.262 4.281,0.221 1.067,-0.031 1.91,0.278 2.497,1.104 0.972,1.37 1.862,2.799 2.786,4.203 -0.083,0.071 -0.167,0.144 -0.25,0.215 -2.046,-1.073 -4.049,-2.24 -6.148,-3.195 -2.549,-1.16 -4.949,-1.178 -6.822,1.042 -0.26,0.308 -0.7,0.517 -1.097,0.646 -2.95,0.963 -4.297,3.245 -4.964,6.054 -0.081,0.341 0.137,0.893 0.407,1.129 0.187,0.163 0.709,-0.016 1.067,-0.104 0.305,-0.075 0.578,-0.27 0.881,-0.36 1.576,-0.471 2.154,-0.171 2.914,1.305 1.419,2.755 5.352,4.427 8.38,1.152 1.509,-1.631 2.817,-1.425 4.451,-0.806 0.684,0.26 1.347,0.575 2.101,0.9 -2.956,2.102 -2.912,3.498 -1.999,6.317 -1.209,0.094 -2.347,0.204 -3.487,0.258 -0.348,0.017 -0.712,-0.204 -1.054,-0.168 -0.403,0.043 -0.789,0.246 -1.182,0.381 0.163,0.344 0.261,0.742 0.498,1.024 2.579,3.077 5.407,3.563 8.828,1.561 0.258,-0.151 0.569,-0.243 0.866,-0.293 0.953,-0.158 1.912,-0.283 3.192,-0.468 0.803,1.062 1.807,2.388 2.81,3.714 0.166,0.219 0.296,0.478 0.498,0.656 2.004,1.767 2.125,3.86 1.112,6.169 -0.695,1.585 -1.375,3.177 -2.201,5.088 0.796,-0.103 1.409,-0.068 1.932,-0.269 1.559,-0.597 3.077,-1.297 4.623,-1.927 0.378,-0.154 0.803,-0.193 1.301,-0.307 -1.877,4.379 -0.611,8.569 0.084,12.756 0.078,0.472 0.491,0.888 0.896,1.238 1.756,-2.656 3.432,-4.885 6.193,-6.374 0.182,0.93 0.382,1.749 0.494,2.58 0.127,0.943 0.081,1.919 0.296,2.838 0.119,0.511 0.529,1.124 0.975,1.33 0.319,0.147 1.049,-0.179 1.365,-0.513 1.853,-1.958 4.224,-2.614 6.775,-3.023 2.097,-0.337 3.997,0.217 5.927,0.843 2.203,0.715 4.407,1.427 6.633,2.063 2.555,0.73 4.025,0.149 5.545,-1.995 2.305,-3.251 4.475,-6.614 6.993,-9.692 2.618,-3.2 5.71,-5.979 9.389,-7.976 3.252,-1.766 6.639,-3.206 10.292,-3.966 1.51,-0.314 3.274,0.54 3.604,1.973 0.063,0.272 -0.279,0.688 -0.514,0.972 -1.723,2.08 -3.679,4.005 -5.152,6.247 -2.019,3.071 -2.595,6.533 -1.451,10.141 0.112,0.354 0.354,0.703 0.623,0.966 1.061,1.034 1.463,0.939 2.015,-0.461 0.908,-2.3 2.049,-4.4 4.469,-5.452 -0.302,3.409 -0.576,6.853 0.844,10.066 0.69,1.561 1.773,2.99 2.881,4.309 0.887,1.055 1.542,0.751 1.873,-0.578 0.717,-2.884 2.076,-5.424 4.25,-7.656 0.391,3.647 2.222,6.463 4.614,8.946 1.457,1.513 3.009,2.938 4.584,4.328 0.372,0.328 1.008,0.49 1.52,0.485 0.503,-0.004 0.87,-0.289 0.826,-1.027 -0.102,-1.695 -0.032,-3.4 -0.032,-5.12 4.528,3.087 9.676,5.456 13.721,9.439 0.823,0.811 1.628,1.646 2.367,2.531 0.765,0.916 0.727,1.897 0.129,2.946 -1.51,2.649 -4.098,3.984 -6.527,5.541 -3.161,2.026 -6.319,3.996 -8.86,6.908 -1.87,2.143 -4.089,3.98 -5.641,6.424 -0.165,0.259 -0.768,0.314 -1.173,0.334 -4.882,0.237 -9.591,-0.712 -14.288,-1.943 -2.315,-0.606 -4.737,-0.81 -7.116,-1.16 -1.486,-0.218 -2.564,0.584 -3.587,1.522 -0.294,0.27 -0.704,0.615 -1.046,0.6 -2.204,-0.098 -3.611,1.085 -4.644,2.822 -1.379,2.322 -1.769,4.844 -1.132,7.469 0.113,0.465 0.638,0.828 0.972,1.238 0.361,-0.369 0.855,-0.679 1.06,-1.12 0.642,-1.388 1.897,-1.707 3.185,-1.972 0.189,-0.038 0.543,0.24 0.67,0.46 2.121,3.669 5.396,3.669 8.202,1.085 0.523,-0.481 0.969,-1.053 1.409,-1.616 0.622,-0.796 1.31,-1.335 2.418,-1.146 2.514,0.427 5.037,0.806 7.542,1.367 -2.715,1.99 -5.556,3.483 -8.651,4.473 -2.475,0.79 -3.583,2.326 -3.675,4.947 -0.018,0.498 -0.134,1.025 -0.339,1.478 -1.39,3.066 -1.19,6.134 0.173,9.096 0.532,1.156 1.542,2.092 2.335,3.129 -37.76,0 -75.52,0 -113.28,0 C 0,301.19 0,236.15 0,171.11 Z"
               style="clip-rule:evenodd;fill:none;fill-rule:evenodd"
               inkscape:connector-curvature="0" />
            <path
               id="path6827"
               d="m 114,366.23 c 0.075,-0.182 0.247,-0.387 0.209,-0.541 -0.607,-2.543 1.544,-3.692 2.721,-5.313 0.166,-0.229 0.831,-0.184 1.247,-0.129 3.638,0.474 6.816,-1.837 7.294,-5.442 0.163,-1.23 0.028,-2.499 0.077,-3.748 0.01,-0.259 0.166,-0.651 0.364,-0.742 2.271,-1.036 4.564,-2.026 7.092,-3.135 -0.938,2.106 -1.89,3.833 -2.479,5.675 -0.664,2.072 -1.278,4.285 1.186,5.837 0.265,0.167 0.316,0.873 0.266,1.306 -0.214,1.854 0.291,3.436 1.808,4.531 0.744,0.537 1.683,0.81 2.543,1.179 0.467,0.2 0.955,0.35 1.434,0.522 -7.923,0 -15.843,0 -23.762,0 z"
               style="clip-rule:evenodd;fill:none;fill-rule:evenodd"
               inkscape:connector-curvature="0" />
          </g>
        </g>
      </g>
      <g
         id="Ebene_1-0" />
    </g>
  </g>
</svg>
