<?xml version="1.0" encoding="UTF-8" standalone="no"?>
<!-- Created with Inkscape (http://www.inkscape.org/) -->

<svg
   xmlns:dc="http://purl.org/dc/elements/1.1/"
   xmlns:cc="http://creativecommons.org/ns#"
   xmlns:rdf="http://www.w3.org/1999/02/22-rdf-syntax-ns#"
   xmlns:svg="http://www.w3.org/2000/svg"
   xmlns="http://www.w3.org/2000/svg"
   xmlns:sodipodi="http://sodipodi.sourceforge.net/DTD/sodipodi-0.dtd"
   xmlns:inkscape="http://www.inkscape.org/namespaces/inkscape"
   width="116.73953mm"
   height="117.0573mm"
   viewBox="0 0 116.73953 117.0573"
   version="1.1"
   id="svg8"
   inkscape:version="0.92.3 (2405546, 2018-03-11)"
   sodipodi:docname="borderEmblem2.svg">
  <defs
     id="defs2" />
  <sodipodi:namedview
     id="base"
     pagecolor="#ffffff"
     bordercolor="#666666"
     borderopacity="1.0"
     inkscape:pageopacity="0.0"
     inkscape:pageshadow="2"
     inkscape:zoom="1.979899"
     inkscape:cx="87.340889"
     inkscape:cy="172.34852"
     inkscape:document-units="mm"
     inkscape:current-layer="layer1"
     showgrid="false"
     fit-margin-top="5"
     fit-margin-left="5"
     fit-margin-right="5"
     fit-margin-bottom="5"
     inkscape:window-width="1920"
     inkscape:window-height="1017"
     inkscape:window-x="1912"
     inkscape:window-y="-8"
     inkscape:window-maximized="1" />
  <metadata
     id="metadata5">
    <rdf:RDF>
      <cc:Work
         rdf:about="">
        <dc:format>image/svg+xml</dc:format>
        <dc:type
           rdf:resource="http://purl.org/dc/dcmitype/StillImage" />
        <dc:title />
      </cc:Work>
    </rdf:RDF>
  </metadata>
  <g
     inkscape:label="Layer 1"
     inkscape:groupmode="layer"
     id="layer1"
     transform="translate(437.85865,32.867341)">
    <g
       id="g6684"
       transform="matrix(0.26458333,0,0,0.26458333,-425.25924,-15.474777)">
      <g
         id="Eagle">
        <g
           id="g6664">
          <g
             id="g6662">
            <path
               id="path6654"
               d="m 347.52,45.117 c 0,0.24 0,0.48 0,0.72 -0.432,0.706 -0.858,1.416 -1.295,2.119 -1.018,1.64 -2.02,3.291 -3.065,4.913 -1.844,2.857 -3.44,5.931 -5.634,8.493 -4.213,4.923 -9.279,8.993 -14.36,12.993 -4.677,3.682 -9.741,6.72 -15.542,8.347 -3.979,1.116 -7.955,2.234 -12.191,3.424 1.418,0 2.568,-0.016 3.718,0.002 10.273,0.167 20.546,0.347 30.818,0.504 2.465,0.038 4.932,-0.005 7.396,0.013 1.312,0.01 1.938,0.825 1.506,2.014 -0.182,0.501 -0.491,1.03 -0.893,1.367 -2.1,1.762 -4.071,3.771 -6.416,5.125 -4.229,2.442 -8.65,4.563 -13.065,6.663 -4.51,2.144 -9.216,3.758 -14.18,4.523 -1.487,0.229 -2.969,0.494 -4.719,0.786 2.396,0.23 4.503,0.348 6.583,0.651 3.986,0.581 7.97,1.202 11.921,1.974 0.682,0.133 1.537,1.022 1.695,1.704 0.145,0.626 -0.418,1.544 -0.9,2.15 -0.505,0.636 -1.313,1.02 -1.938,1.571 -5.652,4.986 -12.143,8.245 -19.62,9.366 -4.411,0.662 -8.854,1.116 -13.274,1.716 -4.309,0.584 -8.548,0.065 -12.783,-0.659 -1.25,-0.214 -2.509,-0.373 -3.764,-0.557 2.572,2.346 5.219,4.496 7.902,6.598 4.015,3.145 8.563,5.693 11.073,10.464 0.797,1.515 0.6,2.72 -1.087,3.063 -2.275,0.463 -4.595,0.854 -6.909,0.951 -3.7,0.155 -7.413,0.115 -11.116,0.012 -2.017,-0.055 -4.026,-0.394 -6.035,-0.633 -1.235,-0.147 -2.464,-0.348 -3.863,-0.549 0.258,0.404 0.415,0.669 0.591,0.922 1.484,2.145 3.047,4.239 4.432,6.446 0.867,1.381 0.428,2.551 -0.985,3.431 -2.277,1.417 -4.76,1.286 -7.128,0.559 -4.219,-1.296 -8.359,-2.845 -12.534,-4.283 -0.518,-0.178 -1.045,-0.326 -1.758,-0.545 0.649,1.171 1.17,2.142 1.719,3.096 0.958,1.666 0.45,2.806 -1.474,3.092 -2.069,0.308 -4.146,0.633 -6.231,0.748 -1.64,0.09 -3.345,0.093 -4.936,-0.255 -3.527,-0.773 -6.252,-3.009 -8.85,-5.389 -1.462,-1.339 -2.938,-2.663 -4.408,-3.994 -1.694,1.987 -1.721,4.938 -1.005,6.156 0.863,1.467 1.821,2.908 2.931,4.196 3.067,3.563 7.073,5.724 11.489,7.093 3.749,1.163 7.628,1.395 11.546,1.09 2.394,-0.186 4.683,-1.198 7.16,-0.774 1.193,0.205 1.915,0.926 1.479,2.017 -0.494,1.234 -1.054,2.479 -1.806,3.566 -1.124,1.626 -2.44,3.119 -3.72,4.724 0.953,0.221 1.914,0.398 2.848,0.668 4.226,1.218 8.543,1.757 12.93,1.779 0.948,0.005 1.887,0.033 2.35,1.036 0.465,1.005 0.234,2.006 -0.45,2.791 -1.101,1.262 -2.257,2.488 -3.495,3.613 -1.91,1.734 -3.91,3.37 -5.872,5.047 0.015,0.104 0.029,0.208 0.044,0.313 2.411,0.258 4.819,0.543 7.233,0.767 3.885,0.361 7.75,0.824 11.686,0.384 3.574,-0.4 5.714,-2.327 5.962,-5.634 0.173,-2.309 0.484,-4.624 0.964,-6.888 0.649,-3.063 1.801,-5.927 4.016,-8.276 1.78,-1.889 4.188,-2.641 6.414,-3.713 2.291,-1.103 4.654,-1.603 7.215,-0.766 1.442,0.471 2.906,0.637 4.523,0.126 1.382,-0.436 2.982,-0.184 4.382,0.607 1.9,1.075 3.022,3.196 2.501,4.731 -1.104,0.112 -2.164,0.308 -3.224,0.303 -1.004,-0.005 -1.225,0.384 -1.115,1.305 0.2,1.687 -0.262,3.15 -1.728,4.166 -1.872,1.298 -3.633,2.82 -5.649,3.833 -4.421,2.22 -5.637,6.002 -5.567,10.484 0.014,0.91 0.027,2.235 1.175,2.502 2.602,0.604 5.28,0.596 7.475,-1.139 2.178,-1.722 4.141,-3.718 6.168,-5.625 3.633,-3.418 7.859,-4.271 12.611,-3.034 0.451,0.117 1.008,0.137 1.437,-0.017 4.426,-1.586 6.939,0.476 8.286,4.271 0.509,1.433 -0.23,2.264 -1.724,2.219 -2.485,-0.073 -4.639,0.444 -5.498,3.201 -0.102,0.326 -0.349,0.619 -0.571,0.893 -2.074,2.543 -4.855,4.211 -7.904,4.95 -4.166,1.011 -7.282,3.771 -11.188,5.591 0.533,0.57 0.855,1.131 1.339,1.396 2.172,1.193 4.363,2.359 6.598,3.431 4.13,1.979 8.14,5.826 5.904,11.509 -0.093,0.234 -0.054,0.646 0.099,0.831 1.33,1.604 1.446,3.461 1.188,5.398 -0.333,2.508 -2.168,4.584 -4.55,5.028 -0.349,0.065 -0.909,-0.313 -1.163,-0.646 -0.236,-0.311 -0.227,-0.829 -0.27,-1.262 -0.197,-1.945 -1.558,-3.14 -3.444,-3.379 -2.279,-0.289 -4.426,-0.932 -6.057,-2.808 -1.738,-2.001 -3.602,-3.899 -5.494,-5.758 -1.097,-1.078 -2.324,-2.02 -4.031,-1.971 -1.649,0.047 -3.312,-0.102 -4.95,0.04 -2.627,0.226 -5.26,0.502 -7.853,0.971 -3.153,0.57 -6.136,1.706 -8.824,3.496 -2.01,1.337 -2.329,2.642 -1.146,4.729 0.54,0.952 1.205,1.834 1.867,2.828 0.69,-0.369 1.358,-0.78 2.069,-1.095 1.197,-0.529 2.297,-0.018 2.051,0.986 -0.315,1.283 -0.693,2.65 -1.432,3.71 -1.33,1.905 -3.294,3.07 -5.61,3.486 -0.707,0.127 -1.466,-0.054 -2.188,0.024 -1.095,0.118 -2.189,0.543 -3.265,0.483 -5.823,-0.324 -10.294,-2.94 -13.119,-8.126 -0.307,-0.562 -0.442,-1.263 -0.491,-1.912 -0.275,-3.666 1.898,-6.259 4.103,-8.73 1.79,-2.006 3.864,-3.758 5.8,-5.636 0.774,-0.751 0.577,-1.936 -0.414,-2.472 -0.377,-0.203 -0.801,-0.39 -1.219,-0.433 -2.636,-0.268 -5.272,-0.561 -7.917,-0.715 -2.644,-0.154 -5.297,-0.157 -8.105,-0.229 -0.017,0.059 -0.177,0.355 -0.167,0.646 0.063,1.827 0.067,3.664 0.28,5.476 0.209,1.789 -0.839,2.859 -2.583,2.385 -0.606,-0.165 -1.182,-0.44 -1.782,-0.626 -8.422,-2.604 -15.405,-7.531 -21.759,-13.47 -1.925,-1.799 -3.75,-3.709 -5.732,-5.44 -1.573,-1.374 -3.297,-2.582 -5.006,-3.79 -0.306,-0.216 -0.903,-0.197 -1.302,-0.075 -3.258,0.995 -3.582,4.157 -3.331,6.659 0.222,2.21 1.553,3.907 2.617,5.733 1.158,1.986 0.71,2.843 -1.602,3.188 -0.118,0.018 -0.242,-0.007 -0.359,0.013 -1.629,0.271 -3.25,1.549 -3.354,2.774 -0.103,1.222 -0.113,2.441 0.574,3.579 1.187,1.963 2.227,4.019 3.466,5.946 1.046,1.628 2.313,3.111 3.433,4.694 1.058,1.494 0.514,2.636 -1.257,2.934 -2.451,0.414 -4.889,0.911 -7.605,1.424 1.389,1.402 2.706,2.31 4.276,2.614 2.597,0.505 5.232,0.811 7.847,1.227 3.181,0.506 6.337,0.126 9.489,-0.253 1.444,-0.174 2.867,-0.55 4.314,-0.68 1.176,-0.105 1.683,0.718 1.19,1.777 -0.779,1.676 -1.563,3.353 -2.412,4.993 -2.174,4.193 -5.141,7.658 -9.463,9.748 -2.851,1.378 -5.774,2.604 -8.665,3.897 0.81,0.453 1.692,0.957 2.584,1.445 1.7,0.929 3.329,2.055 5.127,2.723 2.617,0.973 5.326,1.765 8.056,2.356 3.473,0.754 6.987,1.423 10.52,1.767 2.597,0.253 5.252,-0.024 7.876,-0.157 1.887,-0.096 2.746,0.842 1.898,2.505 -0.888,1.743 -1.972,3.42 -3.183,4.958 -1.441,1.831 -2.837,3.896 -4.728,5.139 -5.811,3.814 -12.323,5.471 -19.3,5.101 -1.2,-0.064 -2.393,-0.273 -3.771,-0.438 3.886,4.086 6.303,8.804 7.58,14.018 0.91,3.715 1.295,7.56 1.894,11.35 0.713,4.515 0.31,8.963 -0.931,13.335 -0.617,2.179 -2.546,2.674 -4.252,1.194 -0.629,-0.546 -1.283,-1.068 -1.961,-1.552 -6.598,-4.695 -13.025,-9.605 -19.003,-15.081 -1.604,-1.47 -3.19,-2.961 -4.765,-4.424 0.045,0.693 0.067,1.363 0.137,2.028 0.413,3.939 0.466,7.885 -0.327,11.771 -1.446,7.081 -4.296,13.721 -6.877,20.42 -1.472,3.819 -3.667,7.367 -5.651,10.975 -0.32,0.582 -1.257,1.172 -1.883,1.146 -0.69,-0.028 -1.538,-0.626 -1.977,-1.226 -0.541,-0.737 -0.797,-1.713 -1.059,-2.619 -1.923,-6.644 -3.817,-13.292 -6.561,-19.667 -1.816,-4.221 -3.374,-8.538 -3.821,-13.169 -0.095,-0.991 -0.284,-1.974 -0.447,-3.083 -1.847,1.519 -3.503,2.957 -5.238,4.292 -4.51,3.472 -9.06,6.891 -13.581,10.347 -1.599,1.222 -3.345,0.774 -3.987,-1.125 -1.161,-3.434 -1.509,-7.012 -1.331,-10.588 0.156,-3.123 0.665,-6.235 1.121,-9.337 0.768,-5.225 2.345,-10.179 5.293,-14.616 0.99,-1.49 2.085,-2.911 2.976,-4.146 -2.565,0 -5.301,0.002 -8.036,-10e-4 -5.205,-0.005 -9.74,-2.151 -14.181,-4.523 -2.314,-1.237 -3.705,-3.455 -5.196,-5.505 -1.202,-1.651 -2.342,-3.371 -3.303,-5.17 -0.688,-1.287 0.196,-2.38 1.661,-2.319 0.834,0.034 1.671,0.04 2.501,0.126 3.514,0.364 7.031,0.166 10.46,-0.509 4.056,-0.797 8.028,-2.015 12.055,-2.975 3.617,-0.862 6.456,-3.174 9.729,-4.896 -1.38,-0.499 -2.623,-0.901 -3.828,-1.393 -4.105,-1.672 -8.124,-3.514 -11.057,-7.015 -2.427,-2.896 -4.394,-6.085 -5.617,-9.686 -0.188,-0.551 -0.42,-1.517 -0.186,-1.691 0.494,-0.368 1.301,-0.509 1.949,-0.443 3.176,0.317 6.335,0.85 9.517,1.067 1.643,0.112 3.326,-0.228 4.981,-0.441 2.231,-0.288 4.501,-0.472 6.662,-1.049 1.387,-0.37 2.806,-1.083 3.802,-2.585 -2.586,-0.482 -5.019,-0.971 -7.463,-1.382 -1.717,-0.289 -2.31,-1.411 -1.337,-2.834 0.693,-1.013 1.602,-1.883 2.256,-2.917 1.583,-2.505 3.103,-5.051 4.591,-7.614 1.705,-2.938 0.716,-6.376 -3.244,-6.609 -0.416,-0.024 -0.832,-0.254 -1.221,-0.441 -0.983,-0.474 -1.164,-1.086 -0.603,-2.002 0.659,-1.076 1.363,-2.125 1.997,-3.215 1.358,-2.338 1.692,-6.165 0,-8.448 -0.797,-1.075 -2.817,-1.938 -3.564,-1.384 -1.809,1.343 -3.652,2.654 -5.337,4.143 -2.628,2.321 -5.085,4.836 -7.708,7.163 -3.553,3.151 -7.324,6.056 -11.615,8.122 -3.11,1.497 -6.376,2.684 -9.615,3.898 -1.436,0.538 -2.853,-0.591 -2.718,-1.902 0.19,-1.853 0.309,-3.713 0.418,-5.573 0.024,-0.406 -0.124,-0.824 -0.197,-1.262 -1.021,0.167 -1.902,0.396 -2.793,0.44 -3.894,0.196 -7.791,0.309 -11.683,0.522 -0.887,0.049 -1.788,0.303 -2.629,0.607 -0.828,0.3 -1.377,1.606 -0.938,2.089 1.396,1.534 2.679,3.236 4.308,4.477 1.941,1.478 3.45,3.233 4.666,5.276 1.39,2.335 2.125,4.799 0.638,7.38 -1.746,3.029 -4.167,5.308 -7.502,6.556 -2.514,0.941 -5.014,1.694 -7.713,0.751 -0.541,-0.189 -1.158,-0.159 -1.739,-0.232 -1.067,-0.135 -2.222,-0.055 -3.184,-0.447 -2.619,-1.065 -4.57,-2.848 -5.052,-5.814 -0.088,-0.54 -0.171,-1.47 0.067,-1.593 0.516,-0.266 1.28,-0.272 1.87,-0.114 0.697,0.186 1.317,0.657 1.958,0.999 0.57,-0.818 1.099,-1.55 1.599,-2.302 1.502,-2.259 1.549,-3.632 -1.16,-5.427 -3.728,-2.471 -8.046,-3.492 -12.449,-4.058 -1.766,-0.226 -3.544,-0.403 -5.322,-0.463 -2.239,-0.074 -4.63,-0.356 -6.448,1.294 -2.312,2.098 -4.525,4.321 -6.625,6.632 -1.698,1.867 -3.845,2.578 -6.179,2.792 -1.269,0.115 -2.151,0.559 -2.63,1.655 -0.403,0.925 -0.655,1.922 -0.907,2.903 -0.198,0.772 -0.643,0.899 -1.341,0.748 -4.484,-0.971 -5.627,-7.076 -3.579,-9.925 0.529,-0.735 0.498,-1.269 0.261,-2.02 -0.583,-1.853 -0.753,-3.728 0.195,-5.526 1.204,-2.284 3.067,-3.893 5.342,-5.047 2.071,-1.052 4.178,-2.036 6.214,-3.148 0.808,-0.441 1.469,-1.15 2.218,-1.754 -2.12,-1.348 -3.927,-2.546 -5.788,-3.656 -0.834,-0.499 -1.737,-0.968 -2.671,-1.198 -2.708,-0.669 -5.217,-1.763 -7.573,-3.225 -1.56,-0.968 -3.105,-2.051 -3.705,-3.858 -0.441,-1.33 -1.275,-2.083 -2.495,-2.414 -1.006,-0.272 -2.076,-0.377 -3.124,-0.422 -1.099,-0.046 -1.938,-0.861 -1.607,-1.916 1.192,-3.797 3.749,-6.249 8.29,-4.671 0.535,0.186 1.222,0.177 1.775,0.025 3.58,-0.975 7.085,-0.719 10.103,1.395 2.322,1.626 4.236,3.831 6.351,5.758 2.11,1.922 4.48,3.161 7.462,3.009 2.627,-0.135 3.34,-0.771 3.316,-3.41 -0.007,-0.865 -0.065,-1.748 -0.245,-2.592 -0.552,-2.599 -1.481,-4.976 -3.928,-6.455 -2.08,-1.258 -4.127,-2.57 -6.162,-3.901 -1.852,-1.212 -3.02,-2.812 -2.634,-5.177 0.115,-0.702 -0.113,-1.025 -0.873,-1.057 -1.178,-0.049 -2.351,-0.199 -3.653,-0.318 -0.125,-1.733 0.602,-3.153 1.905,-4.195 1.928,-1.541 4.157,-1.509 6.441,-0.896 0.448,0.12 0.985,0.184 1.415,0.053 3.018,-0.917 5.988,-1.291 8.933,0.289 1.457,0.781 3.049,1.332 4.438,2.21 1.114,0.704 2.216,1.6 2.974,2.661 2.911,4.074 3.952,8.776 4.104,13.692 0.103,3.332 0.88,4.552 4.128,5.456 1.474,0.411 3.036,0.698 4.559,0.699 2.503,0.002 5.009,-0.242 7.509,-0.445 2.894,-0.234 5.782,-0.537 9.014,-0.842 -1.262,-1.138 -2.212,-1.974 -3.14,-2.834 -2.104,-1.951 -4.218,-3.892 -6.282,-5.885 -0.86,-0.83 -1.201,-1.905 -0.692,-3.056 0.472,-1.067 1.494,-0.958 2.461,-1.057 3.508,-0.357 7.018,-0.725 10.506,-1.229 1.745,-0.253 3.445,-0.812 5.279,-1.259 -0.303,-0.32 -0.473,-0.488 -0.63,-0.667 -1.971,-2.227 -3.958,-4.438 -4.928,-7.342 -0.39,-1.168 -0.034,-2.126 1.032,-2.179 1.328,-0.065 2.719,-0.144 3.991,0.163 3.47,0.837 6.972,0.841 10.444,0.434 4.954,-0.581 9.467,-2.433 13.438,-5.51 2.402,-1.861 4.412,-4.104 5.636,-6.867 0.913,-2.06 0.417,-4.146 -1.015,-6.069 -1.519,1.379 -2.911,2.762 -4.429,3.99 -1.818,1.471 -3.674,2.918 -5.639,4.182 -3.411,2.192 -7.224,1.776 -10.991,1.362 -1.132,-0.125 -2.246,-0.406 -3.37,-0.607 -1.92,-0.343 -2.442,-1.442 -1.49,-3.097 0.56,-0.972 1.085,-1.964 1.73,-3.137 -0.548,0.187 -0.868,0.295 -1.187,0.404 -4.362,1.497 -8.695,3.092 -13.1,4.452 -2.371,0.732 -4.85,0.859 -7.128,-0.55 -1.422,-0.88 -1.825,-2.019 -1.007,-3.431 0.889,-1.535 1.926,-2.984 2.933,-4.447 0.649,-0.943 1.361,-1.843 2.111,-2.852 -0.313,-0.039 -0.394,-0.064 -0.471,-0.056 -4.014,0.471 -8.017,1.189 -12.042,1.35 -3.932,0.157 -7.89,-0.211 -11.831,-0.442 -1.244,-0.073 -2.487,-0.384 -3.701,-0.699 -1.167,-0.303 -1.875,-1.5 -1.392,-2.338 1.292,-2.24 2.667,-4.452 4.731,-6.074 3.909,-3.072 7.878,-6.067 11.808,-9.112 1.009,-0.782 1.964,-1.633 3.19,-2.658 -1.563,0.221 -2.777,0.352 -3.976,0.569 -4.311,0.78 -8.629,1.278 -13.016,0.687 -4.382,-0.59 -8.794,-0.998 -13.151,-1.73 -3.643,-0.613 -7.253,-1.486 -10.588,-3.202 -4.087,-2.104 -7.702,-4.889 -11.162,-7.87 -0.503,-0.434 -0.882,-1.497 -0.712,-2.096 0.188,-0.659 1.004,-1.25 1.683,-1.623 0.591,-0.325 1.367,-0.325 2.067,-0.436 3.28,-0.517 6.555,-1.067 9.844,-1.518 2.089,-0.286 4.2,-0.42 6.653,-0.656 -2.128,-0.338 -3.927,-0.577 -5.706,-0.916 -5.907,-1.126 -11.445,-3.297 -16.748,-6.084 -4.536,-2.384 -9.46,-4.109 -13.294,-7.703 -1.155,-1.083 -2.398,-2.109 -3.369,-3.344 -0.912,-1.16 -0.178,-2.41 1.281,-2.423 2.425,-0.021 4.852,0.032 7.276,-0.015 6.954,-0.135 13.906,-0.341 20.86,-0.448 4.514,-0.069 9.029,-0.013 13.544,-0.013 C 49.118,85.291 46.418,84.444 43.678,83.76 37.734,82.275 32.068,80.141 27.179,76.377 23.361,73.437 19.727,70.259 15.982,67.224 13.21,64.976 10.541,62.588 8.574,59.616 5.587,55.108 2.845,50.438 0,45.837 c 0,-0.24 0,-0.48 0,-0.72 0.599,-0.908 1.447,-1.019 2.382,-0.678 0.962,0.35 1.883,0.822 2.854,1.144 7.064,2.341 14.131,4.676 21.208,6.978 6.158,2.003 12.332,3.959 18.499,5.936 0.047,-0.113 0.094,-0.227 0.14,-0.34 C 44.194,57.428 43.279,56.729 42.42,55.965 37.292,51.4 33.1,46.027 29.178,40.437 24.231,33.385 20.303,25.776 17.272,17.729 16.297,15.142 15.679,12.39 15.194,9.66 14.901,8.009 15.914,7.438 17.48,7.981 c 4.075,1.414 7.69,3.746 11.253,6.05 12.553,8.115 24.975,16.434 37.449,24.671 2.423,1.6 4.855,3.185 7.359,4.826 C 72.426,40.985 71.174,38.653 70.376,36.174 69.44,33.27 68.82,30.255 68.208,27.258 67.52,23.891 67.433,20.474 67.969,17.074 c 0.082,-0.519 0.627,-1.194 1.106,-1.354 0.453,-0.151 1.244,0.128 1.632,0.491 0.862,0.807 1.53,1.815 2.339,2.685 3.577,3.848 7.057,7.797 10.803,11.474 3.149,3.092 6.503,6.002 9.968,8.737 5.748,4.537 12.099,8.174 18.409,11.87 5.897,3.453 11.461,7.384 15.869,12.705 1.79,2.16 3.013,4.538 2.253,7.549 -1.27,5.033 -4.099,9.197 -6.96,13.415 -2.723,4.013 -5.488,8.103 -4.388,13.481 0.527,2.578 2.145,5.65 5.285,6.257 0.658,0.127 1.304,0.322 1.961,0.455 2.85,0.576 4.757,-0.384 5.625,-2.816 0.612,-1.718 -0.28,-3.233 -1.998,-3.388 -0.945,-0.085 -1.891,-0.157 -2.834,-0.251 -1.124,-0.112 -1.398,-0.524 -1.085,-1.587 0.498,-1.698 1.019,-3.389 1.49,-5.095 1.087,-3.935 2.087,-7.895 3.238,-11.81 1.461,-4.97 3.113,-9.885 4.524,-14.869 0.486,-1.717 0.468,-3.652 -0.484,-5.228 -0.993,-1.643 -2.38,-3.044 -3.523,-4.604 -0.245,-0.333 -0.402,-1.027 -0.222,-1.328 1.172,-1.958 2.443,-3.855 3.692,-5.767 1.419,-2.172 2.918,-4.296 4.25,-6.521 1.149,-1.918 2.006,-4.013 3.179,-5.916 2.886,-4.68 4.572,-9.754 5.195,-15.183 0.132,-1.155 0.647,-1.705 1.667,-2.002 1.091,-0.318 2.17,-0.677 3.417,-1.069 -2.313,-0.813 -4.458,-1.474 -6.524,-2.327 -1.148,-0.474 -2.249,-1.166 -3.198,-1.965 -0.363,-0.306 -0.417,-1.227 -0.284,-1.791 0.094,-0.398 0.696,-0.862 1.145,-0.96 3.037,-0.666 6.142,-1.067 9.133,-1.887 4.991,-1.37 9.934,-2.925 14.859,-4.521 5.238,-1.697 10.584,-2.896 16.046,-3.434 3.488,-0.344 7.02,-0.324 10.531,-0.328 1.695,-0.001 3.45,0.103 5.072,0.548 2.105,0.578 4.117,1.514 6.147,2.348 2.566,1.054 4.748,2.697 6.6,4.729 1.196,1.313 2.178,2.818 3.296,4.206 2.743,3.401 4.048,7.306 4.02,11.644 -0.004,0.534 -0.417,1.232 -0.859,1.543 -0.333,0.234 -1.106,0.133 -1.527,-0.1 -1.588,-0.879 -3.051,-1.999 -4.674,-2.796 -2.662,-1.309 -5.278,-1.073 -7.298,1.604 1.974,-0.209 3.973,-0.466 5.98,-0.596 0.406,-0.026 1.067,0.336 1.206,0.682 0.139,0.348 -0.12,0.977 -0.391,1.346 -1.286,1.75 -2.642,3.451 -3.963,5.177 -0.96,1.254 -1.732,2.717 -2.894,3.74 -3.046,2.682 -6.378,4.944 -10.528,5.613 -0.915,0.148 -1.578,0.565 -1.832,1.568 -0.299,1.18 -0.849,2.305 -1.069,3.495 -0.364,1.964 -0.326,3.92 1.523,5.252 2.081,1.498 4.171,2.988 6.326,4.374 1.459,0.938 3.076,1.626 4.551,2.542 1.576,0.978 3.133,2.011 4.576,3.171 1.105,0.889 2.482,1.674 2.574,3.448 -2.106,0.577 -4.405,0.601 -6.185,2.272 0.953,1.188 1.916,2.353 2.842,3.546 3.237,4.171 6.76,8.082 10.688,11.613 2.121,1.909 3.941,4.045 5.369,6.521 0.5,0.868 0.491,1.361 -0.62,1.754 -2.216,0.783 -4.372,1.734 -6.134,2.448 -0.231,3.761 -0.362,7.21 -0.704,10.64 -0.099,0.982 0.111,1.431 0.905,1.864 1.769,0.966 3.592,0.578 5.343,0.151 1.312,-0.319 2.825,-0.742 3.724,-1.643 2.575,-2.582 3.287,-6.094 2.376,-9.375 -0.868,-3.13 -2.592,-6.122 -4.406,-8.867 -2.434,-3.683 -4.926,-7.287 -6.422,-11.482 -0.951,-2.665 -1.158,-5.271 0.492,-7.741 0.727,-1.089 1.482,-2.186 2.379,-3.132 3.915,-4.136 8.428,-7.555 13.296,-10.463 7.195,-4.298 14.493,-8.417 21.062,-13.685 5.143,-4.125 10.01,-8.536 14.417,-13.438 2.523,-2.807 4.943,-5.708 7.47,-8.511 0.327,-0.363 1.103,-0.654 1.521,-0.519 0.5,0.163 1.056,0.758 1.203,1.275 0.257,0.898 0.341,1.887 0.282,2.825 -0.178,2.841 -0.277,5.706 -0.742,8.506 -0.669,4.028 -1.507,8.041 -3.515,11.69 -0.598,1.087 -1.061,2.248 -1.698,3.616 0.457,-0.32 0.676,-0.482 0.902,-0.632 8.705,-5.728 17.393,-11.481 26.12,-17.173 7.334,-4.783 14.676,-9.557 22.097,-14.202 2.329,-1.458 4.91,-2.523 7.413,-3.688 1.002,-0.466 1.725,-0.018 1.927,1.049 0.088,0.464 0.123,0.974 0.024,1.43 -0.339,1.573 -0.637,3.168 -1.148,4.689 -2.357,7.011 -5.535,13.649 -9.377,19.963 -4.677,7.687 -10.054,14.827 -16.72,20.927 -0.84,0.768 -1.75,1.459 -2.627,2.185 1.697,-0.309 3.306,-0.673 4.871,-1.176 7.62,-2.449 15.237,-4.91 22.839,-7.417 4.891,-1.613 9.758,-3.298 14.624,-4.983 1.048,-0.359 1.984,-0.524 2.711,0.55 z M 176.632,18.997 c 3.098,3.047 8.945,1.295 9.757,-1.674 -3.218,0.551 -6.342,1.088 -9.757,1.674 z"
               style="clip-rule:evenodd;fill-rule:evenodd;stroke:#000000;stroke-opacity:1;fill:none;stroke-width:5.66929141;stroke-miterlimit:4;stroke-dasharray:none;stroke-linejoin:round"
               inkscape:connector-curvature="0" />
            <path
               id="path6656"
               d="m 0,45.837 c 2.845,4.602 5.587,9.271 8.571,13.781 1.967,2.972 4.636,5.36 7.408,7.608 3.745,3.036 7.379,6.213 11.197,9.153 4.889,3.765 10.554,5.898 16.499,7.383 2.74,0.685 5.44,1.531 8.149,2.405 -4.515,0 -9.03,-0.056 -13.544,0.013 -6.954,0.107 -13.906,0.313 -20.86,0.448 -2.424,0.047 -4.851,-0.006 -7.276,0.015 -1.459,0.013 -2.193,1.263 -1.281,2.423 0.971,1.235 2.214,2.261 3.369,3.344 3.833,3.594 8.758,5.319 13.294,7.703 5.302,2.787 10.84,4.958 16.748,6.084 1.779,0.339 3.578,0.578 5.706,0.916 -2.453,0.236 -4.563,0.37 -6.653,0.656 -3.289,0.451 -6.564,1.001 -9.844,1.518 -0.7,0.111 -1.476,0.111 -2.067,0.436 -0.678,0.374 -1.495,0.964 -1.683,1.623 -0.17,0.599 0.208,1.663 0.712,2.096 3.46,2.981 7.075,5.766 11.162,7.87 3.335,1.716 6.945,2.589 10.588,3.202 4.357,0.733 8.769,1.14 13.151,1.73 4.387,0.591 8.705,0.093 13.016,-0.687 1.199,-0.217 2.413,-0.348 3.976,-0.569 -1.226,1.025 -2.181,1.876 -3.19,2.658 -3.93,3.045 -7.899,6.041 -11.808,9.112 -2.064,1.622 -3.438,3.834 -4.731,6.074 -0.483,0.838 0.225,2.036 1.392,2.338 1.214,0.315 2.457,0.626 3.701,0.699 3.941,0.231 7.898,0.599 11.831,0.442 4.026,-0.161 8.029,-0.879 12.042,-1.35 0.077,-0.009 0.158,0.017 0.471,0.056 -0.75,1.009 -1.461,1.909 -2.111,2.852 -1.007,1.462 -2.044,2.912 -2.933,4.447 -0.817,1.412 -0.415,2.551 1.007,3.431 2.279,1.41 4.758,1.282 7.128,0.55 4.405,-1.36 8.737,-2.955 13.1,-4.452 0.319,-0.109 0.638,-0.217 1.187,-0.404 -0.645,1.173 -1.17,2.165 -1.73,3.137 -0.953,1.655 -0.43,2.753 1.49,3.097 1.124,0.201 2.238,0.482 3.37,0.607 3.768,0.415 7.581,0.831 10.991,-1.362 1.964,-1.263 3.82,-2.71 5.639,-4.182 1.518,-1.228 2.91,-2.611 4.429,-3.99 1.432,1.923 1.928,4.009 1.015,6.069 -1.225,2.762 -3.234,5.006 -5.636,6.867 -3.971,3.077 -8.485,4.93 -13.438,5.51 -3.472,0.407 -6.974,0.403 -10.444,-0.434 -1.272,-0.307 -2.663,-0.229 -3.991,-0.163 -1.065,0.053 -1.422,1.011 -1.032,2.179 0.97,2.904 2.957,5.116 4.928,7.342 0.158,0.179 0.327,0.347 0.63,0.667 -1.834,0.447 -3.534,1.006 -5.279,1.259 -3.489,0.505 -6.999,0.872 -10.506,1.229 -0.967,0.099 -1.989,-0.011 -2.461,1.057 -0.509,1.15 -0.168,2.226 0.692,3.056 2.064,1.993 4.178,3.934 6.282,5.885 0.928,0.86 1.878,1.696 3.14,2.834 -3.232,0.305 -6.12,0.607 -9.014,0.842 -2.5,0.203 -5.006,0.447 -7.509,0.445 -1.522,-0.001 -3.084,-0.288 -4.559,-0.699 -3.248,-0.904 -4.025,-2.124 -4.128,-5.456 -0.151,-4.916 -1.192,-9.618 -4.104,-13.692 -0.758,-1.061 -1.86,-1.957 -2.974,-2.661 -1.39,-0.878 -2.982,-1.429 -4.438,-2.21 -2.945,-1.579 -5.915,-1.206 -8.933,-0.289 -0.43,0.131 -0.967,0.067 -1.415,-0.053 -2.284,-0.613 -4.513,-0.646 -6.441,0.896 -1.304,1.042 -2.031,2.461 -1.905,4.195 1.302,0.119 2.476,0.269 3.653,0.318 0.76,0.032 0.988,0.355 0.873,1.057 -0.385,2.365 0.783,3.965 2.634,5.177 2.034,1.331 4.082,2.644 6.162,3.901 2.446,1.479 3.375,3.856 3.928,6.455 0.179,0.844 0.237,1.727 0.245,2.592 0.024,2.639 -0.689,3.275 -3.316,3.41 -2.982,0.152 -5.352,-1.087 -7.462,-3.009 -2.115,-1.927 -4.029,-4.132 -6.351,-5.758 -3.017,-2.113 -6.523,-2.369 -10.103,-1.395 -0.554,0.151 -1.241,0.16 -1.775,-0.025 -4.541,-1.578 -7.097,0.874 -8.29,4.671 -0.331,1.055 0.508,1.87 1.607,1.916 1.047,0.045 2.117,0.149 3.124,0.422 1.219,0.331 2.053,1.084 2.495,2.414 0.6,1.808 2.146,2.891 3.705,3.858 2.355,1.462 4.865,2.556 7.573,3.225 0.934,0.23 1.836,0.699 2.671,1.198 1.86,1.11 3.668,2.309 5.788,3.656 -0.749,0.604 -1.411,1.313 -2.218,1.754 -2.037,1.112 -4.144,2.097 -6.214,3.148 -2.275,1.154 -4.139,2.763 -5.342,5.047 -0.948,1.799 -0.778,3.674 -0.195,5.526 0.236,0.751 0.268,1.284 -0.261,2.02 -2.048,2.849 -0.905,8.954 3.579,9.925 0.698,0.151 1.143,0.024 1.341,-0.748 0.251,-0.981 0.503,-1.979 0.907,-2.903 0.479,-1.097 1.361,-1.54 2.63,-1.655 2.333,-0.214 4.48,-0.925 6.179,-2.792 2.1,-2.311 4.313,-4.534 6.625,-6.632 1.818,-1.65 4.209,-1.368 6.448,-1.294 1.778,0.06 3.557,0.237 5.322,0.463 4.403,0.565 8.721,1.587 12.449,4.058 2.708,1.795 2.662,3.168 1.16,5.427 -0.5,0.752 -1.029,1.483 -1.599,2.302 -0.641,-0.342 -1.261,-0.813 -1.958,-0.999 -0.59,-0.158 -1.354,-0.151 -1.87,0.114 -0.238,0.123 -0.155,1.053 -0.067,1.593 0.481,2.967 2.433,4.749 5.052,5.814 0.962,0.393 2.117,0.313 3.184,0.447 0.582,0.073 1.198,0.043 1.739,0.232 2.699,0.943 5.199,0.19 7.713,-0.751 3.335,-1.248 5.756,-3.526 7.502,-6.556 1.488,-2.581 0.752,-5.045 -0.638,-7.38 -1.216,-2.043 -2.725,-3.799 -4.666,-5.276 -1.629,-1.24 -2.912,-2.942 -4.308,-4.477 -0.439,-0.482 0.11,-1.789 0.938,-2.089 0.841,-0.305 1.742,-0.559 2.629,-0.607 3.892,-0.214 7.79,-0.326 11.683,-0.522 0.891,-0.045 1.772,-0.273 2.793,-0.44 0.073,0.438 0.221,0.855 0.197,1.262 -0.109,1.86 -0.228,3.721 -0.418,5.573 -0.135,1.312 1.282,2.44 2.718,1.902 3.238,-1.215 6.504,-2.401 9.615,-3.898 4.291,-2.066 8.062,-4.971 11.615,-8.122 2.623,-2.327 5.08,-4.842 7.708,-7.163 1.685,-1.488 3.529,-2.8 5.337,-4.143 0.747,-0.555 2.767,0.309 3.564,1.384 1.692,2.283 1.358,6.11 0,8.448 -0.633,1.09 -1.338,2.139 -1.997,3.215 -0.561,0.916 -0.38,1.528 0.603,2.002 0.39,0.188 0.806,0.417 1.221,0.441 3.959,0.233 4.948,3.672 3.244,6.609 -1.488,2.563 -3.008,5.109 -4.591,7.614 -0.654,1.034 -1.563,1.904 -2.256,2.917 -0.973,1.423 -0.38,2.545 1.337,2.834 2.445,0.411 4.877,0.899 7.463,1.382 -0.996,1.502 -2.415,2.215 -3.802,2.585 -2.16,0.577 -4.43,0.761 -6.662,1.049 -1.655,0.214 -3.338,0.554 -4.981,0.441 -3.182,-0.218 -6.341,-0.75 -9.517,-1.067 -0.648,-0.065 -1.456,0.075 -1.949,0.443 -0.234,0.175 -10e-4,1.141 0.186,1.691 1.223,3.601 3.19,6.789 5.617,9.686 2.933,3.501 6.952,5.343 11.057,7.015 1.206,0.491 2.448,0.894 3.828,1.393 -3.273,1.722 -6.113,4.033 -9.729,4.896 -4.026,0.96 -7.999,2.178 -12.055,2.975 -3.43,0.675 -6.946,0.873 -10.46,0.509 -0.83,-0.086 -1.667,-0.092 -2.501,-0.126 -1.465,-0.061 -2.349,1.032 -1.661,2.319 0.961,1.799 2.101,3.519 3.303,5.17 1.491,2.05 2.882,4.268 5.196,5.505 4.44,2.372 8.976,4.519 14.181,4.523 2.735,0.003 5.471,10e-4 8.036,10e-4 -0.891,1.234 -1.986,2.655 -2.976,4.146 -2.948,4.438 -4.525,9.392 -5.293,14.616 -0.456,3.102 -0.964,6.214 -1.121,9.337 -0.179,3.576 0.17,7.154 1.331,10.588 0.642,1.899 2.388,2.347 3.987,1.125 4.521,-3.456 9.071,-6.875 13.581,-10.347 1.735,-1.335 3.391,-2.773 5.238,-4.292 0.164,1.109 0.352,2.092 0.447,3.083 0.447,4.631 2.005,8.948 3.821,13.169 2.743,6.375 4.637,13.023 6.561,19.667 0.262,0.906 0.519,1.882 1.059,2.619 0.439,0.6 1.287,1.197 1.977,1.226 0.626,0.026 1.563,-0.563 1.883,-1.146 1.984,-3.607 4.18,-7.155 5.651,-10.975 2.581,-6.699 5.431,-13.339 6.877,-20.42 0.793,-3.886 0.74,-7.831 0.327,-11.771 -0.069,-0.665 -0.092,-1.335 -0.137,-2.028 1.574,1.463 3.16,2.954 4.765,4.424 5.978,5.476 12.405,10.386 19.003,15.081 0.678,0.483 1.332,1.006 1.961,1.552 1.706,1.479 3.635,0.984 4.252,-1.194 1.24,-4.372 1.644,-8.82 0.931,-13.335 -0.599,-3.79 -0.983,-7.635 -1.894,-11.35 -1.277,-5.214 -3.694,-9.932 -7.58,-14.018 1.379,0.164 2.571,0.373 3.771,0.438 6.977,0.37 13.489,-1.286 19.3,-5.101 1.891,-1.242 3.286,-3.308 4.728,-5.139 1.211,-1.538 2.295,-3.215 3.183,-4.958 0.848,-1.663 -0.012,-2.601 -1.898,-2.505 -2.624,0.133 -5.279,0.41 -7.876,0.157 -3.532,-0.344 -7.047,-1.013 -10.52,-1.767 -2.729,-0.592 -5.438,-1.384 -8.056,-2.356 -1.798,-0.668 -3.427,-1.794 -5.127,-2.723 -0.892,-0.488 -1.774,-0.992 -2.584,-1.445 2.891,-1.294 5.814,-2.52 8.665,-3.897 4.322,-2.09 7.289,-5.555 9.463,-9.748 0.85,-1.641 1.633,-3.317 2.412,-4.993 0.492,-1.06 -0.015,-1.883 -1.19,-1.777 -1.447,0.13 -2.87,0.506 -4.314,0.68 -3.152,0.379 -6.309,0.759 -9.489,0.253 -2.614,-0.416 -5.25,-0.722 -7.847,-1.227 -1.57,-0.305 -2.888,-1.212 -4.276,-2.614 2.717,-0.513 5.154,-1.01 7.605,-1.424 1.771,-0.298 2.314,-1.439 1.257,-2.934 -1.119,-1.583 -2.387,-3.066 -3.433,-4.694 -1.239,-1.928 -2.279,-3.983 -3.466,-5.946 -0.688,-1.138 -0.677,-2.357 -0.574,-3.579 0.104,-1.226 1.725,-2.504 3.354,-2.774 0.117,-0.02 0.241,0.005 0.359,-0.013 2.312,-0.345 2.76,-1.201 1.602,-3.188 -1.064,-1.826 -2.396,-3.523 -2.617,-5.733 -0.251,-2.502 0.073,-5.664 3.331,-6.659 0.398,-0.122 0.996,-0.141 1.302,0.075 1.709,1.208 3.433,2.416 5.006,3.79 1.982,1.731 3.808,3.642 5.732,5.44 6.354,5.938 13.337,10.865 21.759,13.47 0.601,0.186 1.176,0.461 1.782,0.626 1.744,0.475 2.792,-0.596 2.583,-2.385 -0.213,-1.812 -0.218,-3.648 -0.28,-5.476 -0.01,-0.291 0.15,-0.588 0.167,-0.646 2.809,0.072 5.462,0.075 8.105,0.229 2.645,0.154 5.281,0.447 7.917,0.715 0.418,0.043 0.842,0.229 1.219,0.433 0.991,0.536 1.188,1.721 0.414,2.472 -1.936,1.878 -4.01,3.63 -5.8,5.636 -2.204,2.472 -4.378,5.064 -4.103,8.73 0.049,0.649 0.185,1.351 0.491,1.912 2.825,5.186 7.296,7.802 13.119,8.126 1.075,0.06 2.17,-0.365 3.265,-0.483 0.722,-0.078 1.48,0.103 2.188,-0.024 2.316,-0.416 4.28,-1.581 5.61,-3.486 0.738,-1.06 1.116,-2.427 1.432,-3.71 0.246,-1.004 -0.854,-1.516 -2.051,-0.986 -0.711,0.314 -1.379,0.726 -2.069,1.095 -0.662,-0.994 -1.327,-1.876 -1.867,-2.828 -1.183,-2.087 -0.863,-3.392 1.146,-4.729 2.688,-1.79 5.671,-2.926 8.824,-3.496 2.593,-0.469 5.226,-0.745 7.853,-0.971 1.639,-0.142 3.301,0.007 4.95,-0.04 1.707,-0.049 2.935,0.893 4.031,1.971 1.893,1.858 3.756,3.757 5.494,5.758 1.631,1.876 3.777,2.519 6.057,2.808 1.887,0.239 3.247,1.434 3.444,3.379 0.043,0.433 0.033,0.951 0.27,1.262 0.254,0.333 0.814,0.712 1.163,0.646 2.382,-0.444 4.217,-2.521 4.55,-5.028 0.258,-1.938 0.142,-3.794 -1.188,-5.398 -0.152,-0.185 -0.191,-0.597 -0.099,-0.831 2.235,-5.683 -1.774,-9.529 -5.904,-11.509 -2.234,-1.071 -4.426,-2.237 -6.598,-3.431 -0.483,-0.266 -0.806,-0.826 -1.339,-1.396 3.905,-1.82 7.021,-4.58 11.188,-5.591 3.049,-0.739 5.83,-2.407 7.904,-4.95 0.223,-0.273 0.47,-0.566 0.571,-0.893 0.859,-2.757 3.013,-3.274 5.498,-3.201 1.493,0.045 2.232,-0.786 1.724,-2.219 -1.347,-3.795 -3.86,-5.856 -8.286,-4.271 -0.429,0.153 -0.985,0.134 -1.437,0.017 -4.752,-1.237 -8.979,-0.384 -12.611,3.034 -2.027,1.907 -3.99,3.903 -6.168,5.625 -2.194,1.734 -4.873,1.743 -7.475,1.139 -1.147,-0.267 -1.161,-1.592 -1.175,-2.502 -0.069,-4.482 1.146,-8.265 5.567,-10.484 2.017,-1.013 3.777,-2.535 5.649,-3.833 1.466,-1.016 1.928,-2.479 1.728,-4.166 -0.109,-0.921 0.111,-1.31 1.115,-1.305 1.06,0.005 2.12,-0.19 3.224,-0.303 0.521,-1.535 -0.601,-3.657 -2.501,-4.731 -1.399,-0.791 -3,-1.043 -4.382,-0.607 -1.617,0.511 -3.081,0.345 -4.523,-0.126 -2.561,-0.837 -4.924,-0.336 -7.215,0.766 -2.227,1.072 -4.634,1.824 -6.414,3.713 -2.215,2.35 -3.366,5.213 -4.016,8.276 -0.479,2.264 -0.791,4.579 -0.964,6.888 -0.248,3.307 -2.388,5.233 -5.962,5.634 -3.936,0.44 -7.801,-0.022 -11.686,-0.384 -2.414,-0.224 -4.822,-0.509 -7.233,-0.767 -0.015,-0.104 -0.029,-0.208 -0.044,-0.313 1.962,-1.677 3.962,-3.313 5.872,-5.047 1.238,-1.125 2.395,-2.352 3.495,-3.613 0.685,-0.785 0.915,-1.786 0.45,-2.791 -0.463,-1.003 -1.401,-1.031 -2.35,-1.036 -4.387,-0.022 -8.704,-0.562 -12.93,-1.779 -0.934,-0.27 -1.895,-0.447 -2.848,-0.668 1.279,-1.604 2.596,-3.098 3.72,-4.724 0.752,-1.087 1.312,-2.332 1.806,-3.566 0.437,-1.091 -0.285,-1.813 -1.479,-2.017 -2.478,-0.424 -4.767,0.588 -7.16,0.774 -3.918,0.304 -7.797,0.072 -11.546,-1.09 -4.416,-1.369 -8.422,-3.53 -11.489,-7.093 -1.109,-1.288 -2.067,-2.729 -2.931,-4.196 -0.716,-1.218 -0.689,-4.169 1.005,-6.156 1.471,1.332 2.946,2.655 4.408,3.994 2.598,2.38 5.322,4.616 8.85,5.389 1.591,0.349 3.296,0.345 4.936,0.255 2.085,-0.115 4.162,-0.439 6.231,-0.748 1.924,-0.286 2.432,-1.427 1.474,-3.092 -0.549,-0.954 -1.069,-1.925 -1.719,-3.096 0.713,0.22 1.24,0.367 1.758,0.545 4.175,1.438 8.315,2.987 12.534,4.283 2.368,0.727 4.851,0.858 7.128,-0.559 1.413,-0.88 1.853,-2.05 0.985,-3.431 -1.385,-2.207 -2.947,-4.301 -4.432,-6.446 -0.176,-0.253 -0.333,-0.519 -0.591,-0.922 1.399,0.201 2.628,0.402 3.863,0.549 2.009,0.24 4.019,0.578 6.035,0.633 3.703,0.103 7.416,0.143 11.116,-0.012 2.314,-0.097 4.634,-0.488 6.909,-0.951 1.687,-0.343 1.884,-1.548 1.087,-3.063 -2.511,-4.771 -7.059,-7.319 -11.073,-10.464 -2.684,-2.102 -5.33,-4.252 -7.902,-6.598 1.255,0.184 2.514,0.343 3.764,0.557 4.235,0.724 8.475,1.243 12.783,0.659 4.421,-0.6 8.863,-1.054 13.274,-1.716 7.478,-1.122 13.968,-4.38 19.62,-9.366 0.625,-0.551 1.434,-0.935 1.938,-1.571 0.482,-0.606 1.045,-1.524 0.9,-2.15 -0.158,-0.682 -1.014,-1.571 -1.695,-1.704 -3.951,-0.772 -7.935,-1.393 -11.921,-1.974 -2.08,-0.303 -4.188,-0.421 -6.583,-0.651 1.75,-0.292 3.231,-0.557 4.719,-0.786 4.964,-0.765 9.67,-2.379 14.18,-4.523 4.415,-2.1 8.837,-4.221 13.065,-6.663 2.345,-1.354 4.316,-3.363 6.416,-5.125 0.401,-0.337 0.711,-0.865 0.893,-1.367 0.432,-1.189 -0.194,-2.004 -1.506,-2.014 -2.465,-0.018 -4.932,0.025 -7.396,-0.013 -10.272,-0.157 -20.545,-0.337 -30.818,-0.504 -1.149,-0.018 -2.3,-0.002 -3.718,-0.002 4.236,-1.19 8.213,-2.309 12.191,-3.424 5.801,-1.627 10.865,-4.665 15.542,-8.347 5.081,-4 10.147,-8.07 14.36,-12.993 2.193,-2.562 3.79,-5.635 5.634,-8.493 1.046,-1.622 2.048,-3.272 3.065,-4.913 0.437,-0.703 0.863,-1.413 1.295,-2.119 0,100.307 0,200.614 0,300.94 -115.813,0 -231.625,0 -347.52,0 C 0,246.477 0,146.157 0,45.837 Z"
               style="clip-rule:evenodd;fill:none;fill-rule:evenodd"
               inkscape:connector-curvature="0" />
            <path
               id="path6658"
               d="m 347.52,45.117 c -0.727,-1.073 -1.662,-0.909 -2.713,-0.545 -4.866,1.685 -9.733,3.37 -14.624,4.983 -7.602,2.507 -15.219,4.968 -22.839,7.417 -1.565,0.503 -3.174,0.868 -4.871,1.176 0.877,-0.726 1.787,-1.417 2.627,-2.185 6.666,-6.1 12.043,-13.24 16.72,-20.927 3.842,-6.314 7.02,-12.953 9.377,-19.963 0.512,-1.521 0.81,-3.116 1.148,-4.689 0.099,-0.456 0.063,-0.966 -0.024,-1.43 -0.202,-1.067 -0.925,-1.515 -1.927,-1.049 -2.503,1.164 -5.084,2.23 -7.413,3.688 -7.421,4.645 -14.763,9.419 -22.097,14.202 -8.728,5.692 -17.415,11.445 -26.12,17.173 -0.227,0.149 -0.445,0.312 -0.902,0.632 0.638,-1.368 1.101,-2.529 1.698,-3.616 2.008,-3.649 2.846,-7.663 3.515,-11.69 0.465,-2.8 0.564,-5.665 0.742,-8.506 0.059,-0.938 -0.025,-1.927 -0.282,-2.825 -0.147,-0.518 -0.703,-1.113 -1.203,-1.275 -0.418,-0.136 -1.193,0.155 -1.521,0.519 -2.526,2.804 -4.946,5.705 -7.47,8.511 -4.407,4.902 -9.274,9.313 -14.417,13.438 -6.568,5.268 -13.866,9.387 -21.062,13.685 -4.868,2.908 -9.381,6.327 -13.296,10.463 -0.896,0.947 -1.652,2.043 -2.379,3.132 -1.65,2.47 -1.443,5.076 -0.492,7.741 1.496,4.195 3.988,7.799 6.422,11.482 1.814,2.745 3.538,5.737 4.406,8.867 0.911,3.282 0.199,6.794 -2.376,9.375 -0.898,0.9 -2.412,1.323 -3.724,1.643 -1.751,0.426 -3.574,0.814 -5.343,-0.151 -0.794,-0.434 -1.004,-0.882 -0.905,-1.864 0.342,-3.429 0.473,-6.879 0.704,-10.64 1.762,-0.713 3.918,-1.665 6.134,-2.448 1.111,-0.393 1.12,-0.886 0.62,-1.754 -1.428,-2.476 -3.248,-4.612 -5.369,-6.521 -3.928,-3.532 -7.45,-7.442 -10.688,-11.613 -0.926,-1.194 -1.889,-2.359 -2.842,-3.546 1.779,-1.671 4.078,-1.695 6.185,-2.272 -0.092,-1.773 -1.469,-2.559 -2.574,-3.448 -1.443,-1.16 -3,-2.193 -4.576,-3.171 -1.475,-0.915 -3.092,-1.604 -4.551,-2.542 -2.155,-1.386 -4.245,-2.876 -6.326,-4.374 -1.85,-1.332 -1.888,-3.288 -1.523,-5.252 0.221,-1.19 0.771,-2.315 1.069,-3.495 0.254,-1.003 0.917,-1.42 1.832,-1.568 4.15,-0.669 7.482,-2.932 10.528,-5.613 1.161,-1.023 1.934,-2.486 2.894,-3.74 1.321,-1.726 2.677,-3.426 3.963,-5.177 0.271,-0.369 0.529,-0.998 0.391,-1.346 -0.139,-0.346 -0.8,-0.708 -1.206,-0.682 -2.008,0.13 -4.007,0.387 -5.98,0.596 2.02,-2.678 4.636,-2.913 7.298,-1.604 1.623,0.798 3.086,1.917 4.674,2.796 0.421,0.233 1.194,0.334 1.527,0.1 0.442,-0.311 0.855,-1.009 0.859,-1.543 0.028,-4.338 -1.276,-8.242 -4.02,-11.644 -1.118,-1.387 -2.1,-2.893 -3.296,-4.206 -1.852,-2.032 -4.033,-3.675 -6.6,-4.729 -2.03,-0.834 -4.042,-1.77 -6.147,-2.348 -1.622,-0.445 -3.377,-0.549 -5.072,-0.548 -3.512,0.003 -7.043,-0.016 -10.531,0.328 -5.462,0.538 -10.809,1.737 -16.046,3.434 -4.925,1.596 -9.868,3.151 -14.859,4.521 -2.991,0.82 -6.096,1.221 -9.133,1.887 -0.449,0.099 -1.051,0.563 -1.145,0.96 -0.133,0.564 -0.079,1.485 0.284,1.791 0.949,0.799 2.05,1.491 3.198,1.965 2.066,0.853 4.211,1.515 6.524,2.327 -1.247,0.392 -2.326,0.751 -3.417,1.069 -1.02,0.297 -1.535,0.848 -1.667,2.002 -0.623,5.429 -2.31,10.503 -5.195,15.183 -1.173,1.902 -2.03,3.997 -3.179,5.916 -1.333,2.224 -2.832,4.348 -4.25,6.521 -1.249,1.912 -2.52,3.809 -3.692,5.767 -0.181,0.301 -0.023,0.995 0.222,1.328 1.143,1.56 2.53,2.961 3.523,4.604 0.952,1.575 0.971,3.51 0.484,5.228 -1.411,4.984 -3.063,9.898 -4.524,14.869 -1.151,3.916 -2.151,7.875 -3.238,11.81 -0.471,1.706 -0.992,3.397 -1.49,5.095 -0.313,1.063 -0.038,1.475 1.085,1.587 0.943,0.094 1.89,0.166 2.834,0.251 1.717,0.155 2.61,1.67 1.998,3.388 -0.868,2.433 -2.775,3.393 -5.625,2.816 -0.657,-0.133 -1.303,-0.328 -1.961,-0.455 -3.14,-0.607 -4.757,-3.68 -5.285,-6.257 -1.1,-5.378 1.665,-9.468 4.388,-13.481 2.862,-4.217 5.691,-8.381 6.96,-13.415 0.76,-3.011 -0.463,-5.39 -2.253,-7.549 -4.408,-5.32 -9.972,-9.251 -15.869,-12.705 -6.31,-3.696 -12.661,-7.333 -18.409,-11.87 -3.465,-2.735 -6.819,-5.646 -9.968,-8.737 -3.746,-3.677 -7.226,-7.626 -10.803,-11.474 -0.809,-0.87 -1.477,-1.878 -2.339,-2.685 -0.388,-0.362 -1.179,-0.642 -1.632,-0.491 -0.479,0.159 -1.024,0.835 -1.106,1.354 -0.536,3.399 -0.448,6.817 0.239,10.184 0.612,2.997 1.232,6.011 2.168,8.916 0.798,2.478 2.05,4.81 3.165,7.354 C 71.036,41.892 68.603,40.307 66.18,38.707 53.706,30.469 41.284,22.15 28.731,14.036 25.168,11.732 21.553,9.4 17.478,7.986 15.913,7.443 14.899,8.014 15.192,9.665 c 0.485,2.729 1.104,5.481 2.078,8.069 3.031,8.048 6.959,15.656 11.906,22.708 3.922,5.591 8.114,10.963 13.242,15.528 0.858,0.764 1.774,1.463 2.663,2.192 -0.046,0.114 -0.093,0.227 -0.14,0.34 C 38.774,56.525 32.601,54.569 26.442,52.566 19.365,50.264 12.298,47.929 5.234,45.588 4.263,45.266 3.343,44.794 2.38,44.444 1.447,44.098 0.599,44.209 0,45.117 c 0,-15.04 0,-30.08 0,-45.12 115.839,0 231.68,0 347.52,0 0,15.04 0,30.08 0,45.12 z"
               style="clip-rule:evenodd;fill:none;fill-rule:evenodd"
               inkscape:connector-curvature="0" />
            <path
               id="path6660"
               d="m 176.632,18.997 c 3.415,-0.586 6.539,-1.123 9.757,-1.674 -0.812,2.969 -6.66,4.72 -9.757,1.674 z"
               style="clip-rule:evenodd;fill:none;fill-rule:evenodd"
               inkscape:connector-curvature="0" />
          </g>
        </g>
      </g>
      <g
         id="Ebene_1-7" />
    </g>
  </g>
</svg>
