<?xml version="1.0" encoding="UTF-8" standalone="no"?>
<!-- Created with Inkscape (http://www.inkscape.org/) -->

<svg
   xmlns:dc="http://purl.org/dc/elements/1.1/"
   xmlns:cc="http://creativecommons.org/ns#"
   xmlns:rdf="http://www.w3.org/1999/02/22-rdf-syntax-ns#"
   xmlns:svg="http://www.w3.org/2000/svg"
   xmlns="http://www.w3.org/2000/svg"
   xmlns:sodipodi="http://sodipodi.sourceforge.net/DTD/sodipodi-0.dtd"
   xmlns:inkscape="http://www.inkscape.org/namespaces/inkscape"
   width="116.73953mm"
   height="117.0573mm"
   viewBox="0 0 116.73953 117.0573"
   version="1.1"
   id="svg8"
   inkscape:version="0.92.3 (2405546, 2018-03-11)"
   sodipodi:docname="borderEmblem4.svg">
  <defs
     id="defs2" />
  <sodipodi:namedview
     id="base"
     pagecolor="#ffffff"
     bordercolor="#666666"
     borderopacity="1.0"
     inkscape:pageopacity="0.0"
     inkscape:pageshadow="2"
     inkscape:zoom="1.979899"
     inkscape:cx="38.317132"
     inkscape:cy="197.67941"
     inkscape:document-units="mm"
     inkscape:current-layer="layer1"
     showgrid="false"
     fit-margin-top="5"
     fit-margin-left="5"
     fit-margin-right="5"
     fit-margin-bottom="5"
     inkscape:window-width="1920"
     inkscape:window-height="1017"
     inkscape:window-x="1912"
     inkscape:window-y="-8"
     inkscape:window-maximized="1" />
  <metadata
     id="metadata5">
    <rdf:RDF>
      <cc:Work
         rdf:about="">
        <dc:format>image/svg+xml</dc:format>
        <dc:type
           rdf:resource="http://purl.org/dc/dcmitype/StillImage" />
        <dc:title />
      </cc:Work>
    </rdf:RDF>
  </metadata>
  <g
     inkscape:label="Layer 1"
     inkscape:groupmode="layer"
     id="layer1"
     transform="translate(437.85865,32.867341)">
    <g
       id="g6910"
       transform="matrix(0.26458333,0,0,0.26458333,-421.46022,-19.466285)">
      <g
         id="Unicorn">
        <g
           id="g6889">
          <g
             id="g6887">
            <path
               id="path6877"
               d="m 322.8,193.92 c 0,0.641 0,1.28 0,1.92 -0.206,0.625 -0.336,1.289 -0.63,1.869 -1.964,3.89 -3.893,7.8 -5.969,11.63 -2.665,4.913 -5.358,9.816 -8.224,14.614 -2.685,4.495 -5.664,8.813 -8.408,13.274 -1.745,2.838 -3.964,5.224 -6.607,7.163 -4.05,2.972 -8.638,4.908 -13.383,6.499 -3.959,1.327 -7.891,2.738 -11.837,4.103 -1.489,0.515 -2.968,1.076 -4.487,1.481 -2.067,0.553 -3.471,-0.171 -3.955,-1.976 -0.204,-0.759 -0.33,-1.566 -0.322,-2.351 0.027,-2.892 0.685,-5.665 1.938,-8.261 0.664,-1.376 1.339,-2.792 2.866,-3.544 2.135,-1.053 4.468,-0.98 6.727,-1.243 1.995,-0.233 4.026,-0.152 6.041,-0.21 0.013,-0.114 0.025,-0.228 0.037,-0.342 -1.819,-1.103 -3.653,-2.182 -5.446,-3.327 -0.378,-0.24 -0.849,-0.732 -0.832,-1.088 0.017,-0.39 0.479,-0.876 0.873,-1.106 0.729,-0.428 1.549,-0.699 2.372,-1.053 -4.708,-2.27 -6.497,-3.706 -6.888,-5.635 3.905,-0.628 7.813,-0.594 11.736,-0.229 0.075,-0.093 0.151,-0.186 0.227,-0.278 -1.55,-2.095 -3.1,-4.189 -4.892,-6.612 1.562,0 2.938,-0.218 4.217,0.04 4.326,0.873 8.204,2.604 10.985,6.271 0.926,1.222 2.422,1.091 3.206,-0.256 2.775,-4.765 5.529,-9.541 8.202,-14.363 0.901,-1.627 1.536,-3.401 2.339,-5.215 -1.78,-0.264 -3.373,-0.683 -4.97,-0.698 -3.789,-0.037 -7.581,0.086 -11.37,0.201 -4.176,0.127 -8.35,0.326 -12.524,0.477 -2.553,0.093 -5.106,0.219 -7.66,0.218 -5.574,-0.004 -11.143,-0.013 -16.685,0.734 -1.444,0.194 -2.906,0.251 -4.432,0.378 -0.258,1.749 -0.535,3.465 -0.76,5.188 -0.405,3.104 -0.942,6.204 -1.126,9.323 -0.244,4.14 -0.272,8.296 -0.264,12.445 0.014,5.989 0.144,11.979 0.224,17.969 0.002,0.16 -0.006,0.321 0.009,0.479 0.316,3.308 0.607,6.618 0.961,9.922 0.228,2.136 0.341,4.313 0.863,6.381 1.257,4.974 2.75,9.888 4.097,14.84 0.838,3.084 2.564,5.636 4.784,7.819 2.127,2.092 4.48,3.95 6.707,5.942 3.563,3.185 7.16,6.334 10.629,9.618 2.108,1.998 4.118,4.127 5.954,6.376 1.286,1.575 2.277,3.412 3.257,5.21 0.524,0.964 0.157,1.918 -0.676,2.681 -1.741,1.594 -3.841,1.718 -6.009,1.47 -2.003,-0.23 -3.988,-0.639 -5.995,-0.813 -2.985,-0.259 -5.35,-2.077 -6.298,-4.867 -0.725,-2.132 -1.496,-4.26 -2.451,-6.293 -0.319,-0.68 -1.198,-1.322 -1.947,-1.533 -2.948,-0.832 -5.952,-1.461 -8.922,-2.221 -0.85,-0.218 -1.633,-0.805 -2.481,-0.894 -0.915,-0.095 -1.873,0.174 -2.808,0.32 -1.713,0.269 -3.416,0.613 -5.135,0.835 -2.407,0.311 -4.628,-0.456 -6.802,-1.363 -0.318,-0.133 -0.58,-0.401 -0.868,-0.607 0.337,-0.294 0.629,-0.694 1.02,-0.857 0.656,-0.272 1.375,-0.395 2.152,-0.602 -2.114,-2.625 -4.153,-4.4 -7.954,-4.004 -1.015,0.105 -2.011,0.382 -3.013,0.594 -0.508,0.108 -1.12,0.373 -0.998,-0.553 0.275,-2.082 3.851,-5.731 5.946,-6.036 2.619,-0.38 4.969,-1.326 7.057,-3.122 -0.639,-0.168 -1.229,-0.256 -1.765,-0.476 -2.58,-1.058 -5.141,-2.16 -7.718,-3.225 -0.618,-0.255 -1.257,-0.526 -1.909,-0.614 -1.742,-0.234 -3.497,-0.373 -5.333,-0.56 0.164,-0.364 0.286,-0.945 0.626,-1.335 1.554,-1.778 3.326,-3.364 5.59,-4.101 3.346,-1.088 6.746,-0.469 10.102,0.136 1.761,0.316 3.497,0.764 5.251,1.153 -6.178,-21.775 -14.044,-42.754 -22.589,-63.171 -3.589,0.895 -6.908,2.058 -10.321,2.498 -5.923,0.764 -11.878,0.229 -17.763,-0.687 -6.014,-0.935 -11.79,-2.783 -17.265,-5.418 -7.255,-3.493 -14.414,-7.185 -21.625,-10.771 -4.433,-2.205 -8.895,-4.357 -13.766,-5.449 -1.392,-0.313 -2.817,-0.727 -4.167,-0.182 1.011,2.486 1.966,4.867 2.946,7.238 2.313,5.601 3.507,11.453 3.446,17.485 -0.032,3.108 -0.437,6.267 -1.117,9.303 -0.82,3.664 -2.202,7.172 -4.32,10.35 -1.753,2.63 -3.343,5.369 -5.097,7.999 -1.41,2.112 -2.976,4.12 -4.422,6.21 -0.234,0.338 -0.4,0.933 -0.267,1.281 0.863,2.248 1.627,4.564 2.779,6.664 3.355,6.12 6.789,12.182 11.165,17.69 3.603,4.535 6.76,9.422 10.182,14.104 0.916,1.252 1.611,2.702 3.194,3.429 4.99,2.289 10.272,3.611 15.583,4.817 4.246,0.965 8.049,2.387 10.428,6.461 1.503,2.575 2.959,5.138 3.948,7.953 0.546,1.554 0.174,2.641 -1.282,3.386 -0.584,0.299 -1.272,0.389 -1.909,0.588 -3.733,1.165 -7.512,1.62 -11.38,0.748 -0.347,-0.077 -0.708,-0.086 -1.054,-0.166 -1.671,-0.387 -3.297,-0.795 -4.605,-2.077 -2.338,-2.292 -3.513,-5.209 -4.74,-8.138 -0.408,-0.973 -1.023,-2.2 -1.871,-2.583 -2.34,-1.054 -4.84,-1.772 -7.311,-2.508 -0.585,-0.174 -1.355,-0.019 -1.954,0.21 -0.954,0.364 -1.812,0.975 -2.753,1.38 -1.712,0.736 -3.458,1.396 -5.187,2.094 -0.83,0.334 -1.597,-0.24 -1.506,-1.2 0.055,-0.575 0.257,-1.137 0.421,-1.821 -3.674,0.731 -7.253,1.513 -11.23,1.845 1.581,-2.542 2.958,-4.758 4.386,-7.056 -4.311,0.738 -8.026,2.228 -10.874,5.938 -0.037,-2.612 1.122,-4.354 2.4,-5.771 2.426,-2.688 4.864,-5.513 8.661,-6.42 0.224,-0.054 0.443,-0.172 0.637,-0.302 0.745,-0.5 0.993,-1.014 0.274,-1.819 -1.503,-1.686 -3.007,-3.383 -4.364,-5.187 -3.335,-4.433 -6.631,-8.896 -9.855,-13.411 -2.043,-2.86 -4.405,-5.392 -6.903,-7.859 -3.668,-3.625 -7.091,-7.499 -10.606,-11.279 -1.664,-1.79 -2.573,-3.948 -2.027,-6.336 0.408,-1.782 1.189,-3.549 2.136,-5.124 1.789,-2.978 2.75,-6.061 2.103,-9.525 -0.477,-2.551 -0.976,-5.104 -2.468,-7.347 -0.489,0.372 -0.984,0.659 -1.366,1.056 -3.553,3.68 -8.245,5.457 -12.746,7.478 -4.324,1.94 -8.936,3.264 -13.189,5.336 -4.509,2.196 -8.807,4.855 -13.068,7.518 -1.711,1.069 -3.471,2.438 -4.524,4.104 -1.993,3.15 -2.868,6.794 -3.293,10.522 -0.294,2.584 -0.722,5.153 -1.075,7.731 -0.295,2.155 -0.614,4.308 -0.834,6.471 -0.165,1.624 -0.143,3.267 -0.284,4.893 -0.275,3.157 -0.627,6.308 -0.908,9.464 -0.201,2.258 -0.229,4.538 -0.548,6.778 -0.167,1.172 0.312,1.898 1.001,2.602 0.47,0.478 1.038,0.871 1.601,1.244 2.783,1.843 5.572,3.677 8.37,5.496 3.183,2.07 5.706,4.632 6.676,8.465 0.536,2.115 -0.113,3.542 -2.205,4.087 -1.259,0.329 -2.598,0.616 -3.878,0.54 -2.291,-0.137 -4.573,-0.509 -6.843,-0.881 -2.331,-0.383 -3.236,-1.503 -3.211,-3.89 0.02,-1.888 -0.738,-3.262 -2.556,-3.813 -2.36,-0.717 -4.734,-1.495 -7.161,-1.855 -2.103,-0.313 -4.286,-0.096 -6.434,-0.078 -0.844,0.008 -1.687,0.111 -2.811,0.191 0.698,-0.869 1.231,-1.534 1.887,-2.352 -3.541,-0.374 -6.911,-0.729 -10.281,-1.086 -10e-4,-0.134 -0.003,-0.268 -0.005,-0.401 1,-0.824 2.073,-1.577 2.982,-2.493 0.894,-0.899 1.62,-1.965 2.47,-3.021 -2.444,-0.641 -4.066,0.484 -5.746,1.476 -0.322,0.19 -0.773,0.162 -1.166,0.234 0.038,-0.385 -0.065,-0.884 0.137,-1.137 1.439,-1.796 2.853,-3.626 4.446,-5.281 1.801,-1.871 4.25,-2.683 6.615,-3.608 1.1,-0.431 2.305,-1.027 2.454,-2.328 0.417,-3.665 0.734,-7.345 0.981,-11.026 0.237,-3.532 0.367,-7.073 0.489,-10.612 0.188,-5.42 0.342,-10.841 0.487,-16.262 0.102,-3.791 0.009,-7.596 0.295,-11.372 0.201,-2.661 1.066,-5.188 3.483,-6.829 2.655,-1.805 5.308,-3.612 7.931,-5.463 1.019,-0.72 2.181,-1.396 2.882,-2.375 2.044,-2.855 1.771,-6.13 1.19,-9.361 -0.826,-4.587 -1.856,-9.14 -2.57,-13.743 -0.517,-3.333 -0.78,-6.718 -0.937,-10.089 -0.146,-3.133 -0.035,-6.263 0.452,-9.399 0.482,-3.102 0.933,-6.187 2.051,-9.131 0.608,-1.602 1.291,-3.176 1.979,-4.858 -5.718,1.939 -11.503,2.948 -17.466,3.155 -6.921,0.239 -13.501,-0.771 -19.64,-4.178 -6.291,-3.492 -10.662,-8.463 -12.405,-15.544 -0.355,-1.445 -0.568,-2.925 -0.847,-4.39 0,-2.64 0,-5.28 0,-7.92 0.168,-1.128 0.248,-2.279 0.52,-3.382 2.521,-10.249 7.924,-18.726 16.356,-25.01 4.903,-3.654 9.755,-7.433 15.286,-10.234 5.464,-2.767 10.466,-6.285 14.845,-10.637 1.887,-1.876 3.994,-3.534 5.834,-5.451 0.838,-0.873 1.427,-2.077 1.853,-3.232 0.781,-2.116 0.033,-4.257 -0.35,-6.334 -0.672,-3.647 -3.225,-6.194 -5.623,-8.781 -1.942,-2.095 -3.986,-4.096 -5.934,-6.186 -3.447,-3.701 -5.682,-8.178 -7.994,-12.607 -1.906,-3.65 -1.984,-7.543 -1.637,-11.503 0.025,-0.286 0.183,-0.561 0.348,-1.041 2.299,2.123 2.789,5.238 4.592,7.186 -0.132,-2.216 -0.475,-4.543 -0.35,-6.845 0.125,-2.305 0.308,-4.715 1.823,-6.583 0.419,1.687 0.739,3.351 1.253,4.953 1.008,3.14 2.881,5.679 5.497,7.718 2.431,1.895 5.233,2.952 8.017,4.18 5.755,2.54 11.41,5.338 16.958,8.305 4.711,2.52 9.078,5.576 12.524,9.797 3.145,3.851 4.306,8.052 2.913,12.916 -1.261,4.405 -3.906,7.958 -6.998,11.147 -2.423,2.5 -5.105,4.784 -7.863,6.917 -3.082,2.386 -6.257,4.689 -10.007,6.015 -1.459,0.516 -2.864,1.188 -4.294,1.79 5.839,-0.038 11.435,-1.317 17.321,-2.7 -1.848,1.763 -3.396,3.567 -5.255,4.953 -5.625,4.192 -12.001,7.061 -18.474,9.61 -4.239,1.67 -8.417,3.438 -12.268,5.818 -4.328,2.673 -7.693,6.448 -10.002,10.969 -1.276,2.498 -1.891,5.327 -2.885,7.976 -1.209,3.219 -0.862,6.592 -0.948,9.894 -0.047,1.795 0.665,3.622 1.104,5.417 0.976,3.988 3.699,6.753 7.201,6.748 4.072,-0.007 8.159,-0.305 12.211,-0.74 3.439,-0.369 6.709,-1.552 9.933,-2.811 3.06,-1.195 6.053,-2.446 8.711,-4.48 1.684,-1.288 3.621,-2.305 5.564,-3.177 4.255,-1.91 8.683,-3.311 13.192,-4.569 6.325,-1.765 12.726,-2.889 19.226,-3.589 4.071,-0.438 8.145,-0.864 12.221,-1.249 4.362,-0.412 8.722,-0.896 13.095,-1.117 4.67,-0.237 9.353,-0.222 14.031,-0.286 6.478,-0.089 12.957,-0.078 19.432,-0.241 5.624,-0.142 11.245,-0.424 16.863,-0.729 2.938,-0.16 5.878,-0.408 8.796,-0.786 4.125,-0.535 8.231,-1.217 12.343,-1.857 1.324,-0.206 2.64,-0.475 4.079,-0.738 -0.23,-0.267 -0.292,-0.379 -0.387,-0.443 -2.194,-1.479 -4.39,-2.957 -6.598,-4.417 -0.18,-0.119 -0.443,-0.136 -0.672,-0.153 -3.089,-0.227 -6.063,-0.734 -8.814,-2.372 -3.547,-2.11 -6.906,-4.375 -9.237,-7.885 -0.702,-1.058 -0.384,-1.795 0.887,-1.947 0.355,-0.042 0.72,-0.004 1.078,-0.035 1.771,-0.151 3.564,-0.188 5.31,-0.493 6.347,-1.107 11.901,-3.787 16.383,-8.586 -0.558,0.065 -1.093,0.207 -1.619,0.177 -2.221,-0.125 -4.447,-0.219 -6.655,-0.475 -3.457,-0.4 -6.71,-1.498 -9.507,-3.6 -1.075,-0.807 -1.929,-1.95 -2.743,-3.043 -0.404,-0.542 -0.226,-1.304 0.561,-1.474 1.771,-0.384 3.568,-0.648 5.35,-0.99 1.655,-0.318 3.263,-0.774 4.63,-1.755 -1.5,-0.197 -2.957,-0.334 -4.395,-0.587 -6.303,-1.111 -11.454,-4.491 -16.298,-8.421 -2.314,-1.878 -4.615,-3.789 -6.76,-5.853 -1.364,-1.312 -2.511,-2.876 -3.605,-4.433 -0.839,-1.195 -0.42,-1.84 0.936,-2.003 2.94,-0.354 5.895,-0.663 8.801,-1.215 3.441,-0.654 6.825,-1.607 9.912,-3.337 4.558,-2.554 8.329,-6.095 11.837,-9.564 -1.317,-0.558 -2.877,-0.919 -4.053,-1.794 -1.45,-1.08 -2.606,-2.565 -3.843,-3.917 -2.717,-2.969 -3.494,-6.572 -3.305,-10.462 0.064,-1.316 0.781,-1.787 1.975,-1.386 0.81,0.272 1.622,0.533 2.434,0.798 -0.131,-0.4 -0.353,-0.611 -0.602,-0.785 -1.751,-1.228 -3.254,-2.642 -3.927,-4.773 -0.488,-1.546 -1.121,-3.062 -0.026,-4.644 0.684,0.195 1.285,0.394 1.899,0.54 4.359,1.035 8.692,2.264 13.208,2.367 2.307,0.053 4.672,0.142 6.919,-0.277 4.73,-0.883 8.456,-3.86 12.138,-6.694 2.454,-1.889 4.792,-3.845 7.707,-5.029 3.302,-1.342 6.738,-0.852 10.127,-0.939 1.654,-0.042 3.316,0.227 5.232,0.376 -2.889,-2.874 -6.624,-3.093 -10.077,-4.179 0.342,-0.391 0.684,-0.715 1.033,-0.725 1.896,-0.052 3.802,-0.136 5.69,-0.004 5.326,0.373 10.16,2.221 14.609,5.131 4.261,2.788 5.848,7.004 6.249,11.817 0.087,1.043 -0.101,2.109 -0.163,3.177 2.977,-3.353 5.935,-6.684 8.891,-10.016 5.611,-6.326 11.231,-12.646 16.831,-18.982 3.142,-3.556 6.194,-7.191 9.396,-10.692 1.679,-1.835 3.593,-3.457 5.4,-5.174 0.4,0 0.801,0 1.2,0 0.701,0.91 0.588,1.857 0.063,2.778 -2.423,4.25 -4.794,8.531 -7.319,12.719 -1.876,3.11 -4.02,6.058 -5.939,9.142 -2.481,3.983 -4.824,8.052 -7.289,12.045 -3.104,5.026 -6.27,10.013 -9.381,14.973 2.091,0.968 4.119,1.843 6.087,2.835 2.709,1.365 4.68,3.336 5.098,6.54 0.051,0.391 0.522,0.901 0.913,1.045 2.514,0.926 5.055,1.778 7.596,2.629 2.84,0.952 5.702,1.838 8.527,2.83 1.392,0.489 2.943,0.885 4.036,1.79 2.485,2.059 3.354,5.175 3.269,8.138 -0.184,6.298 -4.021,9.036 -9.93,8.067 -2.359,-0.387 -4.646,-1.206 -6.979,-1.773 -0.432,-0.105 -0.927,0.05 -1.393,0.086 0.205,0.502 0.271,1.231 0.644,1.463 1.026,0.638 2.202,1.025 3.279,1.588 1.598,0.834 3.276,1.581 4.704,2.654 1.23,0.924 1.343,3.057 0.336,3.967 -1.194,1.079 -2.46,2.22 -3.905,2.852 -3.436,1.502 -7.063,2.387 -10.869,2.022 -2.721,-0.26 -5.097,-1.176 -6.981,-3.351 -3.391,-3.913 -7.693,-5.565 -12.858,-4.576 -3.618,0.694 -7.254,1.183 -10.94,1.198 -0.811,0.003 -1.621,-0.155 -2.432,-0.238 -0.073,0.095 -0.147,0.189 -0.221,0.284 3.127,3.703 6.28,7.384 9.374,11.114 3.485,4.202 7.312,8.189 10.297,12.726 7.688,11.685 11.759,24.584 11.901,38.679 0.065,6.431 -1.403,12.423 -4.289,18.104 -1.218,2.398 -2.577,4.727 -3.914,7.163 1.073,0.402 2.147,0.961 3.288,1.208 5.442,1.177 10.892,2.33 16.362,3.371 3.891,0.74 7.813,1.314 11.729,1.916 5.404,0.831 10.838,1.495 16.217,2.468 3.243,0.583 6.36,1.672 7.327,5.461 z M 260.963,62.231 c -2.751,-0.476 -5.33,-0.574 -7.934,0.744 1.396,1.705 3.018,2.096 4.824,1.742 1.376,-0.27 2.571,-0.889 3.11,-2.486 z"
               style="clip-rule:evenodd;fill-rule:evenodd;stroke:#000000;stroke-opacity:1;fill:none;stroke-width:5.66929141;stroke-miterlimit:4;stroke-dasharray:none;stroke-linejoin:round"
               inkscape:connector-curvature="0" />
            <path
               id="path6879"
               d="m 0,151.68 c 0.278,1.464 0.491,2.944 0.847,4.39 1.743,7.082 6.114,12.052 12.405,15.544 6.138,3.407 12.719,4.417 19.64,4.178 5.963,-0.207 11.748,-1.216 17.466,-3.155 -0.688,1.683 -1.371,3.257 -1.979,4.858 -1.119,2.944 -1.569,6.029 -2.051,9.131 -0.487,3.137 -0.598,6.267 -0.452,9.399 0.157,3.371 0.42,6.756 0.937,10.089 0.713,4.604 1.744,9.156 2.57,13.743 0.582,3.231 0.854,6.506 -1.19,9.361 -0.701,0.979 -1.863,1.655 -2.882,2.375 -2.623,1.851 -5.275,3.658 -7.931,5.463 -2.417,1.642 -3.282,4.168 -3.483,6.829 -0.286,3.776 -0.194,7.581 -0.295,11.372 -0.145,5.421 -0.299,10.842 -0.487,16.262 -0.123,3.539 -0.252,7.08 -0.489,10.612 -0.247,3.682 -0.563,7.361 -0.981,11.026 -0.148,1.301 -1.354,1.897 -2.454,2.328 -2.365,0.926 -4.814,1.737 -6.615,3.608 -1.593,1.655 -3.007,3.485 -4.446,5.281 -0.203,0.253 -0.099,0.752 -0.137,1.137 0.392,-0.072 0.843,-0.044 1.166,-0.234 1.68,-0.991 3.302,-2.116 5.746,-1.476 -0.85,1.056 -1.576,2.121 -2.47,3.021 -0.909,0.916 -1.981,1.669 -2.982,2.493 0.001,0.134 0.003,0.268 0.005,0.401 3.37,0.356 6.74,0.712 10.281,1.086 -0.656,0.817 -1.189,1.482 -1.887,2.352 1.124,-0.08 1.967,-0.184 2.811,-0.191 2.148,-0.018 4.332,-0.234 6.434,0.078 2.427,0.36 4.801,1.139 7.161,1.855 1.818,0.552 2.576,1.926 2.556,3.813 -0.025,2.387 0.88,3.507 3.211,3.89 2.27,0.372 4.552,0.744 6.843,0.881 1.28,0.076 2.619,-0.211 3.878,-0.54 2.091,-0.545 2.74,-1.972 2.205,-4.087 -0.97,-3.833 -3.493,-6.395 -6.676,-8.465 -2.798,-1.819 -5.587,-3.653 -8.37,-5.496 -0.563,-0.373 -1.131,-0.767 -1.601,-1.244 -0.69,-0.703 -1.169,-1.43 -1.001,-2.602 0.32,-2.24 0.347,-4.521 0.548,-6.778 0.281,-3.156 0.633,-6.307 0.908,-9.464 0.142,-1.626 0.12,-3.269 0.284,-4.893 0.22,-2.163 0.539,-4.315 0.834,-6.471 0.353,-2.578 0.78,-5.147 1.075,-7.731 0.425,-3.729 1.3,-7.372 3.293,-10.522 1.053,-1.665 2.813,-3.034 4.524,-4.104 4.262,-2.662 8.56,-5.321 13.068,-7.518 4.253,-2.072 8.865,-3.396 13.189,-5.336 4.501,-2.021 9.193,-3.798 12.746,-7.478 0.382,-0.396 0.877,-0.684 1.366,-1.056 1.493,2.243 1.991,4.796 2.468,7.347 0.647,3.465 -0.314,6.548 -2.103,9.525 -0.946,1.575 -1.728,3.342 -2.136,5.124 -0.546,2.388 0.363,4.546 2.027,6.336 3.515,3.78 6.938,7.654 10.606,11.279 2.498,2.468 4.86,4.999 6.903,7.859 3.224,4.515 6.521,8.979 9.855,13.411 1.357,1.804 2.861,3.501 4.364,5.187 0.719,0.806 0.47,1.319 -0.274,1.819 -0.194,0.13 -0.413,0.248 -0.637,0.302 -3.796,0.907 -6.234,3.732 -8.661,6.42 -1.279,1.417 -2.438,3.159 -2.4,5.771 2.848,-3.711 6.563,-5.2 10.874,-5.938 -1.429,2.298 -2.806,4.514 -4.386,7.056 3.977,-0.332 7.556,-1.113 11.23,-1.845 -0.164,0.685 -0.366,1.246 -0.421,1.821 -0.091,0.96 0.677,1.534 1.506,1.2 1.729,-0.698 3.475,-1.357 5.187,-2.094 0.942,-0.405 1.8,-1.016 2.753,-1.38 0.599,-0.229 1.369,-0.384 1.954,-0.21 2.471,0.735 4.97,1.454 7.311,2.508 0.848,0.383 1.463,1.61 1.871,2.583 1.228,2.929 2.402,5.846 4.74,8.138 1.308,1.282 2.934,1.69 4.605,2.077 0.346,0.08 0.707,0.089 1.054,0.166 3.868,0.872 7.646,0.417 11.38,-0.748 0.637,-0.199 1.325,-0.289 1.909,-0.588 1.456,-0.745 1.828,-1.832 1.282,-3.386 -0.989,-2.815 -2.445,-5.378 -3.948,-7.953 -2.379,-4.074 -6.182,-5.496 -10.428,-6.461 -5.311,-1.206 -10.594,-2.528 -15.583,-4.817 -1.583,-0.727 -2.278,-2.177 -3.194,-3.429 -3.422,-4.683 -6.58,-9.569 -10.182,-14.104 -4.376,-5.509 -7.81,-11.57 -11.165,-17.69 -1.151,-2.1 -1.916,-4.416 -2.779,-6.664 -0.134,-0.349 0.032,-0.943 0.267,-1.281 1.446,-2.09 3.013,-4.098 4.422,-6.21 1.754,-2.63 3.344,-5.369 5.097,-7.999 2.118,-3.178 3.5,-6.686 4.32,-10.35 0.68,-3.036 1.085,-6.194 1.117,-9.303 0.061,-6.032 -1.134,-11.885 -3.446,-17.485 -0.979,-2.371 -1.935,-4.752 -2.946,-7.238 1.35,-0.545 2.775,-0.131 4.167,0.182 4.872,1.092 9.333,3.244 13.766,5.449 7.21,3.587 14.37,7.278 21.625,10.771 5.475,2.635 11.251,4.483 17.265,5.418 5.885,0.915 11.84,1.45 17.763,0.687 3.413,-0.44 6.732,-1.604 10.321,-2.498 8.545,20.417 16.411,41.396 22.589,63.171 -1.754,-0.39 -3.49,-0.837 -5.251,-1.153 -3.355,-0.604 -6.756,-1.224 -10.102,-0.136 -2.264,0.736 -4.036,2.322 -5.59,4.101 -0.34,0.39 -0.462,0.971 -0.626,1.335 1.836,0.187 3.591,0.325 5.333,0.56 0.652,0.088 1.291,0.359 1.909,0.614 2.577,1.064 5.138,2.167 7.718,3.225 0.536,0.22 1.126,0.308 1.765,0.476 -2.088,1.796 -4.438,2.742 -7.057,3.122 -2.096,0.305 -5.671,3.954 -5.946,6.036 -0.122,0.926 0.49,0.661 0.998,0.553 1.002,-0.212 1.998,-0.488 3.013,-0.594 3.801,-0.396 5.84,1.379 7.954,4.004 -0.777,0.207 -1.496,0.329 -2.152,0.602 -0.391,0.163 -0.683,0.563 -1.02,0.857 0.288,0.206 0.55,0.475 0.868,0.607 2.174,0.907 4.395,1.674 6.802,1.363 1.719,-0.222 3.422,-0.566 5.135,-0.835 0.935,-0.146 1.893,-0.415 2.808,-0.32 0.849,0.089 1.632,0.676 2.481,0.894 2.97,0.76 5.974,1.389 8.922,2.221 0.749,0.211 1.628,0.854 1.947,1.533 0.955,2.033 1.727,4.161 2.451,6.293 0.948,2.79 3.313,4.608 6.298,4.867 2.007,0.174 3.992,0.582 5.995,0.813 2.168,0.248 4.268,0.124 6.009,-1.47 0.833,-0.763 1.2,-1.717 0.676,-2.681 -0.979,-1.798 -1.971,-3.635 -3.257,-5.21 -1.836,-2.249 -3.846,-4.378 -5.954,-6.376 -3.469,-3.284 -7.066,-6.434 -10.629,-9.618 -2.227,-1.992 -4.58,-3.851 -6.707,-5.942 -2.22,-2.184 -3.946,-4.735 -4.784,-7.819 -1.347,-4.952 -2.84,-9.866 -4.097,-14.84 -0.522,-2.068 -0.636,-4.245 -0.863,-6.381 -0.354,-3.304 -0.645,-6.614 -0.961,-9.922 -0.015,-0.158 -0.007,-0.319 -0.009,-0.479 -0.08,-5.989 -0.21,-11.979 -0.224,-17.969 -0.009,-4.149 0.02,-8.306 0.264,-12.445 0.184,-3.119 0.721,-6.219 1.126,-9.323 0.225,-1.724 0.502,-3.439 0.76,-5.188 1.525,-0.127 2.987,-0.184 4.432,-0.378 5.542,-0.747 11.11,-0.738 16.685,-0.734 2.554,0.001 5.107,-0.125 7.66,-0.218 4.175,-0.15 8.349,-0.35 12.524,-0.477 3.789,-0.115 7.581,-0.238 11.37,-0.201 1.597,0.016 3.189,0.435 4.97,0.698 -0.803,1.813 -1.438,3.588 -2.339,5.215 -2.673,4.822 -5.427,9.599 -8.202,14.363 -0.784,1.347 -2.28,1.478 -3.206,0.256 -2.781,-3.668 -6.659,-5.398 -10.985,-6.271 -1.279,-0.258 -2.655,-0.04 -4.217,-0.04 1.792,2.423 3.342,4.518 4.892,6.612 -0.075,0.093 -0.151,0.186 -0.227,0.278 -3.923,-0.364 -7.831,-0.398 -11.736,0.229 0.391,1.929 2.18,3.365 6.888,5.635 -0.823,0.354 -1.644,0.625 -2.372,1.053 -0.394,0.23 -0.856,0.717 -0.873,1.106 -0.017,0.355 0.454,0.848 0.832,1.088 1.793,1.146 3.627,2.225 5.446,3.327 -0.012,0.114 -0.024,0.228 -0.037,0.342 -2.015,0.058 -4.046,-0.023 -6.041,0.21 -2.259,0.263 -4.592,0.19 -6.727,1.243 -1.527,0.752 -2.202,2.168 -2.866,3.544 -1.254,2.596 -1.911,5.369 -1.938,8.261 -0.008,0.784 0.118,1.592 0.322,2.351 0.484,1.805 1.888,2.528 3.955,1.976 1.52,-0.405 2.998,-0.967 4.487,-1.481 3.946,-1.364 7.878,-2.775 11.837,-4.103 4.745,-1.591 9.333,-3.527 13.383,-6.499 2.644,-1.939 4.862,-4.325 6.607,-7.163 2.744,-4.461 5.724,-8.779 8.408,-13.274 2.865,-4.798 5.559,-9.701 8.224,-14.614 2.076,-3.83 4.005,-7.74 5.969,-11.63 0.294,-0.58 0.424,-1.244 0.63,-1.869 0,43.032 0,86.063 0,129.107 -107.571,0 -215.143,0 -322.8,0 C 0,267.2 0,209.44 0,151.68 Z"
               style="clip-rule:evenodd;fill:none;fill-rule:evenodd"
               inkscape:connector-curvature="0" />
            <path
               id="path6881"
               d="m 295.199,0 c -1.808,1.718 -3.722,3.339 -5.4,5.174 -3.201,3.5 -6.254,7.136 -9.396,10.692 -5.6,6.337 -11.22,12.657 -16.831,18.982 -2.956,3.332 -5.914,6.663 -8.891,10.016 0.063,-1.068 0.25,-2.134 0.163,-3.177 -0.401,-4.813 -1.988,-9.029 -6.249,-11.817 -4.449,-2.911 -9.283,-4.759 -14.609,-5.131 -1.889,-0.131 -3.794,-0.047 -5.69,0.004 -0.35,0.009 -0.691,0.333 -1.033,0.725 3.453,1.086 7.188,1.306 10.077,4.179 -1.916,-0.149 -3.578,-0.418 -5.232,-0.376 -3.389,0.087 -6.825,-0.403 -10.127,0.939 -2.915,1.184 -5.253,3.14 -7.707,5.029 -3.682,2.834 -7.407,5.812 -12.138,6.694 -2.247,0.419 -4.612,0.331 -6.919,0.277 -4.516,-0.104 -8.849,-1.333 -13.208,-2.367 -0.614,-0.146 -1.216,-0.344 -1.899,-0.54 -1.095,1.582 -0.462,3.098 0.026,4.644 0.673,2.132 2.176,3.545 3.927,4.773 0.249,0.174 0.471,0.385 0.602,0.785 -0.812,-0.266 -1.624,-0.526 -2.434,-0.798 -1.193,-0.401 -1.91,0.07 -1.975,1.386 -0.189,3.89 0.588,7.494 3.305,10.462 1.236,1.353 2.393,2.837 3.843,3.917 1.176,0.875 2.735,1.236 4.053,1.794 -3.508,3.47 -7.279,7.011 -11.837,9.564 -3.087,1.729 -6.471,2.683 -9.912,3.337 -2.906,0.552 -5.86,0.861 -8.801,1.215 -1.355,0.163 -1.775,0.808 -0.936,2.003 1.094,1.557 2.241,3.121 3.605,4.433 2.145,2.064 4.445,3.975 6.76,5.853 4.844,3.93 9.995,7.31 16.298,8.421 1.438,0.253 2.895,0.39 4.395,0.587 -1.367,0.98 -2.975,1.437 -4.63,1.755 -1.781,0.342 -3.578,0.606 -5.35,0.99 -0.786,0.17 -0.965,0.932 -0.561,1.474 0.814,1.093 1.668,2.236 2.743,3.043 2.797,2.103 6.05,3.2 9.507,3.6 2.208,0.256 4.435,0.351 6.655,0.475 0.526,0.03 1.062,-0.111 1.619,-0.177 -4.481,4.8 -10.036,7.479 -16.383,8.586 -1.745,0.305 -3.538,0.342 -5.31,0.493 -0.358,0.03 -0.723,-0.008 -1.078,0.035 -1.271,0.151 -1.589,0.889 -0.887,1.947 2.331,3.51 5.69,5.775 9.237,7.885 2.752,1.638 5.726,2.145 8.814,2.372 0.229,0.017 0.492,0.034 0.672,0.153 2.208,1.46 4.403,2.939 6.598,4.417 0.095,0.064 0.156,0.176 0.387,0.443 -1.439,0.263 -2.755,0.532 -4.079,0.738 -4.111,0.64 -8.218,1.322 -12.343,1.857 -2.918,0.378 -5.857,0.626 -8.796,0.786 -5.618,0.305 -11.239,0.587 -16.863,0.729 -6.475,0.164 -12.955,0.152 -19.432,0.241 -4.678,0.063 -9.361,0.048 -14.031,0.286 -4.373,0.222 -8.733,0.705 -13.095,1.117 -4.076,0.385 -8.149,0.811 -12.221,1.249 -6.5,0.7 -12.901,1.824 -19.226,3.589 -4.509,1.258 -8.937,2.659 -13.192,4.569 -1.943,0.872 -3.881,1.89 -5.564,3.177 -2.659,2.034 -5.652,3.285 -8.711,4.48 -3.224,1.259 -6.494,2.442 -9.933,2.811 -4.052,0.436 -8.139,0.733 -12.211,0.74 -3.502,0.006 -6.226,-2.76 -7.201,-6.748 -0.439,-1.795 -1.151,-3.622 -1.104,-5.417 0.086,-3.302 -0.261,-6.675 0.948,-9.894 0.995,-2.649 1.609,-5.478 2.885,-7.976 2.309,-4.521 5.674,-8.296 10.002,-10.969 3.851,-2.379 8.029,-4.148 12.268,-5.818 6.473,-2.549 12.849,-5.418 18.474,-9.61 1.859,-1.386 3.407,-3.19 5.255,-4.953 -5.887,1.383 -11.482,2.662 -17.321,2.7 1.43,-0.601 2.834,-1.274 4.294,-1.79 3.75,-1.326 6.925,-3.629 10.007,-6.015 2.757,-2.134 5.439,-4.417 7.863,-6.917 3.091,-3.19 5.737,-6.743 6.998,-11.147 1.393,-4.864 0.231,-9.065 -2.913,-12.916 -3.447,-4.221 -7.813,-7.278 -12.524,-9.797 -5.549,-2.967 -11.203,-5.766 -16.958,-8.305 -2.784,-1.228 -5.585,-2.285 -8.017,-4.18 -2.616,-2.04 -4.489,-4.579 -5.497,-7.718 -0.514,-1.602 -0.833,-3.267 -1.253,-4.953 -1.516,1.868 -1.698,4.278 -1.823,6.583 -0.125,2.302 0.218,4.629 0.35,6.845 -1.803,-1.948 -2.292,-5.063 -4.592,-7.186 -0.165,0.48 -0.322,0.755 -0.348,1.041 -0.348,3.959 -0.27,7.853 1.637,11.503 2.312,4.429 4.546,8.907 7.994,12.607 1.948,2.09 3.991,4.091 5.934,6.186 2.398,2.587 4.951,5.133 5.623,8.781 0.383,2.077 1.131,4.218 0.35,6.334 -0.426,1.156 -1.015,2.36 -1.853,3.232 -1.84,1.917 -3.948,3.575 -5.834,5.451 -4.378,4.353 -9.38,7.87 -14.845,10.637 -5.531,2.801 -10.383,6.58 -15.286,10.234 -8.432,6.284 -13.836,14.761 -16.356,25.01 -0.271,1.103 -0.351,2.254 -0.52,3.382 C 0,95.84 0,47.92 0,0 98.399,0 196.8,0 295.199,0 Z"
               style="clip-rule:evenodd;fill:none;fill-rule:evenodd"
               inkscape:connector-curvature="0" />
            <path
               id="path6883"
               d="m 322.8,193.92 c -0.967,-3.789 -4.084,-4.878 -7.321,-5.464 -5.379,-0.973 -10.813,-1.637 -16.217,-2.468 -3.916,-0.602 -7.838,-1.176 -11.729,-1.916 -5.471,-1.041 -10.92,-2.194 -16.362,-3.371 -1.141,-0.247 -2.215,-0.806 -3.288,-1.208 1.337,-2.437 2.696,-4.765 3.914,-7.163 2.886,-5.681 4.354,-11.672 4.289,-18.104 -0.143,-14.095 -4.214,-26.994 -11.901,-38.679 -2.985,-4.537 -6.812,-8.524 -10.297,-12.726 -3.094,-3.73 -6.247,-7.412 -9.374,-11.114 0.073,-0.095 0.147,-0.189 0.221,-0.284 0.811,0.083 1.621,0.241 2.432,0.238 3.687,-0.015 7.322,-0.504 10.94,-1.198 5.165,-0.99 9.468,0.663 12.858,4.576 1.885,2.174 4.261,3.09 6.981,3.351 3.807,0.365 7.434,-0.521 10.869,-2.022 1.445,-0.632 2.711,-1.773 3.905,-2.852 1.007,-0.911 0.895,-3.043 -0.336,-3.967 -1.428,-1.073 -3.106,-1.819 -4.704,-2.654 -1.077,-0.563 -2.253,-0.95 -3.279,-1.588 -0.373,-0.232 -0.438,-0.961 -0.644,-1.463 0.466,-0.036 0.961,-0.191 1.393,-0.086 2.333,0.568 4.62,1.387 6.979,1.773 5.908,0.969 9.746,-1.77 9.93,-8.067 0.086,-2.963 -0.783,-6.08 -3.269,-8.138 -1.093,-0.905 -2.645,-1.301 -4.036,-1.79 -2.825,-0.992 -5.688,-1.878 -8.527,-2.83 -2.541,-0.851 -5.082,-1.703 -7.596,-2.629 -0.391,-0.144 -0.862,-0.654 -0.913,-1.045 -0.418,-3.203 -2.389,-5.174 -5.098,-6.54 -1.968,-0.992 -3.996,-1.867 -6.087,-2.835 3.111,-4.959 6.277,-9.947 9.381,-14.973 2.465,-3.994 4.808,-8.062 7.289,-12.045 1.92,-3.084 4.063,-6.032 5.939,-9.142 2.525,-4.188 4.896,-8.47 7.319,-12.719 0.524,-0.921 0.638,-1.868 -0.063,-2.778 8.8,0 17.601,0 26.4,0 0.002,64.64 0.002,129.28 0.002,193.92 z"
               style="clip-rule:evenodd;fill:none;fill-rule:evenodd"
               inkscape:connector-curvature="0" />
            <path
               id="path6885"
               d="m 260.963,62.231 c -0.539,1.597 -1.733,2.215 -3.109,2.485 -1.807,0.354 -3.428,-0.037 -4.824,-1.742 2.603,-1.316 5.182,-1.218 7.933,-0.743 z"
               style="clip-rule:evenodd;fill:none;fill-rule:evenodd"
               inkscape:connector-curvature="0" />
          </g>
        </g>
      </g>
      <g
         id="Ebene_1-8" />
    </g>
  </g>
</svg>
