<?xml version="1.0" encoding="UTF-8" standalone="no"?>
<!-- Created with Inkscape (http://www.inkscape.org/) -->

<svg
   xmlns:dc="http://purl.org/dc/elements/1.1/"
   xmlns:cc="http://creativecommons.org/ns#"
   xmlns:rdf="http://www.w3.org/1999/02/22-rdf-syntax-ns#"
   xmlns:svg="http://www.w3.org/2000/svg"
   xmlns="http://www.w3.org/2000/svg"
   xmlns:sodipodi="http://sodipodi.sourceforge.net/DTD/sodipodi-0.dtd"
   xmlns:inkscape="http://www.inkscape.org/namespaces/inkscape"
   width="116.73953mm"
   height="117.0573mm"
   viewBox="0 0 116.73953 117.0573"
   version="1.1"
   id="svg8"
   inkscape:version="0.92.3 (2405546, 2018-03-11)"
   sodipodi:docname="borderEmblem3.svg">
  <defs
     id="defs2" />
  <sodipodi:namedview
     id="base"
     pagecolor="#ffffff"
     bordercolor="#666666"
     borderopacity="1.0"
     inkscape:pageopacity="0.0"
     inkscape:pageshadow="2"
     inkscape:zoom="1.979899"
     inkscape:cx="77.926464"
     inkscape:cy="215.86409"
     inkscape:document-units="mm"
     inkscape:current-layer="layer1"
     showgrid="false"
     fit-margin-top="5"
     fit-margin-left="5"
     fit-margin-right="5"
     fit-margin-bottom="5"
     inkscape:window-width="1920"
     inkscape:window-height="1017"
     inkscape:window-x="1912"
     inkscape:window-y="-8"
     inkscape:window-maximized="1" />
  <metadata
     id="metadata5">
    <rdf:RDF>
      <cc:Work
         rdf:about="">
        <dc:format>image/svg+xml</dc:format>
        <dc:type
           rdf:resource="http://purl.org/dc/dcmitype/StillImage" />
        <dc:title />
      </cc:Work>
    </rdf:RDF>
  </metadata>
  <g
     inkscape:label="Layer 1"
     inkscape:groupmode="layer"
     id="layer1"
     transform="translate(437.85865,32.867341)">
    <g
       id="g6743"
       transform="matrix(0.26458333,0,0,0.26458333,-417.33364,-16.557189)">
      <g
         id="Gryphon">
        <g
           id="g6722">
          <g
             id="g6720">
            <path
               id="path6710"
               d="m 0,124.561 c 0,-2.16 0,-4.32 0,-6.48 0.06,-0.047 0.163,-0.084 0.174,-0.141 1.046,-5.144 3.855,-9.237 7.835,-12.483 3.189,-2.603 7.87,-3.594 11.502,-1.347 4.253,2.63 6.518,5.396 5.422,10.609 -0.209,0.997 -0.365,2.103 -1.414,2.68 -0.492,-0.597 -0.841,-1.22 -1.365,-1.609 -0.806,-0.6 -1.69,-1.368 -2.614,-1.482 -2.331,-0.289 -4.87,2.218 -4.896,4.608 -0.055,5.105 2.164,9.359 5.138,13.283 1.648,2.174 3.67,4.09 5.136,6.372 2.918,4.538 5.643,9.207 8.307,13.901 1.94,3.419 3.083,7.091 2.791,11.123 -0.182,2.5 -0.021,5.032 -0.294,7.519 -0.382,3.477 -0.696,7.017 -1.636,10.362 -1.419,5.054 -3.371,9.958 -5.055,14.938 -0.445,1.317 -0.741,2.685 -1.105,4.029 0.141,0.063 0.282,0.124 0.422,0.186 1.038,-1.907 2.783,-2.962 4.623,-3.811 2.789,-1.285 5.637,-0.826 8.44,0.048 1.62,0.506 2.686,1.627 3.257,3.213 0.333,0.924 0.386,1.833 -0.231,2.696 -2.265,-1.675 -4.802,-1.875 -6.972,-0.502 -5.224,3.305 -6.923,6.979 -5.646,12.838 0.877,4.027 3.163,7.073 6.419,9.376 1.435,1.014 3.146,2.003 4.834,2.223 3.945,0.513 7.752,-0.498 11.35,-2.161 4.099,-1.896 7.015,-5.121 9.403,-8.818 3.572,-5.528 7.079,-11.101 10.49,-16.729 3.08,-5.083 7.228,-9.16 11.93,-12.635 2.93,-2.165 6.17,-3.956 9.412,-5.644 5.174,-2.695 10.365,-5.352 15.01,-8.907 2.734,-2.093 5.313,-4.389 7.961,-6.593 -0.671,-0.398 -1.159,-0.517 -1.654,-0.577 -3.367,-0.408 -6.774,-0.602 -10.096,-1.24 -9.875,-1.897 -17.905,-6.83 -23.717,-15.125 -1.556,-2.22 -3.07,-4.521 -3.305,-7.354 -0.063,-0.761 -0.009,-1.532 -0.009,-2.413 -0.592,0.471 -1.048,0.921 -1.582,1.242 -2.318,1.396 -4.552,3.008 -7.023,4.049 -2.191,0.923 -5.109,-0.539 -4.757,-3.517 0.125,-1.057 0.274,-2.114 0.481,-3.158 0.655,-3.31 1.291,-6.625 2.043,-9.913 0.282,-1.231 0.866,-2.393 1.383,-3.775 -2.667,1.296 -5.132,2.527 -7.626,3.696 -1.975,0.926 -3.983,1.748 -6.257,1.508 -1.424,-0.149 -2.645,-1.286 -2.62,-2.603 0.084,-4.483 1.444,-8.604 3.742,-12.405 2.158,-3.569 5.027,-6.536 8.208,-9.213 1.561,-1.313 3.082,-2.672 4.827,-4.191 -0.847,0.235 -1.437,0.424 -2.039,0.562 -3.609,0.822 -7.21,1.537 -10.943,1.772 -3.29,0.208 -6.526,0.089 -9.731,-0.407 -4.259,-0.659 -8.267,-2.169 -12.063,-4.256 -3.896,-2.143 -6.804,-5.106 -8.281,-9.363 -0.567,-1.636 -0.004,-2.997 1.616,-3.52 2.202,-0.711 4.458,-1.255 6.664,-1.957 4.637,-1.473 9.252,-3.017 13.886,-4.5 1.971,-0.631 3.966,-1.184 5.951,-1.771 -0.378,-0.218 -0.699,-0.245 -1.014,-0.213 -3.024,0.308 -6.042,0.731 -9.074,0.91 -2.618,0.154 -5.255,0.1 -7.878,0.006 C 36.19,77.441 34.593,77.276 33.069,76.911 26.749,75.395 21.348,72.078 16.622,67.764 14.027,65.395 11.839,62.557 9.636,59.798 9.163,59.2 9.13,57.936 9.396,57.151 c 0.313,-0.923 1.304,-1.176 2.333,-0.789 0.317,0.12 0.712,0.038 1.072,0.038 12.039,0.002 24.078,0.002 36.117,0.003 0.331,0 0.662,0 0.993,0 C 45.876,55.099 42.047,53.452 38.38,51.374 31.46,47.451 25.6,42.297 20.526,36.224 15.727,30.478 12.185,23.913 8.482,17.457 7.405,15.58 6.314,13.708 5.303,11.795 4.793,10.829 4.744,9.746 5.524,8.888 6.28,8.055 7.195,8.24 8.14,8.722 c 1.115,0.569 2.324,0.957 3.434,1.536 2.933,1.531 5.811,3.171 8.754,4.681 6.108,3.134 12.274,6.158 18.362,9.331 5.204,2.712 10.355,5.528 15.485,8.38 2.253,1.252 4.395,2.706 6.587,4.068 -0.016,-0.379 -0.16,-0.632 -0.319,-0.876 C 58.051,32.186 55.474,28.635 53.32,24.844 51.402,21.466 49.984,17.805 48.284,14.299 46.636,10.898 44.862,7.557 43.238,4.144 42.353,2.284 42.658,1.284 44.159,0 c 0.4,0 0.8,0 1.2,0 2.825,2.547 5.704,5.039 8.462,7.656 3.681,3.493 7.25,7.104 10.905,10.625 2.202,2.122 4.449,4.198 6.72,6.245 4.52,4.075 9.059,8.129 13.617,12.161 1.274,1.127 2.643,2.148 3.969,3.217 -0.779,-2.335 -1.695,-4.502 -2.588,-6.68 -0.87,-2.12 -1.776,-4.229 -2.522,-6.394 -0.153,-0.442 0.191,-1.258 0.574,-1.612 0.256,-0.236 1.11,-0.137 1.481,0.122 1.394,0.972 2.721,2.043 4.029,3.13 0.854,0.709 1.58,1.575 2.454,2.255 3.123,2.429 6.28,4.813 9.431,7.205 2.579,1.957 5.061,4.066 7.774,5.815 6.946,4.477 14.021,8.752 20.998,13.184 4.995,3.172 9.572,6.896 13.894,10.936 0.35,0.327 0.786,0.563 1.052,0.749 0.991,-2.496 1.839,-4.904 2.893,-7.218 1.461,-3.208 2.646,-6.492 3.135,-9.985 0.135,-0.959 0.234,-2.128 -0.181,-2.926 -2.254,-4.337 -2.438,-8.752 -1.041,-13.359 1.682,-5.547 4.472,-10.559 7.266,-15.584 0.873,-1.57 1.4,-3.33 2.192,-4.951 0.28,-0.575 0.807,-1.239 1.355,-1.397 0.321,-0.093 1.09,0.64 1.345,1.155 1.465,2.964 2.813,5.985 4.25,8.963 0.7,1.453 1.505,2.855 2.409,4.556 0.734,-2.547 1.489,-4.874 2.045,-7.248 0.211,-0.9 0.38,-1.619 1.383,-1.759 0.993,-0.138 1.597,0.515 1.935,1.283 0.746,1.691 1.49,3.4 2.023,5.165 0.879,2.904 1.756,5.829 1.459,8.77 1.89,0 3.634,0.019 5.378,-0.003 5.624,-0.07 11.248,-0.208 16.873,-0.216 3.292,-0.005 5.331,1.895 5.858,5.099 0.06,0.359 0.454,0.863 0.781,0.946 1.754,0.44 3.521,0.959 5.31,1.099 5.258,0.411 8.83,4.57 7.991,9.744 -0.412,2.54 -1.546,4.846 -3.652,6.482 -0.506,0.393 -1.452,0.854 -1.818,0.639 -0.507,-0.297 -0.863,-1.188 -0.91,-1.852 -0.073,-1.025 -0.527,-1.653 -1.439,-1.723 -2.013,-0.153 -4.102,-0.43 -5.403,1.776 -0.328,0.556 -0.944,0.969 -1.486,1.367 -1.861,1.367 -3.748,2.698 -5.332,3.833 1.713,1.021 3.722,2.119 5.622,3.382 1.471,0.978 2.912,0.927 4.232,-0.293 0.383,-0.354 1.186,-0.758 1.477,-0.589 0.431,0.25 0.798,0.988 0.807,1.524 0.083,4.966 -3.953,8.937 -8.451,10.013 -2.411,0.577 -4.954,0.602 -7.458,0.878 0.034,0.464 0.088,0.931 0.1,1.398 0.048,1.902 0.589,2.604 2.462,2.801 1.733,0.183 3.488,0.156 5.225,0.313 0.588,0.053 1.252,0.257 1.701,0.618 0.709,0.569 0.674,1.96 0.011,2.97 -0.996,1.516 -2.041,3 -3.121,4.578 0.256,0.042 0.443,0.103 0.629,0.098 4.309,-0.103 8.58,0.015 12.78,1.226 1.059,0.305 1.924,0.652 2.294,1.634 0.396,1.053 0.046,2.095 -0.773,2.84 -0.94,0.854 -1.983,1.597 -2.993,2.372 -1.16,0.891 -2.333,1.764 -3.717,2.809 0.812,0 1.297,0.049 1.769,-0.011 0.746,-0.097 1.482,-0.27 2.225,-0.405 1.717,-0.313 2.999,0.325 3.06,1.795 0.103,2.51 0.019,5.031 -0.081,7.544 -0.076,1.918 -0.296,3.831 -0.456,5.796 2.507,-1.292 4.849,-2.402 7.095,-3.683 2.267,-1.293 4.566,-2.59 6.611,-4.193 1.7,-1.333 2.979,-3.191 4.573,-4.679 2.978,-2.778 4.854,-6.334 6.655,-9.836 1.833,-3.564 2.882,-7.524 4.469,-11.227 1.737,-4.054 1.677,-8.384 2.068,-12.61 0.371,-4.004 0.09,-8.07 0.064,-12.107 -0.002,-0.41 -0.091,-0.972 -0.362,-1.203 -1.716,-1.461 -3.361,-3.042 -5.639,-3.668 -1.561,-0.43 -3.114,-0.898 -4.636,-1.449 -1.903,-0.688 -3.979,-1.306 -4.668,-3.502 -0.348,-1.106 -0.223,-2.357 -0.343,-3.54 -0.037,-0.372 -0.11,-0.769 -0.28,-1.094 -2.057,-3.931 -1.595,-7.848 2.436,-10.464 0.375,-0.243 1.05,-0.409 1.375,-0.229 0.282,0.156 0.352,0.849 0.365,1.31 0.047,1.458 -0.352,2.962 0.272,4.098 1.4,0 2.547,0.04 3.69,-0.011 1.116,-0.05 1.92,0.451 2.792,1.096 1.781,1.318 2.392,3.314 3.304,5.145 0.75,1.505 1.956,2.384 3.592,2.636 1.827,0.281 2.65,-0.67 2.037,-2.361 -1.123,-3.096 -0.626,-5.909 1.849,-8.045 1.294,-1.117 2.267,-2.275 3.137,-3.753 1.712,-2.907 4.563,-4.398 7.846,-5.011 0.872,-0.163 1.775,-0.156 2.664,-0.228 0.028,0.118 0.057,0.237 0.084,0.355 -2.378,1.962 -3.695,4.406 -3.459,7.576 0.307,0.213 0.721,0.411 1.016,0.721 2.134,2.246 3.271,4.532 1.478,7.206 -1.031,1.537 -2.239,3.044 -3.662,4.205 -1.759,1.434 -1.235,5.216 0.504,5.982 1.602,0.705 3.058,0.39 4.354,-0.588 1.695,-1.279 3.643,-1.556 5.549,-1.158 1.13,0.236 1.865,-0.001 2.655,-0.574 1.72,-1.248 3.414,-1.073 4.98,0.196 1.436,1.164 2.089,1.963 1.435,3.123 -2.586,0.139 -4.526,1.678 -4.667,4.77 -0.104,2.291 -1.471,4.133 -3.817,4.835 -1.573,0.471 -3.22,0.693 -5.208,1.104 0.187,3.169 0.371,6.533 0.59,9.894 0.074,1.146 0.217,2.29 0.361,3.43 0.144,1.139 1.013,2.207 1.681,2.045 2.354,-0.568 4.162,0.289 5.456,2.203 0.461,0.682 0.831,0.593 1.351,0.294 1.551,-0.895 2.202,-2.409 2.737,-4.171 0.307,0.215 0.562,0.366 0.784,0.555 1.293,1.1 1.273,2.592 1.171,4.084 -0.186,2.722 -1.264,5.079 -3.875,6.051 -1.679,0.624 -3.116,1.205 -4.463,2.513 -1.878,1.823 -5.93,1.424 -7.827,-0.667 -1.684,-1.856 -3.042,-4.012 -4.494,-6.071 -0.695,-0.986 -1.275,-2.055 -1.908,-3.085 -0.427,2.908 -0.699,5.751 -0.669,8.592 0.058,5.341 0.301,10.68 0.443,16.021 0.045,1.658 1.021,2.742 2.689,2.847 0.479,0.03 0.96,-0.002 1.439,0.007 1.513,0.029 2.499,1.324 2.036,2.755 -0.767,2.368 -2.097,4.452 -4.148,5.803 -1.462,0.963 -3.281,1.383 -4.994,2.066 0.9,1.372 2.314,2.101 4.033,2.334 2.241,0.305 3.338,1.564 2.705,3.41 -1.412,4.125 -3.797,7.393 -8.283,8.592 -1.351,0.361 -2.702,0.719 -4.158,1.106 0.933,1.204 1.718,2.411 2.697,3.434 1.039,1.084 1.164,1.305 0.339,2.588 -0.259,0.401 -0.537,0.791 -0.812,1.182 -1.625,2.31 -3.418,4.411 -6.357,5.071 -1.936,0.435 -3.872,0.861 -5.841,1.298 0.713,0.972 0.553,1.943 -0.468,2.624 -2.201,1.469 -4.407,2.942 -6.703,4.253 -2.4,1.372 -4.928,2.519 -7.36,3.836 -1.456,0.788 -3.063,1.486 -4.211,2.621 -4.189,4.144 -7.158,9.154 -9.649,14.458 -0.308,0.656 -0.582,1.328 -0.914,2.092 0.843,-0.16 1.489,-0.313 2.145,-0.401 4.208,-0.573 8.314,0.31 12.449,0.854 2.553,0.336 5.119,0.742 7.684,0.78 4.592,0.067 9.197,0.039 13.778,-0.251 3.381,-0.214 5.431,-1.764 5.969,-5.575 0.317,-2.245 -0.119,-4.336 -0.428,-6.479 -0.511,-3.555 0.386,-7.287 4.964,-8.332 0.389,-0.088 0.776,-0.407 1.055,-0.717 2.354,-2.627 5.49,-3.464 8.811,-3.842 0.275,-0.031 0.729,0.331 0.869,0.621 0.136,0.28 0.092,0.781 -0.08,1.052 -0.826,1.297 -1.683,2.58 -2.607,3.808 -0.835,1.107 -1.328,2.128 -0.327,3.438 0.324,0.424 0.44,1.163 0.357,1.712 -0.249,1.632 -0.472,3.304 -1.024,4.845 -0.786,2.191 -1.898,4.263 -2.778,6.423 -0.24,0.59 -0.146,1.315 -0.204,1.979 0.654,-0.167 1.36,-0.229 1.955,-0.52 2.21,-1.082 3.159,-3.317 4.425,-5.2 2.476,-3.686 7.19,-4.331 10.296,-1.216 1.476,-0.579 3.012,-1.131 4.58,-0.476 2.404,1.006 4.396,2.53 5.531,4.98 0.328,0.71 0.686,1.407 1.029,2.11 0,0.4 0,0.8 0,1.2 -0.326,0.014 -0.701,0.141 -0.972,0.023 -2.51,-1.086 -4.779,-0.378 -6.997,0.855 -0.877,0.488 -1.335,1.199 -1.677,2.174 -1.181,3.368 -3.413,5.982 -6.664,7.399 -1.863,0.812 -4.021,0.946 -6.128,1.403 0.391,0.189 0.832,0.477 1.315,0.623 1.17,0.355 2.376,0.593 3.537,0.973 2.697,0.882 5.009,4.047 5.127,6.839 0.018,0.421 0.258,0.884 0.521,1.231 0.767,1.013 1.736,1.896 2.374,2.978 1.378,2.341 0.646,6.409 -1.404,8.356 -0.307,0.291 -0.788,0.396 -1.419,0.698 0.265,-3.396 -2.345,-4.698 -3.907,-6.521 -0.768,0.213 -1.397,0.44 -2.047,0.558 -1.986,0.356 -3.919,0.027 -5.585,-1.041 -1.448,-0.929 -2.831,-2.044 -3.995,-3.305 -1.066,-1.153 -1.791,-2.619 -2.686,-3.933 -0.8,-1.174 -1.765,-1.431 -2.794,-0.496 -2.293,2.082 -4.497,4.264 -6.696,6.444 -1.074,1.065 -1.918,2.411 -3.112,3.299 -2.722,2.021 -5.662,3.66 -9.23,3.613 -0.196,-0.003 -0.463,0.1 -0.581,0.247 -0.922,1.144 -0.987,3.019 -0.184,4.366 0.347,0.581 0.769,1.13 1.029,1.746 0.337,0.798 -0.17,1.606 -0.874,1.512 -5.127,-0.689 -7.54,-4.119 -6.726,-9.211 0.221,-1.385 0.483,-2.694 0.104,-4.174 -0.5,-1.941 0.215,-3.776 1.656,-5.23 1.692,-1.706 3.854,-2.602 6.048,-3.443 0.399,-0.153 1.011,-0.506 1.016,-0.775 0.01,-0.529 -0.208,-1.189 -0.569,-1.567 -0.538,-0.563 -1.293,-0.911 -1.935,-1.38 -1.126,-0.821 -2.3,-1.062 -3.678,-0.645 -1.011,0.307 -2.107,0.314 -3.142,0.555 -2.169,0.503 -4.323,1.071 -6.479,1.612 0.639,2.662 -0.63,3.949 -3.04,3.476 -1.566,-0.308 -3.153,-0.507 -4.801,-0.766 -0.016,0.359 -0.046,0.594 -0.033,0.825 0.066,1.267 0.213,2.533 0.194,3.799 -0.015,1.11 -1.121,2.007 -1.944,1.639 -1.942,-0.867 -3.866,-1.78 -5.778,-2.713 -0.765,-0.374 -1.479,-0.85 -2.521,-1.455 -0.295,1.313 -0.639,2.352 -0.738,3.413 -0.109,1.167 -0.531,2.028 -1.508,2.579 -2.891,-1.983 -4.926,-4.612 -6.444,-7.875 -0.419,0.563 -0.681,0.823 -0.833,1.136 -0.55,1.133 -1.084,2.273 -1.585,3.429 -0.663,1.528 -1.46,1.919 -2.834,1.064 -1.221,-0.76 -2.368,-1.677 -3.418,-2.664 -3.537,-3.327 -5.814,-7.426 -7.146,-12.071 -0.085,-0.295 -0.159,-0.592 -0.183,-0.677 -1.904,1.649 -3.738,3.283 -5.623,4.856 -1.685,1.405 -3.383,0.743 -3.807,-1.427 -0.086,-0.44 -0.208,-0.874 -0.354,-1.476 -0.597,0.462 -1.023,0.807 -1.465,1.132 -2.8,2.067 -5.304,4.537 -8.717,5.73 -2.907,1.017 -3.97,0.448 -4.138,-2.623 -0.003,-0.06 -0.077,-0.116 -0.183,-0.268 -1.821,0.919 -3.654,1.839 -5.482,2.77 -2.07,1.054 -2.891,0.937 -4.304,-0.616 -1.344,0.705 -2.61,1.639 -4.028,2.061 -3.44,1.021 -6.45,2.802 -9.345,4.821 -1.089,0.76 -2.056,1.693 -3.079,2.548 0.03,0.151 0.06,0.302 0.09,0.452 1.625,0.239 3.26,0.731 4.871,0.662 3.25,-0.138 6.492,-0.547 9.73,-0.906 4.104,-0.455 8.205,-0.945 12.301,-1.468 4.966,-0.635 9.927,-0.755 14.887,0.018 9.347,1.454 16.743,6.113 22.438,13.606 4,5.263 6.568,11.185 8.204,17.54 1.152,4.478 2.265,8.965 3.347,13.46 0.229,0.952 0.701,1.591 1.627,1.827 2.169,0.555 4.328,1.183 6.527,1.577 4.32,0.774 8.66,1.455 13.006,2.077 1.208,0.173 2.673,0.404 3.652,-0.103 1.633,-0.844 2.985,-2.254 3.045,-4.368 0.018,-0.64 0.023,-1.281 -0.001,-1.92 -0.077,-2.05 0.784,-3.671 2.224,-5.059 1.602,-1.544 3.603,-1.631 5.652,-1.699 0.652,-0.021 1.543,-0.212 1.895,-0.662 1.804,-2.301 4.196,-2.224 6.626,-1.725 0.803,0.165 1.581,0.862 2.182,1.495 0.688,0.727 0.275,1.447 -0.729,1.659 -0.761,0.161 -1.543,0.371 -2.225,0.732 -1.44,0.763 -1.701,1.532 -1.222,3.053 0.718,2.278 0.323,3.777 -1.574,5.146 -1.538,1.111 -3.179,2.086 -4.797,3.084 -1.579,0.973 -3.03,2.059 -3.786,3.834 -0.229,0.535 -0.412,1.269 0.36,1.348 1.513,0.153 3.077,0.748 4.563,-0.145 1.662,-0.998 3.404,-1.889 4.957,-3.035 2.25,-1.661 4.594,-2.807 7.476,-2.523 1.048,0.103 1.931,0.434 2.526,1.343 0.629,0.961 1.301,1.898 1.861,2.897 0.331,0.59 0.681,0.841 1.385,0.83 1.862,-0.029 3.414,0.89 4.254,2.408 1.034,1.871 1.735,3.948 2.401,5.994 0.462,1.419 -0.054,2.61 -1.004,3.051 -0.088,-0.122 -0.182,-0.246 -0.268,-0.376 -1.514,-2.298 -3.74,-2.804 -6.272,-2.427 -0.352,0.053 -0.658,0.465 -0.967,0.731 -0.912,0.788 -1.715,1.766 -2.742,2.346 -2.427,1.368 -4.853,0.716 -7.146,-0.472 -3.099,-1.604 -6.237,-1.618 -9.409,-0.356 -1.221,0.485 -2.461,1.109 -2.626,2.641 -0.155,1.437 1.127,1.981 1.929,2.818 1.1,1.146 2.335,2.202 3.232,3.491 1.257,1.806 1.48,3.935 0.817,6.024 -0.216,0.681 -0.193,1.223 -0.142,1.886 0.132,1.722 0.412,3.519 0.068,5.168 -0.404,1.938 -1.956,3.23 -3.841,3.905 -0.451,0.161 -1.22,0.071 -1.54,-0.228 -0.292,-0.271 -0.193,-0.982 -0.23,-1.502 -0.088,-1.24 -0.107,-2.487 -0.248,-3.721 -0.086,-0.748 -0.477,-1.032 -1.381,-0.965 -3.974,0.296 -7.049,-2.641 -7.058,-6.598 -0.003,-1.159 0.008,-2.319 -0.001,-3.479 -0.012,-1.435 -0.67,-2.1 -2.102,-2.145 -1.788,-0.056 -2.933,0.677 -2.901,2.054 0.021,0.965 0.228,1.978 0.592,2.872 0.887,2.178 0.957,4.168 -0.99,5.927 0.854,1.343 1.589,2.664 2.49,3.859 0.65,0.862 0.343,1.21 -0.438,1.611 -2.979,1.528 -7.877,0.303 -9.595,-3.84 -0.131,-0.317 -0.266,-0.704 -0.521,-0.889 -1.151,-0.829 -2.396,-1.535 -3.518,-2.401 -2.714,-2.093 -3.087,-4.376 -2.522,-7.428 0.495,-2.676 2.407,-4.517 4.151,-6.433 0.824,-0.906 1.615,-1.844 2.447,-2.798 -5.381,-2.318 -10.531,-4.755 -16.204,-5.525 -2.325,-0.315 -4.765,-0.447 -7.062,-0.086 -1.649,0.259 -3.165,1.444 -4.711,2.27 -3.408,1.817 -5.475,2.077 -7.133,-2.372 -0.368,-0.988 -0.693,-2.016 -1.226,-2.913 -0.424,-0.715 -1.044,-1.634 -1.736,-1.801 -1.325,-0.32 -2.787,-0.351 -4.15,-0.177 -3.261,0.414 -6.508,0.952 -9.481,2.533 -0.366,0.195 -1.064,-0.038 -1.503,-0.271 -0.169,-0.091 -0.142,-0.764 -0.033,-1.119 0.254,-0.83 0.641,-1.618 0.92,-2.442 0.665,-1.959 1.299,-3.93 2.017,-6.114 -3.452,0.484 -6.275,1.75 -8.859,3.614 -0.771,0.557 -1.551,1.104 -2.465,1.753 -0.078,-0.511 -0.125,-0.669 -0.122,-0.825 0.07,-3.87 -0.114,-7.688 -1.383,-11.418 -0.625,-1.835 -1.47,-2.416 -3.212,-1.521 -0.588,0.302 -1.231,0.659 -1.614,1.169 -1.729,2.298 -3.373,4.661 -5.052,6.997 -0.298,0.416 -0.553,0.896 -0.941,1.207 -0.965,0.774 -1.691,0.479 -1.946,-0.731 -0.211,-1.002 -0.401,-2.009 -0.608,-3.012 -0.602,-2.91 -2.277,-5.306 -3.871,-7.701 -0.609,-0.916 -1.651,-1.817 -2.677,-2.13 -2.958,-0.9 -5.588,0.22 -7.938,1.99 -0.584,0.44 -1.173,1.134 -1.343,1.815 -0.477,1.914 -0.722,3.885 -1.086,5.829 -0.671,3.582 -1.495,7.087 -3.294,10.345 -2.713,4.909 -6.307,8.882 -11.392,11.323 -4.852,2.328 -9.771,4.517 -14.684,6.715 -0.65,0.291 -0.943,0.571 -0.871,1.294 0.268,2.682 0.468,5.371 0.75,8.052 0.327,3.11 1.032,6.087 3.027,8.635 1.013,1.294 1.885,2.698 2.91,4.182 1.318,-1.491 2.508,-2.815 3.673,-4.161 0.991,-1.146 1.854,-2.423 2.952,-3.451 2.093,-1.957 4.495,-2.954 7.393,-1.749 0.267,0.11 0.652,-0.049 0.979,-0.104 2.345,-0.395 4.81,0.094 5.718,2.469 0.687,1.798 0.491,2.271 -1.46,2.687 -1.013,0.216 -1.772,0.791 -1.928,1.851 -0.378,2.577 -1.812,4.357 -3.855,5.898 -1.438,1.085 -3.098,1.088 -4.648,1.606 -1.353,0.454 -2.846,0.665 -4.004,2.296 1.077,0.094 1.886,0.29 2.666,0.206 1.454,-0.156 2.887,-0.504 4.336,-0.721 2.469,-0.369 4.638,-0.008 6.193,2.28 0.574,0.845 1.432,1.569 2.303,2.127 3.259,2.087 5.443,5.386 3.935,9.729 -0.544,1.568 -1.543,1.901 -2.751,0.777 -0.38,-0.354 -0.753,-0.715 -1.135,-1.065 -1.193,-1.097 -1.44,-1.174 -2.298,0.199 -1.516,2.426 -6.262,2.833 -8.278,1.264 -1.707,-1.329 -3.528,-2.518 -5.349,-3.69 -1.5,-0.966 -3.039,-1.885 -4.626,-2.696 -0.938,-0.479 -2.004,-0.707 -3.013,-1.048 -0.09,0.125 -0.18,0.251 -0.271,0.376 0.174,0.753 0.377,1.501 0.516,2.26 0.393,2.149 1.004,4.338 -0.932,6.145 -0.119,0.111 -0.148,0.366 -0.143,0.553 0.103,3.725 -2.239,5.977 -4.866,8.035 -0.776,0.608 -1.593,0.276 -1.817,-0.681 -0.08,-0.34 0.034,-0.722 -0.021,-1.072 -0.18,-1.146 -0.351,-2.298 -0.612,-3.428 -0.293,-1.265 -1.13,-1.994 -2.414,-2.29 -0.396,-0.091 -0.757,-0.438 -1.076,-0.732 -2.123,-1.964 -2.632,-4.367 -1.839,-7.084 0.486,-1.666 1.043,-3.311 1.532,-4.976 0.211,-0.722 0.057,-1.314 -0.527,-1.925 -1.107,-1.159 -2.542,-1.359 -3.964,-1.694 -2.672,-0.629 -5.045,0.649 -5.956,3.233 -0.236,0.67 -0.489,1.335 -0.736,2.002 -0.764,2.069 -2.262,3.322 -4.371,3.841 -1.665,0.408 -2.727,1.574 -3.595,2.902 -0.262,0.4 -0.04,1.117 -0.041,1.688 -0.001,0.467 -0.005,0.933 -0.007,1.399 -0.549,-0.026 -1.212,0.14 -1.628,-0.108 -2.396,-1.425 -3.522,-3.921 -2.788,-6.787 0.51,-1.991 0.751,-3.856 -0.089,-5.771 -0.063,-0.144 -0.12,-0.293 -0.156,-0.446 -0.677,-2.878 0.149,-5.362 2.751,-6.754 1.546,-0.827 3.452,-0.97 5.179,-1.479 0.729,-0.215 1.496,-0.465 2.107,-0.895 1.973,-1.388 2.312,-3.692 3.034,-5.766 0.376,-1.08 0.886,-2.171 0.969,-3.284 0.315,-4.185 -0.004,-8.353 -0.75,-12.479 -0.159,-0.877 -0.294,-2.019 -0.881,-2.5 -1.059,-0.867 -2.455,-1.32 -3.702,-1.962 -1.537,-0.79 -3.113,-1.519 -4.578,-2.426 -0.864,-0.535 -1.527,-1.386 -2.311,-2.06 -1.666,-1.433 -1.586,-4.263 0.263,-5.372 1.109,-0.665 2.369,-1.076 3.542,-1.641 0.855,-0.411 1.679,-0.886 2.518,-1.332 -0.474,-0.396 -0.81,-0.502 -1.15,-0.595 -2.754,-0.754 -4.889,-2.362 -6.384,-4.773 -1.208,-1.947 -1.576,-4.101 -1.412,-6.384 0.135,-1.875 1.442,-2.87 3.307,-2.641 1.509,0.186 3.088,0.313 4.572,0.072 2.465,-0.399 4.422,-1.684 5.174,-4.257 0.077,-0.264 -0.203,-0.901 -0.382,-0.929 -1.959,-0.289 -3.529,-1.336 -5.062,-2.47 -1.772,-1.312 -2.839,-4.341 -2.271,-6.416 0.292,-1.066 1.142,-1.474 2.273,-1.468 1.801,0.01 3.688,0.12 5.382,-0.36 1.781,-0.504 3.445,-1.669 3.586,-3.844 0.148,-2.298 0.2,-4.612 0.104,-6.912 -0.059,-1.419 -0.474,-2.824 -0.743,-4.311 -1.965,0.828 -3.242,2.304 -4.544,3.744 -3.398,3.762 -6.61,7.714 -10.234,11.243 -4.244,4.133 -9.499,6.122 -15.515,5.712 -1.346,-0.092 -2.68,-0.342 -4.023,-0.479 -2.65,-0.271 -5.324,-0.382 -7.949,-0.805 -3.388,-0.546 -6.491,0.054 -9.364,1.832 -2.124,1.314 -3.091,3.565 -4.181,5.666 -0.387,0.747 -0.813,0.899 -1.48,0.61 -0.395,-0.171 -0.786,-0.407 -1.1,-0.699 -2.125,-1.979 -2.951,-6.602 -1.423,-9.186 1.298,-2.198 3.169,-3.674 5.481,-4.753 -0.154,-0.135 -0.233,-0.231 -0.335,-0.289 -3.729,-2.111 -6.454,-5.114 -8.182,-9.05 -1.713,-3.903 -2.961,-7.956 -3.411,-12.179 -0.281,-2.638 -0.428,-5.406 0.064,-7.982 0.678,-3.547 1.928,-6.998 3.093,-10.436 1.644,-4.853 4.22,-9.401 4.388,-14.718 0.119,-3.784 0.301,-7.485 -2.707,-10.46 -1.384,-1.37 -2.398,-3.179 -3.927,-4.323 -3.783,-2.83 -6.378,-6.512 -8.404,-10.663 -0.46,-0.943 -0.612,-2.036 -0.992,-3.362 2.562,2.112 4.753,3.998 7.029,5.774 2.102,1.64 3.401,1.268 5.789,0.029 -0.552,-1.16 -0.968,-2.421 -1.688,-3.476 -2.22,-3.253 -4.537,-6.441 -6.853,-9.627 C 3.968,133.957 1.539,130.559 0.414,126.441 0.241,125.828 0.135,125.19 0,124.561 Z M 189.806,46.816 c -3.045,0.437 -5.985,0.858 -8.936,1.282 1.356,2.128 3.334,2.88 6.119,2.274 1.23,-0.268 2.761,-1.564 2.817,-3.556 z"
               style="clip-rule:evenodd;fill-rule:evenodd;stroke:#000000;stroke-opacity:1;fill:none;stroke-width:5.66929141;stroke-miterlimit:4;stroke-dasharray:none;stroke-linejoin:round"
               inkscape:connector-curvature="0" />
            <path
               id="path6712"
               d="m 0,124.561 c 0.135,0.63 0.241,1.268 0.41,1.888 1.125,4.118 3.554,7.516 6.015,10.902 2.316,3.186 4.633,6.374 6.853,9.627 0.72,1.054 1.136,2.315 1.688,3.476 -2.388,1.238 -3.688,1.61 -5.789,-0.029 -2.276,-1.776 -4.468,-3.662 -7.029,-5.774 0.38,1.326 0.531,2.419 0.992,3.362 2.026,4.151 4.621,7.833 8.404,10.663 1.529,1.145 2.543,2.954 3.927,4.323 3.007,2.976 2.826,6.676 2.707,10.46 -0.167,5.316 -2.744,9.865 -4.388,14.718 -1.165,3.438 -2.415,6.889 -3.093,10.436 -0.492,2.576 -0.345,5.345 -0.064,7.982 0.45,4.223 1.698,8.275 3.411,12.179 1.728,3.936 4.453,6.938 8.182,9.05 0.102,0.058 0.181,0.154 0.335,0.289 -2.312,1.079 -4.183,2.555 -5.481,4.753 -1.528,2.584 -0.702,7.206 1.423,9.186 0.313,0.292 0.705,0.528 1.1,0.699 0.667,0.289 1.093,0.137 1.48,-0.61 1.09,-2.101 2.057,-4.352 4.181,-5.666 2.873,-1.778 5.976,-2.378 9.364,-1.832 2.625,0.423 5.299,0.533 7.949,0.805 1.344,0.138 2.678,0.388 4.023,0.479 6.016,0.41 11.271,-1.579 15.515,-5.712 3.624,-3.529 6.835,-7.481 10.234,-11.243 1.302,-1.44 2.579,-2.916 4.544,-3.744 0.269,1.486 0.684,2.892 0.743,4.311 0.097,2.3 0.045,4.614 -0.104,6.912 -0.141,2.175 -1.805,3.34 -3.586,3.844 -1.695,0.48 -3.581,0.37 -5.382,0.36 -1.131,-0.006 -1.981,0.401 -2.273,1.468 -0.568,2.075 0.499,5.104 2.271,6.416 1.533,1.134 3.103,2.181 5.062,2.47 0.179,0.027 0.458,0.665 0.382,0.929 -0.752,2.573 -2.709,3.857 -5.174,4.257 -1.484,0.24 -3.063,0.113 -4.572,-0.072 -1.865,-0.229 -3.172,0.766 -3.307,2.641 -0.164,2.283 0.204,4.437 1.412,6.384 1.495,2.411 3.63,4.02 6.384,4.773 0.34,0.093 0.676,0.198 1.15,0.595 -0.838,0.446 -1.663,0.921 -2.518,1.332 -1.173,0.564 -2.433,0.976 -3.542,1.641 -1.849,1.109 -1.929,3.939 -0.263,5.372 0.784,0.674 1.447,1.524 2.311,2.06 1.465,0.907 3.041,1.636 4.578,2.426 1.247,0.642 2.643,1.095 3.702,1.962 0.587,0.481 0.723,1.623 0.881,2.5 0.747,4.127 1.065,8.295 0.75,12.479 -0.083,1.113 -0.593,2.204 -0.969,3.284 -0.723,2.073 -1.061,4.378 -3.034,5.766 -0.611,0.43 -1.377,0.68 -2.107,0.895 -1.727,0.509 -3.633,0.651 -5.179,1.479 -2.602,1.392 -3.428,3.876 -2.751,6.754 0.036,0.153 0.093,0.303 0.156,0.446 0.84,1.914 0.599,3.779 0.089,5.771 -0.734,2.866 0.392,5.362 2.788,6.787 0.417,0.248 1.079,0.082 1.628,0.108 0.002,-0.467 0.006,-0.933 0.007,-1.399 0.001,-0.571 -0.221,-1.288 0.041,-1.688 0.868,-1.328 1.931,-2.494 3.595,-2.902 2.109,-0.519 3.607,-1.771 4.371,-3.841 0.247,-0.667 0.5,-1.332 0.736,-2.002 0.911,-2.584 3.284,-3.862 5.956,-3.233 1.421,0.335 2.856,0.535 3.964,1.694 0.583,0.61 0.738,1.203 0.527,1.925 -0.488,1.665 -1.045,3.31 -1.532,4.976 -0.793,2.717 -0.284,5.12 1.839,7.084 0.318,0.294 0.68,0.642 1.076,0.732 1.284,0.296 2.121,1.025 2.414,2.29 0.261,1.13 0.432,2.281 0.612,3.428 0.055,0.351 -0.059,0.732 0.021,1.072 0.224,0.957 1.041,1.289 1.817,0.681 2.627,-2.059 4.969,-4.311 4.866,-8.035 -0.005,-0.187 0.024,-0.441 0.143,-0.553 1.936,-1.807 1.324,-3.995 0.932,-6.145 -0.139,-0.759 -0.342,-1.507 -0.516,-2.26 0.09,-0.125 0.181,-0.251 0.271,-0.376 1.009,0.341 2.075,0.569 3.013,1.048 1.587,0.812 3.126,1.73 4.626,2.696 1.821,1.173 3.643,2.361 5.349,3.69 2.017,1.569 6.762,1.162 8.278,-1.264 0.858,-1.373 1.104,-1.296 2.298,-0.199 0.382,0.351 0.755,0.712 1.135,1.065 1.208,1.124 2.207,0.791 2.751,-0.777 1.508,-4.343 -0.676,-7.642 -3.935,-9.729 -0.871,-0.558 -1.729,-1.282 -2.303,-2.127 -1.555,-2.288 -3.725,-2.649 -6.193,-2.28 -1.449,0.217 -2.882,0.564 -4.336,0.721 -0.779,0.084 -1.589,-0.112 -2.666,-0.206 1.159,-1.631 2.651,-1.842 4.004,-2.296 1.55,-0.519 3.21,-0.521 4.648,-1.606 2.043,-1.541 3.477,-3.321 3.855,-5.898 0.156,-1.06 0.915,-1.635 1.928,-1.851 1.951,-0.416 2.147,-0.889 1.46,-2.687 -0.908,-2.375 -3.374,-2.863 -5.718,-2.469 -0.327,0.055 -0.712,0.214 -0.979,0.104 -2.898,-1.205 -5.3,-0.208 -7.393,1.749 -1.098,1.028 -1.961,2.306 -2.952,3.451 -1.166,1.346 -2.355,2.67 -3.673,4.161 -1.025,-1.483 -1.897,-2.888 -2.91,-4.182 -1.995,-2.548 -2.7,-5.524 -3.027,-8.635 -0.282,-2.681 -0.482,-5.37 -0.75,-8.052 -0.072,-0.723 0.221,-1.003 0.871,-1.294 4.913,-2.198 9.833,-4.387 14.684,-6.715 5.085,-2.441 8.679,-6.414 11.392,-11.323 1.8,-3.258 2.624,-6.763 3.294,-10.345 0.364,-1.944 0.609,-3.915 1.086,-5.829 0.17,-0.682 0.759,-1.375 1.343,-1.815 2.35,-1.771 4.98,-2.891 7.938,-1.99 1.026,0.313 2.068,1.214 2.677,2.13 1.593,2.396 3.269,4.791 3.871,7.701 0.207,1.003 0.397,2.01 0.608,3.012 0.255,1.21 0.981,1.506 1.946,0.731 0.388,-0.311 0.643,-0.791 0.941,-1.207 1.679,-2.336 3.323,-4.699 5.052,-6.997 0.383,-0.51 1.026,-0.867 1.614,-1.169 1.742,-0.896 2.587,-0.314 3.212,1.521 1.269,3.73 1.453,7.548 1.383,11.418 -0.003,0.156 0.044,0.314 0.122,0.825 0.914,-0.649 1.693,-1.196 2.465,-1.753 2.584,-1.864 5.407,-3.13 8.859,-3.614 -0.718,2.185 -1.352,4.155 -2.017,6.114 -0.279,0.824 -0.666,1.612 -0.92,2.442 -0.108,0.355 -0.136,1.028 0.033,1.119 0.438,0.233 1.137,0.467 1.503,0.271 2.974,-1.581 6.221,-2.119 9.481,-2.533 1.363,-0.174 2.825,-0.144 4.15,0.177 0.692,0.167 1.313,1.086 1.736,1.801 0.532,0.897 0.857,1.925 1.226,2.913 1.658,4.449 3.725,4.189 7.133,2.372 1.546,-0.825 3.062,-2.011 4.711,-2.27 2.297,-0.361 4.736,-0.229 7.062,0.086 5.673,0.771 10.823,3.207 16.204,5.525 -0.832,0.954 -1.623,1.892 -2.447,2.798 -1.744,1.916 -3.656,3.757 -4.151,6.433 -0.564,3.052 -0.191,5.335 2.522,7.428 1.122,0.866 2.366,1.572 3.518,2.401 0.256,0.185 0.391,0.571 0.521,0.889 1.718,4.143 6.616,5.368 9.595,3.84 0.781,-0.401 1.089,-0.749 0.438,-1.611 -0.901,-1.195 -1.636,-2.517 -2.49,-3.859 1.947,-1.759 1.877,-3.749 0.99,-5.927 -0.364,-0.895 -0.57,-1.907 -0.592,-2.872 -0.031,-1.377 1.113,-2.109 2.901,-2.054 1.432,0.045 2.09,0.71 2.102,2.145 0.009,1.16 -0.002,2.32 0.001,3.479 0.009,3.957 3.084,6.894 7.058,6.598 0.904,-0.067 1.295,0.217 1.381,0.965 0.141,1.233 0.16,2.48 0.248,3.721 0.037,0.52 -0.062,1.23 0.23,1.502 0.32,0.299 1.089,0.389 1.54,0.228 1.885,-0.675 3.437,-1.968 3.841,-3.905 0.344,-1.649 0.063,-3.446 -0.068,-5.168 -0.052,-0.663 -0.074,-1.205 0.142,-1.886 0.663,-2.09 0.439,-4.219 -0.817,-6.024 -0.897,-1.289 -2.133,-2.345 -3.232,-3.491 -0.802,-0.837 -2.084,-1.382 -1.929,-2.818 0.165,-1.531 1.405,-2.155 2.626,-2.641 3.172,-1.262 6.311,-1.247 9.409,0.356 2.293,1.188 4.719,1.84 7.146,0.472 1.027,-0.58 1.83,-1.558 2.742,-2.346 0.309,-0.267 0.615,-0.679 0.967,-0.731 2.532,-0.377 4.759,0.129 6.272,2.427 0.086,0.13 0.18,0.254 0.268,0.376 0.95,-0.44 1.466,-1.632 1.004,-3.051 -0.666,-2.046 -1.367,-4.123 -2.401,-5.994 -0.84,-1.519 -2.392,-2.438 -4.254,-2.408 -0.704,0.011 -1.054,-0.24 -1.385,-0.83 -0.561,-0.999 -1.232,-1.937 -1.861,-2.897 -0.596,-0.909 -1.479,-1.24 -2.526,-1.343 -2.882,-0.283 -5.226,0.862 -7.476,2.523 -1.553,1.146 -3.295,2.037 -4.957,3.035 -1.486,0.893 -3.051,0.298 -4.563,0.145 -0.772,-0.079 -0.589,-0.813 -0.36,-1.348 0.756,-1.775 2.207,-2.861 3.786,-3.834 1.618,-0.998 3.259,-1.973 4.797,-3.084 1.897,-1.369 2.292,-2.868 1.574,-5.146 -0.479,-1.521 -0.219,-2.29 1.222,-3.053 0.682,-0.361 1.464,-0.571 2.225,-0.732 1.005,-0.212 1.418,-0.933 0.729,-1.659 -0.601,-0.633 -1.379,-1.33 -2.182,-1.495 -2.43,-0.499 -4.822,-0.576 -6.626,1.725 -0.352,0.45 -1.242,0.641 -1.895,0.662 -2.05,0.068 -4.051,0.155 -5.652,1.699 -1.439,1.388 -2.301,3.009 -2.224,5.059 0.024,0.639 0.019,1.28 0.001,1.92 -0.06,2.114 -1.412,3.524 -3.045,4.368 -0.979,0.507 -2.444,0.275 -3.652,0.103 -4.346,-0.622 -8.686,-1.303 -13.006,-2.077 -2.199,-0.395 -4.358,-1.022 -6.527,-1.577 -0.926,-0.236 -1.397,-0.875 -1.627,-1.827 -1.082,-4.495 -2.194,-8.982 -3.347,-13.46 -1.636,-6.355 -4.204,-12.277 -8.204,-17.54 -5.695,-7.493 -13.092,-12.152 -22.438,-13.606 -4.96,-0.772 -9.921,-0.652 -14.887,-0.018 -4.096,0.522 -8.196,1.013 -12.301,1.468 -3.238,0.359 -6.48,0.769 -9.73,0.906 -1.611,0.069 -3.247,-0.423 -4.871,-0.662 -0.03,-0.15 -0.06,-0.301 -0.09,-0.452 1.023,-0.854 1.99,-1.788 3.079,-2.548 2.895,-2.02 5.905,-3.8 9.345,-4.821 1.418,-0.422 2.685,-1.355 4.028,-2.061 1.413,1.553 2.233,1.67 4.304,0.616 1.828,-0.931 3.661,-1.851 5.482,-2.77 0.105,0.151 0.18,0.208 0.183,0.268 0.168,3.071 1.23,3.64 4.138,2.623 3.413,-1.193 5.917,-3.663 8.717,-5.73 0.441,-0.325 0.868,-0.67 1.465,-1.132 0.146,0.602 0.268,1.035 0.354,1.476 0.424,2.17 2.122,2.832 3.807,1.427 1.885,-1.573 3.719,-3.207 5.623,-4.856 0.023,0.085 0.098,0.382 0.183,0.677 1.332,4.646 3.609,8.744 7.146,12.071 1.05,0.987 2.197,1.904 3.418,2.664 1.374,0.854 2.171,0.464 2.834,-1.064 0.501,-1.155 1.035,-2.296 1.585,-3.429 0.152,-0.313 0.414,-0.572 0.833,-1.136 1.519,3.263 3.554,5.892 6.444,7.875 0.977,-0.551 1.398,-1.412 1.508,-2.579 0.1,-1.062 0.443,-2.101 0.738,-3.413 1.041,0.605 1.756,1.081 2.521,1.455 1.912,0.933 3.836,1.846 5.778,2.713 0.823,0.368 1.93,-0.528 1.944,-1.639 0.019,-1.266 -0.128,-2.532 -0.194,-3.799 -0.013,-0.231 0.018,-0.466 0.033,-0.825 1.647,0.259 3.234,0.458 4.801,0.766 2.41,0.474 3.679,-0.813 3.04,-3.476 2.155,-0.541 4.31,-1.109 6.479,-1.612 1.034,-0.24 2.131,-0.248 3.142,-0.555 1.378,-0.417 2.552,-0.177 3.678,0.645 0.642,0.469 1.396,0.817 1.935,1.38 0.361,0.378 0.579,1.038 0.569,1.567 -0.005,0.27 -0.616,0.622 -1.016,0.775 -2.194,0.842 -4.355,1.737 -6.048,3.443 -1.441,1.454 -2.156,3.289 -1.656,5.23 0.38,1.479 0.117,2.789 -0.104,4.174 -0.814,5.092 1.599,8.521 6.726,9.211 0.704,0.095 1.211,-0.714 0.874,-1.512 -0.261,-0.616 -0.683,-1.165 -1.029,-1.746 -0.804,-1.348 -0.738,-3.223 0.184,-4.366 0.118,-0.147 0.385,-0.25 0.581,-0.247 3.568,0.047 6.509,-1.592 9.23,-3.613 1.194,-0.888 2.038,-2.233 3.112,-3.299 2.199,-2.181 4.403,-4.362 6.696,-6.444 1.029,-0.935 1.994,-0.678 2.794,0.496 0.895,1.313 1.619,2.779 2.686,3.933 1.164,1.261 2.547,2.376 3.995,3.305 1.666,1.068 3.599,1.397 5.585,1.041 0.649,-0.117 1.279,-0.345 2.047,-0.558 1.563,1.823 4.172,3.125 3.907,6.521 0.631,-0.302 1.112,-0.407 1.419,-0.698 2.05,-1.947 2.782,-6.016 1.404,-8.356 -0.638,-1.082 -1.607,-1.965 -2.374,-2.978 -0.263,-0.348 -0.503,-0.811 -0.521,-1.231 -0.118,-2.792 -2.43,-5.957 -5.127,-6.839 -1.161,-0.38 -2.367,-0.617 -3.537,-0.973 -0.483,-0.146 -0.925,-0.434 -1.315,-0.623 2.106,-0.457 4.265,-0.592 6.128,-1.403 3.251,-1.417 5.483,-4.031 6.664,-7.399 0.342,-0.975 0.8,-1.686 1.677,-2.174 2.218,-1.233 4.487,-1.941 6.997,-0.855 0.271,0.117 0.646,-0.01 0.972,-0.023 0,50.79 0,101.581 0,152.386 -97.173,0 -194.346,0 -291.6,0 C 0,262.16 0,193.36 0,124.561 Z"
               style="clip-rule:evenodd;fill:none;fill-rule:evenodd"
               inkscape:connector-curvature="0" />
            <path
               id="path6714"
               d="m 291.601,177.36 c -0.344,-0.703 -0.701,-1.4 -1.029,-2.11 -1.135,-2.45 -3.127,-3.975 -5.531,-4.98 -1.568,-0.655 -3.104,-0.104 -4.58,0.476 -3.105,-3.115 -7.82,-2.47 -10.296,1.216 -1.266,1.883 -2.215,4.118 -4.425,5.2 -0.595,0.291 -1.301,0.353 -1.955,0.52 0.059,-0.664 -0.036,-1.39 0.204,-1.979 0.88,-2.16 1.992,-4.231 2.778,-6.423 0.553,-1.541 0.775,-3.213 1.024,-4.845 0.083,-0.55 -0.033,-1.289 -0.357,-1.712 -1.001,-1.31 -0.508,-2.331 0.327,-3.438 0.925,-1.228 1.781,-2.511 2.607,-3.808 0.172,-0.271 0.216,-0.772 0.08,-1.052 -0.14,-0.29 -0.594,-0.652 -0.869,-0.621 -3.32,0.378 -6.456,1.215 -8.811,3.842 -0.278,0.31 -0.666,0.628 -1.055,0.717 -4.578,1.045 -5.475,4.777 -4.964,8.332 0.309,2.144 0.745,4.234 0.428,6.479 -0.538,3.812 -2.588,5.361 -5.969,5.575 -4.581,0.29 -9.187,0.318 -13.778,0.251 -2.564,-0.038 -5.131,-0.444 -7.684,-0.78 -4.135,-0.544 -8.241,-1.427 -12.449,-0.854 -0.655,0.089 -1.302,0.241 -2.145,0.401 0.332,-0.764 0.606,-1.436 0.914,-2.092 2.491,-5.304 5.46,-10.314 9.649,-14.458 1.147,-1.135 2.755,-1.833 4.211,-2.621 2.433,-1.317 4.96,-2.464 7.36,-3.836 2.296,-1.312 4.502,-2.784 6.703,-4.253 1.021,-0.681 1.181,-1.652 0.468,-2.624 1.969,-0.437 3.905,-0.863 5.841,-1.298 2.939,-0.66 4.732,-2.762 6.357,-5.071 0.274,-0.391 0.553,-0.78 0.812,-1.182 0.825,-1.284 0.7,-1.504 -0.339,-2.588 -0.979,-1.022 -1.765,-2.229 -2.697,-3.434 1.456,-0.388 2.808,-0.746 4.158,-1.106 4.486,-1.199 6.871,-4.467 8.283,-8.592 0.633,-1.846 -0.464,-3.105 -2.705,-3.41 -1.719,-0.234 -3.133,-0.963 -4.033,-2.334 1.713,-0.683 3.532,-1.103 4.994,-2.066 2.052,-1.351 3.382,-3.435 4.148,-5.803 0.463,-1.431 -0.523,-2.726 -2.036,-2.755 -0.479,-0.009 -0.961,0.023 -1.439,-0.007 -1.668,-0.104 -2.645,-1.188 -2.689,-2.847 -0.143,-5.341 -0.386,-10.68 -0.443,-16.021 -0.03,-2.84 0.242,-5.684 0.669,-8.592 0.633,1.031 1.213,2.099 1.908,3.085 1.452,2.059 2.811,4.215 4.494,6.071 1.897,2.09 5.949,2.49 7.827,0.667 1.347,-1.308 2.784,-1.889 4.463,-2.513 2.611,-0.972 3.689,-3.329 3.875,-6.051 0.103,-1.493 0.122,-2.985 -1.171,-4.084 -0.223,-0.189 -0.478,-0.339 -0.784,-0.555 -0.535,1.762 -1.187,3.277 -2.737,4.171 -0.52,0.299 -0.89,0.388 -1.351,-0.294 -1.294,-1.914 -3.102,-2.771 -5.456,-2.203 -0.668,0.162 -1.537,-0.906 -1.681,-2.045 -0.145,-1.141 -0.287,-2.284 -0.361,-3.43 -0.219,-3.361 -0.403,-6.725 -0.59,-9.894 1.988,-0.411 3.635,-0.633 5.208,-1.104 2.347,-0.702 3.714,-2.544 3.817,-4.835 0.141,-3.092 2.081,-4.631 4.667,-4.77 0.654,-1.16 10e-4,-1.959 -1.435,-3.123 -1.566,-1.269 -3.261,-1.444 -4.98,-0.196 -0.79,0.573 -1.525,0.81 -2.655,0.574 -1.906,-0.398 -3.854,-0.121 -5.549,1.158 -1.296,0.978 -2.752,1.292 -4.354,0.588 -1.739,-0.766 -2.263,-4.548 -0.504,-5.982 1.423,-1.161 2.631,-2.668 3.662,-4.205 1.794,-2.674 0.656,-4.96 -1.478,-7.206 -0.295,-0.311 -0.709,-0.508 -1.016,-0.721 -0.236,-3.17 1.081,-5.614 3.459,-7.576 -0.027,-0.118 -0.056,-0.237 -0.084,-0.355 -0.889,0.071 -1.792,0.064 -2.664,0.228 -3.282,0.613 -6.134,2.104 -7.846,5.011 -0.87,1.478 -1.843,2.636 -3.137,3.753 -2.475,2.137 -2.972,4.95 -1.849,8.045 0.613,1.691 -0.21,2.643 -2.037,2.361 -1.636,-0.252 -2.842,-1.131 -3.592,-2.636 -0.912,-1.831 -1.522,-3.826 -3.304,-5.145 -0.872,-0.645 -1.676,-1.146 -2.792,-1.096 -1.144,0.051 -2.29,0.011 -3.69,0.011 -0.624,-1.136 -0.226,-2.641 -0.272,-4.098 -0.014,-0.46 -0.083,-1.154 -0.365,-1.31 -0.325,-0.18 -1,-0.014 -1.375,0.229 -4.03,2.616 -4.492,6.533 -2.436,10.464 0.17,0.326 0.243,0.723 0.28,1.094 0.12,1.183 -0.005,2.434 0.343,3.54 0.689,2.197 2.765,2.814 4.668,3.502 1.521,0.55 3.075,1.019 4.636,1.449 2.277,0.626 3.923,2.207 5.639,3.668 0.271,0.23 0.36,0.792 0.362,1.203 0.025,4.038 0.307,8.104 -0.064,12.107 -0.392,4.226 -0.331,8.556 -2.068,12.61 -1.587,3.703 -2.636,7.662 -4.469,11.227 -1.801,3.501 -3.678,7.058 -6.655,9.836 -1.594,1.488 -2.873,3.345 -4.573,4.679 -2.045,1.603 -4.345,2.9 -6.611,4.193 -2.246,1.281 -4.588,2.391 -7.095,3.683 0.16,-1.965 0.38,-3.877 0.456,-5.796 0.1,-2.513 0.184,-5.034 0.081,-7.544 -0.061,-1.47 -1.343,-2.108 -3.06,-1.795 -0.742,0.136 -1.479,0.309 -2.225,0.405 -0.472,0.061 -0.957,0.011 -1.769,0.011 1.384,-1.044 2.557,-1.918 3.717,-2.809 1.01,-0.775 2.053,-1.518 2.993,-2.372 0.819,-0.745 1.17,-1.787 0.773,-2.84 -0.37,-0.982 -1.235,-1.329 -2.294,-1.634 -4.2,-1.211 -8.472,-1.328 -12.78,-1.226 -0.186,0.005 -0.373,-0.056 -0.629,-0.098 1.08,-1.578 2.125,-3.062 3.121,-4.578 0.663,-1.009 0.698,-2.401 -0.011,-2.97 -0.449,-0.36 -1.113,-0.564 -1.701,-0.618 -1.736,-0.157 -3.491,-0.13 -5.225,-0.313 -1.873,-0.197 -2.414,-0.899 -2.462,-2.801 -0.012,-0.467 -0.065,-0.934 -0.1,-1.398 2.504,-0.276 5.047,-0.301 7.458,-0.878 4.498,-1.076 8.534,-5.047 8.451,-10.013 -0.009,-0.536 -0.376,-1.274 -0.807,-1.524 -0.291,-0.169 -1.094,0.235 -1.477,0.589 -1.32,1.22 -2.762,1.271 -4.232,0.293 -1.9,-1.263 -3.909,-2.361 -5.622,-3.382 1.584,-1.135 3.471,-2.466 5.332,-3.833 0.542,-0.398 1.158,-0.811 1.486,-1.367 1.302,-2.206 3.391,-1.929 5.403,-1.776 0.912,0.07 1.366,0.698 1.439,1.723 0.047,0.664 0.403,1.555 0.91,1.852 0.366,0.215 1.313,-0.246 1.818,-0.639 2.106,-1.636 3.24,-3.942 3.652,-6.482 0.839,-5.174 -2.733,-9.333 -7.991,-9.744 -1.789,-0.14 -3.556,-0.659 -5.31,-1.099 -0.327,-0.083 -0.722,-0.586 -0.781,-0.946 -0.527,-3.204 -2.566,-5.104 -5.858,-5.099 -5.625,0.009 -11.249,0.146 -16.873,0.216 -1.744,0.022 -3.488,0.003 -5.378,0.003 0.297,-2.94 -0.58,-5.866 -1.459,-8.77 -0.533,-1.765 -1.277,-3.474 -2.023,-5.165 -0.338,-0.768 -0.941,-1.421 -1.935,-1.283 -1.003,0.14 -1.172,0.858 -1.383,1.759 -0.556,2.374 -1.311,4.701 -2.045,7.248 -0.904,-1.701 -1.709,-3.104 -2.409,-4.556 -1.437,-2.979 -2.785,-6 -4.25,-8.963 -0.255,-0.516 -1.023,-1.249 -1.345,-1.155 -0.549,0.158 -1.075,0.822 -1.355,1.397 -0.792,1.622 -1.319,3.381 -2.192,4.951 -2.794,5.025 -5.584,10.037 -7.266,15.584 -1.397,4.607 -1.213,9.022 1.041,13.359 0.415,0.797 0.315,1.966 0.181,2.926 -0.489,3.493 -1.674,6.777 -3.135,9.985 -1.054,2.314 -1.901,4.722 -2.893,7.218 -0.266,-0.187 -0.702,-0.422 -1.052,-0.749 -4.322,-4.039 -8.899,-7.764 -13.894,-10.936 -6.976,-4.431 -14.052,-8.707 -20.998,-13.184 -2.713,-1.749 -5.195,-3.859 -7.774,-5.815 C 98.734,35.534 95.576,33.15 92.454,30.721 91.58,30.041 90.853,29.175 90,28.466 88.691,27.379 87.364,26.307 85.971,25.336 85.6,25.078 84.745,24.979 84.49,25.214 c -0.383,0.354 -0.727,1.17 -0.574,1.612 0.746,2.164 1.652,4.273 2.522,6.394 0.893,2.177 1.809,4.345 2.588,6.68 C 87.7,38.831 86.332,37.81 85.057,36.683 80.499,32.651 75.96,28.597 71.44,24.522 69.169,22.475 66.921,20.398 64.72,18.277 61.066,14.756 57.496,11.145 53.815,7.652 51.064,5.039 48.186,2.548 45.36,0 c 82.08,0 164.16,0 246.24,0 10e-4,59.12 10e-4,118.24 10e-4,177.36 z"
               style="clip-rule:evenodd;fill:none;fill-rule:evenodd"
               inkscape:connector-curvature="0" />
            <path
               id="path6716"
               d="m 44.16,0 c -1.501,1.284 -1.807,2.283 -0.921,4.144 1.624,3.413 3.397,6.753 5.046,10.155 1.699,3.506 3.117,7.167 5.036,10.545 2.154,3.791 4.731,7.342 7.123,10.998 0.159,0.244 0.303,0.497 0.319,0.876 C 58.571,35.356 56.429,33.902 54.176,32.65 49.047,29.798 43.895,26.982 38.691,24.27 32.603,21.097 26.437,18.073 20.329,14.939 17.386,13.429 14.508,11.789 11.575,10.258 10.465,9.679 9.256,9.291 8.141,8.722 7.195,8.24 6.28,8.055 5.524,8.888 c -0.779,0.857 -0.731,1.94 -0.221,2.907 1.011,1.913 2.103,3.784 3.179,5.662 3.703,6.456 7.245,13.021 12.044,18.767 5.074,6.074 10.934,11.227 17.854,15.15 3.667,2.079 7.496,3.725 11.531,5.029 -0.331,0 -0.662,0 -0.993,0 C 36.879,56.402 24.84,56.402 12.801,56.4 c -0.359,0 -0.755,0.082 -1.072,-0.038 -1.03,-0.388 -2.021,-0.135 -2.333,0.789 -0.266,0.785 -0.233,2.049 0.241,2.643 2.204,2.76 4.391,5.597 6.986,7.966 4.726,4.314 10.126,7.631 16.447,9.147 1.524,0.366 3.121,0.53 4.691,0.586 2.624,0.094 5.26,0.148 7.878,-0.006 3.032,-0.178 6.049,-0.602 9.074,-0.91 0.315,-0.032 0.636,-0.004 1.014,0.213 -1.984,0.588 -3.98,1.14 -5.951,1.771 -4.634,1.483 -9.249,3.027 -13.886,4.5 -2.206,0.701 -4.461,1.245 -6.664,1.957 -1.62,0.523 -2.184,1.884 -1.616,3.52 1.477,4.257 4.384,7.22 8.281,9.363 3.796,2.087 7.804,3.597 12.063,4.256 3.205,0.496 6.442,0.615 9.731,0.407 3.733,-0.236 7.334,-0.95 10.943,-1.772 0.602,-0.138 1.191,-0.327 2.039,-0.562 -1.746,1.519 -3.267,2.878 -4.827,4.191 -3.182,2.678 -6.051,5.645 -8.208,9.213 -2.298,3.8 -3.657,7.921 -3.742,12.405 -0.024,1.316 1.196,2.453 2.62,2.603 2.274,0.24 4.282,-0.582 6.257,-1.508 2.495,-1.169 4.96,-2.4 7.626,-3.696 -0.517,1.382 -1.102,2.544 -1.383,3.775 -0.753,3.288 -1.389,6.603 -2.043,9.913 -0.207,1.043 -0.356,2.101 -0.481,3.158 -0.352,2.979 2.565,4.44 4.757,3.517 2.472,-1.041 4.705,-2.653 7.023,-4.049 0.534,-0.321 0.99,-0.771 1.582,-1.242 0,0.881 -0.054,1.651 0.009,2.413 0.235,2.833 1.749,5.134 3.305,7.354 5.812,8.295 13.842,13.228 23.717,15.125 3.322,0.638 6.729,0.833 10.096,1.24 0.495,0.06 0.982,0.179 1.654,0.577 -2.648,2.205 -5.228,4.5 -7.961,6.593 -4.646,3.556 -9.836,6.212 -15.01,8.907 -3.242,1.688 -6.482,3.479 -9.412,5.644 -4.702,3.475 -8.85,7.552 -11.93,12.635 -3.411,5.629 -6.918,11.201 -10.49,16.729 -2.389,3.697 -5.304,6.923 -9.403,8.818 -3.598,1.663 -7.405,2.674 -11.35,2.161 -1.688,-0.22 -3.399,-1.209 -4.834,-2.223 -3.256,-2.303 -5.542,-5.349 -6.419,-9.376 -1.277,-5.859 0.423,-9.533 5.646,-12.838 2.17,-1.373 4.707,-1.173 6.972,0.502 0.617,-0.863 0.564,-1.772 0.231,-2.696 -0.572,-1.586 -1.637,-2.707 -3.257,-3.213 -2.803,-0.874 -5.651,-1.333 -8.44,-0.048 -1.84,0.849 -3.585,1.903 -4.623,3.811 -0.141,-0.062 -0.282,-0.123 -0.422,-0.186 0.364,-1.345 0.66,-2.712 1.105,-4.029 1.684,-4.98 3.636,-9.885 5.055,-14.938 0.939,-3.346 1.253,-6.886 1.636,-10.362 0.273,-2.487 0.112,-5.019 0.294,-7.519 0.292,-4.032 -0.851,-7.704 -2.791,-11.123 -2.664,-4.695 -5.389,-9.363 -8.307,-13.901 -1.466,-2.281 -3.488,-4.197 -5.136,-6.372 -2.974,-3.924 -5.193,-8.178 -5.138,-13.283 0.026,-2.39 2.565,-4.897 4.896,-4.608 0.923,0.115 1.808,0.882 2.614,1.482 0.524,0.389 0.873,1.013 1.365,1.609 1.048,-0.577 1.204,-1.683 1.414,-2.68 1.096,-5.213 -1.169,-7.979 -5.422,-10.609 -3.633,-2.247 -8.313,-1.256 -11.502,1.347 -3.979,3.246 -6.789,7.339 -7.835,12.483 -0.012,0.057 -0.114,0.094 -0.174,0.141 C 0,78.72 0,39.36 0,0 14.72,0 29.44,0 44.16,0 Z"
               style="clip-rule:evenodd;fill:none;fill-rule:evenodd"
               inkscape:connector-curvature="0" />
            <path
               id="path6718"
               d="m 189.806,46.816 c -0.056,1.992 -1.587,3.289 -2.816,3.556 -2.785,0.606 -4.763,-0.146 -6.119,-2.274 2.949,-0.424 5.89,-0.846 8.935,-1.282 z"
               style="clip-rule:evenodd;fill:none;fill-rule:evenodd"
               inkscape:connector-curvature="0" />
          </g>
        </g>
      </g>
      <g
         id="Ebene_1-4" />
    </g>
  </g>
</svg>
