<?xml version="1.0" encoding="UTF-8" standalone="no"?>
<svg
   xmlns:dc="http://purl.org/dc/elements/1.1/"
   xmlns:cc="http://creativecommons.org/ns#"
   xmlns:rdf="http://www.w3.org/1999/02/22-rdf-syntax-ns#"
   xmlns:svg="http://www.w3.org/2000/svg"
   xmlns="http://www.w3.org/2000/svg"
   xmlns:sodipodi="http://sodipodi.sourceforge.net/DTD/sodipodi-0.dtd"
   xmlns:inkscape="http://www.inkscape.org/namespaces/inkscape"
   id="svg8"
   version="1.1"
   viewBox="0 0 116.73953 117.0573"
   height="117.0573mm"
   width="116.73953mm"
   sodipodi:docname="Helmet2.svg"
   inkscape:version="0.92.3 (2405546, 2018-03-11)">
  <sodipodi:namedview
     pagecolor="#ffffff"
     bordercolor="#666666"
     borderopacity="1"
     objecttolerance="10"
     gridtolerance="10"
     guidetolerance="10"
     inkscape:pageopacity="0"
     inkscape:pageshadow="2"
     inkscape:window-width="1920"
     inkscape:window-height="1017"
     id="namedview83"
     showgrid="false"
     inkscape:zoom="2.1337129"
     inkscape:cx="268.20739"
     inkscape:cy="172.85877"
     inkscape:window-x="1912"
     inkscape:window-y="-8"
     inkscape:window-maximized="1"
     inkscape:current-layer="svg8" />
  <defs
     id="defs2" />
  <metadata
     id="metadata5">
    <rdf:RDF>
      <cc:Work
         rdf:about="">
        <dc:format>image/svg+xml</dc:format>
        <dc:type
           rdf:resource="http://purl.org/dc/dcmitype/StillImage" />
        <dc:title />
      </cc:Work>
    </rdf:RDF>
  </metadata>
  <g
     id="g2368"
     transform="matrix(0.26458333,0,0,0.26458333,5.00013,21.87857)">
    <g
       id="Helmet2">
      <g
         id="g2340">
        <g
           id="g2338">
          <path
             inkscape:connector-curvature="0"
             id="path2314"
             d="m 203.76,0 c 66.549,0 133.099,0 199.664,0 0,113.65 0,227.301 0,341.04 -65.184,0 -130.384,0 -195.584,0 0.75,-0.076 1.497,-0.195 2.249,-0.223 8.121,-0.292 16.188,-1.135 24.196,-2.496 19.203,-3.265 37.436,-9.456 54.783,-18.292 21.616,-11.011 40.811,-25.413 58.519,-41.879 3.707,-3.447 7.675,-6.521 11.992,-9.148 10.046,-6.113 20.541,-11.381 31.103,-16.525 4.126,-2.01 8.245,-4.034 12.391,-6.063 -0.078,-0.22 -0.105,-0.381 -0.187,-0.508 -3.097,-4.824 -6.479,-9.421 -10.688,-13.356 -6.526,-6.099 -14.155,-8.991 -23.165,-8.449 -4.632,0.279 -9.056,1.134 -13.413,2.685 -3.377,1.201 -6.827,2.229 -10.3,3.118 -5.609,1.437 -11.266,2.692 -16.9,4.032 -0.952,0.227 -1.243,-0.043 -0.901,-1.044 1.358,-3.968 2.737,-7.929 4.154,-11.876 0.884,-2.46 -0.543,-5.28 -2.972,-5.666 -6.272,-0.997 -12.55,-1.97 -18.824,-2.958 -1.315,-0.207 -2.626,-0.441 -4.038,-0.68 0.248,-0.557 0.417,-0.915 0.57,-1.281 0.709,-1.686 1.703,-3.316 2.053,-5.075 0.541,-2.718 -0.171,-5.11 -3.319,-5.987 -6.42,-1.788 -12.751,-3.897 -19.103,-5.924 -1.323,-0.422 -2.647,-0.943 -3.831,-1.653 -0.563,-0.339 -1.098,-1.214 -1.129,-1.871 -0.157,-3.31 -0.188,-6.628 -0.182,-9.942 0.022,-10.198 0.11,-20.396 0.121,-30.595 0.021,-18.878 0.007,-37.756 0.004,-56.634 -0.001,-0.599 -0.012,-1.201 -0.065,-1.797 -0.37,-4.084 -0.688,-8.174 -1.149,-12.248 -0.44,-3.897 -1.452,-7.674 -2.718,-11.386 -1.222,-3.581 -2.86,-6.953 -4.618,-10.306 -2.638,-5.033 -5.651,-9.816 -9.267,-14.153 -4.074,-4.888 -8.263,-9.72 -13.094,-13.899 -2.835,-2.452 -5.802,-4.773 -8.863,-6.935 -3.217,-2.271 -6.601,-4.31 -9.942,-6.399 C 227.161,13.034 223.023,10.429 218.81,7.951 215.761,6.158 212.607,4.543 209.48,2.886 207.592,1.885 205.667,0.959 203.76,0 Z"
             style="clip-rule:evenodd;fill:none;fill-rule:evenodd" />
          <path
             inkscape:connector-curvature="0"
             id="path2316"
             d="M 0,246.24 C 0,164.16 0,82.08 0,0 c 67.68,0 135.36,0 203.04,0 -0.713,0.318 -1.424,0.643 -2.14,0.954 -10.737,4.664 -20.96,10.265 -30.619,16.882 -12.087,8.28 -23.02,17.813 -31.84,29.604 -6.482,8.667 -11.555,18.041 -13.73,28.744 -0.775,3.818 -1.159,7.723 -1.593,11.602 -0.413,3.696 -0.762,7.405 -0.946,11.119 -0.169,3.392 -0.098,6.797 -0.104,10.196 -0.025,15.159 -0.01,30.318 -0.069,45.477 -0.047,11.919 -0.191,23.838 -0.258,35.757 -0.004,0.835 -0.246,1.37 -1.005,1.678 -1.182,0.479 -2.337,1.043 -3.549,1.428 -6.584,2.09 -13.184,4.128 -19.771,6.208 -0.55,0.174 -1.126,0.437 -1.547,0.815 -1.41,1.271 -1.732,4.211 -0.754,6.361 0.721,1.586 1.468,3.16 2.239,4.814 -0.367,0.113 -0.584,0.21 -0.812,0.246 -7.182,1.137 -14.348,2.397 -21.557,3.326 -2.382,0.307 -4.489,3.344 -3.447,5.908 1.387,3.412 2.571,6.906 3.784,10.386 0.26,0.745 0.268,1.577 0.391,2.369 -0.757,-0.123 -1.522,-0.213 -2.271,-0.376 -3.659,-0.802 -7.321,-1.59 -10.967,-2.445 -5.72,-1.344 -11.373,-2.911 -16.894,-4.952 -4.288,-1.586 -8.779,-2.006 -13.323,-2.041 -3.344,-0.025 -6.619,0.356 -9.796,1.437 -6.593,2.239 -11.655,6.576 -15.947,11.869 -2.307,2.848 -4.352,5.909 -6.515,8.874 z"
             style="clip-rule:evenodd;fill:none;fill-rule:evenodd" />
          <path
             inkscape:connector-curvature="0"
             id="path2318"
             d="m 0,246.24 c 2.163,-2.965 4.208,-6.026 6.516,-8.874 4.292,-5.293 9.354,-9.63 15.947,-11.869 3.177,-1.08 6.452,-1.462 9.796,-1.437 4.543,0.035 9.035,0.455 13.323,2.041 5.521,2.041 11.174,3.608 16.894,4.952 3.646,0.855 7.308,1.644 10.967,2.445 0.749,0.163 1.513,0.253 2.271,0.376 -0.124,-0.792 -0.131,-1.624 -0.391,-2.369 -1.212,-3.479 -2.397,-6.974 -3.784,-10.386 -1.042,-2.564 1.065,-5.602 3.447,-5.908 7.209,-0.929 14.375,-2.189 21.557,-3.326 0.227,-0.036 0.445,-0.133 0.812,-0.246 -0.771,-1.654 -1.518,-3.229 -2.239,-4.814 -0.978,-2.15 -0.655,-5.09 0.754,-6.361 0.421,-0.379 0.997,-0.642 1.547,-0.815 6.586,-2.08 13.187,-4.118 19.771,-6.208 1.212,-0.385 2.367,-0.948 3.549,-1.428 0.759,-0.308 1,-0.843 1.005,-1.678 0.067,-11.919 0.211,-23.837 0.258,-35.757 0.06,-15.159 0.044,-30.318 0.069,-45.477 0.006,-3.399 -0.065,-6.804 0.104,-10.196 0.185,-3.713 0.533,-7.422 0.946,-11.119 0.434,-3.879 0.817,-7.784 1.593,-11.602 2.175,-10.704 7.248,-20.078 13.73,-28.744 8.82,-11.792 19.753,-21.325 31.84,-29.604 9.659,-6.617 19.881,-12.218 30.619,-16.882 0.716,-0.311 1.427,-0.636 2.14,-0.954 h 0.72 c 1.907,0.959 3.832,1.885 5.719,2.884 3.127,1.657 6.281,3.271 9.33,5.065 4.213,2.478 8.352,5.083 12.497,7.676 3.342,2.09 6.726,4.128 9.942,6.399 3.062,2.162 6.028,4.483 8.863,6.935 4.831,4.179 9.02,9.011 13.094,13.899 3.615,4.337 6.629,9.121 9.267,14.153 1.758,3.353 3.396,6.725 4.618,10.306 1.266,3.711 2.277,7.489 2.718,11.386 0.462,4.074 0.779,8.164 1.149,12.248 0.054,0.596 0.064,1.198 0.065,1.797 0.003,18.878 0.018,37.756 -0.004,56.634 -0.011,10.198 -0.099,20.396 -0.121,30.595 -0.007,3.314 0.024,6.633 0.182,9.942 0.031,0.657 0.565,1.532 1.129,1.871 1.184,0.71 2.508,1.231 3.831,1.653 6.352,2.026 12.683,4.136 19.103,5.924 3.148,0.877 3.86,3.27 3.319,5.987 -0.35,1.759 -1.344,3.39 -2.053,5.075 -0.153,0.366 -0.322,0.725 -0.57,1.281 1.412,0.238 2.723,0.473 4.038,0.68 6.274,0.988 12.552,1.961 18.824,2.958 2.429,0.386 3.855,3.206 2.972,5.666 -1.417,3.947 -2.796,7.908 -4.154,11.876 -0.342,1.001 -0.051,1.271 0.901,1.044 5.635,-1.34 11.291,-2.596 16.9,-4.032 3.473,-0.89 6.923,-1.917 10.3,-3.118 4.357,-1.551 8.781,-2.405 13.413,-2.685 9.01,-0.542 16.639,2.351 23.165,8.449 4.21,3.936 7.592,8.532 10.688,13.356 0.081,0.127 0.108,0.288 0.187,0.508 -4.146,2.029 -8.265,4.054 -12.391,6.063 -10.562,5.145 -21.057,10.412 -31.103,16.525 -4.317,2.627 -8.285,5.701 -11.992,9.148 -17.708,16.466 -36.902,30.868 -58.519,41.879 -17.348,8.836 -35.58,15.027 -54.783,18.292 -8.008,1.361 -16.075,2.204 -24.196,2.496 -0.752,0.027 -1.499,0.146 -2.249,0.223 h -12.48 c -0.55,-0.069 -1.098,-0.154 -1.649,-0.205 -6.962,-0.643 -13.961,-1.014 -20.88,-1.969 -19.549,-2.7 -38.099,-8.733 -55.807,-17.397 C 96.292,311.322 77.663,298.082 60.607,282.629 53.316,276.025 45.906,269.681 37.092,265.185 24.925,258.979 12.74,252.806 0.56,246.625 0.392,246.539 0.187,246.525 0,246.478 Z"
             style="clip-rule:evenodd;fill-rule:evenodd"
             sodipodi:nodetypes="ccccccccccccccccccccccccccccccccccccccccccccccccccccccccccccccsccccccccccccc" />
          <path
             inkscape:connector-curvature="0"
             id="path2320"
             d="m 0,246.479 c 0.187,0.048 0.391,0.062 0.56,0.147 12.18,6.181 24.365,12.354 36.532,18.56 8.813,4.496 16.224,10.84 23.515,17.444 17.056,15.453 35.685,28.693 56.417,38.838 17.708,8.664 36.258,14.697 55.807,17.397 6.919,0.955 13.918,1.326 20.88,1.969 0.552,0.051 1.1,0.136 1.649,0.205 -65.12,0 -130.24,0 -195.36,0 C 0,309.52 0,278 0,246.479 Z"
             style="clip-rule:evenodd;fill:none;fill-rule:evenodd" />
          <path
             inkscape:connector-curvature="0"
             id="path2322"
             d="m 12.438,244.034 c 3.965,-6.177 8.492,-11.264 15.533,-13.246 2.493,-0.701 5.141,-0.25 7.653,0.477 5.218,1.512 10.417,3.088 15.643,4.572 4.249,1.206 8.487,2.488 12.797,3.424 4.595,0.998 9.275,1.604 13.909,2.428 2.724,0.484 5.374,0.153 8.039,-0.425 1.135,-0.245 1.514,-0.923 1.289,-1.879 -0.624,-2.644 -1.359,-5.261 -2.044,-7.89 -0.586,-2.249 -1.177,-4.496 -1.733,-6.752 -0.092,-0.373 -0.013,-0.788 -0.013,-1.263 2.499,-0.426 4.914,-0.815 7.32,-1.256 3.143,-0.574 6.277,-1.2 9.419,-1.781 2.098,-0.388 4.202,-0.739 6.304,-1.099 2.037,-0.349 2.66,-1.229 1.896,-3.141 -0.834,-2.089 -1.876,-4.097 -2.863,-6.123 -1.074,-2.204 -0.199,-4.03 1.766,-4.87 5.262,-2.249 10.5,-4.649 16.172,-5.763 6.744,-1.322 12.938,0.3 18.718,3.75 8.122,4.849 16.566,8.985 25.565,11.951 14.054,4.631 28.447,6.294 43.173,4.842 16.527,-1.631 31.951,-6.867 46.628,-14.483 2.482,-1.288 5.013,-2.49 7.442,-3.87 5.502,-3.125 11.277,-3.302 17.166,-1.574 3.132,0.919 6.155,2.208 9.222,3.344 1.335,0.495 2.674,0.986 3.979,1.552 1.766,0.766 3.493,2.738 2.153,5.218 -0.714,1.321 -1.306,2.709 -1.958,4.064 -0.172,0.355 -0.388,0.691 -0.539,1.055 -1.039,2.5 -1.036,3.615 2.026,4.131 7.051,1.188 14.081,2.493 21.119,3.756 0.461,0.083 0.913,0.213 1.388,0.325 0.423,2.595 -0.756,4.844 -1.376,7.193 -0.752,2.854 -1.577,5.69 -2.317,8.547 -0.29,1.122 0.149,1.699 1.261,1.992 3.17,0.835 6.342,0.858 9.563,0.246 4.624,-0.879 9.29,-1.542 13.897,-2.497 2.889,-0.599 5.703,-1.558 8.55,-2.363 7.008,-1.984 13.985,-4.09 21.041,-5.888 1.981,-0.505 4.192,-0.416 6.261,0.38 6.316,2.434 10.57,7.112 14.225,12.85 -1.579,1.016 -2.96,2.283 -4.588,2.895 -20.753,7.806 -39.159,19.623 -56.741,32.893 -5.803,4.38 -11.259,9.241 -17.608,12.872 -11.769,6.728 -23.85,12.822 -36.405,17.954 -14.881,6.082 -30.201,10.633 -46.104,13.108 -8.226,1.28 -16.499,1.986 -24.838,2.043 -9.333,0.063 -18.621,-0.338 -27.87,-1.654 -14.858,-2.114 -29.247,-6 -43.249,-11.348 C 117.784,306.801 102.83,299.645 88.736,290.85 83.027,287.287 77.882,282.817 72.479,278.763 58.797,268.5 44.586,259.088 28.995,251.929 c -3.699,-1.698 -7.537,-3.094 -11.239,-4.784 -1.82,-0.832 -3.478,-2.02 -5.318,-3.111 z m 193.117,52.149 c 4.333,-0.341 11.824,-0.895 19.309,-1.532 6.604,-0.563 13.024,-2.14 19.319,-4.106 5.017,-1.567 9.86,-3.679 14.833,-5.397 9.613,-3.323 18.388,-8.271 26.797,-13.867 4.181,-2.783 8.075,-6.007 12.02,-9.132 2.15,-1.702 4.244,-3.507 6.161,-5.464 1.917,-1.957 3.586,-4.157 5.347,-6.266 0.115,-0.139 0.085,-0.399 0.122,-0.604 -0.208,-0.005 -0.438,-0.066 -0.619,0.001 -0.216,0.08 -0.391,0.271 -0.583,0.414 -9.235,6.935 -19.116,12.802 -29.523,17.79 -23.118,11.081 -47.474,17.218 -73.114,17.992 -12.356,0.373 -24.587,-1.009 -36.684,-3.504 -26.488,-5.463 -50.674,-16.133 -72.454,-32.202 -0.225,-0.166 -0.431,-0.376 -0.681,-0.484 -0.175,-0.076 -0.411,-0.014 -0.619,-0.013 0.033,0.203 -0.005,0.466 0.109,0.603 1.788,2.137 3.4,4.472 5.441,6.335 3.811,3.479 7.854,6.704 11.835,9.992 5.336,4.406 11.317,7.848 17.285,11.282 6.917,3.981 14.375,6.751 21.896,9.346 3.737,1.289 7.424,2.749 11.215,3.854 3.763,1.097 7.589,2.089 11.455,2.697 9.251,1.455 18.584,2.107 31.133,2.265 z M 121.43,225.905 c 0.061,0.561 0.021,0.777 0.108,0.915 1.317,2.094 2.501,4.293 4.015,6.233 2.057,2.637 4.338,5.102 6.578,7.591 4.771,5.3 10.191,9.873 15.903,14.121 5.318,3.955 11.197,6.905 17.226,9.553 4.102,1.802 8.262,3.51 12.503,4.944 5.771,1.952 11.809,2.579 17.863,3.04 8.548,0.65 17.008,0.078 25.402,-1.604 4.369,-0.876 8.734,-1.833 12.82,-3.641 4.047,-1.79 8.014,-3.77 11.962,-5.77 4.095,-2.074 8.054,-4.382 11.717,-7.182 5.593,-4.273 10.76,-8.986 15.631,-14.077 3.814,-3.987 7.06,-8.329 9.839,-13.058 0.118,-0.201 0.126,-0.467 0.186,-0.702 -0.519,0.091 -0.809,0.327 -1.073,0.589 -9.188,9.092 -19.505,16.641 -30.884,22.767 -7.303,3.932 -15.037,6.837 -22.866,9.444 -4.294,1.431 -8.776,2.404 -13.245,3.17 -4.498,0.77 -9.076,1.29 -13.634,1.43 -4.125,0.126 -8.292,-0.226 -12.403,-0.694 -6.562,-0.749 -12.965,-2.354 -19.001,-5.046 -5.023,-2.239 -9.882,-4.85 -14.786,-7.353 -12.166,-6.211 -23.088,-14.148 -32.798,-23.757 -0.244,-0.239 -0.52,-0.447 -1.063,-0.913 z"
             style="clip-rule:evenodd;fill:none;fill-rule:evenodd" />
          <path
             inkscape:connector-curvature="0"
             id="path2324"
             d="m 273.854,133.68 c 0,12.679 -0.016,25.358 0.011,38.037 0.007,3.134 -0.164,6.236 -1.053,9.258 -1.504,5.112 -4.713,8.942 -9.126,11.779 -5.327,3.424 -11.081,6.032 -16.904,8.475 -10.597,4.443 -21.584,7.453 -33.014,8.746 -17.81,2.015 -35.072,-0.417 -51.863,-6.53 -7.448,-2.712 -14.627,-6.023 -21.49,-9.983 -2.028,-1.171 -3.983,-2.55 -5.736,-4.1 -3.54,-3.128 -5.294,-7.204 -5.3,-11.908 -0.036,-25.959 -0.07,-51.92 0.037,-77.879 0.018,-4.348 0.73,-8.692 1.111,-13.039 0.56,-6.393 3.113,-12.201 5.394,-18.071 2.818,-7.252 7.178,-13.652 11.901,-19.734 3.166,-4.076 6.826,-7.822 10.599,-11.36 5.64,-5.289 11.903,-9.852 18.384,-14.054 5.675,-3.68 11.541,-7.071 17.375,-10.5 2.588,-1.521 5.315,-2.805 7.958,-4.234 0.533,-0.288 0.931,-0.336 1.497,-0.045 8.175,4.198 16.23,8.614 23.837,13.779 4.906,3.33 9.738,6.793 14.399,10.455 4.29,3.369 8.163,7.218 11.884,11.237 4.199,4.534 7.533,9.657 10.875,14.792 4.113,6.32 6.298,13.352 7.541,20.728 1.61,9.555 1.537,19.19 1.485,28.831 -0.046,8.44 -0.01,16.88 -0.01,25.32 0.069,0 0.138,0 0.208,0 z m -8.3,-34.088 c -4.244,0.428 -8.18,0.822 -12.114,1.221 -7.515,0.761 -15.03,1.521 -22.545,2.288 -7.38,0.753 -14.743,1.801 -22.142,2.19 -7.044,0.37 -14.125,0.212 -21.168,-0.61 -5.556,-0.647 -11.132,-1.135 -16.699,-1.689 -9.505,-0.945 -19.01,-1.89 -28.516,-2.828 -1.535,-0.151 -3.074,-0.268 -4.647,-0.403 -0.048,0.346 -0.097,0.539 -0.1,0.732 -0.076,6.674 -0.168,13.347 -0.211,20.021 -0.023,3.551 1.16,6.636 4.067,8.798 1.493,1.111 3.158,2.026 4.835,2.848 11.51,5.64 23.048,11.224 34.567,16.845 3.434,1.675 5.667,4.396 6.086,8.204 0.379,3.441 0.577,6.941 0.416,10.395 -0.303,6.482 -2.456,12.348 -6.788,17.294 -1.283,1.466 -2.632,2.873 -3.961,4.319 -0.03,-0.023 0.115,0.111 0.278,0.22 6.895,4.571 13.778,9.16 20.695,13.698 2.515,1.65 5.135,1.644 7.655,-0.01 6.416,-4.208 12.805,-8.457 19.203,-12.692 0.563,-0.373 1.114,-0.764 1.724,-1.183 -0.229,-0.314 -0.398,-0.579 -0.598,-0.819 -1.737,-2.092 -3.442,-4.212 -5.227,-6.262 -4.857,-5.582 -6.428,-12.06 -5.07,-19.222 1.416,-7.47 5.15,-13.234 12.283,-16.656 10.332,-4.958 20.568,-10.119 30.771,-15.339 1.833,-0.938 3.408,-2.474 4.915,-3.928 1.289,-1.243 1.912,-2.907 1.965,-4.762 0.056,-1.917 0.294,-3.831 0.309,-5.747 0.045,-5.591 0.017,-11.182 0.017,-16.923 z"
             style="clip-rule:evenodd;fill:none;fill-rule:evenodd" />
          <path
             inkscape:connector-curvature="0"
             id="path2332"
             d="m 258.179,108.037 c 0.165,1.273 0.504,2.458 0.437,3.62 -0.249,4.341 -0.105,8.843 -3.783,12.121 -0.412,0.367 -0.876,0.685 -1.348,0.974 -11.469,7.031 -23.656,12.657 -35.824,18.321 -1.914,0.891 -3.807,1.861 -5.596,2.975 -2.085,1.3 -3.222,3.249 -3.259,5.777 -0.058,3.905 -0.129,7.81 -0.22,11.713 -0.069,2.998 -0.255,5.994 -0.251,8.991 0.008,5.35 1.526,10.162 5.351,14.081 0.08,0.082 0.13,0.192 0.275,0.414 -2.861,2.805 -5.473,5.897 -9.046,7.913 -2.273,1.282 -4.633,1.217 -6.708,-0.206 -2.792,-1.915 -5.402,-4.099 -8.041,-6.229 -0.232,-0.188 -0.24,-0.879 -0.109,-1.251 0.887,-2.523 1.964,-4.985 2.732,-7.542 0.662,-2.203 1.308,-4.49 1.411,-6.766 0.244,-5.384 0.305,-10.787 0.168,-16.175 -0.129,-5.049 -2.425,-9.128 -6.758,-11.762 -4.055,-2.465 -8.254,-4.705 -12.466,-6.896 -5.917,-3.076 -11.895,-6.034 -17.868,-8.998 -1.211,-0.601 -2.525,-0.994 -3.783,-1.503 -6.956,-2.812 -9.697,-7.71 -8.441,-15.124 0.226,-1.337 0.514,-2.668 0.868,-3.976 0.072,-0.267 0.588,-0.621 0.867,-0.595 7.083,0.674 14.161,1.392 21.239,2.105 7.555,0.762 15.106,1.571 22.667,2.273 3.724,0.346 7.462,0.606 11.199,0.711 5.317,0.15 10.566,-0.756 15.838,-1.281 9.426,-0.939 18.851,-1.881 28.28,-2.781 3.925,-0.374 7.86,-0.642 11.791,-0.954 0.113,-0.008 0.231,0.03 0.378,0.05 z m -43.987,29.633 c 0.464,-0.13 0.738,-0.18 0.991,-0.282 5.15,-2.06 10.328,-4.053 15.437,-6.211 4.708,-1.988 9.353,-4.137 13.503,-7.187 1.852,-1.36 3.498,-2.924 4.544,-5.017 0.812,-1.622 1.218,-3.328 1.118,-5.163 -0.249,0 -0.37,-0.014 -0.487,0.001 -10.325,1.417 -20.65,2.828 -30.974,4.259 -2.175,0.301 -3.928,2.239 -3.977,4.429 -0.084,3.754 -0.111,7.51 -0.153,11.266 -0.014,1.271 -0.002,2.54 -0.002,3.905 z m -25.16,0.381 c 0,-3.337 0.036,-6.455 -0.011,-9.572 -0.044,-2.945 -0.534,-5.809 -1.941,-8.449 -0.528,-0.991 -1.21,-1.699 -2.456,-1.848 -2.299,-0.274 -4.574,-0.748 -6.871,-1.045 -7.252,-0.939 -14.513,-1.813 -21.764,-2.758 -3.286,-0.429 -3.256,-0.469 -4.483,2.511 -0.288,0.7 -0.188,1.129 0.345,1.656 2.953,2.919 6.209,5.477 9.941,7.252 6.125,2.913 12.378,5.56 18.572,8.33 2.797,1.25 5.583,2.526 8.668,3.923 z"
             style="clip-rule:evenodd;fill:none;fill-rule:evenodd" />
        </g>
      </g>
    </g>
    <g
       id="Ebene_1-3" />
  </g>
  <g
     id="g2274"
     transform="matrix(0.26458333,0,0,0.26458333,24.81107,18.781352)"
     style="fill:#ff0000;fill-opacity:1">
    <g
       id="Ebene_1"
       style="fill:#ff0000;fill-opacity:1" />
  </g>
</svg>
