<?xml version="1.0" encoding="UTF-8" standalone="no"?>
<svg
   xmlns:dc="http://purl.org/dc/elements/1.1/"
   xmlns:cc="http://creativecommons.org/ns#"
   xmlns:rdf="http://www.w3.org/1999/02/22-rdf-syntax-ns#"
   xmlns:svg="http://www.w3.org/2000/svg"
   xmlns="http://www.w3.org/2000/svg"
   xmlns:sodipodi="http://sodipodi.sourceforge.net/DTD/sodipodi-0.dtd"
   xmlns:inkscape="http://www.inkscape.org/namespaces/inkscape"
   id="svg8"
   version="1.1"
   viewBox="0 0 116.73953 117.0573"
   height="117.0573mm"
   width="116.73953mm"
   sodipodi:docname="Helmet4.svg"
   inkscape:version="0.92.3 (2405546, 2018-03-11)">
  <sodipodi:namedview
     pagecolor="#ffffff"
     bordercolor="#666666"
     borderopacity="1"
     objecttolerance="10"
     gridtolerance="10"
     guidetolerance="10"
     inkscape:pageopacity="0"
     inkscape:pageshadow="2"
     inkscape:window-width="1920"
     inkscape:window-height="1017"
     id="namedview83"
     showgrid="false"
     inkscape:zoom="1.5087629"
     inkscape:cx="299.01707"
     inkscape:cy="136.03273"
     inkscape:window-x="1912"
     inkscape:window-y="-8"
     inkscape:window-maximized="1"
     inkscape:current-layer="svg8" />
  <defs
     id="defs2" />
  <metadata
     id="metadata5">
    <rdf:RDF>
      <cc:Work
         rdf:about="">
        <dc:format>image/svg+xml</dc:format>
        <dc:type
           rdf:resource="http://purl.org/dc/dcmitype/StillImage" />
        <dc:title />
      </cc:Work>
    </rdf:RDF>
  </metadata>
  <g
     id="g2596"
     transform="matrix(0.26458333,0,0,0.26458333,5.00304,5)">
    <g
       id="Helmet2_x2B__x2B_">
      <g
         id="g2564">
        <g
           id="g2562">
          <path
             inkscape:connector-curvature="0"
             id="path2530"
             d="M 0,309.826 C 0,206.556 0,103.285 0,0 c 134.458,0 268.917,0 403.407,0 0,134.866 0,269.746 0,404.626 -65.02,0 -130.053,0 -195.087,0 0.59,-0.07 1.179,-0.154 1.771,-0.208 6.527,-0.589 13.091,-0.908 19.575,-1.807 18.89,-2.617 36.907,-8.225 54.136,-16.391 21.6,-10.238 41.036,-23.734 58.575,-39.854 9.101,-8.365 18.932,-15.437 29.926,-20.969 9.203,-4.632 18.424,-9.23 27.638,-13.843 1.056,-0.529 2.114,-1.054 3.243,-1.616 -2.972,-4.712 -6.21,-9.05 -10.046,-12.946 -9.025,-9.168 -19.98,-11.05 -32.001,-8.271 -6.587,1.522 -12.833,4.302 -19.492,5.671 -4.473,0.92 -8.893,2.097 -13.34,3.143 -0.839,0.196 -1.122,-0.144 -0.828,-0.977 1.409,-3.988 2.787,-7.987 4.219,-11.967 0.88,-2.446 -0.567,-5.294 -2.973,-5.675 -6.274,-0.993 -12.552,-1.968 -18.827,-2.956 -1.314,-0.207 -2.624,-0.442 -4.05,-0.684 0.813,-1.745 1.552,-3.292 2.257,-4.854 1.56,-3.459 0.254,-6.436 -3.298,-7.544 -6.25,-1.951 -12.508,-3.877 -18.747,-5.864 -1.323,-0.421 -2.598,-1.018 -3.855,-1.614 -0.802,-0.381 -1.172,-1.076 -1.173,-2.02 -0.005,-4.634 -0.08,-9.268 -0.076,-13.902 0.02,-24.878 0.067,-49.756 0.075,-74.634 0.002,-3.956 0.03,-7.924 -0.271,-11.863 -0.377,-4.943 -0.872,-9.896 -1.699,-14.781 -0.859,-5.078 -2.602,-9.93 -4.935,-14.55 -0.187,-0.368 -0.213,-0.94 -0.072,-1.331 1.325,-3.685 2.77,-7.328 4.049,-11.029 1.398,-4.046 2.605,-8.159 3.994,-12.21 1.473,-4.293 3.082,-8.539 4.591,-12.82 1.573,-4.461 3.068,-8.95 4.651,-13.408 1.557,-4.382 3.206,-8.732 4.769,-13.112 2.128,-5.963 4.22,-11.939 6.31,-17.916 0.295,-0.845 0.744,-1.242 1.709,-1.355 2.176,-0.255 4.13,-1.003 5.544,-2.884 1.104,-1.468 1.73,-3.13 1.672,-4.854 -0.06,-1.77 -0.783,-3.403 -2.054,-4.836 -2.961,-3.342 -8.604,-3.237 -11.338,0.376 -2.438,3.221 -2.477,7.103 0.604,10.166 0.277,0.277 0.449,0.982 0.296,1.32 -1.889,4.175 -3.697,8.396 -5.822,12.451 -3.22,6.145 -6.606,12.205 -10.045,18.23 -2.527,4.428 -5.693,8.365 -9.739,11.542 -3.865,3.035 -9.363,3.271 -13.402,0.907 -4.553,-2.665 -7.128,-7.046 -8.882,-11.803 -1.438,-3.902 -2.345,-8.003 -3.431,-12.031 -0.393,-1.458 -0.127,-1.762 1.358,-2.091 0.23,-0.051 0.461,-0.141 0.666,-0.257 3.676,-2.062 5.431,-6.017 3.04,-10.25 -1.42,-2.515 -4.33,-3.91 -7.204,-3.451 -2.829,0.451 -5.409,2.849 -5.965,5.543 -0.633,3.07 0.565,5.955 3.198,7.651 0.689,0.444 1.201,0.874 0.783,1.832 -1.371,3.14 -2.661,6.313 -4.039,9.449 -2.362,5.374 -5.332,10.335 -9.751,14.322 -3.267,2.947 -6.823,3.328 -10.402,1.557 -3.582,-1.771 -5.905,-4.942 -7.774,-8.367 -2.24,-4.105 -3.69,-8.468 -4.674,-13.093 -1.642,-7.722 -2.496,-15.503 -2.834,-23.352 -0.307,-7.148 -0.347,-14.307 -0.614,-21.457 -0.057,-1.506 0.31,-2.474 1.637,-3.227 2.353,-1.336 4.092,-3.914 2.842,-8.461 -0.631,-2.296 -2.586,-4.429 -5.933,-5.013 -5.313,-0.926 -10.218,4.251 -8.297,9.827 0.732,2.125 2.262,3.502 4.151,4.544 0.667,0.368 1.19,0.724 1.164,1.611 -0.086,2.91 -0.121,5.821 -0.181,8.731 -0.171,8.346 -0.297,16.694 -0.542,25.038 -0.091,3.098 -0.234,6.228 -0.765,9.271 -0.926,5.31 -2.347,10.48 -5.15,15.205 -2.045,3.448 -4.291,6.632 -7.883,8.612 -2.487,1.371 -5.049,1.572 -7.697,0.399 -2.463,-1.09 -4.183,-3.051 -5.868,-5.011 -3.334,-3.88 -5.521,-8.461 -7.615,-13.07 -1.063,-2.339 -1.797,-4.83 -2.914,-7.139 -0.504,-1.042 -0.286,-1.522 0.498,-2.066 2.618,-1.815 3.828,-4.179 3.292,-7.461 -0.557,-3.402 -4.107,-6.311 -7.548,-5.933 -3.632,0.399 -5.924,2.671 -6.567,6.459 -0.621,3.66 2.07,6.604 4.895,7.553 1.101,0.37 1.424,0.826 1.148,1.888 -0.828,3.191 -1.495,6.43 -2.472,9.574 -1.53,4.919 -3.78,9.422 -7.758,12.947 -2.814,2.494 -6.012,3.285 -9.613,2.992 -3.095,-0.252 -5.42,-1.997 -7.551,-4.033 -4.23,-4.04 -7.219,-9.012 -10.057,-14.032 -2.931,-5.184 -5.561,-10.542 -8.244,-15.862 -1.651,-3.275 -3.027,-6.696 -4.787,-9.908 -0.814,-1.487 -0.428,-2.421 0.43,-3.522 1.802,-2.312 1.789,-4.839 0.562,-7.332 -1.402,-2.846 -3.844,-4.395 -7.001,-4.296 -3.115,0.097 -5.497,1.761 -6.724,4.622 -1.159,2.702 -0.753,5.355 1.142,7.701 1.412,1.747 3.348,2.479 5.475,2.796 0.762,0.114 1.362,0.273 1.651,1.104 1.524,4.382 3.069,8.757 4.626,13.126 1.291,3.62 2.637,7.221 3.908,10.848 0.998,2.846 1.875,5.735 2.887,8.576 0.997,2.8 2.144,5.547 3.138,8.349 1.608,4.529 3.147,9.083 4.714,13.626 1.731,5.024 3.497,10.038 5.18,15.078 1.407,4.213 2.743,8.451 4.04,12.699 0.172,0.564 0.062,1.302 -0.147,1.877 -0.502,1.386 -1.176,2.708 -1.718,4.082 -2.39,6.057 -3.779,12.346 -4.324,18.83 -0.393,4.662 -0.951,9.314 -1.174,13.984 -0.223,4.67 -0.141,9.355 -0.159,14.034 -0.092,24.717 -0.166,49.434 -0.264,74.151 -0.019,4.73 -0.053,4.742 -4.627,6.18 -6.627,2.083 -13.258,4.154 -19.894,6.21 -1.301,0.403 -2.101,1.249 -2.412,2.536 -0.456,1.884 -0.289,3.691 0.652,5.439 0.687,1.276 1.229,2.63 1.865,4.012 -0.362,0.104 -0.547,0.179 -0.739,0.21 -7.182,1.138 -14.362,2.286 -21.548,3.398 -3.008,0.466 -4.515,3.13 -3.44,6.01 1.313,3.521 2.545,7.072 3.767,10.626 0.216,0.629 0.211,1.332 0.309,2.001 -0.642,-0.124 -1.284,-0.247 -1.926,-0.369 -0.078,-0.016 -0.16,-0.014 -0.238,-0.03 -3.656,-0.807 -7.326,-1.551 -10.962,-2.435 -5.662,-1.376 -11.287,-2.865 -16.759,-4.926 -4.261,-1.604 -8.764,-2.205 -13.302,-2.047 -2.855,0.1 -5.767,0.328 -8.53,1.004 -6.613,1.617 -11.79,5.646 -16.104,10.729 -2.814,3.311 -5.251,6.937 -7.855,10.421 z"
             style="clip-rule:evenodd;fill:none;fill-rule:evenodd" />
          <path
             inkscape:connector-curvature="0"
             id="path2532"
             d="m 0,309.826 c 2.604,-3.484 5.041,-7.11 7.85,-10.421 4.313,-5.082 9.491,-9.111 16.104,-10.729 2.763,-0.676 5.675,-0.904 8.53,-1.004 4.539,-0.158 9.041,0.442 13.302,2.047 5.472,2.061 11.097,3.55 16.759,4.926 3.637,0.884 7.307,1.628 10.962,2.435 0.078,0.017 0.16,0.015 0.238,0.03 0.642,0.122 1.284,0.245 1.926,0.369 -0.098,-0.669 -0.093,-1.372 -0.309,-2.001 -1.222,-3.554 -2.453,-7.105 -3.767,-10.626 -1.075,-2.88 0.432,-5.544 3.44,-6.01 7.186,-1.112 14.366,-2.261 21.548,-3.398 0.192,-0.031 0.377,-0.105 0.739,-0.21 -0.635,-1.382 -1.178,-2.735 -1.865,-4.012 -0.94,-1.748 -1.107,-3.556 -0.652,-5.439 0.311,-1.287 1.111,-2.133 2.412,-2.536 6.635,-2.056 13.267,-4.127 19.894,-6.21 4.575,-1.438 4.609,-1.449 4.627,-6.18 0.098,-24.717 0.172,-49.434 0.264,-74.151 0.018,-4.679 -0.064,-9.364 0.159,-14.034 0.223,-4.669 0.782,-9.322 1.174,-13.984 0.545,-6.483 1.935,-12.772 4.324,-18.83 0.542,-1.373 1.215,-2.696 1.718,-4.082 0.208,-0.575 0.319,-1.313 0.147,-1.877 -1.297,-4.248 -2.632,-8.485 -4.04,-12.699 -1.683,-5.04 -3.449,-10.054 -5.18,-15.078 -1.566,-4.544 -3.105,-9.098 -4.714,-13.626 -0.995,-2.801 -2.141,-5.548 -3.138,-8.349 -1.012,-2.841 -1.889,-5.73 -2.887,-8.576 -1.271,-3.627 -2.617,-7.228 -3.908,-10.848 -1.558,-4.37 -3.103,-8.744 -4.626,-13.126 -0.289,-0.832 -0.889,-0.991 -1.651,-1.104 -2.127,-0.317 -4.063,-1.049 -5.475,-2.796 -1.895,-2.345 -2.3,-4.999 -1.142,-7.701 1.227,-2.861 3.609,-4.524 6.724,-4.622 3.157,-0.098 5.599,1.45 7.001,4.296 1.228,2.493 1.24,5.021 -0.562,7.332 -0.858,1.101 -1.245,2.035 -0.43,3.522 1.76,3.212 3.136,6.633 4.787,9.908 2.684,5.321 5.313,10.678 8.244,15.862 2.838,5.02 5.827,9.992 10.057,14.032 2.131,2.036 4.457,3.781 7.551,4.033 3.602,0.293 6.799,-0.499 9.613,-2.992 3.979,-3.525 6.229,-8.028 7.758,-12.947 0.978,-3.144 1.645,-6.383 2.472,-9.574 0.276,-1.062 -0.048,-1.518 -1.148,-1.888 -2.825,-0.949 -5.516,-3.893 -4.895,-7.553 0.643,-3.788 2.935,-6.06 6.567,-6.459 3.441,-0.378 6.992,2.53 7.548,5.933 0.537,3.282 -0.674,5.646 -3.292,7.461 -0.784,0.544 -1.002,1.024 -0.498,2.066 1.117,2.309 1.852,4.8 2.914,7.139 2.094,4.609 4.281,9.19 7.615,13.07 1.685,1.96 3.405,3.92 5.868,5.011 2.648,1.173 5.21,0.972 7.697,-0.399 3.592,-1.98 5.837,-5.164 7.883,-8.612 2.803,-4.725 4.225,-9.895 5.15,-15.205 0.531,-3.043 0.674,-6.174 0.765,-9.271 0.246,-8.344 0.371,-16.692 0.542,-25.038 0.06,-2.911 0.094,-5.822 0.181,-8.731 0.026,-0.887 -0.497,-1.243 -1.164,-1.611 -1.889,-1.042 -3.419,-2.42 -4.151,-4.544 -1.921,-5.576 2.984,-10.753 8.297,-9.827 3.347,0.583 5.302,2.717 5.933,5.013 1.25,4.547 -0.489,7.125 -2.842,8.461 -1.327,0.753 -1.693,1.721 -1.637,3.227 0.268,7.15 0.308,14.309 0.614,21.457 0.338,7.849 1.192,15.63 2.834,23.352 0.983,4.625 2.434,8.988 4.674,13.093 1.869,3.425 4.192,6.596 7.774,8.367 3.579,1.771 7.136,1.39 10.402,-1.557 4.419,-3.987 7.389,-8.948 9.751,-14.322 1.378,-3.136 2.668,-6.31 4.039,-9.449 0.418,-0.958 -0.094,-1.388 -0.783,-1.832 -2.633,-1.696 -3.831,-4.581 -3.198,-7.651 0.556,-2.694 3.136,-5.092 5.965,-5.543 2.874,-0.459 5.784,0.936 7.204,3.451 2.391,4.233 0.636,8.188 -3.04,10.25 -0.205,0.116 -0.436,0.206 -0.666,0.257 -1.485,0.329 -1.751,0.634 -1.358,2.091 1.086,4.028 1.992,8.129 3.431,12.031 1.754,4.757 4.329,9.138 8.882,11.803 4.039,2.363 9.537,2.128 13.402,-0.907 4.046,-3.177 7.212,-7.114 9.739,-11.542 3.438,-6.025 6.825,-12.085 10.045,-18.23 2.125,-4.055 3.934,-8.276 5.822,-12.451 0.153,-0.338 -0.019,-1.043 -0.296,-1.32 -3.08,-3.063 -3.042,-6.945 -0.604,-10.166 2.734,-3.614 8.377,-3.719 11.338,-0.376 1.271,1.433 1.994,3.067 2.054,4.836 0.059,1.724 -0.568,3.386 -1.672,4.854 -1.414,1.881 -3.368,2.629 -5.544,2.884 -0.965,0.113 -1.414,0.51 -1.709,1.355 -2.09,5.977 -4.182,11.953 -6.31,17.916 -1.563,4.38 -3.212,8.73 -4.769,13.112 -1.583,4.458 -3.078,8.947 -4.651,13.408 -1.509,4.281 -3.118,8.527 -4.591,12.82 -1.389,4.051 -2.596,8.164 -3.994,12.21 -1.279,3.701 -2.724,7.344 -4.049,11.029 -0.141,0.391 -0.114,0.963 0.072,1.331 2.333,4.62 4.075,9.472 4.935,14.55 0.827,4.885 1.322,9.838 1.699,14.781 0.301,3.938 0.272,7.907 0.271,11.863 -0.008,24.878 -0.056,49.756 -0.075,74.634 -0.004,4.635 0.071,9.269 0.076,13.902 0.001,0.943 0.371,1.639 1.173,2.02 1.258,0.597 2.532,1.193 3.855,1.614 6.239,1.987 12.497,3.913 18.747,5.864 3.552,1.108 4.857,4.085 3.298,7.544 -0.705,1.562 -1.444,3.108 -2.257,4.854 1.426,0.241 2.735,0.477 4.05,0.684 6.275,0.988 12.553,1.963 18.827,2.956 2.405,0.381 3.853,3.229 2.973,5.675 -1.432,3.979 -2.81,7.979 -4.219,11.967 -0.294,0.833 -0.011,1.173 0.828,0.977 4.447,-1.046 8.867,-2.223 13.34,-3.143 6.659,-1.369 12.905,-4.148 19.492,-5.671 12.021,-2.778 22.976,-0.896 32.001,8.271 3.836,3.896 7.074,8.234 10.046,12.946 -1.129,0.563 -2.188,1.087 -3.243,1.616 -9.214,4.612 -18.435,9.211 -27.638,13.843 -10.994,5.532 -20.825,12.604 -29.926,20.969 -17.539,16.12 -36.976,29.616 -58.575,39.854 -17.229,8.166 -35.246,13.773 -54.136,16.391 -6.484,0.898 -13.048,1.218 -19.575,1.807 -0.592,0.054 -1.181,0.138 -1.771,0.208 h -13.44 c -0.549,-0.068 -1.098,-0.18 -1.649,-0.199 -8.159,-0.283 -16.262,-1.131 -24.307,-2.497 -18.108,-3.074 -35.378,-8.757 -51.867,-16.831 C 96.371,374.973 77.779,361.775 60.743,346.378 53.483,339.815 46.154,333.439 37.376,328.959 25.644,322.972 13.905,316.997 2.165,311.025 1.461,310.668 0.719,310.383 -0.005,310.065 0,309.986 0,309.905 0,309.826 Z"
             style="clip-rule:evenodd;fill-rule:evenodd"
             sodipodi:nodetypes="cccccccccccccccccccccccccccccccccccccccccccccccccccccccccccccccccccccccccccccccccccccccccccccccccccccccccccccccccccccccccccccccccccccccc" />
          <path
             inkscape:connector-curvature="0"
             id="path2534"
             d="m 0,310.065 c 0.724,0.318 1.466,0.603 2.17,0.96 11.74,5.972 23.479,11.946 35.211,17.934 8.778,4.479 16.107,10.856 23.367,17.419 17.035,15.396 35.628,28.595 56.309,38.721 16.488,8.074 33.758,13.757 51.867,16.831 8.044,1.366 16.148,2.214 24.307,2.497 0.551,0.02 1.1,0.131 1.649,0.199 -64.96,0 -129.92,0 -194.879,0 C 0,373.105 0,341.586 0,310.065 Z"
             style="clip-rule:evenodd;fill:none;fill-rule:evenodd" />
          <path
             inkscape:connector-curvature="0"
             id="path2536"
             d="m 12.397,307.728 c 3.546,-5.573 7.518,-9.987 13.253,-12.582 2.846,-1.287 5.785,-1.304 8.656,-0.557 5.666,1.476 11.258,3.229 16.894,4.821 4.322,1.221 8.626,2.544 13.008,3.502 4.515,0.987 9.118,1.562 13.673,2.371 2.764,0.491 5.454,0.169 8.159,-0.42 1.14,-0.248 1.496,-0.945 1.278,-1.892 -0.6,-2.607 -1.282,-5.197 -1.988,-7.778 -0.478,-1.747 -1.11,-3.452 -1.561,-5.205 -0.232,-0.904 -0.219,-1.872 -0.324,-2.892 2.575,-0.44 4.988,-0.832 7.392,-1.271 3.14,-0.573 6.271,-1.192 9.409,-1.774 2.056,-0.382 4.116,-0.738 6.176,-1.098 2.34,-0.409 2.894,-1.36 1.923,-3.582 -0.838,-1.917 -1.792,-3.785 -2.717,-5.663 -1.112,-2.258 -0.244,-4.047 1.707,-4.881 5.296,-2.265 10.566,-4.691 16.284,-5.788 6.704,-1.287 12.859,0.33 18.603,3.753 7.674,4.573 15.628,8.533 24.085,11.454 13.63,4.706 27.631,6.633 42.017,5.576 15.992,-1.175 31.038,-5.779 45.399,-12.767 3.806,-1.852 7.604,-3.735 11.296,-5.804 5.522,-3.095 11.276,-3.311 17.166,-1.59 3.132,0.915 6.155,2.203 9.223,3.336 1.372,0.507 2.748,1.006 4.093,1.579 2.247,0.957 3.035,2.94 2.04,5.162 -0.759,1.694 -1.623,3.342 -2.405,5.027 -1.267,2.733 -0.966,3.784 2.035,4.285 6.614,1.102 13.209,2.328 19.81,3.51 0.856,0.153 1.707,0.341 2.588,0.518 0.497,2.36 -0.594,4.438 -1.154,6.596 -0.78,3.007 -1.665,5.986 -2.457,8.989 -0.359,1.363 0.019,1.869 1.367,2.216 3.135,0.808 6.268,0.806 9.446,0.203 4.622,-0.876 9.286,-1.542 13.893,-2.495 2.847,-0.589 5.618,-1.543 8.423,-2.337 7.037,-1.993 14.045,-4.099 21.129,-5.909 1.942,-0.496 4.113,-0.42 6.146,0.344 6.387,2.396 10.656,7.112 14.335,12.865 -1.591,1.019 -2.978,2.278 -4.607,2.893 -19.48,7.335 -36.949,18.175 -53.55,30.542 -3.847,2.866 -7.684,5.753 -11.419,8.762 -6.744,5.433 -14.385,9.36 -22.003,13.336 -16.085,8.394 -32.74,15.363 -50.309,20.036 -13.571,3.61 -27.361,5.705 -41.407,6.17 -29.687,0.982 -57.829,-5.545 -84.875,-17.385 -11.682,-5.114 -23.183,-10.645 -33.912,-17.558 -5.664,-3.649 -10.84,-8.055 -16.244,-12.107 -14.423,-10.815 -29.448,-20.646 -46,-27.955 -2.519,-1.113 -5.121,-2.042 -7.618,-3.201 -2.116,-0.979 -4.132,-2.17 -6.356,-3.355 z m 189.156,52.013 c 9.14,-0.051 17.515,-0.661 25.838,-1.789 7.803,-1.057 15.388,-3.037 22.727,-5.951 6.017,-2.388 12.229,-4.332 18.092,-7.043 8.121,-3.754 15.791,-8.38 22.89,-13.88 3.325,-2.576 6.813,-4.982 9.875,-7.843 3.044,-2.844 5.649,-6.158 8.43,-9.282 0.104,-0.117 0.081,-0.417 0.013,-0.591 -0.029,-0.072 -0.361,-0.102 -0.503,-0.036 -0.249,0.116 -0.458,0.317 -0.682,0.486 -9.234,6.934 -19.116,12.799 -29.522,17.784 -23.232,11.132 -47.708,17.279 -73.475,17.988 -12.597,0.347 -25.06,-1.119 -37.38,-3.737 -26.087,-5.543 -49.915,-16.144 -71.387,-31.992 -0.225,-0.166 -0.43,-0.38 -0.681,-0.484 -0.175,-0.073 -0.411,0.004 -0.621,0.014 0.031,0.205 -0.01,0.469 0.103,0.604 1.702,2.052 3.356,4.15 5.156,6.114 3.621,3.948 8.069,6.938 12.196,10.299 5.362,4.367 11.324,7.824 17.289,11.256 6.912,3.977 14.369,6.727 21.878,9.333 3.732,1.296 7.421,2.745 11.21,3.847 3.763,1.094 7.589,2.073 11.454,2.688 9.208,1.463 18.503,2.093 27.1,2.215 z m 81.635,-69.964 c -0.218,0 -0.32,-0.032 -0.366,0.006 -0.246,0.2 -0.489,0.407 -0.715,0.631 -9.132,9.031 -19.376,16.545 -30.674,22.653 -7.368,3.982 -15.173,6.918 -23.071,9.567 -4.137,1.388 -8.469,2.293 -12.779,3.031 -4.576,0.784 -9.221,1.39 -13.854,1.555 -4.203,0.15 -8.452,-0.205 -12.641,-0.681 -6.6,-0.75 -13.037,-2.368 -19.104,-5.093 -4.904,-2.202 -9.65,-4.759 -14.448,-7.193 -12.293,-6.239 -23.312,-14.244 -33.105,-23.942 -0.234,-0.232 -0.51,-0.425 -0.815,-0.676 -0.105,0.257 -0.195,0.369 -0.183,0.471 0.017,0.149 0.083,0.305 0.166,0.434 2.566,3.988 4.895,8.13 8.411,11.447 3.679,3.473 7.036,7.301 10.835,10.63 4.614,4.044 9.428,7.894 14.979,10.658 3.496,1.741 6.938,3.604 10.51,5.171 3.736,1.638 7.547,3.143 11.418,4.426 5.742,1.903 11.726,2.575 17.74,3.039 8.628,0.665 17.17,0.102 25.638,-1.623 4.755,-0.969 9.488,-2.054 13.908,-4.14 3.354,-1.582 6.646,-3.293 9.993,-4.887 8.744,-4.164 16.347,-9.932 23.192,-16.7 3.539,-3.5 6.932,-7.169 10.149,-10.966 1.816,-2.145 3.148,-4.7 4.68,-7.082 0.12,-0.187 0.091,-0.47 0.136,-0.736 z"
             style="clip-rule:evenodd;fill:none;fill-rule:evenodd" />
          <path
             inkscape:connector-curvature="0"
             id="path2538"
             d="m 130.801,147.389 c 47.349,12.808 94.548,12.42 141.985,0.621 0.173,1.718 0.5,3.682 0.544,5.653 0.149,6.714 0.246,13.431 0.277,20.147 0.099,20.479 0.148,40.958 0.238,61.437 0.014,3.174 -0.169,6.312 -1.077,9.373 -1.702,5.741 -5.541,9.725 -10.578,12.649 -6.3,3.656 -12.911,6.674 -19.726,9.238 -14.14,5.322 -28.733,8.09 -43.877,7.677 -17.343,-0.473 -33.679,-4.972 -49.218,-12.502 -4.09,-1.981 -8.127,-4.136 -11.958,-6.573 -5.544,-3.528 -8.085,-8.745 -8.065,-15.391 0.076,-25.12 0.025,-50.24 0.041,-75.359 0.001,-2.115 0.046,-4.238 0.236,-6.342 0.321,-3.538 0.776,-7.065 1.178,-10.628 z m 95.554,105.521 c -2.082,-2.502 -3.951,-4.844 -5.92,-7.098 -4.868,-5.571 -6.468,-12.038 -5.132,-19.206 1.402,-7.523 5.165,-13.307 12.341,-16.745 10.297,-4.935 20.478,-10.115 30.685,-15.238 4.625,-2.321 7.266,-5.884 7.148,-11.326 -0.141,-6.514 -0.037,-13.033 -0.045,-19.549 -0.001,-0.179 -0.079,-0.358 -0.128,-0.569 -4,0.406 -7.936,0.805 -11.87,1.203 -7.556,0.765 -15.111,1.525 -22.665,2.297 -7.341,0.749 -14.664,1.795 -22.022,2.182 -7.043,0.37 -14.121,0.191 -21.165,-0.61 -6.511,-0.741 -13.043,-1.309 -19.564,-1.959 -7.676,-0.765 -15.351,-1.539 -23.027,-2.302 -2.415,-0.24 -4.832,-0.457 -7.302,-0.689 -0.043,0.313 -0.089,0.503 -0.092,0.693 -0.076,6.673 -0.167,13.347 -0.212,20.021 -0.024,3.59 1.144,6.72 4.095,8.908 1.495,1.109 3.159,2.025 4.835,2.847 11.509,5.639 23.046,11.221 34.565,16.841 3.435,1.677 5.658,4.403 6.073,8.213 0.375,3.441 0.593,6.943 0.412,10.395 -0.432,8.203 -3.739,15.113 -10.027,20.51 -0.32,0.274 -0.626,0.565 -1.113,1.007 7.513,4.912 14.856,9.812 22.32,14.521 1.814,1.145 4.124,1.082 5.978,-0.103 7.27,-4.647 14.46,-9.42 21.832,-14.244 z"
             style="clip-rule:evenodd;fill:none;fill-rule:evenodd" />
          <path
             inkscape:connector-curvature="0"
             id="path2540"
             d="m 244.094,78.302 c 2.52,4.276 5.213,8.205 9.189,11.167 3.158,2.353 6.74,3.335 10.504,3.88 3.716,0.538 7.247,-0.346 10.698,-1.648 0.142,-0.053 0.295,-0.071 0.687,-0.163 -0.561,1.594 -1.094,3.028 -1.572,4.481 -1.178,3.578 -2.265,7.188 -3.511,10.743 -1.887,5.378 -3.885,10.717 -5.816,16.08 -0.351,0.971 -0.703,1.958 -0.887,2.969 -0.18,0.99 -0.779,1.229 -1.627,1.377 -5.748,1.005 -11.481,2.105 -17.241,3.036 -3.446,0.557 -6.931,0.89 -10.402,1.275 -3.789,0.421 -7.582,0.803 -11.377,1.166 -1.426,0.137 -2.86,0.194 -4.292,0.252 -2.51,0.103 -5.02,0.22 -7.531,0.258 -6.189,0.096 -12.381,0.259 -18.57,0.185 -4.575,-0.055 -9.151,-0.37 -13.718,-0.702 -4.04,-0.293 -8.078,-0.673 -12.094,-1.191 -5.233,-0.675 -10.45,-1.492 -15.663,-2.313 -2.902,-0.457 -5.767,-1.195 -8.681,-1.515 -1.468,-0.161 -2.007,-0.858 -2.397,-2.044 -1.779,-5.412 -3.55,-10.827 -5.372,-16.225 -1.953,-5.785 -3.962,-11.55 -5.94,-17.326 -0.048,-0.138 -0.029,-0.299 -0.041,-0.438 1.594,0.432 3.155,0.811 4.688,1.281 3.234,0.99 6.426,0.614 9.658,-0.062 5.417,-1.134 9.385,-4.354 12.655,-8.589 1.429,-1.851 2.7,-3.823 4.076,-5.786 1.09,1.604 2.127,3.436 3.457,5.021 2.64,3.15 5.395,6.233 9.207,8.049 3.901,1.859 7.932,2.369 12.196,1.308 4.92,-1.225 8.715,-4.101 11.777,-7.933 2.1,-2.628 3.81,-5.568 5.752,-8.454 0.664,1.232 1.338,2.591 2.109,3.893 2.75,4.646 6.2,8.705 11.095,11.104 4.295,2.105 8.887,2.585 13.609,1.162 2.836,-0.855 5.147,-2.479 7.294,-4.392 3.09,-2.755 5.663,-5.951 7.762,-9.523 0.075,-0.13 0.193,-0.234 0.319,-0.383 z m -35.038,32.277 c -0.063,-2.983 -0.669,-5.801 -2.488,-8.235 -2.759,-3.691 -6.971,-3.665 -9.729,0.037 -3.249,4.358 -3.25,11.878 -0.005,16.246 2.784,3.746 7.033,3.734 9.8,-0.046 1.741,-2.381 2.337,-5.12 2.422,-8.002 z m -36.012,3.254 c -0.047,-2.029 -0.467,-3.956 -1.71,-5.62 -1.879,-2.515 -4.726,-2.532 -6.631,-0.058 -2.331,3.028 -2.314,8.458 0.034,11.461 1.89,2.417 4.691,2.408 6.556,-0.043 1.285,-1.688 1.713,-3.654 1.751,-5.74 z m 66.96,-0.001 c -0.047,-2.028 -0.468,-3.956 -1.711,-5.619 -1.88,-2.515 -4.728,-2.53 -6.631,-0.055 -2.331,3.028 -2.313,8.458 0.035,11.461 1.891,2.416 4.691,2.407 6.557,-0.045 1.284,-1.69 1.713,-3.656 1.75,-5.742 z"
             style="clip-rule:evenodd;fill:none;fill-rule:evenodd" />
          <path
             inkscape:connector-curvature="0"
             id="path2542"
             d="m 270.141,134.503 c 0.23,0.825 0.353,1.631 0.68,2.344 0.555,1.209 -0.188,1.636 -1.078,1.829 -5.803,1.259 -11.587,2.631 -17.434,3.647 -6.443,1.119 -12.935,1.996 -19.429,2.788 -4.474,0.545 -8.98,0.898 -13.483,1.104 -7.142,0.327 -14.298,0.731 -21.439,0.604 -8.218,-0.146 -16.437,-0.692 -24.636,-1.32 -12.322,-0.943 -24.464,-3.129 -36.519,-5.809 -1.115,-0.248 -2.198,-0.64 -3.22,-0.943 -0.049,-0.246 -0.095,-0.33 -0.075,-0.394 1.006,-3.218 1.009,-3.229 4.293,-2.505 10.429,2.301 20.962,3.99 31.578,5.079 6.315,0.647 12.664,1.089 19.008,1.3 7.39,0.245 14.795,0.326 22.186,0.137 10.546,-0.271 21.071,-1.076 31.497,-2.746 8.711,-1.396 17.383,-3.045 26.069,-4.594 0.625,-0.111 1.231,-0.317 2.002,-0.521 z"
             style="clip-rule:evenodd;fill:none;fill-rule:evenodd" />
          <path
             inkscape:connector-curvature="0"
             id="path2556"
             d="m 214.136,250.643 c -2.615,2.362 -4.967,4.717 -7.56,6.77 -3.284,2.6 -5.875,2.686 -9.341,0.319 -2.467,-1.685 -4.717,-3.689 -7.013,-5.613 -0.24,-0.201 -0.282,-0.873 -0.156,-1.235 0.786,-2.262 1.626,-4.506 2.487,-6.741 1.19,-3.092 1.825,-6.284 1.835,-9.599 0.014,-4.754 0.158,-9.513 -0.002,-14.262 -0.168,-5.003 -2.423,-9.058 -6.71,-11.668 -4.155,-2.529 -8.47,-4.808 -12.788,-7.054 -5.844,-3.041 -11.749,-5.966 -17.649,-8.896 -1.211,-0.601 -2.524,-0.995 -3.781,-1.507 -6.875,-2.8 -9.583,-7.584 -8.413,-14.918 0.25,-1.569 0.618,-3.12 0.958,-4.811 2.596,0.252 5.087,0.486 7.577,0.737 7.596,0.765 15.193,1.518 22.786,2.313 5.641,0.591 11.265,1.4 16.917,1.815 4.12,0.303 8.292,0.375 12.41,0.099 6.685,-0.447 13.345,-1.277 20.017,-1.921 7.162,-0.691 14.324,-1.373 21.49,-2.021 2.146,-0.194 4.305,-0.236 6.454,-0.392 1.495,-0.108 2.985,-0.292 4.478,-0.442 0.838,4.207 0.513,8.31 -0.869,12.315 -0.658,1.906 -1.995,3.303 -3.713,4.356 -11.985,7.341 -24.75,13.146 -37.447,19.089 -1.722,0.806 -3.359,1.84 -4.912,2.943 -1.621,1.151 -2.326,2.899 -2.385,4.867 -0.183,6.062 -0.307,12.124 -0.511,18.185 -0.216,6.392 0.776,12.37 5.841,17.272 z m 35.678,-73.262 c -0.25,0 -0.404,-0.018 -0.554,0.002 -10.281,1.41 -20.563,2.813 -30.842,4.246 -2.354,0.328 -4.05,2.224 -4.091,4.57 -0.076,4.392 -0.094,8.785 -0.134,13.178 -0.006,0.619 -0.001,1.238 -0.001,2.039 4.095,-1.618 7.964,-3.101 11.796,-4.673 5.685,-2.333 11.404,-4.631 16.529,-8.077 1.865,-1.253 3.58,-2.814 5.095,-4.479 1.69,-1.855 2.272,-4.231 2.202,-6.806 z m -60.789,24.277 c 0,-3.53 0.05,-6.909 -0.016,-10.285 -0.051,-2.66 -0.619,-5.223 -1.827,-7.623 -0.574,-1.139 -1.368,-1.876 -2.723,-2.039 -2.217,-0.267 -4.413,-0.711 -6.629,-0.999 -7.403,-0.961 -14.811,-1.883 -22.216,-2.828 -2.891,-0.369 -2.844,-0.36 -4.028,2.358 -0.381,0.875 -0.292,1.388 0.392,2.054 3.352,3.266 7.121,5.969 11.335,7.939 5.634,2.633 11.39,5.004 17.083,7.512 2.798,1.234 5.573,2.524 8.629,3.911 z"
             style="clip-rule:evenodd;fill:none;fill-rule:evenodd" />
        </g>
      </g>
    </g>
    <g
       id="Ebene_1-6" />
  </g>
  <g
     id="g2274"
     transform="matrix(0.26458333,0,0,0.26458333,24.81107,18.781352)"
     style="fill:#ff0000;fill-opacity:1">
    <g
       id="Ebene_1"
       style="fill:#ff0000;fill-opacity:1" />
  </g>
</svg>
