<?xml version="1.0" encoding="UTF-8" standalone="no"?>
<svg
   xmlns:dc="http://purl.org/dc/elements/1.1/"
   xmlns:cc="http://creativecommons.org/ns#"
   xmlns:rdf="http://www.w3.org/1999/02/22-rdf-syntax-ns#"
   xmlns:svg="http://www.w3.org/2000/svg"
   xmlns="http://www.w3.org/2000/svg"
   xmlns:sodipodi="http://sodipodi.sourceforge.net/DTD/sodipodi-0.dtd"
   xmlns:inkscape="http://www.inkscape.org/namespaces/inkscape"
   id="svg8"
   version="1.1"
   viewBox="0 0 116.73953 117.0573"
   height="117.0573mm"
   width="116.73953mm"
   sodipodi:docname="Helmet3.svg"
   inkscape:version="0.92.3 (2405546, 2018-03-11)">
  <sodipodi:namedview
     pagecolor="#ffffff"
     bordercolor="#666666"
     borderopacity="1"
     objecttolerance="10"
     gridtolerance="10"
     guidetolerance="10"
     inkscape:pageopacity="0"
     inkscape:pageshadow="2"
     inkscape:window-width="1920"
     inkscape:window-height="1017"
     id="namedview83"
     showgrid="false"
     inkscape:zoom="0.53342823"
     inkscape:cx="-12.785831"
     inkscape:cy="221.21064"
     inkscape:window-x="1912"
     inkscape:window-y="-8"
     inkscape:window-maximized="1"
     inkscape:current-layer="svg8" />
  <defs
     id="defs2" />
  <metadata
     id="metadata5">
    <rdf:RDF>
      <cc:Work
         rdf:about="">
        <dc:format>image/svg+xml</dc:format>
        <dc:type
           rdf:resource="http://purl.org/dc/dcmitype/StillImage" />
        <dc:title />
      </cc:Work>
    </rdf:RDF>
  </metadata>
  <g
     id="g2482"
     transform="matrix(0.26458333,0,0,0.26458333,5.00026,21.87857)">
    <g
       id="Helmet2_x2B_">
      <g
         id="g2450">
        <g
           id="g2448">
          <path
             inkscape:connector-curvature="0"
             id="path2416"
             d="m 203.76,0 c 66.549,0 133.099,0 199.664,0 0,113.65 0,227.301 0,341.04 -65.344,0 -130.704,0 -196.064,0 0.673,-0.07 1.344,-0.183 2.018,-0.203 8.323,-0.261 16.59,-1.112 24.796,-2.501 18.839,-3.188 36.756,-9.196 53.821,-17.767 21.168,-10.632 40.101,-24.466 57.44,-40.501 6.215,-5.748 12.885,-10.757 20.353,-14.689 8.586,-4.521 17.224,-8.946 25.863,-13.364 3.765,-1.926 7.591,-3.731 11.412,-5.604 -0.077,-0.221 -0.103,-0.383 -0.184,-0.51 -3.054,-4.757 -6.375,-9.303 -10.517,-13.189 -5.687,-5.338 -12.278,-8.564 -20.22,-8.635 -5.387,-0.048 -10.637,0.549 -15.756,2.438 -3.727,1.375 -7.586,2.418 -11.437,3.419 -5.488,1.426 -11.022,2.677 -16.536,4.007 -0.949,0.229 -1.24,-0.047 -0.897,-1.052 1.357,-3.968 2.734,-7.929 4.153,-11.875 0.882,-2.453 -0.538,-5.271 -2.973,-5.66 -6.271,-1.002 -12.547,-1.972 -18.82,-2.96 -1.317,-0.207 -2.63,-0.44 -4.047,-0.679 0.248,-0.552 0.418,-0.91 0.57,-1.275 0.721,-1.725 1.75,-3.393 2.079,-5.189 0.489,-2.669 -0.172,-4.991 -3.328,-5.875 -6.416,-1.795 -12.746,-3.9 -19.097,-5.924 -1.286,-0.409 -2.527,-0.978 -3.756,-1.546 -0.899,-0.417 -1.315,-1.164 -1.286,-2.202 0.046,-1.596 0.005,-3.193 0.003,-4.79 -0.011,-9.919 -0.022,-19.837 -0.028,-29.756 0,-0.184 0.068,-0.368 0.046,-0.255 2.375,-0.463 4.594,-0.792 6.752,-1.354 1.414,-0.368 2.529,-1.398 2.647,-2.913 0.074,-0.95 -0.203,-2.072 -0.697,-2.892 -1.272,-2.112 -2.753,-4.098 -4.119,-6.089 1.002,0.435 2.106,0.911 3.209,1.392 3.716,1.62 7.598,2.765 11.639,2.795 4.04,0.031 8.091,-0.336 12.125,-0.674 4.068,-0.341 8.009,-1.373 11.738,-3.011 1.823,-0.8 3.611,-1.859 5.117,-3.149 1.453,-1.246 1.272,-2.08 -0.077,-3.411 -0.624,-0.617 -1.243,-1.258 -1.951,-1.768 -5.272,-3.806 -11.154,-6.401 -17.259,-8.517 -2.911,-1.009 -5.876,-1.861 -9.033,-2.852 0.608,-0.139 0.988,-0.262 1.377,-0.307 2.198,-0.253 4.432,-0.324 6.592,-0.759 5.94,-1.197 11.573,-3.25 16.738,-6.484 5.802,-3.633 10.882,-8.095 15.4,-13.229 3.024,-3.436 5.84,-7.003 7.607,-11.271 0.705,-1.704 1.387,-3.436 1.856,-5.214 0.384,-1.45 -0.791,-2.783 -2.288,-2.636 -3.138,0.309 -6.308,0.546 -9.375,1.22 -3.251,0.715 -6.385,1.944 -9.591,2.874 -7.205,2.088 -14.422,4.137 -21.638,6.188 -1.7,0.483 -3.409,0.946 -5.131,1.344 -1.72,0.398 -3.461,0.704 -5.192,1.05 -0.064,-0.097 -0.128,-0.194 -0.192,-0.291 0.208,-0.124 0.453,-0.212 0.618,-0.378 4.594,-4.597 8.828,-9.439 10.998,-15.74 1.267,-3.68 2.625,-7.33 3.082,-11.228 0.258,-2.198 0.553,-4.395 0.729,-6.6 0.211,-2.649 0.438,-5.309 0.402,-7.96 -0.016,-1.168 -0.515,-2.403 -1.06,-3.472 -0.743,-1.458 -2.115,-1.523 -3.396,-0.495 -3.59,2.88 -7.231,5.697 -10.833,8.563 -5.014,3.989 -10.019,7.991 -15.011,12.008 -1.352,1.087 -2.645,2.249 -3.907,3.327 -1.014,-3.02 -1.874,-6.016 -3.031,-8.893 -0.988,-2.458 -2.232,-4.827 -3.518,-7.149 -1.634,-2.955 -3.253,-5.943 -5.191,-8.697 -2.218,-3.148 -4.68,-6.141 -7.216,-9.044 -3.403,-3.896 -6.759,-7.874 -10.859,-11.078 -3.482,-2.721 -7.056,-5.334 -10.679,-7.866 -3.2,-2.235 -6.452,-4.416 -9.812,-6.401 C 222.275,10.104 215.867,6.503 209.465,2.892 207.612,1.845 205.665,0.959 203.76,0 Z"
             style="clip-rule:evenodd;fill:none;fill-rule:evenodd" />
          <path
             inkscape:connector-curvature="0"
             id="path2418"
             d="M 0,246.24 C 0,164.16 0,82.08 0,0 c 67.68,0 135.36,0 203.04,0 -0.185,0.135 -0.354,0.304 -0.556,0.399 -5.09,2.397 -10.295,4.58 -15.257,7.217 -15.207,8.081 -29.126,17.943 -40.979,30.541 -7.589,8.067 -13.95,16.98 -18.213,27.264 -1.151,2.776 -1.996,5.678 -3.019,8.631 -1.094,-0.939 -2.154,-1.897 -3.263,-2.794 -5.63,-4.557 -11.263,-9.111 -16.915,-13.642 -3.591,-2.878 -7.232,-5.696 -10.821,-8.578 -1.375,-1.104 -2.98,-0.781 -3.622,0.984 -0.452,1.242 -0.778,2.594 -0.824,3.909 -0.164,4.611 0.483,9.167 1.149,13.72 0.689,4.707 2.196,9.17 4.045,13.511 2.183,5.127 5.855,9.206 9.739,13.096 0.279,0.279 0.666,0.451 1.002,0.673 -0.1,0.089 -0.2,0.179 -0.301,0.269 -1.239,-0.215 -2.504,-0.334 -3.713,-0.662 -7.161,-1.942 -14.32,-3.894 -21.457,-5.92 -5.894,-1.674 -11.719,-3.6 -17.649,-5.125 -2.649,-0.682 -5.476,-0.708 -8.231,-0.931 -1.157,-0.093 -2.066,0.765 -2.153,1.97 -0.052,0.729 0.087,1.517 0.329,2.212 2.255,6.477 6.092,11.96 10.847,16.815 2.174,2.219 4.46,4.344 6.83,6.352 4.667,3.956 9.794,7.168 15.612,9.207 4.744,1.662 9.537,3.029 14.622,3.041 0.375,10e-4 0.75,0.178 0.798,0.19 -5.277,1.972 -10.804,3.864 -16.186,6.105 -4.118,1.715 -8.125,3.754 -11.353,6.983 -1.565,1.567 -1.573,2.291 -0.008,3.894 0.302,0.311 0.632,0.643 1.016,0.818 2.508,1.141 4.968,2.445 7.571,3.31 4.206,1.397 8.588,1.929 13.019,2.262 5.153,0.386 10.225,0.276 15.163,-1.335 2.368,-0.772 4.655,-1.79 7.092,-2.74 -0.259,0.305 -0.472,0.521 -0.646,0.767 -1.283,1.803 -2.659,3.552 -3.789,5.447 -0.481,0.808 -0.732,1.972 -0.583,2.891 0.353,2.167 2.177,2.91 4.051,3.282 1.81,0.358 3.667,0.477 5.566,0.708 0.016,0.257 0.055,0.57 0.052,0.881 -0.076,10.558 -0.143,21.115 -0.241,31.673 -0.044,4.727 -0.07,4.738 -4.646,6.177 -6.624,2.082 -13.251,4.155 -19.885,6.205 -1.26,0.39 -2.069,1.19 -2.389,2.416 -0.477,1.826 -0.368,3.61 0.535,5.335 0.709,1.356 1.304,2.773 1.979,4.226 -0.373,0.115 -0.555,0.196 -0.746,0.227 -7.139,1.133 -14.276,2.275 -21.419,3.382 -3.219,0.499 -4.657,3.047 -3.527,6.104 1.412,3.82 2.711,7.683 4.022,11.539 0.336,0.99 0.037,1.262 -0.92,1.032 -2.266,-0.543 -4.549,-1.018 -6.802,-1.61 -6.659,-1.752 -13.4,-3.265 -19.929,-5.417 -5.26,-1.734 -10.511,-2.858 -16.032,-2.847 -3.384,0.008 -6.693,0.42 -9.893,1.558 -6.428,2.285 -11.394,6.555 -15.6,11.755 -2.301,2.845 -4.349,5.9 -6.512,8.863 z"
             style="clip-rule:evenodd;fill:none;fill-rule:evenodd" />
          <path
             inkscape:connector-curvature="0"
             id="path2420"
             d="m 0,246.24 c 2.163,-2.963 4.211,-6.019 6.515,-8.866 4.207,-5.2 9.172,-9.47 15.6,-11.755 3.2,-1.138 6.508,-1.55 9.893,-1.558 5.521,-0.012 10.772,1.112 16.032,2.847 6.529,2.152 13.27,3.665 19.929,5.417 2.252,0.593 4.536,1.067 6.802,1.61 0.957,0.229 1.257,-0.042 0.92,-1.032 -1.311,-3.856 -2.61,-7.719 -4.022,-11.539 -1.13,-3.057 0.308,-5.604 3.527,-6.104 7.143,-1.106 14.28,-2.249 21.419,-3.382 0.19,-0.03 0.373,-0.111 0.746,-0.227 -0.675,-1.452 -1.27,-2.869 -1.979,-4.226 -0.902,-1.725 -1.012,-3.509 -0.535,-5.335 0.32,-1.226 1.129,-2.026 2.389,-2.416 6.634,-2.05 13.261,-4.123 19.885,-6.205 4.576,-1.438 4.602,-1.45 4.646,-6.177 0.099,-10.558 0.165,-21.115 0.241,-31.673 0.002,-0.312 -0.036,-0.624 -0.052,-0.881 -1.898,-0.231 -3.756,-0.35 -5.566,-0.708 -1.875,-0.372 -3.699,-1.115 -4.051,-3.282 -0.15,-0.919 0.102,-2.083 0.583,-2.891 1.13,-1.895 2.506,-3.644 3.789,-5.447 0.174,-0.245 0.387,-0.462 0.646,-0.767 -2.437,0.95 -4.724,1.968 -7.092,2.74 -4.938,1.612 -10.01,1.722 -15.163,1.335 -4.431,-0.333 -8.813,-0.865 -13.019,-2.262 -2.604,-0.865 -5.063,-2.169 -7.571,-3.31 -0.384,-0.175 -0.713,-0.507 -1.016,-0.818 -1.564,-1.604 -1.557,-2.327 0.008,-3.894 3.228,-3.229 7.235,-5.268 11.353,-6.983 5.381,-2.242 10.908,-4.133 16.186,-6.105 -0.048,-0.012 -0.423,-0.189 -0.798,-0.19 -5.084,-0.012 -9.878,-1.379 -14.622,-3.041 -5.818,-2.039 -10.945,-5.251 -15.612,-9.207 -2.37,-2.008 -4.656,-4.133 -6.83,-6.352 -4.755,-4.855 -8.592,-10.338 -10.847,-16.815 -0.242,-0.696 -0.381,-1.484 -0.329,-2.212 0.086,-1.206 0.996,-2.063 2.153,-1.97 2.755,0.223 5.582,0.249 8.231,0.931 5.93,1.526 11.755,3.452 17.649,5.125 7.137,2.027 14.296,3.978 21.457,5.92 1.208,0.328 2.474,0.447 3.713,0.662 0.101,-0.09 0.201,-0.179 0.301,-0.269 -0.336,-0.222 -0.723,-0.394 -1.002,-0.673 -3.884,-3.891 -7.556,-7.969 -9.739,-13.096 -1.849,-4.341 -3.356,-8.805 -4.045,-13.511 -0.667,-4.553 -1.313,-9.109 -1.149,-13.72 0.046,-1.314 0.372,-2.667 0.824,-3.909 0.642,-1.765 2.247,-2.087 3.622,-0.984 3.589,2.882 7.23,5.699 10.821,8.578 5.652,4.53 11.285,9.084 16.915,13.642 1.109,0.897 2.168,1.855 3.263,2.794 1.023,-2.954 1.868,-5.855 3.019,-8.631 4.264,-10.284 10.625,-19.197 18.213,-27.264 C 158.1,25.559 172.02,15.697 187.227,7.616 192.189,4.979 197.394,2.797 202.484,0.399 202.687,0.304 202.856,0.134 203.04,0 c 0.239,0 0.479,0 0.72,0 1.905,0.959 3.853,1.845 5.708,2.892 6.401,3.611 12.81,7.212 19.137,10.95 3.359,1.985 6.611,4.166 9.812,6.401 3.623,2.532 7.196,5.145 10.679,7.866 4.101,3.204 7.456,7.182 10.859,11.078 2.536,2.903 4.998,5.896 7.216,9.044 1.938,2.753 3.558,5.742 5.191,8.697 1.285,2.323 2.529,4.691 3.518,7.149 1.157,2.877 2.018,5.873 3.031,8.893 1.263,-1.078 2.556,-2.239 3.907,-3.327 4.992,-4.017 9.997,-8.019 15.011,-12.008 3.602,-2.866 7.243,-5.682 10.833,-8.563 1.281,-1.028 2.653,-0.962 3.396,0.495 0.545,1.069 1.044,2.304 1.06,3.472 0.035,2.652 -0.191,5.312 -0.402,7.96 -0.176,2.205 -0.471,4.401 -0.729,6.6 -0.457,3.898 -1.815,7.548 -3.082,11.228 -2.17,6.3 -6.404,11.143 -10.998,15.74 -0.165,0.166 -0.41,0.254 -0.618,0.378 0.064,0.097 0.128,0.194 0.192,0.291 1.731,-0.346 3.473,-0.652 5.192,-1.05 1.722,-0.398 3.431,-0.861 5.131,-1.344 7.216,-2.05 14.433,-4.099 21.638,-6.188 3.206,-0.93 6.34,-2.159 9.591,-2.874 3.067,-0.674 6.237,-0.912 9.375,-1.22 1.497,-0.147 2.672,1.186 2.288,2.636 -0.47,1.778 -1.151,3.51 -1.856,5.214 -1.768,4.268 -4.583,7.834 -7.607,11.271 -4.519,5.134 -9.599,9.596 -15.4,13.229 -5.165,3.234 -10.798,5.288 -16.738,6.484 -2.16,0.436 -4.394,0.506 -6.592,0.759 -0.389,0.045 -0.769,0.168 -1.377,0.307 3.157,0.991 6.122,1.843 9.033,2.852 6.104,2.116 11.986,4.711 17.259,8.517 0.708,0.51 1.327,1.151 1.951,1.768 1.35,1.332 1.53,2.166 0.077,3.411 -1.506,1.29 -3.294,2.349 -5.117,3.149 -3.729,1.638 -7.67,2.67 -11.738,3.011 -4.034,0.338 -8.085,0.705 -12.125,0.674 -4.041,-0.031 -7.923,-1.175 -11.639,-2.795 -1.103,-0.48 -2.207,-0.957 -3.209,-1.392 1.366,1.991 2.847,3.977 4.119,6.089 0.494,0.82 0.771,1.942 0.697,2.892 -0.118,1.515 -1.233,2.545 -2.647,2.913 -2.158,0.562 -4.377,0.89 -6.752,1.354 0.022,-0.112 -0.046,0.072 -0.046,0.255 0.006,9.919 0.018,19.837 0.028,29.756 0.002,1.597 0.043,3.194 -0.003,4.79 -0.029,1.038 0.387,1.785 1.286,2.202 1.229,0.568 2.47,1.137 3.756,1.546 6.351,2.023 12.681,4.129 19.097,5.924 3.156,0.884 3.817,3.206 3.328,5.875 -0.329,1.797 -1.358,3.465 -2.079,5.189 -0.152,0.365 -0.322,0.724 -0.57,1.275 1.417,0.238 2.729,0.472 4.047,0.679 6.273,0.988 12.55,1.958 18.82,2.96 2.435,0.39 3.854,3.207 2.973,5.66 -1.419,3.946 -2.796,7.907 -4.153,11.875 -0.343,1.005 -0.052,1.281 0.897,1.052 5.514,-1.33 11.048,-2.581 16.536,-4.007 3.851,-1.001 7.71,-2.044 11.437,-3.419 5.119,-1.889 10.369,-2.485 15.756,-2.438 7.941,0.07 14.533,3.297 20.22,8.635 4.142,3.887 7.463,8.433 10.517,13.189 0.081,0.127 0.106,0.289 0.184,0.51 -3.821,1.872 -7.647,3.678 -11.412,5.604 -8.64,4.418 -17.277,8.844 -25.863,13.364 -7.468,3.933 -14.138,8.941 -20.353,14.689 -17.34,16.035 -36.272,29.869 -57.44,40.501 -17.065,8.57 -34.982,14.579 -53.821,17.767 -8.206,1.389 -16.473,2.24 -24.796,2.501 -0.674,0.021 -1.345,0.133 -2.018,0.203 -3.84,0 -7.68,0 -11.52,0 -0.632,-0.068 -1.263,-0.179 -1.896,-0.198 -8.36,-0.259 -16.663,-1.109 -24.905,-2.504 -18.831,-3.186 -36.74,-9.188 -53.799,-17.753 C 94.045,309.943 75.116,296.064 57.72,280.045 52.37,275.119 46.715,270.697 40.417,267.049 27.48,259.557 13.948,253.235 0.563,246.621 0.395,246.538 0.191,246.525 0.004,246.479 0,246.399 0,246.319 0,246.24 Z m 83.559,-22.772 c -0.295,2.98 0.971,5.436 1.679,8.014 0.718,2.618 1.43,5.24 2.058,7.881 0.226,0.951 -0.119,1.638 -1.265,1.893 -2.704,0.602 -5.391,0.911 -8.153,0.425 -4.518,-0.795 -9.085,-1.351 -13.56,-2.333 -4.423,-0.972 -8.765,-2.318 -13.128,-3.55 -5.606,-1.582 -11.176,-3.298 -16.806,-4.79 -3.493,-0.927 -6.92,-0.607 -10.181,1.208 -3.377,1.88 -6.215,4.351 -8.602,7.354 -1.082,1.361 -2.05,2.813 -3.266,4.496 2.121,1.188 3.961,2.382 5.934,3.287 3.191,1.463 6.505,2.656 9.704,4.104 15.999,7.242 30.558,16.841 44.555,27.349 5.37,4.031 10.535,8.377 16.152,12.027 9.793,6.365 20.321,11.435 30.96,16.229 20.039,9.033 40.837,15.414 62.78,17.728 13.254,1.397 26.509,1.356 39.745,-0.131 13.019,-1.464 25.714,-4.439 38.16,-8.523 15.649,-5.135 30.491,-12.081 44.977,-19.853 6.181,-3.316 12.06,-7.05 17.549,-11.436 4.559,-3.642 9.258,-7.112 13.98,-10.541 15.287,-11.099 31.424,-20.677 49.166,-27.389 1.668,-0.631 3.094,-1.899 4.73,-2.935 -3.602,-5.666 -7.795,-10.283 -13.981,-12.777 -2.145,-0.864 -4.429,-0.992 -6.485,-0.473 -7.02,1.775 -13.955,3.883 -20.926,5.854 -2.922,0.826 -5.816,1.789 -8.782,2.406 -4.565,0.95 -9.191,1.602 -13.772,2.483 -3.221,0.62 -6.388,0.593 -9.557,-0.232 -1.15,-0.3 -1.597,-0.851 -1.313,-1.952 0.736,-2.857 1.556,-5.692 2.309,-8.545 0.621,-2.353 1.796,-4.601 1.406,-7.188 -0.106,-0.045 -0.204,-0.112 -0.31,-0.129 -2.582,-0.417 -5.173,-0.778 -7.744,-1.252 -4.928,-0.908 -9.841,-1.895 -14.766,-2.819 -2.301,-0.432 -2.832,-1.298 -1.992,-3.472 0.212,-0.55 0.516,-1.065 0.772,-1.599 0.65,-1.355 1.228,-2.752 1.963,-4.06 1.344,-2.386 -0.218,-4.45 -2.183,-5.287 -1.31,-0.557 -2.64,-1.066 -3.974,-1.563 -3.028,-1.124 -6.016,-2.389 -9.107,-3.302 -5.927,-1.75 -11.724,-1.565 -17.275,1.569 -3.197,1.806 -6.503,3.422 -9.79,5.063 -14.909,7.443 -30.556,12.354 -47.253,13.528 -14.217,1.001 -28.063,-0.921 -41.536,-5.558 -8.497,-2.924 -16.488,-6.898 -24.195,-11.493 -5.778,-3.443 -11.969,-5.063 -18.714,-3.745 -5.673,1.108 -10.897,3.536 -16.166,5.765 -1.94,0.82 -2.854,2.671 -1.772,4.868 0.995,2.021 2.033,4.029 2.862,6.119 0.765,1.928 0.146,2.805 -1.881,3.149 -2.103,0.356 -4.207,0.705 -6.304,1.093 -3.142,0.582 -6.274,1.213 -9.417,1.787 -2.41,0.444 -4.827,0.83 -7.285,1.248 z m 190.295,-89.677 c -0.069,0 -0.138,0 -0.207,0 0,-8.439 -0.032,-16.878 0.008,-25.317 0.047,-9.678 0.135,-19.351 -1.479,-28.946 -1.227,-7.298 -3.369,-14.272 -7.405,-20.524 -3.363,-5.211 -6.745,-10.403 -11.009,-14.989 -3.728,-4.01 -7.598,-7.86 -11.881,-11.235 -4.625,-3.646 -9.4,-7.124 -14.287,-10.412 -7.69,-5.175 -15.795,-9.666 -24.067,-13.845 -0.336,-0.169 -0.919,-0.154 -1.253,0.025 -5.196,2.784 -10.484,5.42 -15.518,8.474 -5.609,3.403 -11.081,7.054 -16.425,10.86 -4.157,2.961 -8.175,6.159 -11.976,9.563 -3.11,2.784 -5.875,5.967 -8.674,9.08 -4.139,4.601 -7.411,9.833 -10.479,15.175 -2.727,4.747 -4.503,9.908 -6.362,15.053 -1.772,4.906 -2.528,9.939 -2.969,15.042 -0.364,4.205 -0.447,8.441 -0.491,12.665 -0.075,7.119 -0.021,14.239 -0.021,21.358 0,17.078 -0.005,34.157 0.003,51.235 0.002,5.177 1.923,9.519 5.893,12.853 1.521,1.278 3.17,2.452 4.9,3.428 14.995,8.461 30.864,14.394 48.051,16.51 9.302,1.146 18.588,1.097 27.866,-0.147 11.151,-1.494 21.861,-4.606 32.172,-9.077 5.569,-2.415 11.119,-4.903 16.154,-8.347 4.346,-2.972 7.476,-6.927 8.592,-12.129 0.589,-2.748 0.81,-5.619 0.828,-8.437 0.083,-12.64 0.036,-25.279 0.036,-37.916 z m -151.812,-2.677 c 0,-4.182 -0.039,-8.138 0.008,-12.093 0.099,-8.368 0.241,-16.735 0.367,-25.103 0.002,-0.159 0.023,-0.317 0.04,-0.476 0.305,-2.926 0.622,-5.852 0.902,-8.781 0.03,-0.319 -0.039,-0.775 -0.246,-0.969 -1.541,-1.437 -3.101,-2.855 -4.705,-4.22 -3.886,-3.308 -7.766,-6.625 -11.715,-9.858 -2.551,-2.089 -5.22,-4.034 -7.978,-6.151 -0.03,0.417 -0.075,0.608 -0.053,0.79 0.636,5.234 2.039,10.279 4.566,14.887 1.611,2.936 3.725,5.613 5.761,8.295 2.781,3.663 5.692,7.228 8.57,10.817 0.916,1.142 1.926,2.209 2.831,3.358 0.167,0.212 0.164,0.879 0.026,0.955 -0.786,0.438 -1.62,1.018 -2.468,1.072 -2.188,0.141 -4.404,0.17 -6.588,-0.006 -4.754,-0.383 -9.518,-0.772 -14.235,-1.452 -3.119,-0.449 -6.195,-1.299 -9.234,-2.166 -3.075,-0.877 -6.068,-2.036 -9.12,-3 -3.382,-1.069 -6.792,-2.053 -10.186,-3.087 -1.058,-0.322 -2.102,-0.688 -3.338,-1.094 0.216,0.35 0.303,0.522 0.418,0.673 3.281,4.267 7.205,7.885 11.345,11.293 5.338,4.394 11.793,6.626 18.05,9.162 4.456,1.806 9.154,3.019 13.753,4.466 0.852,0.268 1.406,0.62 1.605,1.61 0.542,2.695 0.576,2.645 -1.961,3.748 -6.096,2.65 -11.912,5.809 -17.258,9.781 -1.019,0.757 -1.911,1.687 -3.136,2.783 3.081,0.422 5.744,0.969 8.428,1.114 4.35,0.234 8.668,0.059 12.83,-1.619 4.222,-1.703 8.533,-3.182 12.721,-4.729 z m 192.205,5.094 c -0.609,-0.659 -1.105,-1.364 -1.755,-1.873 -5.631,-4.411 -11.868,-7.795 -18.408,-10.628 -2.318,-1.004 -2.309,-0.89 -1.826,-3.388 0.195,-1.009 0.561,-1.59 1.602,-1.884 3.191,-0.901 6.396,-1.784 9.516,-2.897 3.243,-1.157 6.334,-2.751 9.596,-3.845 8.446,-2.832 15.042,-8.27 21.048,-14.577 1.206,-1.267 2.26,-2.679 3.384,-4.024 -1.944,0.415 -3.695,1.077 -5.479,1.63 -5.422,1.679 -10.912,3.157 -16.27,5.017 -4.685,1.626 -9.495,2.591 -14.361,3.143 -4.823,0.547 -9.706,0.566 -14.562,0.818 -1.409,0.074 -2.754,-0.029 -4.01,-0.828 -0.7,-0.446 -0.903,-0.723 -0.302,-1.44 2.543,-3.035 5.084,-6.075 7.534,-9.186 2.646,-3.36 5.237,-6.767 7.768,-10.216 3.459,-4.718 4.916,-10.234 6.081,-15.844 0.169,-0.814 0.169,-1.664 0.247,-2.497 -0.113,-0.074 -0.226,-0.147 -0.339,-0.221 -4.526,3.715 -9.074,7.404 -13.569,11.156 -3.029,2.528 -5.994,5.133 -8.957,7.738 -0.373,0.328 -0.811,0.879 -0.791,1.308 0.15,3.264 0.58,6.521 0.602,9.783 0.077,12.117 0.045,24.235 0.004,36.353 -0.004,1.008 0.319,1.497 1.225,1.826 3.164,1.149 6.332,2.293 9.457,3.542 2.866,1.146 5.771,2.17 8.864,2.303 4.615,0.197 9.22,-0.016 13.701,-1.269 z M 121.95,148.866 c 0,-1.599 0,-2.737 0,-4.179 -0.585,0.753 -1.051,1.206 -1.326,1.755 -0.207,0.41 -0.374,1.059 -0.186,1.393 0.23,0.411 0.848,0.605 1.512,1.031 z m 159.501,-3.611 c -0.11,0.052 -0.221,0.104 -0.331,0.157 0,1.037 0,2.074 0,3.111 0.091,0.061 0.181,0.122 0.272,0.183 0.355,-0.359 1.056,-0.783 1.003,-1.067 -0.153,-0.825 -0.608,-1.593 -0.944,-2.384 z"
             style="clip-rule:evenodd;fill-rule:evenodd" />
          <path
             inkscape:connector-curvature="0"
             id="path2422"
             d="m 0,246.479 c 0.187,0.046 0.391,0.059 0.559,0.142 13.385,6.613 26.917,12.936 39.854,20.428 6.298,3.648 11.954,8.07 17.303,12.996 17.396,16.019 36.326,29.898 57.523,40.54 17.059,8.564 34.968,14.567 53.799,17.753 8.242,1.395 16.545,2.245 24.905,2.504 0.633,0.02 1.265,0.13 1.896,0.198 -65.28,0 -130.56,0 -195.84,0 C 0,309.52 0,278 0,246.479 Z"
             style="clip-rule:evenodd;fill:none;fill-rule:evenodd" />
          <path
             inkscape:connector-curvature="0"
             id="path2424"
             d="m 83.559,223.468 c 2.458,-0.418 4.875,-0.804 7.283,-1.244 3.143,-0.574 6.275,-1.205 9.417,-1.787 2.097,-0.388 4.201,-0.736 6.304,-1.093 2.027,-0.345 2.646,-1.222 1.881,-3.149 -0.83,-2.09 -1.868,-4.099 -2.862,-6.119 -1.082,-2.197 -0.168,-4.048 1.772,-4.868 5.269,-2.229 10.493,-4.656 16.166,-5.765 6.746,-1.317 12.936,0.302 18.714,3.745 7.707,4.595 15.698,8.569 24.195,11.493 13.474,4.637 27.319,6.559 41.536,5.558 16.697,-1.175 32.344,-6.085 47.253,-13.528 3.287,-1.641 6.593,-3.257 9.79,-5.063 5.552,-3.135 11.349,-3.319 17.275,-1.569 3.092,0.913 6.079,2.178 9.107,3.302 1.334,0.496 2.664,1.006 3.974,1.563 1.965,0.837 3.526,2.901 2.183,5.287 -0.735,1.308 -1.313,2.704 -1.963,4.06 -0.257,0.533 -0.561,1.049 -0.772,1.599 -0.84,2.174 -0.309,3.04 1.992,3.472 4.925,0.925 9.838,1.911 14.766,2.819 2.571,0.474 5.162,0.835 7.744,1.252 0.105,0.017 0.203,0.084 0.31,0.129 0.39,2.587 -0.785,4.835 -1.406,7.188 -0.753,2.853 -1.572,5.688 -2.309,8.545 -0.283,1.102 0.163,1.652 1.313,1.952 3.169,0.825 6.336,0.853 9.557,0.232 4.581,-0.882 9.207,-1.533 13.772,-2.483 2.966,-0.617 5.86,-1.58 8.782,-2.406 6.971,-1.972 13.906,-4.079 20.926,-5.854 2.057,-0.52 4.341,-0.392 6.485,0.473 6.187,2.494 10.38,7.111 13.981,12.777 -1.637,1.035 -3.063,2.304 -4.73,2.935 -17.742,6.712 -33.879,16.29 -49.166,27.389 -4.723,3.429 -9.422,6.899 -13.98,10.541 -5.489,4.386 -11.368,8.119 -17.549,11.436 -14.485,7.771 -29.327,14.718 -44.977,19.853 -12.446,4.084 -25.142,7.06 -38.16,8.523 -13.235,1.487 -26.491,1.528 -39.745,0.131 -21.943,-2.313 -42.742,-8.694 -62.78,-17.728 -10.639,-4.795 -21.167,-9.864 -30.96,-16.229 -5.617,-3.65 -10.783,-7.996 -16.152,-12.027 -13.997,-10.508 -28.556,-20.106 -44.555,-27.349 -3.198,-1.448 -6.513,-2.642 -9.704,-4.104 -1.973,-0.905 -3.813,-2.1 -5.934,-3.287 1.216,-1.683 2.184,-3.135 3.266,-4.496 2.387,-3.003 5.225,-5.474 8.602,-7.354 3.26,-1.815 6.688,-2.135 10.181,-1.208 5.629,1.492 11.199,3.208 16.806,4.79 4.364,1.231 8.706,2.578 13.128,3.55 4.475,0.982 9.042,1.538 13.56,2.333 2.762,0.486 5.45,0.177 8.153,-0.425 1.146,-0.255 1.491,-0.941 1.265,-1.893 -0.628,-2.641 -1.339,-5.263 -2.058,-7.881 -0.706,-2.583 -1.972,-5.038 -1.677,-8.018 z m 120.187,72.682 c 2.555,-0.12 6.558,-0.187 10.538,-0.524 5.414,-0.46 10.854,-0.876 16.206,-1.767 6.837,-1.139 13.518,-2.976 19.974,-5.602 5.888,-2.395 12.003,-4.27 17.768,-6.916 7.697,-3.534 14.983,-7.889 21.745,-13.031 4.868,-3.703 9.889,-7.243 14.12,-11.705 1.859,-1.961 3.517,-4.113 5.248,-6.193 0.113,-0.137 0.075,-0.398 0.106,-0.603 -0.208,0 -0.437,-0.055 -0.618,0.016 -0.215,0.083 -0.39,0.272 -0.581,0.416 -10.271,7.704 -21.316,14.099 -32.993,19.409 -22.35,10.166 -45.787,15.762 -70.344,16.384 -12.151,0.308 -24.182,-1.08 -36.079,-3.539 -26.114,-5.397 -49.988,-15.887 -71.559,-31.586 -0.484,-0.353 -0.945,-0.741 -1.447,-1.066 -0.154,-0.1 -0.41,-0.042 -0.619,-0.057 0.017,0.204 -0.045,0.472 0.061,0.601 1.645,1.996 3.244,4.037 4.987,5.945 3.669,4.016 8.176,7.06 12.367,10.469 5.365,4.364 11.328,7.822 17.292,11.257 6.983,4.021 14.531,6.772 22.109,9.424 3.655,1.278 7.277,2.677 10.992,3.754 3.724,1.08 7.506,2.076 11.331,2.671 9.253,1.437 18.585,2.12 29.396,2.243 z m -82.233,-70.143 c 0,0.419 -0.07,0.643 0.01,0.771 1.289,2.064 2.385,4.295 3.942,6.134 3.399,4.012 6.942,7.912 10.596,11.695 5.067,5.247 10.779,9.78 17.025,13.506 6.152,3.67 12.68,6.636 19.365,9.29 6.854,2.722 13.937,4.065 21.215,4.741 9.218,0.854 18.359,0.349 27.43,-1.456 4.369,-0.869 8.726,-1.86 12.811,-3.665 3.755,-1.659 7.38,-3.612 11.092,-5.373 8.829,-4.188 16.462,-10.05 23.391,-16.847 3.299,-3.236 6.493,-6.605 9.457,-10.146 1.984,-2.37 3.486,-5.146 5.186,-7.751 0.111,-0.171 0.066,-0.442 0.13,-0.955 -0.479,0.407 -0.729,0.59 -0.944,0.806 -8.128,8.079 -17.2,14.912 -27.079,20.713 -8.481,4.98 -17.581,8.543 -26.854,11.642 -4.103,1.371 -8.399,2.254 -12.672,2.989 -4.496,0.774 -9.059,1.397 -13.61,1.552 -4.323,0.146 -8.692,-0.198 -13,-0.688 -6.598,-0.752 -13.032,-2.379 -19.094,-5.116 -5.012,-2.265 -9.885,-4.844 -14.784,-7.351 -12.124,-6.205 -23.005,-14.132 -32.68,-23.717 -0.237,-0.235 -0.513,-0.428 -0.933,-0.774 z"
             style="clip-rule:evenodd;fill:none;fill-rule:evenodd" />
          <path
             inkscape:connector-curvature="0"
             id="path2426"
             d="m 273.854,133.791 c 0,12.638 0.048,25.276 -0.037,37.914 -0.019,2.817 -0.239,5.688 -0.828,8.437 -1.116,5.202 -4.246,9.157 -8.592,12.129 -5.035,3.443 -10.585,5.932 -16.154,8.347 -10.311,4.471 -21.021,7.583 -32.172,9.077 -9.277,1.244 -18.564,1.293 -27.866,0.147 -17.188,-2.116 -33.056,-8.049 -48.051,-16.51 -1.729,-0.976 -3.378,-2.149 -4.9,-3.428 -3.969,-3.334 -5.89,-7.676 -5.893,-12.853 -0.008,-17.078 -0.003,-34.157 -0.003,-51.235 0,-7.119 -0.055,-14.239 0.021,-21.358 0.044,-4.224 0.127,-8.459 0.491,-12.665 0.441,-5.103 1.197,-10.136 2.969,-15.042 1.858,-5.145 3.635,-10.306 6.362,-15.053 3.069,-5.341 6.34,-10.574 10.479,-15.175 2.8,-3.112 5.564,-6.296 8.674,-9.08 3.801,-3.403 7.819,-6.602 11.976,-9.563 5.344,-3.806 10.816,-7.458 16.425,-10.86 5.034,-3.054 10.322,-5.69 15.518,-8.474 0.334,-0.179 0.917,-0.195 1.253,-0.025 8.272,4.179 16.377,8.67 24.067,13.845 4.887,3.288 9.662,6.766 14.287,10.412 4.283,3.375 8.153,7.226 11.881,11.235 4.264,4.586 7.646,9.778 11.009,14.989 4.036,6.252 6.179,13.226 7.405,20.524 1.613,9.596 1.525,19.269 1.479,28.946 -0.04,8.439 -0.008,16.878 -0.008,25.317 0.07,0.002 0.138,0.002 0.208,0.002 z m -8.29,-34.204 c -4.116,0.423 -7.93,0.821 -11.745,1.205 -7.516,0.756 -15.032,1.494 -22.547,2.258 -7.498,0.763 -14.979,1.837 -22.496,2.238 -7.043,0.376 -14.123,0.209 -21.167,-0.603 -6.431,-0.74 -12.881,-1.305 -19.324,-1.945 -7.834,-0.779 -15.668,-1.56 -23.502,-2.333 -2.333,-0.23 -4.668,-0.435 -7.052,-0.656 -0.049,0.339 -0.098,0.53 -0.1,0.721 -0.074,6.674 -0.151,13.349 -0.209,20.023 -0.036,4.115 1.635,7.354 5.092,9.611 1.033,0.674 2.13,1.264 3.242,1.802 5.712,2.768 11.448,5.487 17.158,8.261 5.854,2.845 11.673,5.762 17.533,8.594 3.641,1.76 6.1,4.48 6.546,8.541 0.374,3.402 0.547,6.861 0.397,10.277 -0.263,6.004 -2.117,11.545 -5.947,16.269 -1.501,1.853 -3.253,3.501 -4.914,5.267 0.065,0.055 0.206,0.195 0.369,0.303 6.894,4.572 13.779,9.157 20.692,13.701 2.518,1.655 5.135,1.665 7.654,0.011 6.815,-4.474 13.601,-8.993 20.395,-13.499 0.184,-0.121 0.332,-0.294 0.541,-0.482 -1.972,-2.371 -3.847,-4.709 -5.811,-6.97 -4.849,-5.583 -6.436,-12.049 -5.079,-19.217 1.415,-7.471 5.136,-13.24 12.268,-16.665 10.329,-4.96 20.566,-10.119 30.769,-15.337 1.834,-0.938 3.413,-2.469 4.922,-3.921 1.289,-1.241 1.921,-2.9 1.977,-4.756 0.063,-2.117 0.306,-4.23 0.324,-6.347 0.047,-5.394 0.014,-10.787 0.014,-16.351 z"
             style="clip-rule:evenodd;fill:none;fill-rule:evenodd" />
          <path
             inkscape:connector-curvature="0"
             id="path2428"
             d="m 122.042,131.114 c -4.188,1.546 -8.499,3.026 -12.72,4.728 -4.161,1.678 -8.479,1.854 -12.83,1.619 -2.685,-0.145 -5.347,-0.691 -8.428,-1.114 1.225,-1.096 2.117,-2.025 3.136,-2.783 5.346,-3.972 11.162,-7.131 17.258,-9.781 2.537,-1.104 2.503,-1.053 1.961,-3.748 -0.199,-0.99 -0.753,-1.342 -1.605,-1.61 -4.599,-1.447 -9.297,-2.66 -13.753,-4.466 -6.256,-2.536 -12.712,-4.768 -18.05,-9.162 -4.14,-3.408 -8.063,-7.026 -11.345,-11.293 -0.116,-0.15 -0.202,-0.323 -0.418,-0.673 1.236,0.407 2.28,0.772 3.338,1.094 3.394,1.034 6.803,2.018 10.186,3.087 3.052,0.964 6.045,2.123 9.12,3 3.039,0.867 6.115,1.717 9.234,2.166 4.717,0.679 9.48,1.068 14.235,1.452 2.184,0.176 4.399,0.147 6.588,0.006 0.848,-0.054 1.682,-0.634 2.468,-1.072 0.137,-0.076 0.141,-0.743 -0.026,-0.955 -0.905,-1.149 -1.916,-2.216 -2.831,-3.358 -2.877,-3.589 -5.789,-7.154 -8.57,-10.817 -2.036,-2.682 -4.15,-5.359 -5.761,-8.295 -2.528,-4.607 -3.931,-9.652 -4.566,-14.887 -0.022,-0.182 0.022,-0.372 0.053,-0.79 2.757,2.117 5.426,4.062 7.978,6.151 3.949,3.232 7.829,6.55 11.715,9.858 1.604,1.365 3.165,2.783 4.705,4.22 0.208,0.194 0.276,0.65 0.246,0.969 -0.28,2.929 -0.597,5.854 -0.902,8.781 -0.017,0.159 -0.038,0.317 -0.04,0.476 -0.126,8.368 -0.269,16.735 -0.367,25.103 -0.047,3.957 -0.009,7.913 -0.009,12.094 z"
             style="clip-rule:evenodd;fill:none;fill-rule:evenodd" />
          <path
             inkscape:connector-curvature="0"
             id="path2430"
             d="m 314.247,136.208 c -4.481,1.252 -9.086,1.466 -13.703,1.267 -3.093,-0.133 -5.998,-1.157 -8.864,-2.303 -3.125,-1.249 -6.293,-2.393 -9.457,-3.542 -0.905,-0.329 -1.229,-0.817 -1.225,-1.826 0.041,-12.118 0.073,-24.235 -0.004,-36.353 -0.021,-3.261 -0.451,-6.519 -0.602,-9.783 -0.02,-0.428 0.418,-0.98 0.791,-1.308 2.963,-2.605 5.928,-5.21 8.957,-7.738 4.495,-3.752 9.043,-7.44 13.569,-11.156 0.113,0.074 0.226,0.147 0.339,0.221 -0.078,0.833 -0.078,1.683 -0.247,2.497 -1.165,5.61 -2.622,11.126 -6.081,15.844 -2.53,3.449 -5.122,6.855 -7.768,10.216 -2.45,3.111 -4.991,6.151 -7.534,9.186 -0.602,0.717 -0.398,0.994 0.302,1.44 1.256,0.799 2.601,0.902 4.01,0.828 4.855,-0.252 9.738,-0.271 14.562,-0.818 4.866,-0.551 9.677,-1.516 14.361,-3.143 5.357,-1.86 10.848,-3.338 16.27,-5.017 1.784,-0.553 3.535,-1.215 5.479,-1.63 -1.124,1.345 -2.178,2.758 -3.384,4.024 -6.006,6.307 -12.602,11.745 -21.048,14.577 -3.262,1.094 -6.353,2.688 -9.596,3.845 -3.119,1.113 -6.324,1.996 -9.516,2.897 -1.041,0.294 -1.406,0.875 -1.602,1.884 -0.482,2.499 -0.492,2.384 1.826,3.388 6.54,2.833 12.777,6.217 18.408,10.628 0.652,0.512 1.148,1.216 1.757,1.875 z"
             style="clip-rule:evenodd;fill:none;fill-rule:evenodd" />
          <path
             inkscape:connector-curvature="0"
             id="path2432"
             d="m 121.95,148.866 c -0.665,-0.425 -1.282,-0.62 -1.512,-1.031 -0.188,-0.334 -0.021,-0.983 0.186,-1.393 0.275,-0.549 0.741,-1.002 1.326,-1.755 0,1.442 0,2.58 0,4.179 z"
             style="clip-rule:evenodd;fill:none;fill-rule:evenodd" />
          <path
             inkscape:connector-curvature="0"
             id="path2434"
             d="m 281.451,145.255 c 0.336,0.791 0.791,1.559 0.944,2.384 0.053,0.284 -0.647,0.708 -1.003,1.067 -0.092,-0.061 -0.182,-0.122 -0.272,-0.183 0,-1.037 0,-2.074 0,-3.111 0.11,-0.053 0.221,-0.105 0.331,-0.157 z"
             style="clip-rule:evenodd;fill:none;fill-rule:evenodd" />
          <path
             inkscape:connector-curvature="0"
             id="path2436"
             d="m 203.746,296.15 c -10.812,-0.123 -20.143,-0.807 -29.396,-2.244 -3.825,-0.595 -7.606,-1.591 -11.331,-2.671 -3.714,-1.077 -7.336,-2.476 -10.992,-3.754 -7.579,-2.651 -15.126,-5.403 -22.109,-9.424 -5.964,-3.435 -11.927,-6.893 -17.292,-11.257 -4.191,-3.409 -8.698,-6.453 -12.367,-10.469 -1.743,-1.908 -3.342,-3.949 -4.987,-5.945 -0.106,-0.129 -0.044,-0.396 -0.061,-0.601 0.209,0.015 0.465,-0.043 0.619,0.057 0.502,0.325 0.963,0.714 1.447,1.066 21.571,15.699 45.445,26.188 71.559,31.586 11.897,2.459 23.928,3.847 36.079,3.539 24.557,-0.622 47.994,-6.218 70.344,-16.384 11.677,-5.311 22.722,-11.705 32.993,-19.409 0.191,-0.144 0.366,-0.333 0.581,-0.416 0.182,-0.07 0.41,-0.016 0.618,-0.016 -0.031,0.204 0.007,0.466 -0.106,0.603 -1.731,2.08 -3.389,4.232 -5.248,6.193 -4.231,4.462 -9.252,8.002 -14.12,11.705 -6.762,5.143 -14.048,9.497 -21.745,13.031 -5.765,2.646 -11.88,4.521 -17.768,6.916 -6.456,2.626 -13.137,4.463 -19.974,5.602 -5.353,0.891 -10.792,1.307 -16.206,1.767 -3.98,0.339 -7.983,0.405 -10.538,0.525 z"
             style="clip-rule:evenodd;fill-rule:evenodd" />
          <path
             inkscape:connector-curvature="0"
             id="path2438"
             d="m 121.513,226.007 c 0.419,0.346 0.696,0.539 0.932,0.773 9.675,9.585 20.556,17.512 32.68,23.717 4.899,2.507 9.772,5.086 14.784,7.351 6.062,2.737 12.496,4.364 19.094,5.116 4.308,0.49 8.677,0.834 13,0.688 4.551,-0.154 9.114,-0.777 13.61,-1.552 4.272,-0.735 8.569,-1.618 12.672,-2.989 9.273,-3.099 18.373,-6.661 26.854,-11.642 9.879,-5.801 18.951,-12.634 27.079,-20.713 0.216,-0.216 0.465,-0.398 0.944,-0.806 -0.063,0.513 -0.019,0.784 -0.13,0.955 -1.699,2.605 -3.201,5.381 -5.186,7.751 -2.964,3.541 -6.158,6.91 -9.457,10.146 -6.929,6.797 -14.562,12.659 -23.391,16.847 -3.712,1.761 -7.337,3.714 -11.092,5.373 -4.085,1.805 -8.441,2.796 -12.811,3.665 -9.071,1.805 -18.212,2.311 -27.43,1.456 -7.278,-0.676 -14.361,-2.02 -21.215,-4.741 -6.685,-2.654 -13.212,-5.62 -19.365,-9.29 -6.246,-3.726 -11.958,-8.259 -17.025,-13.506 -3.654,-3.783 -7.197,-7.684 -10.596,-11.695 -1.558,-1.839 -2.654,-4.069 -3.942,-6.134 -0.079,-0.128 -0.009,-0.351 -0.009,-0.77 z"
             style="clip-rule:evenodd;fill-rule:evenodd" />
          <path
             inkscape:connector-curvature="0"
             id="path2440"
             d="m 265.564,99.587 c 0,5.563 0.032,10.957 -0.017,16.349 -0.019,2.116 -0.261,4.229 -0.324,6.347 -0.056,1.856 -0.688,3.516 -1.977,4.756 -1.509,1.453 -3.088,2.983 -4.922,3.921 -10.202,5.218 -20.439,10.376 -30.769,15.337 -7.132,3.425 -10.853,9.194 -12.268,16.665 -1.356,7.167 0.23,13.634 5.079,19.217 1.964,2.261 3.839,4.599 5.811,6.97 -0.209,0.188 -0.357,0.361 -0.541,0.482 -6.794,4.506 -13.579,9.025 -20.395,13.499 -2.519,1.654 -5.136,1.645 -7.654,-0.011 -6.913,-4.544 -13.798,-9.129 -20.692,-13.701 -0.163,-0.107 -0.304,-0.248 -0.369,-0.303 1.66,-1.766 3.412,-3.414 4.914,-5.267 3.831,-4.724 5.685,-10.265 5.947,-16.269 0.15,-3.416 -0.023,-6.875 -0.397,-10.277 -0.446,-4.061 -2.906,-6.781 -6.546,-8.541 -5.86,-2.833 -11.679,-5.749 -17.533,-8.594 -5.709,-2.774 -11.446,-5.493 -17.158,-8.261 -1.112,-0.538 -2.209,-1.127 -3.242,-1.802 -3.457,-2.256 -5.128,-5.496 -5.092,-9.611 0.059,-6.674 0.136,-13.349 0.209,-20.023 0.002,-0.191 0.051,-0.382 0.1,-0.721 2.383,0.221 4.719,0.426 7.052,0.656 7.834,0.773 15.668,1.554 23.502,2.333 6.442,0.641 12.893,1.205 19.324,1.945 7.044,0.812 14.124,0.979 21.167,0.603 7.517,-0.401 14.998,-1.475 22.496,-2.238 7.515,-0.764 15.031,-1.502 22.547,-2.258 3.819,-0.381 7.632,-0.78 11.748,-1.203 z m -119.579,8.216 c -0.34,1.673 -0.697,3.186 -0.95,4.715 -1.235,7.462 1.55,12.355 8.591,15.149 1.187,0.471 2.421,0.846 3.56,1.412 6.684,3.325 13.375,6.641 20.006,10.069 3.543,1.831 7.048,3.761 10.435,5.864 4.353,2.704 6.631,6.803 6.751,11.894 0.125,5.269 0.112,10.555 -0.18,15.814 -0.144,2.586 -0.931,5.166 -1.66,7.681 -0.676,2.332 -1.686,4.565 -2.488,6.863 -0.129,0.371 -0.113,1.061 0.121,1.249 2.639,2.128 5.25,4.311 8.042,6.225 2.076,1.422 4.435,1.482 6.707,0.2 3.573,-2.017 6.184,-5.11 9.129,-8 -4.919,-4.762 -5.94,-10.694 -5.734,-17.049 0.198,-6.1 0.319,-12.203 0.51,-18.303 0.059,-1.866 0.681,-3.584 2.229,-4.693 1.612,-1.155 3.303,-2.258 5.093,-3.097 12.692,-5.948 25.458,-11.748 37.437,-19.095 2.179,-1.336 3.574,-3.25 4.169,-5.717 0.868,-3.608 1.208,-7.249 0.39,-10.985 -1.403,0.15 -2.852,0.347 -4.306,0.452 -3.347,0.241 -6.702,0.365 -10.043,0.667 -6.925,0.625 -13.843,1.333 -20.763,2.01 -5.756,0.563 -11.5,1.292 -17.268,1.644 -4.122,0.251 -8.291,0.219 -12.409,-0.081 -5.612,-0.409 -11.194,-1.218 -16.794,-1.809 -6.796,-0.716 -13.597,-1.384 -20.396,-2.069 -3.334,-0.335 -6.668,-0.661 -10.179,-1.01 z"
             style="clip-rule:evenodd;fill-rule:evenodd" />
          <path
             inkscape:connector-curvature="0"
             id="path2442"
             d="m 145.985,107.803 c 3.511,0.349 6.845,0.675 10.178,1.011 6.799,0.685 13.6,1.354 20.396,2.069 5.6,0.59 11.182,1.4 16.794,1.809 4.119,0.3 8.287,0.333 12.409,0.081 5.768,-0.352 11.512,-1.081 17.268,-1.644 6.92,-0.677 13.838,-1.385 20.763,-2.01 3.341,-0.302 6.696,-0.426 10.043,-0.667 1.454,-0.105 2.902,-0.302 4.306,-0.452 0.818,3.736 0.479,7.377 -0.39,10.985 -0.595,2.467 -1.99,4.381 -4.169,5.717 -11.979,7.347 -24.744,13.147 -37.437,19.095 -1.79,0.839 -3.48,1.942 -5.093,3.097 -1.548,1.109 -2.17,2.828 -2.229,4.693 -0.19,6.101 -0.312,12.203 -0.51,18.303 -0.206,6.354 0.815,12.287 5.734,17.049 -2.945,2.89 -5.556,5.983 -9.129,8 -2.272,1.282 -4.631,1.222 -6.707,-0.2 -2.792,-1.914 -5.403,-4.097 -8.042,-6.225 -0.234,-0.188 -0.25,-0.878 -0.121,-1.249 0.802,-2.298 1.812,-4.531 2.488,-6.863 0.729,-2.515 1.516,-5.095 1.66,-7.681 0.292,-5.26 0.305,-10.545 0.18,-15.814 -0.12,-5.091 -2.398,-9.19 -6.751,-11.894 -3.387,-2.104 -6.892,-4.033 -10.435,-5.864 -6.631,-3.428 -13.322,-6.744 -20.006,-10.069 -1.139,-0.566 -2.373,-0.941 -3.56,-1.412 -7.041,-2.794 -9.826,-7.687 -8.591,-15.149 0.255,-1.53 0.611,-3.043 0.951,-4.716 z m 103.822,5.957 c -1.231,0.167 -2.333,0.316 -3.436,0.467 -9.253,1.268 -18.508,2.52 -27.758,3.815 -2.67,0.374 -4.193,2.184 -4.289,4.893 -0.028,0.798 -0.103,1.596 -0.105,2.395 -0.011,4.067 -0.005,8.134 -0.005,12.281 0.347,-0.059 0.549,-0.055 0.72,-0.127 7.783,-3.297 15.635,-6.445 23.307,-9.983 2.923,-1.348 5.575,-3.417 8.089,-5.479 2.45,-2.009 3.506,-4.869 3.477,-8.262 z m -60.756,24.274 c 0,-3.032 0.027,-5.906 -0.007,-8.78 -0.038,-3.223 -0.426,-6.381 -2,-9.277 -0.519,-0.955 -1.18,-1.652 -2.373,-1.768 -1.269,-0.123 -2.519,-0.43 -3.785,-0.599 -7.128,-0.949 -14.257,-1.889 -21.389,-2.813 -2.251,-0.292 -4.509,-0.525 -6.778,-0.787 -0.412,0.997 -0.739,1.944 -1.188,2.829 -0.375,0.739 -0.194,1.196 0.368,1.752 3.36,3.324 7.158,6.077 11.425,8.038 8.41,3.864 16.916,7.514 25.727,11.405 z"
             style="clip-rule:evenodd;fill:none;fill-rule:evenodd" />
          <path
             inkscape:connector-curvature="0"
             id="path2444"
             d="m 249.807,113.76 c 0.029,3.393 -1.026,6.253 -3.478,8.263 -2.514,2.061 -5.166,4.13 -8.089,5.479 -7.672,3.538 -15.523,6.686 -23.307,9.983 -0.171,0.072 -0.373,0.068 -0.72,0.127 0,-4.147 -0.006,-8.214 0.005,-12.281 0.003,-0.799 0.077,-1.597 0.105,-2.395 0.096,-2.708 1.619,-4.519 4.289,-4.893 9.25,-1.295 18.505,-2.547 27.758,-3.815 1.104,-0.152 2.205,-0.301 3.437,-0.468 z"
             style="clip-rule:evenodd;fill-rule:evenodd" />
          <path
             inkscape:connector-curvature="0"
             id="path2446"
             d="m 189.051,138.034 c -8.811,-3.891 -17.317,-7.541 -25.725,-11.405 -4.268,-1.961 -8.065,-4.714 -11.425,-8.038 -0.563,-0.557 -0.743,-1.014 -0.368,-1.752 0.449,-0.885 0.776,-1.833 1.188,-2.829 2.269,0.262 4.527,0.496 6.778,0.787 7.131,0.924 14.26,1.864 21.389,2.813 1.266,0.168 2.516,0.476 3.785,0.599 1.193,0.116 1.854,0.813 2.373,1.768 1.574,2.896 1.963,6.055 2,9.277 0.032,2.873 0.005,5.748 0.005,8.78 z"
             style="clip-rule:evenodd;fill-rule:evenodd" />
        </g>
      </g>
    </g>
    <g
       id="Ebene_1-8" />
  </g>
  <g
     id="g2274"
     transform="matrix(0.26458333,0,0,0.26458333,24.81107,18.781352)"
     style="fill:#ff0000;fill-opacity:1">
    <g
       id="Ebene_1"
       style="fill:#ff0000;fill-opacity:1" />
  </g>
</svg>
