<?xml version="1.0" encoding="UTF-8" standalone="no"?>
<svg
   xmlns:dc="http://purl.org/dc/elements/1.1/"
   xmlns:cc="http://creativecommons.org/ns#"
   xmlns:rdf="http://www.w3.org/1999/02/22-rdf-syntax-ns#"
   xmlns:svg="http://www.w3.org/2000/svg"
   xmlns="http://www.w3.org/2000/svg"
   xmlns:sodipodi="http://sodipodi.sourceforge.net/DTD/sodipodi-0.dtd"
   xmlns:inkscape="http://www.inkscape.org/namespaces/inkscape"
   id="svg8"
   version="1.1"
   viewBox="0 0 116.73953 117.0573"
   height="117.0573mm"
   width="116.73953mm"
   sodipodi:docname="Helmet1.svg"
   inkscape:version="0.92.3 (2405546, 2018-03-11)">
  <sodipodi:namedview
     pagecolor="#ffffff"
     bordercolor="#666666"
     borderopacity="1"
     objecttolerance="10"
     gridtolerance="10"
     guidetolerance="10"
     inkscape:pageopacity="0"
     inkscape:pageshadow="2"
     inkscape:window-width="1920"
     inkscape:window-height="1017"
     id="namedview83"
     showgrid="false"
     inkscape:zoom="2.1337129"
     inkscape:cx="94.487662"
     inkscape:cy="109.78674"
     inkscape:window-x="1912"
     inkscape:window-y="-8"
     inkscape:window-maximized="1"
     inkscape:current-layer="svg8" />
  <defs
     id="defs2" />
  <metadata
     id="metadata5">
    <rdf:RDF>
      <cc:Work
         rdf:about="">
        <dc:format>image/svg+xml</dc:format>
        <dc:type
           rdf:resource="http://purl.org/dc/dcmitype/StillImage" />
        <dc:title />
      </cc:Work>
    </rdf:RDF>
  </metadata>
  <g
     id="g2274"
     transform="matrix(0.26458333,0,0,0.26458333,24.81107,18.781352)"
     style="fill:#ff0000;fill-opacity:1">
    <g
       id="Ebene_1"
       style="fill:#ff0000;fill-opacity:1" />
  </g>
  <g
     id="g6494"
     transform="matrix(0.26458333,0,0,0.26458333,24.81107,24.073022)">
    <g
       id="Helmet1-3">
      <g
         id="g6467">
        <g
           id="g6465">
          <path
             inkscape:connector-curvature="0"
             id="path6443"
             d="m 150,0 c 34.556,0 69.11,0 103.673,0 0,100.141 0,200.282 0,300.451 -84.553,0 -169.113,0 -253.673,10e-4 0,-62.55 0,-125.101 0,-187.652 0.072,0.428 0.167,0.853 0.214,1.284 0.801,7.347 1.332,14.735 2.443,22.035 2.945,19.343 8.989,37.706 17.98,55.107 7.882,15.256 17.982,28.614 32.315,38.408 2.836,1.938 5.853,3.612 8.839,5.441 -0.312,0.755 -0.69,1.754 -1.13,2.726 -2.039,4.49 -4.131,8.958 -6.135,13.464 -2.793,6.28 -5.532,12.584 -8.281,18.884 -2.833,6.489 -5.736,12.951 -8.425,19.501 -0.787,1.916 -1.113,4.071 -1.341,6.151 -0.201,1.824 0.885,3.148 2.623,3.709 1.165,0.376 2.411,0.67 3.625,0.687 2.836,0.039 5.677,-0.06 8.512,-0.194 11.603,-0.554 23.09,-1.963 34.37,-4.824 18.278,-4.637 34.287,-13.265 47.901,-26.463 5.611,-5.439 11.678,-10.488 17.97,-15.129 14.311,-10.553 30.045,-13.415 47.055,-7.429 12.354,4.349 24.717,8.669 37.014,13.173 5.611,2.055 11.278,3.474 17.366,3.268 0.085,-1.403 0.21,-2.91 0.261,-4.419 0.085,-2.515 0.327,-5.063 -0.584,-7.484 -2.334,-6.199 -4.506,-12.473 -7.136,-18.546 -4.48,-10.347 -10.266,-19.971 -17.27,-28.819 -1.044,-1.317 -1.119,-2.186 -0.354,-3.635 2.203,-4.169 3.96,-8.501 4.565,-13.267 0.536,-4.222 -1.597,-8.526 -5.4,-10.216 -0.255,-0.113 -0.497,-0.254 -0.75,-0.369 -3.357,-1.521 -6.793,-2.68 -10.559,-2.558 -2.191,0.071 -4.388,0.013 -6.583,0.013 -1.402,-5.241 -1.269,-10.389 -0.204,-15.547 1.398,-6.779 4.017,-13.128 6.98,-19.335 6.207,-12.996 11.583,-26.307 15.594,-40.156 3.478,-12.01 4.861,-24.212 2.137,-36.493 C 228.368,38.134 214.92,20.661 193.15,9.864 181.572,4.122 169.103,1.613 156.315,0.494 154.212,0.309 152.105,0.163 150,0 Z"
             style="clip-rule:evenodd;fill:none;fill-rule:evenodd" />
          <path
             inkscape:connector-curvature="0"
             id="path6445"
             d="m 150,0 c 2.105,0.163 4.212,0.309 6.315,0.492 12.788,1.119 25.257,3.628 36.835,9.37 21.77,10.797 35.218,28.27 40.462,51.904 2.725,12.281 1.341,24.483 -2.137,36.493 -4.011,13.849 -9.387,27.16 -15.594,40.156 -2.964,6.207 -5.582,12.556 -6.98,19.335 -1.064,5.158 -1.198,10.306 0.204,15.547 2.195,0 4.392,0.059 6.583,-0.013 3.766,-0.122 7.201,1.037 10.559,2.558 0.253,0.115 0.495,0.256 0.75,0.369 3.804,1.689 5.937,5.994 5.4,10.216 -0.605,4.766 -2.362,9.098 -4.565,13.267 -0.766,1.449 -0.69,2.317 0.354,3.635 7.004,8.849 12.789,18.473 17.27,28.819 2.63,6.073 4.802,12.347 7.136,18.546 0.911,2.421 0.669,4.97 0.584,7.484 -0.051,1.509 -0.176,3.016 -0.261,4.419 -6.088,0.206 -11.755,-1.213 -17.366,-3.268 -12.297,-4.504 -24.66,-8.824 -37.014,-13.173 -17.01,-5.986 -32.744,-3.124 -47.055,7.429 -6.292,4.641 -12.358,9.689 -17.97,15.129 -13.614,13.198 -29.623,21.826 -47.901,26.463 -11.28,2.861 -22.767,4.271 -34.37,4.824 -2.835,0.135 -5.676,0.233 -8.512,0.194 -1.214,-0.017 -2.46,-0.311 -3.625,-0.687 -1.738,-0.561 -2.824,-1.885 -2.623,-3.709 0.228,-2.08 0.555,-4.235 1.341,-6.151 2.688,-6.55 5.591,-13.012 8.425,-19.501 2.75,-6.3 5.488,-12.604 8.281,-18.884 2.004,-4.506 4.097,-8.974 6.135,-13.464 0.44,-0.972 0.819,-1.971 1.13,-2.726 -2.987,-1.829 -6.003,-3.504 -8.839,-5.441 C 38.619,219.838 28.519,206.48 20.637,191.224 11.646,173.823 5.602,155.459 2.657,136.117 1.546,128.817 1.015,121.429 0.214,114.082 0.167,113.653 0.072,113.228 0,112.8 v -6.72 c 0.089,-0.422 0.207,-0.839 0.262,-1.266 0.588,-4.5 2.771,-6.515 7.308,-6.588 1.552,-0.025 3.12,0.098 4.657,0.322 0.878,0.128 1.383,-0.063 1.901,-0.771 2.782,-3.808 5.599,-7.59 8.427,-11.364 16.729,-22.324 33.448,-44.655 50.228,-66.941 1.574,-2.091 3.387,-4.07 5.37,-5.772 3.085,-2.649 7.315,-2.287 10.164,0.62 0.943,0.962 1.767,2.042 2.622,3.088 0.657,0.804 1.301,0.668 2.066,0.134 1.726,-1.204 3.419,-2.48 5.249,-3.506 C 111.578,6.563 125.706,1.574 141.041,0.39 142.748,0.258 144.455,0.13 146.162,0 Z"
             style="clip-rule:evenodd;fill-rule:evenodd"
             sodipodi:nodetypes="cccccccccccccccccccccccccccccccccccccccccccccccccccc" />
          <path
             inkscape:connector-curvature="0"
             id="path6447"
             d="m 146.16,0 c -1.707,0.129 -3.414,0.258 -5.121,0.39 -15.335,1.183 -29.463,6.173 -42.787,13.646 -1.83,1.026 -3.522,2.303 -5.249,3.506 -0.766,0.534 -1.409,0.67 -2.066,-0.134 -0.854,-1.046 -1.679,-2.126 -2.622,-3.088 -2.849,-2.907 -7.079,-3.269 -10.164,-0.62 -1.983,1.703 -3.796,3.681 -5.37,5.772 -16.779,22.285 -33.497,44.617 -50.227,66.941 -2.828,3.774 -5.645,7.557 -8.427,11.364 -0.518,0.708 -1.022,0.899 -1.901,0.771 -1.537,-0.224 -3.105,-0.347 -4.657,-0.322 -4.537,0.073 -6.719,2.088 -7.308,6.588 -0.056,0.426 -0.173,0.844 -0.262,1.266 C 0,70.72 0,35.36 0,0 48.72,0 97.44,0 146.16,0 Z"
             style="clip-rule:evenodd;fill:none;fill-rule:evenodd" />
          <path
             inkscape:connector-curvature="0"
             id="path6449"
             d="m 183.197,140.236 c -1.697,1.938 -3.241,3.799 -4.892,5.563 -2.45,2.619 -4.9,5.247 -7.493,7.722 -2.183,2.082 -4.576,3.942 -6.862,5.917 -1.866,1.613 -3.741,3.218 -5.559,4.885 -4.382,4.019 -8.682,8.125 -13.104,12.097 -5.646,5.071 -11.659,9.693 -18.02,13.825 -9.146,5.941 -18.295,11.885 -27.608,17.557 -6.916,4.213 -14.058,8.061 -21.169,11.941 -3.342,1.824 -6.827,3.396 -10.302,4.959 -0.578,0.26 -1.529,0.087 -2.15,-0.214 -2.878,-1.394 -5.73,-2.848 -8.536,-4.381 -9.376,-5.124 -16.179,-13.004 -22.469,-21.354 -7.719,-10.247 -13.002,-21.785 -17.269,-33.808 -4.062,-11.449 -6.77,-23.238 -8.171,-35.296 -0.825,-7.103 -1.264,-14.25 -1.859,-21.378 -0.063,-0.752 -0.008,-1.514 -0.008,-2.494 2.291,0.672 4.596,1.139 6.735,2.014 5.945,2.432 12.146,3.967 18.375,5.368 3.354,0.754 6.801,1.159 10.228,1.522 4.148,0.44 8.325,0.607 12.478,1.006 7.811,0.75 15.643,0.39 23.437,0.115 9.601,-0.339 19.188,-1.182 28.723,-2.631 8.964,-1.363 18.006,-2.209 27.015,-3.273 7.938,-0.938 15.877,-1.863 23.815,-2.788 0.437,-0.051 0.878,-0.09 1.315,-0.075 1,0.033 1.279,0.646 1.18,1.543 -0.232,2.086 -0.721,4.184 -0.64,6.259 0.296,7.617 2.854,14.218 8.968,19.191 3.26,2.651 6.93,4.437 10.852,5.773 0.871,0.296 1.85,0.279 2.99,0.435 z M 71.388,209.262 c -1.114,-1.39 -2.208,-2.639 -3.175,-3.979 -2.872,-3.979 -5.73,-7.97 -8.524,-12.005 -2.203,-3.183 -4.362,-6.4 -6.429,-9.673 -1.819,-2.881 -3.515,-5.842 -5.21,-8.799 -2.538,-4.426 -5.318,-8.705 -7.192,-13.509 -1.748,-4.478 -3.979,-8.764 -5.792,-13.218 -2.725,-6.696 -4.451,-13.631 -4.374,-20.936 0.022,-2.123 -0.169,-1.765 -1.926,-2.07 -3.063,-0.532 -6.143,-0.958 -9.508,-1.474 -0.034,1.616 -0.239,3.438 -0.08,5.228 0.544,6.132 1.872,12.116 3.643,18.009 2.579,8.579 5.648,16.986 9.454,25.084 2.034,4.326 4.658,8.379 7.062,12.528 5.833,10.076 13.097,19.017 21.555,26.998 0.294,0.278 0.765,0.58 1.122,0.546 3.239,-0.306 6.294,-1.276 9.374,-2.73 z M 41.113,126.986 c 0,1.677 -0.294,3.554 0.057,5.301 0.952,4.745 1.957,9.5 3.345,14.13 2.213,7.383 5.038,14.539 9.136,21.134 2.968,4.777 5.772,9.657 8.759,14.422 5.013,8 10.954,15.27 17.576,21.993 0.482,0.489 0.842,0.598 1.423,0.252 2.374,-1.412 4.761,-2.801 7.187,-4.224 -1.345,-1.807 -2.676,-3.525 -3.932,-5.297 -3.584,-5.055 -7.252,-10.057 -10.671,-15.223 -3.458,-5.225 -7.191,-10.277 -9.757,-16.077 -2.232,-5.043 -4.96,-9.866 -7.232,-14.893 -2.656,-5.877 -4.213,-12.071 -4.455,-18.555 -0.074,-1.994 -0.255,-1.762 -2.041,-1.986 -3.057,-0.383 -6.131,-0.644 -9.395,-0.977 z m 21.78,0.956 c -0.39,5.006 1.005,9.824 2.223,14.637 1.762,6.963 4.587,13.54 7.988,19.849 1.46,2.71 3.193,5.276 4.878,7.858 2.059,3.154 4.108,6.322 6.329,9.361 2.086,2.854 4.297,5.632 6.628,8.29 2.087,2.379 4.412,4.55 6.718,6.898 2.5,-1.74 4.849,-3.375 7.239,-5.039 -0.763,-1.13 -1.292,-2.192 -2.073,-3.019 -3.912,-4.143 -6.962,-8.93 -10.195,-13.57 -4.394,-6.309 -8.401,-12.848 -11.668,-19.843 -3.546,-7.593 -6.353,-15.344 -6.578,-23.833 -0.021,-0.826 -0.197,-1.478 -1.282,-1.414 -0.663,0.04 -1.336,-0.163 -2.006,-0.168 -2.701,-0.02 -5.402,-0.007 -8.201,-0.007 z"
             style="clip-rule:evenodd;fill:none;fill-rule:evenodd" />
          <path
             inkscape:connector-curvature="0"
             id="path6451"
             d="m 95.168,25.327 c 4.231,-2.581 7.984,-5.095 11.938,-7.238 9.49,-5.146 19.694,-8.046 30.411,-9.255 8.016,-0.905 16.04,-1.194 24.051,-0.186 23.32,2.934 42.382,13.313 55.783,32.923 7.423,10.862 10.022,23.198 9.298,36.27 -0.3,5.416 -0.986,10.78 -2.28,16.048 -0.679,2.765 -1.632,5.462 -2.291,8.231 -1.071,4.503 -3.183,8.605 -4.782,12.904 -1.267,3.405 -2.503,6.824 -3.862,10.192 -0.99,2.453 -2.187,4.821 -3.239,7.249 -1.19,2.745 -2.355,5.502 -3.474,8.278 -1.101,2.733 -2.049,5.529 -3.205,8.238 -2.739,6.416 -3.06,13.166 -2.819,19.979 0.063,1.799 0.573,3.583 0.847,5.192 -2.412,0.802 -4.81,1.556 -7.177,2.396 -3.679,1.307 -7.379,2.568 -10.991,4.041 -3.965,1.617 -7.864,3.401 -11.751,5.203 -5.003,2.319 -10.015,4.631 -14.934,7.122 -6.913,3.502 -13.718,7.22 -20.618,10.748 -8.86,4.531 -17.708,9.096 -26.678,13.4 -6.315,3.03 -12.556,6.288 -19.359,8.196 -1.653,0.464 -3.272,1.05 -4.98,1.402 0.194,-0.126 0.381,-0.266 0.584,-0.376 20.804,-11.285 40.042,-24.879 58.435,-39.707 17.381,-14.013 34.205,-28.67 50.262,-44.183 4.349,-4.202 8.318,-8.817 12.238,-13.434 2.679,-3.155 4.3,-6.91 5.408,-10.965 1.066,-3.897 0.757,-7.597 0.105,-11.489 -1.429,-8.532 -7.095,-13.326 -14.229,-16.909 -3.544,-1.78 -7.405,-2.588 -11.354,-2.662 -3.205,-0.06 -6.256,0.924 -9.244,2.018 -1.296,0.474 -2.728,0.821 -3.79,1.63 -1.408,1.072 -2.539,0.521 -3.661,-0.147 -3.9,-2.328 -7.759,-4.728 -11.618,-7.125 -2.957,-1.835 -5.984,-3.577 -8.809,-5.6 -2.931,-2.099 -5.605,-4.552 -8.485,-6.728 -2.622,-1.981 -5.366,-3.802 -8.06,-5.688 -5.043,-3.532 -9.499,-7.721 -13.789,-12.119 C 113.747,47.741 108.116,42.61 103.447,36.59 100.688,33.034 98.106,29.338 95.168,25.327 Z"
             style="clip-rule:evenodd;fill:none;fill-rule:evenodd" />
          <path
             inkscape:connector-curvature="0"
             id="path6453"
             d="m 205.682,208.15 c 2.266,0 4.471,-0.186 6.632,0.041 3.52,0.37 6.663,1.746 9.553,3.88 4.28,3.159 7.635,7.015 10.173,11.692 4.547,8.377 8.381,17.052 11.385,26.096 0.286,0.862 0.584,1.725 0.806,2.605 0.21,0.832 0.328,1.688 0.512,2.674 -2.43,-0.913 -4.79,-1.729 -7.094,-2.682 -5.918,-2.444 -11.89,-4.781 -17.696,-7.471 -8.529,-3.95 -17.267,-7.337 -26.23,-10.11 -3.89,-1.204 -7.913,-2.065 -11.935,-2.719 -3.033,-0.494 -6.098,0.154 -9.091,0.894 -5.435,1.344 -10.838,2.924 -15.593,5.887 -5.267,3.28 -10.41,6.823 -15.27,10.678 -5.455,4.326 -10.5,9.167 -15.785,13.712 -5.239,4.505 -11.058,8.2 -16.835,11.965 -7.711,5.024 -16.364,7.569 -25.123,9.81 -6.331,1.619 -12.726,3.013 -19.139,4.271 -3.174,0.623 -6.446,0.824 -9.686,1.011 -2.815,0.161 -5.646,0.033 -8.579,0.033 0.769,-1.91 1.496,-3.935 2.386,-5.884 2.671,-5.847 5.436,-11.65 8.107,-17.498 2.543,-5.567 4.897,-11.225 7.557,-16.735 1.716,-3.558 3.991,-6.846 5.71,-10.402 1.108,-2.294 2.507,-3.011 5.025,-2.854 7.018,0.436 13.747,-1.235 20.255,-3.67 5.971,-2.233 11.972,-4.469 17.708,-7.229 9.629,-4.634 19.093,-9.616 28.559,-14.582 8.464,-4.439 16.795,-9.132 25.263,-13.563 5.659,-2.96 11.416,-5.742 17.203,-8.446 5.051,-2.36 10.337,-4.091 15.85,-5.037 2.603,-0.446 5.222,-0.796 7.836,-1.174 1.724,-0.249 3.447,-0.578 5.182,-0.662 1.127,-0.055 2.279,0.228 3.407,0.433 1.744,0.317 3.523,0.533 4.711,2.155 1.1,1.502 1.748,3.068 0.875,4.854 -1.927,3.943 -4.641,7.295 -7.922,10.19 -2.777,2.45 -5.574,4.879 -8.356,7.324 -0.145,0.126 -0.229,0.319 -0.361,0.513 z"
             style="clip-rule:evenodd;fill:none;fill-rule:evenodd" />
          <path
             inkscape:connector-curvature="0"
             id="path6455"
             d="m 163.694,98.185 c -5.838,0.876 -11.664,1.834 -17.516,2.601 -4.695,0.615 -9.425,0.974 -14.135,1.488 -4.086,0.446 -8.163,0.979 -12.249,1.42 -4.056,0.438 -8.116,0.846 -12.181,1.194 -3.482,0.297 -6.973,0.513 -10.461,0.723 -3.184,0.191 -6.369,0.357 -9.556,0.475 -1.807,0.067 -3.619,0.012 -5.466,0.012 2.689,-5.788 5.346,-11.503 8.038,-17.298 -2.616,-1.489 -5.042,-2.869 -7.515,-4.277 -3.501,6.878 -7.013,13.742 -10.479,20.629 -0.427,0.848 -0.887,1.243 -1.891,1.208 -2.342,-0.082 -4.688,-0.026 -7.137,-0.026 0.36,-0.781 0.715,-1.673 1.17,-2.512 1.015,-1.873 2.149,-3.685 3.102,-5.587 0.793,-1.583 1.404,-3.257 2.086,-4.895 1.817,-4.364 3.714,-8.689 6.211,-12.722 0.104,-0.167 0.175,-0.354 0.279,-0.566 -2.825,-2.009 -5.654,-4.021 -8.666,-6.164 -1.993,3.775 -3.986,7.504 -5.938,11.255 -3.445,6.621 -6.874,13.251 -10.284,19.89 -0.345,0.672 -0.778,0.911 -1.508,0.822 -2.25,-0.273 -4.504,-0.513 -6.937,-0.786 0.37,-0.711 0.678,-1.329 1.007,-1.935 4.158,-7.666 8.359,-15.308 12.46,-23.004 1.784,-3.349 3.354,-6.81 5.045,-10.209 0.325,-0.654 0.239,-0.96 -0.424,-1.408 -1.896,-1.281 -3.691,-2.709 -5.646,-4.169 -0.984,1.318 -2.086,2.612 -2.988,4.034 -4.355,6.87 -8.707,13.744 -12.958,20.678 -2.522,4.114 -4.857,8.342 -7.273,12.521 -0.456,0.787 -1.02,1.189 -1.962,0.738 -1.142,-0.545 -2.338,-0.982 -3.458,-1.566 -1.35,-0.704 -1.482,-1.277 -0.701,-2.554 3,-4.908 5.961,-9.841 9.025,-14.71 13.804,-21.935 29.106,-42.75 46.48,-62.012 0.265,-0.294 0.54,-0.579 0.894,-0.958 0.284,0.337 0.543,0.614 0.768,0.917 6.238,8.412 12.333,16.935 18.759,25.2 3.923,5.046 7.97,10.042 12.962,14.152 5.796,4.771 11.485,9.675 17.321,14.396 4.441,3.593 8.951,7.116 13.594,10.442 4.603,3.297 9.41,6.309 14.128,9.446 1.319,0.877 2.639,1.754 3.958,2.631 0.013,0.161 0.028,0.323 0.042,0.486 z"
             style="clip-rule:evenodd;fill:none;fill-rule:evenodd" />
          <path
             inkscape:connector-curvature="0"
             id="path6457"
             d="m 205.259,110.84 c -0.146,4.067 -0.432,7.558 -2.074,10.66 -1.684,3.179 -4.022,5.897 -7.083,7.911 -4.021,2.646 -8.353,3.228 -13.057,2.34 -4.31,-0.814 -7.914,-2.936 -11.148,-5.664 -1.872,-1.578 -2.771,-3.972 -3.494,-6.329 -2.618,-8.524 1.068,-17.809 8.852,-22.296 7.749,-4.468 17.466,-3.126 23.466,3.491 2.635,2.908 4.428,6.374 4.538,9.887 z"
             style="clip-rule:evenodd;fill:none;fill-rule:evenodd" />
        </g>
      </g>
    </g>
    <g
       id="Ebene_1-9" />
  </g>
</svg>
