<?xml version="1.0" encoding="UTF-8" standalone="no"?>
<svg
   xmlns:dc="http://purl.org/dc/elements/1.1/"
   xmlns:cc="http://creativecommons.org/ns#"
   xmlns:rdf="http://www.w3.org/1999/02/22-rdf-syntax-ns#"
   xmlns:svg="http://www.w3.org/2000/svg"
   xmlns="http://www.w3.org/2000/svg"
   xmlns:sodipodi="http://sodipodi.sourceforge.net/DTD/sodipodi-0.dtd"
   xmlns:inkscape="http://www.inkscape.org/namespaces/inkscape"
   id="svg8"
   version="1.1"
   viewBox="0 0 144.40135 152.10136"
   height="152.10136mm"
   width="144.40135mm"
   sodipodi:docname="Weapons2.svg"
   inkscape:version="0.92.3 (2405546, 2018-03-11)">
  <sodipodi:namedview
     pagecolor="#ffffff"
     bordercolor="#666666"
     borderopacity="1"
     objecttolerance="10"
     gridtolerance="10"
     guidetolerance="10"
     inkscape:pageopacity="0"
     inkscape:pageshadow="2"
     inkscape:window-width="1920"
     inkscape:window-height="1017"
     id="namedview51"
     showgrid="false"
     inkscape:zoom="0.82105334"
     inkscape:cx="154.60388"
     inkscape:cy="296.07394"
     inkscape:window-x="3832"
     inkscape:window-y="-8"
     inkscape:window-maximized="1"
     inkscape:current-layer="svg8" />
  <defs
     id="defs2" />
  <metadata
     id="metadata5">
    <rdf:RDF>
      <cc:Work
         rdf:about="">
        <dc:format>image/svg+xml</dc:format>
        <dc:type
           rdf:resource="http://purl.org/dc/dcmitype/StillImage" />
        <dc:title />
      </cc:Work>
    </rdf:RDF>
  </metadata>
  <g
     id="g3313"
     transform="matrix(0.34397963,0,0,0.34397963,28.699477,6.356796)">
    <g
       id="Mantle1">
      <g
         id="g3289">
        <g
           id="g3287">
          <path
             inkscape:connector-curvature="0"
             id="path3271"
             d="M 0,108.24 C 0,72.16 0,36.08 0,0 c 77.28,0 154.56,0 231.84,0 -0.225,0.072 -0.444,0.174 -0.675,0.211 -9.166,1.476 -15.316,9.837 -14.007,19.05 1.155,8.127 8.203,14.28 16.422,14.336 8.276,0.057 15.55,-6.017 16.739,-13.979 C 251.594,11.076 246.733,3.174 238.687,0.743 237.7,0.445 236.682,0.245 235.679,0 c 6.159,0 12.318,0 18.479,0 0,136.462 0,272.925 0,409.414 -84.691,0 -169.383,0 -254.159,0 C 0,310.08 0,210.72 0,111.36 c 0.701,2.085 1.511,4.104 3.201,5.63 5.679,5.128 14.694,2.289 16.668,-5.226 0.13,-0.496 0.545,-1.05 0.985,-1.307 2.449,-1.43 5.062,-2.606 7.4,-4.191 3.598,-2.44 7.461,-3.217 11.756,-3.154 7.488,0.11 14.967,0.156 22.269,2.04 2.52,0.65 4.94,1.687 7.43,2.556 1.205,-3.062 2.423,-6.268 3.725,-9.44 3.079,-7.505 6.357,-14.916 10.578,-21.873 0.662,-1.091 1.476,-1.897 2.616,-2.511 4.221,-2.271 8.411,-4.602 12.576,-6.976 0.992,-0.565 1.911,-0.752 3.046,-0.576 4.217,0.657 8.679,-1.975 10.448,-6.061 1.765,-4.077 0.598,-8.876 -2.822,-11.605 -6.086,-4.857 -15.155,-1.296 -16.321,6.414 -0.125,0.826 -0.228,1.494 -1.148,2.003 -25.73,14.231 -51.436,28.505 -77.134,42.793 -0.724,0.403 -1.325,0.466 -2.124,0.22 C 7.532,98.367 1.751,101.64 0.276,107.332 0.198,107.638 0.093,107.938 0,108.24 Z m 126.949,134.524 c 0.315,0.526 0.526,0.861 0.721,1.206 15.766,27.85 31.514,55.709 47.305,83.544 5.244,9.243 10.289,18.618 15.961,27.594 12.312,19.478 27.266,36.886 43.092,53.564 0.175,0.184 0.387,0.332 0.773,0.659 0,-0.713 0.047,-1.185 -0.007,-1.645 -0.454,-3.884 -0.696,-7.811 -1.437,-11.641 -2.006,-10.382 -5.44,-20.354 -9.179,-30.22 -4.146,-10.945 -8.407,-21.875 -13.911,-32.203 -21.549,-40.436 -43.299,-80.765 -64.996,-121.121 -0.448,-0.834 -0.439,-1.443 0.028,-2.269 19.27,-33.992 38.515,-67.999 57.762,-102.003 0.241,-0.426 0.47,-0.858 0.81,-1.48 -7.167,1.292 -14.083,2.521 -20.988,3.803 -1.021,0.189 -1.578,0.036 -2.03,-1.006 -2.09,-4.822 -4.271,-9.604 -6.422,-14.399 -0.398,-0.889 -0.811,-1.771 -1.295,-2.826 -15.424,28.72 -30.755,57.268 -46.188,86.004 -15.456,-28.782 -30.779,-57.316 -46.181,-85.996 -0.251,0.532 -0.433,0.916 -0.614,1.299 -2.428,5.148 -4.901,10.275 -7.254,15.457 -0.625,1.375 -1.567,1.471 -2.765,1.26 -3.737,-0.661 -7.471,-1.337 -11.208,-2.001 -2.897,-0.515 -5.797,-1.02 -8.872,-1.56 0.293,0.549 0.49,0.936 0.703,1.312 19.267,34.04 38.53,68.082 57.826,102.104 0.504,0.89 0.468,1.5 0,2.369 -15.861,29.48 -31.694,58.975 -47.53,88.469 -6.009,11.191 -12.31,22.239 -17.951,33.614 -7.279,14.676 -13.406,29.867 -18.384,45.495 -2.451,7.697 -4.564,15.48 -5.398,23.549 -0.187,1.806 -0.198,3.63 -0.29,5.445 0.143,0.07 0.286,0.141 0.43,0.211 0.342,-0.438 0.664,-0.894 1.03,-1.311 7.708,-8.77 15.595,-17.388 23.085,-26.339 8.756,-10.463 16.808,-21.481 23.558,-33.37 19.727,-34.743 39.378,-69.528 59.061,-104.297 0.213,-0.372 0.439,-0.738 0.755,-1.271 z m 57.305,-135.153 c 2.818,-0.919 5.562,-2.05 8.414,-2.7 9.008,-2.055 18.161,-1.996 27.323,-1.484 0.411,0.023 0.836,0.235 1.21,0.441 3.954,2.177 7.908,4.352 11.83,6.584 0.442,0.251 0.861,0.809 0.99,1.303 1.387,5.305 6.57,8.696 11.777,7.643 5.681,-1.149 9.144,-6.458 7.832,-12.008 -1.309,-5.54 -7.113,-8.977 -12.587,-7.36 -1.067,0.315 -1.854,0.165 -2.783,-0.352 -25.409,-14.132 -50.829,-28.245 -76.268,-42.324 -1.048,-0.58 -1.539,-1.212 -1.693,-2.419 -0.607,-4.733 -4.808,-8.318 -9.734,-8.454 -4.848,-0.133 -8.983,3.112 -9.971,7.826 -1.416,6.755 4.462,13.008 11.305,11.99 0.916,-0.136 1.68,-0.018 2.495,0.443 4.45,2.514 8.942,4.958 13.387,7.481 0.658,0.374 1.335,0.947 1.682,1.599 2.68,5.036 5.464,10.029 7.856,15.202 2.543,5.498 4.693,11.178 6.935,16.589 z M 2.642,17.194 c -0.031,9.272 7.45,16.843 16.683,16.885 9.278,0.042 16.863,-7.427 16.914,-16.653 C 36.29,8.091 28.791,0.5 19.496,0.481 10.228,0.461 2.672,7.954 2.642,17.194 Z M 215.778,28.4 c -7.474,13.464 -14.863,26.775 -22.29,40.153 5.908,3.279 11.688,6.487 17.523,9.726 7.455,-13.429 14.847,-26.744 22.298,-40.168 -7.938,0.476 -13.692,-2.695 -17.531,-9.711 z M 20.748,38.399 C 28.171,51.771 35.519,65.005 42.89,78.283 48.809,74.993 54.581,71.785 60.408,68.547 52.915,55.05 45.511,41.715 38.056,28.286 34.465,35.341 28.765,38.682 20.748,38.399 Z"
             style="clip-rule:evenodd;fill:none;fill-rule:evenodd" />
          <path
             inkscape:connector-curvature="0"
             id="path3273"
             d="m 0,108.24 c 0.093,-0.302 0.197,-0.602 0.276,-0.908 1.475,-5.691 7.255,-8.965 12.873,-7.236 0.798,0.246 1.399,0.183 2.124,-0.22 25.698,-14.288 51.404,-28.563 77.134,-42.793 0.921,-0.509 1.023,-1.177 1.148,-2.003 1.167,-7.71 10.235,-11.271 16.321,-6.414 3.42,2.729 4.587,7.528 2.822,11.605 -1.769,4.086 -6.231,6.717 -10.448,6.061 -1.135,-0.177 -2.054,0.01 -3.046,0.576 -4.165,2.375 -8.354,4.705 -12.576,6.976 -1.141,0.614 -1.954,1.42 -2.616,2.511 -4.22,6.957 -7.499,14.367 -10.578,21.873 -1.301,3.173 -2.52,6.379 -3.725,9.44 -2.49,-0.869 -4.91,-1.906 -7.43,-2.556 -7.302,-1.884 -14.781,-1.93 -22.269,-2.04 -4.295,-0.063 -8.158,0.713 -11.756,3.154 -2.338,1.585 -4.952,2.761 -7.4,4.191 -0.44,0.257 -0.855,0.811 -0.985,1.307 -1.975,7.514 -10.989,10.354 -16.668,5.226 -1.69,-1.526 -2.5,-3.545 -3.201,-5.63 0,-1.04 0,-2.08 0,-3.12 z"
             style="clip-rule:evenodd;fill-rule:evenodd" />
          <path
             inkscape:connector-curvature="0"
             id="path3275"
             d="m 235.681,0 c 1.003,0.245 2.021,0.445 3.008,0.743 8.046,2.432 12.907,10.334 11.632,18.875 -1.189,7.962 -8.463,14.036 -16.739,13.979 -8.219,-0.057 -15.267,-6.209 -16.422,-14.336 -1.31,-9.213 4.841,-17.575 14.007,-19.05 0.23,-0.037 0.45,-0.139 0.675,-0.211 1.278,0 2.558,0 3.839,0 z"
             style="clip-rule:evenodd;fill-rule:evenodd" />
          <path
             inkscape:connector-curvature="0"
             id="path3277"
             d="m 126.949,242.764 c -0.316,0.533 -0.542,0.899 -0.754,1.273 -19.682,34.769 -39.333,69.554 -59.061,104.297 -6.75,11.889 -14.801,22.907 -23.558,33.37 -7.491,8.951 -15.378,17.569 -23.085,26.339 -0.366,0.417 -0.688,0.873 -1.03,1.311 -0.144,-0.07 -0.287,-0.141 -0.43,-0.211 0.092,-1.815 0.103,-3.64 0.29,-5.445 0.834,-8.068 2.947,-15.852 5.398,-23.549 4.978,-15.628 11.105,-30.819 18.384,-45.495 5.641,-11.375 11.941,-22.423 17.951,-33.614 15.836,-29.494 31.668,-58.988 47.53,-88.469 0.467,-0.869 0.504,-1.479 0,-2.369 -19.296,-34.023 -38.56,-68.064 -57.826,-102.104 -0.213,-0.376 -0.409,-0.763 -0.703,-1.312 3.075,0.541 5.975,1.045 8.872,1.56 3.736,0.664 7.471,1.34 11.208,2.001 1.198,0.211 2.14,0.115 2.765,-1.26 2.354,-5.181 4.826,-10.309 7.254,-15.457 0.181,-0.383 0.363,-0.767 0.614,-1.299 15.401,28.68 30.725,57.214 46.181,85.996 15.433,-28.736 30.764,-57.285 46.188,-86.004 0.484,1.055 0.896,1.937 1.295,2.826 2.151,4.795 4.332,9.577 6.422,14.399 0.452,1.042 1.009,1.196 2.03,1.006 6.905,-1.282 13.821,-2.511 20.988,-3.803 -0.34,0.622 -0.568,1.054 -0.81,1.48 -19.247,34.004 -38.492,68.011 -57.762,102.003 -0.468,0.825 -0.477,1.435 -0.028,2.269 21.697,40.356 43.447,80.686 64.996,121.121 5.504,10.328 9.765,21.258 13.911,32.203 3.738,9.866 7.173,19.838 9.179,30.22 0.74,3.83 0.982,7.757 1.437,11.641 0.054,0.46 0.007,0.932 0.007,1.645 -0.387,-0.327 -0.599,-0.476 -0.773,-0.659 -15.826,-16.679 -30.78,-34.087 -43.092,-53.564 -5.672,-8.976 -10.717,-18.351 -15.961,-27.594 -15.791,-27.835 -31.539,-55.694 -47.305,-83.544 -0.196,-0.347 -0.407,-0.682 -0.722,-1.208 z"
             style="clip-rule:evenodd;fill-rule:evenodd" />
          <path
             inkscape:connector-curvature="0"
             id="path3279"
             d="m 184.254,107.611 c -2.242,-5.411 -4.392,-11.091 -6.935,-16.589 -2.393,-5.173 -5.177,-10.166 -7.856,-15.202 -0.347,-0.652 -1.023,-1.226 -1.682,-1.599 -4.444,-2.524 -8.937,-4.967 -13.387,-7.481 -0.815,-0.461 -1.579,-0.58 -2.495,-0.443 -6.843,1.018 -12.721,-5.235 -11.305,-11.99 0.987,-4.713 5.123,-7.958 9.971,-7.826 4.927,0.135 9.127,3.721 9.734,8.454 0.154,1.207 0.646,1.84 1.693,2.419 25.438,14.079 50.858,28.192 76.268,42.324 0.93,0.517 1.716,0.667 2.783,0.352 5.474,-1.617 11.278,1.821 12.587,7.36 1.312,5.55 -2.151,10.858 -7.832,12.008 -5.207,1.053 -10.391,-2.337 -11.777,-7.643 -0.129,-0.494 -0.548,-1.051 -0.99,-1.303 -3.922,-2.232 -7.876,-4.407 -11.83,-6.584 -0.374,-0.206 -0.799,-0.418 -1.21,-0.441 -9.162,-0.512 -18.315,-0.57 -27.323,1.484 -2.853,0.651 -5.596,1.781 -8.414,2.7 z"
             style="clip-rule:evenodd;fill-rule:evenodd" />
          <path
             inkscape:connector-curvature="0"
             id="path3281"
             d="M 2.642,17.194 C 2.672,7.953 10.228,0.461 19.496,0.481 28.79,0.501 36.29,8.091 36.239,17.426 36.188,26.653 28.603,34.121 19.325,34.079 10.091,34.037 2.611,26.466 2.642,17.194 Z"
             style="clip-rule:evenodd;fill-rule:evenodd" />
          <path
             inkscape:connector-curvature="0"
             id="path3283"
             d="m 215.778,28.4 c 3.839,7.016 9.593,10.188 17.531,9.711 -7.451,13.424 -14.843,26.739 -22.298,40.168 -5.836,-3.239 -11.615,-6.447 -17.523,-9.726 7.427,-13.378 14.817,-26.689 22.29,-40.153 z"
             style="clip-rule:evenodd;fill-rule:evenodd" />
          <path
             inkscape:connector-curvature="0"
             id="path3285"
             d="M 20.748,38.399 C 28.765,38.682 34.466,35.341 38.056,28.286 45.512,41.715 52.915,55.05 60.408,68.547 54.582,71.785 48.81,74.993 42.89,78.283 35.518,65.005 28.171,51.771 20.748,38.399 Z"
             style="clip-rule:evenodd;fill-rule:evenodd" />
        </g>
      </g>
    </g>
    <g
       id="Ebene_1-1" />
  </g>
</svg>
