<?xml version="1.0" encoding="UTF-8" standalone="no"?>
<svg
   xmlns:dc="http://purl.org/dc/elements/1.1/"
   xmlns:cc="http://creativecommons.org/ns#"
   xmlns:rdf="http://www.w3.org/1999/02/22-rdf-syntax-ns#"
   xmlns:svg="http://www.w3.org/2000/svg"
   xmlns="http://www.w3.org/2000/svg"
   xmlns:sodipodi="http://sodipodi.sourceforge.net/DTD/sodipodi-0.dtd"
   xmlns:inkscape="http://www.inkscape.org/namespaces/inkscape"
   id="svg8"
   version="1.1"
   viewBox="0 0 144.40135 152.10136"
   height="152.10136mm"
   width="144.40135mm"
   sodipodi:docname="Weapons3.svg"
   inkscape:version="0.92.3 (2405546, 2018-03-11)">
  <sodipodi:namedview
     pagecolor="#ffffff"
     bordercolor="#666666"
     borderopacity="1"
     objecttolerance="10"
     gridtolerance="10"
     guidetolerance="10"
     inkscape:pageopacity="0"
     inkscape:pageshadow="2"
     inkscape:window-width="1920"
     inkscape:window-height="1017"
     id="namedview51"
     showgrid="false"
     inkscape:zoom="1.1611448"
     inkscape:cx="247.55292"
     inkscape:cy="353.65127"
     inkscape:window-x="3832"
     inkscape:window-y="-8"
     inkscape:window-maximized="1"
     inkscape:current-layer="svg8" />
  <defs
     id="defs2" />
  <metadata
     id="metadata5">
    <rdf:RDF>
      <cc:Work
         rdf:about="">
        <dc:format>image/svg+xml</dc:format>
        <dc:type
           rdf:resource="http://purl.org/dc/dcmitype/StillImage" />
        <dc:title />
      </cc:Work>
    </rdf:RDF>
  </metadata>
  <g
     id="g3103"
     transform="matrix(0.26458333,0,0,0.26458333,7.645835,5)">
    <g
       id="Mantle2">
      <g
         id="g3085">
        <g
           id="g3083">
          <path
             inkscape:connector-curvature="0"
             id="path3079"
             d="m 489.076,537.076 c -163.048,0 -326.073,0 -489.076,0 C 0,358.028 0,179.003 0,0 c 163.047,0 326.072,0 489.076,0 0,179.047 0,358.072 0,537.076 z M 120.143,149.777 c 0.711,1.212 1.374,2.196 1.891,3.25 3.373,6.875 6.652,13.797 10.081,20.645 4.109,8.207 8.377,16.334 12.501,24.534 4.732,9.41 9.334,18.885 14.078,28.289 4.745,9.407 9.63,18.743 14.386,28.144 3.376,6.673 6.617,13.416 9.961,20.106 3.281,6.564 6.626,13.096 9.922,19.652 2.726,5.423 5.396,10.874 8.138,16.289 2.595,5.127 5.286,10.206 7.874,15.338 4.13,8.192 8.206,16.413 12.313,24.618 3.309,6.61 6.609,13.225 9.963,19.812 0.57,1.119 0.531,2.033 -0.042,3.141 -2.241,4.326 -4.392,8.698 -6.577,13.054 -1.249,2.489 -2.302,5.104 -3.787,7.444 -3.255,5.133 -5.735,10.656 -8.468,16.052 -2.34,4.622 -4.521,9.324 -6.829,13.963 -2.665,5.358 -5.411,10.677 -8.084,16.03 -2.332,4.669 -4.599,9.369 -6.916,14.045 -2.69,5.429 -5.422,10.838 -8.105,16.271 -2.96,5.995 -5.853,12.024 -8.837,18.008 -2.767,5.548 -5.682,11.022 -8.394,16.597 -0.894,1.836 -1.947,3.33 -3.602,4.604 -5.127,3.95 -6.985,10.901 -4.728,16.838 2.63,6.917 9.649,10.878 16.931,9.554 6.993,-1.271 12.102,-7.476 12.151,-14.918 0.009,-1.332 0.25,-2.492 0.844,-3.657 1.591,-3.123 3.162,-6.257 4.678,-9.417 8.788,-18.315 17.548,-36.644 26.335,-54.959 8.334,-17.372 16.685,-34.736 25.043,-52.097 0.503,-1.045 1.137,-2.027 1.852,-3.288 0.421,0.622 0.667,0.913 0.835,1.243 1.806,3.561 3.661,7.098 5.387,10.696 10.381,21.63 20.722,43.278 31.096,64.91 6.36,13.261 12.731,26.516 19.157,39.743 1.362,2.805 2.343,5.561 2.622,8.78 0.53,6.114 4.12,10.376 9.915,12.357 5.786,1.979 11.106,0.723 15.486,-3.595 6.441,-6.348 5.74,-16.855 -1.494,-22.375 -1.465,-1.118 -2.444,-2.426 -3.22,-4.025 -1.939,-4.003 -3.916,-7.988 -5.92,-11.96 -2.364,-4.688 -4.818,-9.33 -7.151,-14.034 -2.549,-5.14 -4.979,-10.339 -7.506,-15.49 -2.682,-5.472 -5.413,-10.919 -8.126,-16.376 -2.415,-4.855 -4.826,-9.714 -7.255,-14.563 -2.357,-4.706 -4.761,-9.391 -7.098,-14.106 -2.584,-5.215 -5.059,-10.485 -7.688,-15.677 -2.479,-4.894 -5.124,-9.702 -7.651,-14.571 -2.575,-4.961 -5.048,-9.976 -7.67,-14.911 -0.686,-1.289 -0.639,-2.324 -0.015,-3.578 2.269,-4.552 4.39,-9.177 6.693,-13.711 2.854,-5.613 5.885,-11.136 8.743,-16.747 3.225,-6.328 6.332,-12.716 9.51,-19.067 3.464,-6.924 6.941,-13.84 10.428,-20.752 2.624,-5.201 5.291,-10.381 7.9,-15.588 1.857,-3.706 3.659,-7.438 5.471,-11.166 1.146,-2.359 2.207,-4.761 3.406,-7.093 3.208,-6.24 6.515,-12.429 9.701,-18.68 4.928,-9.666 9.791,-19.364 14.676,-29.052 3.918,-7.772 7.828,-15.549 11.741,-23.323 4.055,-8.055 8.137,-16.096 12.154,-24.168 2.418,-4.857 4.72,-9.773 7.111,-14.645 1.041,-2.121 2.178,-4.194 3.324,-6.39 1.123,0.458 1.982,0.81 2.868,1.171 2.456,-4.702 4.872,-9.328 7.464,-14.29 2.079,1.392 3.926,2.475 5.602,3.777 5.474,4.253 9.882,9.504 13.667,15.261 3.518,5.349 6.208,11.133 8.318,17.176 0.894,2.559 1.937,5.106 2.446,7.749 0.771,3.99 1.336,8.044 1.616,12.097 0.348,5.022 0.155,10.051 -1.563,14.891 -0.139,0.389 -0.066,0.854 -0.115,1.68 2.705,-0.892 5.107,-1.697 7.518,-2.477 6.459,-2.09 12.597,-4.962 18.509,-8.226 4.737,-2.615 9.272,-5.642 13.688,-8.779 5.811,-4.126 10.935,-9.077 15.577,-14.473 4.112,-4.78 7.759,-9.894 10.864,-15.425 4.129,-7.356 7.3,-15.057 9.381,-23.215 0.592,-2.319 1.264,-4.64 1.582,-7.002 0.639,-4.734 1.193,-9.487 1.526,-14.251 0.254,-3.639 0.343,-7.322 0.09,-10.957 -0.325,-4.675 -0.912,-9.347 -1.661,-13.976 -1.212,-7.495 -3.003,-14.866 -5.491,-22.052 -0.268,-0.772 -0.701,-1.487 -1.169,-2.458 -1.077,1.408 -1.826,2.549 -2.734,3.545 -3.211,3.522 -6.144,7.402 -9.8,10.389 -5.05,4.124 -10.716,7.402 -16.999,9.555 -5.524,1.894 -11.186,2.809 -16.935,2.555 -7.23,-0.32 -14.208,-2.063 -20.74,-5.312 -1.431,-0.711 -2.872,-1.422 -4.222,-2.271 -1.071,-0.674 -2.21,-1.466 -2.095,-2.975 0.277,-3.643 0.475,-7.3 0.978,-10.914 0.438,-3.152 1.261,-6.251 1.896,-9.376 1.443,-7.104 2.882,-14.209 4.31,-21.317 0.437,-2.173 0.83,-4.355 1.242,-6.533 -2.271,2.014 -4.108,4.193 -5.979,6.344 -4.974,5.718 -9.921,11.461 -14.959,17.122 -3.39,3.808 -6.899,7.51 -10.391,11.226 -1.34,1.426 -2.955,1.759 -4.803,0.964 -4.938,-2.125 -9.576,-4.751 -13.783,-8.113 -4.794,-3.831 -8.651,-8.441 -11.729,-13.757 -2.263,-3.907 -3.902,-8.026 -4.878,-12.414 -1.307,-5.874 -1.959,-11.826 -1.482,-17.836 0.205,-2.59 0.802,-5.154 1.294,-7.716 0.519,-2.699 1.126,-5.38 1.762,-8.389 -1.117,0.21 -1.998,0.241 -2.771,0.544 -4.887,1.919 -9.74,3.923 -14.623,5.853 -5.737,2.268 -11.093,5.284 -16.241,8.618 -6.164,3.993 -11.977,8.464 -17.262,13.614 -7.788,7.587 -14.233,16.141 -19.229,25.796 -3.097,5.986 -5.493,12.255 -7.183,18.758 -1.826,7.032 -2.961,14.178 -3.197,21.483 -0.188,5.836 -0.131,11.639 0.576,17.428 0.891,7.295 2.441,14.458 4.589,21.483 0.785,2.566 1.76,5.074 2.8,8.044 1.127,-1.322 1.933,-2.282 2.756,-3.225 0.629,-0.72 1.247,-1.454 1.928,-2.123 3.793,-3.723 8.172,-6.597 12.863,-9.071 6.91,-3.644 14.21,-6.063 21.847,-7.628 5.274,-1.081 10.58,-1.451 15.945,-1.465 6.628,-0.019 13.005,1.234 19.191,3.533 1.604,0.596 1.732,1.017 0.976,2.527 -1.038,2.07 -2.157,4.1 -3.196,6.17 -1.133,2.259 -2.214,4.544 -3.316,6.815 0.971,0.661 1.735,1.18 2.568,1.747 -2.211,4.333 -4.369,8.502 -6.475,12.698 -5.475,10.911 -10.914,21.84 -16.395,32.748 -3.009,5.987 -6.101,11.932 -9.108,17.92 -3.51,6.988 -6.945,14.015 -10.458,21.002 -3.22,6.405 -6.514,12.772 -9.75,19.169 -4.543,8.981 -9.069,17.97 -13.593,26.961 -4.268,8.484 -8.524,16.975 -12.781,25.465 -3.398,6.779 -6.786,13.564 -10.187,20.342 -2.756,5.492 -5.544,10.967 -8.279,16.468 -2.024,4.073 -3.976,8.183 -5.998,12.256 -0.221,0.445 -0.636,0.977 -1.064,1.097 -0.76,0.214 -1.052,-0.448 -1.306,-1.086 -0.561,-1.407 -1.109,-2.828 -1.79,-4.181 -4.839,-9.624 -9.719,-19.229 -14.57,-28.849 -3.452,-6.844 -6.865,-13.707 -10.321,-20.549 -4.067,-8.051 -8.179,-16.079 -12.242,-24.131 -3.238,-6.417 -6.415,-12.865 -9.653,-19.282 -2.727,-5.405 -5.526,-10.773 -8.251,-16.18 -3.269,-6.485 -6.473,-13.003 -9.739,-19.489 -3.339,-6.628 -6.746,-13.222 -10.077,-19.854 -3.937,-7.838 -7.799,-15.714 -11.737,-23.552 -4.155,-8.27 -8.367,-16.511 -12.538,-24.772 -0.707,-1.401 -1.333,-2.843 -2.011,-4.298 0.903,-0.603 1.672,-1.116 2.56,-1.709 -2.157,-4.253 -4.247,-8.382 -6.344,-12.507 -1.004,-1.975 -0.851,-2.435 1.191,-3.144 3.624,-1.258 7.308,-2.29 11.123,-2.792 7.422,-0.977 14.801,-0.693 22.161,0.655 7.906,1.448 15.473,3.856 22.628,7.555 6.448,3.333 12.348,7.34 16.811,13.187 0.332,0.435 0.574,0.938 0.858,1.41 0.207,-0.096 0.413,-0.192 0.62,-0.289 0.624,-1.699 1.349,-3.37 1.85,-5.105 1.012,-3.51 1.815,-7.082 2.861,-10.582 1.844,-6.166 2.743,-12.515 3.105,-18.875 0.435,-7.627 0.186,-15.261 -1.019,-22.879 -1.104,-6.985 -2.854,-13.745 -5.348,-20.327 -4.325,-11.415 -10.787,-21.506 -19.042,-30.481 -3.627,-3.943 -7.457,-7.657 -11.756,-10.862 -3.327,-2.48 -6.581,-5.084 -10.069,-7.316 -5.237,-3.35 -10.701,-6.336 -16.472,-8.696 -4.788,-1.958 -9.603,-3.849 -14.431,-5.706 -0.669,-0.257 -1.48,-0.149 -2.436,-0.228 0.293,1.125 0.53,1.883 0.686,2.656 0.787,3.891 1.762,7.759 2.278,11.687 0.797,6.059 0.144,12.084 -0.99,18.076 -1.256,6.631 -4.006,12.58 -7.88,18.048 -5.808,8.197 -13.696,13.707 -22.807,17.649 -1.84,0.796 -3.16,0.509 -4.673,-0.96 C 100.548,62.67 95.534,56.777 90.412,50.98 86.352,46.386 82.4,41.696 78.39,37.059 c -1.131,-1.308 -2.299,-2.583 -3.451,-3.873 0.242,3.028 0.833,5.879 1.418,8.732 1.586,7.732 3.216,15.455 4.738,23.2 0.908,4.615 1.538,9.286 2.503,13.887 0.535,2.55 -0.49,4.127 -2.445,5.41 -0.4,0.262 -0.818,0.513 -1.257,0.7 -3.814,1.625 -7.56,3.457 -11.474,4.792 C 63.18,91.695 57.681,92.26 52.155,92.029 47.429,91.832 42.848,90.828 38.353,89.251 32.244,87.108 26.743,83.824 21.841,79.795 17.882,76.541 14.306,72.697 11.365,68.385 10.852,67.633 10.245,66.946 9.417,65.893 7.451,71.22 5.761,76.097 4.778,81.189 3.919,85.64 3.037,90.09 2.356,94.57 c -0.551,3.626 -1.027,7.288 -1.153,10.947 -0.139,4.041 -0.006,8.109 0.311,12.143 0.354,4.519 0.808,9.058 1.654,13.505 1.058,5.558 2.673,10.98 4.716,16.295 2.536,6.598 5.774,12.817 9.706,18.631 2.715,4.014 5.925,7.711 9.094,11.395 4.653,5.41 10.107,9.974 15.897,14.108 5.186,3.703 10.774,6.746 16.452,9.646 5.138,2.625 10.547,4.539 15.946,6.482 1.575,0.567 3.179,1.431 5.284,1.104 -1.82,-4.691 -2.084,-9.437 -2.098,-14.229 -0.014,-4.992 0.689,-9.958 1.973,-14.684 1.938,-7.135 4.624,-14.041 8.374,-20.536 4.247,-7.354 9.439,-13.815 16.065,-19.086 1.62,-1.289 3.229,-2.83 5.594,-3.209 2.436,4.686 4.815,9.262 7.24,13.927 0.865,-0.384 1.647,-0.739 2.732,-1.232 z"
             style="clip-rule:evenodd;fill:none;fill-rule:evenodd" />
          <path
             inkscape:connector-curvature="0"
             id="path3081"
             d="m 120.143,149.777 c -1.085,0.493 -1.867,0.848 -2.725,1.238 -2.425,-4.665 -4.804,-9.241 -7.24,-13.927 -2.366,0.379 -3.974,1.921 -5.594,3.209 -6.626,5.271 -11.819,11.731 -16.065,19.086 -3.75,6.495 -6.436,13.401 -8.374,20.536 -1.284,4.726 -1.986,9.692 -1.973,14.684 0.014,4.792 0.278,9.537 2.098,14.229 -2.105,0.327 -3.709,-0.537 -5.284,-1.104 -5.399,-1.943 -10.808,-3.857 -15.946,-6.482 -5.677,-2.899 -11.266,-5.943 -16.452,-9.646 -5.79,-4.134 -11.244,-8.698 -15.897,-14.108 -3.169,-3.684 -6.379,-7.381 -9.094,-11.395 -3.932,-5.814 -7.17,-12.033 -9.706,-18.631 C 5.848,142.151 4.233,136.729 3.175,131.171 2.329,126.724 1.876,122.185 1.521,117.666 1.205,113.633 1.071,109.564 1.21,105.523 1.336,101.864 1.813,98.202 2.363,94.576 3.044,90.097 3.926,85.646 4.785,81.195 5.768,76.103 7.458,71.226 9.424,65.899 c 0.828,1.052 1.435,1.74 1.948,2.492 2.941,4.312 6.517,8.156 10.476,11.41 4.902,4.029 10.403,7.313 16.512,9.456 4.495,1.577 9.076,2.581 13.802,2.778 5.525,0.23 11.025,-0.334 16.267,-2.122 3.915,-1.335 7.66,-3.168 11.474,-4.792 0.439,-0.187 0.857,-0.438 1.257,-0.7 1.955,-1.283 2.979,-2.86 2.445,-5.41 C 82.64,74.409 82.01,69.739 81.102,65.124 79.58,57.379 77.95,49.656 76.364,41.924 c -0.585,-2.853 -1.176,-5.705 -1.418,-8.732 1.151,1.29 2.32,2.565 3.451,3.873 4.01,4.638 7.962,9.327 12.022,13.921 5.122,5.797 10.136,11.689 15.699,17.092 1.513,1.469 2.833,1.756 4.673,0.96 9.111,-3.942 16.999,-9.452 22.807,-17.649 3.874,-5.468 6.625,-11.417 7.88,-18.048 1.134,-5.992 1.788,-12.018 0.99,-18.076 -0.517,-3.928 -1.491,-7.796 -2.278,-11.687 -0.156,-0.773 -0.393,-1.53 -0.686,-2.656 0.955,0.078 1.766,-0.03 2.436,0.228 4.828,1.857 9.643,3.748 14.431,5.706 5.771,2.36 11.234,5.346 16.472,8.696 3.489,2.232 6.743,4.835 10.069,7.316 4.299,3.205 8.128,6.918 11.756,10.862 8.254,8.975 14.716,19.066 19.042,30.481 2.494,6.582 4.244,13.342 5.348,20.327 1.205,7.618 1.454,15.252 1.019,22.879 -0.362,6.361 -1.262,12.71 -3.105,18.875 -1.046,3.5 -1.849,7.071 -2.861,10.582 -0.5,1.735 -1.226,3.406 -1.85,5.105 -0.207,0.096 -0.414,0.192 -0.62,0.289 -0.284,-0.472 -0.526,-0.975 -0.858,-1.41 -4.463,-5.847 -10.363,-9.854 -16.811,-13.187 -7.155,-3.699 -14.722,-6.107 -22.628,-7.555 -7.36,-1.348 -14.738,-1.632 -22.161,-0.655 -3.815,0.502 -7.499,1.534 -11.123,2.792 -2.042,0.709 -2.196,1.168 -1.191,3.144 2.097,4.125 4.187,8.253 6.344,12.507 -0.888,0.593 -1.657,1.106 -2.56,1.709 0.679,1.456 1.304,2.897 2.011,4.298 4.171,8.262 8.383,16.503 12.538,24.772 3.938,7.838 7.8,15.713 11.737,23.552 3.331,6.632 6.738,13.226 10.077,19.854 3.267,6.486 6.471,13.003 9.739,19.489 2.725,5.406 5.524,10.775 8.251,16.18 3.238,6.417 6.415,12.865 9.653,19.282 4.063,8.052 8.175,16.081 12.242,24.131 3.457,6.842 6.87,13.705 10.321,20.549 4.851,9.619 9.73,19.225 14.57,28.849 0.68,1.353 1.229,2.773 1.79,4.181 0.254,0.638 0.545,1.3 1.306,1.086 0.429,-0.12 0.843,-0.651 1.064,-1.097 2.022,-4.073 3.973,-8.183 5.998,-12.256 2.735,-5.501 5.523,-10.976 8.279,-16.468 3.4,-6.777 6.788,-13.563 10.187,-20.342 4.257,-8.49 8.514,-16.98 12.781,-25.465 4.523,-8.991 9.05,-17.98 13.593,-26.961 3.236,-6.396 6.53,-12.764 9.75,-19.169 3.513,-6.988 6.948,-14.014 10.458,-21.002 3.008,-5.988 6.1,-11.933 9.108,-17.92 5.48,-10.908 10.92,-21.837 16.395,-32.748 2.105,-4.195 4.264,-8.365 6.475,-12.698 -0.833,-0.566 -1.598,-1.086 -2.568,-1.747 1.103,-2.271 2.184,-4.557 3.316,-6.815 1.039,-2.07 2.158,-4.1 3.196,-6.17 0.757,-1.51 0.628,-1.931 -0.976,-2.527 -6.187,-2.299 -12.563,-3.552 -19.191,-3.533 -5.365,0.015 -10.671,0.385 -15.945,1.465 -7.637,1.564 -14.937,3.984 -21.847,7.628 -4.691,2.474 -9.07,5.348 -12.863,9.071 -0.681,0.668 -1.299,1.402 -1.928,2.123 -0.823,0.943 -1.629,1.903 -2.756,3.225 -1.04,-2.97 -2.015,-5.479 -2.8,-8.044 -2.147,-7.025 -3.698,-14.188 -4.589,-21.483 -0.707,-5.789 -0.765,-11.591 -0.576,-17.428 0.236,-7.306 1.371,-14.452 3.197,-21.483 1.689,-6.503 4.086,-12.772 7.183,-18.758 4.995,-9.655 11.44,-18.209 19.229,-25.796 5.285,-5.149 11.098,-9.621 17.262,-13.614 5.148,-3.334 10.504,-6.351 16.241,-8.618 4.883,-1.93 9.736,-3.934 14.623,-5.853 0.772,-0.303 1.653,-0.333 2.771,-0.544 -0.636,3.009 -1.243,5.69 -1.762,8.389 -0.492,2.562 -1.089,5.126 -1.294,7.716 -0.477,6.01 0.176,11.962 1.482,17.836 0.976,4.387 2.615,8.507 4.878,12.414 3.078,5.315 6.936,9.926 11.729,13.757 4.207,3.362 8.846,5.988 13.783,8.113 1.848,0.795 3.463,0.462 4.803,-0.964 3.491,-3.716 7.001,-7.417 10.391,-11.226 5.038,-5.661 9.985,-11.404 14.959,-17.122 1.87,-2.15 3.707,-4.33 5.979,-6.344 -0.412,2.178 -0.806,4.36 -1.242,6.533 -1.428,7.108 -2.866,14.212 -4.31,21.317 -0.636,3.125 -1.458,6.224 -1.896,9.376 -0.503,3.614 -0.7,7.271 -0.978,10.914 -0.115,1.509 1.023,2.301 2.095,2.975 1.35,0.849 2.791,1.559 4.222,2.271 6.532,3.249 13.51,4.992 20.74,5.312 5.749,0.254 11.41,-0.661 16.935,-2.555 6.283,-2.153 11.949,-5.431 16.999,-9.555 3.656,-2.987 6.589,-6.867 9.8,-10.389 0.908,-0.997 1.657,-2.138 2.734,-3.545 0.468,0.971 0.901,1.686 1.169,2.458 2.488,7.186 4.279,14.557 5.491,22.052 0.749,4.629 1.336,9.3 1.661,13.976 0.253,3.635 0.164,7.318 -0.09,10.957 -0.333,4.764 -0.888,9.517 -1.526,14.251 -0.318,2.362 -0.99,4.683 -1.582,7.002 -2.081,8.159 -5.252,15.859 -9.381,23.215 -3.105,5.532 -6.752,10.646 -10.864,15.425 -4.643,5.396 -9.767,10.347 -15.577,14.473 -4.416,3.137 -8.951,6.164 -13.688,8.779 -5.912,3.264 -12.05,6.135 -18.509,8.226 -2.41,0.78 -4.813,1.585 -7.518,2.477 0.049,-0.827 -0.023,-1.291 0.115,-1.68 1.719,-4.84 1.911,-9.869 1.563,-14.891 -0.28,-4.053 -0.846,-8.107 -1.616,-12.097 -0.51,-2.642 -1.553,-5.189 -2.446,-7.749 -2.11,-6.043 -4.801,-11.827 -8.318,-17.176 -3.785,-5.757 -8.193,-11.008 -13.667,-15.261 -1.676,-1.302 -3.522,-2.385 -5.602,-3.777 -2.592,4.961 -5.008,9.587 -7.464,14.29 -0.886,-0.362 -1.745,-0.713 -2.868,-1.171 -1.146,2.196 -2.283,4.27 -3.324,6.39 -2.392,4.871 -4.693,9.787 -7.111,14.645 -4.018,8.073 -8.1,16.114 -12.154,24.168 -3.913,7.774 -7.823,15.551 -11.741,23.323 -4.885,9.688 -9.748,19.386 -14.676,29.052 -3.187,6.251 -6.493,12.44 -9.701,18.68 -1.199,2.332 -2.26,4.733 -3.406,7.093 -1.812,3.728 -3.613,7.46 -5.471,11.166 -2.609,5.207 -5.276,10.387 -7.9,15.588 -3.486,6.912 -6.964,13.828 -10.428,20.752 -3.178,6.352 -6.285,12.739 -9.51,19.067 -2.858,5.611 -5.89,11.134 -8.743,16.747 -2.304,4.534 -4.425,9.159 -6.693,13.711 -0.624,1.254 -0.671,2.289 0.015,3.578 2.622,4.936 5.095,9.95 7.67,14.911 2.527,4.869 5.172,9.678 7.651,14.571 2.63,5.191 5.104,10.462 7.688,15.677 2.337,4.716 4.74,9.4 7.098,14.106 2.429,4.85 4.84,9.708 7.255,14.563 2.713,5.457 5.444,10.904 8.126,16.376 2.526,5.151 4.957,10.351 7.506,15.49 2.333,4.704 4.787,9.347 7.151,14.034 2.004,3.972 3.98,7.957 5.92,11.96 0.775,1.6 1.755,2.907 3.22,4.025 7.234,5.52 7.936,16.027 1.494,22.375 -4.38,4.317 -9.7,5.573 -15.486,3.595 -5.795,-1.981 -9.385,-6.243 -9.915,-12.357 -0.279,-3.22 -1.26,-5.976 -2.622,-8.78 -6.426,-13.228 -12.797,-26.482 -19.157,-39.743 -10.374,-21.632 -20.715,-43.28 -31.096,-64.91 -1.727,-3.599 -3.581,-7.136 -5.387,-10.696 -0.167,-0.33 -0.414,-0.621 -0.835,-1.243 -0.714,1.261 -1.348,2.243 -1.852,3.288 -8.358,17.36 -16.709,34.725 -25.043,52.097 -8.787,18.315 -17.547,36.644 -26.335,54.959 -1.516,3.16 -3.087,6.294 -4.678,9.417 -0.594,1.165 -0.835,2.325 -0.844,3.657 -0.049,7.442 -5.158,13.647 -12.151,14.918 -7.282,1.324 -14.301,-2.637 -16.931,-9.554 -2.257,-5.937 -0.399,-12.888 4.728,-16.838 1.654,-1.274 2.708,-2.769 3.602,-4.604 2.712,-5.574 5.626,-11.049 8.394,-16.597 2.984,-5.983 5.876,-12.013 8.837,-18.008 2.683,-5.433 5.415,-10.842 8.105,-16.271 2.317,-4.676 4.584,-9.376 6.916,-14.045 2.673,-5.354 5.419,-10.672 8.084,-16.03 2.307,-4.639 4.488,-9.341 6.829,-13.963 2.732,-5.396 5.212,-10.919 8.468,-16.052 1.484,-2.341 2.538,-4.955 3.787,-7.444 2.185,-4.355 4.336,-8.728 6.577,-13.054 0.574,-1.107 0.613,-2.021 0.042,-3.141 -3.354,-6.587 -6.655,-13.201 -9.963,-19.812 -4.107,-8.205 -8.183,-16.426 -12.313,-24.618 -2.587,-5.132 -5.278,-10.211 -7.874,-15.338 -2.742,-5.415 -5.412,-10.866 -8.138,-16.289 -3.296,-6.557 -6.641,-13.088 -9.922,-19.652 -3.344,-6.69 -6.585,-13.433 -9.961,-20.106 -4.756,-9.401 -9.641,-18.737 -14.386,-28.144 -4.743,-9.404 -9.346,-18.879 -14.078,-28.289 -4.124,-8.2 -8.392,-16.327 -12.501,-24.534 -3.428,-6.848 -6.708,-13.77 -10.081,-20.645 -0.524,-1.06 -1.187,-2.044 -1.898,-3.256 z"
             style="clip-rule:evenodd;fill-rule:evenodd" />
        </g>
      </g>
    </g>
    <g
       id="Ebene_1" />
  </g>
</svg>
