<?xml version="1.0" encoding="UTF-8" standalone="no"?>
<svg
   xmlns:dc="http://purl.org/dc/elements/1.1/"
   xmlns:cc="http://creativecommons.org/ns#"
   xmlns:rdf="http://www.w3.org/1999/02/22-rdf-syntax-ns#"
   xmlns:svg="http://www.w3.org/2000/svg"
   xmlns="http://www.w3.org/2000/svg"
   xmlns:sodipodi="http://sodipodi.sourceforge.net/DTD/sodipodi-0.dtd"
   xmlns:inkscape="http://www.inkscape.org/namespaces/inkscape"
   id="svg8"
   version="1.1"
   viewBox="0 0 144.40135 152.10136"
   height="152.10136mm"
   width="144.40135mm"
   sodipodi:docname="Weapons1.svg"
   inkscape:version="0.92.3 (2405546, 2018-03-11)">
  <sodipodi:namedview
     pagecolor="#ffffff"
     bordercolor="#666666"
     borderopacity="1"
     objecttolerance="10"
     gridtolerance="10"
     guidetolerance="10"
     inkscape:pageopacity="0"
     inkscape:pageshadow="2"
     inkscape:window-width="1920"
     inkscape:window-height="1017"
     id="namedview51"
     showgrid="false"
     inkscape:zoom="0.41052667"
     inkscape:cx="272.88444"
     inkscape:cy="287.43565"
     inkscape:window-x="3832"
     inkscape:window-y="-8"
     inkscape:window-maximized="1"
     inkscape:current-layer="svg8" />
  <defs
     id="defs2" />
  <metadata
     id="metadata5">
    <rdf:RDF>
      <cc:Work
         rdf:about="">
        <dc:format>image/svg+xml</dc:format>
        <dc:type
           rdf:resource="http://purl.org/dc/dcmitype/StillImage" />
        <dc:title />
      </cc:Work>
    </rdf:RDF>
  </metadata>
  <g
     id="g3387"
     transform="matrix(0.32201732,0,0,0.32201732,5.027267,37.353555)">
    <g
       id="Mantle3">
      <g
         id="g3363">
        <g
           id="g3361">
          <path
             inkscape:connector-curvature="0"
             id="path3345"
             d="m 419.52,216.96 c 0,28.874 0,57.748 0,86.631 -139.84,0 -279.68,0 -419.52,0 0,-28.883 0,-57.757 0,-86.631 0.217,0.906 0.522,1.802 0.636,2.722 0.387,3.107 1.543,5.932 3.58,8.242 3.333,3.782 7.207,6.52 12.711,6 3.455,-0.327 6.688,-0.922 9.337,-3.362 0.74,-0.681 1.581,-1.251 2.251,-1.775 -0.116,10.698 2.518,20.17 11.032,27.557 4.962,-5.646 8.865,-11.781 10.994,-18.794 1.492,2.147 2.822,4.318 4.409,6.281 1.849,2.286 3.928,4.387 5.899,6.576 1.839,2.042 3.669,4.094 5.5,6.143 0.63,0.705 1.254,1.414 1.954,2.204 1.152,-1.596 2.573,-2.956 2.681,-5.004 0.147,-2.781 0.238,-5.564 0.326,-8.348 0.03,-0.959 0.091,-1.936 -0.053,-2.875 -0.441,-2.865 -1.016,-5.709 -1.46,-8.574 -0.425,-2.737 -0.996,-5.402 -2.698,-7.758 7.327,3.548 14.881,6.703 20.841,13.199 0.321,-0.509 0.646,-0.853 0.775,-1.259 0.537,-1.686 1.357,-3.374 1.44,-5.092 0.154,-3.168 -0.102,-6.361 -0.262,-9.54 -0.053,-1.055 -0.301,-2.105 -0.523,-3.146 -0.559,-2.611 -1.905,-4.856 -3.37,-7.037 -2.615,-3.891 -5.578,-7.379 -10.296,-8.821 -0.227,-0.069 -0.421,-0.241 -0.85,-0.494 0.474,-0.118 0.697,-0.154 0.905,-0.229 1.634,-0.593 3.475,-0.891 4.857,-1.849 4.048,-2.803 6.931,-6.617 8.513,-11.317 0.792,-2.354 1.663,-4.714 1.349,-7.29 -0.306,-2.514 -0.354,-5.083 -0.926,-7.532 -0.531,-2.274 -1.472,-4.484 -2.484,-6.602 -0.663,-1.389 -2.047,-1.274 -2.702,0.123 -1.084,2.315 -2.995,3.905 -4.806,5.553 -1.045,0.95 -2.38,1.581 -3.671,2.412 -0.049,-0.329 -0.086,-0.411 -0.068,-0.478 1.006,-3.799 2.147,-7.587 1.612,-11.589 -0.24,-1.793 -0.412,-3.647 -1.014,-5.331 -1.634,-4.57 -4.361,-8.387 -8.273,-11.37 -5.764,-4.394 -12.269,-6.051 -19.396,-5.49 -0.819,0.064 -1.701,0.521 -2.355,1.044 -0.388,0.31 -0.709,1.295 -0.501,1.655 0.888,1.542 2.076,2.911 2.979,4.446 1.064,1.809 2.159,3.648 2.853,5.612 0.806,2.28 1.21,4.706 1.756,7.075 0.935,4.06 0.089,7.843 -2.249,11.178 -2.34,3.339 -5.567,5.746 -9.134,7.721 -2.942,1.63 -6.084,2.048 -9.39,2.25 -3.539,0.216 -6.711,-0.542 -9.583,-2.474 -1.6,-1.077 -3.044,-2.405 -4.468,-3.72 -1.577,-1.456 -3.063,-3.011 -4.562,-4.55 -0.688,-0.708 -1.31,-1.481 -2.134,-2.422 0.5,2.029 0.944,3.763 1.351,5.506 0.929,3.976 1.882,7.947 2.734,11.939 0.346,1.621 0.503,3.289 0.658,4.943 0.232,2.484 0.469,4.975 0.529,7.466 0.021,0.902 -0.289,1.917 -0.749,2.705 -1.342,2.304 -4.649,3.58 -7.234,2.759 -1.987,-0.631 -3.922,-1.454 -5.824,-2.315 -0.84,-0.381 -1.381,-0.248 -1.762,0.48 -0.401,0.769 -0.732,1.582 -1.005,2.405 -0.277,0.835 -0.447,1.705 -0.663,2.56 C 0,139.54 0,69.8 0,0 c 68.72,0 137.439,0 206.159,0 -0.418,0.08 -0.835,0.21 -1.257,0.231 -1.991,0.098 -3.984,0.165 -5.976,0.246 -5.927,0.24 -11.856,0.462 -17.782,0.733 -2.299,0.105 -4.602,0.243 -6.888,0.501 -4.395,0.498 -8.787,1.038 -13.166,1.664 -3.705,0.529 -7.455,0.944 -11.067,1.869 -6.857,1.756 -13.697,3.638 -20.419,5.847 -6.172,2.028 -12.236,4.42 -18.243,6.906 -5.198,2.151 -10.337,4.487 -15.341,7.055 -5.92,3.039 -11.704,6.351 -17.478,9.665 -3.673,2.108 -7.25,4.391 -10.814,6.681 -2.593,1.666 -5.037,3.565 -7.651,5.193 -4.731,2.947 -9.251,6.158 -13.271,10.03 -2.323,2.238 -4.608,4.517 -6.842,6.844 -3.728,3.882 -7.421,7.799 -11.086,11.74 -1.459,1.569 -2.989,3.123 -4.162,4.897 -2.38,3.599 -4.65,7.282 -6.761,11.044 -2.567,4.574 -4.666,9.37 -6.179,14.415 -1.745,5.821 -3.277,11.682 -4.109,17.715 -0.459,3.33 -1.344,6.634 -1.465,9.97 -0.189,5.194 -0.844,10.392 0.155,15.621 0.815,4.267 1.776,8.395 4.111,12.132 2.572,4.116 5.18,8.213 8.631,11.65 1.869,1.861 3.968,3.511 6.087,5.09 0.807,0.602 1.775,1.402 3.137,0.911 -0.164,-1.454 -0.376,-2.866 -0.475,-4.287 -0.369,-5.335 0.726,-10.52 1.739,-15.7 0.56,-2.866 1.085,-5.779 2.06,-8.516 1.604,-4.503 3.49,-8.911 5.4,-13.297 0.932,-2.138 2.235,-4.11 3.282,-6.202 1.202,-2.402 2.544,-4.774 3.384,-7.306 0.772,-2.328 0.939,-4.854 1.406,-7.287 0.656,-3.421 0.34,-6.845 -0.538,-10.123 -1.245,-4.649 -3.505,-8.83 -7.35,-11.923 -2.202,-1.772 -4.598,-3.227 -7.505,-3.559 -1.316,-0.149 -1.768,-1.211 -0.991,-2.321 2.128,-3.04 4.888,-5.221 8.378,-6.584 2.955,-1.154 5.91,-1.479 8.974,-0.756 1.682,0.396 3.337,0.902 5.038,1.368 0,-0.069 0.045,-0.275 -0.007,-0.453 -0.746,-2.573 -0.912,-5.099 -0.334,-7.796 1.068,-4.988 3.312,-9.285 6.862,-12.867 2.592,-2.616 5.797,-4.358 9.153,-5.856 2.16,-0.963 4.357,-1.437 6.704,-1.284 1.563,0.102 2.161,0.702 2.072,2.241 -0.079,1.372 -0.161,2.756 -0.417,4.102 -0.709,3.723 -1.046,7.471 -0.926,11.255 0.056,1.754 0.667,3.35 1.506,4.889 1.582,-1.288 3.023,-2.534 4.542,-3.68 2.685,-2.027 5.332,-4.121 8.15,-5.949 2.955,-1.917 6.046,-3.641 9.161,-5.291 3.497,-1.853 7.014,-3.703 10.656,-5.235 4.567,-1.92 9.257,-3.553 13.919,-5.24 3.338,-1.208 6.681,-2.425 10.086,-3.414 3.996,-1.16 8.054,-2.111 12.101,-3.089 3.051,-0.738 6.125,-1.388 9.193,-2.054 2.763,-0.6 5.546,-1.112 8.297,-1.762 3.367,-0.795 6.677,-1.873 10.073,-2.493 3.123,-0.57 6.32,-0.813 9.497,-0.996 7.894,-0.457 15.792,-1.045 23.692,-1.121 9.786,-0.094 19.59,-0.489 29.366,0.418 3.616,0.335 7.244,0.587 10.839,1.073 1.862,0.252 3.663,0.945 5.497,1.418 1.407,0.363 2.819,0.711 4.236,1.037 3.058,0.703 6.112,1.419 9.182,2.068 1.921,0.406 3.885,0.621 5.796,1.064 2.866,0.665 5.704,1.45 8.552,2.192 3.119,0.813 6.268,1.535 9.347,2.479 3.544,1.086 7.046,2.317 10.531,3.583 4.475,1.625 9.002,3.148 13.344,5.082 4.552,2.027 8.918,4.473 13.353,6.763 5.734,2.962 10.932,6.714 15.85,10.871 0.901,0.762 1.815,1.508 2.953,2.452 0.483,-1.688 1.221,-3.178 1.277,-4.694 0.108,-2.854 -0.142,-5.725 -0.317,-8.584 -0.058,-0.937 -0.402,-1.853 -0.519,-2.79 -0.203,-1.642 -0.405,-3.291 -0.44,-4.94 -0.009,-0.438 0.546,-1.226 0.919,-1.276 1.474,-0.199 3.101,-0.56 4.445,-0.139 2.688,0.843 5.31,2.006 7.807,3.326 2.573,1.36 4.906,3.195 6.628,5.563 2.566,3.53 4.545,7.387 5.196,11.779 0.165,1.113 0.176,2.271 0.081,3.394 -0.115,1.361 -0.416,2.706 -0.651,4.146 0.235,-0.07 0.385,-0.097 0.52,-0.158 4.248,-1.919 8.536,-2.446 13.051,-0.806 3.727,1.354 6.667,3.604 8.896,6.833 0.756,1.095 0.205,2.106 -1.159,2.237 -0.354,0.034 -0.717,0.06 -1.055,0.161 -4.229,1.262 -7.539,3.821 -10.023,7.401 -2.859,4.119 -4.337,8.724 -4.481,13.76 -0.081,2.794 0.475,5.49 0.907,8.227 0.562,3.55 1.83,6.778 3.638,9.823 2.576,4.341 5.03,8.733 6.653,13.542 0.441,1.307 0.928,2.606 1.492,3.864 1.521,3.387 2.272,6.982 2.944,10.597 0.391,2.106 0.523,4.271 1.043,6.341 0.992,3.96 1.161,7.924 0.627,11.948 -0.113,0.854 -0.118,1.724 -0.19,2.858 0.791,-0.234 1.397,-0.35 1.95,-0.589 2.916,-1.26 4.937,-3.691 7.21,-5.749 1.689,-1.529 3.137,-3.389 4.433,-5.279 2.857,-4.165 6.077,-8.184 7.198,-13.269 0.705,-3.201 1.473,-6.45 1.599,-9.701 0.193,-5.005 0.006,-10.038 -0.816,-15.013 -0.438,-2.651 -0.743,-5.327 -1.246,-7.965 -0.578,-3.037 -1.196,-6.076 -2.001,-9.059 -1.072,-3.979 -2.095,-8.001 -3.594,-11.827 -1.5,-3.826 -3.402,-7.52 -5.415,-11.111 -2.319,-4.14 -4.604,-8.333 -7.871,-11.866 -3.433,-3.711 -6.766,-7.517 -10.241,-11.187 -2,-2.112 -4.2,-4.036 -6.306,-6.049 -2.936,-2.805 -5.662,-5.879 -8.853,-8.354 -4.271,-3.315 -8.857,-6.237 -13.393,-9.198 -4.275,-2.792 -8.599,-5.524 -13.014,-8.089 -5.652,-3.284 -11.31,-6.592 -17.163,-9.488 -6.347,-3.14 -12.898,-5.872 -19.404,-8.682 -6.777,-2.927 -13.669,-5.567 -20.798,-7.526 -3.471,-0.954 -6.95,-1.892 -10.462,-2.674 -3.354,-0.748 -6.774,-1.203 -10.134,-1.93 -6.73,-1.456 -13.486,-2.753 -20.349,-3.358 -4.158,-0.367 -8.335,-0.519 -12.503,-0.781 -0.292,-0.018 -0.577,-0.152 -0.866,-0.232 63.421,0 126.842,0 190.32,0 0,69.76 0,139.52 0,209.279 -0.105,-0.232 -0.239,-0.457 -0.313,-0.699 -0.396,-1.316 -0.67,-2.684 -1.196,-3.946 -0.519,-1.241 -0.899,-1.228 -2.112,-0.647 -2.627,1.256 -5.158,2.431 -8.333,2.146 -3.36,-0.302 -5.289,-2.618 -5.281,-5.688 0.009,-3.248 0.191,-6.527 0.684,-9.733 0.563,-3.666 1.523,-7.274 2.364,-10.896 0.679,-2.92 1.438,-5.821 2.236,-9.036 -1.31,1.546 -2.347,2.903 -3.524,4.125 -1.188,1.232 -2.481,2.369 -3.789,3.478 -1.417,1.2 -2.81,2.47 -4.381,3.437 -1.948,1.199 -4.022,2.225 -6.45,2.124 -1.668,-0.069 -3.368,0.157 -5.004,-0.087 -1.898,-0.283 -3.837,-0.714 -5.589,-1.473 -4.155,-1.799 -7.689,-4.523 -10.404,-8.168 -1.446,-1.941 -2.431,-4.184 -2.652,-6.632 -0.382,-4.228 0.696,-8.253 2.158,-12.14 1.305,-3.467 3.333,-6.573 5.556,-9.543 0.219,-0.292 0.314,-0.92 0.15,-1.214 -0.688,-1.229 -1.936,-1.662 -3.229,-1.694 -2.208,-0.056 -4.396,-0.204 -6.631,0.228 -3.771,0.729 -7.356,1.841 -10.575,3.945 -3.863,2.526 -6.866,5.811 -8.953,9.988 -1.173,2.349 -1.77,4.799 -2.151,7.333 -0.2,1.327 -0.409,2.706 -0.258,4.02 0.247,2.144 0.765,4.259 1.215,6.375 0.157,0.739 0.453,1.449 0.686,2.173 -1.362,-0.563 -2.624,-1.157 -3.578,-2.071 -1.713,-1.643 -3.231,-3.485 -4.851,-5.227 -0.515,-0.553 -1.019,-1.256 -1.669,-1.479 -0.306,-0.105 -1.101,0.673 -1.407,1.204 -1.54,2.664 -2.358,5.576 -2.674,8.628 -0.154,1.499 -0.327,3.003 -0.355,4.507 -0.031,1.611 -0.167,3.289 0.203,4.826 1.24,5.162 3.655,9.72 7.792,13.175 1.1,0.919 2.432,1.596 3.735,2.22 1.103,0.528 2.317,0.82 3.509,1.226 -0.1,0.143 -0.13,0.232 -0.19,0.264 -0.247,0.127 -0.494,0.266 -0.758,0.348 -2.825,0.873 -4.983,2.615 -6.99,4.779 -4.324,4.664 -6.91,10.047 -7.17,16.396 -0.136,3.313 -0.529,6.701 0.639,9.936 0.421,1.166 0.368,2.677 2.054,3.265 2.527,-3.219 5.99,-5.281 9.479,-7.354 3.52,-2.091 7.17,-3.875 10.943,-5.469 -1.628,2.186 -2.282,4.663 -2.633,7.258 -0.205,1.522 -0.428,3.042 -0.663,4.561 -0.307,1.974 -0.792,3.935 -0.912,5.919 -0.157,2.59 -0.057,5.197 -0.022,7.797 0.035,2.708 1.111,4.979 3.049,6.948 0.724,-0.836 1.405,-1.654 2.121,-2.441 2.439,-2.684 4.908,-5.341 7.334,-8.037 1.7,-1.892 3.442,-3.758 4.99,-5.77 1.185,-1.539 2.095,-3.288 3.224,-5.099 2.169,7.248 6.092,13.344 11.035,18.982 8.504,-7.403 11.211,-16.878 10.964,-27.597 0.263,0.201 0.552,0.396 0.812,0.623 2.491,2.183 5.145,4.131 8.584,4.331 2.284,0.134 4.662,0.273 6.857,-0.217 1.767,-0.395 3.409,-1.603 4.953,-2.672 3.881,-2.688 6.04,-6.476 6.733,-11.133 0.132,-0.92 0.419,-1.817 0.637,-2.723 z M 341.784,97.919 c -0.726,-0.457 -1.26,-0.73 -1.722,-1.095 -1.747,-1.378 -3.619,-2.642 -5.159,-4.226 -1.313,-1.35 -2.236,-3.077 -3.326,-4.642 -0.582,-0.835 -1.136,-0.885 -1.769,-0.085 -0.24,0.303 -0.401,0.688 -0.525,1.06 -1.636,4.915 -1.019,9.961 -0.737,14.963 0.112,1.999 0.71,3.983 1.203,5.944 0.561,2.226 1.102,4.479 1.935,6.608 0.675,1.725 1.739,3.303 2.688,4.913 0.582,0.988 1.163,2.014 1.934,2.847 1.561,1.688 3.25,3.256 4.885,4.875 1.942,1.924 4.175,3.466 6.657,4.553 2.736,1.198 5.542,2.262 8.382,3.188 1.896,0.619 3.892,0.972 5.867,1.304 2.484,0.418 5.014,0.582 7.485,1.058 2.813,0.542 5.534,-0.166 8.296,-0.309 0.325,-0.017 0.644,-0.162 1.025,-0.264 -0.523,-1.186 -0.925,-2.315 -1.499,-3.349 -1.146,-2.069 -2.424,-4.066 -3.582,-6.128 -1.393,-2.48 -2.413,-5.119 -2.949,-7.917 -0.393,-2.05 -0.869,-4.112 -0.962,-6.185 -0.137,-3.087 -0.166,-6.181 0.593,-9.25 1.182,-4.778 3.188,-9.106 6.527,-12.739 2.04,-2.22 4.374,-4.112 7.214,-5.354 -2.328,-2.076 -5.533,-3.194 -8.422,-3.301 -4.571,-0.17 -8.456,1.371 -11.88,4.3 -0.399,0.342 -0.912,0.553 -1.372,0.825 -0.096,-0.06 -0.19,-0.12 -0.286,-0.18 0.334,-1.732 0.611,-3.476 1.013,-5.192 1.054,-4.509 1.422,-8.943 -0.304,-13.432 -1.136,-2.956 -2.583,-5.656 -5.04,-7.63 -1.716,-1.379 -3.674,-2.476 -5.594,-3.577 -1.222,-0.701 -2.571,-1.178 -3.958,-1.797 -0.11,0.47 -0.161,0.619 -0.176,0.771 -0.015,0.157 -0.022,0.325 0.014,0.477 0.895,3.74 1.349,7.517 1.264,11.377 -0.098,4.427 -0.712,8.659 -3.01,12.582 -2.258,3.853 -4.01,7.932 -4.281,12.498 -0.048,0.781 -0.26,1.55 -0.429,2.509 z M 40.453,138.445 c 0.102,0.146 0.203,0.291 0.305,0.436 2.65,0.177 5.301,0.356 7.952,0.528 0.197,0.013 0.4,-0.007 0.596,-0.04 2.366,-0.398 4.736,-0.775 7.095,-1.21 2.901,-0.536 5.865,-0.884 8.67,-1.744 3.704,-1.135 7.273,-2.733 10.455,-4.999 3.19,-2.271 6.031,-4.977 8.428,-8.063 1.228,-1.581 2.023,-3.502 2.988,-5.283 0.624,-1.151 1.433,-2.268 1.753,-3.506 0.847,-3.269 1.75,-6.565 2.112,-9.906 0.416,-3.833 0.386,-7.729 0.314,-11.594 -0.029,-1.551 -0.565,-3.133 -1.091,-4.624 -0.501,-1.422 -1.417,-1.463 -2.239,-0.231 -1.589,2.381 -3.233,4.72 -5.51,6.507 -1.399,1.098 -2.868,2.109 -4.364,3.203 -0.178,-0.375 -0.306,-0.575 -0.368,-0.793 -0.064,-0.227 -0.072,-0.47 -0.094,-0.707 -0.333,-3.536 -1.067,-6.963 -2.696,-10.157 -1.138,-2.231 -2.35,-4.432 -3.359,-6.721 -1.125,-2.551 -1.159,-5.327 -1.33,-8.065 -0.233,-3.74 0.124,-7.423 0.887,-11.082 0.166,-0.796 0.215,-1.617 0.343,-2.632 -1.013,0.352 -1.757,0.505 -2.395,0.852 -1.981,1.076 -3.989,2.123 -5.864,3.366 -4.634,3.074 -6.889,7.689 -7.612,12.999 -0.542,3.969 0.317,7.904 1.31,11.77 0.219,0.854 0.304,1.742 0.451,2.614 -0.118,0.069 -0.235,0.139 -0.353,0.208 -0.978,-0.764 -1.888,-1.641 -2.945,-2.272 -3.404,-2.032 -7.001,-3.219 -11.093,-2.919 -2.953,0.217 -5.169,1.713 -7.52,3.153 1.377,0.877 2.686,1.612 3.886,2.495 3.989,2.937 6.665,6.87 8.508,11.421 1.197,2.955 1.864,6.009 1.994,9.201 0.154,3.793 -0.46,7.469 -1.23,11.169 -0.631,3.035 -1.883,5.728 -3.403,8.366 -1.571,2.728 -3.057,5.505 -4.581,8.26 z M 74.7,236.191 c -0.149,0.1 -0.298,0.199 -0.447,0.3 0.338,2.32 0.82,4.631 0.978,6.964 0.183,2.723 0.099,5.464 0.1,8.197 10e-4,3.229 -0.976,6.193 -2.668,8.902 -0.925,1.48 -2.289,2.692 -4.074,2.722 -5.218,0.085 -9.576,-1.797 -12.713,-6.13 -0.421,-0.582 -0.896,-1.127 -1.375,-1.662 -0.516,-0.577 -1.096,-0.656 -1.64,-0.045 -1.139,1.279 -2.346,2.511 -3.366,3.88 -2.287,3.069 -3.468,6.667 -4.51,10.285 -1.573,5.46 -1.158,10.765 2.132,15.519 1.481,2.14 3.374,4.068 6.052,4.809 1.472,0.407 2.996,0.619 4.476,0.996 1.893,0.482 3.706,0.36 5.441,-0.541 1.141,-0.594 2.257,-1.237 3.394,-1.864 0.045,0.721 -0.072,1.562 0.172,2.281 1.126,3.322 3.015,6.152 5.897,8.207 2.289,1.632 4.896,2.569 7.65,3.08 2.393,0.444 4.784,0.933 7.198,1.222 1.113,0.133 2.277,-0.172 3.419,-0.262 2.16,-0.17 4.349,-0.11 6.347,-1.22 0.672,-0.372 1.515,-0.421 2.238,-0.72 0.592,-0.243 1.123,-0.638 1.681,-0.965 -0.303,-0.471 -0.522,-1.033 -0.923,-1.396 -3.169,-2.868 -5.417,-6.384 -7.005,-10.29 -1.954,-4.807 -2.747,-9.922 -3.552,-15.015 -0.383,-2.418 -0.544,-4.874 -0.991,-7.278 -0.582,-3.125 -1.147,-6.277 -2.08,-9.307 -1.583,-5.144 -3.546,-10.172 -6.75,-14.565 -1.557,-2.135 -3.379,-4.075 -5.081,-6.104 z m 278.518,52.17 c 3.089,3.093 6.878,3.196 10.785,2.419 4.188,-0.833 7.157,-3.507 9.384,-6.968 1.456,-2.266 1.61,-5.007 1.938,-7.608 0.358,-2.846 -0.319,-5.608 -1.253,-8.294 -1.577,-4.539 -3.457,-8.898 -7.141,-12.214 -1.017,-0.915 -1.334,-0.949 -2.217,0.139 -0.801,0.988 -1.441,2.132 -2.348,3.005 -2.614,2.518 -5.796,3.968 -9.385,4.454 -2.846,0.385 -4.902,-0.761 -6.421,-3.233 -1.975,-3.214 -2.472,-6.778 -2.569,-10.377 -0.071,-2.638 0.414,-5.291 0.658,-7.938 0.164,-1.773 0.343,-3.545 0.527,-5.448 -1.34,1.316 -2.706,2.436 -3.797,3.778 -2.462,3.029 -4.237,6.452 -5.879,10.013 -2.003,4.344 -3.143,8.911 -4.231,13.487 -0.854,3.594 -1.106,7.328 -1.689,10.989 -0.489,3.07 -0.869,6.18 -1.657,9.177 -1.441,5.479 -3.857,10.481 -8.05,14.482 -2.093,1.998 -2.044,2.049 0.69,2.981 0.074,0.025 0.138,0.081 0.209,0.116 3.118,1.565 6.537,1.771 9.902,1.985 4.236,0.271 8.338,-0.835 12.259,-2.252 5.825,-2.104 9.407,-6.26 10.285,-12.693 z"
             style="clip-rule:evenodd;fill:none;fill-rule:evenodd" />
          <path
             inkscape:connector-curvature="0"
             id="path3347"
             d="m 229.199,0 c 0.289,0.08 0.574,0.214 0.866,0.232 4.168,0.262 8.345,0.414 12.503,0.781 6.862,0.605 13.618,1.903 20.349,3.358 3.359,0.727 6.779,1.182 10.134,1.93 3.512,0.782 6.991,1.72 10.462,2.674 7.129,1.959 14.021,4.599 20.798,7.526 6.506,2.81 13.058,5.542 19.404,8.682 5.854,2.896 11.511,6.205 17.163,9.488 4.415,2.565 8.738,5.297 13.014,8.089 4.535,2.961 9.121,5.883 13.393,9.198 3.19,2.476 5.917,5.55 8.853,8.354 2.105,2.013 4.306,3.937 6.306,6.049 3.476,3.67 6.809,7.475 10.241,11.187 3.268,3.533 5.552,7.726 7.871,11.866 2.013,3.591 3.915,7.286 5.415,11.111 1.499,3.826 2.521,7.848 3.594,11.827 0.805,2.983 1.423,6.022 2.001,9.059 0.503,2.639 0.808,5.314 1.246,7.965 0.822,4.976 1.01,10.008 0.816,15.013 -0.126,3.251 -0.894,6.5 -1.599,9.701 -1.121,5.085 -4.341,9.104 -7.198,13.269 -1.296,1.891 -2.743,3.75 -4.433,5.279 -2.273,2.058 -4.294,4.489 -7.21,5.749 -0.553,0.239 -1.159,0.354 -1.95,0.589 0.072,-1.135 0.077,-2.004 0.19,-2.858 0.534,-4.024 0.365,-7.988 -0.627,-11.948 -0.52,-2.07 -0.652,-4.234 -1.043,-6.341 -0.672,-3.615 -1.424,-7.21 -2.944,-10.597 -0.564,-1.258 -1.051,-2.557 -1.492,-3.864 -1.623,-4.809 -4.077,-9.201 -6.653,-13.542 -1.808,-3.045 -3.076,-6.273 -3.638,-9.823 -0.433,-2.737 -0.988,-5.433 -0.907,-8.227 0.145,-5.036 1.622,-9.641 4.481,-13.76 2.484,-3.58 5.795,-6.139 10.023,-7.401 0.338,-0.101 0.701,-0.127 1.055,-0.161 1.364,-0.13 1.915,-1.142 1.159,-2.237 -2.229,-3.229 -5.169,-5.479 -8.896,-6.833 -4.515,-1.641 -8.803,-1.114 -13.051,0.806 -0.135,0.061 -0.284,0.087 -0.52,0.158 0.235,-1.439 0.536,-2.785 0.651,-4.146 0.095,-1.123 0.084,-2.281 -0.081,-3.394 -0.651,-4.392 -2.63,-8.25 -5.196,-11.779 -1.722,-2.368 -4.055,-4.203 -6.628,-5.563 -2.497,-1.32 -5.118,-2.483 -7.807,-3.326 -1.345,-0.421 -2.972,-0.06 -4.445,0.139 -0.373,0.05 -0.928,0.837 -0.919,1.276 0.035,1.649 0.237,3.298 0.44,4.94 0.116,0.937 0.461,1.853 0.519,2.79 0.176,2.859 0.426,5.73 0.317,8.584 -0.057,1.517 -0.794,3.007 -1.277,4.694 -1.138,-0.944 -2.052,-1.69 -2.953,-2.452 -4.918,-4.156 -10.115,-7.909 -15.85,-10.871 -4.435,-2.29 -8.801,-4.736 -13.353,-6.763 -4.342,-1.934 -8.869,-3.458 -13.344,-5.082 -3.485,-1.266 -6.987,-2.497 -10.531,-3.583 -3.079,-0.944 -6.228,-1.666 -9.347,-2.479 -2.848,-0.742 -5.686,-1.528 -8.552,-2.192 -1.911,-0.443 -3.875,-0.658 -5.796,-1.064 -3.069,-0.649 -6.124,-1.365 -9.182,-2.068 -1.417,-0.325 -2.829,-0.673 -4.236,-1.037 -1.834,-0.473 -3.635,-1.167 -5.497,-1.418 -3.595,-0.486 -7.223,-0.738 -10.839,-1.073 -9.776,-0.907 -19.58,-0.513 -29.366,-0.418 -7.9,0.076 -15.798,0.664 -23.692,1.121 -3.176,0.184 -6.374,0.426 -9.497,0.996 -3.396,0.621 -6.706,1.698 -10.073,2.493 -2.751,0.649 -5.534,1.162 -8.297,1.762 -3.068,0.666 -6.142,1.316 -9.193,2.054 -4.046,0.978 -8.104,1.929 -12.101,3.089 -3.406,0.989 -6.749,2.206 -10.086,3.414 -4.662,1.688 -9.352,3.32 -13.919,5.24 -3.642,1.532 -7.159,3.383 -10.656,5.235 -3.115,1.65 -6.206,3.374 -9.161,5.291 -2.818,1.828 -5.465,3.922 -8.15,5.949 -1.518,1.146 -2.959,2.393 -4.542,3.68 -0.838,-1.539 -1.45,-3.135 -1.506,-4.889 -0.12,-3.784 0.217,-7.532 0.926,-11.255 0.256,-1.346 0.338,-2.73 0.417,-4.102 0.089,-1.539 -0.509,-2.139 -2.072,-2.241 -2.346,-0.153 -4.544,0.321 -6.704,1.284 -3.356,1.498 -6.562,3.24 -9.153,5.856 -3.55,3.583 -5.794,7.879 -6.862,12.867 -0.578,2.697 -0.411,5.224 0.334,7.796 0.052,0.178 0.007,0.384 0.007,0.453 -1.7,-0.466 -3.356,-0.972 -5.038,-1.368 -3.064,-0.723 -6.019,-0.398 -8.974,0.756 -3.49,1.363 -6.25,3.544 -8.378,6.584 -0.777,1.11 -0.326,2.172 0.991,2.321 2.907,0.332 5.303,1.787 7.505,3.559 3.845,3.093 6.104,7.274 7.35,11.923 0.877,3.278 1.194,6.702 0.538,10.123 -0.467,2.433 -0.634,4.958 -1.406,7.287 -0.839,2.532 -2.182,4.904 -3.384,7.306 -1.047,2.092 -2.351,4.064 -3.282,6.202 -1.91,4.386 -3.796,8.794 -5.4,13.297 -0.975,2.737 -1.5,5.65 -2.06,8.516 -1.013,5.181 -2.108,10.365 -1.739,15.7 0.098,1.421 0.311,2.833 0.475,4.287 -1.362,0.491 -2.33,-0.31 -3.137,-0.911 -2.119,-1.579 -4.219,-3.229 -6.087,-5.09 -3.451,-3.438 -6.059,-7.534 -8.631,-11.65 C 8.131,157.261 7.17,153.133 6.355,148.866 5.356,143.637 6.01,138.44 6.2,133.245 c 0.121,-3.336 1.005,-6.641 1.465,-9.97 0.832,-6.033 2.364,-11.894 4.109,-17.715 1.513,-5.045 3.611,-9.841 6.179,-14.415 2.111,-3.762 4.381,-7.445 6.761,-11.044 1.173,-1.775 2.703,-3.328 4.162,-4.897 3.665,-3.941 7.358,-7.858 11.086,-11.74 2.233,-2.327 4.519,-4.606 6.842,-6.844 4.02,-3.872 8.54,-7.083 13.271,-10.03 2.614,-1.628 5.059,-3.527 7.651,-5.193 3.565,-2.29 7.142,-4.572 10.814,-6.681 5.774,-3.314 11.558,-6.626 17.478,-9.665 5.004,-2.568 10.143,-4.903 15.341,-7.055 6.007,-2.486 12.071,-4.878 18.243,-6.906 6.722,-2.209 13.562,-4.091 20.419,-5.847 3.612,-0.925 7.362,-1.34 11.067,-1.869 4.378,-0.625 8.771,-1.166 13.166,-1.664 2.286,-0.259 4.589,-0.396 6.888,-0.501 5.926,-0.271 11.854,-0.493 17.782,-0.733 1.992,-0.081 3.985,-0.147 5.976,-0.246 0.422,-0.021 0.838,-0.151 1.257,-0.231 C 213.84,0 221.52,0 229.199,0 Z"
             style="clip-rule:evenodd;fill-rule:evenodd" />
          <path
             inkscape:connector-curvature="0"
             id="path3349"
             d="m 0,209.279 c 0.216,-0.854 0.386,-1.725 0.663,-2.56 0.273,-0.823 0.604,-1.637 1.005,-2.405 0.381,-0.729 0.922,-0.861 1.762,-0.48 1.902,0.861 3.836,1.685 5.824,2.315 2.584,0.821 5.892,-0.455 7.234,-2.759 0.459,-0.788 0.77,-1.803 0.749,-2.705 -0.06,-2.491 -0.297,-4.981 -0.529,-7.466 -0.155,-1.654 -0.312,-3.322 -0.658,-4.943 -0.852,-3.992 -1.806,-7.964 -2.734,-11.939 -0.407,-1.743 -0.852,-3.477 -1.351,-5.506 0.825,0.94 1.446,1.714 2.134,2.422 1.498,1.539 2.985,3.094 4.562,4.55 1.423,1.314 2.868,2.643 4.468,3.72 2.872,1.932 6.044,2.689 9.583,2.474 3.306,-0.202 6.448,-0.62 9.39,-2.25 3.567,-1.975 6.794,-4.382 9.134,-7.721 2.338,-3.335 3.184,-7.118 2.249,-11.178 -0.546,-2.369 -0.95,-4.795 -1.756,-7.075 -0.694,-1.964 -1.789,-3.804 -2.853,-5.612 -0.903,-1.535 -2.091,-2.904 -2.979,-4.446 -0.208,-0.36 0.114,-1.345 0.501,-1.655 0.654,-0.523 1.536,-0.979 2.355,-1.044 7.127,-0.561 13.631,1.096 19.396,5.49 3.912,2.983 6.639,6.8 8.273,11.37 0.602,1.684 0.773,3.538 1.014,5.331 0.535,4.002 -0.605,7.79 -1.612,11.589 -0.018,0.066 0.019,0.148 0.068,0.478 1.291,-0.831 2.626,-1.462 3.671,-2.412 1.811,-1.647 3.721,-3.237 4.806,-5.553 0.655,-1.397 2.039,-1.512 2.702,-0.123 1.012,2.117 1.953,4.327 2.484,6.602 0.572,2.449 0.62,5.019 0.926,7.532 0.314,2.576 -0.557,4.936 -1.349,7.29 -1.582,4.7 -4.465,8.515 -8.513,11.317 -1.383,0.958 -3.224,1.256 -4.857,1.849 -0.208,0.075 -0.431,0.111 -0.905,0.229 0.428,0.253 0.623,0.425 0.85,0.494 4.718,1.442 7.681,4.931 10.296,8.821 1.465,2.181 2.812,4.426 3.37,7.037 0.222,1.04 0.47,2.091 0.523,3.146 0.161,3.179 0.417,6.372 0.262,9.54 -0.083,1.718 -0.903,3.406 -1.44,5.092 -0.129,0.406 -0.455,0.75 -0.775,1.259 -5.96,-6.496 -13.514,-9.651 -20.841,-13.199 1.703,2.355 2.273,5.021 2.698,7.758 0.444,2.865 1.02,5.709 1.46,8.574 0.145,0.939 0.083,1.916 0.053,2.875 -0.088,2.783 -0.179,5.566 -0.326,8.348 -0.108,2.048 -1.529,3.408 -2.681,5.004 -0.7,-0.79 -1.324,-1.499 -1.954,-2.204 -1.832,-2.049 -3.661,-4.101 -5.5,-6.143 -1.971,-2.189 -4.05,-4.29 -5.899,-6.576 -1.587,-1.963 -2.917,-4.134 -4.409,-6.281 -2.129,7.013 -6.031,13.148 -10.994,18.794 -8.515,-7.387 -11.148,-16.858 -11.032,-27.557 -0.67,0.524 -1.511,1.095 -2.251,1.775 -2.65,2.44 -5.883,3.035 -9.337,3.362 -5.504,0.52 -9.377,-2.218 -12.711,-6 -2.036,-2.311 -3.192,-5.135 -3.58,-8.242 C 0.525,218.762 0.22,217.867 0.003,216.96 0,214.399 0,211.84 0,209.279 Z"
             style="clip-rule:evenodd;fill-rule:evenodd" />
          <path
             inkscape:connector-curvature="0"
             id="path3351"
             d="m 419.52,216.96 c -0.218,0.906 -0.505,1.803 -0.641,2.721 -0.693,4.657 -2.853,8.445 -6.733,11.133 -1.544,1.069 -3.187,2.277 -4.953,2.672 -2.195,0.49 -4.573,0.351 -6.857,0.217 -3.439,-0.2 -6.093,-2.148 -8.584,-4.331 -0.26,-0.228 -0.549,-0.422 -0.812,-0.623 0.247,10.719 -2.46,20.193 -10.964,27.597 -4.943,-5.639 -8.866,-11.734 -11.035,-18.982 -1.129,1.811 -2.039,3.56 -3.224,5.099 -1.548,2.012 -3.29,3.878 -4.99,5.77 -2.426,2.696 -4.895,5.354 -7.334,8.037 -0.716,0.787 -1.397,1.605 -2.121,2.441 -1.938,-1.97 -3.014,-4.24 -3.049,-6.948 -0.034,-2.6 -0.135,-5.207 0.022,-7.797 0.12,-1.984 0.605,-3.945 0.912,-5.919 0.235,-1.519 0.458,-3.038 0.663,-4.561 0.351,-2.595 1.005,-5.072 2.633,-7.258 -3.773,1.594 -7.424,3.378 -10.943,5.469 -3.489,2.072 -6.952,4.135 -9.479,7.354 -1.686,-0.588 -1.633,-2.099 -2.054,-3.265 -1.168,-3.234 -0.774,-6.623 -0.639,-9.936 0.26,-6.349 2.846,-11.731 7.17,-16.396 2.007,-2.164 4.165,-3.906 6.99,-4.779 0.264,-0.082 0.511,-0.221 0.758,-0.348 0.061,-0.031 0.091,-0.121 0.19,-0.264 -1.191,-0.405 -2.406,-0.697 -3.509,-1.226 -1.304,-0.624 -2.636,-1.301 -3.735,-2.22 -4.137,-3.455 -6.552,-8.013 -7.792,-13.175 -0.37,-1.537 -0.234,-3.215 -0.203,-4.826 0.028,-1.504 0.201,-3.008 0.355,-4.507 0.315,-3.052 1.134,-5.964 2.674,-8.628 0.307,-0.531 1.102,-1.31 1.407,-1.204 0.65,0.224 1.154,0.927 1.669,1.479 1.619,1.741 3.138,3.584 4.851,5.227 0.954,0.914 2.216,1.508 3.578,2.071 -0.232,-0.724 -0.528,-1.434 -0.686,-2.173 -0.45,-2.116 -0.968,-4.231 -1.215,-6.375 -0.151,-1.313 0.058,-2.692 0.258,-4.02 0.382,-2.534 0.979,-4.984 2.151,-7.333 2.087,-4.178 5.09,-7.462 8.953,-9.988 3.219,-2.104 6.805,-3.216 10.575,-3.945 2.234,-0.432 4.423,-0.284 6.631,-0.228 1.294,0.033 2.541,0.466 3.229,1.694 0.164,0.293 0.068,0.921 -0.15,1.214 -2.223,2.97 -4.251,6.076 -5.556,9.543 -1.462,3.887 -2.54,7.912 -2.158,12.14 0.222,2.448 1.206,4.69 2.652,6.632 2.715,3.645 6.249,6.369 10.404,8.168 1.752,0.759 3.69,1.189 5.589,1.473 1.636,0.244 3.336,0.018 5.004,0.087 2.428,0.101 4.502,-0.925 6.45,-2.124 1.571,-0.967 2.964,-2.236 4.381,-3.437 1.308,-1.108 2.602,-2.245 3.789,-3.478 1.178,-1.222 2.215,-2.579 3.524,-4.125 -0.799,3.215 -1.558,6.116 -2.236,9.036 -0.841,3.621 -1.801,7.229 -2.364,10.896 -0.492,3.206 -0.675,6.485 -0.684,9.733 -0.008,3.069 1.921,5.386 5.281,5.688 3.175,0.284 5.706,-0.891 8.333,-2.146 1.213,-0.58 1.594,-0.594 2.112,0.647 0.526,1.263 0.8,2.63 1.196,3.946 0.073,0.242 0.207,0.467 0.313,0.699 0.003,2.562 0.003,5.121 0.003,7.682 z"
             style="clip-rule:evenodd;fill-rule:evenodd" />
          <path
             inkscape:connector-curvature="0"
             id="path3353"
             d="m 341.784,97.919 c 0.169,-0.959 0.381,-1.728 0.428,-2.507 0.271,-4.565 2.023,-8.645 4.281,-12.498 2.298,-3.923 2.912,-8.155 3.01,-12.582 0.085,-3.86 -0.369,-7.637 -1.264,-11.377 -0.036,-0.152 -0.028,-0.319 -0.014,-0.477 0.015,-0.152 0.065,-0.302 0.176,-0.771 1.387,0.619 2.736,1.096 3.958,1.797 1.92,1.101 3.878,2.197 5.594,3.577 2.457,1.974 3.904,4.674 5.04,7.63 1.726,4.489 1.357,8.923 0.304,13.432 -0.401,1.716 -0.679,3.46 -1.013,5.192 0.096,0.06 0.19,0.12 0.286,0.18 0.46,-0.272 0.973,-0.483 1.372,-0.825 3.424,-2.93 7.309,-4.471 11.88,-4.3 2.889,0.107 6.094,1.225 8.422,3.301 -2.84,1.242 -5.174,3.133 -7.214,5.354 -3.339,3.633 -5.346,7.961 -6.527,12.739 -0.759,3.069 -0.729,6.163 -0.593,9.25 0.093,2.072 0.569,4.135 0.962,6.185 0.536,2.798 1.557,5.437 2.949,7.917 1.158,2.063 2.436,4.06 3.582,6.128 0.574,1.034 0.976,2.163 1.499,3.349 -0.382,0.102 -0.7,0.247 -1.025,0.264 -2.762,0.143 -5.483,0.852 -8.296,0.309 -2.472,-0.477 -5.001,-0.64 -7.485,-1.058 -1.976,-0.332 -3.971,-0.685 -5.867,-1.304 -2.84,-0.926 -5.646,-1.991 -8.382,-3.188 -2.482,-1.087 -4.715,-2.629 -6.657,-4.553 -1.635,-1.619 -3.324,-3.187 -4.885,-4.875 -0.771,-0.833 -1.352,-1.859 -1.934,-2.847 -0.948,-1.61 -2.013,-3.188 -2.688,-4.913 -0.833,-2.13 -1.374,-4.382 -1.935,-6.608 -0.493,-1.961 -1.091,-3.945 -1.203,-5.944 -0.281,-5.001 -0.898,-10.048 0.737,-14.963 0.124,-0.372 0.285,-0.757 0.525,-1.06 0.633,-0.8 1.187,-0.75 1.769,0.085 1.09,1.565 2.014,3.292 3.326,4.642 1.54,1.584 3.412,2.848 5.159,4.226 0.463,0.362 0.998,0.636 1.723,1.093 z"
             style="clip-rule:evenodd;fill-rule:evenodd" />
          <path
             inkscape:connector-curvature="0"
             id="path3355"
             d="m 40.453,138.445 c 1.523,-2.755 3.01,-5.532 4.581,-8.26 1.521,-2.638 2.772,-5.331 3.403,-8.366 0.77,-3.7 1.384,-7.375 1.23,-11.169 -0.13,-3.192 -0.796,-6.246 -1.994,-9.201 -1.843,-4.551 -4.519,-8.484 -8.508,-11.421 -1.2,-0.883 -2.509,-1.618 -3.886,-2.495 2.351,-1.439 4.567,-2.936 7.52,-3.153 4.092,-0.3 7.689,0.887 11.093,2.919 1.057,0.631 1.967,1.508 2.945,2.272 0.118,-0.069 0.235,-0.139 0.353,-0.208 -0.147,-0.873 -0.232,-1.761 -0.451,-2.614 -0.992,-3.866 -1.851,-7.801 -1.31,-11.77 0.724,-5.309 2.979,-9.924 7.612,-12.999 1.875,-1.244 3.883,-2.291 5.864,-3.366 0.638,-0.347 1.382,-0.5 2.395,-0.852 -0.128,1.015 -0.177,1.835 -0.343,2.632 -0.763,3.658 -1.121,7.341 -0.887,11.082 0.17,2.738 0.205,5.515 1.33,8.065 1.009,2.289 2.221,4.49 3.359,6.721 1.629,3.194 2.363,6.621 2.696,10.157 0.022,0.237 0.03,0.48 0.094,0.707 0.062,0.218 0.189,0.418 0.368,0.793 1.497,-1.094 2.965,-2.105 4.364,-3.203 2.277,-1.787 3.921,-4.126 5.51,-6.507 0.822,-1.232 1.737,-1.191 2.239,0.231 0.525,1.491 1.062,3.072 1.091,4.624 0.072,3.865 0.101,7.76 -0.314,11.594 -0.362,3.341 -1.265,6.638 -2.112,9.906 -0.32,1.238 -1.13,2.354 -1.753,3.506 -0.965,1.781 -1.76,3.702 -2.988,5.283 -2.397,3.086 -5.238,5.792 -8.428,8.063 -3.181,2.265 -6.75,3.864 -10.455,4.999 -2.805,0.859 -5.77,1.208 -8.67,1.744 -2.359,0.435 -4.729,0.812 -7.095,1.21 -0.196,0.033 -0.399,0.053 -0.596,0.04 -2.651,-0.171 -5.301,-0.351 -7.952,-0.528 -0.102,-0.145 -0.203,-0.29 -0.305,-0.436 z"
             style="clip-rule:evenodd;fill-rule:evenodd" />
          <path
             inkscape:connector-curvature="0"
             id="path3357"
             d="m 74.7,236.191 c 1.702,2.028 3.524,3.969 5.081,6.104 3.204,4.394 5.167,9.422 6.75,14.565 0.933,3.029 1.499,6.182 2.08,9.307 0.447,2.404 0.608,4.86 0.991,7.278 0.805,5.093 1.598,10.208 3.552,15.015 1.588,3.906 3.836,7.422 7.005,10.29 0.4,0.363 0.62,0.926 0.923,1.396 -0.558,0.327 -1.088,0.722 -1.681,0.965 -0.723,0.299 -1.566,0.348 -2.238,0.72 -1.999,1.109 -4.187,1.05 -6.347,1.22 -1.142,0.09 -2.306,0.395 -3.419,0.262 -2.414,-0.289 -4.805,-0.777 -7.198,-1.222 -2.754,-0.511 -5.361,-1.448 -7.65,-3.08 -2.882,-2.055 -4.771,-4.885 -5.897,-8.207 -0.244,-0.72 -0.126,-1.561 -0.172,-2.281 -1.137,0.627 -2.253,1.271 -3.394,1.864 -1.735,0.901 -3.548,1.023 -5.441,0.541 -1.48,-0.377 -3.004,-0.589 -4.476,-0.996 -2.678,-0.74 -4.57,-2.669 -6.052,-4.809 -3.291,-4.754 -3.706,-10.059 -2.132,-15.519 1.042,-3.618 2.223,-7.216 4.51,-10.285 1.021,-1.369 2.228,-2.601 3.366,-3.88 0.544,-0.611 1.125,-0.532 1.64,0.045 0.479,0.535 0.954,1.08 1.375,1.662 3.137,4.333 7.495,6.215 12.713,6.13 1.786,-0.029 3.149,-1.241 4.074,-2.722 1.692,-2.709 2.669,-5.673 2.668,-8.902 -0.001,-2.733 0.083,-5.475 -0.1,-8.197 -0.157,-2.333 -0.64,-4.644 -0.978,-6.964 0.149,-0.1 0.298,-0.2 0.447,-0.3 z"
             style="clip-rule:evenodd;fill-rule:evenodd" />
          <path
             inkscape:connector-curvature="0"
             id="path3359"
             d="m 353.218,288.361 c -0.878,6.433 -4.46,10.589 -10.283,12.694 -3.921,1.417 -8.022,2.522 -12.259,2.252 -3.365,-0.215 -6.784,-0.42 -9.902,-1.985 -0.071,-0.035 -0.135,-0.091 -0.209,-0.116 -2.734,-0.933 -2.783,-0.983 -0.69,-2.981 4.192,-4.001 6.608,-9.003 8.05,-14.482 0.788,-2.997 1.168,-6.106 1.657,-9.177 0.583,-3.661 0.835,-7.396 1.689,-10.989 1.089,-4.576 2.229,-9.144 4.231,-13.487 1.642,-3.561 3.417,-6.983 5.879,-10.013 1.091,-1.343 2.457,-2.462 3.797,-3.778 -0.185,1.903 -0.363,3.675 -0.527,5.448 -0.244,2.646 -0.729,5.3 -0.658,7.938 0.098,3.599 0.595,7.163 2.569,10.377 1.519,2.473 3.575,3.618 6.421,3.233 3.589,-0.486 6.771,-1.937 9.385,-4.454 0.906,-0.873 1.547,-2.017 2.348,-3.005 0.883,-1.088 1.2,-1.054 2.217,-0.139 3.684,3.315 5.563,7.675 7.141,12.214 0.934,2.686 1.611,5.448 1.253,8.294 -0.328,2.602 -0.482,5.343 -1.938,7.608 -2.227,3.461 -5.195,6.135 -9.384,6.968 -3.909,0.777 -7.698,0.673 -10.787,-2.42 z"
             style="clip-rule:evenodd;fill-rule:evenodd" />
        </g>
      </g>
    </g>
    <g
       id="Ebene_1-9" />
  </g>
</svg>
