<?xml version="1.0" encoding="UTF-8" standalone="no"?>
<svg
   xmlns:dc="http://purl.org/dc/elements/1.1/"
   xmlns:cc="http://creativecommons.org/ns#"
   xmlns:rdf="http://www.w3.org/1999/02/22-rdf-syntax-ns#"
   xmlns:svg="http://www.w3.org/2000/svg"
   xmlns="http://www.w3.org/2000/svg"
   xmlns:sodipodi="http://sodipodi.sourceforge.net/DTD/sodipodi-0.dtd"
   xmlns:inkscape="http://www.inkscape.org/namespaces/inkscape"
   id="svg8"
   version="1.1"
   viewBox="0 0 144.40135 152.10136"
   height="152.10136mm"
   width="144.40135mm"
   sodipodi:docname="Weapons4.svg"
   inkscape:version="0.92.3 (2405546, 2018-03-11)">
  <sodipodi:namedview
     pagecolor="#ffffff"
     bordercolor="#666666"
     borderopacity="1"
     objecttolerance="10"
     gridtolerance="10"
     guidetolerance="10"
     inkscape:pageopacity="0"
     inkscape:pageshadow="2"
     inkscape:window-width="1920"
     inkscape:window-height="1017"
     id="namedview51"
     showgrid="false"
     inkscape:zoom="1.1611448"
     inkscape:cx="349.19662"
     inkscape:cy="262.50845"
     inkscape:window-x="3832"
     inkscape:window-y="-8"
     inkscape:window-maximized="1"
     inkscape:current-layer="svg8" />
  <defs
     id="defs2" />
  <metadata
     id="metadata5">
    <rdf:RDF>
      <cc:Work
         rdf:about="">
        <dc:format>image/svg+xml</dc:format>
        <dc:type
           rdf:resource="http://purl.org/dc/dcmitype/StillImage" />
        <dc:title />
      </cc:Work>
    </rdf:RDF>
  </metadata>
  <g
     id="g3456"
     transform="matrix(0.40153619,0,0,0.40153619,-261.45419,-11.197046)">
    <g
       id="g3433">
      <g
         id="g3431"
         transform="translate(-828.3663,114.84169)">
        <path
           inkscape:connector-curvature="0"
           style="clip-rule:evenodd;fill:none;fill-rule:evenodd"
           d="m 0,0 c 156.64,0 313.279,0 469.92,0 0,106.8 0,213.6 0,320.399 -156.641,0 -313.28,0 -469.92,0 C 0,213.6 0,106.8 0,0 Z m 77.492,176.637 c -1.005,2.304 -1.839,4.599 -2.971,6.735 -2.999,5.662 -7.502,9.677 -13.596,11.804 -2.208,0.771 -4.316,0.424 -6.335,-0.721 -1.874,-1.062 -2.821,-2.825 -3.635,-4.824 -5.721,7.046 -12.479,12.03 -21.912,12.233 0.423,2.514 0.748,4.936 1.248,7.319 1.612,7.686 3.909,15.158 7.206,22.3 2.471,5.354 5.917,10.093 9.74,14.514 4.116,4.759 8.939,8.789 14.154,12.331 5.746,3.901 11.556,7.715 17.199,11.759 2.894,2.074 5.568,4.479 8.191,6.896 2.578,2.375 5.257,4.732 7.371,7.496 3.466,4.531 6.674,9.284 9.684,14.135 2.45,3.948 4.395,8.206 6.667,12.27 1.479,2.646 2.971,5.318 4.774,7.742 1.777,2.39 5.076,1.958 6.908,-0.433 2.233,-2.916 2.963,-6.284 3.009,-9.771 0.031,-2.357 -0.479,-4.737 -0.893,-7.081 -0.734,-4.163 -1.656,-8.246 -3.483,-12.143 -2.686,-5.727 -5.811,-11.139 -9.604,-16.207 -3.562,-4.76 -7.366,-9.276 -11.604,-13.451 -3.984,-3.924 -7.952,-7.877 -11.702,-12.021 -3.69,-4.077 -7.327,-8.189 -11.4,-11.895 -0.478,-0.435 -0.854,-0.981 -1.277,-1.476 0.083,-0.083 0.165,-0.167 0.247,-0.25 1.262,1.057 2.535,2.101 3.784,3.173 2.866,2.46 5.703,4.954 8.583,7.396 2.914,2.472 6.014,4.742 8.772,7.374 6.836,6.52 13.379,13.317 18.936,21.009 3.165,4.381 6.009,8.934 7.905,14.003 0.911,2.437 1.45,5.009 2.26,7.485 1.037,3.172 2.166,6.314 3.278,9.462 0.811,2.295 1.57,4.614 2.512,6.855 1.294,3.079 4.974,4.281 7.831,1.707 0.738,-0.665 1.319,-1.592 1.74,-2.506 1.724,-3.737 1.865,-7.815 2.125,-11.806 0.193,-2.951 -0.391,-5.944 -0.37,-8.917 0.028,-3.802 -1.256,-7.235 -2.638,-10.639 -2.171,-5.349 -5.361,-10.135 -8.42,-15.006 -4.47,-7.118 -9.933,-13.385 -15.865,-19.272 -2.49,-2.472 -5.131,-4.79 -7.664,-7.22 -2.996,-2.873 -5.956,-5.784 -8.914,-8.696 -0.535,-0.527 -0.984,-1.142 -1.474,-1.715 0.079,-0.067 0.157,-0.135 0.235,-0.202 0.451,0.302 0.887,0.627 1.354,0.901 5.191,3.049 9.389,7.344 13.847,11.276 4.126,3.64 7.887,7.701 11.723,11.66 1.766,1.823 3.499,3.727 4.945,5.804 3.164,4.542 6.164,9.198 9.177,13.844 3.534,5.449 5.85,11.411 7.264,17.734 0.879,3.93 2.474,7.478 5.455,10.292 1.791,1.691 4.892,2.769 6.928,1.296 2.016,-1.457 3.244,-3.48 3.655,-5.881 0.653,-3.808 0.148,-7.604 -0.48,-11.375 -0.47,-2.816 -1.322,-5.509 -2.841,-7.942 -2.854,-4.575 -6.165,-8.74 -10.27,-12.313 -3.454,-3.007 -6.6,-6.367 -9.895,-9.558 -4.654,-4.507 -9.309,-9.014 -13.985,-13.497 -2.123,-2.035 -4.298,-4.014 -6.449,-6.019 -0.723,-0.673 -1.447,-1.346 -2.171,-2.019 0.095,-0.125 0.19,-0.251 0.285,-0.376 1.742,1.116 3.624,2.065 5.201,3.379 4.74,3.949 9.421,7.974 14.01,12.096 4.095,3.679 8.048,7.515 12.043,11.304 3.766,3.57 7.415,7.27 11.296,10.708 1.624,1.438 3.691,2.392 5.607,3.478 0.899,0.51 1.759,0.193 2.47,-0.557 1.129,-1.192 2.001,-2.451 2.318,-4.162 0.446,-2.405 0.49,-4.753 -0.413,-7.012 -2.044,-5.112 -5.262,-9.354 -9.785,-12.544 -1.474,-1.039 -2.841,-2.251 -4.733,-2.59 -4.775,-0.855 -9.182,-2.744 -13.261,-5.293 -3.042,-1.899 -5.929,-4.063 -8.776,-6.253 -1.65,-1.271 -3.083,-2.823 -4.615,-4.248 0.061,-0.083 0.121,-0.165 0.182,-0.248 0.463,0.263 0.95,0.49 1.385,0.793 1.857,1.291 3.591,2.804 5.567,3.873 6.734,3.644 13.733,6.714 21.232,8.401 2.569,0.577 5.312,1.168 7.778,-0.631 0.767,-0.56 1.611,-1.013 2.372,-1.579 2.055,-1.532 3.027,-5.416 1.669,-7.459 -1,-1.504 -2.178,-3.023 -3.614,-4.073 -2.482,-1.813 -5.18,-3.352 -7.875,-4.845 -2.895,-1.604 -6.005,-2.84 -8.814,-4.572 -3.219,-1.985 -6.265,-4.269 -9.283,-6.559 -1.854,-1.407 -3.515,-3.07 -5.158,-4.526 1.604,-0.075 3.227,-0.064 4.828,-0.244 2.617,-0.296 4.101,-2.081 4.099,-4.704 -0.001,-1.987 -0.891,-3.674 -2.122,-5.054 -2.106,-2.361 -4.482,-4.479 -6.668,-6.772 -3.518,-3.692 -7.03,-7.395 -10.438,-11.188 -2.731,-3.038 -5.323,-6.203 -7.942,-9.34 -2.337,-2.799 -4.65,-5.618 -6.928,-8.466 -1.198,-1.498 -2.296,-3.074 -3.526,-4.731 -3.12,4.882 -6.677,8.799 -12.75,7.991 -0.627,2.525 -1.052,4.928 -1.826,7.212 -1.836,5.433 -7.471,7.581 -12.674,4.842 z m 275.705,53.518 c 0.122,0.137 0.244,0.273 0.366,0.41 -0.219,0.251 -0.415,0.527 -0.662,0.747 -0.855,0.764 -1.759,1.476 -2.589,2.267 -3.387,3.228 -6.748,6.482 -10.129,9.717 -2.793,2.673 -5.617,5.313 -8.396,8 -2.322,2.244 -4.602,4.531 -6.896,6.802 -3.707,3.668 -7.883,6.863 -10.921,11.203 -2.204,3.146 -4.553,6.231 -5.477,10.015 -0.949,3.89 -1.459,7.877 -1.271,11.905 0.12,2.574 0.84,4.892 2.691,6.865 2.192,2.338 4.299,2.281 6.821,0.776 3.215,-1.916 4.864,-5.148 6.03,-8.536 1.401,-4.074 2.262,-8.35 3.838,-12.348 2.229,-5.65 5.417,-10.837 8.947,-15.78 2.534,-3.548 4.894,-7.297 7.89,-10.422 5.186,-5.407 10.256,-10.956 16.068,-15.747 3.645,-3.003 6.929,-6.449 11.101,-8.785 0.435,-0.243 0.826,-0.562 1.238,-0.845 -0.163,0.65 -0.473,1.114 -0.863,1.496 -1.938,1.896 -3.885,3.784 -5.854,5.647 -2.491,2.357 -5.042,4.652 -7.501,7.042 -2.034,1.977 -4.021,4.009 -5.943,6.093 -2.803,3.038 -5.813,5.941 -8.224,9.271 -3.733,5.157 -7.138,10.563 -10.492,15.981 -4.149,6.7 -6.367,14.041 -6.29,21.955 0.035,3.644 0.316,7.299 0.754,10.917 0.222,1.836 0.84,3.691 1.624,5.378 1.597,3.435 4.071,4.088 6.595,3.226 1.934,-0.661 2.788,-2.401 3.435,-4.163 0.934,-2.542 1.721,-5.137 2.604,-7.697 1.025,-2.971 2.41,-5.859 3.067,-8.907 1.391,-6.445 4.231,-12.192 8.011,-17.455 3.328,-4.636 6.604,-9.345 10.721,-13.371 3.908,-3.822 7.593,-7.884 11.643,-11.546 5.34,-4.826 10.936,-9.37 16.43,-14.023 0.946,-0.801 1.939,-1.546 2.912,-2.315 0.079,0.086 0.158,0.173 0.238,0.259 -0.589,0.62 -1.159,1.259 -1.77,1.857 -1.847,1.813 -3.775,3.547 -5.551,5.427 -4.215,4.466 -8.324,9.033 -12.546,13.493 -2.826,2.986 -5.886,5.758 -8.639,8.808 -4.653,5.156 -8.888,10.637 -12.492,16.609 -2.404,3.986 -4.47,8.121 -6.093,12.457 -0.825,2.203 -1.292,4.564 -1.693,6.894 -0.603,3.502 -1.67,6.929 -1.105,10.612 0.453,2.958 1.232,5.701 3.063,8.06 1.877,2.418 5.318,2.295 6.737,0.323 1.034,-1.437 2.116,-2.859 2.962,-4.407 2.535,-4.644 4.848,-9.413 7.462,-14.011 5.015,-8.816 10.675,-17.169 18.54,-23.763 3.364,-2.819 6.755,-5.626 10.306,-8.201 5.877,-4.262 11.869,-8.365 17.857,-12.469 4.904,-3.36 9,-7.552 12.75,-12.108 4.652,-5.652 8.109,-11.969 10.654,-18.837 2.061,-5.56 3.476,-11.277 4.713,-17.051 0.419,-1.954 0.663,-3.945 1.003,-6.018 -9.453,-0.208 -16.205,-5.203 -21.887,-12.205 -0.319,0.661 -0.571,1.235 -0.866,1.786 -1.743,3.261 -5.141,4.83 -8.687,3.84 -1.524,-0.426 -3.047,-1.047 -4.399,-1.862 -5.192,-3.129 -9.02,-7.437 -11.036,-13.248 -0.414,-1.192 -1.028,-2.314 -1.552,-3.472 -5.764,2.938 -11.324,0.073 -13.03,-5.829 -0.592,-2.048 -0.945,-4.165 -1.421,-6.313 -6.229,0.797 -9.721,-3.16 -12.797,-7.912 -0.293,0.361 -0.518,0.627 -0.731,0.903 -2.621,3.373 -5.177,6.799 -7.878,10.106 -2.511,3.074 -5.162,6.033 -7.776,9.021 -2.985,3.411 -5.901,6.891 -9.027,10.168 -2.583,2.709 -5.491,5.104 -8.132,7.761 -1.704,1.714 -3.267,3.648 -3.868,6.047 -0.724,2.891 -0.047,4.876 2.867,5.919 0.952,0.341 2.013,0.449 3.034,0.51 0.95,0.057 1.913,-0.091 3.008,-0.158 -1.126,0.992 -2.113,1.903 -3.145,2.763 -2.07,1.725 -4.125,3.473 -6.258,5.117 -4.44,3.423 -9.604,5.577 -14.518,8.173 -3.569,1.885 -7.154,3.72 -9.819,6.965 -2.148,2.614 -2.424,6.403 -0.128,8.62 2.662,2.57 5.743,3.794 9.592,3.032 4.543,-0.898 8.842,-2.457 13.074,-4.241 4.304,-1.814 8.657,-3.54 12.355,-6.528 1.201,-0.971 2.554,-1.755 3.838,-2.625 0.061,0.084 0.122,0.169 0.184,0.253 -0.205,0.23 -0.386,0.487 -0.617,0.688 -2.43,2.111 -4.753,4.369 -7.329,6.286 -5.626,4.184 -11.683,7.547 -18.677,8.931 -0.912,0.181 -1.873,0.503 -2.627,1.026 -3.234,2.244 -6.33,4.666 -8.568,7.986 -1.542,2.288 -2.92,4.641 -3.675,7.35 -0.659,2.367 -0.342,4.672 0.225,6.921 0.833,3.315 3.302,4.278 6.299,2.787 2.105,-1.048 3.774,-2.606 5.452,-4.19 4.352,-4.109 8.742,-8.178 13.091,-12.289 2.987,-2.824 5.862,-5.77 8.912,-8.522 4.138,-3.734 8.34,-7.404 12.628,-10.965 1.93,-1.608 4.135,-2.883 6.215,-4.307 z m 73.512,-122.778 c 2.238,2.084 4.319,4.229 6.617,6.111 3.354,2.748 6.659,5.624 11.365,5.909 3.679,0.223 7.306,0.492 10.648,-1.518 2.159,-1.298 3.828,-3.085 4.458,-5.494 0.943,-3.607 -1.803,-7.199 -5.006,-8.484 -1.316,-0.528 -2.709,-0.952 -3.9,-1.69 -3.552,-2.199 -5.759,-5.65 -7.774,-9.144 -1.711,-2.965 -3.056,-6.145 -4.491,-9.262 -1.122,-2.439 -2.252,-4.887 -3.167,-7.407 -1.071,-2.95 -1.808,-6.021 -2.88,-8.971 -1.853,-5.099 -3.793,-10.168 -5.809,-15.205 -1.597,-3.988 -3.506,-7.854 -5.011,-11.873 -1.725,-4.605 -3.748,-9.028 -6.37,-13.194 -1.494,-2.374 -2.61,-5.003 -4.241,-7.27 -2.102,-2.921 -4.579,-5.57 -6.84,-8.38 -3.141,-3.903 -6.303,-7.764 -10.961,-10.001 -0.662,-0.318 -1.265,-0.928 -1.944,-1.015 -1.646,-0.209 -3.329,-0.314 -4.986,-0.234 -2.7,0.129 -5.005,1.421 -6.364,3.647 -2.963,4.851 -4.439,10.198 -4.46,15.93 -0.021,5.581 0.196,11.131 0.887,16.686 0.544,4.372 0.732,8.812 0.731,13.222 -0.002,4.49 -0.354,8.986 -0.695,13.468 -0.227,2.978 -1.537,5.498 -4.063,7.198 -1.53,1.03 -3.123,1.877 -5.076,2.126 -4.424,0.564 -8.487,-0.268 -11.996,-2.951 -3.667,-2.804 -7.212,-5.78 -10.08,-9.474 -0.423,-0.545 -1.419,-1.075 -2.027,-0.96 -1.438,0.271 -3.065,0.553 -3.718,2.202 -0.458,1.158 -0.908,2.343 -1.14,3.559 -0.294,1.544 -0.271,3.148 -0.548,4.697 -0.57,3.208 -1.467,6.375 -1.823,9.603 -0.41,3.706 -0.517,7.462 -0.496,11.195 0.017,2.879 0.61,5.754 0.635,8.633 0.04,4.56 1.839,8.594 3.47,12.67 1.473,3.681 3.124,7.296 4.847,10.869 0.917,1.902 2.022,3.746 3.276,5.443 1.41,1.909 3.049,3.654 4.655,5.409 1.12,1.224 2.486,2.113 4.206,1.33 0.92,-0.418 1.67,-1.196 2.538,-1.744 3.927,-2.479 6.434,-6.004 7.832,-10.396 0.481,-1.511 1.127,-2.971 1.734,-4.55 0.894,3.564 2.225,6.838 4.287,9.722 1.462,2.045 3.508,3.148 6.206,2.587 2.635,-0.548 3.888,-2.469 4.739,-4.699 0.781,-2.044 1.316,-4.183 1.85,-5.922 0.693,1.909 1.432,4.185 2.341,6.391 1.255,3.047 2.749,5.993 5.28,8.208 2.292,2.006 4.961,3.409 7.902,4.21 2.196,0.598 4.705,-0.495 5.79,-2.479 0.761,-1.391 0.912,-2.873 0.673,-4.481 -0.373,-2.506 -0.559,-5.041 -0.771,-7.569 -0.272,-3.236 -0.493,-6.478 -0.736,-9.716 0.358,0.407 0.534,0.869 0.731,1.32 0.916,2.086 1.726,4.229 2.783,6.24 1.802,3.427 3.789,6.72 6.576,9.513 3.131,3.137 6.521,5.742 10.917,6.765 2.648,0.617 5.274,0.428 7.875,-0.358 1.29,-0.39 2.307,-1.159 2.341,-2.499 0.037,-1.456 -0.019,-3.05 -0.568,-4.359 -2.283,-5.437 -4.789,-10.779 -7.17,-16.174 -1.072,-2.424 -2.044,-4.895 -3.079,-7.39 z M 101.2,118.054 c 0.615,1.666 1.104,3.231 1.765,4.721 0.794,1.789 1.644,3.567 2.632,5.255 1.506,2.572 3.99,4.148 6.293,5.92 2.547,1.959 4.295,0.926 5.887,-0.811 1.073,-1.171 2.06,-2.422 3.142,-3.585 2.234,-2.403 3.834,-5.146 4.959,-8.24 0.842,-2.317 2.054,-4.498 3.04,-6.766 1.3,-2.991 2.819,-5.925 3.739,-9.033 1.373,-4.639 1.579,-9.504 1.716,-14.32 0.077,-2.689 -0.414,-5.391 -0.407,-8.086 0.012,-4.663 -0.711,-9.191 -1.926,-13.673 -0.295,-1.091 -0.416,-2.254 -0.439,-3.388 -0.041,-2 -0.39,-3.851 -1.723,-5.435 -1.656,-1.967 -4.156,-1.902 -5.764,0.071 -1.131,1.388 -2.372,2.7 -3.673,3.93 -1.504,1.421 -3.136,2.708 -4.701,4.066 -4.193,3.641 -9.169,4.922 -14.407,3.626 -4.082,-1.009 -7.166,-3.71 -7.767,-8.334 -0.169,-1.299 -0.259,-2.61 -0.465,-3.902 -0.856,-5.363 -0.367,-10.747 -0.153,-16.11 0.177,-4.435 0.833,-8.849 1.119,-13.283 0.213,-3.303 0.2,-6.621 0.244,-9.934 0.07,-5.363 -1.005,-10.446 -3.557,-15.224 -1.335,-2.499 -3,-4.471 -5.914,-4.957 -2.932,-0.489 -5.87,-1.004 -8.526,1.076 -1.701,1.332 -3.696,2.328 -5.25,3.801 -2.095,1.985 -3.932,4.25 -5.806,6.458 -2.205,2.598 -4.478,5.159 -6.444,7.932 -1.639,2.312 -2.816,4.946 -4.309,7.369 -2.35,3.81 -4.317,7.782 -5.907,11.978 -1.577,4.162 -3.48,8.198 -5.189,12.311 -0.694,1.67 -1.229,3.405 -1.875,5.096 -1.363,3.562 -2.733,7.12 -4.134,10.667 -1.719,4.351 -2.755,8.921 -4.718,13.216 -2.838,6.21 -5.143,12.658 -9.622,17.995 -1.658,1.975 -3.355,3.754 -5.887,4.616 -2.104,0.716 -4.089,1.648 -5.586,3.464 -1.254,1.522 -2.265,5.004 -0.971,7.217 1.714,2.93 4.195,4.825 7.42,5.469 2.156,0.43 4.447,0.366 6.664,0.249 1.51,-0.08 3.071,-0.447 4.478,-1.012 3.548,-1.425 6.343,-4.007 9.175,-6.474 1.656,-1.442 3.125,-3.099 4.679,-4.66 -0.347,1.311 -0.823,2.509 -1.346,3.686 -1.674,3.768 -3.4,7.513 -5.039,11.296 -1.437,3.318 -2.979,6.61 -4.112,10.033 -1.054,3.183 0.115,4.93 2.579,5.6 5.277,1.435 10.069,0.213 14.318,-2.988 2.095,-1.579 3.896,-3.565 5.742,-5.452 2.391,-2.443 3.824,-5.52 5.318,-8.532 1.08,-2.178 2.032,-4.419 3.041,-6.632 -0.055,1.915 -0.251,3.808 -0.427,5.703 -0.388,4.185 -0.712,8.375 -1.167,12.553 -0.264,2.428 1.417,4.998 3.752,5.76 1.731,0.565 3.227,0.144 4.83,-0.449 5.29,-1.957 8.736,-5.728 10.837,-10.825 1.042,-2.528 1.936,-5.119 2.698,-7.15 0.698,2.021 1.324,4.618 2.464,6.966 2.276,4.689 7.668,4.894 10.584,0.562 1.915,-2.848 3.161,-5.983 4.096,-9.407 z m 315.984,62.55 c 0.409,0.728 0.857,1.602 1.376,2.432 2.295,3.675 4.741,7.252 8.259,9.881 1.912,1.429 3.917,2.797 6.047,3.856 3.875,1.928 8.072,2.135 12.274,1.448 2.903,-0.475 5.862,-1.179 8.227,-2.976 3.529,-2.682 4.213,-3.689 1.656,-7.916 -0.811,-1.339 -1.968,-2.467 -2.942,-3.709 -3.191,-4.063 -6.484,-8.053 -9.51,-12.236 -1.548,-2.142 -2.61,-4.635 -3.943,-7.064 1.967,1.632 3.668,3.333 5.64,4.621 5.236,3.421 10.946,3.965 16.868,2.126 3.709,-1.152 6.326,-3.666 8.056,-7.099 1.037,-2.059 0.582,-4.273 -1.316,-5.547 -1.761,-1.181 -3.636,-2.256 -5.589,-3.073 -3.688,-1.543 -6.764,-3.818 -8.908,-7.165 -1.822,-2.843 -3.39,-5.851 -5.043,-8.801 -0.442,-0.789 -0.887,-1.6 -1.161,-2.456 -1.34,-4.182 -2.692,-8.362 -3.886,-12.586 -0.409,-1.447 -1.119,-2.074 -2.556,-2.452 -1.656,-0.435 -3.198,-1.305 -4.924,-2.044 0.245,0.474 0.495,0.866 0.66,1.291 1.431,3.676 3.034,7.299 4.214,11.056 1.243,3.957 -0.845,7.401 -3.592,8.419 -4.439,1.647 -8.926,1.668 -13.331,-0.081 -3.843,-1.525 -7.131,-3.893 -9.858,-7.024 -0.845,-0.97 -1.759,-1.879 -2.794,-2.979 0,0.57 -0.074,0.939 0.013,1.266 0.434,1.644 -0.113,3.172 -0.572,4.684 -1.104,3.63 -5.377,6.242 -9.09,5.41 -5.435,-1.219 -10.063,-3.8 -13.207,-8.585 -0.823,-1.254 -1.559,-2.566 -2.41,-3.976 -2.156,3.429 -5.219,4.847 -9.098,4.355 -3.876,-0.491 -6.182,-3.099 -7.959,-6.385 -2.016,3.538 -3.755,5.463 -7.206,8.098 -0.246,0.188 -0.556,0.581 -0.511,0.814 0.431,2.195 0.753,4.435 1.448,6.55 1.724,5.252 3.963,10.288 7.34,14.718 1.817,2.385 4.053,4.284 7.326,3.775 1.58,-0.245 3.089,-0.955 4.644,-1.458 0,2.292 -0.162,4.824 0.047,7.325 0.192,2.296 0.986,4.473 2.71,6.157 1.687,1.649 5.495,2.141 7.101,-0.732 0.823,-1.473 1.543,-3.004 2.364,-4.616 0.138,0.961 0.241,1.842 0.393,2.714 0.487,2.8 1.456,5.433 2.468,8.091 1.941,5.097 5.151,9.028 9.777,11.808 1.23,0.739 2.615,1.379 4.01,1.654 2.473,0.489 4.554,-1.108 5.199,-3.958 0.569,-2.523 0.873,-5.106 1.289,-7.631 z M 31.244,164.192 c -0.135,0.284 -0.193,0.408 -0.253,0.53 -1.976,4.039 -4.022,8.011 -7.061,11.42 -2.626,2.946 -5.062,6.065 -7.509,9.165 -0.943,1.195 -1.799,2.492 -2.485,3.85 -0.565,1.117 -1.003,2.456 0.013,3.568 0.956,1.047 1.94,2.203 3.156,2.853 4.516,2.41 9.315,3.358 14.488,2.738 3.662,-0.438 6.845,-1.885 9.737,-3.918 3.12,-2.193 5.811,-4.917 7.893,-8.174 1.221,-1.908 2.465,-3.803 3.594,-5.541 0.296,2.101 0.504,4.371 0.971,6.586 0.254,1.202 0.771,2.439 1.485,3.435 1.256,1.749 2.847,1.857 5.658,0.859 3.515,-1.249 6.135,-3.636 8.502,-6.405 2.392,-2.8 3.382,-6.297 4.868,-9.547 0.321,-0.701 0.433,-1.506 0.59,-2.272 0.362,-1.764 0.693,-3.532 1.049,-5.365 0.605,1.262 1.217,2.413 1.72,3.611 1.821,4.334 6.781,3.439 8.505,0.743 1.435,-2.245 2.008,-4.692 2.15,-7.27 0.101,-1.826 0.02,-3.663 0.02,-5.494 0.255,0.171 0.562,0.42 0.905,0.6 2.467,1.295 4.953,1.713 7.548,0.284 2.028,-1.116 3.303,-2.918 4.524,-4.764 3.899,-5.891 6.316,-12.366 7.457,-19.322 0.047,-0.287 -0.15,-0.771 -0.387,-0.924 -3.139,-2.027 -5.322,-4.896 -7.275,-8.148 -1.745,3.328 -4.083,5.916 -7.993,6.402 -3.871,0.481 -6.908,-0.992 -8.998,-4.277 -0.188,0.128 -0.27,0.16 -0.313,0.22 -0.094,0.129 -0.181,0.266 -0.248,0.41 -1.845,3.997 -4.546,7.244 -8.48,9.301 -3.027,1.583 -6.012,3.167 -9.744,2.308 -3.543,-0.815 -5.506,-2.914 -6.242,-6.281 -0.33,-1.508 -0.321,-3.09 -0.423,-4.182 -1.69,1.55 -3.563,3.381 -5.554,5.074 -5.718,4.865 -12.127,6.884 -19.557,4.614 -2.932,-0.896 -5.186,-3.634 -4.483,-7.452 0.528,-2.873 1.639,-5.652 2.634,-8.42 0.635,-1.766 1.533,-3.438 2.225,-4.958 -2.018,0.746 -4.101,1.502 -6.17,2.296 -0.255,0.098 -0.545,0.357 -0.631,0.606 -0.907,2.635 -1.996,5.233 -2.612,7.938 -1.333,5.848 -3.98,11.082 -7.089,16.111 -2.434,3.937 -5.806,6.817 -10.175,8.528 -1.643,0.643 -3.22,1.515 -4.716,2.458 -2.186,1.379 -2.886,3.569 -1.921,5.713 1.168,2.595 2.952,4.739 5.432,6.12 4.772,2.658 9.833,2.799 15.007,1.337 4.11,-1.159 7.052,-4.026 10.188,-6.964 z"
           id="path3417" />
        <g
           id="g3498"
           transform="matrix(1.0620405,0,0,1.0620405,717.73974,-130.21592)">
          <path
             inkscape:connector-curvature="0"
             id="path3419"
             d="m 796.86011,246.33385 c 5.203,2.739 10.837,0.591 12.676,-4.838 0.774,-2.284 1.199,-4.687 1.826,-7.212 6.073,0.808 9.631,-3.109 12.75,-7.991 1.23,1.658 2.329,3.234 3.526,4.731 2.278,2.848 4.591,5.667 6.928,8.466 2.62,3.137 5.211,6.302 7.942,9.34 3.409,3.793 6.92,7.495 10.438,11.188 2.186,2.294 4.563,4.411 6.668,6.772 1.23,1.38 2.121,3.066 2.122,5.054 10e-4,2.623 -1.482,4.408 -4.099,4.704 -1.601,0.18 -3.223,0.169 -4.828,0.244 1.643,1.456 3.303,3.119 5.158,4.526 3.018,2.29 6.063,4.573 9.283,6.559 2.81,1.732 5.919,2.968 8.814,4.572 2.696,1.493 5.393,3.032 7.875,4.845 1.437,1.05 2.615,2.569 3.614,4.073 1.358,2.043 0.386,5.927 -1.669,7.459 -0.76,0.566 -1.604,1.02 -2.372,1.579 -2.467,1.799 -5.209,1.208 -7.778,0.631 -7.5,-1.688 -14.499,-4.758 -21.232,-8.401 -1.976,-1.069 -3.709,-2.582 -5.567,-3.873 -0.435,-0.303 -0.922,-0.53 -1.385,-0.793 -0.061,0.083 -0.121,0.165 -0.182,0.248 1.531,1.425 2.964,2.978 4.615,4.248 2.847,2.189 5.734,4.354 8.776,6.253 4.079,2.549 8.486,4.438 13.261,5.293 1.893,0.339 3.26,1.551 4.733,2.59 4.523,3.19 7.74,7.432 9.785,12.544 0.903,2.259 0.858,4.606 0.413,7.012 -0.317,1.711 -1.188,2.97 -2.318,4.162 -0.711,0.75 -1.571,1.066 -2.47,0.557 -1.916,-1.086 -3.983,-2.039 -5.607,-3.478 -3.881,-3.438 -7.53,-7.138 -11.296,-10.708 -3.995,-3.789 -7.948,-7.625 -12.043,-11.304 -4.589,-4.122 -9.271,-8.146 -14.01,-12.096 -1.577,-1.313 -3.458,-2.263 -5.201,-3.379 -0.095,0.125 -0.189,0.251 -0.285,0.376 0.724,0.673 1.448,1.346 2.171,2.019 2.151,2.005 4.327,3.983 6.449,6.019 4.677,4.483 9.331,8.99 13.985,13.497 3.295,3.19 6.44,6.551 9.895,9.558 4.105,3.573 7.416,7.738 10.27,12.313 1.519,2.434 2.371,5.126 2.841,7.942 0.628,3.771 1.134,7.567 0.48,11.375 -0.412,2.4 -1.64,4.424 -3.655,5.881 -2.036,1.473 -5.137,0.396 -6.928,-1.296 -2.98,-2.814 -4.576,-6.362 -5.455,-10.292 -1.414,-6.323 -3.73,-12.285 -7.264,-17.734 -3.013,-4.646 -6.013,-9.302 -9.177,-13.844 -1.446,-2.077 -3.179,-3.98 -4.945,-5.804 -3.835,-3.959 -7.596,-8.021 -11.723,-11.66 -4.458,-3.933 -8.656,-8.228 -13.847,-11.276 -0.467,-0.274 -0.903,-0.6 -1.354,-0.901 -0.078,0.067 -0.157,0.135 -0.235,0.202 0.489,0.573 0.938,1.188 1.474,1.715 2.958,2.912 5.918,5.823 8.914,8.696 2.533,2.43 5.174,4.748 7.664,7.22 5.932,5.888 11.395,12.154 15.865,19.272 3.059,4.871 6.249,9.657 8.42,15.006 1.382,3.403 2.666,6.837 2.638,10.639 -0.021,2.973 0.563,5.966 0.37,8.917 -0.26,3.99 -0.401,8.068 -2.125,11.806 -0.421,0.914 -1.002,1.841 -1.74,2.506 -2.857,2.574 -6.537,1.372 -7.831,-1.707 -0.942,-2.241 -1.701,-4.561 -2.512,-6.855 -1.112,-3.147 -2.241,-6.29 -3.278,-9.462 -0.81,-2.477 -1.349,-5.049 -2.26,-7.485 -1.896,-5.069 -4.74,-9.622 -7.905,-14.003 -5.556,-7.691 -12.1,-14.489 -18.936,-21.009 -2.758,-2.632 -5.858,-4.902 -8.772,-7.374 -2.88,-2.442 -5.717,-4.937 -8.583,-7.396 -1.249,-1.072 -2.521,-2.116 -3.784,-3.173 -0.083,0.083 -0.165,0.167 -0.247,0.25 0.423,0.494 0.8,1.041 1.277,1.476 4.073,3.705 7.71,7.817 11.4,11.895 3.75,4.144 7.718,8.097 11.702,12.021 4.238,4.175 8.042,8.691 11.604,13.451 3.793,5.068 6.918,10.48 9.604,16.207 1.827,3.896 2.749,7.979 3.483,12.143 0.414,2.344 0.924,4.724 0.893,7.081 -0.046,3.487 -0.776,6.855 -3.009,9.771 -1.833,2.391 -5.131,2.822 -6.908,0.433 -1.803,-2.424 -3.294,-5.096 -4.774,-7.742 -2.272,-4.063 -4.218,-8.321 -6.667,-12.27 -3.009,-4.851 -6.217,-9.604 -9.684,-14.135 -2.114,-2.764 -4.793,-5.121 -7.371,-7.496 -2.624,-2.417 -5.298,-4.822 -8.191,-6.896 -5.644,-4.044 -11.454,-7.857 -17.199,-11.759 -5.215,-3.542 -10.038,-7.572 -14.154,-12.331 -3.824,-4.421 -7.269,-9.159 -9.74,-14.514 -3.297,-7.142 -5.594,-14.614 -7.206,-22.3 -0.5,-2.384 -0.825,-4.806 -1.248,-7.319 9.433,-0.203 16.19,-5.188 21.912,-12.233 0.813,1.999 1.761,3.763 3.635,4.824 2.019,1.145 4.126,1.491 6.335,0.721 6.094,-2.127 10.597,-6.142 13.596,-11.804 1.13,-2.141 1.964,-4.436 2.969,-6.739 z"
             style="clip-rule:evenodd;fill-rule:evenodd" />
          <path
             inkscape:connector-curvature="0"
             id="path3421"
             d="m 936.82553,299.85185 c -2.08,1.424 -4.285,2.699 -6.217,4.304 -4.288,3.561 -8.49,7.23 -12.628,10.965 -3.05,2.753 -5.925,5.698 -8.912,8.522 -4.349,4.111 -8.739,8.18 -13.091,12.289 -1.678,1.584 -3.347,3.143 -5.452,4.19 -2.997,1.491 -5.466,0.528 -6.299,-2.787 -0.566,-2.249 -0.884,-4.554 -0.225,-6.921 0.755,-2.709 2.133,-5.062 3.675,-7.35 2.238,-3.32 5.334,-5.742 8.568,-7.986 0.754,-0.523 1.715,-0.846 2.627,-1.026 6.994,-1.384 13.051,-4.747 18.677,-8.931 2.576,-1.917 4.899,-4.175 7.329,-6.286 0.231,-0.2 0.412,-0.457 0.617,-0.688 -0.062,-0.084 -0.123,-0.169 -0.184,-0.253 -1.284,0.87 -2.637,1.654 -3.838,2.625 -3.698,2.988 -8.052,4.714 -12.355,6.528 -4.232,1.784 -8.531,3.343 -13.074,4.241 -3.849,0.762 -6.93,-0.462 -9.592,-3.032 -2.296,-2.217 -2.021,-6.006 0.128,-8.62 2.665,-3.245 6.25,-5.08 9.819,-6.965 4.914,-2.596 10.077,-4.75 14.518,-8.173 2.133,-1.645 4.188,-3.393 6.258,-5.117 1.031,-0.859 2.019,-1.771 3.145,-2.763 -1.095,0.067 -2.058,0.215 -3.008,0.158 -1.021,-0.061 -2.082,-0.169 -3.034,-0.51 -2.914,-1.043 -3.591,-3.028 -2.867,-5.919 0.602,-2.398 2.164,-4.333 3.868,-6.047 2.641,-2.656 5.549,-5.052 8.132,-7.761 3.126,-3.277 6.042,-6.757 9.027,-10.168 2.614,-2.987 5.266,-5.946 7.776,-9.021 2.701,-3.307 5.257,-6.733 7.878,-10.106 0.214,-0.275 0.438,-0.542 0.731,-0.903 3.07595,4.752 6.56803,8.709 12.79697,7.912 0.47606,2.147 0.82906,4.265 1.42106,6.313 1.70592,5.902 7.26696,8.768 13.03,5.829 0.52296,1.157 1.13796,2.279 1.55192,3.472 2.01706,5.812 5.84404,10.119 11.03608,13.248 1.35296,0.815 2.87492,1.437 4.39898,1.862 3.54598,0.99 6.94296,-0.579 8.68706,-3.84 0.295,-0.551 0.547,-1.125 0.866,-1.786 5.682,7.002 12.434,11.997 21.887,12.205 -0.34,2.072 -0.584,4.063 -1.003,6.018 -1.237,5.773 -2.652,11.491 -4.713,17.051 -2.545,6.868 -6.002,13.185 -10.654,18.837 -3.75,4.557 -7.8461,8.748 -12.75004,12.108 -5.988,4.104 -11.98004,8.207 -17.85704,12.469 -3.55102,2.575 -6.941,5.382 -10.30602,8.201 -7.86496,6.594 -13.52496,14.946 -18.53997,23.763 -2.614,4.598 -4.927,9.367 -7.462,14.011 -0.846,1.548 -1.928,2.971 -2.962,4.407 -1.419,1.972 -4.86,2.095 -6.737,-0.323 -1.831,-2.358 -2.61,-5.102 -3.063,-8.06 -0.564,-3.684 0.503,-7.11 1.105,-10.612 0.401,-2.329 0.868,-4.69 1.693,-6.894 1.623,-4.336 3.688,-8.471 6.093,-12.457 3.604,-5.973 7.839,-11.453 12.492,-16.609 2.75301,-3.05 5.81303,-5.821 8.63895,-8.808 4.22208,-4.46 8.33106,-9.027 12.546,-13.493 1.77506,-1.88 3.70402,-3.614 5.55104,-5.427 0.61,-0.599 1.18096,-1.237 1.76996,-1.857 -0.08,-0.086 -0.159,-0.173 -0.238,-0.259 -0.97296,0.77 -1.96592,1.515 -2.91192,2.315 -5.49404,4.653 -11.09004,9.197 -16.43008,14.023 -4.04998,3.662 -7.73395,7.724 -11.64295,11.546 -4.117,4.026 -7.393,8.735 -10.721,13.371 -3.779,5.263 -6.62,11.01 -8.011,17.455 -0.657,3.048 -2.042,5.937 -3.067,8.907 -0.883,2.561 -1.67,5.155 -2.604,7.697 -0.646,1.762 -1.501,3.502 -3.435,4.163 -2.523,0.862 -4.998,0.209 -6.595,-3.226 -0.784,-1.687 -1.402,-3.542 -1.624,-5.378 -0.438,-3.618 -0.719,-7.273 -0.754,-10.917 -0.077,-7.914 2.141,-15.255 6.29,-21.955 3.354,-5.418 6.759,-10.824 10.492,-15.981 2.41,-3.33 5.421,-6.233 8.224,-9.271 1.923,-2.084 3.909,-4.116 5.943,-6.093 2.459,-2.39 5.01,-4.685 7.501,-7.042 1.97,-1.863 3.91601,-3.752 5.85397,-5.647 0.391,-0.382 0.70006,-0.846 0.86306,-1.496 -0.41206,0.283 -0.80406,0.602 -1.23806,0.845 -4.17197,2.336 -7.45597,5.782 -11.10097,8.785 -5.813,4.791 -10.883,10.34 -16.068,15.747 -2.996,3.125 -5.355,6.874 -7.89,10.422 -3.53,4.943 -6.719,10.13 -8.947,15.78 -1.576,3.998 -2.437,8.273 -3.838,12.348 -1.166,3.388 -2.815,6.62 -6.03,8.536 -2.522,1.505 -4.629,1.562 -6.821,-0.776 -1.852,-1.974 -2.571,-4.291 -2.691,-6.865 -0.188,-4.028 0.322,-8.016 1.271,-11.905 0.924,-3.783 3.272,-6.868 5.477,-10.015 3.038,-4.34 7.214,-7.535 10.921,-11.203 2.295,-2.271 4.574,-4.558 6.896,-6.802 2.779,-2.687 5.604,-5.327 8.396,-8 3.381,-3.234 6.742,-6.489 10.129,-9.717 0.83,-0.791 1.733,-1.503 2.589,-2.267 0.247,-0.22 0.443,-0.496 0.662,-0.747 -0.12,-0.133 -0.242,-0.27 -0.364,-0.407 z"
             style="clip-rule:evenodd;fill-rule:evenodd" />
          <path
             inkscape:connector-curvature="0"
             id="path3423"
             d="m 1010.3376,177.07385 c 1.035,2.495 2.007,4.966 3.078,7.394 2.381,5.396 4.887,10.738 7.17,16.174 0.55,1.309 0.605,2.903 0.568,4.359 -0.034,1.339 -1.051,2.108 -2.341,2.499 -2.601,0.786 -5.227,0.975 -7.875,0.358 -4.396,-1.023 -7.786,-3.628 -10.9171,-6.765 -2.78698,-2.793 -4.77394,-6.086 -6.576,-9.513 -1.05796,-2.012 -1.86702,-4.154 -2.78298,-6.24 -0.197,-0.452 -0.373,-0.913 -0.731,-1.32 0.243,3.239 0.464,6.48 0.736,9.716 0.21296,2.528 0.39796,5.063 0.77096,7.569 0.239,1.608 0.088,3.09 -0.67296,4.481 -1.085,1.984 -3.59402,3.077 -5.79004,2.479 -2.94092,-0.801 -5.60994,-2.204 -7.90196,-4.21 -2.53102,-2.215 -4.02498,-5.16 -5.28004,-8.208 -0.90896,-2.206 -1.64696,-4.482 -2.34092,-6.391 -0.533,1.739 -1.068,3.878 -1.85006,5.922 -0.85196,2.229 -2.10402,4.151 -4.73894,4.699 -2.69802,0.561 -4.74408,-0.542 -6.20604,-2.587 -2.06302,-2.884 -3.39398,-6.158 -4.28704,-9.722 -0.607,1.58 -1.25295,3.039 -1.73395,4.55 -1.398,4.392 -3.905,7.916 -7.832,10.396 -0.868,0.548 -1.618,1.326 -2.538,1.744 -1.72,0.783 -3.086,-0.106 -4.206,-1.33 -1.606,-1.755 -3.245,-3.5 -4.655,-5.409 -1.254,-1.697 -2.359,-3.542 -3.276,-5.443 -1.723,-3.572 -3.374,-7.188 -4.847,-10.869 -1.631,-4.077 -3.43,-8.111 -3.47,-12.67 -0.024,-2.879 -0.618,-5.754 -0.635,-8.633 -0.021,-3.733 0.086,-7.489 0.496,-11.195 0.356,-3.229 1.253,-6.395 1.823,-9.603 0.276,-1.549 0.254,-3.153 0.548,-4.697 0.231,-1.215 0.682,-2.401 1.14,-3.559 0.652,-1.649 2.28,-1.931 3.718,-2.202 0.608,-0.115 1.604,0.415 2.027,0.96 2.868,3.693 6.413,6.67 10.08,9.474 3.509,2.683 7.572,3.515 11.996,2.951 1.95301,-0.249 3.54597,-1.096 5.07603,-2.126 2.52592,-1.7 3.83698,-4.221 4.06298,-7.198 0.34096,-4.482 0.69296,-8.978 0.69496,-13.468 0,-4.41 -0.188,-8.85 -0.73096,-13.222 -0.69,-5.555 -0.907,-11.10498 -0.887,-16.68596 0.021,-5.731992 1.49696,-11.079992 4.45998,-15.929992 1.35896,-2.226 3.66398,-3.518 6.364,-3.647 1.65696,-0.08 3.34002,0.025 4.98604,0.234 0.68,0.086 1.28196,0.696 1.94396,1.015 4.65804,2.237 7.81996,6.098 10.96098,10.001 2.26102,2.81 4.73804,5.458 6.84006,8.379992 1.63096,2.266995 2.74692,4.895985 4.24098,7.269975 2.62206,4.165985 4.64606,8.588985 6.37006,13.193985 1.505,4.02 3.414,7.885 5.011,11.873 2.016,5.037 3.956,10.106 5.809,15.205 1.072,2.95 1.809,6.021 2.88,8.971 0.915,2.521 2.045,4.968 3.167,7.407 1.436,3.118 2.78,6.297 4.491,9.262 2.016,3.494 4.223,6.944 7.774,9.144 1.191,0.738 2.584,1.162 3.9,1.69 3.203,1.285 5.949,4.877 5.006,8.484 -0.63,2.408 -2.299,4.196 -4.458,5.494 -3.343,2.01 -6.97,1.741 -10.648,1.518 -4.706,-0.285 -8.012,-3.161 -11.365,-5.909 -2.297,-1.886 -4.378,-4.031 -6.616,-6.115 z"
             style="clip-rule:evenodd;fill-rule:evenodd" />
          <path
             inkscape:connector-curvature="0"
             id="path3425"
             d="m 820.56811,187.75085 c -0.935,3.424 -2.181,6.559 -4.096,9.403 -2.916,4.333 -8.308,4.128 -10.584,-0.562 -1.14,-2.348 -1.766,-4.945 -2.464,-6.966 -0.762,2.031 -1.655,4.622 -2.698,7.15 -2.101,5.098 -5.547,8.868 -10.837,10.825 -1.603,0.593 -3.099,1.014 -4.83,0.449 -2.335,-0.763 -4.016,-3.333 -3.752,-5.76 0.455,-4.177 0.779,-8.368 1.167,-12.553 0.175,-1.895 0.372,-3.788 0.427,-5.703 -1.009,2.213 -1.961,4.455 -3.041,6.632 -1.494,3.013 -2.927,6.089 -5.318,8.532 -1.846,1.887 -3.647,3.873 -5.742,5.452 -4.249,3.202 -9.041,4.423 -14.318,2.988 -2.464,-0.67 -3.633,-2.417 -2.579,-5.6 1.133,-3.423 2.675,-6.715 4.112,-10.033 1.638,-3.783 3.365,-7.528 5.039,-11.296 0.523,-1.177 0.999,-2.375 1.346,-3.686 -1.553,1.561 -3.022,3.217 -4.679,4.66 -2.832,2.467 -5.627,5.049 -9.175,6.474 -1.407,0.565 -2.967,0.933 -4.478,1.012 -2.216,0.117 -4.508,0.181 -6.664,-0.249 -3.225,-0.644 -5.706,-2.539 -7.42,-5.469 -1.294,-2.213 -0.284,-5.695 0.971,-7.217 1.497,-1.816 3.482,-2.748 5.586,-3.464 2.532,-0.862 4.229,-2.641 5.887,-4.616 4.479,-5.337 6.783,-11.784 9.622,-17.995 1.963,-4.295 3,-8.865 4.718,-13.216 1.401,-3.547 2.771,-7.105 4.134,-10.667 0.646,-1.69 1.182,-3.426 1.875,-5.096 1.709,-4.113 3.612,-8.149 5.189,-12.311 1.59,-4.195 3.557,-8.167 5.907,-11.977985 1.493,-2.42199 2.67,-5.05698 4.309,-7.368975 1.966,-2.772992 4.24,-5.332992 6.444,-7.931992 1.874,-2.208 3.711,-4.473 5.806,-6.458 1.554,-1.473 3.548,-2.469 5.25,-3.801 2.656,-2.08 5.594,-1.565 8.526,-1.076 2.914,0.486 4.579,2.458 5.914,4.957 2.552,4.777 3.627,9.86 3.557,15.223992 -0.044,3.312985 -0.031,6.630975 -0.244,9.93396 -0.287,4.434 -0.942,8.848 -1.119,13.283 -0.214,5.364 -0.703,10.747 0.153,16.11 0.206,1.292 0.296,2.603 0.465,3.902 0.601,4.625 3.685,7.325 7.767,8.334 5.238,1.296 10.213,0.015 14.407,-3.626 1.565,-1.358 3.196,-2.645 4.701,-4.066 1.302,-1.23 2.542,-2.542 3.673,-3.93 1.608,-1.973 4.108,-2.039 5.764,-0.071 1.333,1.584 1.682,3.436 1.723,5.435 0.023,1.133 0.144,2.297 0.439,3.388 1.215,4.481 1.938,9.01 1.926,13.673 -0.007,2.695 0.484,5.397 0.407,8.086 -0.137,4.816 -0.344,9.682 -1.716,14.32 -0.919,3.108 -2.439,6.042 -3.739,9.033 -0.986,2.269 -2.198,4.449 -3.04,6.766 -1.125,3.094 -2.725,5.837 -4.959,8.24 -1.082,1.163 -2.068,2.414 -3.142,3.585 -1.592,1.737 -3.34,2.77 -5.887,0.811 -2.303,-1.771 -4.788,-3.348 -6.293,-5.92 -0.988,-1.688 -1.837,-3.466 -2.632,-5.255 -0.66,-1.486 -1.15,-3.051 -1.765,-4.717 z"
             style="clip-rule:evenodd;fill-rule:evenodd" />
          <path
             inkscape:connector-curvature="0"
             id="path3427"
             d="m 1000.8125,250.30085 c -0.416,2.524 -0.72,5.107 -1.29096,7.63 -0.646,2.85 -2.72702,4.447 -5.19904,3.958 -1.39496,-0.275 -2.77902,-0.915 -4.00998,-1.654 -4.62598,-2.779 -7.83596,-6.711 -9.77702,-11.808 -1.01196,-2.658 -1.98002,-5.291 -2.46802,-8.091 -0.151,-0.872 -0.255,-1.753 -0.393,-2.714 -0.82096,1.612 -1.54092,3.144 -2.36392,4.616 -1.60506,2.873 -5.41404,2.382 -7.10106,0.732 -1.72396,-1.685 -2.51802,-3.861 -2.71002,-6.157 -0.209,-2.501 -0.047,-5.033 -0.047,-7.325 -1.55496,0.504 -3.06292,1.213 -4.64398,1.458 -3.27298,0.509 -5.50894,-1.391 -7.32596,-3.775 -3.37701,-4.43 -5.61601,-9.466 -7.34001,-14.718 -0.695,-2.115 -1.018,-4.354 -1.448,-6.55 -0.045,-0.234 0.265,-0.627 0.511,-0.814 3.451,-2.634 5.19,-4.56 7.20595,-8.098 1.77702,3.286 4.08308,5.894 7.95906,6.385 3.87898,0.492 6.94096,-0.926 9.09802,-4.355 0.85196,1.41 1.58692,2.722 2.40992,3.976 3.14408,4.785 7.77206,7.367 13.207,8.585 3.71308,0.833 7.98606,-1.779 9.09002,-5.41 0.459,-1.512 1.00606,-3.04 0.57206,-4.684 -0.087,-0.327 -0.013,-0.696 -0.013,-1.266 1.035,1.1 1.94896,2.009 2.79392,2.979 2.72802,3.131 6.01612,5.5 9.85812,7.024 4.405,1.749 8.892,1.728 13.331,0.081 2.747,-1.019 4.835,-4.463 3.592,-8.419 -1.18,-3.756 -2.783,-7.379 -4.214,-11.056 -0.165,-0.425 -0.415,-0.817 -0.66,-1.291 1.726,0.739 3.268,1.609 4.924,2.044 1.437,0.377 2.146,1.004 2.556,2.452 1.193,4.224 2.546,8.405 3.886,12.586 0.274,0.855 0.719,1.667 1.161,2.456 1.653,2.95 3.221,5.958 5.043,8.801 2.145,3.347 5.22,5.622 8.908,7.165 1.953,0.817 3.828,1.893 5.589,3.073 1.898,1.274 2.354,3.488 1.316,5.547 -1.729,3.433 -4.347,5.946 -8.056,7.099 -5.922,1.839 -11.632,1.295 -16.868,-2.126 -1.972,-1.288 -3.673,-2.989 -5.64,-4.621 1.333,2.43 2.396,4.923 3.943,7.064 3.025,4.184 6.318,8.173 9.51,12.236 0.975,1.242 2.132,2.37 2.942,3.709 2.557,4.227 1.873,5.234 -1.656,7.916 -2.364,1.797 -5.323,2.501 -8.227,2.976 -4.202,0.687 -8.399,0.479 -12.274,-1.448 -2.13,-1.06 -4.135,-2.428 -6.047,-3.856 -3.518,-2.629 -5.964,-6.206 -8.259,-9.881 -0.517,-0.829 -0.9651,-1.703 -1.3741,-2.431 z"
             style="clip-rule:evenodd;fill-rule:evenodd" />
          <path
             inkscape:connector-curvature="0"
             id="path3429"
             d="m 750.61211,233.88885 c -3.136,2.938 -6.078,5.805 -10.188,6.966 -5.174,1.462 -10.235,1.321 -15.007,-1.337 -2.48,-1.381 -4.264,-3.525 -5.432,-6.12 -0.965,-2.144 -0.265,-4.334 1.921,-5.713 1.496,-0.944 3.073,-1.815 4.716,-2.458 4.37,-1.71 7.742,-4.591 10.175,-8.528 3.108,-5.029 5.756,-10.263 7.089,-16.111 0.616,-2.705 1.705,-5.303 2.612,-7.938 0.086,-0.249 0.376,-0.508 0.631,-0.606 2.069,-0.794 4.152,-1.55 6.17,-2.296 -0.691,1.52 -1.59,3.191 -2.225,4.958 -0.995,2.769 -2.105,5.548 -2.634,8.42 -0.703,3.818 1.551,6.556 4.483,7.452 7.429,2.27 13.839,0.251 19.557,-4.614 1.99,-1.693 3.864,-3.524 5.554,-5.074 0.103,1.092 0.094,2.674 0.423,4.182 0.736,3.368 2.699,5.466 6.242,6.281 3.732,0.859 6.717,-0.726 9.744,-2.308 3.934,-2.057 6.636,-5.305 8.48,-9.301 0.067,-0.145 0.154,-0.281 0.248,-0.41 0.043,-0.06 0.125,-0.092 0.313,-0.22 2.09,3.285 5.126,4.758 8.998,4.277 3.91,-0.486 6.248,-3.075 7.993,-6.402 1.953,3.251 4.136,6.121 7.275,8.148 0.237,0.153 0.434,0.637 0.387,0.924 -1.14,6.957 -3.557,13.432 -7.457,19.322 -1.221,1.846 -2.496,3.648 -4.524,4.764 -2.596,1.429 -5.081,1.011 -7.548,-0.284 -0.343,-0.18 -0.649,-0.429 -0.905,-0.6 0,1.831 0.081,3.668 -0.02,5.494 -0.142,2.577 -0.715,5.024 -2.15,7.27 -1.724,2.696 -6.684,3.591 -8.505,-0.743 -0.503,-1.198 -1.115,-2.35 -1.72,-3.611 -0.356,1.833 -0.687,3.602 -1.049,5.365 -0.158,0.767 -0.27,1.571 -0.59,2.272 -1.485,3.25 -2.476,6.747 -4.868,9.547 -2.367,2.77 -4.987,5.156 -8.502,6.405 -2.812,0.998 -4.402,0.89 -5.658,-0.859 -0.714,-0.995 -1.231,-2.232 -1.485,-3.435 -0.467,-2.215 -0.675,-4.485 -0.971,-6.586 -1.129,1.738 -2.374,3.633 -3.594,5.541 -2.082,3.257 -4.773,5.98 -7.893,8.174 -2.893,2.033 -6.076,3.479 -9.737,3.918 -5.173,0.62 -9.973,-0.328 -14.488,-2.738 -1.216,-0.649 -2.2,-1.806 -3.156,-2.853 -1.016,-1.112 -0.578,-2.451 -0.013,-3.568 0.687,-1.357 1.542,-2.654 2.485,-3.85 2.447,-3.1 4.883,-6.219 7.509,-9.165 3.038,-3.409 5.085,-7.381 7.061,-11.42 0.06,-0.123 0.118,-0.247 0.253,-0.532 z"
             style="clip-rule:evenodd;fill-rule:evenodd" />
        </g>
      </g>
    </g>
    <g
       id="Ebene_1-3" />
  </g>
</svg>
