<?xml version="1.0" encoding="UTF-8" standalone="no"?>
<!-- Created with Inkscape (http://www.inkscape.org/) -->

<svg
   xmlns:dc="http://purl.org/dc/elements/1.1/"
   xmlns:cc="http://creativecommons.org/ns#"
   xmlns:rdf="http://www.w3.org/1999/02/22-rdf-syntax-ns#"
   xmlns:svg="http://www.w3.org/2000/svg"
   xmlns="http://www.w3.org/2000/svg"
   xmlns:sodipodi="http://sodipodi.sourceforge.net/DTD/sodipodi-0.dtd"
   xmlns:inkscape="http://www.inkscape.org/namespaces/inkscape"
   width="106.77374mm"
   height="109.94926mm"
   viewBox="0 0 106.77373 109.94927"
   version="1.1"
   id="svg8"
   inkscape:version="0.92.3 (2405546, 2018-03-11)"
   sodipodi:docname="Shield4.svg">
  <defs
     id="defs2" />
  <sodipodi:namedview
     id="base"
     pagecolor="#ffffff"
     bordercolor="#666666"
     borderopacity="1.0"
     inkscape:pageopacity="0.0"
     inkscape:pageshadow="2"
     inkscape:zoom="1.4"
     inkscape:cx="-90.909415"
     inkscape:cy="138.82935"
     inkscape:document-units="mm"
     inkscape:current-layer="layer1"
     showgrid="false"
     fit-margin-top="5"
     fit-margin-left="5"
     fit-margin-right="5"
     fit-margin-bottom="5"
     inkscape:window-width="1920"
     inkscape:window-height="1017"
     inkscape:window-x="1912"
     inkscape:window-y="-8"
     inkscape:window-maximized="1" />
  <metadata
     id="metadata5">
    <rdf:RDF>
      <cc:Work
         rdf:about="">
        <dc:format>image/svg+xml</dc:format>
        <dc:type
           rdf:resource="http://purl.org/dc/dcmitype/StillImage" />
        <dc:title />
      </cc:Work>
    </rdf:RDF>
  </metadata>
  <g
     inkscape:label="Layer 1"
     inkscape:groupmode="layer"
     id="layer1"
     transform="translate(432.57539,28.778621)">
    <g
       id="g7122"
       transform="matrix(0.26458333,0,0,0.26458333,-420.17791,-19.066921)">
      <g
         id="Shield4">
        <g
           id="g7102">
          <g
             id="g7100">
            <path
               id="path7092"
               d="m 150.24,0 c 3.12,0 6.24,0 9.36,0 0.348,0.066 0.692,0.173 1.042,0.194 15.6,0.929 30.797,3.961 45.629,8.829 9.823,3.224 19.578,6.676 29.827,8.371 7.926,1.311 15.821,1.416 23.683,-0.516 8.767,-2.154 16.468,-6.437 23.67,-11.735 0.758,-0.558 1.511,-1.121 2.287,-1.697 0.147,0.218 0.253,0.34 0.321,0.481 0.885,1.833 1.808,3.65 2.64,5.508 6.617,14.776 11.408,30.147 14.893,45.938 3.105,14.073 5.072,28.304 5.829,42.7 0.11,2.11 0.278,4.217 0.42,6.326 0,5.52 0,11.04 0,16.56 -0.069,0.587 -0.182,1.173 -0.201,1.762 -0.364,10.882 -1.461,21.695 -3.213,32.437 -3.391,20.781 -9.137,40.9 -17.236,60.335 -11.31,27.135 -26.67,51.659 -47.334,72.698 -24.01,24.444 -52.571,41.036 -85.827,49.448 -0.59,0.148 -1.275,0.207 -1.855,0.063 C 134.334,332.8 115.839,324.787 98.758,313.555 75.824,298.475 57.302,279.028 42.219,256.207 26.492,232.412 15.585,206.497 8.428,178.955 4.044,162.082 1.359,144.934 0.432,127.518 0.316,125.33 0.146,123.144 0.001,120.957 c 0,-5.52 0,-11.04 0,-16.56 0.067,-0.511 0.16,-1.021 0.196,-1.534 C 0.604,97.123 0.885,91.371 1.424,85.643 2.768,71.335 5.422,57.254 9.177,43.388 12.762,30.15 17.247,17.23 23.292,4.886 c 0.237,-0.484 0.51,-0.951 0.774,-1.44 1.685,1.218 3.262,2.376 4.857,3.509 14.085,10.01 29.549,13.575 46.59,10.147 8.598,-1.729 16.932,-4.326 25.209,-7.148 C 114.499,5.256 128.604,2.073 143.101,0.672 145.48,0.443 147.86,0.224 150.24,0 Z"
               style="clip-rule:evenodd;fill-rule:evenodd"
               inkscape:connector-curvature="0" />
            <path
               id="path7094"
               d="m 0,120.96 c 0.145,2.187 0.314,4.372 0.431,6.561 0.927,17.416 3.611,34.563 7.996,51.437 7.157,27.542 18.064,53.457 33.791,77.252 15.083,22.82 33.604,42.268 56.539,57.348 17.081,11.232 35.576,19.245 55.417,24.147 0.58,0.144 1.266,0.085 1.855,-0.063 33.256,-8.412 61.817,-25.004 85.827,-49.448 20.664,-21.039 36.024,-45.563 47.334,-72.698 8.1,-19.435 13.846,-39.554 17.236,-60.335 1.752,-10.742 2.849,-21.555 3.213,-32.437 0.02,-0.589 0.132,-1.175 0.201,-1.762 0,72.389 0,144.777 0,217.183 -103.252,0 -206.503,0 -309.84,0 C 0,265.76 0,193.36 0,120.96 Z"
               style="clip-rule:evenodd;fill:none;fill-rule:evenodd"
               inkscape:connector-curvature="0" />
            <path
               id="path7096"
               d="m 309.84,104.4 c -0.142,-2.108 -0.31,-4.216 -0.42,-6.326 -0.757,-14.396 -2.724,-28.627 -5.829,-42.7 -3.484,-15.791 -8.275,-31.163 -14.893,-45.938 -0.832,-1.857 -1.755,-3.674 -2.64,-5.508 -0.068,-0.141 -0.174,-0.263 -0.321,-0.481 -0.776,0.576 -1.529,1.139 -2.287,1.697 -7.202,5.299 -14.903,9.581 -23.67,11.735 -7.861,1.932 -15.757,1.827 -23.683,0.516 C 225.848,15.7 216.093,12.248 206.27,9.024 191.438,4.156 176.241,1.124 160.641,0.195 c -0.35,-0.021 -0.694,-0.128 -1.042,-0.194 50.057,0 100.113,0 150.24,0 C 309.84,34.8 309.84,69.6 309.84,104.4 Z"
               style="clip-rule:evenodd;fill:none;fill-rule:evenodd"
               inkscape:connector-curvature="0" />
            <path
               id="path7098"
               d="m 150.24,0 c -2.379,0.224 -4.759,0.442 -7.138,0.672 -14.497,1.4 -28.602,4.583 -42.379,9.282 -8.277,2.822 -16.611,5.419 -25.209,7.148 C 58.473,20.529 43.009,16.965 28.924,6.955 27.329,5.822 25.751,4.664 24.067,3.446 23.803,3.936 23.529,4.402 23.293,4.886 17.247,17.23 12.762,30.15 9.176,43.392 5.421,57.258 2.767,71.339 1.423,85.646 0.885,91.374 0.603,97.125 0.196,102.866 0.16,103.379 0.067,103.889 0,104.4 0,69.6 0,34.8 0,0 50.08,0 100.16,0 150.24,0 Z"
               style="clip-rule:evenodd;fill:none;fill-rule:evenodd"
               inkscape:connector-curvature="0" />
          </g>
        </g>
      </g>
      <g
         id="Ebene_1-1" />
    </g>
  </g>
</svg>
