<?xml version="1.0" encoding="UTF-8" standalone="no"?>
<!-- Created with Inkscape (http://www.inkscape.org/) -->

<svg
   xmlns:dc="http://purl.org/dc/elements/1.1/"
   xmlns:cc="http://creativecommons.org/ns#"
   xmlns:rdf="http://www.w3.org/1999/02/22-rdf-syntax-ns#"
   xmlns:svg="http://www.w3.org/2000/svg"
   xmlns="http://www.w3.org/2000/svg"
   xmlns:sodipodi="http://sodipodi.sourceforge.net/DTD/sodipodi-0.dtd"
   xmlns:inkscape="http://www.inkscape.org/namespaces/inkscape"
   width="106.77374mm"
   height="109.94926mm"
   viewBox="0 0 106.77373 109.94927"
   version="1.1"
   id="svg8"
   inkscape:version="0.92.3 (2405546, 2018-03-11)"
   sodipodi:docname="Shield1.svg">
  <defs
     id="defs2" />
  <sodipodi:namedview
     id="base"
     pagecolor="#ffffff"
     bordercolor="#666666"
     borderopacity="1.0"
     inkscape:pageopacity="0.0"
     inkscape:pageshadow="2"
     inkscape:zoom="0.7"
     inkscape:cx="-321.09908"
     inkscape:cy="157.71095"
     inkscape:document-units="mm"
     inkscape:current-layer="layer1"
     showgrid="false"
     fit-margin-top="5"
     fit-margin-left="5"
     fit-margin-right="5"
     fit-margin-bottom="5"
     inkscape:window-width="1920"
     inkscape:window-height="1017"
     inkscape:window-x="1912"
     inkscape:window-y="-8"
     inkscape:window-maximized="1" />
  <metadata
     id="metadata5">
    <rdf:RDF>
      <cc:Work
         rdf:about="">
        <dc:format>image/svg+xml</dc:format>
        <dc:type
           rdf:resource="http://purl.org/dc/dcmitype/StillImage" />
        <dc:title />
      </cc:Work>
    </rdf:RDF>
  </metadata>
  <g
     inkscape:label="Layer 1"
     inkscape:groupmode="layer"
     id="layer1"
     transform="translate(432.57539,28.778621)">
    <g
       id="g6975"
       transform="matrix(0.26458333,0,0,0.26458333,-425.09718,-23.778621)">
      <g
         id="Shield1">
        <g
           id="g6955">
          <g
             id="g6953">
            <path
               id="path6945"
               d="m 173.521,377.761 c -0.08,0 -0.16,0 -0.24,0 -0.117,-0.378 -0.214,-0.764 -0.354,-1.134 -4.825,-12.722 -12.835,-23.022 -23.706,-31.142 -9.25,-6.909 -19.584,-11.704 -30.409,-15.53 -12.718,-4.496 -25.826,-7.566 -38.958,-10.521 -9.489,-2.135 -18.862,-4.587 -27.75,-8.646 C 39.098,304.847 27.84,296.642 18.914,285.376 13.78,278.897 10.019,271.661 6.868,264.055 4.071,257.305 1.913,250.39 0.854,243.152 c -0.329,-2.244 -0.571,-4.5 -0.853,-6.751 0,-3.439 0,-6.88 0,-10.32 0.083,-0.503 0.181,-1.005 0.246,-1.511 0.375,-2.933 0.635,-5.884 1.133,-8.795 1.802,-10.538 5.154,-20.627 9.391,-30.399 4.878,-11.252 10.056,-22.375 15.055,-33.575 5.382,-12.06 10.072,-24.346 12.767,-37.345 C 41.235,101.711 40.269,89.363 35.398,77.288 31.693,68.106 26.53,59.764 20.911,51.676 18.314,47.937 15.656,44.24 12.992,40.477 21.285,31.071 29.554,21.692 37.837,12.298 c 0.292,0.128 0.513,0.216 0.725,0.32 19.813,9.719 40.851,13.241 62.741,12.247 17.098,-0.777 33.548,-4.484 49.225,-11.427 C 158.632,9.85 166.28,5.468 173.28,0 c 0.08,0 0.16,0 0.24,0 2.415,1.705 4.756,3.53 7.258,5.097 24.336,15.229 51.032,21.072 79.474,19.727 13.758,-0.651 27.095,-3.445 39.907,-8.564 2.961,-1.183 5.85,-2.548 8.861,-3.869 8.244,9.35 16.513,18.727 24.812,28.139 -1.124,1.565 -2.195,3.055 -3.264,4.546 -6.06,8.451 -11.979,16.987 -16.576,26.36 -6.636,13.53 -9.011,27.596 -5.889,42.512 2.214,10.572 5.492,20.785 9.791,30.657 4.961,11.392 10.2,22.662 15.266,34.009 4.534,10.159 8.543,20.509 11.094,31.374 2.764,11.776 3.452,23.627 1.312,35.583 -1.333,7.444 -3.92,14.468 -6.873,21.405 -4.78,11.233 -11.655,20.917 -20.797,28.983 -12.069,10.65 -26.191,17.351 -41.679,21.282 -10.882,2.762 -21.856,5.158 -32.722,7.979 -11.664,3.028 -23.026,6.953 -33.722,12.614 -10.928,5.785 -20.472,13.214 -27.689,23.385 -3.627,5.111 -6.557,10.59 -8.563,16.542 z"
               style="clip-rule:evenodd;fill-rule:evenodd"
               inkscape:connector-curvature="0" />
            <path
               id="path6947"
               d="m 173.521,377.761 c 2.007,-5.952 4.937,-11.431 8.563,-16.541 7.218,-10.171 16.762,-17.6 27.689,-23.385 10.695,-5.661 22.058,-9.586 33.722,-12.614 10.865,-2.82 21.84,-5.217 32.722,-7.979 15.487,-3.932 29.609,-10.632 41.679,-21.282 9.142,-8.066 16.017,-17.75 20.797,-28.983 2.953,-6.938 5.54,-13.961 6.873,-21.405 2.141,-11.956 1.452,-23.807 -1.312,-35.583 -2.551,-10.864 -6.56,-21.215 -11.094,-31.374 -5.065,-11.347 -10.305,-22.617 -15.266,-34.009 -4.299,-9.872 -7.577,-20.085 -9.791,-30.657 -3.122,-14.916 -0.747,-28.982 5.889,-42.512 4.598,-9.374 10.517,-17.909 16.576,-26.36 1.068,-1.491 2.14,-2.98 3.264,-4.546 -8.299,-9.412 -16.567,-18.789 -24.812,-28.139 -3.012,1.321 -5.9,2.686 -8.861,3.869 -12.813,5.12 -26.149,7.914 -39.907,8.564 -28.441,1.345 -55.138,-4.498 -79.474,-19.727 -2.502,-1.566 -4.843,-3.392 -7.258,-5.097 57.83,0 115.661,0 173.506,0 0,125.92 0,251.84 0,377.76 -57.845,0 -115.675,0 -173.505,0 z"
               style="clip-rule:evenodd;fill:none;fill-rule:evenodd"
               inkscape:connector-curvature="0" />
            <path
               id="path6949"
               d="m 0,236.4 c 0.282,2.251 0.524,4.507 0.853,6.751 1.06,7.238 3.217,14.153 6.014,20.903 3.151,7.606 6.912,14.842 12.046,21.321 8.927,11.267 20.185,19.471 33.19,25.412 8.887,4.06 18.26,6.512 27.75,8.646 13.133,2.954 26.24,6.024 38.958,10.521 10.825,3.826 21.159,8.621 30.409,15.53 10.87,8.119 18.88,18.42 23.706,31.142 0.14,0.37 0.237,0.756 0.354,1.134 -57.76,0 -115.52,0 -173.28,0 0,-47.119 0,-94.239 0,-141.36 z"
               style="clip-rule:evenodd;fill:none;fill-rule:evenodd"
               inkscape:connector-curvature="0" />
            <path
               id="path6951"
               d="m 173.28,0 c -7,5.468 -14.648,9.849 -22.753,13.438 C 134.85,20.38 118.4,24.088 101.302,24.865 79.411,25.859 58.374,22.337 38.561,12.618 c -0.212,-0.104 -0.433,-0.192 -0.725,-0.32 -8.283,9.395 -16.552,18.773 -24.845,28.179 2.664,3.763 5.322,7.46 7.919,11.199 5.62,8.088 10.783,16.43 14.487,25.612 4.871,12.075 5.836,24.423 3.195,37.168 -2.695,12.999 -7.385,25.285 -12.767,37.345 -4.999,11.2 -10.177,22.322 -15.055,33.575 -4.237,9.772 -7.589,19.861 -9.391,30.399 -0.498,2.911 -0.757,5.862 -1.133,8.795 C 0.181,225.076 0.082,225.578 0,226.081 0,150.72 0,75.36 0,0 57.76,0 115.521,0 173.28,0 Z"
               style="clip-rule:evenodd;fill:none;fill-rule:evenodd"
               inkscape:connector-curvature="0" />
          </g>
        </g>
      </g>
      <g
         id="Ebene_1" />
    </g>
  </g>
</svg>
