<?xml version="1.0" encoding="UTF-8" standalone="no"?>
<!-- Created with Inkscape (http://www.inkscape.org/) -->

<svg
   xmlns:dc="http://purl.org/dc/elements/1.1/"
   xmlns:cc="http://creativecommons.org/ns#"
   xmlns:rdf="http://www.w3.org/1999/02/22-rdf-syntax-ns#"
   xmlns:svg="http://www.w3.org/2000/svg"
   xmlns="http://www.w3.org/2000/svg"
   xmlns:sodipodi="http://sodipodi.sourceforge.net/DTD/sodipodi-0.dtd"
   xmlns:inkscape="http://www.inkscape.org/namespaces/inkscape"
   width="106.77374mm"
   height="109.94926mm"
   viewBox="0 0 106.77373 109.94927"
   version="1.1"
   id="svg8"
   inkscape:version="0.92.3 (2405546, 2018-03-11)"
   sodipodi:docname="Shield2.svg">
  <defs
     id="defs2" />
  <sodipodi:namedview
     id="base"
     pagecolor="#ffffff"
     bordercolor="#666666"
     borderopacity="1.0"
     inkscape:pageopacity="0.0"
     inkscape:pageshadow="2"
     inkscape:zoom="0.7"
     inkscape:cx="-321.09908"
     inkscape:cy="157.71095"
     inkscape:document-units="mm"
     inkscape:current-layer="layer1"
     showgrid="false"
     fit-margin-top="5"
     fit-margin-left="5"
     fit-margin-right="5"
     fit-margin-bottom="5"
     inkscape:window-width="1920"
     inkscape:window-height="1017"
     inkscape:window-x="1912"
     inkscape:window-y="-8"
     inkscape:window-maximized="1" />
  <metadata
     id="metadata5">
    <rdf:RDF>
      <cc:Work
         rdf:about="">
        <dc:format>image/svg+xml</dc:format>
        <dc:type
           rdf:resource="http://purl.org/dc/dcmitype/StillImage" />
        <dc:title />
      </cc:Work>
    </rdf:RDF>
  </metadata>
  <g
     inkscape:label="Layer 1"
     inkscape:groupmode="layer"
     id="layer1"
     transform="translate(432.57539,28.778621)">
    <g
       id="g7024"
       transform="matrix(0.26458333,0,0,0.26458333,-425.25778,-23.217175)">
      <g
         id="Shield2">
        <g
           id="g7005">
          <g
             id="g7003">
            <path
               id="path6997"
               d="m 0,206.64 c 0,-3.92 0,-7.84 0,-11.76 0.083,-0.544 0.182,-1.086 0.246,-1.633 0.375,-3.215 0.631,-6.448 1.131,-9.643 1.989,-12.687 6.151,-24.71 11.285,-36.43 5.361,-12.24 11.739,-23.969 17.995,-35.759 6.407,-12.075 12.705,-24.201 17.749,-36.933 7.79,-19.664 11.783,-39.895 9.223,-61.117 -0.173,-1.437 -0.361,-2.871 -0.556,-4.417 0.283,0.115 0.405,0.138 0.494,0.204 6.772,5.012 14.375,8.428 22.085,11.69 14.292,6.046 29.046,7.67 44.284,4.943 16.631,-2.977 31.261,-10.272 44.331,-20.837 1.914,-1.547 3.666,-3.295 5.492,-4.95 0.16,0 0.32,0 0.48,0 0.172,0.211 0.32,0.449 0.519,0.632 10.72,9.83 22.867,17.293 36.686,21.918 13.405,4.486 27.114,5.946 41.028,3.096 13.381,-2.741 25.674,-8.233 37.012,-15.851 0.432,-0.29 0.854,-0.592 1.474,-1.022 -0.293,2.333 -0.591,4.347 -0.794,6.372 -1.493,14.869 0.077,29.45 4.153,43.793 3.787,13.323 9.338,25.93 15.642,38.215 6.403,12.481 13.049,24.838 19.412,37.339 6.156,12.097 11.438,24.563 14.88,37.742 3.827,14.653 4.937,29.473 2.518,44.462 -0.788,4.885 -2.046,9.693 -3.01,14.552 -1.124,5.667 -2.74,11.178 -4.964,16.507 -5.716,13.702 -14.62,25.078 -25.585,34.933 -11.716,10.531 -24.983,18.739 -38.949,25.887 -15.074,7.716 -30.701,14.174 -46.603,19.929 -20.883,7.558 -38.596,19.619 -53.205,36.303 -0.144,0.164 -0.342,0.281 -0.533,0.435 -0.289,-0.326 -0.528,-0.595 -0.766,-0.864 -12.026,-13.619 -26.176,-24.428 -42.829,-31.753 -7.419,-3.263 -15.093,-5.942 -22.634,-8.932 C 91.252,317.174 75.097,310.052 59.89,300.946 48.175,293.93 37.252,285.894 27.832,275.935 18.158,265.706 10.749,254.094 6.617,240.564 5.301,236.253 4.337,231.826 3.398,227.413 2.384,222.648 1.54,217.847 0.717,213.044 0.356,210.931 0.232,208.776 0,206.64 Z"
               style="clip-rule:evenodd;fill-rule:evenodd"
               inkscape:connector-curvature="0" />
            <path
               id="path6999"
               d="m 0,206.64 c 0.232,2.137 0.356,4.291 0.718,6.405 0.822,4.803 1.667,9.604 2.681,14.369 0.939,4.413 1.903,8.841 3.219,13.151 4.131,13.53 11.541,25.142 21.215,35.371 9.419,9.959 20.342,17.995 32.058,25.011 15.207,9.106 31.361,16.229 47.801,22.745 7.541,2.989 15.215,5.669 22.634,8.932 16.653,7.325 30.803,18.134 42.829,31.753 0.238,0.27 0.477,0.538 0.766,0.864 0.191,-0.153 0.389,-0.271 0.533,-0.435 14.609,-16.684 32.322,-28.745 53.205,-36.303 15.901,-5.755 31.528,-12.213 46.603,-19.929 13.966,-7.147 27.233,-15.355 38.949,-25.887 10.965,-9.854 19.869,-21.23 25.585,-34.933 2.224,-5.329 3.84,-10.84 4.964,-16.507 0.964,-4.858 2.222,-9.667 3.01,-14.552 2.419,-14.989 1.31,-29.81 -2.518,-44.462 -3.442,-13.179 -8.724,-25.646 -14.88,-37.742 -6.363,-12.501 -13.009,-24.858 -19.412,-37.339 -6.304,-12.285 -11.854,-24.893 -15.642,-38.215 -4.076,-14.343 -5.646,-28.924 -4.153,-43.793 0.203,-2.024 0.501,-4.039 0.794,-6.372 -0.619,0.43 -1.042,0.732 -1.474,1.022 -11.338,7.618 -23.631,13.11 -37.012,15.851 -13.914,2.85 -27.623,1.391 -41.028,-3.096 C 197.626,17.924 185.479,10.461 174.759,0.631 174.56,0.45 174.412,0.212 174.24,0 c 58,0 116,0 174,0 0,121.84 0,243.679 0,365.519 -116.079,0 -232.159,0 -348.239,0 C 0,312.56 0,259.6 0,206.64 Z"
               style="clip-rule:evenodd;fill:none;fill-rule:evenodd"
               inkscape:connector-curvature="0" />
            <path
               id="path7001"
               d="m 173.76,0 c -1.827,1.655 -3.579,3.402 -5.492,4.95 -13.07,10.564 -27.7,17.86 -44.331,20.837 C 108.699,28.514 93.946,26.89 79.653,20.844 71.942,17.582 64.34,14.166 57.568,9.154 57.479,9.088 57.357,9.065 57.074,8.95 c 0.195,1.545 0.382,2.98 0.556,4.417 2.56,21.222 -1.433,41.453 -9.223,61.117 -5.044,12.731 -11.342,24.858 -17.749,36.933 -6.256,11.79 -12.633,23.519 -17.995,35.759 -5.133,11.719 -9.296,23.743 -11.285,36.43 -0.5,3.195 -0.756,6.428 -1.131,9.643 -0.064,0.547 -0.163,1.089 -0.246,1.633 C 0,129.92 0,64.96 0,0 57.92,0 115.84,0 173.76,0 Z"
               style="clip-rule:evenodd;fill:none;fill-rule:evenodd"
               inkscape:connector-curvature="0" />
          </g>
        </g>
      </g>
      <g
         id="Ebene_1-7" />
    </g>
  </g>
</svg>
