<?xml version="1.0" encoding="UTF-8" standalone="no"?>
<!-- Created with Inkscape (http://www.inkscape.org/) -->

<svg
   xmlns:dc="http://purl.org/dc/elements/1.1/"
   xmlns:cc="http://creativecommons.org/ns#"
   xmlns:rdf="http://www.w3.org/1999/02/22-rdf-syntax-ns#"
   xmlns:svg="http://www.w3.org/2000/svg"
   xmlns="http://www.w3.org/2000/svg"
   xmlns:sodipodi="http://sodipodi.sourceforge.net/DTD/sodipodi-0.dtd"
   xmlns:inkscape="http://www.inkscape.org/namespaces/inkscape"
   width="106.77374mm"
   height="109.94926mm"
   viewBox="0 0 106.77373 109.94927"
   version="1.1"
   id="svg8"
   inkscape:version="0.92.3 (2405546, 2018-03-11)"
   sodipodi:docname="Shield3_outline.svg">
  <defs
     id="defs2" />
  <sodipodi:namedview
     id="base"
     pagecolor="#ffffff"
     bordercolor="#666666"
     borderopacity="1.0"
     inkscape:pageopacity="0.0"
     inkscape:pageshadow="2"
     inkscape:zoom="1.4"
     inkscape:cx="-68.719403"
     inkscape:cy="186.84687"
     inkscape:document-units="mm"
     inkscape:current-layer="layer1"
     showgrid="false"
     fit-margin-top="5"
     fit-margin-left="5"
     fit-margin-right="5"
     fit-margin-bottom="5"
     inkscape:window-width="1920"
     inkscape:window-height="1017"
     inkscape:window-x="1912"
     inkscape:window-y="-8"
     inkscape:window-maximized="1" />
  <metadata
     id="metadata5">
    <rdf:RDF>
      <cc:Work
         rdf:about="">
        <dc:format>image/svg+xml</dc:format>
        <dc:type
           rdf:resource="http://purl.org/dc/dcmitype/StillImage" />
        <dc:title />
      </cc:Work>
    </rdf:RDF>
  </metadata>
  <g
     inkscape:label="Layer 1"
     inkscape:groupmode="layer"
     id="layer1"
     transform="translate(432.57539,28.778621)">
    <g
       id="g892"
       transform="matrix(0.26458333,0,0,0.26458333,-427.60529,-21.901006)">
      <g
         id="Shield3_x5F_Lines">
	<g
   id="g872">
		<g
   id="g870">
			<path
   id="path862"
   d="m 188.122,0 c 59.189,0 118.38,0 177.585,0 0,114.37 0,228.741 0,343.2 -60.945,0 -121.905,0 -182.865,0 0.089,-0.129 0.16,-0.274 0.268,-0.383 5.769,-5.823 12.629,-9.55 20.756,-10.919 7.798,-1.314 15.605,-2.594 23.364,-4.114 6.177,-1.21 12.143,-3.157 17.536,-6.532 4.714,-2.949 8.186,-6.878 9.461,-12.443 0.303,-1.317 0.467,-2.667 0.7,-4.036 0.316,-0.071 0.627,-0.138 0.937,-0.211 6.136,-1.45 12.356,-2.615 18.388,-4.413 12.183,-3.632 23.341,-9.347 33.147,-17.537 12.186,-10.177 20.521,-23.001 25.922,-37.827 5.547,-15.229 7.619,-31.063 8.146,-47.162 0.418,-12.775 -1.476,-25.35 -3.198,-37.949 -0.882,-6.449 -1.717,-12.933 -2.011,-19.426 -0.474,-10.443 0.284,-20.86 1.851,-31.206 1.724,-11.387 4.585,-22.457 9.358,-32.971 4.269,-9.402 9.646,-18.04 17.563,-24.877 0.039,-0.034 0.016,-0.141 0.022,-0.217 -1.021,-0.149 -2.066,-0.202 -3.057,-0.463 -7.525,-1.98 -15.121,-3.741 -22.543,-6.06 C 317.899,37.721 296.919,29.419 276.088,20.744 249.445,9.647 221.834,2.548 193.003,0.416 191.375,0.295 189.749,0.14 188.122,0 Z"
   style="clip-rule:evenodd;fill:none;fill-rule:evenodd"
   inkscape:connector-curvature="0" />

			<path
   id="path864"
   d="m 182.602,343.2 c -60.88,0 -121.76,0 -182.64,0 0,-114.4 0,-228.8 0,-343.2 59.12,0 118.24,0 177.359,0 -0.349,0.064 -0.697,0.172 -1.049,0.188 -8.317,0.373 -16.568,1.349 -24.783,2.674 -19.554,3.155 -38.508,8.465 -56.92,15.755 C 78.94,24.805 63.346,31.088 47.632,37.053 34.715,41.956 21.595,46.305 8.138,49.535 c -2.571,0.618 -5.189,1.04 -7.591,1.514 2.084,2.228 4.368,4.42 6.364,6.849 7.687,9.347 12.61,20.136 16.077,31.631 4.859,16.108 6.496,32.645 6.283,49.402 -0.117,9.224 -1.895,18.273 -2.974,27.397 -0.934,7.894 -1.82,15.809 -2.256,23.74 -0.475,8.634 0.26,17.261 1.334,25.845 1.264,10.104 3.437,19.989 6.996,29.547 7.448,19.999 20.08,35.645 38.797,46.178 10.727,6.037 22.262,9.797 34.286,12.179 1.708,0.339 3.422,0.642 5.161,0.967 0.343,5.554 2.29,10.306 6.545,13.772 2.331,1.899 4.942,3.557 7.645,4.877 6.632,3.241 13.832,4.605 21.051,5.84 6.337,1.085 12.695,2.087 18.984,3.404 7.064,1.481 12.833,5.341 17.762,10.523 z"
   style="clip-rule:evenodd;fill:none;fill-rule:evenodd"
   inkscape:connector-curvature="0" />

			<path
   id="path866"
   d="m 182.602,343.2 c -4.929,-5.183 -10.698,-9.042 -17.761,-10.522 -6.29,-1.317 -12.647,-2.319 -18.984,-3.404 -7.22,-1.234 -14.419,-2.599 -21.051,-5.84 -2.703,-1.32 -5.314,-2.978 -7.645,-4.877 -4.255,-3.467 -6.202,-8.219 -6.545,-13.772 -1.738,-0.325 -3.453,-0.628 -5.161,-0.967 C 93.431,301.436 81.895,297.676 71.169,291.639 52.452,281.106 39.82,265.46 32.372,245.461 c -3.559,-9.558 -5.731,-19.443 -6.996,-29.547 -1.074,-8.584 -1.809,-17.211 -1.334,-25.845 0.436,-7.932 1.322,-15.847 2.256,-23.74 1.079,-9.124 2.856,-18.173 2.974,-27.397 C 29.485,122.174 27.849,105.638 22.989,89.53 19.522,78.035 14.599,67.246 6.912,57.899 4.915,55.471 2.632,53.278 0.548,51.05 2.95,50.576 5.569,50.154 8.139,49.536 21.596,46.306 34.715,41.956 47.633,37.054 63.347,31.089 78.941,24.807 94.57,18.618 112.982,11.327 131.936,6.017 151.49,2.863 c 8.215,-1.326 16.466,-2.301 24.783,-2.674 0.352,-0.016 0.7,-0.124 1.049,-0.188 3.6,0 7.2,0 10.8,0 1.627,0.139 3.253,0.294 4.881,0.415 28.831,2.132 56.442,9.232 83.086,20.327 20.831,8.675 41.812,16.977 63.364,23.71 7.422,2.318 15.018,4.079 22.543,6.06 0.99,0.261 2.036,0.314 3.057,0.463 -0.007,0.077 0.017,0.184 -0.022,0.217 -7.917,6.837 -13.295,15.475 -17.563,24.877 -4.773,10.515 -7.635,21.584 -9.358,32.971 -1.566,10.346 -2.324,20.763 -1.851,31.206 0.294,6.493 1.129,12.977 2.011,19.426 1.723,12.6 3.616,25.174 3.198,37.949 -0.526,16.1 -2.599,31.934 -8.146,47.162 -5.4,14.826 -13.736,27.65 -25.922,37.827 -9.807,8.19 -20.965,13.905 -33.147,17.537 -6.031,1.798 -12.252,2.963 -18.388,4.413 -0.31,0.073 -0.62,0.14 -0.937,0.211 -0.233,1.369 -0.397,2.719 -0.7,4.036 -1.275,5.565 -4.747,9.494 -9.461,12.443 -5.394,3.375 -11.359,5.322 -17.536,6.532 -7.759,1.521 -15.566,2.8 -23.364,4.114 -8.127,1.369 -14.987,5.096 -20.756,10.919 -0.108,0.108 -0.179,0.254 -0.268,0.383 -0.081,10e-4 -0.161,10e-4 -0.241,10e-4 z M 21.896,58.125 c 0.124,0.245 0.198,0.43 0.305,0.594 5.169,8.005 8.933,16.652 11.6,25.772 3.823,13.073 6.471,26.377 7.116,40.007 0.287,6.066 0.613,12.187 0.126,18.219 -0.734,9.109 -2.257,18.152 -3.268,27.242 -0.75,6.749 -1.425,13.518 -1.761,20.297 -0.393,7.917 0.297,15.815 1.102,23.702 1.186,11.617 4.107,22.731 8.944,33.37 5.662,12.452 13.986,22.691 25.279,30.394 8.407,5.733 17.695,9.703 27.482,12.408 4.915,1.358 9.938,2.351 14.944,3.341 2.085,0.413 3.747,1.487 5.149,2.857 1.102,1.078 1.927,2.541 2.553,3.975 0.582,1.332 0.896,2.833 1.049,4.289 0.347,3.303 2.336,5.314 5.022,6.835 3.492,1.978 7.191,3.559 11.097,4.372 6.288,1.311 12.666,2.189 18.972,3.421 8.75,1.71 17.719,2.84 25.119,8.572 3.926,-2.979 8.25,-5.01 13.007,-5.965 7.941,-1.594 15.893,-3.157 23.877,-4.518 6.384,-1.087 12.55,-2.713 18.25,-5.855 2.31,-1.273 4.172,-2.973 4.869,-5.63 0.343,-1.309 0.655,-2.642 0.804,-3.983 0.239,-2.158 1.403,-3.856 2.796,-5.304 1.075,-1.117 2.498,-2.021 3.931,-2.638 1.441,-0.622 3.071,-0.866 4.645,-1.115 8.844,-1.396 17.3,-4.06 25.505,-7.601 13.94,-6.015 25.374,-15.052 33.562,-27.935 5.832,-9.177 9.769,-19.18 12.176,-29.761 1.678,-7.377 2.458,-14.892 2.974,-22.436 0.554,-8.115 0.688,-16.239 -0.217,-24.323 -1.04,-9.289 -2.284,-18.557 -3.587,-27.813 -1.645,-11.684 -1.354,-23.369 -0.295,-35.063 0.742,-8.208 2.311,-16.275 4.2,-24.294 2.54,-10.775 6.072,-21.158 11.565,-30.813 0.876,-1.54 1.824,-3.039 2.786,-4.634 -1.08,-0.324 -2.031,-0.61 -2.982,-0.896 -22.102,-6.625 -43.623,-14.859 -64.895,-23.732 -19.65,-8.196 -39.646,-15.117 -60.75,-18.489 -9.76,-1.56 -19.557,-2.717 -29.442,-2.97 -7.931,-0.202 -15.821,0.432 -23.689,1.38 -11.63,1.402 -23.119,3.509 -34.419,6.646 -13.439,3.732 -26.391,8.781 -39.261,14.105 -18.755,7.758 -37.71,14.999 -57.062,21.157 -3.035,0.968 -6.091,1.869 -9.178,2.813 z"
   style="clip-rule:evenodd;fill-rule:evenodd"
   inkscape:connector-curvature="0" />

			<path
   id="path868"
   d="m 21.896,58.125 c 3.087,-0.943 6.143,-1.844 9.177,-2.81 19.352,-6.158 38.307,-13.399 57.062,-21.157 12.87,-5.324 25.821,-10.373 39.261,-14.105 11.3,-3.138 22.789,-5.245 34.419,-6.646 7.868,-0.948 15.759,-1.582 23.689,-1.38 9.886,0.253 19.683,1.411 29.442,2.97 21.104,3.373 41.1,10.293 60.75,18.489 21.271,8.873 42.793,17.106 64.895,23.732 0.951,0.285 1.902,0.571 2.982,0.896 -0.962,1.595 -1.91,3.094 -2.786,4.634 -5.493,9.655 -9.025,20.037 -11.565,30.813 -1.89,8.02 -3.458,16.086 -4.2,24.294 -1.059,11.694 -1.35,23.379 0.295,35.063 1.303,9.256 2.547,18.524 3.587,27.813 0.905,8.084 0.771,16.208 0.217,24.323 -0.516,7.544 -1.296,15.059 -2.974,22.436 -2.407,10.581 -6.344,20.584 -12.176,29.761 -8.188,12.883 -19.621,21.92 -33.562,27.935 -8.205,3.541 -16.661,6.205 -25.505,7.601 -1.573,0.249 -3.203,0.493 -4.645,1.115 -1.433,0.617 -2.855,1.521 -3.931,2.638 -1.393,1.447 -2.557,3.146 -2.796,5.304 -0.148,1.342 -0.461,2.675 -0.804,3.983 -0.697,2.657 -2.56,4.356 -4.869,5.63 -5.7,3.143 -11.866,4.769 -18.25,5.855 -7.984,1.36 -15.936,2.924 -23.877,4.518 -4.757,0.955 -9.081,2.985 -13.007,5.965 -7.399,-5.732 -16.369,-6.862 -25.119,-8.572 -6.306,-1.231 -12.684,-2.11 -18.972,-3.421 -3.906,-0.813 -7.605,-2.395 -11.097,-4.372 -2.687,-1.521 -4.675,-3.532 -5.022,-6.835 -0.153,-1.456 -0.467,-2.957 -1.049,-4.289 -0.626,-1.434 -1.451,-2.896 -2.553,-3.975 -1.402,-1.37 -3.063,-2.444 -5.149,-2.857 -5.007,-0.99 -10.03,-1.982 -14.944,-3.341 -9.787,-2.705 -19.075,-6.675 -27.482,-12.408 -11.292,-7.702 -19.617,-17.941 -25.279,-30.394 -4.837,-10.639 -7.759,-21.753 -8.944,-33.37 -0.805,-7.887 -1.495,-15.785 -1.102,-23.702 0.336,-6.779 1.011,-13.548 1.761,-20.297 1.011,-9.09 2.533,-18.133 3.268,-27.242 0.486,-6.032 0.161,-12.153 -0.126,-18.219 C 40.271,110.871 37.623,97.566 33.8,84.494 31.133,75.373 27.369,66.726 22.2,58.722 22.094,58.554 22.02,58.369 21.896,58.125 Z"
   style="clip-rule:evenodd;fill:none;fill-rule:evenodd"
   inkscape:connector-curvature="0" />

		</g>

	</g>

</g>
      <g
         id="Ebene_1">
</g>
    </g>
  </g>
</svg>
