<?xml version="1.0" encoding="UTF-8" standalone="no"?>
<!-- Created with Inkscape (http://www.inkscape.org/) -->

<svg
   xmlns:dc="http://purl.org/dc/elements/1.1/"
   xmlns:cc="http://creativecommons.org/ns#"
   xmlns:rdf="http://www.w3.org/1999/02/22-rdf-syntax-ns#"
   xmlns:svg="http://www.w3.org/2000/svg"
   xmlns="http://www.w3.org/2000/svg"
   xmlns:sodipodi="http://sodipodi.sourceforge.net/DTD/sodipodi-0.dtd"
   xmlns:inkscape="http://www.inkscape.org/namespaces/inkscape"
   width="106.77374mm"
   height="109.94926mm"
   viewBox="0 0 106.77373 109.94927"
   version="1.1"
   id="svg8"
   inkscape:version="0.92.3 (2405546, 2018-03-11)"
   sodipodi:docname="Shield4_outline.svg">
  <defs
     id="defs2" />
  <sodipodi:namedview
     id="base"
     pagecolor="#ffffff"
     bordercolor="#666666"
     borderopacity="1.0"
     inkscape:pageopacity="0.0"
     inkscape:pageshadow="2"
     inkscape:zoom="1.979899"
     inkscape:cx="-49.977636"
     inkscape:cy="183.377"
     inkscape:document-units="mm"
     inkscape:current-layer="layer1"
     showgrid="false"
     fit-margin-top="5"
     fit-margin-left="5"
     fit-margin-right="5"
     fit-margin-bottom="5"
     inkscape:window-width="1920"
     inkscape:window-height="1017"
     inkscape:window-x="1912"
     inkscape:window-y="-8"
     inkscape:window-maximized="1" />
  <metadata
     id="metadata5">
    <rdf:RDF>
      <cc:Work
         rdf:about="">
        <dc:format>image/svg+xml</dc:format>
        <dc:type
           rdf:resource="http://purl.org/dc/dcmitype/StillImage" />
        <dc:title />
      </cc:Work>
    </rdf:RDF>
  </metadata>
  <g
     inkscape:label="Layer 1"
     inkscape:groupmode="layer"
     id="layer1"
     transform="translate(432.57539,28.778621)">
    <g
       id="g878"
       transform="matrix(0.26458333,0,0,0.26458333,-420.17791,-19.066365)">
      <g
         id="Shield4_x5F_Lines">
        <g
           id="g857">
          <g
             id="g855">
            <path
               id="path845"
               d="m 309.84,120.48 c 0,72.548 0,145.097 0,217.663 -103.252,0 -206.503,0 -309.84,0 0,-72.542 0,-145.103 0,-217.663 0.065,0.471 0.174,0.941 0.189,1.414 0.408,12.366 1.711,24.636 3.867,36.818 4.095,23.133 11.042,45.378 20.976,66.661 12.199,26.136 28.308,49.51 49.536,69.188 22.794,21.131 49.264,35.526 79.423,43.098 0.515,0.129 1.113,0.169 1.622,0.043 20.961,-5.185 40.392,-13.814 58.218,-26.008 21.688,-14.835 39.316,-33.618 53.762,-55.473 15.57,-23.557 26.425,-49.196 33.589,-76.445 4.524,-17.213 7.287,-34.709 8.22,-52.488 0.119,-2.271 0.29,-4.539 0.438,-6.808 z"
               style="clip-rule:evenodd;fill:none;fill-rule:evenodd"
               inkscape:connector-curvature="0" />
            <path
               id="path847"
               d="m 309.84,120.48 c -0.147,2.269 -0.319,4.537 -0.438,6.807 -0.933,17.779 -3.695,35.275 -8.22,52.488 -7.164,27.249 -18.019,52.889 -33.589,76.445 -14.445,21.854 -32.074,40.638 -53.762,55.473 -17.826,12.193 -37.257,20.823 -58.218,26.008 -0.508,0.126 -1.106,0.086 -1.622,-0.043 C 123.832,330.087 97.362,315.691 74.568,294.56 53.34,274.882 37.231,251.508 25.032,225.372 15.098,204.089 8.151,181.844 4.056,158.711 1.9,146.528 0.597,134.258 0.189,121.893 0.173,121.42 0.064,120.951 0,120.479 c 0,-5.12 0,-10.24 0,-15.36 0.063,-0.469 0.168,-0.938 0.184,-1.409 C 0.651,88.974 2.38,74.383 5.303,59.936 8.751,42.896 13.719,26.324 20.727,10.391 21.753,8.06 22.89,5.778 23.967,3.492 c 0.191,0.063 0.236,0.066 0.267,0.089 1.063,0.779 2.128,1.557 3.187,2.341 14.519,10.767 30.557,14.837 48.427,11.148 8.196,-1.692 16.176,-4.104 24.07,-6.822 15.031,-5.176 30.43,-8.582 46.292,-9.832 1.425,-0.112 2.847,-0.276 4.27,-0.416 2.96,0 5.92,0 8.88,0 0.347,0.07 0.69,0.183 1.039,0.203 15.688,0.905 30.968,3.95 45.881,8.846 9.827,3.227 19.587,6.677 29.84,8.374 6.67,1.104 13.354,1.367 20.053,0.228 8.173,-1.39 15.573,-4.68 22.471,-9.175 2.406,-1.569 4.727,-3.271 7.098,-4.921 0.065,0.071 0.169,0.146 0.222,0.247 0.367,0.709 0.737,1.417 1.081,2.138 6.52,13.682 11.284,27.978 14.936,42.663 4.032,16.217 6.516,32.667 7.412,49.356 0.128,2.388 0.298,4.774 0.449,7.161 -0.002,5.12 -0.002,10.24 -0.002,15.36 z M 29.164,21.261 c -0.15,0.323 -0.293,0.599 -0.409,0.885 -10.243,25.207 -15.218,51.521 -16.487,78.606 -0.572,12.201 -0.24,24.382 0.896,36.547 1.041,11.15 2.667,22.211 5.246,33.104 3.805,16.067 9.174,31.624 15.99,46.664 8.832,19.489 19.734,37.677 33.907,53.819 8.815,10.04 18.386,19.268 29.123,27.218 15.632,11.575 32.865,20.039 51.4,25.881 6.083,1.917 6.084,1.92 12.184,-0.001 18.46,-5.814 35.648,-14.208 51.206,-25.742 15.365,-11.393 28.523,-25.033 39.808,-40.454 10.204,-13.943 18.4,-29.036 25.261,-44.88 12.088,-27.92 18.875,-57.057 20.263,-87.45 0.784,-17.184 -0.097,-34.277 -2.527,-51.31 -2.241,-15.708 -6.123,-30.982 -11.58,-45.867 -0.86,-2.346 -1.785,-4.667 -2.707,-7.072 -5.726,3.304 -11.718,5.462 -17.994,7.044 -8.501,2.142 -17.012,2.738 -25.659,1.295 -8.793,-1.467 -17.406,-3.673 -25.89,-6.391 -8.196,-2.625 -16.266,-5.692 -24.723,-7.427 -14.346,-2.943 -28.776,-4.697 -43.464,-3.06 -10.378,1.157 -20.643,2.812 -30.617,5.999 -10.097,3.226 -20.09,6.785 -30.473,9.077 -6.651,1.469 -13.308,2.684 -20.15,2.643 -6.054,-0.036 -11.871,-1.458 -17.684,-2.92 -5.26,-1.322 -10.159,-3.526 -14.92,-6.208 z"
               style="clip-rule:evenodd;fill-rule:evenodd"
               inkscape:connector-curvature="0" />
            <path
               id="path849"
               d="m 309.84,105.12 c -0.151,-2.387 -0.321,-4.773 -0.449,-7.161 -0.896,-16.688 -3.38,-33.139 -7.412,-49.356 -3.651,-14.685 -8.416,-28.981 -14.936,-42.663 -0.344,-0.721 -0.714,-1.429 -1.081,-2.138 -0.053,-0.101 -0.156,-0.176 -0.222,-0.247 -2.371,1.649 -4.691,3.352 -7.098,4.921 -6.897,4.496 -14.298,7.786 -22.471,9.175 -6.699,1.139 -13.383,0.876 -20.053,-0.228 C 225.865,15.726 216.105,12.276 206.278,9.049 191.365,4.153 176.086,1.108 160.397,0.203 160.05,0.183 159.706,0.07 159.359,0 c 50.137,0 100.273,0 150.48,0 10e-4,35.04 10e-4,70.08 10e-4,105.12 z"
               style="clip-rule:evenodd;fill:none;fill-rule:evenodd"
               inkscape:connector-curvature="0" />
            <path
               id="path851"
               d="m 150.479,0 c -1.423,0.14 -2.845,0.304 -4.27,0.416 -15.862,1.25 -31.26,4.656 -46.292,9.832 -7.894,2.718 -15.874,5.13 -24.07,6.822 C 57.978,20.759 41.94,16.689 27.42,5.924 26.361,5.139 25.296,4.362 24.233,3.583 24.202,3.561 24.158,3.557 23.966,3.494 22.889,5.78 21.752,8.062 20.726,10.393 13.718,26.325 8.751,42.897 5.303,59.938 2.38,74.385 0.651,88.976 0.184,103.712 0.169,104.183 0.063,104.651 0,105.121 0,70.08 0,35.04 0,0 50.16,0 100.319,0 150.479,0 Z"
               style="clip-rule:evenodd;fill:none;fill-rule:evenodd"
               inkscape:connector-curvature="0" />
            <path
               id="path853"
               d="m 29.164,21.261 c 4.762,2.683 9.661,4.887 14.919,6.208 5.813,1.461 11.63,2.884 17.684,2.92 6.842,0.041 13.499,-1.174 20.15,-2.643 10.383,-2.292 20.376,-5.851 30.473,-9.077 9.974,-3.187 20.238,-4.842 30.617,-5.999 14.688,-1.637 29.118,0.117 43.464,3.06 8.457,1.735 16.526,4.802 24.723,7.427 8.483,2.717 17.097,4.924 25.89,6.391 8.647,1.443 17.158,0.847 25.659,-1.295 6.276,-1.582 12.269,-3.74 17.994,-7.044 0.922,2.404 1.847,4.726 2.707,7.072 5.457,14.885 9.339,30.16 11.58,45.867 2.431,17.033 3.312,34.126 2.527,51.31 -1.388,30.394 -8.175,59.53 -20.263,87.45 -6.86,15.844 -15.057,30.937 -25.261,44.88 -11.284,15.421 -24.442,29.062 -39.808,40.454 -15.558,11.534 -32.746,19.928 -51.206,25.742 -6.1,1.921 -6.101,1.918 -12.184,0.001 -18.536,-5.842 -35.769,-14.306 -51.4,-25.881 -10.737,-7.95 -20.307,-17.178 -29.123,-27.218 -14.173,-16.143 -25.075,-34.33 -33.907,-53.819 -6.816,-15.04 -12.185,-30.597 -15.99,-46.664 -2.58,-10.894 -4.205,-21.955 -5.246,-33.104 -1.135,-12.165 -1.467,-24.346 -0.896,-36.547 1.27,-27.085 6.245,-53.4 16.487,-78.606 0.117,-0.287 0.259,-0.562 0.41,-0.885 z"
               style="clip-rule:evenodd;fill:none;fill-rule:evenodd"
               inkscape:connector-curvature="0" />
          </g>
        </g>
      </g>
      <g
         id="Ebene_1" />
    </g>
  </g>
</svg>
