<?xml version="1.0" encoding="UTF-8" standalone="no"?>
<!-- Created with Inkscape (http://www.inkscape.org/) -->

<svg
   xmlns:dc="http://purl.org/dc/elements/1.1/"
   xmlns:cc="http://creativecommons.org/ns#"
   xmlns:rdf="http://www.w3.org/1999/02/22-rdf-syntax-ns#"
   xmlns:svg="http://www.w3.org/2000/svg"
   xmlns="http://www.w3.org/2000/svg"
   xmlns:sodipodi="http://sodipodi.sourceforge.net/DTD/sodipodi-0.dtd"
   xmlns:inkscape="http://www.inkscape.org/namespaces/inkscape"
   width="106.77374mm"
   height="109.94926mm"
   viewBox="0 0 106.77373 109.94927"
   version="1.1"
   id="svg8"
   inkscape:version="0.92.3 (2405546, 2018-03-11)"
   sodipodi:docname="Shield2_outline.svg">
  <defs
     id="defs2" />
  <sodipodi:namedview
     id="base"
     pagecolor="#ffffff"
     bordercolor="#666666"
     borderopacity="1.0"
     inkscape:pageopacity="0.0"
     inkscape:pageshadow="2"
     inkscape:zoom="1.4"
     inkscape:cx="-16.725333"
     inkscape:cy="171.62665"
     inkscape:document-units="mm"
     inkscape:current-layer="layer1"
     showgrid="false"
     fit-margin-top="5"
     fit-margin-left="5"
     fit-margin-right="5"
     fit-margin-bottom="5"
     inkscape:window-width="1920"
     inkscape:window-height="1017"
     inkscape:window-x="1912"
     inkscape:window-y="-8"
     inkscape:window-maximized="1" />
  <metadata
     id="metadata5">
    <rdf:RDF>
      <cc:Work
         rdf:about="">
        <dc:format>image/svg+xml</dc:format>
        <dc:type
           rdf:resource="http://purl.org/dc/dcmitype/StillImage" />
        <dc:title />
      </cc:Work>
    </rdf:RDF>
  </metadata>
  <g
     inkscape:label="Layer 1"
     inkscape:groupmode="layer"
     id="layer1"
     transform="translate(432.57539,28.778621)">
    <g
       id="g872"
       transform="matrix(0.26458333,0,0,0.26458333,-425.38478,-23.217175)">
      <g
         id="Shield2_x5F_Lines">
	<g
   id="g852">
		<g
   id="g850">
			<path
   id="path842"
   d="m 174.24,0 c 57.994,0 115.987,0 173.99,0 0,121.819 0,243.638 0,365.489 -116.069,0 -232.149,0 -348.229,0 C 0,312.468 0,259.434 0,206.4 c 0.088,0.628 0.191,1.255 0.262,1.885 0.298,2.661 0.427,5.354 0.912,7.979 0.935,5.068 2.102,10.093 3.113,15.147 1.102,5.506 2.67,10.865 4.812,16.057 5.76,13.963 14.826,25.507 26.004,35.496 11.26,10.063 23.95,17.993 37.303,24.923 15.463,8.022 31.532,14.676 47.885,20.598 20.921,7.576 38.673,19.647 53.305,36.366 0.119,0.137 0.283,0.233 0.444,0.363 0.27,-0.296 0.488,-0.528 0.698,-0.768 10.869,-12.376 23.536,-22.503 38.364,-29.683 7.142,-3.457 14.646,-6.18 22.049,-9.078 16.428,-6.431 32.672,-13.254 48.064,-21.941 13.117,-7.404 25.396,-15.942 35.936,-26.805 10.033,-10.34 17.755,-22.125 22.061,-35.958 1.28,-4.112 2.041,-8.383 3.144,-12.554 4.595,-17.395 4.819,-34.843 0.805,-52.368 -2.972,-12.976 -7.761,-25.302 -13.686,-37.166 -6.286,-12.584 -12.928,-24.991 -19.388,-37.488 -6.633,-12.833 -12.758,-25.882 -16.984,-39.748 -4.563,-14.97 -6.529,-30.213 -5.001,-45.841 0.221,-2.252 0.511,-4.498 0.793,-6.952 -0.772,0.529 -1.396,0.942 -2.005,1.374 -6.61,4.681 -13.983,7.852 -21.415,10.938 -14.386,5.972 -29.222,7.339 -44.46,4.416 C 206.217,22.369 191.505,14.784 178.435,3.882 176.975,2.663 175.636,1.298 174.24,0 Z"
   style="clip-rule:evenodd;fill:none;fill-rule:evenodd"
   inkscape:connector-curvature="0" />

			<path
   id="path844"
   d="m 174.24,0 c 1.396,1.297 2.735,2.663 4.196,3.881 13.07,10.903 27.782,18.487 44.58,21.71 15.238,2.924 30.074,1.557 44.46,-4.416 7.432,-3.085 14.805,-6.256 21.415,-10.938 0.609,-0.432 1.232,-0.845 2.005,-1.374 -0.282,2.454 -0.572,4.7 -0.793,6.952 -1.528,15.628 0.438,30.872 5.001,45.841 4.227,13.866 10.352,26.915 16.984,39.748 6.46,12.498 13.102,24.904 19.388,37.488 5.925,11.863 10.714,24.189 13.686,37.166 4.015,17.525 3.79,34.974 -0.805,52.368 -1.103,4.171 -1.863,8.441 -3.144,12.554 -4.306,13.833 -12.027,25.618 -22.061,35.958 -10.539,10.862 -22.818,19.4 -35.936,26.805 -15.393,8.688 -31.637,15.511 -48.064,21.941 -7.402,2.898 -14.907,5.621 -22.049,9.078 -14.828,7.18 -27.495,17.307 -38.364,29.683 -0.21,0.239 -0.428,0.472 -0.698,0.768 -0.161,-0.13 -0.325,-0.227 -0.444,-0.363 C 158.965,348.131 141.213,336.06 120.292,328.484 103.938,322.562 87.87,315.909 72.407,307.886 59.053,300.956 46.364,293.027 35.104,282.963 23.926,272.976 14.86,261.432 9.1,247.469 6.958,242.278 5.39,236.918 4.288,231.412 3.277,226.357 2.11,221.333 1.175,216.265 0.69,213.639 0.561,210.947 0.263,208.286 c -0.071,-0.63 -0.174,-1.257 -0.262,-1.885 0,-3.761 0,-7.521 0,-11.28 0.084,-0.548 0.212,-1.094 0.248,-1.645 0.399,-6.161 1.38,-12.232 2.79,-18.237 3.087,-13.154 8.073,-25.619 14.12,-37.643 C 23.874,124.243 30.948,111.071 37.773,97.772 44.169,85.309 49.852,72.539 53.69,59.02 57.694,44.916 59.34,30.579 57.911,15.943 57.687,13.658 57.398,11.38 57.131,9.025 c 0.224,0.078 0.351,0.092 0.439,0.157 6.745,4.982 14.309,8.385 21.981,11.641 14.33,6.081 29.126,7.748 44.402,4.981 C 142.86,22.379 159.06,13.561 173.195,0.729 173.419,0.526 173.574,0.246 173.76,0.002 173.92,0 174.08,0 174.24,0 Z M 70.414,29.947 c -0.039,0.38 -0.074,0.61 -0.084,0.842 -0.313,7.366 -1.417,14.621 -2.945,21.829 -3.419,16.124 -9.248,31.385 -16.653,46.046 -5.965,11.809 -12.258,23.453 -18.348,35.199 -5.061,9.759 -9.707,19.709 -13.583,30.009 -4.228,11.234 -6.53,22.81 -6.83,34.833 -0.291,11.635 1.819,22.912 4.682,34.075 2.153,8.394 5.845,16.159 10.597,23.408 3.591,5.477 7.987,10.267 12.66,14.825 5.394,5.263 11.207,10.006 17.472,14.185 10.474,6.986 21.493,13.013 33.011,18.065 9.974,4.375 20.061,8.498 30.167,12.562 8.307,3.341 16.771,6.281 24.601,10.731 8.33,4.734 16.097,10.247 23.405,16.423 1.851,1.563 3.635,3.206 5.483,4.843 5.073,-4.93 10.582,-9.224 16.268,-13.307 5.685,-4.082 11.56,-7.889 17.926,-10.778 6.476,-2.938 13.112,-5.536 19.749,-8.103 14.782,-5.717 29.453,-11.685 43.443,-19.179 5.339,-2.859 10.599,-5.887 15.751,-9.07 10.023,-6.191 18.916,-13.759 26.808,-22.519 5.86,-6.505 10.323,-13.864 13.816,-21.855 2.471,-5.654 3.796,-11.632 5.238,-17.599 2.936,-12.143 3.601,-24.381 2.291,-36.783 -1.071,-10.135 -4.093,-19.723 -7.819,-29.124 -4.439,-11.198 -9.912,-21.907 -15.521,-32.554 -5.422,-10.296 -10.901,-20.571 -15.973,-31.042 -3.46,-7.145 -6.532,-14.508 -9.292,-21.954 -4.255,-11.478 -7.052,-23.358 -8.463,-35.537 -0.321,-2.768 -0.47,-5.555 -0.696,-8.326 -0.114,-0.02 -0.205,-0.066 -0.267,-0.041 -1.585,0.639 -3.167,1.287 -4.751,1.929 -8.67,3.518 -17.681,5.703 -26.969,6.687 -9.317,0.987 -18.489,-0.003 -27.598,-2.125 -7.432,-1.73 -14.7,-3.878 -21.636,-7.083 -7.573,-3.5 -14.599,-7.902 -21.205,-12.975 -0.864,-0.664 -1.382,-0.652 -2.232,-0.008 -7.34,5.555 -15.089,10.427 -23.598,14.028 -9.985,4.227 -20.396,6.873 -31.137,8.106 -14.744,1.692 -28.835,-1.256 -42.545,-6.505 -1.731,-0.663 -3.429,-1.414 -5.223,-2.158 z"
   style="clip-rule:evenodd;fill-rule:evenodd"
   inkscape:connector-curvature="0" />

			<path
   id="path846"
   d="m 173.76,0 c -0.187,0.244 -0.341,0.524 -0.565,0.727 C 159.06,13.56 142.86,22.377 123.953,25.802 108.677,28.569 93.881,26.902 79.551,20.821 71.879,17.565 64.314,14.162 57.57,9.18 57.482,9.115 57.355,9.101 57.131,9.023 c 0.267,2.355 0.556,4.634 0.78,6.918 1.43,14.635 -0.217,28.972 -4.221,43.077 -3.838,13.52 -9.52,26.289 -15.917,38.752 -6.825,13.298 -13.898,26.471 -20.614,39.824 -6.046,12.024 -11.032,24.489 -14.12,37.643 -1.41,6.005 -2.391,12.076 -2.79,18.237 -0.036,0.551 -0.164,1.097 -0.248,1.645 C 0,130.08 0,65.04 0,0 57.92,0 115.84,0 173.76,0 Z"
   style="clip-rule:evenodd;fill:none;fill-rule:evenodd"
   inkscape:connector-curvature="0" />

			<path
   id="path848"
   d="m 70.414,29.947 c 1.794,0.744 3.492,1.495 5.225,2.158 13.709,5.249 27.801,8.198 42.545,6.505 10.741,-1.233 21.152,-3.88 31.137,-8.106 8.508,-3.602 16.258,-8.473 23.598,-14.028 0.851,-0.644 1.368,-0.656 2.232,0.008 6.606,5.073 13.632,9.475 21.205,12.975 6.936,3.205 14.204,5.353 21.636,7.083 9.108,2.122 18.28,3.112 27.598,2.125 9.288,-0.984 18.299,-3.168 26.969,-6.687 1.584,-0.643 3.166,-1.291 4.751,-1.929 0.062,-0.025 0.152,0.021 0.267,0.041 0.227,2.771 0.375,5.558 0.696,8.326 1.411,12.179 4.208,24.059 8.463,35.537 2.76,7.445 5.832,14.809 9.292,21.954 5.071,10.47 10.551,20.745 15.973,31.042 5.608,10.647 11.081,21.356 15.521,32.554 3.727,9.401 6.748,18.989 7.819,29.124 1.31,12.402 0.645,24.641 -2.291,36.783 -1.442,5.967 -2.768,11.944 -5.238,17.599 -3.493,7.991 -7.956,15.351 -13.816,21.855 -7.892,8.76 -16.784,16.327 -26.808,22.519 -5.152,3.184 -10.412,6.211 -15.751,9.07 -13.99,7.494 -28.661,13.462 -43.443,19.179 -6.637,2.566 -13.273,5.165 -19.749,8.103 -6.366,2.89 -12.241,6.696 -17.926,10.778 -5.686,4.083 -11.194,8.377 -16.268,13.307 -1.849,-1.637 -3.632,-3.279 -5.483,-4.843 -7.308,-6.176 -15.076,-11.688 -23.405,-16.423 -7.83,-4.45 -16.294,-7.391 -24.601,-10.731 -10.106,-4.063 -20.193,-8.187 -30.167,-12.562 C 78.876,298.21 67.857,292.184 57.384,285.198 51.119,281.019 45.306,276.276 39.912,271.013 35.24,266.454 30.843,261.664 27.252,256.188 22.5,248.939 18.808,241.173 16.655,232.78 c -2.863,-11.163 -4.973,-22.44 -4.682,-34.075 0.3,-12.022 2.603,-23.599 6.83,-34.833 3.876,-10.3 8.522,-20.25 13.583,-30.009 6.09,-11.746 12.383,-23.39 18.348,-35.199 7.406,-14.661 13.234,-29.922 16.653,-46.046 1.528,-7.208 2.632,-14.462 2.945,-21.829 0.007,-0.232 0.043,-0.462 0.082,-0.842 z"
   style="clip-rule:evenodd;fill:none;fill-rule:evenodd"
   inkscape:connector-curvature="0" />

		</g>

	</g>

</g>
      <g
         id="Ebene_1">
</g>
    </g>
  </g>
</svg>
