<?xml version="1.0" encoding="UTF-8" standalone="no"?>
<!-- Created with Inkscape (http://www.inkscape.org/) -->

<svg
   xmlns:dc="http://purl.org/dc/elements/1.1/"
   xmlns:cc="http://creativecommons.org/ns#"
   xmlns:rdf="http://www.w3.org/1999/02/22-rdf-syntax-ns#"
   xmlns:svg="http://www.w3.org/2000/svg"
   xmlns="http://www.w3.org/2000/svg"
   xmlns:sodipodi="http://sodipodi.sourceforge.net/DTD/sodipodi-0.dtd"
   xmlns:inkscape="http://www.inkscape.org/namespaces/inkscape"
   width="106.77374mm"
   height="109.94926mm"
   viewBox="0 0 106.77373 109.94927"
   version="1.1"
   id="svg8"
   inkscape:version="0.92.3 (2405546, 2018-03-11)"
   sodipodi:docname="Shield3.svg">
  <defs
     id="defs2" />
  <sodipodi:namedview
     id="base"
     pagecolor="#ffffff"
     bordercolor="#666666"
     borderopacity="1.0"
     inkscape:pageopacity="0.0"
     inkscape:pageshadow="2"
     inkscape:zoom="0.7"
     inkscape:cx="-321.09908"
     inkscape:cy="157.71095"
     inkscape:document-units="mm"
     inkscape:current-layer="layer1"
     showgrid="false"
     fit-margin-top="5"
     fit-margin-left="5"
     fit-margin-right="5"
     fit-margin-bottom="5"
     inkscape:window-width="1920"
     inkscape:window-height="1017"
     inkscape:window-x="1912"
     inkscape:window-y="-8"
     inkscape:window-maximized="1" />
  <metadata
     id="metadata5">
    <rdf:RDF>
      <cc:Work
         rdf:about="">
        <dc:format>image/svg+xml</dc:format>
        <dc:type
           rdf:resource="http://purl.org/dc/dcmitype/StillImage" />
        <dc:title />
      </cc:Work>
    </rdf:RDF>
  </metadata>
  <g
     inkscape:label="Layer 1"
     inkscape:groupmode="layer"
     id="layer1"
     transform="translate(432.57539,28.778621)">
    <g
       id="g7068"
       transform="matrix(0.26458333,0,0,0.26458333,-427.57513,-21.884073)">
      <g
         id="Shield3">
        <g
           id="g7050">
          <g
             id="g7048">
            <path
               id="path7044"
               d="m 177.12,0 c 3.76,0 7.52,0 11.28,0 0.352,0.061 0.701,0.144 1.055,0.18 7.155,0.732 14.342,1.234 21.459,2.232 17.978,2.522 35.501,6.997 52.488,13.376 11.696,4.393 23.176,9.359 34.835,13.854 21.884,8.438 43.772,16.896 66.64,21.508 -1.961,2.088 -4.243,4.269 -6.238,6.688 -7.383,8.948 -12.216,19.254 -15.679,30.241 -5.121,16.251 -6.855,32.971 -6.751,49.933 0.059,9.512 1.734,18.854 3.026,28.234 1.188,8.638 2.441,17.287 2.267,26.02 -0.146,7.268 -0.527,14.546 -1.207,21.782 -1.035,11.02 -3.485,21.76 -7.43,32.127 -6.659,17.504 -17.398,31.814 -33.136,42.187 -10.809,7.124 -22.7,11.646 -35.261,14.517 -3.148,0.72 -6.328,1.306 -9.531,1.961 -0.033,0.23 -0.078,0.464 -0.098,0.699 -0.602,6.998 -4.175,12.104 -10.037,15.743 -5.405,3.354 -11.362,5.31 -17.539,6.521 -7.328,1.438 -14.708,2.61 -22.07,3.875 -6.553,1.125 -12.702,3.199 -17.901,7.526 -1.535,1.277 -3.028,2.606 -4.561,3.93 -0.197,-0.172 -0.418,-0.344 -0.614,-0.541 -5.835,-5.836 -12.797,-9.425 -20.967,-10.759 -7.647,-1.249 -15.291,-2.539 -22.893,-4.03 -6.177,-1.212 -12.142,-3.155 -17.538,-6.525 -4.715,-2.945 -8.192,-6.871 -9.482,-12.431 -0.306,-1.317 -0.466,-2.669 -0.704,-4.069 -0.365,-0.071 -0.75,-0.157 -1.14,-0.224 -7.89,-1.346 -15.631,-3.271 -23.157,-6.018 -25.646,-9.359 -43.695,-26.526 -53.493,-52.138 -5.956,-15.568 -8.16,-31.823 -8.739,-48.371 -0.453,-12.938 1.46,-25.671 3.193,-38.432 0.897,-6.607 1.747,-13.253 2.019,-19.907 0.463,-11.33 -0.438,-22.619 -2.369,-33.804 C 24.853,94.336 21.644,83.156 16.364,72.644 12.332,64.617 7.44,57.214 0.53,51.316 0.434,51.234 0.396,51.084 0.317,50.939 0.921,50.864 1.449,50.851 1.95,50.729 8.153,49.22 14.426,47.944 20.538,46.128 41.38,39.939 61.65,32.127 81.739,23.854 95.335,18.255 108.982,12.848 123.203,9.001 139.289,4.651 155.594,1.584 172.234,0.409 173.864,0.295 175.491,0.138 177.12,0 Z"
               style="clip-rule:evenodd;fill-rule:evenodd"
               inkscape:connector-curvature="0" />
            <path
               id="path7046"
               d="m 177.12,0 c -1.628,0.137 -3.256,0.294 -4.886,0.41 -16.64,1.174 -32.945,4.242 -49.031,8.592 C 108.982,12.848 95.335,18.256 81.739,23.855 61.65,32.127 41.38,39.939 20.536,46.13 14.423,47.945 8.15,49.221 1.948,50.73 1.447,50.852 0.92,50.865 0.315,50.94 c 0.08,0.146 0.117,0.295 0.213,0.377 6.911,5.898 11.803,13.301 15.834,21.328 5.28,10.512 8.489,21.692 10.483,33.241 1.931,11.185 2.832,22.474 2.369,33.804 -0.271,6.653 -1.121,13.299 -2.019,19.907 -1.733,12.761 -3.646,25.493 -3.193,38.432 0.579,16.548 2.784,32.803 8.739,48.371 9.797,25.611 27.847,42.778 53.493,52.138 7.526,2.747 15.267,4.672 23.157,6.018 0.389,0.066 0.775,0.152 1.14,0.224 0.238,1.4 0.398,2.752 0.704,4.069 1.29,5.56 4.767,9.485 9.482,12.431 5.396,3.37 11.361,5.313 17.538,6.525 7.602,1.491 15.246,2.781 22.893,4.03 8.17,1.334 15.132,4.923 20.967,10.759 0.196,0.197 0.417,0.369 0.614,0.541 1.533,-1.323 3.026,-2.652 4.561,-3.93 5.199,-4.327 11.349,-6.401 17.901,-7.526 7.362,-1.265 14.742,-2.438 22.07,-3.875 6.177,-1.212 12.134,-3.167 17.539,-6.521 5.862,-3.64 9.436,-8.745 10.037,-15.743 0.02,-0.235 0.064,-0.469 0.098,-0.699 3.203,-0.655 6.383,-1.241 9.531,-1.961 12.561,-2.871 24.452,-7.393 35.261,-14.517 15.737,-10.372 26.477,-24.683 33.136,-42.187 3.944,-10.367 6.395,-21.107 7.43,-32.127 0.68,-7.236 1.062,-14.515 1.207,-21.782 0.175,-8.733 -1.078,-17.382 -2.267,-26.02 -1.292,-9.38 -2.968,-18.722 -3.026,-28.234 -0.104,-16.962 1.63,-33.682 6.751,-49.933 3.463,-10.987 8.296,-21.292 15.679,-30.241 1.995,-2.418 4.277,-4.6 6.238,-6.688 C 342.008,46.539 320.119,38.082 298.235,29.643 286.576,25.147 275.096,20.181 263.4,15.789 246.414,9.41 228.891,4.935 210.913,2.413 203.796,1.414 196.609,0.913 189.454,0.181 189.1,0.145 188.751,0.062 188.399,0.001 c 59.12,0 118.24,0 177.359,0 0,114.479 0,228.959 0,343.439 -121.92,0 -243.839,0 -365.759,0 C 0,228.96 0,114.48 0,0 59.04,0 118.08,0 177.12,0 Z"
               style="clip-rule:evenodd;fill:none;fill-rule:evenodd"
               inkscape:connector-curvature="0" />
          </g>
        </g>
      </g>
      <g
         id="Ebene_1-5" />
    </g>
  </g>
</svg>
