<?xml version="1.0" encoding="UTF-8" standalone="no"?>
<!-- Created with Inkscape (http://www.inkscape.org/) -->

<svg
   xmlns:dc="http://purl.org/dc/elements/1.1/"
   xmlns:cc="http://creativecommons.org/ns#"
   xmlns:rdf="http://www.w3.org/1999/02/22-rdf-syntax-ns#"
   xmlns:svg="http://www.w3.org/2000/svg"
   xmlns="http://www.w3.org/2000/svg"
   xmlns:sodipodi="http://sodipodi.sourceforge.net/DTD/sodipodi-0.dtd"
   xmlns:inkscape="http://www.inkscape.org/namespaces/inkscape"
   width="106.77374mm"
   height="109.94926mm"
   viewBox="0 0 106.77373 109.94927"
   version="1.1"
   id="svg8"
   inkscape:version="0.92.3 (2405546, 2018-03-11)"
   sodipodi:docname="ShieldAll.svg">
  <defs
     id="defs2" />
  <sodipodi:namedview
     id="base"
     pagecolor="#ffffff"
     bordercolor="#666666"
     borderopacity="1.0"
     inkscape:pageopacity="0.0"
     inkscape:pageshadow="2"
     inkscape:zoom="0.7"
     inkscape:cx="-77.52765"
     inkscape:cy="157.71095"
     inkscape:document-units="mm"
     inkscape:current-layer="layer1"
     showgrid="false"
     fit-margin-top="5"
     fit-margin-left="5"
     fit-margin-right="5"
     fit-margin-bottom="5"
     inkscape:window-width="1920"
     inkscape:window-height="1017"
     inkscape:window-x="3832"
     inkscape:window-y="-8"
     inkscape:window-maximized="1" />
  <metadata
     id="metadata5">
    <rdf:RDF>
      <cc:Work
         rdf:about="">
        <dc:format>image/svg+xml</dc:format>
        <dc:type
           rdf:resource="http://purl.org/dc/dcmitype/StillImage" />
        <dc:title></dc:title>
      </cc:Work>
    </rdf:RDF>
  </metadata>
  <g
     inkscape:label="Layer 1"
     inkscape:groupmode="layer"
     id="layer1"
     transform="translate(432.57539,28.778621)">
    <g
       id="g7024"
       transform="matrix(0.26458333,0,0,0.26458333,-425.25778,-23.217175)">
      <g
         id="Shield2">
	<g
   id="g7005">
		<g
   id="g7003">
			<path
   id="path6997"
   d="m 0,206.64 c 0,-3.92 0,-7.84 0,-11.76 0.083,-0.544 0.182,-1.086 0.246,-1.633 0.375,-3.215 0.631,-6.448 1.131,-9.643 1.989,-12.687 6.151,-24.71 11.285,-36.43 5.361,-12.24 11.739,-23.969 17.995,-35.759 6.407,-12.075 12.705,-24.201 17.749,-36.933 7.79,-19.664 11.783,-39.895 9.223,-61.117 -0.173,-1.437 -0.361,-2.871 -0.556,-4.417 0.283,0.115 0.405,0.138 0.494,0.204 6.772,5.012 14.375,8.428 22.085,11.69 14.292,6.046 29.046,7.67 44.284,4.943 16.631,-2.977 31.261,-10.272 44.331,-20.837 1.914,-1.547 3.666,-3.295 5.492,-4.95 0.16,0 0.32,0 0.48,0 0.172,0.211 0.32,0.449 0.519,0.632 10.72,9.83 22.867,17.293 36.686,21.918 13.405,4.486 27.114,5.946 41.028,3.096 13.381,-2.741 25.674,-8.233 37.012,-15.851 0.432,-0.29 0.854,-0.592 1.474,-1.022 -0.293,2.333 -0.591,4.347 -0.794,6.372 -1.493,14.869 0.077,29.45 4.153,43.793 3.787,13.323 9.338,25.93 15.642,38.215 6.403,12.481 13.049,24.838 19.412,37.339 6.156,12.097 11.438,24.563 14.88,37.742 3.827,14.653 4.937,29.473 2.518,44.462 -0.788,4.885 -2.046,9.693 -3.01,14.552 -1.124,5.667 -2.74,11.178 -4.964,16.507 -5.716,13.702 -14.62,25.078 -25.585,34.933 -11.716,10.531 -24.983,18.739 -38.949,25.887 -15.074,7.716 -30.701,14.174 -46.603,19.929 -20.883,7.558 -38.596,19.619 -53.205,36.303 -0.144,0.164 -0.342,0.281 -0.533,0.435 -0.289,-0.326 -0.528,-0.595 -0.766,-0.864 -12.026,-13.619 -26.176,-24.428 -42.829,-31.753 -7.419,-3.263 -15.093,-5.942 -22.634,-8.932 C 91.252,317.174 75.097,310.052 59.89,300.946 48.175,293.93 37.252,285.894 27.832,275.935 18.158,265.706 10.749,254.094 6.617,240.564 5.301,236.253 4.337,231.826 3.398,227.413 2.384,222.648 1.54,217.847 0.717,213.044 0.356,210.931 0.232,208.776 0,206.64 Z"
   style="clip-rule:evenodd;fill-rule:evenodd"
   inkscape:connector-curvature="0" />

			<path
   id="path6999"
   d="m 0,206.64 c 0.232,2.137 0.356,4.291 0.718,6.405 0.822,4.803 1.667,9.604 2.681,14.369 0.939,4.413 1.903,8.841 3.219,13.151 4.131,13.53 11.541,25.142 21.215,35.371 9.419,9.959 20.342,17.995 32.058,25.011 15.207,9.106 31.361,16.229 47.801,22.745 7.541,2.989 15.215,5.669 22.634,8.932 16.653,7.325 30.803,18.134 42.829,31.753 0.238,0.27 0.477,0.538 0.766,0.864 0.191,-0.153 0.389,-0.271 0.533,-0.435 14.609,-16.684 32.322,-28.745 53.205,-36.303 15.901,-5.755 31.528,-12.213 46.603,-19.929 13.966,-7.147 27.233,-15.355 38.949,-25.887 10.965,-9.854 19.869,-21.23 25.585,-34.933 2.224,-5.329 3.84,-10.84 4.964,-16.507 0.964,-4.858 2.222,-9.667 3.01,-14.552 2.419,-14.989 1.31,-29.81 -2.518,-44.462 -3.442,-13.179 -8.724,-25.646 -14.88,-37.742 -6.363,-12.501 -13.009,-24.858 -19.412,-37.339 -6.304,-12.285 -11.854,-24.893 -15.642,-38.215 -4.076,-14.343 -5.646,-28.924 -4.153,-43.793 0.203,-2.024 0.501,-4.039 0.794,-6.372 -0.619,0.43 -1.042,0.732 -1.474,1.022 -11.338,7.618 -23.631,13.11 -37.012,15.851 -13.914,2.85 -27.623,1.391 -41.028,-3.096 C 197.626,17.924 185.479,10.461 174.759,0.631 174.56,0.45 174.412,0.212 174.24,0 c 58,0 116,0 174,0 0,121.84 0,243.679 0,365.519 -116.079,0 -232.159,0 -348.239,0 C 0,312.56 0,259.6 0,206.64 Z"
   style="clip-rule:evenodd;fill:none;fill-rule:evenodd"
   inkscape:connector-curvature="0" />

			<path
   id="path7001"
   d="m 173.76,0 c -1.827,1.655 -3.579,3.402 -5.492,4.95 -13.07,10.564 -27.7,17.86 -44.331,20.837 C 108.699,28.514 93.946,26.89 79.653,20.844 71.942,17.582 64.34,14.166 57.568,9.154 57.479,9.088 57.357,9.065 57.074,8.95 c 0.195,1.545 0.382,2.98 0.556,4.417 2.56,21.222 -1.433,41.453 -9.223,61.117 -5.044,12.731 -11.342,24.858 -17.749,36.933 -6.256,11.79 -12.633,23.519 -17.995,35.759 -5.133,11.719 -9.296,23.743 -11.285,36.43 -0.5,3.195 -0.756,6.428 -1.131,9.643 -0.064,0.547 -0.163,1.089 -0.246,1.633 C 0,129.92 0,64.96 0,0 57.92,0 115.84,0 173.76,0 Z"
   style="clip-rule:evenodd;fill:none;fill-rule:evenodd"
   inkscape:connector-curvature="0" />

		</g>

	</g>

</g>
      <g
         id="Ebene_1-7">
</g>
    </g>
    <g
       id="g7068"
       transform="matrix(0.26458333,0,0,0.26458333,-427.57513,-21.884073)">
      <g
         id="Shield3">
	<g
   id="g7050">
		<g
   id="g7048">
			<path
   id="path7044"
   d="m 177.12,0 c 3.76,0 7.52,0 11.28,0 0.352,0.061 0.701,0.144 1.055,0.18 7.155,0.732 14.342,1.234 21.459,2.232 17.978,2.522 35.501,6.997 52.488,13.376 11.696,4.393 23.176,9.359 34.835,13.854 21.884,8.438 43.772,16.896 66.64,21.508 -1.961,2.088 -4.243,4.269 -6.238,6.688 -7.383,8.948 -12.216,19.254 -15.679,30.241 -5.121,16.251 -6.855,32.971 -6.751,49.933 0.059,9.512 1.734,18.854 3.026,28.234 1.188,8.638 2.441,17.287 2.267,26.02 -0.146,7.268 -0.527,14.546 -1.207,21.782 -1.035,11.02 -3.485,21.76 -7.43,32.127 -6.659,17.504 -17.398,31.814 -33.136,42.187 -10.809,7.124 -22.7,11.646 -35.261,14.517 -3.148,0.72 -6.328,1.306 -9.531,1.961 -0.033,0.23 -0.078,0.464 -0.098,0.699 -0.602,6.998 -4.175,12.104 -10.037,15.743 -5.405,3.354 -11.362,5.31 -17.539,6.521 -7.328,1.438 -14.708,2.61 -22.07,3.875 -6.553,1.125 -12.702,3.199 -17.901,7.526 -1.535,1.277 -3.028,2.606 -4.561,3.93 -0.197,-0.172 -0.418,-0.344 -0.614,-0.541 -5.835,-5.836 -12.797,-9.425 -20.967,-10.759 -7.647,-1.249 -15.291,-2.539 -22.893,-4.03 -6.177,-1.212 -12.142,-3.155 -17.538,-6.525 -4.715,-2.945 -8.192,-6.871 -9.482,-12.431 -0.306,-1.317 -0.466,-2.669 -0.704,-4.069 -0.365,-0.071 -0.75,-0.157 -1.14,-0.224 -7.89,-1.346 -15.631,-3.271 -23.157,-6.018 -25.646,-9.359 -43.695,-26.526 -53.493,-52.138 -5.956,-15.568 -8.16,-31.823 -8.739,-48.371 -0.453,-12.938 1.46,-25.671 3.193,-38.432 0.897,-6.607 1.747,-13.253 2.019,-19.907 0.463,-11.33 -0.438,-22.619 -2.369,-33.804 C 24.853,94.336 21.644,83.156 16.364,72.644 12.332,64.617 7.44,57.214 0.53,51.316 0.434,51.234 0.396,51.084 0.317,50.939 0.921,50.864 1.449,50.851 1.95,50.729 8.153,49.22 14.426,47.944 20.538,46.128 41.38,39.939 61.65,32.127 81.739,23.854 95.335,18.255 108.982,12.848 123.203,9.001 139.289,4.651 155.594,1.584 172.234,0.409 173.864,0.295 175.491,0.138 177.12,0 Z"
   style="clip-rule:evenodd;fill-rule:evenodd"
   inkscape:connector-curvature="0" />

			<path
   id="path7046"
   d="m 177.12,0 c -1.628,0.137 -3.256,0.294 -4.886,0.41 -16.64,1.174 -32.945,4.242 -49.031,8.592 C 108.982,12.848 95.335,18.256 81.739,23.855 61.65,32.127 41.38,39.939 20.536,46.13 14.423,47.945 8.15,49.221 1.948,50.73 1.447,50.852 0.92,50.865 0.315,50.94 c 0.08,0.146 0.117,0.295 0.213,0.377 6.911,5.898 11.803,13.301 15.834,21.328 5.28,10.512 8.489,21.692 10.483,33.241 1.931,11.185 2.832,22.474 2.369,33.804 -0.271,6.653 -1.121,13.299 -2.019,19.907 -1.733,12.761 -3.646,25.493 -3.193,38.432 0.579,16.548 2.784,32.803 8.739,48.371 9.797,25.611 27.847,42.778 53.493,52.138 7.526,2.747 15.267,4.672 23.157,6.018 0.389,0.066 0.775,0.152 1.14,0.224 0.238,1.4 0.398,2.752 0.704,4.069 1.29,5.56 4.767,9.485 9.482,12.431 5.396,3.37 11.361,5.313 17.538,6.525 7.602,1.491 15.246,2.781 22.893,4.03 8.17,1.334 15.132,4.923 20.967,10.759 0.196,0.197 0.417,0.369 0.614,0.541 1.533,-1.323 3.026,-2.652 4.561,-3.93 5.199,-4.327 11.349,-6.401 17.901,-7.526 7.362,-1.265 14.742,-2.438 22.07,-3.875 6.177,-1.212 12.134,-3.167 17.539,-6.521 5.862,-3.64 9.436,-8.745 10.037,-15.743 0.02,-0.235 0.064,-0.469 0.098,-0.699 3.203,-0.655 6.383,-1.241 9.531,-1.961 12.561,-2.871 24.452,-7.393 35.261,-14.517 15.737,-10.372 26.477,-24.683 33.136,-42.187 3.944,-10.367 6.395,-21.107 7.43,-32.127 0.68,-7.236 1.062,-14.515 1.207,-21.782 0.175,-8.733 -1.078,-17.382 -2.267,-26.02 -1.292,-9.38 -2.968,-18.722 -3.026,-28.234 -0.104,-16.962 1.63,-33.682 6.751,-49.933 3.463,-10.987 8.296,-21.292 15.679,-30.241 1.995,-2.418 4.277,-4.6 6.238,-6.688 C 342.008,46.539 320.119,38.082 298.235,29.643 286.576,25.147 275.096,20.181 263.4,15.789 246.414,9.41 228.891,4.935 210.913,2.413 203.796,1.414 196.609,0.913 189.454,0.181 189.1,0.145 188.751,0.062 188.399,0.001 c 59.12,0 118.24,0 177.359,0 0,114.479 0,228.959 0,343.439 -121.92,0 -243.839,0 -365.759,0 C 0,228.96 0,114.48 0,0 59.04,0 118.08,0 177.12,0 Z"
   style="clip-rule:evenodd;fill:none;fill-rule:evenodd"
   inkscape:connector-curvature="0" />

		</g>

	</g>

</g>
      <g
         id="Ebene_1-5">
</g>
    </g>
    <g
       id="g7122"
       transform="matrix(0.26458333,0,0,0.26458333,-420.17791,-22.77109)">
      <g
         id="Shield4">
	<g
   id="g7102">
		<g
   id="g7100">
			<path
   id="path7092"
   d="m 150.24,0 c 3.12,0 6.24,0 9.36,0 0.348,0.066 0.692,0.173 1.042,0.194 15.6,0.929 30.797,3.961 45.629,8.829 9.823,3.224 19.578,6.676 29.827,8.371 7.926,1.311 15.821,1.416 23.683,-0.516 8.767,-2.154 16.468,-6.437 23.67,-11.735 0.758,-0.558 1.511,-1.121 2.287,-1.697 0.147,0.218 0.253,0.34 0.321,0.481 0.885,1.833 1.808,3.65 2.64,5.508 6.617,14.776 11.408,30.147 14.893,45.938 3.105,14.073 5.072,28.304 5.829,42.7 0.11,2.11 0.278,4.217 0.42,6.326 0,5.52 0,11.04 0,16.56 -0.069,0.587 -0.182,1.173 -0.201,1.762 -0.364,10.882 -1.461,21.695 -3.213,32.437 -3.391,20.781 -9.137,40.9 -17.236,60.335 -11.31,27.135 -26.67,51.659 -47.334,72.698 -24.01,24.444 -52.571,41.036 -85.827,49.448 -0.59,0.148 -1.275,0.207 -1.855,0.063 C 134.334,332.8 115.839,324.787 98.758,313.555 75.824,298.475 57.302,279.028 42.219,256.207 26.492,232.412 15.585,206.497 8.428,178.955 4.044,162.082 1.359,144.934 0.432,127.518 0.316,125.33 0.146,123.144 0.001,120.957 c 0,-5.52 0,-11.04 0,-16.56 0.067,-0.511 0.16,-1.021 0.196,-1.534 C 0.604,97.123 0.885,91.371 1.424,85.643 2.768,71.335 5.422,57.254 9.177,43.388 12.762,30.15 17.247,17.23 23.292,4.886 c 0.237,-0.484 0.51,-0.951 0.774,-1.44 1.685,1.218 3.262,2.376 4.857,3.509 14.085,10.01 29.549,13.575 46.59,10.147 8.598,-1.729 16.932,-4.326 25.209,-7.148 C 114.499,5.256 128.604,2.073 143.101,0.672 145.48,0.443 147.86,0.224 150.24,0 Z"
   style="clip-rule:evenodd;fill-rule:evenodd"
   inkscape:connector-curvature="0" />

			<path
   id="path7094"
   d="m 0,120.96 c 0.145,2.187 0.314,4.372 0.431,6.561 0.927,17.416 3.611,34.563 7.996,51.437 7.157,27.542 18.064,53.457 33.791,77.252 15.083,22.82 33.604,42.268 56.539,57.348 17.081,11.232 35.576,19.245 55.417,24.147 0.58,0.144 1.266,0.085 1.855,-0.063 33.256,-8.412 61.817,-25.004 85.827,-49.448 20.664,-21.039 36.024,-45.563 47.334,-72.698 8.1,-19.435 13.846,-39.554 17.236,-60.335 1.752,-10.742 2.849,-21.555 3.213,-32.437 0.02,-0.589 0.132,-1.175 0.201,-1.762 0,72.389 0,144.777 0,217.183 -103.252,0 -206.503,0 -309.84,0 C 0,265.76 0,193.36 0,120.96 Z"
   style="clip-rule:evenodd;fill:none;fill-rule:evenodd"
   inkscape:connector-curvature="0" />

			<path
   id="path7096"
   d="m 309.84,104.4 c -0.142,-2.108 -0.31,-4.216 -0.42,-6.326 -0.757,-14.396 -2.724,-28.627 -5.829,-42.7 -3.484,-15.791 -8.275,-31.163 -14.893,-45.938 -0.832,-1.857 -1.755,-3.674 -2.64,-5.508 -0.068,-0.141 -0.174,-0.263 -0.321,-0.481 -0.776,0.576 -1.529,1.139 -2.287,1.697 -7.202,5.299 -14.903,9.581 -23.67,11.735 -7.861,1.932 -15.757,1.827 -23.683,0.516 C 225.848,15.7 216.093,12.248 206.27,9.024 191.438,4.156 176.241,1.124 160.641,0.195 c -0.35,-0.021 -0.694,-0.128 -1.042,-0.194 50.057,0 100.113,0 150.24,0 C 309.84,34.8 309.84,69.6 309.84,104.4 Z"
   style="clip-rule:evenodd;fill:none;fill-rule:evenodd"
   inkscape:connector-curvature="0" />

			<path
   id="path7098"
   d="m 150.24,0 c -2.379,0.224 -4.759,0.442 -7.138,0.672 -14.497,1.4 -28.602,4.583 -42.379,9.282 -8.277,2.822 -16.611,5.419 -25.209,7.148 C 58.473,20.529 43.009,16.965 28.924,6.955 27.329,5.822 25.751,4.664 24.067,3.446 23.803,3.936 23.529,4.402 23.293,4.886 17.247,17.23 12.762,30.15 9.176,43.392 5.421,57.258 2.767,71.339 1.423,85.646 0.885,91.374 0.603,97.125 0.196,102.866 0.16,103.379 0.067,103.889 0,104.4 0,69.6 0,34.8 0,0 50.08,0 100.16,0 150.24,0 Z"
   style="clip-rule:evenodd;fill:none;fill-rule:evenodd"
   inkscape:connector-curvature="0" />

		</g>

	</g>

</g>
      <g
         id="Ebene_1-1">
</g>
    </g>
    <g
       id="g6975"
       transform="matrix(0.26458333,0,0,0.26458333,-425.09718,-23.778621)">
      <g
         id="Shield1">
	<g
   id="g6955">
		<g
   id="g6953">
			<path
   id="path6945"
   d="m 173.521,377.761 c -0.08,0 -0.16,0 -0.24,0 -0.117,-0.378 -0.214,-0.764 -0.354,-1.134 -4.825,-12.722 -12.835,-23.022 -23.706,-31.142 -9.25,-6.909 -19.584,-11.704 -30.409,-15.53 -12.718,-4.496 -25.826,-7.566 -38.958,-10.521 -9.489,-2.135 -18.862,-4.587 -27.75,-8.646 C 39.098,304.847 27.84,296.642 18.914,285.376 13.78,278.897 10.019,271.661 6.868,264.055 4.071,257.305 1.913,250.39 0.854,243.152 c -0.329,-2.244 -0.571,-4.5 -0.853,-6.751 0,-3.439 0,-6.88 0,-10.32 0.083,-0.503 0.181,-1.005 0.246,-1.511 0.375,-2.933 0.635,-5.884 1.133,-8.795 1.802,-10.538 5.154,-20.627 9.391,-30.399 4.878,-11.252 10.056,-22.375 15.055,-33.575 5.382,-12.06 10.072,-24.346 12.767,-37.345 C 41.235,101.711 40.269,89.363 35.398,77.288 31.693,68.106 26.53,59.764 20.911,51.676 18.314,47.937 15.656,44.24 12.992,40.477 21.285,31.071 29.554,21.692 37.837,12.298 c 0.292,0.128 0.513,0.216 0.725,0.32 19.813,9.719 40.851,13.241 62.741,12.247 17.098,-0.777 33.548,-4.484 49.225,-11.427 C 158.632,9.85 166.28,5.468 173.28,0 c 0.08,0 0.16,0 0.24,0 2.415,1.705 4.756,3.53 7.258,5.097 24.336,15.229 51.032,21.072 79.474,19.727 13.758,-0.651 27.095,-3.445 39.907,-8.564 2.961,-1.183 5.85,-2.548 8.861,-3.869 8.244,9.35 16.513,18.727 24.812,28.139 -1.124,1.565 -2.195,3.055 -3.264,4.546 -6.06,8.451 -11.979,16.987 -16.576,26.36 -6.636,13.53 -9.011,27.596 -5.889,42.512 2.214,10.572 5.492,20.785 9.791,30.657 4.961,11.392 10.2,22.662 15.266,34.009 4.534,10.159 8.543,20.509 11.094,31.374 2.764,11.776 3.452,23.627 1.312,35.583 -1.333,7.444 -3.92,14.468 -6.873,21.405 -4.78,11.233 -11.655,20.917 -20.797,28.983 -12.069,10.65 -26.191,17.351 -41.679,21.282 -10.882,2.762 -21.856,5.158 -32.722,7.979 -11.664,3.028 -23.026,6.953 -33.722,12.614 -10.928,5.785 -20.472,13.214 -27.689,23.385 -3.627,5.111 -6.557,10.59 -8.563,16.542 z"
   style="clip-rule:evenodd;fill-rule:evenodd"
   inkscape:connector-curvature="0" />

			<path
   id="path6947"
   d="m 173.521,377.761 c 2.007,-5.952 4.937,-11.431 8.563,-16.541 7.218,-10.171 16.762,-17.6 27.689,-23.385 10.695,-5.661 22.058,-9.586 33.722,-12.614 10.865,-2.82 21.84,-5.217 32.722,-7.979 15.487,-3.932 29.609,-10.632 41.679,-21.282 9.142,-8.066 16.017,-17.75 20.797,-28.983 2.953,-6.938 5.54,-13.961 6.873,-21.405 2.141,-11.956 1.452,-23.807 -1.312,-35.583 -2.551,-10.864 -6.56,-21.215 -11.094,-31.374 -5.065,-11.347 -10.305,-22.617 -15.266,-34.009 -4.299,-9.872 -7.577,-20.085 -9.791,-30.657 -3.122,-14.916 -0.747,-28.982 5.889,-42.512 4.598,-9.374 10.517,-17.909 16.576,-26.36 1.068,-1.491 2.14,-2.98 3.264,-4.546 -8.299,-9.412 -16.567,-18.789 -24.812,-28.139 -3.012,1.321 -5.9,2.686 -8.861,3.869 -12.813,5.12 -26.149,7.914 -39.907,8.564 -28.441,1.345 -55.138,-4.498 -79.474,-19.727 -2.502,-1.566 -4.843,-3.392 -7.258,-5.097 57.83,0 115.661,0 173.506,0 0,125.92 0,251.84 0,377.76 -57.845,0 -115.675,0 -173.505,0 z"
   style="clip-rule:evenodd;fill:none;fill-rule:evenodd"
   inkscape:connector-curvature="0" />

			<path
   id="path6949"
   d="m 0,236.4 c 0.282,2.251 0.524,4.507 0.853,6.751 1.06,7.238 3.217,14.153 6.014,20.903 3.151,7.606 6.912,14.842 12.046,21.321 8.927,11.267 20.185,19.471 33.19,25.412 8.887,4.06 18.26,6.512 27.75,8.646 13.133,2.954 26.24,6.024 38.958,10.521 10.825,3.826 21.159,8.621 30.409,15.53 10.87,8.119 18.88,18.42 23.706,31.142 0.14,0.37 0.237,0.756 0.354,1.134 -57.76,0 -115.52,0 -173.28,0 0,-47.119 0,-94.239 0,-141.36 z"
   style="clip-rule:evenodd;fill:none;fill-rule:evenodd"
   inkscape:connector-curvature="0" />

			<path
   id="path6951"
   d="m 173.28,0 c -7,5.468 -14.648,9.849 -22.753,13.438 C 134.85,20.38 118.4,24.088 101.302,24.865 79.411,25.859 58.374,22.337 38.561,12.618 c -0.212,-0.104 -0.433,-0.192 -0.725,-0.32 -8.283,9.395 -16.552,18.773 -24.845,28.179 2.664,3.763 5.322,7.46 7.919,11.199 5.62,8.088 10.783,16.43 14.487,25.612 4.871,12.075 5.836,24.423 3.195,37.168 -2.695,12.999 -7.385,25.285 -12.767,37.345 -4.999,11.2 -10.177,22.322 -15.055,33.575 -4.237,9.772 -7.589,19.861 -9.391,30.399 -0.498,2.911 -0.757,5.862 -1.133,8.795 C 0.181,225.076 0.082,225.578 0,226.081 0,150.72 0,75.36 0,0 57.76,0 115.521,0 173.28,0 Z"
   style="clip-rule:evenodd;fill:none;fill-rule:evenodd"
   inkscape:connector-curvature="0" />

		</g>

	</g>

</g>
      <g
         id="Ebene_1">
</g>
    </g>
  </g>
</svg>
