<?xml version="1.0" encoding="UTF-8" standalone="no"?>
<svg
   xmlns:dc="http://purl.org/dc/elements/1.1/"
   xmlns:cc="http://creativecommons.org/ns#"
   xmlns:rdf="http://www.w3.org/1999/02/22-rdf-syntax-ns#"
   xmlns:svg="http://www.w3.org/2000/svg"
   xmlns="http://www.w3.org/2000/svg"
   id="svg8"
   version="1.1"
   viewBox="0 0 144.40135 152.10136"
   height="152.10136mm"
   width="144.40135mm">
  <defs
     id="defs2">
	
</defs>
  <metadata
     id="metadata5">
    <rdf:RDF>
      <cc:Work
         rdf:about="">
        <dc:format>image/svg+xml</dc:format>
        <dc:type
           rdf:resource="http://purl.org/dc/dcmitype/StillImage" />
        <dc:title></dc:title>
      </cc:Work>
    </rdf:RDF>
  </metadata>
  <g
     transform="translate(92.757226,-72.782655)"
     id="layer1">
    <g
       transform="matrix(0.32201732,0,0,0.32201732,-87.729959,110.13621)"
       id="g3387">
      <g
         id="Mantle3">
	<g
   id="g3363">
		<g
   id="g3361">
			<path
   style="clip-rule:evenodd;fill:none;fill-rule:evenodd"
   d="m 419.52,216.96 c 0,28.874 0,57.748 0,86.631 -139.84,0 -279.68,0 -419.52,0 0,-28.883 0,-57.757 0,-86.631 0.217,0.906 0.522,1.802 0.636,2.722 0.387,3.107 1.543,5.932 3.58,8.242 3.333,3.782 7.207,6.52 12.711,6 3.455,-0.327 6.688,-0.922 9.337,-3.362 0.74,-0.681 1.581,-1.251 2.251,-1.775 -0.116,10.698 2.518,20.17 11.032,27.557 4.962,-5.646 8.865,-11.781 10.994,-18.794 1.492,2.147 2.822,4.318 4.409,6.281 1.849,2.286 3.928,4.387 5.899,6.576 1.839,2.042 3.669,4.094 5.5,6.143 0.63,0.705 1.254,1.414 1.954,2.204 1.152,-1.596 2.573,-2.956 2.681,-5.004 0.147,-2.781 0.238,-5.564 0.326,-8.348 0.03,-0.959 0.091,-1.936 -0.053,-2.875 -0.441,-2.865 -1.016,-5.709 -1.46,-8.574 -0.425,-2.737 -0.996,-5.402 -2.698,-7.758 7.327,3.548 14.881,6.703 20.841,13.199 0.321,-0.509 0.646,-0.853 0.775,-1.259 0.537,-1.686 1.357,-3.374 1.44,-5.092 0.154,-3.168 -0.102,-6.361 -0.262,-9.54 -0.053,-1.055 -0.301,-2.105 -0.523,-3.146 -0.559,-2.611 -1.905,-4.856 -3.37,-7.037 -2.615,-3.891 -5.578,-7.379 -10.296,-8.821 -0.227,-0.069 -0.421,-0.241 -0.85,-0.494 0.474,-0.118 0.697,-0.154 0.905,-0.229 1.634,-0.593 3.475,-0.891 4.857,-1.849 4.048,-2.803 6.931,-6.617 8.513,-11.317 0.792,-2.354 1.663,-4.714 1.349,-7.29 -0.306,-2.514 -0.354,-5.083 -0.926,-7.532 -0.531,-2.274 -1.472,-4.484 -2.484,-6.602 -0.663,-1.389 -2.047,-1.274 -2.702,0.123 -1.084,2.315 -2.995,3.905 -4.806,5.553 -1.045,0.95 -2.38,1.581 -3.671,2.412 -0.049,-0.329 -0.086,-0.411 -0.068,-0.478 1.006,-3.799 2.147,-7.587 1.612,-11.589 -0.24,-1.793 -0.412,-3.647 -1.014,-5.331 -1.634,-4.57 -4.361,-8.387 -8.273,-11.37 -5.764,-4.394 -12.269,-6.051 -19.396,-5.49 -0.819,0.064 -1.701,0.521 -2.355,1.044 -0.388,0.31 -0.709,1.295 -0.501,1.655 0.888,1.542 2.076,2.911 2.979,4.446 1.064,1.809 2.159,3.648 2.853,5.612 0.806,2.28 1.21,4.706 1.756,7.075 0.935,4.06 0.089,7.843 -2.249,11.178 -2.34,3.339 -5.567,5.746 -9.134,7.721 -2.942,1.63 -6.084,2.048 -9.39,2.25 -3.539,0.216 -6.711,-0.542 -9.583,-2.474 -1.6,-1.077 -3.044,-2.405 -4.468,-3.72 -1.577,-1.456 -3.063,-3.011 -4.562,-4.55 -0.688,-0.708 -1.31,-1.481 -2.134,-2.422 0.5,2.029 0.944,3.763 1.351,5.506 0.929,3.976 1.882,7.947 2.734,11.939 0.346,1.621 0.503,3.289 0.658,4.943 0.232,2.484 0.469,4.975 0.529,7.466 0.021,0.902 -0.289,1.917 -0.749,2.705 -1.342,2.304 -4.649,3.58 -7.234,2.759 -1.987,-0.631 -3.922,-1.454 -5.824,-2.315 -0.84,-0.381 -1.381,-0.248 -1.762,0.48 -0.401,0.769 -0.732,1.582 -1.005,2.405 -0.277,0.835 -0.447,1.705 -0.663,2.56 C 0,139.54 0,69.8 0,0 c 68.72,0 137.439,0 206.159,0 -0.418,0.08 -0.835,0.21 -1.257,0.231 -1.991,0.098 -3.984,0.165 -5.976,0.246 -5.927,0.24 -11.856,0.462 -17.782,0.733 -2.299,0.105 -4.602,0.243 -6.888,0.501 -4.395,0.498 -8.787,1.038 -13.166,1.664 -3.705,0.529 -7.455,0.944 -11.067,1.869 -6.857,1.756 -13.697,3.638 -20.419,5.847 -6.172,2.028 -12.236,4.42 -18.243,6.906 -5.198,2.151 -10.337,4.487 -15.341,7.055 -5.92,3.039 -11.704,6.351 -17.478,9.665 -3.673,2.108 -7.25,4.391 -10.814,6.681 -2.593,1.666 -5.037,3.565 -7.651,5.193 -4.731,2.947 -9.251,6.158 -13.271,10.03 -2.323,2.238 -4.608,4.517 -6.842,6.844 -3.728,3.882 -7.421,7.799 -11.086,11.74 -1.459,1.569 -2.989,3.123 -4.162,4.897 -2.38,3.599 -4.65,7.282 -6.761,11.044 -2.567,4.574 -4.666,9.37 -6.179,14.415 -1.745,5.821 -3.277,11.682 -4.109,17.715 -0.459,3.33 -1.344,6.634 -1.465,9.97 -0.189,5.194 -0.844,10.392 0.155,15.621 0.815,4.267 1.776,8.395 4.111,12.132 2.572,4.116 5.18,8.213 8.631,11.65 1.869,1.861 3.968,3.511 6.087,5.09 0.807,0.602 1.775,1.402 3.137,0.911 -0.164,-1.454 -0.376,-2.866 -0.475,-4.287 -0.369,-5.335 0.726,-10.52 1.739,-15.7 0.56,-2.866 1.085,-5.779 2.06,-8.516 1.604,-4.503 3.49,-8.911 5.4,-13.297 0.932,-2.138 2.235,-4.11 3.282,-6.202 1.202,-2.402 2.544,-4.774 3.384,-7.306 0.772,-2.328 0.939,-4.854 1.406,-7.287 0.656,-3.421 0.34,-6.845 -0.538,-10.123 -1.245,-4.649 -3.505,-8.83 -7.35,-11.923 -2.202,-1.772 -4.598,-3.227 -7.505,-3.559 -1.316,-0.149 -1.768,-1.211 -0.991,-2.321 2.128,-3.04 4.888,-5.221 8.378,-6.584 2.955,-1.154 5.91,-1.479 8.974,-0.756 1.682,0.396 3.337,0.902 5.038,1.368 0,-0.069 0.045,-0.275 -0.007,-0.453 -0.746,-2.573 -0.912,-5.099 -0.334,-7.796 1.068,-4.988 3.312,-9.285 6.862,-12.867 2.592,-2.616 5.797,-4.358 9.153,-5.856 2.16,-0.963 4.357,-1.437 6.704,-1.284 1.563,0.102 2.161,0.702 2.072,2.241 -0.079,1.372 -0.161,2.756 -0.417,4.102 -0.709,3.723 -1.046,7.471 -0.926,11.255 0.056,1.754 0.667,3.35 1.506,4.889 1.582,-1.288 3.023,-2.534 4.542,-3.68 2.685,-2.027 5.332,-4.121 8.15,-5.949 2.955,-1.917 6.046,-3.641 9.161,-5.291 3.497,-1.853 7.014,-3.703 10.656,-5.235 4.567,-1.92 9.257,-3.553 13.919,-5.24 3.338,-1.208 6.681,-2.425 10.086,-3.414 3.996,-1.16 8.054,-2.111 12.101,-3.089 3.051,-0.738 6.125,-1.388 9.193,-2.054 2.763,-0.6 5.546,-1.112 8.297,-1.762 3.367,-0.795 6.677,-1.873 10.073,-2.493 3.123,-0.57 6.32,-0.813 9.497,-0.996 7.894,-0.457 15.792,-1.045 23.692,-1.121 9.786,-0.094 19.59,-0.489 29.366,0.418 3.616,0.335 7.244,0.587 10.839,1.073 1.862,0.252 3.663,0.945 5.497,1.418 1.407,0.363 2.819,0.711 4.236,1.037 3.058,0.703 6.112,1.419 9.182,2.068 1.921,0.406 3.885,0.621 5.796,1.064 2.866,0.665 5.704,1.45 8.552,2.192 3.119,0.813 6.268,1.535 9.347,2.479 3.544,1.086 7.046,2.317 10.531,3.583 4.475,1.625 9.002,3.148 13.344,5.082 4.552,2.027 8.918,4.473 13.353,6.763 5.734,2.962 10.932,6.714 15.85,10.871 0.901,0.762 1.815,1.508 2.953,2.452 0.483,-1.688 1.221,-3.178 1.277,-4.694 0.108,-2.854 -0.142,-5.725 -0.317,-8.584 -0.058,-0.937 -0.402,-1.853 -0.519,-2.79 -0.203,-1.642 -0.405,-3.291 -0.44,-4.94 -0.009,-0.438 0.546,-1.226 0.919,-1.276 1.474,-0.199 3.101,-0.56 4.445,-0.139 2.688,0.843 5.31,2.006 7.807,3.326 2.573,1.36 4.906,3.195 6.628,5.563 2.566,3.53 4.545,7.387 5.196,11.779 0.165,1.113 0.176,2.271 0.081,3.394 -0.115,1.361 -0.416,2.706 -0.651,4.146 0.235,-0.07 0.385,-0.097 0.52,-0.158 4.248,-1.919 8.536,-2.446 13.051,-0.806 3.727,1.354 6.667,3.604 8.896,6.833 0.756,1.095 0.205,2.106 -1.159,2.237 -0.354,0.034 -0.717,0.06 -1.055,0.161 -4.229,1.262 -7.539,3.821 -10.023,7.401 -2.859,4.119 -4.337,8.724 -4.481,13.76 -0.081,2.794 0.475,5.49 0.907,8.227 0.562,3.55 1.83,6.778 3.638,9.823 2.576,4.341 5.03,8.733 6.653,13.542 0.441,1.307 0.928,2.606 1.492,3.864 1.521,3.387 2.272,6.982 2.944,10.597 0.391,2.106 0.523,4.271 1.043,6.341 0.992,3.96 1.161,7.924 0.627,11.948 -0.113,0.854 -0.118,1.724 -0.19,2.858 0.791,-0.234 1.397,-0.35 1.95,-0.589 2.916,-1.26 4.937,-3.691 7.21,-5.749 1.689,-1.529 3.137,-3.389 4.433,-5.279 2.857,-4.165 6.077,-8.184 7.198,-13.269 0.705,-3.201 1.473,-6.45 1.599,-9.701 0.193,-5.005 0.006,-10.038 -0.816,-15.013 -0.438,-2.651 -0.743,-5.327 -1.246,-7.965 -0.578,-3.037 -1.196,-6.076 -2.001,-9.059 -1.072,-3.979 -2.095,-8.001 -3.594,-11.827 -1.5,-3.826 -3.402,-7.52 -5.415,-11.111 -2.319,-4.14 -4.604,-8.333 -7.871,-11.866 -3.433,-3.711 -6.766,-7.517 -10.241,-11.187 -2,-2.112 -4.2,-4.036 -6.306,-6.049 -2.936,-2.805 -5.662,-5.879 -8.853,-8.354 -4.271,-3.315 -8.857,-6.237 -13.393,-9.198 -4.275,-2.792 -8.599,-5.524 -13.014,-8.089 -5.652,-3.284 -11.31,-6.592 -17.163,-9.488 -6.347,-3.14 -12.898,-5.872 -19.404,-8.682 -6.777,-2.927 -13.669,-5.567 -20.798,-7.526 -3.471,-0.954 -6.95,-1.892 -10.462,-2.674 -3.354,-0.748 -6.774,-1.203 -10.134,-1.93 -6.73,-1.456 -13.486,-2.753 -20.349,-3.358 -4.158,-0.367 -8.335,-0.519 -12.503,-0.781 -0.292,-0.018 -0.577,-0.152 -0.866,-0.232 63.421,0 126.842,0 190.32,0 0,69.76 0,139.52 0,209.279 -0.105,-0.232 -0.239,-0.457 -0.313,-0.699 -0.396,-1.316 -0.67,-2.684 -1.196,-3.946 -0.519,-1.241 -0.899,-1.228 -2.112,-0.647 -2.627,1.256 -5.158,2.431 -8.333,2.146 -3.36,-0.302 -5.289,-2.618 -5.281,-5.688 0.009,-3.248 0.191,-6.527 0.684,-9.733 0.563,-3.666 1.523,-7.274 2.364,-10.896 0.679,-2.92 1.438,-5.821 2.236,-9.036 -1.31,1.546 -2.347,2.903 -3.524,4.125 -1.188,1.232 -2.481,2.369 -3.789,3.478 -1.417,1.2 -2.81,2.47 -4.381,3.437 -1.948,1.199 -4.022,2.225 -6.45,2.124 -1.668,-0.069 -3.368,0.157 -5.004,-0.087 -1.898,-0.283 -3.837,-0.714 -5.589,-1.473 -4.155,-1.799 -7.689,-4.523 -10.404,-8.168 -1.446,-1.941 -2.431,-4.184 -2.652,-6.632 -0.382,-4.228 0.696,-8.253 2.158,-12.14 1.305,-3.467 3.333,-6.573 5.556,-9.543 0.219,-0.292 0.314,-0.92 0.15,-1.214 -0.688,-1.229 -1.936,-1.662 -3.229,-1.694 -2.208,-0.056 -4.396,-0.204 -6.631,0.228 -3.771,0.729 -7.356,1.841 -10.575,3.945 -3.863,2.526 -6.866,5.811 -8.953,9.988 -1.173,2.349 -1.77,4.799 -2.151,7.333 -0.2,1.327 -0.409,2.706 -0.258,4.02 0.247,2.144 0.765,4.259 1.215,6.375 0.157,0.739 0.453,1.449 0.686,2.173 -1.362,-0.563 -2.624,-1.157 -3.578,-2.071 -1.713,-1.643 -3.231,-3.485 -4.851,-5.227 -0.515,-0.553 -1.019,-1.256 -1.669,-1.479 -0.306,-0.105 -1.101,0.673 -1.407,1.204 -1.54,2.664 -2.358,5.576 -2.674,8.628 -0.154,1.499 -0.327,3.003 -0.355,4.507 -0.031,1.611 -0.167,3.289 0.203,4.826 1.24,5.162 3.655,9.72 7.792,13.175 1.1,0.919 2.432,1.596 3.735,2.22 1.103,0.528 2.317,0.82 3.509,1.226 -0.1,0.143 -0.13,0.232 -0.19,0.264 -0.247,0.127 -0.494,0.266 -0.758,0.348 -2.825,0.873 -4.983,2.615 -6.99,4.779 -4.324,4.664 -6.91,10.047 -7.17,16.396 -0.136,3.313 -0.529,6.701 0.639,9.936 0.421,1.166 0.368,2.677 2.054,3.265 2.527,-3.219 5.99,-5.281 9.479,-7.354 3.52,-2.091 7.17,-3.875 10.943,-5.469 -1.628,2.186 -2.282,4.663 -2.633,7.258 -0.205,1.522 -0.428,3.042 -0.663,4.561 -0.307,1.974 -0.792,3.935 -0.912,5.919 -0.157,2.59 -0.057,5.197 -0.022,7.797 0.035,2.708 1.111,4.979 3.049,6.948 0.724,-0.836 1.405,-1.654 2.121,-2.441 2.439,-2.684 4.908,-5.341 7.334,-8.037 1.7,-1.892 3.442,-3.758 4.99,-5.77 1.185,-1.539 2.095,-3.288 3.224,-5.099 2.169,7.248 6.092,13.344 11.035,18.982 8.504,-7.403 11.211,-16.878 10.964,-27.597 0.263,0.201 0.552,0.396 0.812,0.623 2.491,2.183 5.145,4.131 8.584,4.331 2.284,0.134 4.662,0.273 6.857,-0.217 1.767,-0.395 3.409,-1.603 4.953,-2.672 3.881,-2.688 6.04,-6.476 6.733,-11.133 0.132,-0.92 0.419,-1.817 0.637,-2.723 z M 341.784,97.919 c -0.726,-0.457 -1.26,-0.73 -1.722,-1.095 -1.747,-1.378 -3.619,-2.642 -5.159,-4.226 -1.313,-1.35 -2.236,-3.077 -3.326,-4.642 -0.582,-0.835 -1.136,-0.885 -1.769,-0.085 -0.24,0.303 -0.401,0.688 -0.525,1.06 -1.636,4.915 -1.019,9.961 -0.737,14.963 0.112,1.999 0.71,3.983 1.203,5.944 0.561,2.226 1.102,4.479 1.935,6.608 0.675,1.725 1.739,3.303 2.688,4.913 0.582,0.988 1.163,2.014 1.934,2.847 1.561,1.688 3.25,3.256 4.885,4.875 1.942,1.924 4.175,3.466 6.657,4.553 2.736,1.198 5.542,2.262 8.382,3.188 1.896,0.619 3.892,0.972 5.867,1.304 2.484,0.418 5.014,0.582 7.485,1.058 2.813,0.542 5.534,-0.166 8.296,-0.309 0.325,-0.017 0.644,-0.162 1.025,-0.264 -0.523,-1.186 -0.925,-2.315 -1.499,-3.349 -1.146,-2.069 -2.424,-4.066 -3.582,-6.128 -1.393,-2.48 -2.413,-5.119 -2.949,-7.917 -0.393,-2.05 -0.869,-4.112 -0.962,-6.185 -0.137,-3.087 -0.166,-6.181 0.593,-9.25 1.182,-4.778 3.188,-9.106 6.527,-12.739 2.04,-2.22 4.374,-4.112 7.214,-5.354 -2.328,-2.076 -5.533,-3.194 -8.422,-3.301 -4.571,-0.17 -8.456,1.371 -11.88,4.3 -0.399,0.342 -0.912,0.553 -1.372,0.825 -0.096,-0.06 -0.19,-0.12 -0.286,-0.18 0.334,-1.732 0.611,-3.476 1.013,-5.192 1.054,-4.509 1.422,-8.943 -0.304,-13.432 -1.136,-2.956 -2.583,-5.656 -5.04,-7.63 -1.716,-1.379 -3.674,-2.476 -5.594,-3.577 -1.222,-0.701 -2.571,-1.178 -3.958,-1.797 -0.11,0.47 -0.161,0.619 -0.176,0.771 -0.015,0.157 -0.022,0.325 0.014,0.477 0.895,3.74 1.349,7.517 1.264,11.377 -0.098,4.427 -0.712,8.659 -3.01,12.582 -2.258,3.853 -4.01,7.932 -4.281,12.498 -0.048,0.781 -0.26,1.55 -0.429,2.509 z M 40.453,138.445 c 0.102,0.146 0.203,0.291 0.305,0.436 2.65,0.177 5.301,0.356 7.952,0.528 0.197,0.013 0.4,-0.007 0.596,-0.04 2.366,-0.398 4.736,-0.775 7.095,-1.21 2.901,-0.536 5.865,-0.884 8.67,-1.744 3.704,-1.135 7.273,-2.733 10.455,-4.999 3.19,-2.271 6.031,-4.977 8.428,-8.063 1.228,-1.581 2.023,-3.502 2.988,-5.283 0.624,-1.151 1.433,-2.268 1.753,-3.506 0.847,-3.269 1.75,-6.565 2.112,-9.906 0.416,-3.833 0.386,-7.729 0.314,-11.594 -0.029,-1.551 -0.565,-3.133 -1.091,-4.624 -0.501,-1.422 -1.417,-1.463 -2.239,-0.231 -1.589,2.381 -3.233,4.72 -5.51,6.507 -1.399,1.098 -2.868,2.109 -4.364,3.203 -0.178,-0.375 -0.306,-0.575 -0.368,-0.793 -0.064,-0.227 -0.072,-0.47 -0.094,-0.707 -0.333,-3.536 -1.067,-6.963 -2.696,-10.157 -1.138,-2.231 -2.35,-4.432 -3.359,-6.721 -1.125,-2.551 -1.159,-5.327 -1.33,-8.065 -0.233,-3.74 0.124,-7.423 0.887,-11.082 0.166,-0.796 0.215,-1.617 0.343,-2.632 -1.013,0.352 -1.757,0.505 -2.395,0.852 -1.981,1.076 -3.989,2.123 -5.864,3.366 -4.634,3.074 -6.889,7.689 -7.612,12.999 -0.542,3.969 0.317,7.904 1.31,11.77 0.219,0.854 0.304,1.742 0.451,2.614 -0.118,0.069 -0.235,0.139 -0.353,0.208 -0.978,-0.764 -1.888,-1.641 -2.945,-2.272 -3.404,-2.032 -7.001,-3.219 -11.093,-2.919 -2.953,0.217 -5.169,1.713 -7.52,3.153 1.377,0.877 2.686,1.612 3.886,2.495 3.989,2.937 6.665,6.87 8.508,11.421 1.197,2.955 1.864,6.009 1.994,9.201 0.154,3.793 -0.46,7.469 -1.23,11.169 -0.631,3.035 -1.883,5.728 -3.403,8.366 -1.571,2.728 -3.057,5.505 -4.581,8.26 z M 74.7,236.191 c -0.149,0.1 -0.298,0.199 -0.447,0.3 0.338,2.32 0.82,4.631 0.978,6.964 0.183,2.723 0.099,5.464 0.1,8.197 10e-4,3.229 -0.976,6.193 -2.668,8.902 -0.925,1.48 -2.289,2.692 -4.074,2.722 -5.218,0.085 -9.576,-1.797 -12.713,-6.13 -0.421,-0.582 -0.896,-1.127 -1.375,-1.662 -0.516,-0.577 -1.096,-0.656 -1.64,-0.045 -1.139,1.279 -2.346,2.511 -3.366,3.88 -2.287,3.069 -3.468,6.667 -4.51,10.285 -1.573,5.46 -1.158,10.765 2.132,15.519 1.481,2.14 3.374,4.068 6.052,4.809 1.472,0.407 2.996,0.619 4.476,0.996 1.893,0.482 3.706,0.36 5.441,-0.541 1.141,-0.594 2.257,-1.237 3.394,-1.864 0.045,0.721 -0.072,1.562 0.172,2.281 1.126,3.322 3.015,6.152 5.897,8.207 2.289,1.632 4.896,2.569 7.65,3.08 2.393,0.444 4.784,0.933 7.198,1.222 1.113,0.133 2.277,-0.172 3.419,-0.262 2.16,-0.17 4.349,-0.11 6.347,-1.22 0.672,-0.372 1.515,-0.421 2.238,-0.72 0.592,-0.243 1.123,-0.638 1.681,-0.965 -0.303,-0.471 -0.522,-1.033 -0.923,-1.396 -3.169,-2.868 -5.417,-6.384 -7.005,-10.29 -1.954,-4.807 -2.747,-9.922 -3.552,-15.015 -0.383,-2.418 -0.544,-4.874 -0.991,-7.278 -0.582,-3.125 -1.147,-6.277 -2.08,-9.307 -1.583,-5.144 -3.546,-10.172 -6.75,-14.565 -1.557,-2.135 -3.379,-4.075 -5.081,-6.104 z m 278.518,52.17 c 3.089,3.093 6.878,3.196 10.785,2.419 4.188,-0.833 7.157,-3.507 9.384,-6.968 1.456,-2.266 1.61,-5.007 1.938,-7.608 0.358,-2.846 -0.319,-5.608 -1.253,-8.294 -1.577,-4.539 -3.457,-8.898 -7.141,-12.214 -1.017,-0.915 -1.334,-0.949 -2.217,0.139 -0.801,0.988 -1.441,2.132 -2.348,3.005 -2.614,2.518 -5.796,3.968 -9.385,4.454 -2.846,0.385 -4.902,-0.761 -6.421,-3.233 -1.975,-3.214 -2.472,-6.778 -2.569,-10.377 -0.071,-2.638 0.414,-5.291 0.658,-7.938 0.164,-1.773 0.343,-3.545 0.527,-5.448 -1.34,1.316 -2.706,2.436 -3.797,3.778 -2.462,3.029 -4.237,6.452 -5.879,10.013 -2.003,4.344 -3.143,8.911 -4.231,13.487 -0.854,3.594 -1.106,7.328 -1.689,10.989 -0.489,3.07 -0.869,6.18 -1.657,9.177 -1.441,5.479 -3.857,10.481 -8.05,14.482 -2.093,1.998 -2.044,2.049 0.69,2.981 0.074,0.025 0.138,0.081 0.209,0.116 3.118,1.565 6.537,1.771 9.902,1.985 4.236,0.271 8.338,-0.835 12.259,-2.252 5.825,-2.104 9.407,-6.26 10.285,-12.693 z"
   id="path3345" />

			<path
   style="clip-rule:evenodd;fill-rule:evenodd"
   d="m 229.199,0 c 0.289,0.08 0.574,0.214 0.866,0.232 4.168,0.262 8.345,0.414 12.503,0.781 6.862,0.605 13.618,1.903 20.349,3.358 3.359,0.727 6.779,1.182 10.134,1.93 3.512,0.782 6.991,1.72 10.462,2.674 7.129,1.959 14.021,4.599 20.798,7.526 6.506,2.81 13.058,5.542 19.404,8.682 5.854,2.896 11.511,6.205 17.163,9.488 4.415,2.565 8.738,5.297 13.014,8.089 4.535,2.961 9.121,5.883 13.393,9.198 3.19,2.476 5.917,5.55 8.853,8.354 2.105,2.013 4.306,3.937 6.306,6.049 3.476,3.67 6.809,7.475 10.241,11.187 3.268,3.533 5.552,7.726 7.871,11.866 2.013,3.591 3.915,7.286 5.415,11.111 1.499,3.826 2.521,7.848 3.594,11.827 0.805,2.983 1.423,6.022 2.001,9.059 0.503,2.639 0.808,5.314 1.246,7.965 0.822,4.976 1.01,10.008 0.816,15.013 -0.126,3.251 -0.894,6.5 -1.599,9.701 -1.121,5.085 -4.341,9.104 -7.198,13.269 -1.296,1.891 -2.743,3.75 -4.433,5.279 -2.273,2.058 -4.294,4.489 -7.21,5.749 -0.553,0.239 -1.159,0.354 -1.95,0.589 0.072,-1.135 0.077,-2.004 0.19,-2.858 0.534,-4.024 0.365,-7.988 -0.627,-11.948 -0.52,-2.07 -0.652,-4.234 -1.043,-6.341 -0.672,-3.615 -1.424,-7.21 -2.944,-10.597 -0.564,-1.258 -1.051,-2.557 -1.492,-3.864 -1.623,-4.809 -4.077,-9.201 -6.653,-13.542 -1.808,-3.045 -3.076,-6.273 -3.638,-9.823 -0.433,-2.737 -0.988,-5.433 -0.907,-8.227 0.145,-5.036 1.622,-9.641 4.481,-13.76 2.484,-3.58 5.795,-6.139 10.023,-7.401 0.338,-0.101 0.701,-0.127 1.055,-0.161 1.364,-0.13 1.915,-1.142 1.159,-2.237 -2.229,-3.229 -5.169,-5.479 -8.896,-6.833 -4.515,-1.641 -8.803,-1.114 -13.051,0.806 -0.135,0.061 -0.284,0.087 -0.52,0.158 0.235,-1.439 0.536,-2.785 0.651,-4.146 0.095,-1.123 0.084,-2.281 -0.081,-3.394 -0.651,-4.392 -2.63,-8.25 -5.196,-11.779 -1.722,-2.368 -4.055,-4.203 -6.628,-5.563 -2.497,-1.32 -5.118,-2.483 -7.807,-3.326 -1.345,-0.421 -2.972,-0.06 -4.445,0.139 -0.373,0.05 -0.928,0.837 -0.919,1.276 0.035,1.649 0.237,3.298 0.44,4.94 0.116,0.937 0.461,1.853 0.519,2.79 0.176,2.859 0.426,5.73 0.317,8.584 -0.057,1.517 -0.794,3.007 -1.277,4.694 -1.138,-0.944 -2.052,-1.69 -2.953,-2.452 -4.918,-4.156 -10.115,-7.909 -15.85,-10.871 -4.435,-2.29 -8.801,-4.736 -13.353,-6.763 -4.342,-1.934 -8.869,-3.458 -13.344,-5.082 -3.485,-1.266 -6.987,-2.497 -10.531,-3.583 -3.079,-0.944 -6.228,-1.666 -9.347,-2.479 -2.848,-0.742 -5.686,-1.528 -8.552,-2.192 -1.911,-0.443 -3.875,-0.658 -5.796,-1.064 -3.069,-0.649 -6.124,-1.365 -9.182,-2.068 -1.417,-0.325 -2.829,-0.673 -4.236,-1.037 -1.834,-0.473 -3.635,-1.167 -5.497,-1.418 -3.595,-0.486 -7.223,-0.738 -10.839,-1.073 -9.776,-0.907 -19.58,-0.513 -29.366,-0.418 -7.9,0.076 -15.798,0.664 -23.692,1.121 -3.176,0.184 -6.374,0.426 -9.497,0.996 -3.396,0.621 -6.706,1.698 -10.073,2.493 -2.751,0.649 -5.534,1.162 -8.297,1.762 -3.068,0.666 -6.142,1.316 -9.193,2.054 -4.046,0.978 -8.104,1.929 -12.101,3.089 -3.406,0.989 -6.749,2.206 -10.086,3.414 -4.662,1.688 -9.352,3.32 -13.919,5.24 -3.642,1.532 -7.159,3.383 -10.656,5.235 -3.115,1.65 -6.206,3.374 -9.161,5.291 -2.818,1.828 -5.465,3.922 -8.15,5.949 -1.518,1.146 -2.959,2.393 -4.542,3.68 -0.838,-1.539 -1.45,-3.135 -1.506,-4.889 -0.12,-3.784 0.217,-7.532 0.926,-11.255 0.256,-1.346 0.338,-2.73 0.417,-4.102 0.089,-1.539 -0.509,-2.139 -2.072,-2.241 -2.346,-0.153 -4.544,0.321 -6.704,1.284 -3.356,1.498 -6.562,3.24 -9.153,5.856 -3.55,3.583 -5.794,7.879 -6.862,12.867 -0.578,2.697 -0.411,5.224 0.334,7.796 0.052,0.178 0.007,0.384 0.007,0.453 -1.7,-0.466 -3.356,-0.972 -5.038,-1.368 -3.064,-0.723 -6.019,-0.398 -8.974,0.756 -3.49,1.363 -6.25,3.544 -8.378,6.584 -0.777,1.11 -0.326,2.172 0.991,2.321 2.907,0.332 5.303,1.787 7.505,3.559 3.845,3.093 6.104,7.274 7.35,11.923 0.877,3.278 1.194,6.702 0.538,10.123 -0.467,2.433 -0.634,4.958 -1.406,7.287 -0.839,2.532 -2.182,4.904 -3.384,7.306 -1.047,2.092 -2.351,4.064 -3.282,6.202 -1.91,4.386 -3.796,8.794 -5.4,13.297 -0.975,2.737 -1.5,5.65 -2.06,8.516 -1.013,5.181 -2.108,10.365 -1.739,15.7 0.098,1.421 0.311,2.833 0.475,4.287 -1.362,0.491 -2.33,-0.31 -3.137,-0.911 -2.119,-1.579 -4.219,-3.229 -6.087,-5.09 -3.451,-3.438 -6.059,-7.534 -8.631,-11.65 C 8.131,157.261 7.17,153.133 6.355,148.866 5.356,143.637 6.01,138.44 6.2,133.245 c 0.121,-3.336 1.005,-6.641 1.465,-9.97 0.832,-6.033 2.364,-11.894 4.109,-17.715 1.513,-5.045 3.611,-9.841 6.179,-14.415 2.111,-3.762 4.381,-7.445 6.761,-11.044 1.173,-1.775 2.703,-3.328 4.162,-4.897 3.665,-3.941 7.358,-7.858 11.086,-11.74 2.233,-2.327 4.519,-4.606 6.842,-6.844 4.02,-3.872 8.54,-7.083 13.271,-10.03 2.614,-1.628 5.059,-3.527 7.651,-5.193 3.565,-2.29 7.142,-4.572 10.814,-6.681 5.774,-3.314 11.558,-6.626 17.478,-9.665 5.004,-2.568 10.143,-4.903 15.341,-7.055 6.007,-2.486 12.071,-4.878 18.243,-6.906 6.722,-2.209 13.562,-4.091 20.419,-5.847 3.612,-0.925 7.362,-1.34 11.067,-1.869 4.378,-0.625 8.771,-1.166 13.166,-1.664 2.286,-0.259 4.589,-0.396 6.888,-0.501 5.926,-0.271 11.854,-0.493 17.782,-0.733 1.992,-0.081 3.985,-0.147 5.976,-0.246 0.422,-0.021 0.838,-0.151 1.257,-0.231 C 213.84,0 221.52,0 229.199,0 Z"
   id="path3347" />

			<path
   style="clip-rule:evenodd;fill-rule:evenodd"
   d="m 0,209.279 c 0.216,-0.854 0.386,-1.725 0.663,-2.56 0.273,-0.823 0.604,-1.637 1.005,-2.405 0.381,-0.729 0.922,-0.861 1.762,-0.48 1.902,0.861 3.836,1.685 5.824,2.315 2.584,0.821 5.892,-0.455 7.234,-2.759 0.459,-0.788 0.77,-1.803 0.749,-2.705 -0.06,-2.491 -0.297,-4.981 -0.529,-7.466 -0.155,-1.654 -0.312,-3.322 -0.658,-4.943 -0.852,-3.992 -1.806,-7.964 -2.734,-11.939 -0.407,-1.743 -0.852,-3.477 -1.351,-5.506 0.825,0.94 1.446,1.714 2.134,2.422 1.498,1.539 2.985,3.094 4.562,4.55 1.423,1.314 2.868,2.643 4.468,3.72 2.872,1.932 6.044,2.689 9.583,2.474 3.306,-0.202 6.448,-0.62 9.39,-2.25 3.567,-1.975 6.794,-4.382 9.134,-7.721 2.338,-3.335 3.184,-7.118 2.249,-11.178 -0.546,-2.369 -0.95,-4.795 -1.756,-7.075 -0.694,-1.964 -1.789,-3.804 -2.853,-5.612 -0.903,-1.535 -2.091,-2.904 -2.979,-4.446 -0.208,-0.36 0.114,-1.345 0.501,-1.655 0.654,-0.523 1.536,-0.979 2.355,-1.044 7.127,-0.561 13.631,1.096 19.396,5.49 3.912,2.983 6.639,6.8 8.273,11.37 0.602,1.684 0.773,3.538 1.014,5.331 0.535,4.002 -0.605,7.79 -1.612,11.589 -0.018,0.066 0.019,0.148 0.068,0.478 1.291,-0.831 2.626,-1.462 3.671,-2.412 1.811,-1.647 3.721,-3.237 4.806,-5.553 0.655,-1.397 2.039,-1.512 2.702,-0.123 1.012,2.117 1.953,4.327 2.484,6.602 0.572,2.449 0.62,5.019 0.926,7.532 0.314,2.576 -0.557,4.936 -1.349,7.29 -1.582,4.7 -4.465,8.515 -8.513,11.317 -1.383,0.958 -3.224,1.256 -4.857,1.849 -0.208,0.075 -0.431,0.111 -0.905,0.229 0.428,0.253 0.623,0.425 0.85,0.494 4.718,1.442 7.681,4.931 10.296,8.821 1.465,2.181 2.812,4.426 3.37,7.037 0.222,1.04 0.47,2.091 0.523,3.146 0.161,3.179 0.417,6.372 0.262,9.54 -0.083,1.718 -0.903,3.406 -1.44,5.092 -0.129,0.406 -0.455,0.75 -0.775,1.259 -5.96,-6.496 -13.514,-9.651 -20.841,-13.199 1.703,2.355 2.273,5.021 2.698,7.758 0.444,2.865 1.02,5.709 1.46,8.574 0.145,0.939 0.083,1.916 0.053,2.875 -0.088,2.783 -0.179,5.566 -0.326,8.348 -0.108,2.048 -1.529,3.408 -2.681,5.004 -0.7,-0.79 -1.324,-1.499 -1.954,-2.204 -1.832,-2.049 -3.661,-4.101 -5.5,-6.143 -1.971,-2.189 -4.05,-4.29 -5.899,-6.576 -1.587,-1.963 -2.917,-4.134 -4.409,-6.281 -2.129,7.013 -6.031,13.148 -10.994,18.794 -8.515,-7.387 -11.148,-16.858 -11.032,-27.557 -0.67,0.524 -1.511,1.095 -2.251,1.775 -2.65,2.44 -5.883,3.035 -9.337,3.362 -5.504,0.52 -9.377,-2.218 -12.711,-6 -2.036,-2.311 -3.192,-5.135 -3.58,-8.242 C 0.525,218.762 0.22,217.867 0.003,216.96 0,214.399 0,211.84 0,209.279 Z"
   id="path3349" />

			<path
   style="clip-rule:evenodd;fill-rule:evenodd"
   d="m 419.52,216.96 c -0.218,0.906 -0.505,1.803 -0.641,2.721 -0.693,4.657 -2.853,8.445 -6.733,11.133 -1.544,1.069 -3.187,2.277 -4.953,2.672 -2.195,0.49 -4.573,0.351 -6.857,0.217 -3.439,-0.2 -6.093,-2.148 -8.584,-4.331 -0.26,-0.228 -0.549,-0.422 -0.812,-0.623 0.247,10.719 -2.46,20.193 -10.964,27.597 -4.943,-5.639 -8.866,-11.734 -11.035,-18.982 -1.129,1.811 -2.039,3.56 -3.224,5.099 -1.548,2.012 -3.29,3.878 -4.99,5.77 -2.426,2.696 -4.895,5.354 -7.334,8.037 -0.716,0.787 -1.397,1.605 -2.121,2.441 -1.938,-1.97 -3.014,-4.24 -3.049,-6.948 -0.034,-2.6 -0.135,-5.207 0.022,-7.797 0.12,-1.984 0.605,-3.945 0.912,-5.919 0.235,-1.519 0.458,-3.038 0.663,-4.561 0.351,-2.595 1.005,-5.072 2.633,-7.258 -3.773,1.594 -7.424,3.378 -10.943,5.469 -3.489,2.072 -6.952,4.135 -9.479,7.354 -1.686,-0.588 -1.633,-2.099 -2.054,-3.265 -1.168,-3.234 -0.774,-6.623 -0.639,-9.936 0.26,-6.349 2.846,-11.731 7.17,-16.396 2.007,-2.164 4.165,-3.906 6.99,-4.779 0.264,-0.082 0.511,-0.221 0.758,-0.348 0.061,-0.031 0.091,-0.121 0.19,-0.264 -1.191,-0.405 -2.406,-0.697 -3.509,-1.226 -1.304,-0.624 -2.636,-1.301 -3.735,-2.22 -4.137,-3.455 -6.552,-8.013 -7.792,-13.175 -0.37,-1.537 -0.234,-3.215 -0.203,-4.826 0.028,-1.504 0.201,-3.008 0.355,-4.507 0.315,-3.052 1.134,-5.964 2.674,-8.628 0.307,-0.531 1.102,-1.31 1.407,-1.204 0.65,0.224 1.154,0.927 1.669,1.479 1.619,1.741 3.138,3.584 4.851,5.227 0.954,0.914 2.216,1.508 3.578,2.071 -0.232,-0.724 -0.528,-1.434 -0.686,-2.173 -0.45,-2.116 -0.968,-4.231 -1.215,-6.375 -0.151,-1.313 0.058,-2.692 0.258,-4.02 0.382,-2.534 0.979,-4.984 2.151,-7.333 2.087,-4.178 5.09,-7.462 8.953,-9.988 3.219,-2.104 6.805,-3.216 10.575,-3.945 2.234,-0.432 4.423,-0.284 6.631,-0.228 1.294,0.033 2.541,0.466 3.229,1.694 0.164,0.293 0.068,0.921 -0.15,1.214 -2.223,2.97 -4.251,6.076 -5.556,9.543 -1.462,3.887 -2.54,7.912 -2.158,12.14 0.222,2.448 1.206,4.69 2.652,6.632 2.715,3.645 6.249,6.369 10.404,8.168 1.752,0.759 3.69,1.189 5.589,1.473 1.636,0.244 3.336,0.018 5.004,0.087 2.428,0.101 4.502,-0.925 6.45,-2.124 1.571,-0.967 2.964,-2.236 4.381,-3.437 1.308,-1.108 2.602,-2.245 3.789,-3.478 1.178,-1.222 2.215,-2.579 3.524,-4.125 -0.799,3.215 -1.558,6.116 -2.236,9.036 -0.841,3.621 -1.801,7.229 -2.364,10.896 -0.492,3.206 -0.675,6.485 -0.684,9.733 -0.008,3.069 1.921,5.386 5.281,5.688 3.175,0.284 5.706,-0.891 8.333,-2.146 1.213,-0.58 1.594,-0.594 2.112,0.647 0.526,1.263 0.8,2.63 1.196,3.946 0.073,0.242 0.207,0.467 0.313,0.699 0.003,2.562 0.003,5.121 0.003,7.682 z"
   id="path3351" />

			<path
   style="clip-rule:evenodd;fill-rule:evenodd"
   d="m 341.784,97.919 c 0.169,-0.959 0.381,-1.728 0.428,-2.507 0.271,-4.565 2.023,-8.645 4.281,-12.498 2.298,-3.923 2.912,-8.155 3.01,-12.582 0.085,-3.86 -0.369,-7.637 -1.264,-11.377 -0.036,-0.152 -0.028,-0.319 -0.014,-0.477 0.015,-0.152 0.065,-0.302 0.176,-0.771 1.387,0.619 2.736,1.096 3.958,1.797 1.92,1.101 3.878,2.197 5.594,3.577 2.457,1.974 3.904,4.674 5.04,7.63 1.726,4.489 1.357,8.923 0.304,13.432 -0.401,1.716 -0.679,3.46 -1.013,5.192 0.096,0.06 0.19,0.12 0.286,0.18 0.46,-0.272 0.973,-0.483 1.372,-0.825 3.424,-2.93 7.309,-4.471 11.88,-4.3 2.889,0.107 6.094,1.225 8.422,3.301 -2.84,1.242 -5.174,3.133 -7.214,5.354 -3.339,3.633 -5.346,7.961 -6.527,12.739 -0.759,3.069 -0.729,6.163 -0.593,9.25 0.093,2.072 0.569,4.135 0.962,6.185 0.536,2.798 1.557,5.437 2.949,7.917 1.158,2.063 2.436,4.06 3.582,6.128 0.574,1.034 0.976,2.163 1.499,3.349 -0.382,0.102 -0.7,0.247 -1.025,0.264 -2.762,0.143 -5.483,0.852 -8.296,0.309 -2.472,-0.477 -5.001,-0.64 -7.485,-1.058 -1.976,-0.332 -3.971,-0.685 -5.867,-1.304 -2.84,-0.926 -5.646,-1.991 -8.382,-3.188 -2.482,-1.087 -4.715,-2.629 -6.657,-4.553 -1.635,-1.619 -3.324,-3.187 -4.885,-4.875 -0.771,-0.833 -1.352,-1.859 -1.934,-2.847 -0.948,-1.61 -2.013,-3.188 -2.688,-4.913 -0.833,-2.13 -1.374,-4.382 -1.935,-6.608 -0.493,-1.961 -1.091,-3.945 -1.203,-5.944 -0.281,-5.001 -0.898,-10.048 0.737,-14.963 0.124,-0.372 0.285,-0.757 0.525,-1.06 0.633,-0.8 1.187,-0.75 1.769,0.085 1.09,1.565 2.014,3.292 3.326,4.642 1.54,1.584 3.412,2.848 5.159,4.226 0.463,0.362 0.998,0.636 1.723,1.093 z"
   id="path3353" />

			<path
   style="clip-rule:evenodd;fill-rule:evenodd"
   d="m 40.453,138.445 c 1.523,-2.755 3.01,-5.532 4.581,-8.26 1.521,-2.638 2.772,-5.331 3.403,-8.366 0.77,-3.7 1.384,-7.375 1.23,-11.169 -0.13,-3.192 -0.796,-6.246 -1.994,-9.201 -1.843,-4.551 -4.519,-8.484 -8.508,-11.421 -1.2,-0.883 -2.509,-1.618 -3.886,-2.495 2.351,-1.439 4.567,-2.936 7.52,-3.153 4.092,-0.3 7.689,0.887 11.093,2.919 1.057,0.631 1.967,1.508 2.945,2.272 0.118,-0.069 0.235,-0.139 0.353,-0.208 -0.147,-0.873 -0.232,-1.761 -0.451,-2.614 -0.992,-3.866 -1.851,-7.801 -1.31,-11.77 0.724,-5.309 2.979,-9.924 7.612,-12.999 1.875,-1.244 3.883,-2.291 5.864,-3.366 0.638,-0.347 1.382,-0.5 2.395,-0.852 -0.128,1.015 -0.177,1.835 -0.343,2.632 -0.763,3.658 -1.121,7.341 -0.887,11.082 0.17,2.738 0.205,5.515 1.33,8.065 1.009,2.289 2.221,4.49 3.359,6.721 1.629,3.194 2.363,6.621 2.696,10.157 0.022,0.237 0.03,0.48 0.094,0.707 0.062,0.218 0.189,0.418 0.368,0.793 1.497,-1.094 2.965,-2.105 4.364,-3.203 2.277,-1.787 3.921,-4.126 5.51,-6.507 0.822,-1.232 1.737,-1.191 2.239,0.231 0.525,1.491 1.062,3.072 1.091,4.624 0.072,3.865 0.101,7.76 -0.314,11.594 -0.362,3.341 -1.265,6.638 -2.112,9.906 -0.32,1.238 -1.13,2.354 -1.753,3.506 -0.965,1.781 -1.76,3.702 -2.988,5.283 -2.397,3.086 -5.238,5.792 -8.428,8.063 -3.181,2.265 -6.75,3.864 -10.455,4.999 -2.805,0.859 -5.77,1.208 -8.67,1.744 -2.359,0.435 -4.729,0.812 -7.095,1.21 -0.196,0.033 -0.399,0.053 -0.596,0.04 -2.651,-0.171 -5.301,-0.351 -7.952,-0.528 -0.102,-0.145 -0.203,-0.29 -0.305,-0.436 z"
   id="path3355" />

			<path
   style="clip-rule:evenodd;fill-rule:evenodd"
   d="m 74.7,236.191 c 1.702,2.028 3.524,3.969 5.081,6.104 3.204,4.394 5.167,9.422 6.75,14.565 0.933,3.029 1.499,6.182 2.08,9.307 0.447,2.404 0.608,4.86 0.991,7.278 0.805,5.093 1.598,10.208 3.552,15.015 1.588,3.906 3.836,7.422 7.005,10.29 0.4,0.363 0.62,0.926 0.923,1.396 -0.558,0.327 -1.088,0.722 -1.681,0.965 -0.723,0.299 -1.566,0.348 -2.238,0.72 -1.999,1.109 -4.187,1.05 -6.347,1.22 -1.142,0.09 -2.306,0.395 -3.419,0.262 -2.414,-0.289 -4.805,-0.777 -7.198,-1.222 -2.754,-0.511 -5.361,-1.448 -7.65,-3.08 -2.882,-2.055 -4.771,-4.885 -5.897,-8.207 -0.244,-0.72 -0.126,-1.561 -0.172,-2.281 -1.137,0.627 -2.253,1.271 -3.394,1.864 -1.735,0.901 -3.548,1.023 -5.441,0.541 -1.48,-0.377 -3.004,-0.589 -4.476,-0.996 -2.678,-0.74 -4.57,-2.669 -6.052,-4.809 -3.291,-4.754 -3.706,-10.059 -2.132,-15.519 1.042,-3.618 2.223,-7.216 4.51,-10.285 1.021,-1.369 2.228,-2.601 3.366,-3.88 0.544,-0.611 1.125,-0.532 1.64,0.045 0.479,0.535 0.954,1.08 1.375,1.662 3.137,4.333 7.495,6.215 12.713,6.13 1.786,-0.029 3.149,-1.241 4.074,-2.722 1.692,-2.709 2.669,-5.673 2.668,-8.902 -0.001,-2.733 0.083,-5.475 -0.1,-8.197 -0.157,-2.333 -0.64,-4.644 -0.978,-6.964 0.149,-0.1 0.298,-0.2 0.447,-0.3 z"
   id="path3357" />

			<path
   style="clip-rule:evenodd;fill-rule:evenodd"
   d="m 353.218,288.361 c -0.878,6.433 -4.46,10.589 -10.283,12.694 -3.921,1.417 -8.022,2.522 -12.259,2.252 -3.365,-0.215 -6.784,-0.42 -9.902,-1.985 -0.071,-0.035 -0.135,-0.091 -0.209,-0.116 -2.734,-0.933 -2.783,-0.983 -0.69,-2.981 4.192,-4.001 6.608,-9.003 8.05,-14.482 0.788,-2.997 1.168,-6.106 1.657,-9.177 0.583,-3.661 0.835,-7.396 1.689,-10.989 1.089,-4.576 2.229,-9.144 4.231,-13.487 1.642,-3.561 3.417,-6.983 5.879,-10.013 1.091,-1.343 2.457,-2.462 3.797,-3.778 -0.185,1.903 -0.363,3.675 -0.527,5.448 -0.244,2.646 -0.729,5.3 -0.658,7.938 0.098,3.599 0.595,7.163 2.569,10.377 1.519,2.473 3.575,3.618 6.421,3.233 3.589,-0.486 6.771,-1.937 9.385,-4.454 0.906,-0.873 1.547,-2.017 2.348,-3.005 0.883,-1.088 1.2,-1.054 2.217,-0.139 3.684,3.315 5.563,7.675 7.141,12.214 0.934,2.686 1.611,5.448 1.253,8.294 -0.328,2.602 -0.482,5.343 -1.938,7.608 -2.227,3.461 -5.195,6.135 -9.384,6.968 -3.909,0.777 -7.698,0.673 -10.787,-2.42 z"
   id="path3359" />

		</g>

	</g>

</g>
      <g
         id="Ebene_1-9">
</g>
    </g>
    <g
       transform="matrix(0.26458333,0,0,0.26458333,-85.111391,77.782655)"
       id="g3103">
      <g
         id="Mantle2">
	<g
   id="g3085">
		<g
   id="g3083">
			<path
   style="clip-rule:evenodd;fill:none;fill-rule:evenodd"
   d="m 489.076,537.076 c -163.048,0 -326.073,0 -489.076,0 C 0,358.028 0,179.003 0,0 c 163.047,0 326.072,0 489.076,0 0,179.047 0,358.072 0,537.076 z M 120.143,149.777 c 0.711,1.212 1.374,2.196 1.891,3.25 3.373,6.875 6.652,13.797 10.081,20.645 4.109,8.207 8.377,16.334 12.501,24.534 4.732,9.41 9.334,18.885 14.078,28.289 4.745,9.407 9.63,18.743 14.386,28.144 3.376,6.673 6.617,13.416 9.961,20.106 3.281,6.564 6.626,13.096 9.922,19.652 2.726,5.423 5.396,10.874 8.138,16.289 2.595,5.127 5.286,10.206 7.874,15.338 4.13,8.192 8.206,16.413 12.313,24.618 3.309,6.61 6.609,13.225 9.963,19.812 0.57,1.119 0.531,2.033 -0.042,3.141 -2.241,4.326 -4.392,8.698 -6.577,13.054 -1.249,2.489 -2.302,5.104 -3.787,7.444 -3.255,5.133 -5.735,10.656 -8.468,16.052 -2.34,4.622 -4.521,9.324 -6.829,13.963 -2.665,5.358 -5.411,10.677 -8.084,16.03 -2.332,4.669 -4.599,9.369 -6.916,14.045 -2.69,5.429 -5.422,10.838 -8.105,16.271 -2.96,5.995 -5.853,12.024 -8.837,18.008 -2.767,5.548 -5.682,11.022 -8.394,16.597 -0.894,1.836 -1.947,3.33 -3.602,4.604 -5.127,3.95 -6.985,10.901 -4.728,16.838 2.63,6.917 9.649,10.878 16.931,9.554 6.993,-1.271 12.102,-7.476 12.151,-14.918 0.009,-1.332 0.25,-2.492 0.844,-3.657 1.591,-3.123 3.162,-6.257 4.678,-9.417 8.788,-18.315 17.548,-36.644 26.335,-54.959 8.334,-17.372 16.685,-34.736 25.043,-52.097 0.503,-1.045 1.137,-2.027 1.852,-3.288 0.421,0.622 0.667,0.913 0.835,1.243 1.806,3.561 3.661,7.098 5.387,10.696 10.381,21.63 20.722,43.278 31.096,64.91 6.36,13.261 12.731,26.516 19.157,39.743 1.362,2.805 2.343,5.561 2.622,8.78 0.53,6.114 4.12,10.376 9.915,12.357 5.786,1.979 11.106,0.723 15.486,-3.595 6.441,-6.348 5.74,-16.855 -1.494,-22.375 -1.465,-1.118 -2.444,-2.426 -3.22,-4.025 -1.939,-4.003 -3.916,-7.988 -5.92,-11.96 -2.364,-4.688 -4.818,-9.33 -7.151,-14.034 -2.549,-5.14 -4.979,-10.339 -7.506,-15.49 -2.682,-5.472 -5.413,-10.919 -8.126,-16.376 -2.415,-4.855 -4.826,-9.714 -7.255,-14.563 -2.357,-4.706 -4.761,-9.391 -7.098,-14.106 -2.584,-5.215 -5.059,-10.485 -7.688,-15.677 -2.479,-4.894 -5.124,-9.702 -7.651,-14.571 -2.575,-4.961 -5.048,-9.976 -7.67,-14.911 -0.686,-1.289 -0.639,-2.324 -0.015,-3.578 2.269,-4.552 4.39,-9.177 6.693,-13.711 2.854,-5.613 5.885,-11.136 8.743,-16.747 3.225,-6.328 6.332,-12.716 9.51,-19.067 3.464,-6.924 6.941,-13.84 10.428,-20.752 2.624,-5.201 5.291,-10.381 7.9,-15.588 1.857,-3.706 3.659,-7.438 5.471,-11.166 1.146,-2.359 2.207,-4.761 3.406,-7.093 3.208,-6.24 6.515,-12.429 9.701,-18.68 4.928,-9.666 9.791,-19.364 14.676,-29.052 3.918,-7.772 7.828,-15.549 11.741,-23.323 4.055,-8.055 8.137,-16.096 12.154,-24.168 2.418,-4.857 4.72,-9.773 7.111,-14.645 1.041,-2.121 2.178,-4.194 3.324,-6.39 1.123,0.458 1.982,0.81 2.868,1.171 2.456,-4.702 4.872,-9.328 7.464,-14.29 2.079,1.392 3.926,2.475 5.602,3.777 5.474,4.253 9.882,9.504 13.667,15.261 3.518,5.349 6.208,11.133 8.318,17.176 0.894,2.559 1.937,5.106 2.446,7.749 0.771,3.99 1.336,8.044 1.616,12.097 0.348,5.022 0.155,10.051 -1.563,14.891 -0.139,0.389 -0.066,0.854 -0.115,1.68 2.705,-0.892 5.107,-1.697 7.518,-2.477 6.459,-2.09 12.597,-4.962 18.509,-8.226 4.737,-2.615 9.272,-5.642 13.688,-8.779 5.811,-4.126 10.935,-9.077 15.577,-14.473 4.112,-4.78 7.759,-9.894 10.864,-15.425 4.129,-7.356 7.3,-15.057 9.381,-23.215 0.592,-2.319 1.264,-4.64 1.582,-7.002 0.639,-4.734 1.193,-9.487 1.526,-14.251 0.254,-3.639 0.343,-7.322 0.09,-10.957 -0.325,-4.675 -0.912,-9.347 -1.661,-13.976 -1.212,-7.495 -3.003,-14.866 -5.491,-22.052 -0.268,-0.772 -0.701,-1.487 -1.169,-2.458 -1.077,1.408 -1.826,2.549 -2.734,3.545 -3.211,3.522 -6.144,7.402 -9.8,10.389 -5.05,4.124 -10.716,7.402 -16.999,9.555 -5.524,1.894 -11.186,2.809 -16.935,2.555 -7.23,-0.32 -14.208,-2.063 -20.74,-5.312 -1.431,-0.711 -2.872,-1.422 -4.222,-2.271 -1.071,-0.674 -2.21,-1.466 -2.095,-2.975 0.277,-3.643 0.475,-7.3 0.978,-10.914 0.438,-3.152 1.261,-6.251 1.896,-9.376 1.443,-7.104 2.882,-14.209 4.31,-21.317 0.437,-2.173 0.83,-4.355 1.242,-6.533 -2.271,2.014 -4.108,4.193 -5.979,6.344 -4.974,5.718 -9.921,11.461 -14.959,17.122 -3.39,3.808 -6.899,7.51 -10.391,11.226 -1.34,1.426 -2.955,1.759 -4.803,0.964 -4.938,-2.125 -9.576,-4.751 -13.783,-8.113 -4.794,-3.831 -8.651,-8.441 -11.729,-13.757 -2.263,-3.907 -3.902,-8.026 -4.878,-12.414 -1.307,-5.874 -1.959,-11.826 -1.482,-17.836 0.205,-2.59 0.802,-5.154 1.294,-7.716 0.519,-2.699 1.126,-5.38 1.762,-8.389 -1.117,0.21 -1.998,0.241 -2.771,0.544 -4.887,1.919 -9.74,3.923 -14.623,5.853 -5.737,2.268 -11.093,5.284 -16.241,8.618 -6.164,3.993 -11.977,8.464 -17.262,13.614 -7.788,7.587 -14.233,16.141 -19.229,25.796 -3.097,5.986 -5.493,12.255 -7.183,18.758 -1.826,7.032 -2.961,14.178 -3.197,21.483 -0.188,5.836 -0.131,11.639 0.576,17.428 0.891,7.295 2.441,14.458 4.589,21.483 0.785,2.566 1.76,5.074 2.8,8.044 1.127,-1.322 1.933,-2.282 2.756,-3.225 0.629,-0.72 1.247,-1.454 1.928,-2.123 3.793,-3.723 8.172,-6.597 12.863,-9.071 6.91,-3.644 14.21,-6.063 21.847,-7.628 5.274,-1.081 10.58,-1.451 15.945,-1.465 6.628,-0.019 13.005,1.234 19.191,3.533 1.604,0.596 1.732,1.017 0.976,2.527 -1.038,2.07 -2.157,4.1 -3.196,6.17 -1.133,2.259 -2.214,4.544 -3.316,6.815 0.971,0.661 1.735,1.18 2.568,1.747 -2.211,4.333 -4.369,8.502 -6.475,12.698 -5.475,10.911 -10.914,21.84 -16.395,32.748 -3.009,5.987 -6.101,11.932 -9.108,17.92 -3.51,6.988 -6.945,14.015 -10.458,21.002 -3.22,6.405 -6.514,12.772 -9.75,19.169 -4.543,8.981 -9.069,17.97 -13.593,26.961 -4.268,8.484 -8.524,16.975 -12.781,25.465 -3.398,6.779 -6.786,13.564 -10.187,20.342 -2.756,5.492 -5.544,10.967 -8.279,16.468 -2.024,4.073 -3.976,8.183 -5.998,12.256 -0.221,0.445 -0.636,0.977 -1.064,1.097 -0.76,0.214 -1.052,-0.448 -1.306,-1.086 -0.561,-1.407 -1.109,-2.828 -1.79,-4.181 -4.839,-9.624 -9.719,-19.229 -14.57,-28.849 -3.452,-6.844 -6.865,-13.707 -10.321,-20.549 -4.067,-8.051 -8.179,-16.079 -12.242,-24.131 -3.238,-6.417 -6.415,-12.865 -9.653,-19.282 -2.727,-5.405 -5.526,-10.773 -8.251,-16.18 -3.269,-6.485 -6.473,-13.003 -9.739,-19.489 -3.339,-6.628 -6.746,-13.222 -10.077,-19.854 -3.937,-7.838 -7.799,-15.714 -11.737,-23.552 -4.155,-8.27 -8.367,-16.511 -12.538,-24.772 -0.707,-1.401 -1.333,-2.843 -2.011,-4.298 0.903,-0.603 1.672,-1.116 2.56,-1.709 -2.157,-4.253 -4.247,-8.382 -6.344,-12.507 -1.004,-1.975 -0.851,-2.435 1.191,-3.144 3.624,-1.258 7.308,-2.29 11.123,-2.792 7.422,-0.977 14.801,-0.693 22.161,0.655 7.906,1.448 15.473,3.856 22.628,7.555 6.448,3.333 12.348,7.34 16.811,13.187 0.332,0.435 0.574,0.938 0.858,1.41 0.207,-0.096 0.413,-0.192 0.62,-0.289 0.624,-1.699 1.349,-3.37 1.85,-5.105 1.012,-3.51 1.815,-7.082 2.861,-10.582 1.844,-6.166 2.743,-12.515 3.105,-18.875 0.435,-7.627 0.186,-15.261 -1.019,-22.879 -1.104,-6.985 -2.854,-13.745 -5.348,-20.327 -4.325,-11.415 -10.787,-21.506 -19.042,-30.481 -3.627,-3.943 -7.457,-7.657 -11.756,-10.862 -3.327,-2.48 -6.581,-5.084 -10.069,-7.316 -5.237,-3.35 -10.701,-6.336 -16.472,-8.696 -4.788,-1.958 -9.603,-3.849 -14.431,-5.706 -0.669,-0.257 -1.48,-0.149 -2.436,-0.228 0.293,1.125 0.53,1.883 0.686,2.656 0.787,3.891 1.762,7.759 2.278,11.687 0.797,6.059 0.144,12.084 -0.99,18.076 -1.256,6.631 -4.006,12.58 -7.88,18.048 -5.808,8.197 -13.696,13.707 -22.807,17.649 -1.84,0.796 -3.16,0.509 -4.673,-0.96 C 100.548,62.67 95.534,56.777 90.412,50.98 86.352,46.386 82.4,41.696 78.39,37.059 c -1.131,-1.308 -2.299,-2.583 -3.451,-3.873 0.242,3.028 0.833,5.879 1.418,8.732 1.586,7.732 3.216,15.455 4.738,23.2 0.908,4.615 1.538,9.286 2.503,13.887 0.535,2.55 -0.49,4.127 -2.445,5.41 -0.4,0.262 -0.818,0.513 -1.257,0.7 -3.814,1.625 -7.56,3.457 -11.474,4.792 C 63.18,91.695 57.681,92.26 52.155,92.029 47.429,91.832 42.848,90.828 38.353,89.251 32.244,87.108 26.743,83.824 21.841,79.795 17.882,76.541 14.306,72.697 11.365,68.385 10.852,67.633 10.245,66.946 9.417,65.893 7.451,71.22 5.761,76.097 4.778,81.189 3.919,85.64 3.037,90.09 2.356,94.57 c -0.551,3.626 -1.027,7.288 -1.153,10.947 -0.139,4.041 -0.006,8.109 0.311,12.143 0.354,4.519 0.808,9.058 1.654,13.505 1.058,5.558 2.673,10.98 4.716,16.295 2.536,6.598 5.774,12.817 9.706,18.631 2.715,4.014 5.925,7.711 9.094,11.395 4.653,5.41 10.107,9.974 15.897,14.108 5.186,3.703 10.774,6.746 16.452,9.646 5.138,2.625 10.547,4.539 15.946,6.482 1.575,0.567 3.179,1.431 5.284,1.104 -1.82,-4.691 -2.084,-9.437 -2.098,-14.229 -0.014,-4.992 0.689,-9.958 1.973,-14.684 1.938,-7.135 4.624,-14.041 8.374,-20.536 4.247,-7.354 9.439,-13.815 16.065,-19.086 1.62,-1.289 3.229,-2.83 5.594,-3.209 2.436,4.686 4.815,9.262 7.24,13.927 0.865,-0.384 1.647,-0.739 2.732,-1.232 z"
   id="path3079" />

			<path
   style="clip-rule:evenodd;fill-rule:evenodd"
   d="m 120.143,149.777 c -1.085,0.493 -1.867,0.848 -2.725,1.238 -2.425,-4.665 -4.804,-9.241 -7.24,-13.927 -2.366,0.379 -3.974,1.921 -5.594,3.209 -6.626,5.271 -11.819,11.731 -16.065,19.086 -3.75,6.495 -6.436,13.401 -8.374,20.536 -1.284,4.726 -1.986,9.692 -1.973,14.684 0.014,4.792 0.278,9.537 2.098,14.229 -2.105,0.327 -3.709,-0.537 -5.284,-1.104 -5.399,-1.943 -10.808,-3.857 -15.946,-6.482 -5.677,-2.899 -11.266,-5.943 -16.452,-9.646 -5.79,-4.134 -11.244,-8.698 -15.897,-14.108 -3.169,-3.684 -6.379,-7.381 -9.094,-11.395 -3.932,-5.814 -7.17,-12.033 -9.706,-18.631 C 5.848,142.151 4.233,136.729 3.175,131.171 2.329,126.724 1.876,122.185 1.521,117.666 1.205,113.633 1.071,109.564 1.21,105.523 1.336,101.864 1.813,98.202 2.363,94.576 3.044,90.097 3.926,85.646 4.785,81.195 5.768,76.103 7.458,71.226 9.424,65.899 c 0.828,1.052 1.435,1.74 1.948,2.492 2.941,4.312 6.517,8.156 10.476,11.41 4.902,4.029 10.403,7.313 16.512,9.456 4.495,1.577 9.076,2.581 13.802,2.778 5.525,0.23 11.025,-0.334 16.267,-2.122 3.915,-1.335 7.66,-3.168 11.474,-4.792 0.439,-0.187 0.857,-0.438 1.257,-0.7 1.955,-1.283 2.979,-2.86 2.445,-5.41 C 82.64,74.409 82.01,69.739 81.102,65.124 79.58,57.379 77.95,49.656 76.364,41.924 c -0.585,-2.853 -1.176,-5.705 -1.418,-8.732 1.151,1.29 2.32,2.565 3.451,3.873 4.01,4.638 7.962,9.327 12.022,13.921 5.122,5.797 10.136,11.689 15.699,17.092 1.513,1.469 2.833,1.756 4.673,0.96 9.111,-3.942 16.999,-9.452 22.807,-17.649 3.874,-5.468 6.625,-11.417 7.88,-18.048 1.134,-5.992 1.788,-12.018 0.99,-18.076 -0.517,-3.928 -1.491,-7.796 -2.278,-11.687 -0.156,-0.773 -0.393,-1.53 -0.686,-2.656 0.955,0.078 1.766,-0.03 2.436,0.228 4.828,1.857 9.643,3.748 14.431,5.706 5.771,2.36 11.234,5.346 16.472,8.696 3.489,2.232 6.743,4.835 10.069,7.316 4.299,3.205 8.128,6.918 11.756,10.862 8.254,8.975 14.716,19.066 19.042,30.481 2.494,6.582 4.244,13.342 5.348,20.327 1.205,7.618 1.454,15.252 1.019,22.879 -0.362,6.361 -1.262,12.71 -3.105,18.875 -1.046,3.5 -1.849,7.071 -2.861,10.582 -0.5,1.735 -1.226,3.406 -1.85,5.105 -0.207,0.096 -0.414,0.192 -0.62,0.289 -0.284,-0.472 -0.526,-0.975 -0.858,-1.41 -4.463,-5.847 -10.363,-9.854 -16.811,-13.187 -7.155,-3.699 -14.722,-6.107 -22.628,-7.555 -7.36,-1.348 -14.738,-1.632 -22.161,-0.655 -3.815,0.502 -7.499,1.534 -11.123,2.792 -2.042,0.709 -2.196,1.168 -1.191,3.144 2.097,4.125 4.187,8.253 6.344,12.507 -0.888,0.593 -1.657,1.106 -2.56,1.709 0.679,1.456 1.304,2.897 2.011,4.298 4.171,8.262 8.383,16.503 12.538,24.772 3.938,7.838 7.8,15.713 11.737,23.552 3.331,6.632 6.738,13.226 10.077,19.854 3.267,6.486 6.471,13.003 9.739,19.489 2.725,5.406 5.524,10.775 8.251,16.18 3.238,6.417 6.415,12.865 9.653,19.282 4.063,8.052 8.175,16.081 12.242,24.131 3.457,6.842 6.87,13.705 10.321,20.549 4.851,9.619 9.73,19.225 14.57,28.849 0.68,1.353 1.229,2.773 1.79,4.181 0.254,0.638 0.545,1.3 1.306,1.086 0.429,-0.12 0.843,-0.651 1.064,-1.097 2.022,-4.073 3.973,-8.183 5.998,-12.256 2.735,-5.501 5.523,-10.976 8.279,-16.468 3.4,-6.777 6.788,-13.563 10.187,-20.342 4.257,-8.49 8.514,-16.98 12.781,-25.465 4.523,-8.991 9.05,-17.98 13.593,-26.961 3.236,-6.396 6.53,-12.764 9.75,-19.169 3.513,-6.988 6.948,-14.014 10.458,-21.002 3.008,-5.988 6.1,-11.933 9.108,-17.92 5.48,-10.908 10.92,-21.837 16.395,-32.748 2.105,-4.195 4.264,-8.365 6.475,-12.698 -0.833,-0.566 -1.598,-1.086 -2.568,-1.747 1.103,-2.271 2.184,-4.557 3.316,-6.815 1.039,-2.07 2.158,-4.1 3.196,-6.17 0.757,-1.51 0.628,-1.931 -0.976,-2.527 -6.187,-2.299 -12.563,-3.552 -19.191,-3.533 -5.365,0.015 -10.671,0.385 -15.945,1.465 -7.637,1.564 -14.937,3.984 -21.847,7.628 -4.691,2.474 -9.07,5.348 -12.863,9.071 -0.681,0.668 -1.299,1.402 -1.928,2.123 -0.823,0.943 -1.629,1.903 -2.756,3.225 -1.04,-2.97 -2.015,-5.479 -2.8,-8.044 -2.147,-7.025 -3.698,-14.188 -4.589,-21.483 -0.707,-5.789 -0.765,-11.591 -0.576,-17.428 0.236,-7.306 1.371,-14.452 3.197,-21.483 1.689,-6.503 4.086,-12.772 7.183,-18.758 4.995,-9.655 11.44,-18.209 19.229,-25.796 5.285,-5.149 11.098,-9.621 17.262,-13.614 5.148,-3.334 10.504,-6.351 16.241,-8.618 4.883,-1.93 9.736,-3.934 14.623,-5.853 0.772,-0.303 1.653,-0.333 2.771,-0.544 -0.636,3.009 -1.243,5.69 -1.762,8.389 -0.492,2.562 -1.089,5.126 -1.294,7.716 -0.477,6.01 0.176,11.962 1.482,17.836 0.976,4.387 2.615,8.507 4.878,12.414 3.078,5.315 6.936,9.926 11.729,13.757 4.207,3.362 8.846,5.988 13.783,8.113 1.848,0.795 3.463,0.462 4.803,-0.964 3.491,-3.716 7.001,-7.417 10.391,-11.226 5.038,-5.661 9.985,-11.404 14.959,-17.122 1.87,-2.15 3.707,-4.33 5.979,-6.344 -0.412,2.178 -0.806,4.36 -1.242,6.533 -1.428,7.108 -2.866,14.212 -4.31,21.317 -0.636,3.125 -1.458,6.224 -1.896,9.376 -0.503,3.614 -0.7,7.271 -0.978,10.914 -0.115,1.509 1.023,2.301 2.095,2.975 1.35,0.849 2.791,1.559 4.222,2.271 6.532,3.249 13.51,4.992 20.74,5.312 5.749,0.254 11.41,-0.661 16.935,-2.555 6.283,-2.153 11.949,-5.431 16.999,-9.555 3.656,-2.987 6.589,-6.867 9.8,-10.389 0.908,-0.997 1.657,-2.138 2.734,-3.545 0.468,0.971 0.901,1.686 1.169,2.458 2.488,7.186 4.279,14.557 5.491,22.052 0.749,4.629 1.336,9.3 1.661,13.976 0.253,3.635 0.164,7.318 -0.09,10.957 -0.333,4.764 -0.888,9.517 -1.526,14.251 -0.318,2.362 -0.99,4.683 -1.582,7.002 -2.081,8.159 -5.252,15.859 -9.381,23.215 -3.105,5.532 -6.752,10.646 -10.864,15.425 -4.643,5.396 -9.767,10.347 -15.577,14.473 -4.416,3.137 -8.951,6.164 -13.688,8.779 -5.912,3.264 -12.05,6.135 -18.509,8.226 -2.41,0.78 -4.813,1.585 -7.518,2.477 0.049,-0.827 -0.023,-1.291 0.115,-1.68 1.719,-4.84 1.911,-9.869 1.563,-14.891 -0.28,-4.053 -0.846,-8.107 -1.616,-12.097 -0.51,-2.642 -1.553,-5.189 -2.446,-7.749 -2.11,-6.043 -4.801,-11.827 -8.318,-17.176 -3.785,-5.757 -8.193,-11.008 -13.667,-15.261 -1.676,-1.302 -3.522,-2.385 -5.602,-3.777 -2.592,4.961 -5.008,9.587 -7.464,14.29 -0.886,-0.362 -1.745,-0.713 -2.868,-1.171 -1.146,2.196 -2.283,4.27 -3.324,6.39 -2.392,4.871 -4.693,9.787 -7.111,14.645 -4.018,8.073 -8.1,16.114 -12.154,24.168 -3.913,7.774 -7.823,15.551 -11.741,23.323 -4.885,9.688 -9.748,19.386 -14.676,29.052 -3.187,6.251 -6.493,12.44 -9.701,18.68 -1.199,2.332 -2.26,4.733 -3.406,7.093 -1.812,3.728 -3.613,7.46 -5.471,11.166 -2.609,5.207 -5.276,10.387 -7.9,15.588 -3.486,6.912 -6.964,13.828 -10.428,20.752 -3.178,6.352 -6.285,12.739 -9.51,19.067 -2.858,5.611 -5.89,11.134 -8.743,16.747 -2.304,4.534 -4.425,9.159 -6.693,13.711 -0.624,1.254 -0.671,2.289 0.015,3.578 2.622,4.936 5.095,9.95 7.67,14.911 2.527,4.869 5.172,9.678 7.651,14.571 2.63,5.191 5.104,10.462 7.688,15.677 2.337,4.716 4.74,9.4 7.098,14.106 2.429,4.85 4.84,9.708 7.255,14.563 2.713,5.457 5.444,10.904 8.126,16.376 2.526,5.151 4.957,10.351 7.506,15.49 2.333,4.704 4.787,9.347 7.151,14.034 2.004,3.972 3.98,7.957 5.92,11.96 0.775,1.6 1.755,2.907 3.22,4.025 7.234,5.52 7.936,16.027 1.494,22.375 -4.38,4.317 -9.7,5.573 -15.486,3.595 -5.795,-1.981 -9.385,-6.243 -9.915,-12.357 -0.279,-3.22 -1.26,-5.976 -2.622,-8.78 -6.426,-13.228 -12.797,-26.482 -19.157,-39.743 -10.374,-21.632 -20.715,-43.28 -31.096,-64.91 -1.727,-3.599 -3.581,-7.136 -5.387,-10.696 -0.167,-0.33 -0.414,-0.621 -0.835,-1.243 -0.714,1.261 -1.348,2.243 -1.852,3.288 -8.358,17.36 -16.709,34.725 -25.043,52.097 -8.787,18.315 -17.547,36.644 -26.335,54.959 -1.516,3.16 -3.087,6.294 -4.678,9.417 -0.594,1.165 -0.835,2.325 -0.844,3.657 -0.049,7.442 -5.158,13.647 -12.151,14.918 -7.282,1.324 -14.301,-2.637 -16.931,-9.554 -2.257,-5.937 -0.399,-12.888 4.728,-16.838 1.654,-1.274 2.708,-2.769 3.602,-4.604 2.712,-5.574 5.626,-11.049 8.394,-16.597 2.984,-5.983 5.876,-12.013 8.837,-18.008 2.683,-5.433 5.415,-10.842 8.105,-16.271 2.317,-4.676 4.584,-9.376 6.916,-14.045 2.673,-5.354 5.419,-10.672 8.084,-16.03 2.307,-4.639 4.488,-9.341 6.829,-13.963 2.732,-5.396 5.212,-10.919 8.468,-16.052 1.484,-2.341 2.538,-4.955 3.787,-7.444 2.185,-4.355 4.336,-8.728 6.577,-13.054 0.574,-1.107 0.613,-2.021 0.042,-3.141 -3.354,-6.587 -6.655,-13.201 -9.963,-19.812 -4.107,-8.205 -8.183,-16.426 -12.313,-24.618 -2.587,-5.132 -5.278,-10.211 -7.874,-15.338 -2.742,-5.415 -5.412,-10.866 -8.138,-16.289 -3.296,-6.557 -6.641,-13.088 -9.922,-19.652 -3.344,-6.69 -6.585,-13.433 -9.961,-20.106 -4.756,-9.401 -9.641,-18.737 -14.386,-28.144 -4.743,-9.404 -9.346,-18.879 -14.078,-28.289 -4.124,-8.2 -8.392,-16.327 -12.501,-24.534 -3.428,-6.848 -6.708,-13.77 -10.081,-20.645 -0.524,-1.06 -1.187,-2.044 -1.898,-3.256 z"
   id="path3081" />

		</g>

	</g>

</g>
      <g
         id="Ebene_1">
</g>
    </g>
    <g
       transform="matrix(0.34397963,0,0,0.34397963,-64.057749,79.139451)"
       id="g3313">
      <g
         id="Mantle1">
	<g
   id="g3289">
		<g
   id="g3287">
			<path
   style="clip-rule:evenodd;fill:none;fill-rule:evenodd"
   d="M 0,108.24 C 0,72.16 0,36.08 0,0 c 77.28,0 154.56,0 231.84,0 -0.225,0.072 -0.444,0.174 -0.675,0.211 -9.166,1.476 -15.316,9.837 -14.007,19.05 1.155,8.127 8.203,14.28 16.422,14.336 8.276,0.057 15.55,-6.017 16.739,-13.979 C 251.594,11.076 246.733,3.174 238.687,0.743 237.7,0.445 236.682,0.245 235.679,0 c 6.159,0 12.318,0 18.479,0 0,136.462 0,272.925 0,409.414 -84.691,0 -169.383,0 -254.159,0 C 0,310.08 0,210.72 0,111.36 c 0.701,2.085 1.511,4.104 3.201,5.63 5.679,5.128 14.694,2.289 16.668,-5.226 0.13,-0.496 0.545,-1.05 0.985,-1.307 2.449,-1.43 5.062,-2.606 7.4,-4.191 3.598,-2.44 7.461,-3.217 11.756,-3.154 7.488,0.11 14.967,0.156 22.269,2.04 2.52,0.65 4.94,1.687 7.43,2.556 1.205,-3.062 2.423,-6.268 3.725,-9.44 3.079,-7.505 6.357,-14.916 10.578,-21.873 0.662,-1.091 1.476,-1.897 2.616,-2.511 4.221,-2.271 8.411,-4.602 12.576,-6.976 0.992,-0.565 1.911,-0.752 3.046,-0.576 4.217,0.657 8.679,-1.975 10.448,-6.061 1.765,-4.077 0.598,-8.876 -2.822,-11.605 -6.086,-4.857 -15.155,-1.296 -16.321,6.414 -0.125,0.826 -0.228,1.494 -1.148,2.003 -25.73,14.231 -51.436,28.505 -77.134,42.793 -0.724,0.403 -1.325,0.466 -2.124,0.22 C 7.532,98.367 1.751,101.64 0.276,107.332 0.198,107.638 0.093,107.938 0,108.24 Z m 126.949,134.524 c 0.315,0.526 0.526,0.861 0.721,1.206 15.766,27.85 31.514,55.709 47.305,83.544 5.244,9.243 10.289,18.618 15.961,27.594 12.312,19.478 27.266,36.886 43.092,53.564 0.175,0.184 0.387,0.332 0.773,0.659 0,-0.713 0.047,-1.185 -0.007,-1.645 -0.454,-3.884 -0.696,-7.811 -1.437,-11.641 -2.006,-10.382 -5.44,-20.354 -9.179,-30.22 -4.146,-10.945 -8.407,-21.875 -13.911,-32.203 -21.549,-40.436 -43.299,-80.765 -64.996,-121.121 -0.448,-0.834 -0.439,-1.443 0.028,-2.269 19.27,-33.992 38.515,-67.999 57.762,-102.003 0.241,-0.426 0.47,-0.858 0.81,-1.48 -7.167,1.292 -14.083,2.521 -20.988,3.803 -1.021,0.189 -1.578,0.036 -2.03,-1.006 -2.09,-4.822 -4.271,-9.604 -6.422,-14.399 -0.398,-0.889 -0.811,-1.771 -1.295,-2.826 -15.424,28.72 -30.755,57.268 -46.188,86.004 -15.456,-28.782 -30.779,-57.316 -46.181,-85.996 -0.251,0.532 -0.433,0.916 -0.614,1.299 -2.428,5.148 -4.901,10.275 -7.254,15.457 -0.625,1.375 -1.567,1.471 -2.765,1.26 -3.737,-0.661 -7.471,-1.337 -11.208,-2.001 -2.897,-0.515 -5.797,-1.02 -8.872,-1.56 0.293,0.549 0.49,0.936 0.703,1.312 19.267,34.04 38.53,68.082 57.826,102.104 0.504,0.89 0.468,1.5 0,2.369 -15.861,29.48 -31.694,58.975 -47.53,88.469 -6.009,11.191 -12.31,22.239 -17.951,33.614 -7.279,14.676 -13.406,29.867 -18.384,45.495 -2.451,7.697 -4.564,15.48 -5.398,23.549 -0.187,1.806 -0.198,3.63 -0.29,5.445 0.143,0.07 0.286,0.141 0.43,0.211 0.342,-0.438 0.664,-0.894 1.03,-1.311 7.708,-8.77 15.595,-17.388 23.085,-26.339 8.756,-10.463 16.808,-21.481 23.558,-33.37 19.727,-34.743 39.378,-69.528 59.061,-104.297 0.213,-0.372 0.439,-0.738 0.755,-1.271 z m 57.305,-135.153 c 2.818,-0.919 5.562,-2.05 8.414,-2.7 9.008,-2.055 18.161,-1.996 27.323,-1.484 0.411,0.023 0.836,0.235 1.21,0.441 3.954,2.177 7.908,4.352 11.83,6.584 0.442,0.251 0.861,0.809 0.99,1.303 1.387,5.305 6.57,8.696 11.777,7.643 5.681,-1.149 9.144,-6.458 7.832,-12.008 -1.309,-5.54 -7.113,-8.977 -12.587,-7.36 -1.067,0.315 -1.854,0.165 -2.783,-0.352 -25.409,-14.132 -50.829,-28.245 -76.268,-42.324 -1.048,-0.58 -1.539,-1.212 -1.693,-2.419 -0.607,-4.733 -4.808,-8.318 -9.734,-8.454 -4.848,-0.133 -8.983,3.112 -9.971,7.826 -1.416,6.755 4.462,13.008 11.305,11.99 0.916,-0.136 1.68,-0.018 2.495,0.443 4.45,2.514 8.942,4.958 13.387,7.481 0.658,0.374 1.335,0.947 1.682,1.599 2.68,5.036 5.464,10.029 7.856,15.202 2.543,5.498 4.693,11.178 6.935,16.589 z M 2.642,17.194 c -0.031,9.272 7.45,16.843 16.683,16.885 9.278,0.042 16.863,-7.427 16.914,-16.653 C 36.29,8.091 28.791,0.5 19.496,0.481 10.228,0.461 2.672,7.954 2.642,17.194 Z M 215.778,28.4 c -7.474,13.464 -14.863,26.775 -22.29,40.153 5.908,3.279 11.688,6.487 17.523,9.726 7.455,-13.429 14.847,-26.744 22.298,-40.168 -7.938,0.476 -13.692,-2.695 -17.531,-9.711 z M 20.748,38.399 C 28.171,51.771 35.519,65.005 42.89,78.283 48.809,74.993 54.581,71.785 60.408,68.547 52.915,55.05 45.511,41.715 38.056,28.286 34.465,35.341 28.765,38.682 20.748,38.399 Z"
   id="path3271" />

			<path
   style="clip-rule:evenodd;fill-rule:evenodd"
   d="m 0,108.24 c 0.093,-0.302 0.197,-0.602 0.276,-0.908 1.475,-5.691 7.255,-8.965 12.873,-7.236 0.798,0.246 1.399,0.183 2.124,-0.22 25.698,-14.288 51.404,-28.563 77.134,-42.793 0.921,-0.509 1.023,-1.177 1.148,-2.003 1.167,-7.71 10.235,-11.271 16.321,-6.414 3.42,2.729 4.587,7.528 2.822,11.605 -1.769,4.086 -6.231,6.717 -10.448,6.061 -1.135,-0.177 -2.054,0.01 -3.046,0.576 -4.165,2.375 -8.354,4.705 -12.576,6.976 -1.141,0.614 -1.954,1.42 -2.616,2.511 -4.22,6.957 -7.499,14.367 -10.578,21.873 -1.301,3.173 -2.52,6.379 -3.725,9.44 -2.49,-0.869 -4.91,-1.906 -7.43,-2.556 -7.302,-1.884 -14.781,-1.93 -22.269,-2.04 -4.295,-0.063 -8.158,0.713 -11.756,3.154 -2.338,1.585 -4.952,2.761 -7.4,4.191 -0.44,0.257 -0.855,0.811 -0.985,1.307 -1.975,7.514 -10.989,10.354 -16.668,5.226 -1.69,-1.526 -2.5,-3.545 -3.201,-5.63 0,-1.04 0,-2.08 0,-3.12 z"
   id="path3273" />

			<path
   style="clip-rule:evenodd;fill-rule:evenodd"
   d="m 235.681,0 c 1.003,0.245 2.021,0.445 3.008,0.743 8.046,2.432 12.907,10.334 11.632,18.875 -1.189,7.962 -8.463,14.036 -16.739,13.979 -8.219,-0.057 -15.267,-6.209 -16.422,-14.336 -1.31,-9.213 4.841,-17.575 14.007,-19.05 0.23,-0.037 0.45,-0.139 0.675,-0.211 1.278,0 2.558,0 3.839,0 z"
   id="path3275" />

			<path
   style="clip-rule:evenodd;fill-rule:evenodd"
   d="m 126.949,242.764 c -0.316,0.533 -0.542,0.899 -0.754,1.273 -19.682,34.769 -39.333,69.554 -59.061,104.297 -6.75,11.889 -14.801,22.907 -23.558,33.37 -7.491,8.951 -15.378,17.569 -23.085,26.339 -0.366,0.417 -0.688,0.873 -1.03,1.311 -0.144,-0.07 -0.287,-0.141 -0.43,-0.211 0.092,-1.815 0.103,-3.64 0.29,-5.445 0.834,-8.068 2.947,-15.852 5.398,-23.549 4.978,-15.628 11.105,-30.819 18.384,-45.495 5.641,-11.375 11.941,-22.423 17.951,-33.614 15.836,-29.494 31.668,-58.988 47.53,-88.469 0.467,-0.869 0.504,-1.479 0,-2.369 -19.296,-34.023 -38.56,-68.064 -57.826,-102.104 -0.213,-0.376 -0.409,-0.763 -0.703,-1.312 3.075,0.541 5.975,1.045 8.872,1.56 3.736,0.664 7.471,1.34 11.208,2.001 1.198,0.211 2.14,0.115 2.765,-1.26 2.354,-5.181 4.826,-10.309 7.254,-15.457 0.181,-0.383 0.363,-0.767 0.614,-1.299 15.401,28.68 30.725,57.214 46.181,85.996 15.433,-28.736 30.764,-57.285 46.188,-86.004 0.484,1.055 0.896,1.937 1.295,2.826 2.151,4.795 4.332,9.577 6.422,14.399 0.452,1.042 1.009,1.196 2.03,1.006 6.905,-1.282 13.821,-2.511 20.988,-3.803 -0.34,0.622 -0.568,1.054 -0.81,1.48 -19.247,34.004 -38.492,68.011 -57.762,102.003 -0.468,0.825 -0.477,1.435 -0.028,2.269 21.697,40.356 43.447,80.686 64.996,121.121 5.504,10.328 9.765,21.258 13.911,32.203 3.738,9.866 7.173,19.838 9.179,30.22 0.74,3.83 0.982,7.757 1.437,11.641 0.054,0.46 0.007,0.932 0.007,1.645 -0.387,-0.327 -0.599,-0.476 -0.773,-0.659 -15.826,-16.679 -30.78,-34.087 -43.092,-53.564 -5.672,-8.976 -10.717,-18.351 -15.961,-27.594 -15.791,-27.835 -31.539,-55.694 -47.305,-83.544 -0.196,-0.347 -0.407,-0.682 -0.722,-1.208 z"
   id="path3277" />

			<path
   style="clip-rule:evenodd;fill-rule:evenodd"
   d="m 184.254,107.611 c -2.242,-5.411 -4.392,-11.091 -6.935,-16.589 -2.393,-5.173 -5.177,-10.166 -7.856,-15.202 -0.347,-0.652 -1.023,-1.226 -1.682,-1.599 -4.444,-2.524 -8.937,-4.967 -13.387,-7.481 -0.815,-0.461 -1.579,-0.58 -2.495,-0.443 -6.843,1.018 -12.721,-5.235 -11.305,-11.99 0.987,-4.713 5.123,-7.958 9.971,-7.826 4.927,0.135 9.127,3.721 9.734,8.454 0.154,1.207 0.646,1.84 1.693,2.419 25.438,14.079 50.858,28.192 76.268,42.324 0.93,0.517 1.716,0.667 2.783,0.352 5.474,-1.617 11.278,1.821 12.587,7.36 1.312,5.55 -2.151,10.858 -7.832,12.008 -5.207,1.053 -10.391,-2.337 -11.777,-7.643 -0.129,-0.494 -0.548,-1.051 -0.99,-1.303 -3.922,-2.232 -7.876,-4.407 -11.83,-6.584 -0.374,-0.206 -0.799,-0.418 -1.21,-0.441 -9.162,-0.512 -18.315,-0.57 -27.323,1.484 -2.853,0.651 -5.596,1.781 -8.414,2.7 z"
   id="path3279" />

			<path
   style="clip-rule:evenodd;fill-rule:evenodd"
   d="M 2.642,17.194 C 2.672,7.953 10.228,0.461 19.496,0.481 28.79,0.501 36.29,8.091 36.239,17.426 36.188,26.653 28.603,34.121 19.325,34.079 10.091,34.037 2.611,26.466 2.642,17.194 Z"
   id="path3281" />

			<path
   style="clip-rule:evenodd;fill-rule:evenodd"
   d="m 215.778,28.4 c 3.839,7.016 9.593,10.188 17.531,9.711 -7.451,13.424 -14.843,26.739 -22.298,40.168 -5.836,-3.239 -11.615,-6.447 -17.523,-9.726 7.427,-13.378 14.817,-26.689 22.29,-40.153 z"
   id="path3283" />

			<path
   style="clip-rule:evenodd;fill-rule:evenodd"
   d="M 20.748,38.399 C 28.765,38.682 34.466,35.341 38.056,28.286 45.512,41.715 52.915,55.05 60.408,68.547 54.582,71.785 48.81,74.993 42.89,78.283 35.518,65.005 28.171,51.771 20.748,38.399 Z"
   id="path3285" />

		</g>

	</g>

</g>
      <g
         id="Ebene_1-1">
</g>
    </g>
    <g
       transform="matrix(0.40153619,0,0,0.40153619,-354.21142,61.585609)"
       id="g3456">
      <g
         id="g3433">
		<g
   transform="translate(-828.3663,114.84169)"
   id="g3431">
			<path
   id="path3417"
   d="m 0,0 c 156.64,0 313.279,0 469.92,0 0,106.8 0,213.6 0,320.399 -156.641,0 -313.28,0 -469.92,0 C 0,213.6 0,106.8 0,0 Z m 77.492,176.637 c -1.005,2.304 -1.839,4.599 -2.971,6.735 -2.999,5.662 -7.502,9.677 -13.596,11.804 -2.208,0.771 -4.316,0.424 -6.335,-0.721 -1.874,-1.062 -2.821,-2.825 -3.635,-4.824 -5.721,7.046 -12.479,12.03 -21.912,12.233 0.423,2.514 0.748,4.936 1.248,7.319 1.612,7.686 3.909,15.158 7.206,22.3 2.471,5.354 5.917,10.093 9.74,14.514 4.116,4.759 8.939,8.789 14.154,12.331 5.746,3.901 11.556,7.715 17.199,11.759 2.894,2.074 5.568,4.479 8.191,6.896 2.578,2.375 5.257,4.732 7.371,7.496 3.466,4.531 6.674,9.284 9.684,14.135 2.45,3.948 4.395,8.206 6.667,12.27 1.479,2.646 2.971,5.318 4.774,7.742 1.777,2.39 5.076,1.958 6.908,-0.433 2.233,-2.916 2.963,-6.284 3.009,-9.771 0.031,-2.357 -0.479,-4.737 -0.893,-7.081 -0.734,-4.163 -1.656,-8.246 -3.483,-12.143 -2.686,-5.727 -5.811,-11.139 -9.604,-16.207 -3.562,-4.76 -7.366,-9.276 -11.604,-13.451 -3.984,-3.924 -7.952,-7.877 -11.702,-12.021 -3.69,-4.077 -7.327,-8.189 -11.4,-11.895 -0.478,-0.435 -0.854,-0.981 -1.277,-1.476 0.083,-0.083 0.165,-0.167 0.247,-0.25 1.262,1.057 2.535,2.101 3.784,3.173 2.866,2.46 5.703,4.954 8.583,7.396 2.914,2.472 6.014,4.742 8.772,7.374 6.836,6.52 13.379,13.317 18.936,21.009 3.165,4.381 6.009,8.934 7.905,14.003 0.911,2.437 1.45,5.009 2.26,7.485 1.037,3.172 2.166,6.314 3.278,9.462 0.811,2.295 1.57,4.614 2.512,6.855 1.294,3.079 4.974,4.281 7.831,1.707 0.738,-0.665 1.319,-1.592 1.74,-2.506 1.724,-3.737 1.865,-7.815 2.125,-11.806 0.193,-2.951 -0.391,-5.944 -0.37,-8.917 0.028,-3.802 -1.256,-7.235 -2.638,-10.639 -2.171,-5.349 -5.361,-10.135 -8.42,-15.006 -4.47,-7.118 -9.933,-13.385 -15.865,-19.272 -2.49,-2.472 -5.131,-4.79 -7.664,-7.22 -2.996,-2.873 -5.956,-5.784 -8.914,-8.696 -0.535,-0.527 -0.984,-1.142 -1.474,-1.715 0.079,-0.067 0.157,-0.135 0.235,-0.202 0.451,0.302 0.887,0.627 1.354,0.901 5.191,3.049 9.389,7.344 13.847,11.276 4.126,3.64 7.887,7.701 11.723,11.66 1.766,1.823 3.499,3.727 4.945,5.804 3.164,4.542 6.164,9.198 9.177,13.844 3.534,5.449 5.85,11.411 7.264,17.734 0.879,3.93 2.474,7.478 5.455,10.292 1.791,1.691 4.892,2.769 6.928,1.296 2.016,-1.457 3.244,-3.48 3.655,-5.881 0.653,-3.808 0.148,-7.604 -0.48,-11.375 -0.47,-2.816 -1.322,-5.509 -2.841,-7.942 -2.854,-4.575 -6.165,-8.74 -10.27,-12.313 -3.454,-3.007 -6.6,-6.367 -9.895,-9.558 -4.654,-4.507 -9.309,-9.014 -13.985,-13.497 -2.123,-2.035 -4.298,-4.014 -6.449,-6.019 -0.723,-0.673 -1.447,-1.346 -2.171,-2.019 0.095,-0.125 0.19,-0.251 0.285,-0.376 1.742,1.116 3.624,2.065 5.201,3.379 4.74,3.949 9.421,7.974 14.01,12.096 4.095,3.679 8.048,7.515 12.043,11.304 3.766,3.57 7.415,7.27 11.296,10.708 1.624,1.438 3.691,2.392 5.607,3.478 0.899,0.51 1.759,0.193 2.47,-0.557 1.129,-1.192 2.001,-2.451 2.318,-4.162 0.446,-2.405 0.49,-4.753 -0.413,-7.012 -2.044,-5.112 -5.262,-9.354 -9.785,-12.544 -1.474,-1.039 -2.841,-2.251 -4.733,-2.59 -4.775,-0.855 -9.182,-2.744 -13.261,-5.293 -3.042,-1.899 -5.929,-4.063 -8.776,-6.253 -1.65,-1.271 -3.083,-2.823 -4.615,-4.248 0.061,-0.083 0.121,-0.165 0.182,-0.248 0.463,0.263 0.95,0.49 1.385,0.793 1.857,1.291 3.591,2.804 5.567,3.873 6.734,3.644 13.733,6.714 21.232,8.401 2.569,0.577 5.312,1.168 7.778,-0.631 0.767,-0.56 1.611,-1.013 2.372,-1.579 2.055,-1.532 3.027,-5.416 1.669,-7.459 -1,-1.504 -2.178,-3.023 -3.614,-4.073 -2.482,-1.813 -5.18,-3.352 -7.875,-4.845 -2.895,-1.604 -6.005,-2.84 -8.814,-4.572 -3.219,-1.985 -6.265,-4.269 -9.283,-6.559 -1.854,-1.407 -3.515,-3.07 -5.158,-4.526 1.604,-0.075 3.227,-0.064 4.828,-0.244 2.617,-0.296 4.101,-2.081 4.099,-4.704 -0.001,-1.987 -0.891,-3.674 -2.122,-5.054 -2.106,-2.361 -4.482,-4.479 -6.668,-6.772 -3.518,-3.692 -7.03,-7.395 -10.438,-11.188 -2.731,-3.038 -5.323,-6.203 -7.942,-9.34 -2.337,-2.799 -4.65,-5.618 -6.928,-8.466 -1.198,-1.498 -2.296,-3.074 -3.526,-4.731 -3.12,4.882 -6.677,8.799 -12.75,7.991 -0.627,2.525 -1.052,4.928 -1.826,7.212 -1.836,5.433 -7.471,7.581 -12.674,4.842 z m 275.705,53.518 c 0.122,0.137 0.244,0.273 0.366,0.41 -0.219,0.251 -0.415,0.527 -0.662,0.747 -0.855,0.764 -1.759,1.476 -2.589,2.267 -3.387,3.228 -6.748,6.482 -10.129,9.717 -2.793,2.673 -5.617,5.313 -8.396,8 -2.322,2.244 -4.602,4.531 -6.896,6.802 -3.707,3.668 -7.883,6.863 -10.921,11.203 -2.204,3.146 -4.553,6.231 -5.477,10.015 -0.949,3.89 -1.459,7.877 -1.271,11.905 0.12,2.574 0.84,4.892 2.691,6.865 2.192,2.338 4.299,2.281 6.821,0.776 3.215,-1.916 4.864,-5.148 6.03,-8.536 1.401,-4.074 2.262,-8.35 3.838,-12.348 2.229,-5.65 5.417,-10.837 8.947,-15.78 2.534,-3.548 4.894,-7.297 7.89,-10.422 5.186,-5.407 10.256,-10.956 16.068,-15.747 3.645,-3.003 6.929,-6.449 11.101,-8.785 0.435,-0.243 0.826,-0.562 1.238,-0.845 -0.163,0.65 -0.473,1.114 -0.863,1.496 -1.938,1.896 -3.885,3.784 -5.854,5.647 -2.491,2.357 -5.042,4.652 -7.501,7.042 -2.034,1.977 -4.021,4.009 -5.943,6.093 -2.803,3.038 -5.813,5.941 -8.224,9.271 -3.733,5.157 -7.138,10.563 -10.492,15.981 -4.149,6.7 -6.367,14.041 -6.29,21.955 0.035,3.644 0.316,7.299 0.754,10.917 0.222,1.836 0.84,3.691 1.624,5.378 1.597,3.435 4.071,4.088 6.595,3.226 1.934,-0.661 2.788,-2.401 3.435,-4.163 0.934,-2.542 1.721,-5.137 2.604,-7.697 1.025,-2.971 2.41,-5.859 3.067,-8.907 1.391,-6.445 4.231,-12.192 8.011,-17.455 3.328,-4.636 6.604,-9.345 10.721,-13.371 3.908,-3.822 7.593,-7.884 11.643,-11.546 5.34,-4.826 10.936,-9.37 16.43,-14.023 0.946,-0.801 1.939,-1.546 2.912,-2.315 0.079,0.086 0.158,0.173 0.238,0.259 -0.589,0.62 -1.159,1.259 -1.77,1.857 -1.847,1.813 -3.775,3.547 -5.551,5.427 -4.215,4.466 -8.324,9.033 -12.546,13.493 -2.826,2.986 -5.886,5.758 -8.639,8.808 -4.653,5.156 -8.888,10.637 -12.492,16.609 -2.404,3.986 -4.47,8.121 -6.093,12.457 -0.825,2.203 -1.292,4.564 -1.693,6.894 -0.603,3.502 -1.67,6.929 -1.105,10.612 0.453,2.958 1.232,5.701 3.063,8.06 1.877,2.418 5.318,2.295 6.737,0.323 1.034,-1.437 2.116,-2.859 2.962,-4.407 2.535,-4.644 4.848,-9.413 7.462,-14.011 5.015,-8.816 10.675,-17.169 18.54,-23.763 3.364,-2.819 6.755,-5.626 10.306,-8.201 5.877,-4.262 11.869,-8.365 17.857,-12.469 4.904,-3.36 9,-7.552 12.75,-12.108 4.652,-5.652 8.109,-11.969 10.654,-18.837 2.061,-5.56 3.476,-11.277 4.713,-17.051 0.419,-1.954 0.663,-3.945 1.003,-6.018 -9.453,-0.208 -16.205,-5.203 -21.887,-12.205 -0.319,0.661 -0.571,1.235 -0.866,1.786 -1.743,3.261 -5.141,4.83 -8.687,3.84 -1.524,-0.426 -3.047,-1.047 -4.399,-1.862 -5.192,-3.129 -9.02,-7.437 -11.036,-13.248 -0.414,-1.192 -1.028,-2.314 -1.552,-3.472 -5.764,2.938 -11.324,0.073 -13.03,-5.829 -0.592,-2.048 -0.945,-4.165 -1.421,-6.313 -6.229,0.797 -9.721,-3.16 -12.797,-7.912 -0.293,0.361 -0.518,0.627 -0.731,0.903 -2.621,3.373 -5.177,6.799 -7.878,10.106 -2.511,3.074 -5.162,6.033 -7.776,9.021 -2.985,3.411 -5.901,6.891 -9.027,10.168 -2.583,2.709 -5.491,5.104 -8.132,7.761 -1.704,1.714 -3.267,3.648 -3.868,6.047 -0.724,2.891 -0.047,4.876 2.867,5.919 0.952,0.341 2.013,0.449 3.034,0.51 0.95,0.057 1.913,-0.091 3.008,-0.158 -1.126,0.992 -2.113,1.903 -3.145,2.763 -2.07,1.725 -4.125,3.473 -6.258,5.117 -4.44,3.423 -9.604,5.577 -14.518,8.173 -3.569,1.885 -7.154,3.72 -9.819,6.965 -2.148,2.614 -2.424,6.403 -0.128,8.62 2.662,2.57 5.743,3.794 9.592,3.032 4.543,-0.898 8.842,-2.457 13.074,-4.241 4.304,-1.814 8.657,-3.54 12.355,-6.528 1.201,-0.971 2.554,-1.755 3.838,-2.625 0.061,0.084 0.122,0.169 0.184,0.253 -0.205,0.23 -0.386,0.487 -0.617,0.688 -2.43,2.111 -4.753,4.369 -7.329,6.286 -5.626,4.184 -11.683,7.547 -18.677,8.931 -0.912,0.181 -1.873,0.503 -2.627,1.026 -3.234,2.244 -6.33,4.666 -8.568,7.986 -1.542,2.288 -2.92,4.641 -3.675,7.35 -0.659,2.367 -0.342,4.672 0.225,6.921 0.833,3.315 3.302,4.278 6.299,2.787 2.105,-1.048 3.774,-2.606 5.452,-4.19 4.352,-4.109 8.742,-8.178 13.091,-12.289 2.987,-2.824 5.862,-5.77 8.912,-8.522 4.138,-3.734 8.34,-7.404 12.628,-10.965 1.93,-1.608 4.135,-2.883 6.215,-4.307 z m 73.512,-122.778 c 2.238,2.084 4.319,4.229 6.617,6.111 3.354,2.748 6.659,5.624 11.365,5.909 3.679,0.223 7.306,0.492 10.648,-1.518 2.159,-1.298 3.828,-3.085 4.458,-5.494 0.943,-3.607 -1.803,-7.199 -5.006,-8.484 -1.316,-0.528 -2.709,-0.952 -3.9,-1.69 -3.552,-2.199 -5.759,-5.65 -7.774,-9.144 -1.711,-2.965 -3.056,-6.145 -4.491,-9.262 -1.122,-2.439 -2.252,-4.887 -3.167,-7.407 -1.071,-2.95 -1.808,-6.021 -2.88,-8.971 -1.853,-5.099 -3.793,-10.168 -5.809,-15.205 -1.597,-3.988 -3.506,-7.854 -5.011,-11.873 -1.725,-4.605 -3.748,-9.028 -6.37,-13.194 -1.494,-2.374 -2.61,-5.003 -4.241,-7.27 -2.102,-2.921 -4.579,-5.57 -6.84,-8.38 -3.141,-3.903 -6.303,-7.764 -10.961,-10.001 -0.662,-0.318 -1.265,-0.928 -1.944,-1.015 -1.646,-0.209 -3.329,-0.314 -4.986,-0.234 -2.7,0.129 -5.005,1.421 -6.364,3.647 -2.963,4.851 -4.439,10.198 -4.46,15.93 -0.021,5.581 0.196,11.131 0.887,16.686 0.544,4.372 0.732,8.812 0.731,13.222 -0.002,4.49 -0.354,8.986 -0.695,13.468 -0.227,2.978 -1.537,5.498 -4.063,7.198 -1.53,1.03 -3.123,1.877 -5.076,2.126 -4.424,0.564 -8.487,-0.268 -11.996,-2.951 -3.667,-2.804 -7.212,-5.78 -10.08,-9.474 -0.423,-0.545 -1.419,-1.075 -2.027,-0.96 -1.438,0.271 -3.065,0.553 -3.718,2.202 -0.458,1.158 -0.908,2.343 -1.14,3.559 -0.294,1.544 -0.271,3.148 -0.548,4.697 -0.57,3.208 -1.467,6.375 -1.823,9.603 -0.41,3.706 -0.517,7.462 -0.496,11.195 0.017,2.879 0.61,5.754 0.635,8.633 0.04,4.56 1.839,8.594 3.47,12.67 1.473,3.681 3.124,7.296 4.847,10.869 0.917,1.902 2.022,3.746 3.276,5.443 1.41,1.909 3.049,3.654 4.655,5.409 1.12,1.224 2.486,2.113 4.206,1.33 0.92,-0.418 1.67,-1.196 2.538,-1.744 3.927,-2.479 6.434,-6.004 7.832,-10.396 0.481,-1.511 1.127,-2.971 1.734,-4.55 0.894,3.564 2.225,6.838 4.287,9.722 1.462,2.045 3.508,3.148 6.206,2.587 2.635,-0.548 3.888,-2.469 4.739,-4.699 0.781,-2.044 1.316,-4.183 1.85,-5.922 0.693,1.909 1.432,4.185 2.341,6.391 1.255,3.047 2.749,5.993 5.28,8.208 2.292,2.006 4.961,3.409 7.902,4.21 2.196,0.598 4.705,-0.495 5.79,-2.479 0.761,-1.391 0.912,-2.873 0.673,-4.481 -0.373,-2.506 -0.559,-5.041 -0.771,-7.569 -0.272,-3.236 -0.493,-6.478 -0.736,-9.716 0.358,0.407 0.534,0.869 0.731,1.32 0.916,2.086 1.726,4.229 2.783,6.24 1.802,3.427 3.789,6.72 6.576,9.513 3.131,3.137 6.521,5.742 10.917,6.765 2.648,0.617 5.274,0.428 7.875,-0.358 1.29,-0.39 2.307,-1.159 2.341,-2.499 0.037,-1.456 -0.019,-3.05 -0.568,-4.359 -2.283,-5.437 -4.789,-10.779 -7.17,-16.174 -1.072,-2.424 -2.044,-4.895 -3.079,-7.39 z M 101.2,118.054 c 0.615,1.666 1.104,3.231 1.765,4.721 0.794,1.789 1.644,3.567 2.632,5.255 1.506,2.572 3.99,4.148 6.293,5.92 2.547,1.959 4.295,0.926 5.887,-0.811 1.073,-1.171 2.06,-2.422 3.142,-3.585 2.234,-2.403 3.834,-5.146 4.959,-8.24 0.842,-2.317 2.054,-4.498 3.04,-6.766 1.3,-2.991 2.819,-5.925 3.739,-9.033 1.373,-4.639 1.579,-9.504 1.716,-14.32 0.077,-2.689 -0.414,-5.391 -0.407,-8.086 0.012,-4.663 -0.711,-9.191 -1.926,-13.673 -0.295,-1.091 -0.416,-2.254 -0.439,-3.388 -0.041,-2 -0.39,-3.851 -1.723,-5.435 -1.656,-1.967 -4.156,-1.902 -5.764,0.071 -1.131,1.388 -2.372,2.7 -3.673,3.93 -1.504,1.421 -3.136,2.708 -4.701,4.066 -4.193,3.641 -9.169,4.922 -14.407,3.626 -4.082,-1.009 -7.166,-3.71 -7.767,-8.334 -0.169,-1.299 -0.259,-2.61 -0.465,-3.902 -0.856,-5.363 -0.367,-10.747 -0.153,-16.11 0.177,-4.435 0.833,-8.849 1.119,-13.283 0.213,-3.303 0.2,-6.621 0.244,-9.934 0.07,-5.363 -1.005,-10.446 -3.557,-15.224 -1.335,-2.499 -3,-4.471 -5.914,-4.957 -2.932,-0.489 -5.87,-1.004 -8.526,1.076 -1.701,1.332 -3.696,2.328 -5.25,3.801 -2.095,1.985 -3.932,4.25 -5.806,6.458 -2.205,2.598 -4.478,5.159 -6.444,7.932 -1.639,2.312 -2.816,4.946 -4.309,7.369 -2.35,3.81 -4.317,7.782 -5.907,11.978 -1.577,4.162 -3.48,8.198 -5.189,12.311 -0.694,1.67 -1.229,3.405 -1.875,5.096 -1.363,3.562 -2.733,7.12 -4.134,10.667 -1.719,4.351 -2.755,8.921 -4.718,13.216 -2.838,6.21 -5.143,12.658 -9.622,17.995 -1.658,1.975 -3.355,3.754 -5.887,4.616 -2.104,0.716 -4.089,1.648 -5.586,3.464 -1.254,1.522 -2.265,5.004 -0.971,7.217 1.714,2.93 4.195,4.825 7.42,5.469 2.156,0.43 4.447,0.366 6.664,0.249 1.51,-0.08 3.071,-0.447 4.478,-1.012 3.548,-1.425 6.343,-4.007 9.175,-6.474 1.656,-1.442 3.125,-3.099 4.679,-4.66 -0.347,1.311 -0.823,2.509 -1.346,3.686 -1.674,3.768 -3.4,7.513 -5.039,11.296 -1.437,3.318 -2.979,6.61 -4.112,10.033 -1.054,3.183 0.115,4.93 2.579,5.6 5.277,1.435 10.069,0.213 14.318,-2.988 2.095,-1.579 3.896,-3.565 5.742,-5.452 2.391,-2.443 3.824,-5.52 5.318,-8.532 1.08,-2.178 2.032,-4.419 3.041,-6.632 -0.055,1.915 -0.251,3.808 -0.427,5.703 -0.388,4.185 -0.712,8.375 -1.167,12.553 -0.264,2.428 1.417,4.998 3.752,5.76 1.731,0.565 3.227,0.144 4.83,-0.449 5.29,-1.957 8.736,-5.728 10.837,-10.825 1.042,-2.528 1.936,-5.119 2.698,-7.15 0.698,2.021 1.324,4.618 2.464,6.966 2.276,4.689 7.668,4.894 10.584,0.562 1.915,-2.848 3.161,-5.983 4.096,-9.407 z m 315.984,62.55 c 0.409,0.728 0.857,1.602 1.376,2.432 2.295,3.675 4.741,7.252 8.259,9.881 1.912,1.429 3.917,2.797 6.047,3.856 3.875,1.928 8.072,2.135 12.274,1.448 2.903,-0.475 5.862,-1.179 8.227,-2.976 3.529,-2.682 4.213,-3.689 1.656,-7.916 -0.811,-1.339 -1.968,-2.467 -2.942,-3.709 -3.191,-4.063 -6.484,-8.053 -9.51,-12.236 -1.548,-2.142 -2.61,-4.635 -3.943,-7.064 1.967,1.632 3.668,3.333 5.64,4.621 5.236,3.421 10.946,3.965 16.868,2.126 3.709,-1.152 6.326,-3.666 8.056,-7.099 1.037,-2.059 0.582,-4.273 -1.316,-5.547 -1.761,-1.181 -3.636,-2.256 -5.589,-3.073 -3.688,-1.543 -6.764,-3.818 -8.908,-7.165 -1.822,-2.843 -3.39,-5.851 -5.043,-8.801 -0.442,-0.789 -0.887,-1.6 -1.161,-2.456 -1.34,-4.182 -2.692,-8.362 -3.886,-12.586 -0.409,-1.447 -1.119,-2.074 -2.556,-2.452 -1.656,-0.435 -3.198,-1.305 -4.924,-2.044 0.245,0.474 0.495,0.866 0.66,1.291 1.431,3.676 3.034,7.299 4.214,11.056 1.243,3.957 -0.845,7.401 -3.592,8.419 -4.439,1.647 -8.926,1.668 -13.331,-0.081 -3.843,-1.525 -7.131,-3.893 -9.858,-7.024 -0.845,-0.97 -1.759,-1.879 -2.794,-2.979 0,0.57 -0.074,0.939 0.013,1.266 0.434,1.644 -0.113,3.172 -0.572,4.684 -1.104,3.63 -5.377,6.242 -9.09,5.41 -5.435,-1.219 -10.063,-3.8 -13.207,-8.585 -0.823,-1.254 -1.559,-2.566 -2.41,-3.976 -2.156,3.429 -5.219,4.847 -9.098,4.355 -3.876,-0.491 -6.182,-3.099 -7.959,-6.385 -2.016,3.538 -3.755,5.463 -7.206,8.098 -0.246,0.188 -0.556,0.581 -0.511,0.814 0.431,2.195 0.753,4.435 1.448,6.55 1.724,5.252 3.963,10.288 7.34,14.718 1.817,2.385 4.053,4.284 7.326,3.775 1.58,-0.245 3.089,-0.955 4.644,-1.458 0,2.292 -0.162,4.824 0.047,7.325 0.192,2.296 0.986,4.473 2.71,6.157 1.687,1.649 5.495,2.141 7.101,-0.732 0.823,-1.473 1.543,-3.004 2.364,-4.616 0.138,0.961 0.241,1.842 0.393,2.714 0.487,2.8 1.456,5.433 2.468,8.091 1.941,5.097 5.151,9.028 9.777,11.808 1.23,0.739 2.615,1.379 4.01,1.654 2.473,0.489 4.554,-1.108 5.199,-3.958 0.569,-2.523 0.873,-5.106 1.289,-7.631 z M 31.244,164.192 c -0.135,0.284 -0.193,0.408 -0.253,0.53 -1.976,4.039 -4.022,8.011 -7.061,11.42 -2.626,2.946 -5.062,6.065 -7.509,9.165 -0.943,1.195 -1.799,2.492 -2.485,3.85 -0.565,1.117 -1.003,2.456 0.013,3.568 0.956,1.047 1.94,2.203 3.156,2.853 4.516,2.41 9.315,3.358 14.488,2.738 3.662,-0.438 6.845,-1.885 9.737,-3.918 3.12,-2.193 5.811,-4.917 7.893,-8.174 1.221,-1.908 2.465,-3.803 3.594,-5.541 0.296,2.101 0.504,4.371 0.971,6.586 0.254,1.202 0.771,2.439 1.485,3.435 1.256,1.749 2.847,1.857 5.658,0.859 3.515,-1.249 6.135,-3.636 8.502,-6.405 2.392,-2.8 3.382,-6.297 4.868,-9.547 0.321,-0.701 0.433,-1.506 0.59,-2.272 0.362,-1.764 0.693,-3.532 1.049,-5.365 0.605,1.262 1.217,2.413 1.72,3.611 1.821,4.334 6.781,3.439 8.505,0.743 1.435,-2.245 2.008,-4.692 2.15,-7.27 0.101,-1.826 0.02,-3.663 0.02,-5.494 0.255,0.171 0.562,0.42 0.905,0.6 2.467,1.295 4.953,1.713 7.548,0.284 2.028,-1.116 3.303,-2.918 4.524,-4.764 3.899,-5.891 6.316,-12.366 7.457,-19.322 0.047,-0.287 -0.15,-0.771 -0.387,-0.924 -3.139,-2.027 -5.322,-4.896 -7.275,-8.148 -1.745,3.328 -4.083,5.916 -7.993,6.402 -3.871,0.481 -6.908,-0.992 -8.998,-4.277 -0.188,0.128 -0.27,0.16 -0.313,0.22 -0.094,0.129 -0.181,0.266 -0.248,0.41 -1.845,3.997 -4.546,7.244 -8.48,9.301 -3.027,1.583 -6.012,3.167 -9.744,2.308 -3.543,-0.815 -5.506,-2.914 -6.242,-6.281 -0.33,-1.508 -0.321,-3.09 -0.423,-4.182 -1.69,1.55 -3.563,3.381 -5.554,5.074 -5.718,4.865 -12.127,6.884 -19.557,4.614 -2.932,-0.896 -5.186,-3.634 -4.483,-7.452 0.528,-2.873 1.639,-5.652 2.634,-8.42 0.635,-1.766 1.533,-3.438 2.225,-4.958 -2.018,0.746 -4.101,1.502 -6.17,2.296 -0.255,0.098 -0.545,0.357 -0.631,0.606 -0.907,2.635 -1.996,5.233 -2.612,7.938 -1.333,5.848 -3.98,11.082 -7.089,16.111 -2.434,3.937 -5.806,6.817 -10.175,8.528 -1.643,0.643 -3.22,1.515 -4.716,2.458 -2.186,1.379 -2.886,3.569 -1.921,5.713 1.168,2.595 2.952,4.739 5.432,6.12 4.772,2.658 9.833,2.799 15.007,1.337 4.11,-1.159 7.052,-4.026 10.188,-6.964 z"
   style="clip-rule:evenodd;fill:none;fill-rule:evenodd" />

			
			
			
			
			
			
		<g
   transform="matrix(1.0620405,0,0,1.0620405,717.73974,-130.21592)"
   id="g3498">
  <path
     style="clip-rule:evenodd;fill-rule:evenodd"
     d="m 796.86011,246.33385 c 5.203,2.739 10.837,0.591 12.676,-4.838 0.774,-2.284 1.199,-4.687 1.826,-7.212 6.073,0.808 9.631,-3.109 12.75,-7.991 1.23,1.658 2.329,3.234 3.526,4.731 2.278,2.848 4.591,5.667 6.928,8.466 2.62,3.137 5.211,6.302 7.942,9.34 3.409,3.793 6.92,7.495 10.438,11.188 2.186,2.294 4.563,4.411 6.668,6.772 1.23,1.38 2.121,3.066 2.122,5.054 10e-4,2.623 -1.482,4.408 -4.099,4.704 -1.601,0.18 -3.223,0.169 -4.828,0.244 1.643,1.456 3.303,3.119 5.158,4.526 3.018,2.29 6.063,4.573 9.283,6.559 2.81,1.732 5.919,2.968 8.814,4.572 2.696,1.493 5.393,3.032 7.875,4.845 1.437,1.05 2.615,2.569 3.614,4.073 1.358,2.043 0.386,5.927 -1.669,7.459 -0.76,0.566 -1.604,1.02 -2.372,1.579 -2.467,1.799 -5.209,1.208 -7.778,0.631 -7.5,-1.688 -14.499,-4.758 -21.232,-8.401 -1.976,-1.069 -3.709,-2.582 -5.567,-3.873 -0.435,-0.303 -0.922,-0.53 -1.385,-0.793 -0.061,0.083 -0.121,0.165 -0.182,0.248 1.531,1.425 2.964,2.978 4.615,4.248 2.847,2.189 5.734,4.354 8.776,6.253 4.079,2.549 8.486,4.438 13.261,5.293 1.893,0.339 3.26,1.551 4.733,2.59 4.523,3.19 7.74,7.432 9.785,12.544 0.903,2.259 0.858,4.606 0.413,7.012 -0.317,1.711 -1.188,2.97 -2.318,4.162 -0.711,0.75 -1.571,1.066 -2.47,0.557 -1.916,-1.086 -3.983,-2.039 -5.607,-3.478 -3.881,-3.438 -7.53,-7.138 -11.296,-10.708 -3.995,-3.789 -7.948,-7.625 -12.043,-11.304 -4.589,-4.122 -9.271,-8.146 -14.01,-12.096 -1.577,-1.313 -3.458,-2.263 -5.201,-3.379 -0.095,0.125 -0.189,0.251 -0.285,0.376 0.724,0.673 1.448,1.346 2.171,2.019 2.151,2.005 4.327,3.983 6.449,6.019 4.677,4.483 9.331,8.99 13.985,13.497 3.295,3.19 6.44,6.551 9.895,9.558 4.105,3.573 7.416,7.738 10.27,12.313 1.519,2.434 2.371,5.126 2.841,7.942 0.628,3.771 1.134,7.567 0.48,11.375 -0.412,2.4 -1.64,4.424 -3.655,5.881 -2.036,1.473 -5.137,0.396 -6.928,-1.296 -2.98,-2.814 -4.576,-6.362 -5.455,-10.292 -1.414,-6.323 -3.73,-12.285 -7.264,-17.734 -3.013,-4.646 -6.013,-9.302 -9.177,-13.844 -1.446,-2.077 -3.179,-3.98 -4.945,-5.804 -3.835,-3.959 -7.596,-8.021 -11.723,-11.66 -4.458,-3.933 -8.656,-8.228 -13.847,-11.276 -0.467,-0.274 -0.903,-0.6 -1.354,-0.901 -0.078,0.067 -0.157,0.135 -0.235,0.202 0.489,0.573 0.938,1.188 1.474,1.715 2.958,2.912 5.918,5.823 8.914,8.696 2.533,2.43 5.174,4.748 7.664,7.22 5.932,5.888 11.395,12.154 15.865,19.272 3.059,4.871 6.249,9.657 8.42,15.006 1.382,3.403 2.666,6.837 2.638,10.639 -0.021,2.973 0.563,5.966 0.37,8.917 -0.26,3.99 -0.401,8.068 -2.125,11.806 -0.421,0.914 -1.002,1.841 -1.74,2.506 -2.857,2.574 -6.537,1.372 -7.831,-1.707 -0.942,-2.241 -1.701,-4.561 -2.512,-6.855 -1.112,-3.147 -2.241,-6.29 -3.278,-9.462 -0.81,-2.477 -1.349,-5.049 -2.26,-7.485 -1.896,-5.069 -4.74,-9.622 -7.905,-14.003 -5.556,-7.691 -12.1,-14.489 -18.936,-21.009 -2.758,-2.632 -5.858,-4.902 -8.772,-7.374 -2.88,-2.442 -5.717,-4.937 -8.583,-7.396 -1.249,-1.072 -2.521,-2.116 -3.784,-3.173 -0.083,0.083 -0.165,0.167 -0.247,0.25 0.423,0.494 0.8,1.041 1.277,1.476 4.073,3.705 7.71,7.817 11.4,11.895 3.75,4.144 7.718,8.097 11.702,12.021 4.238,4.175 8.042,8.691 11.604,13.451 3.793,5.068 6.918,10.48 9.604,16.207 1.827,3.896 2.749,7.979 3.483,12.143 0.414,2.344 0.924,4.724 0.893,7.081 -0.046,3.487 -0.776,6.855 -3.009,9.771 -1.833,2.391 -5.131,2.822 -6.908,0.433 -1.803,-2.424 -3.294,-5.096 -4.774,-7.742 -2.272,-4.063 -4.218,-8.321 -6.667,-12.27 -3.009,-4.851 -6.217,-9.604 -9.684,-14.135 -2.114,-2.764 -4.793,-5.121 -7.371,-7.496 -2.624,-2.417 -5.298,-4.822 -8.191,-6.896 -5.644,-4.044 -11.454,-7.857 -17.199,-11.759 -5.215,-3.542 -10.038,-7.572 -14.154,-12.331 -3.824,-4.421 -7.269,-9.159 -9.74,-14.514 -3.297,-7.142 -5.594,-14.614 -7.206,-22.3 -0.5,-2.384 -0.825,-4.806 -1.248,-7.319 9.433,-0.203 16.19,-5.188 21.912,-12.233 0.813,1.999 1.761,3.763 3.635,4.824 2.019,1.145 4.126,1.491 6.335,0.721 6.094,-2.127 10.597,-6.142 13.596,-11.804 1.13,-2.141 1.964,-4.436 2.969,-6.739 z"
     id="path3419" />
  <path
     style="clip-rule:evenodd;fill-rule:evenodd"
     d="m 936.82553,299.85185 c -2.08,1.424 -4.285,2.699 -6.217,4.304 -4.288,3.561 -8.49,7.23 -12.628,10.965 -3.05,2.753 -5.925,5.698 -8.912,8.522 -4.349,4.111 -8.739,8.18 -13.091,12.289 -1.678,1.584 -3.347,3.143 -5.452,4.19 -2.997,1.491 -5.466,0.528 -6.299,-2.787 -0.566,-2.249 -0.884,-4.554 -0.225,-6.921 0.755,-2.709 2.133,-5.062 3.675,-7.35 2.238,-3.32 5.334,-5.742 8.568,-7.986 0.754,-0.523 1.715,-0.846 2.627,-1.026 6.994,-1.384 13.051,-4.747 18.677,-8.931 2.576,-1.917 4.899,-4.175 7.329,-6.286 0.231,-0.2 0.412,-0.457 0.617,-0.688 -0.062,-0.084 -0.123,-0.169 -0.184,-0.253 -1.284,0.87 -2.637,1.654 -3.838,2.625 -3.698,2.988 -8.052,4.714 -12.355,6.528 -4.232,1.784 -8.531,3.343 -13.074,4.241 -3.849,0.762 -6.93,-0.462 -9.592,-3.032 -2.296,-2.217 -2.021,-6.006 0.128,-8.62 2.665,-3.245 6.25,-5.08 9.819,-6.965 4.914,-2.596 10.077,-4.75 14.518,-8.173 2.133,-1.645 4.188,-3.393 6.258,-5.117 1.031,-0.859 2.019,-1.771 3.145,-2.763 -1.095,0.067 -2.058,0.215 -3.008,0.158 -1.021,-0.061 -2.082,-0.169 -3.034,-0.51 -2.914,-1.043 -3.591,-3.028 -2.867,-5.919 0.602,-2.398 2.164,-4.333 3.868,-6.047 2.641,-2.656 5.549,-5.052 8.132,-7.761 3.126,-3.277 6.042,-6.757 9.027,-10.168 2.614,-2.987 5.266,-5.946 7.776,-9.021 2.701,-3.307 5.257,-6.733 7.878,-10.106 0.214,-0.275 0.438,-0.542 0.731,-0.903 3.07595,4.752 6.56803,8.709 12.79697,7.912 0.47606,2.147 0.82906,4.265 1.42106,6.313 1.70592,5.902 7.26696,8.768 13.03,5.829 0.52296,1.157 1.13796,2.279 1.55192,3.472 2.01706,5.812 5.84404,10.119 11.03608,13.248 1.35296,0.815 2.87492,1.437 4.39898,1.862 3.54598,0.99 6.94296,-0.579 8.68706,-3.84 0.295,-0.551 0.547,-1.125 0.866,-1.786 5.682,7.002 12.434,11.997 21.887,12.205 -0.34,2.072 -0.584,4.063 -1.003,6.018 -1.237,5.773 -2.652,11.491 -4.713,17.051 -2.545,6.868 -6.002,13.185 -10.654,18.837 -3.75,4.557 -7.8461,8.748 -12.75004,12.108 -5.988,4.104 -11.98004,8.207 -17.85704,12.469 -3.55102,2.575 -6.941,5.382 -10.30602,8.201 -7.86496,6.594 -13.52496,14.946 -18.53997,23.763 -2.614,4.598 -4.927,9.367 -7.462,14.011 -0.846,1.548 -1.928,2.971 -2.962,4.407 -1.419,1.972 -4.86,2.095 -6.737,-0.323 -1.831,-2.358 -2.61,-5.102 -3.063,-8.06 -0.564,-3.684 0.503,-7.11 1.105,-10.612 0.401,-2.329 0.868,-4.69 1.693,-6.894 1.623,-4.336 3.688,-8.471 6.093,-12.457 3.604,-5.973 7.839,-11.453 12.492,-16.609 2.75301,-3.05 5.81303,-5.821 8.63895,-8.808 4.22208,-4.46 8.33106,-9.027 12.546,-13.493 1.77506,-1.88 3.70402,-3.614 5.55104,-5.427 0.61,-0.599 1.18096,-1.237 1.76996,-1.857 -0.08,-0.086 -0.159,-0.173 -0.238,-0.259 -0.97296,0.77 -1.96592,1.515 -2.91192,2.315 -5.49404,4.653 -11.09004,9.197 -16.43008,14.023 -4.04998,3.662 -7.73395,7.724 -11.64295,11.546 -4.117,4.026 -7.393,8.735 -10.721,13.371 -3.779,5.263 -6.62,11.01 -8.011,17.455 -0.657,3.048 -2.042,5.937 -3.067,8.907 -0.883,2.561 -1.67,5.155 -2.604,7.697 -0.646,1.762 -1.501,3.502 -3.435,4.163 -2.523,0.862 -4.998,0.209 -6.595,-3.226 -0.784,-1.687 -1.402,-3.542 -1.624,-5.378 -0.438,-3.618 -0.719,-7.273 -0.754,-10.917 -0.077,-7.914 2.141,-15.255 6.29,-21.955 3.354,-5.418 6.759,-10.824 10.492,-15.981 2.41,-3.33 5.421,-6.233 8.224,-9.271 1.923,-2.084 3.909,-4.116 5.943,-6.093 2.459,-2.39 5.01,-4.685 7.501,-7.042 1.97,-1.863 3.91601,-3.752 5.85397,-5.647 0.391,-0.382 0.70006,-0.846 0.86306,-1.496 -0.41206,0.283 -0.80406,0.602 -1.23806,0.845 -4.17197,2.336 -7.45597,5.782 -11.10097,8.785 -5.813,4.791 -10.883,10.34 -16.068,15.747 -2.996,3.125 -5.355,6.874 -7.89,10.422 -3.53,4.943 -6.719,10.13 -8.947,15.78 -1.576,3.998 -2.437,8.273 -3.838,12.348 -1.166,3.388 -2.815,6.62 -6.03,8.536 -2.522,1.505 -4.629,1.562 -6.821,-0.776 -1.852,-1.974 -2.571,-4.291 -2.691,-6.865 -0.188,-4.028 0.322,-8.016 1.271,-11.905 0.924,-3.783 3.272,-6.868 5.477,-10.015 3.038,-4.34 7.214,-7.535 10.921,-11.203 2.295,-2.271 4.574,-4.558 6.896,-6.802 2.779,-2.687 5.604,-5.327 8.396,-8 3.381,-3.234 6.742,-6.489 10.129,-9.717 0.83,-0.791 1.733,-1.503 2.589,-2.267 0.247,-0.22 0.443,-0.496 0.662,-0.747 -0.12,-0.133 -0.242,-0.27 -0.364,-0.407 z"
     id="path3421" />
  <path
     style="clip-rule:evenodd;fill-rule:evenodd"
     d="m 1010.3376,177.07385 c 1.035,2.495 2.007,4.966 3.078,7.394 2.381,5.396 4.887,10.738 7.17,16.174 0.55,1.309 0.605,2.903 0.568,4.359 -0.034,1.339 -1.051,2.108 -2.341,2.499 -2.601,0.786 -5.227,0.975 -7.875,0.358 -4.396,-1.023 -7.786,-3.628 -10.9171,-6.765 -2.78698,-2.793 -4.77394,-6.086 -6.576,-9.513 -1.05796,-2.012 -1.86702,-4.154 -2.78298,-6.24 -0.197,-0.452 -0.373,-0.913 -0.731,-1.32 0.243,3.239 0.464,6.48 0.736,9.716 0.21296,2.528 0.39796,5.063 0.77096,7.569 0.239,1.608 0.088,3.09 -0.67296,4.481 -1.085,1.984 -3.59402,3.077 -5.79004,2.479 -2.94092,-0.801 -5.60994,-2.204 -7.90196,-4.21 -2.53102,-2.215 -4.02498,-5.16 -5.28004,-8.208 -0.90896,-2.206 -1.64696,-4.482 -2.34092,-6.391 -0.533,1.739 -1.068,3.878 -1.85006,5.922 -0.85196,2.229 -2.10402,4.151 -4.73894,4.699 -2.69802,0.561 -4.74408,-0.542 -6.20604,-2.587 -2.06302,-2.884 -3.39398,-6.158 -4.28704,-9.722 -0.607,1.58 -1.25295,3.039 -1.73395,4.55 -1.398,4.392 -3.905,7.916 -7.832,10.396 -0.868,0.548 -1.618,1.326 -2.538,1.744 -1.72,0.783 -3.086,-0.106 -4.206,-1.33 -1.606,-1.755 -3.245,-3.5 -4.655,-5.409 -1.254,-1.697 -2.359,-3.542 -3.276,-5.443 -1.723,-3.572 -3.374,-7.188 -4.847,-10.869 -1.631,-4.077 -3.43,-8.111 -3.47,-12.67 -0.024,-2.879 -0.618,-5.754 -0.635,-8.633 -0.021,-3.733 0.086,-7.489 0.496,-11.195 0.356,-3.229 1.253,-6.395 1.823,-9.603 0.276,-1.549 0.254,-3.153 0.548,-4.697 0.231,-1.215 0.682,-2.401 1.14,-3.559 0.652,-1.649 2.28,-1.931 3.718,-2.202 0.608,-0.115 1.604,0.415 2.027,0.96 2.868,3.693 6.413,6.67 10.08,9.474 3.509,2.683 7.572,3.515 11.996,2.951 1.95301,-0.249 3.54597,-1.096 5.07603,-2.126 2.52592,-1.7 3.83698,-4.221 4.06298,-7.198 0.34096,-4.482 0.69296,-8.978 0.69496,-13.468 0,-4.41 -0.188,-8.85 -0.73096,-13.222 -0.69,-5.555 -0.907,-11.10498 -0.887,-16.68596 0.021,-5.731992 1.49696,-11.079992 4.45998,-15.929992 1.35896,-2.226 3.66398,-3.518 6.364,-3.647 1.65696,-0.08 3.34002,0.025 4.98604,0.234 0.68,0.086 1.28196,0.696 1.94396,1.015 4.65804,2.237 7.81996,6.098 10.96098,10.001 2.26102,2.81 4.73804,5.458 6.84006,8.379992 1.63096,2.266995 2.74692,4.895985 4.24098,7.269975 2.62206,4.165985 4.64606,8.588985 6.37006,13.193985 1.505,4.02 3.414,7.885 5.011,11.873 2.016,5.037 3.956,10.106 5.809,15.205 1.072,2.95 1.809,6.021 2.88,8.971 0.915,2.521 2.045,4.968 3.167,7.407 1.436,3.118 2.78,6.297 4.491,9.262 2.016,3.494 4.223,6.944 7.774,9.144 1.191,0.738 2.584,1.162 3.9,1.69 3.203,1.285 5.949,4.877 5.006,8.484 -0.63,2.408 -2.299,4.196 -4.458,5.494 -3.343,2.01 -6.97,1.741 -10.648,1.518 -4.706,-0.285 -8.012,-3.161 -11.365,-5.909 -2.297,-1.886 -4.378,-4.031 -6.616,-6.115 z"
     id="path3423" />
  <path
     style="clip-rule:evenodd;fill-rule:evenodd"
     d="m 820.56811,187.75085 c -0.935,3.424 -2.181,6.559 -4.096,9.403 -2.916,4.333 -8.308,4.128 -10.584,-0.562 -1.14,-2.348 -1.766,-4.945 -2.464,-6.966 -0.762,2.031 -1.655,4.622 -2.698,7.15 -2.101,5.098 -5.547,8.868 -10.837,10.825 -1.603,0.593 -3.099,1.014 -4.83,0.449 -2.335,-0.763 -4.016,-3.333 -3.752,-5.76 0.455,-4.177 0.779,-8.368 1.167,-12.553 0.175,-1.895 0.372,-3.788 0.427,-5.703 -1.009,2.213 -1.961,4.455 -3.041,6.632 -1.494,3.013 -2.927,6.089 -5.318,8.532 -1.846,1.887 -3.647,3.873 -5.742,5.452 -4.249,3.202 -9.041,4.423 -14.318,2.988 -2.464,-0.67 -3.633,-2.417 -2.579,-5.6 1.133,-3.423 2.675,-6.715 4.112,-10.033 1.638,-3.783 3.365,-7.528 5.039,-11.296 0.523,-1.177 0.999,-2.375 1.346,-3.686 -1.553,1.561 -3.022,3.217 -4.679,4.66 -2.832,2.467 -5.627,5.049 -9.175,6.474 -1.407,0.565 -2.967,0.933 -4.478,1.012 -2.216,0.117 -4.508,0.181 -6.664,-0.249 -3.225,-0.644 -5.706,-2.539 -7.42,-5.469 -1.294,-2.213 -0.284,-5.695 0.971,-7.217 1.497,-1.816 3.482,-2.748 5.586,-3.464 2.532,-0.862 4.229,-2.641 5.887,-4.616 4.479,-5.337 6.783,-11.784 9.622,-17.995 1.963,-4.295 3,-8.865 4.718,-13.216 1.401,-3.547 2.771,-7.105 4.134,-10.667 0.646,-1.69 1.182,-3.426 1.875,-5.096 1.709,-4.113 3.612,-8.149 5.189,-12.311 1.59,-4.195 3.557,-8.167 5.907,-11.977985 1.493,-2.42199 2.67,-5.05698 4.309,-7.368975 1.966,-2.772992 4.24,-5.332992 6.444,-7.931992 1.874,-2.208 3.711,-4.473 5.806,-6.458 1.554,-1.473 3.548,-2.469 5.25,-3.801 2.656,-2.08 5.594,-1.565 8.526,-1.076 2.914,0.486 4.579,2.458 5.914,4.957 2.552,4.777 3.627,9.86 3.557,15.223992 -0.044,3.312985 -0.031,6.630975 -0.244,9.93396 -0.287,4.434 -0.942,8.848 -1.119,13.283 -0.214,5.364 -0.703,10.747 0.153,16.11 0.206,1.292 0.296,2.603 0.465,3.902 0.601,4.625 3.685,7.325 7.767,8.334 5.238,1.296 10.213,0.015 14.407,-3.626 1.565,-1.358 3.196,-2.645 4.701,-4.066 1.302,-1.23 2.542,-2.542 3.673,-3.93 1.608,-1.973 4.108,-2.039 5.764,-0.071 1.333,1.584 1.682,3.436 1.723,5.435 0.023,1.133 0.144,2.297 0.439,3.388 1.215,4.481 1.938,9.01 1.926,13.673 -0.007,2.695 0.484,5.397 0.407,8.086 -0.137,4.816 -0.344,9.682 -1.716,14.32 -0.919,3.108 -2.439,6.042 -3.739,9.033 -0.986,2.269 -2.198,4.449 -3.04,6.766 -1.125,3.094 -2.725,5.837 -4.959,8.24 -1.082,1.163 -2.068,2.414 -3.142,3.585 -1.592,1.737 -3.34,2.77 -5.887,0.811 -2.303,-1.771 -4.788,-3.348 -6.293,-5.92 -0.988,-1.688 -1.837,-3.466 -2.632,-5.255 -0.66,-1.486 -1.15,-3.051 -1.765,-4.717 z"
     id="path3425" />
  <path
     style="clip-rule:evenodd;fill-rule:evenodd"
     d="m 1000.8125,250.30085 c -0.416,2.524 -0.72,5.107 -1.29096,7.63 -0.646,2.85 -2.72702,4.447 -5.19904,3.958 -1.39496,-0.275 -2.77902,-0.915 -4.00998,-1.654 -4.62598,-2.779 -7.83596,-6.711 -9.77702,-11.808 -1.01196,-2.658 -1.98002,-5.291 -2.46802,-8.091 -0.151,-0.872 -0.255,-1.753 -0.393,-2.714 -0.82096,1.612 -1.54092,3.144 -2.36392,4.616 -1.60506,2.873 -5.41404,2.382 -7.10106,0.732 -1.72396,-1.685 -2.51802,-3.861 -2.71002,-6.157 -0.209,-2.501 -0.047,-5.033 -0.047,-7.325 -1.55496,0.504 -3.06292,1.213 -4.64398,1.458 -3.27298,0.509 -5.50894,-1.391 -7.32596,-3.775 -3.37701,-4.43 -5.61601,-9.466 -7.34001,-14.718 -0.695,-2.115 -1.018,-4.354 -1.448,-6.55 -0.045,-0.234 0.265,-0.627 0.511,-0.814 3.451,-2.634 5.19,-4.56 7.20595,-8.098 1.77702,3.286 4.08308,5.894 7.95906,6.385 3.87898,0.492 6.94096,-0.926 9.09802,-4.355 0.85196,1.41 1.58692,2.722 2.40992,3.976 3.14408,4.785 7.77206,7.367 13.207,8.585 3.71308,0.833 7.98606,-1.779 9.09002,-5.41 0.459,-1.512 1.00606,-3.04 0.57206,-4.684 -0.087,-0.327 -0.013,-0.696 -0.013,-1.266 1.035,1.1 1.94896,2.009 2.79392,2.979 2.72802,3.131 6.01612,5.5 9.85812,7.024 4.405,1.749 8.892,1.728 13.331,0.081 2.747,-1.019 4.835,-4.463 3.592,-8.419 -1.18,-3.756 -2.783,-7.379 -4.214,-11.056 -0.165,-0.425 -0.415,-0.817 -0.66,-1.291 1.726,0.739 3.268,1.609 4.924,2.044 1.437,0.377 2.146,1.004 2.556,2.452 1.193,4.224 2.546,8.405 3.886,12.586 0.274,0.855 0.719,1.667 1.161,2.456 1.653,2.95 3.221,5.958 5.043,8.801 2.145,3.347 5.22,5.622 8.908,7.165 1.953,0.817 3.828,1.893 5.589,3.073 1.898,1.274 2.354,3.488 1.316,5.547 -1.729,3.433 -4.347,5.946 -8.056,7.099 -5.922,1.839 -11.632,1.295 -16.868,-2.126 -1.972,-1.288 -3.673,-2.989 -5.64,-4.621 1.333,2.43 2.396,4.923 3.943,7.064 3.025,4.184 6.318,8.173 9.51,12.236 0.975,1.242 2.132,2.37 2.942,3.709 2.557,4.227 1.873,5.234 -1.656,7.916 -2.364,1.797 -5.323,2.501 -8.227,2.976 -4.202,0.687 -8.399,0.479 -12.274,-1.448 -2.13,-1.06 -4.135,-2.428 -6.047,-3.856 -3.518,-2.629 -5.964,-6.206 -8.259,-9.881 -0.517,-0.829 -0.9651,-1.703 -1.3741,-2.431 z"
     id="path3427" />
  <path
     style="clip-rule:evenodd;fill-rule:evenodd"
     d="m 750.61211,233.88885 c -3.136,2.938 -6.078,5.805 -10.188,6.966 -5.174,1.462 -10.235,1.321 -15.007,-1.337 -2.48,-1.381 -4.264,-3.525 -5.432,-6.12 -0.965,-2.144 -0.265,-4.334 1.921,-5.713 1.496,-0.944 3.073,-1.815 4.716,-2.458 4.37,-1.71 7.742,-4.591 10.175,-8.528 3.108,-5.029 5.756,-10.263 7.089,-16.111 0.616,-2.705 1.705,-5.303 2.612,-7.938 0.086,-0.249 0.376,-0.508 0.631,-0.606 2.069,-0.794 4.152,-1.55 6.17,-2.296 -0.691,1.52 -1.59,3.191 -2.225,4.958 -0.995,2.769 -2.105,5.548 -2.634,8.42 -0.703,3.818 1.551,6.556 4.483,7.452 7.429,2.27 13.839,0.251 19.557,-4.614 1.99,-1.693 3.864,-3.524 5.554,-5.074 0.103,1.092 0.094,2.674 0.423,4.182 0.736,3.368 2.699,5.466 6.242,6.281 3.732,0.859 6.717,-0.726 9.744,-2.308 3.934,-2.057 6.636,-5.305 8.48,-9.301 0.067,-0.145 0.154,-0.281 0.248,-0.41 0.043,-0.06 0.125,-0.092 0.313,-0.22 2.09,3.285 5.126,4.758 8.998,4.277 3.91,-0.486 6.248,-3.075 7.993,-6.402 1.953,3.251 4.136,6.121 7.275,8.148 0.237,0.153 0.434,0.637 0.387,0.924 -1.14,6.957 -3.557,13.432 -7.457,19.322 -1.221,1.846 -2.496,3.648 -4.524,4.764 -2.596,1.429 -5.081,1.011 -7.548,-0.284 -0.343,-0.18 -0.649,-0.429 -0.905,-0.6 0,1.831 0.081,3.668 -0.02,5.494 -0.142,2.577 -0.715,5.024 -2.15,7.27 -1.724,2.696 -6.684,3.591 -8.505,-0.743 -0.503,-1.198 -1.115,-2.35 -1.72,-3.611 -0.356,1.833 -0.687,3.602 -1.049,5.365 -0.158,0.767 -0.27,1.571 -0.59,2.272 -1.485,3.25 -2.476,6.747 -4.868,9.547 -2.367,2.77 -4.987,5.156 -8.502,6.405 -2.812,0.998 -4.402,0.89 -5.658,-0.859 -0.714,-0.995 -1.231,-2.232 -1.485,-3.435 -0.467,-2.215 -0.675,-4.485 -0.971,-6.586 -1.129,1.738 -2.374,3.633 -3.594,5.541 -2.082,3.257 -4.773,5.98 -7.893,8.174 -2.893,2.033 -6.076,3.479 -9.737,3.918 -5.173,0.62 -9.973,-0.328 -14.488,-2.738 -1.216,-0.649 -2.2,-1.806 -3.156,-2.853 -1.016,-1.112 -0.578,-2.451 -0.013,-3.568 0.687,-1.357 1.542,-2.654 2.485,-3.85 2.447,-3.1 4.883,-6.219 7.509,-9.165 3.038,-3.409 5.085,-7.381 7.061,-11.42 0.06,-0.123 0.118,-0.247 0.253,-0.532 z"
     id="path3429" />
</g>
</g>

	</g>
      <g
         id="Ebene_1-3">
</g>
    </g>
  </g>
</svg>
